<svg xmlns="http://www.w3.org/2000/svg" viewBox="0 0 1200 600.01"><defs><style>.cls-1{fill:#213000;}.cls-2{fill:#b78858;}.cls-3{fill:#aa7d53;}.cls-4{fill:#bfb690;}.cls-5{fill:#a8a07e;}.cls-6{fill:#b2a87d;}.cls-7{fill:#a09770;}.cls-8{fill:#b5ac86;}.cls-9{fill:#36a9e1;}.cls-10{fill:#e30613;}</style></defs><title>background_FINALRecurso 50</title><g id="Capa_2" data-name="Capa 2"><g id="Capa_1-2" data-name="Capa 1"><polyline class="cls-1" points="1200 114.49 1200 431.42 0 431.42 0 114.49 1200 114.49"/><g id="Silencio"><rect class="cls-2" y="416.82" width="1200" height="133.31"/><rect class="cls-3" y="471.14" width="1200" height="8.23"/><rect class="cls-3" y="432.87" width="1200" height="8.23"/><rect class="cls-3" y="508.17" width="1200" height="8.23"/><rect class="cls-4" y="123.13" width="1200" height="42.92"/><rect class="cls-5" y="132.16" width="1200" height="15.06"/><rect class="cls-4" y="123.13" width="1200" height="15.06"/><rect class="cls-6" y="396.05" width="1200" height="27.97"/><rect class="cls-7" y="397.59" width="1200" height="27.97"/><rect class="cls-4" y="399.61" width="1200" height="27.97"/><path class="cls-8" d="M75.67,407.45H10.43v12.29H75.67ZM72.85,418H13.25v-8.8h59.6Z"/><path class="cls-8" d="M145.46,407.45H80.22v12.29h65.24ZM142.64,418H83v-8.8h59.6Z"/><path class="cls-8" d="M215.25,407.45H150v12.29h65.24ZM212.43,418h-59.6v-8.8h59.6Z"/><path class="cls-8" d="M285,407.45H219.8v12.29H285ZM282.22,418h-59.6v-8.8h59.6Z"/><path class="cls-8" d="M354.83,407.45H289.59v12.29h65.24ZM352,418h-59.6v-8.8H352Z"/><path class="cls-8" d="M424.62,407.45H359.38v12.29h65.24ZM421.79,418H362.2v-8.8h59.59Z"/><path class="cls-8" d="M494.4,407.45H429.17v12.29H494.4ZM491.58,418H432v-8.8h59.59Z"/><path class="cls-8" d="M564.19,407.45H499v12.29h65.23ZM561.37,418H501.78v-8.8h59.59Z"/><path class="cls-8" d="M634,407.45H568.75v12.29H634ZM631.16,418H571.57v-8.8h59.59Z"/><path class="cls-8" d="M703.77,407.45H638.54v12.29h65.23ZM701,418H641.36v-8.8H701Z"/><path class="cls-8" d="M773.56,407.45H708.33v12.29h65.23ZM770.74,418H711.15v-8.8h59.59Z"/><path class="cls-8" d="M843.35,407.45H778.11v12.29h65.24ZM840.53,418H780.94v-8.8h59.59Z"/><path class="cls-8" d="M913.14,407.45H847.9v12.29h65.24ZM910.32,418h-59.6v-8.8h59.6Z"/><path class="cls-8" d="M982.93,407.45H917.69v12.29h65.24ZM980.11,418h-59.6v-8.8h59.6Z"/><path class="cls-8" d="M1052.72,407.45H987.48v12.29h65.24ZM1049.9,418H990.3v-8.8h59.6Z"/><path class="cls-8" d="M1122.51,407.45h-65.24v12.29h65.24ZM1119.69,418h-59.6v-8.8h59.6Z"/><path class="cls-8" d="M1192.3,407.45h-65.24v12.29h65.24ZM1189.48,418h-59.6v-8.8h59.6Z"/><rect class="cls-9" width="1200" height="123.13"/><rect class="cls-10" y="526.79" width="1200" height="23.44"/><rect class="cls-10" y="550.01" width="1200" height="50"/></g></g></g></svg>