<svg xmlns="http://www.w3.org/2000/svg" viewBox="0 0 1200.03 600.02"><defs><style>.cls-1{fill:#ffecc2;}.cls-2{fill:#b78858;}.cls-3{fill:#aa7d53;}.cls-4{fill:#bfb690;}.cls-5{fill:#a8a07e;}.cls-6{fill:#b2a87d;}.cls-7{fill:#a09770;}.cls-8{fill:#b5ac86;}.cls-9{fill:#36a9e1;}.cls-10{fill:#e30613;}.cls-11{fill:#1d1d1b;}</style></defs><title>backgroundRecurso 24</title><g id="Capa_2" data-name="Capa 2"><g id="Capa_1-2" data-name="Capa 1"><polyline class="cls-1" points="1200 99.76 1200 416.69 0 416.69 0 99.76 1200 99.76"/><g id="Silencio"><rect class="cls-2" y="416.69" width="1200" height="133.31"/><rect class="cls-3" y="471" width="1200" height="8.23"/><rect class="cls-3" y="432.74" width="1200" height="8.23"/><rect class="cls-3" y="508.03" width="1200" height="8.23"/><rect class="cls-4" y="123.13" width="1200" height="42.92"/><rect class="cls-5" y="132.16" width="1200" height="15.06"/><rect class="cls-4" y="123.13" width="1200" height="15.06"/><rect class="cls-6" x="0.03" y="396.3" width="1200" height="27.97"/><rect class="cls-7" x="0.03" y="397.83" width="1200" height="27.97"/><rect class="cls-4" x="0.03" y="399.86" width="1200" height="27.97"/><path class="cls-8" d="M75.7,407.69H10.47V420H75.7Zm-2.82,10.55H13.29v-8.8H72.88Z"/><path class="cls-8" d="M145.49,407.69H80.26V420h65.23Zm-2.82,10.55H83.08v-8.8h59.59Z"/><path class="cls-8" d="M215.28,407.69H150.05V420h65.23Zm-2.82,10.55H152.87v-8.8h59.59Z"/><path class="cls-8" d="M285.07,407.69H219.83V420h65.24Zm-2.82,10.55h-59.6v-8.8h59.6Z"/><path class="cls-8" d="M354.86,407.69H289.62V420h65.24ZM352,418.24h-59.6v-8.8H352Z"/><path class="cls-8" d="M424.65,407.69H359.41V420h65.24Zm-2.82,10.55h-59.6v-8.8h59.6Z"/><path class="cls-8" d="M494.44,407.69H429.2V420h65.24Zm-2.82,10.55H432v-8.8h59.6Z"/><path class="cls-8" d="M564.23,407.69H499V420h65.24Zm-2.82,10.55h-59.6v-8.8h59.6Z"/><path class="cls-8" d="M634,407.69H568.78V420H634Zm-2.82,10.55H571.6v-8.8h59.6Z"/><path class="cls-8" d="M703.81,407.69H638.57V420h65.24ZM701,418.24h-59.6v-8.8H701Z"/><path class="cls-8" d="M773.6,407.69H708.36V420H773.6Zm-2.82,10.55h-59.6v-8.8h59.6Z"/><path class="cls-8" d="M843.39,407.69H778.15V420h65.24Zm-2.83,10.55H781v-8.8h59.59Z"/><path class="cls-8" d="M913.17,407.69H847.94V420h65.23Zm-2.82,10.55H850.76v-8.8h59.59Z"/><path class="cls-8" d="M983,407.69H917.73V420H983Zm-2.82,10.55H920.55v-8.8h59.59Z"/><path class="cls-8" d="M1052.75,407.69H987.52V420h65.23Zm-2.82,10.55H990.34v-8.8h59.59Z"/><path class="cls-8" d="M1122.54,407.69h-65.23V420h65.23Zm-2.82,10.55h-59.59v-8.8h59.59Z"/><path class="cls-8" d="M1192.33,407.69H1127.1V420h65.23Zm-2.82,10.55h-59.59v-8.8h59.59Z"/><rect class="cls-9" width="1200" height="123.13"/><rect class="cls-10" x="0.03" y="526.79" width="1200" height="23.44"/><rect class="cls-11" y="550.02" width="1200" height="50"/></g></g></g></svg>