<svg xmlns="http://www.w3.org/2000/svg" viewBox="0 0 183.28 68.16"><defs><style>.cls-1{fill:#ff7f71;}.cls-2{fill:#3e4e5e;}.cls-3{fill:#334354;}</style></defs><title>barreraRecurso 20</title><g id="Capa_2" data-name="Capa 2"><g id="Capa_1-2" data-name="Capa 1"><path class="cls-1" d="M132.32,22A80.81,80.81,0,0,1,91.85,10.65C49.5,35.49,12,10.46,11.64,10.2l1.43-1.26A73.22,73.22,0,0,0,36.59,18.3c19,4.11,37.35.95,54.62-9.39l.71-.43.67.46a75.65,75.65,0,0,0,23.85,9.71c19,4.26,36.92,1,53.29-9.72l1.4,1.28A69.83,69.83,0,0,1,132.32,22Z"/><path class="cls-2" d="M25.61,65.05c0,1.71-5.73,3.11-12.81,3.11S0,66.76,0,65.05s5.73-3.11,12.8-3.11S25.61,63.33,25.61,65.05Z"/><rect class="cls-2" x="9.97" y="6.7" width="6.09" height="58.12" rx="2.78"/><path class="cls-2" d="M17.3,3.38c0,1.86-2,3.38-4.36,3.38S8.58,5.24,8.58,3.38,10.53,0,12.94,0,17.3,1.51,17.3,3.38Z"/><path class="cls-3" d="M12.94,6.76c2.41,0,4.36-1.52,4.36-3.38a2.61,2.61,0,0,0-.21-1A16.65,16.65,0,0,1,9.56,5.51,4.93,4.93,0,0,0,12.94,6.76Z"/><ellipse class="cls-2" cx="91.64" cy="65.05" rx="12.8" ry="3.11"/><rect class="cls-2" x="88.8" y="6.7" width="6.09" height="58.12" rx="2.78"/><path class="cls-2" d="M96.14,3.38c0,1.86-2,3.38-4.36,3.38s-4.36-1.52-4.36-3.38S89.37,0,91.78,0,96.14,1.51,96.14,3.38Z"/><path class="cls-3" d="M91.78,6.76c2.41,0,4.36-1.52,4.36-3.38a2.8,2.8,0,0,0-.21-1A16.65,16.65,0,0,1,88.4,5.51,4.91,4.91,0,0,0,91.78,6.76Z"/><ellipse class="cls-2" cx="170.48" cy="65.05" rx="12.8" ry="3.11"/><rect class="cls-2" x="167.64" y="6.7" width="6.09" height="58.12" rx="2.78"/><path class="cls-2" d="M175,3.38c0,1.86-2,3.38-4.37,3.38s-4.36-1.52-4.36-3.38,2-3.38,4.36-3.38S175,1.51,175,3.38Z"/><path class="cls-3" d="M170.61,6.76C173,6.76,175,5.24,175,3.38a2.62,2.62,0,0,0-.22-1,16.6,16.6,0,0,1-7.53,3.17A4.93,4.93,0,0,0,170.61,6.76Z"/></g></g></svg>