<svg xmlns="http://www.w3.org/2000/svg" xmlns:xlink="http://www.w3.org/1999/xlink" viewBox="0 0 297.7 120.16"><defs><style>.cls-1{fill:none;}.cls-2{fill:#b4ab85;}.cls-3{fill:#908869;}.cls-4{fill:#bbb494;}.cls-5{fill:#a9634d;}.cls-6{fill:#723a26;}.cls-7{clip-path:url(#clip-path);}.cls-8{fill:#6d9aa4;}.cls-9{fill:#ac5220;}.cls-10{fill:#105d5a;}.cls-11{fill:#fff;}.cls-12{fill:#5f9098;}.cls-13{fill:#bc8d6c;}.cls-14{fill:#010002;}.cls-15{fill:#b98563;}.cls-16{fill:#eccfb7;}.cls-17{fill:#268484;}.cls-18{fill:#f0dcce;}.cls-19{fill:#cd9e80;}.cls-20{fill:#c44b4b;}.cls-21{fill:#58483d;}.cls-22{fill:#865641;}.cls-23{fill:#eee6d2;}.cls-24{fill:#dca191;}.cls-25{fill:#e9b4a3;}.cls-26{fill:#3a2a19;}.cls-27{fill:#d2ac35;}.cls-28{fill:#835e45;}.cls-29{fill:#3a3d3f;}.cls-30{fill:#205381;}.cls-31{fill:#154c75;}.cls-32{fill:#d9e5e9;}.cls-33{fill:#d7a08a;}.cls-34{fill:#d29b87;}.cls-35{fill:#7bb198;}.cls-36{fill:#6e887c;}.cls-37{fill:#9d5c21;}.cls-38{fill:#685a21;}.cls-39{fill:#e9c6af;}.cls-40{fill:#be876d;}.cls-41{fill:#e9b69f;}.cls-42{fill:#d7ceca;}.cls-43{fill:#b4a9a4;}.cls-44{fill:#f6ebe7;}.cls-45{fill:#050505;}.cls-46{fill:#2c2f30;}.cls-47{fill:#fbfbfb;}.cls-48{fill:#4d86a9;}.cls-49{fill:#e3e6e9;}.cls-50{fill:#050206;}.cls-51{fill:#3e3d3e;}.cls-52{fill:#f3c9b9;}.cls-53{fill:#f3c2af;}.cls-54{clip-path:url(#clip-path-2);}.cls-55{fill:#5ca1c5;}.cls-56{fill:#9fcedf;}.cls-57{fill:#f6e793;}.cls-58{fill:#a27831;}.cls-59{fill:#c5862c;}.cls-60{fill:#986e31;}.cls-61{fill:#90632c;}.cls-62{fill:#836230;}.cls-63{fill:#a98457;}.cls-64{fill:#b98d65;}.cls-65{fill:#886229;}.cls-66{fill:#b67c35;}.cls-67{fill:#d08e39;}.cls-68{fill:#f1f6f6;}.cls-69{fill:#dee4e4;}.cls-70{fill:#80a6a7;}.cls-71{fill:#729d9d;}.cls-72{fill:#a4965e;}.cls-73{fill:#ae9f61;}.cls-74{fill:#e16a1a;}.cls-75{fill:#f38e4a;}.cls-76{fill:#d05a09;}.cls-77{fill:#b9a44d;}.cls-78{fill:#e1bc54;}.cls-79{fill:#eec765;}.cls-80{fill:#e1ae20;}.cls-81{fill:#d59c0d;}.cls-82{fill:#a28131;}.cls-83{fill:#dfd1b2;}.cls-84{fill:#afc0be;}.cls-85{fill:#95a9a6;}.cls-86{fill:#35302b;}.cls-87{fill:#b69a5c;}.cls-88{fill:#a48953;}.cls-89{fill:#8d753f;}.cls-90{fill:#a27266;}.cls-91{fill:#d0d2d2;}.cls-92{fill:#b4c8c8;}.cls-93{fill:#cd8d78;}.cls-94{fill:#8b6760;}.cls-95{fill:#6d645b;}.cls-96{fill:#a6bec0;}.cls-97{fill:#d58672;}.cls-98{fill:#c0796b;}.cls-99{fill:#ac756a;}.cls-100{fill:#df9384;}.cls-101{fill:#665452;}.cls-102{fill:#c0d3d5;}.cls-103{fill:#a49c94;}</style><clipPath id="clip-path"><rect class="cls-1" x="211.74" y="19.22" width="56.35" height="49.24"/></clipPath><clipPath id="clip-path-2"><rect class="cls-1" x="63.64" y="18.1" width="59.78" height="52.83"/></clipPath></defs><title>coming_soonRecurso 76</title><g id="Capa_2" data-name="Capa 2"><g id="Capa_1-2" data-name="Capa 1"><g id="Silencio"><polygon class="cls-2" points="75.03 120 91.37 76.07 91.37 120 95.64 120 95.64 75.76 112.09 120 116.65 120 95.84 64.04 111.43 22.13 106.87 22.13 95.64 52.33 95.64 0 91.37 0 91.37 52.01 80 21.43 80 21.65 75.52 21.65 91.28 64.04 70.47 120 75.03 120"/><polygon class="cls-3" points="85.9 78.53 84.25 82.96 88.81 82.96 90.45 78.53 85.9 78.53"/><rect class="cls-3" x="91.37" y="78.53" width="4.27" height="4.43"/><polygon class="cls-3" points="101.23 78.53 96.67 78.53 98.32 82.96 102.87 82.96 101.23 78.53"/><rect class="cls-4" x="82.96" y="76.63" width="21.59" height="4.43"/><polygon class="cls-2" points="221.38 120.16 237.71 76.23 237.71 120.16 241.99 120.16 241.99 75.92 258.44 120.16 263 120.16 242.19 64.2 257.77 22.29 253.22 22.29 241.99 52.49 241.99 0.16 237.71 0.16 237.71 52.17 226.34 21.59 226.34 21.81 221.87 21.81 237.63 64.2 216.82 120.16 221.38 120.16"/><polygon class="cls-3" points="232.24 78.69 230.6 83.11 235.15 83.11 236.8 78.69 232.24 78.69"/><rect class="cls-3" x="237.71" y="78.69" width="4.27" height="4.43"/><polygon class="cls-3" points="247.57 78.69 243.01 78.69 244.66 83.11 249.22 83.11 247.57 78.69"/><rect class="cls-4" x="229.31" y="76.79" width="21.59" height="4.43"/><rect class="cls-5" x="202.44" y="9.43" width="74.66" height="67.25"/><rect class="cls-6" x="203.88" y="10.69" width="71.78" height="64.74"/><g class="cls-7"><rect class="cls-8" x="207.95" y="12.89" width="74.38" height="72.4"/><path class="cls-9" d="M205.54,50.8l-4.75,27C203,77,213.85,58.44,213.85,58.44Z"/><polygon class="cls-10" points="206.15 10.4 208 28.2 236.79 50.01 223.87 66.89 224.53 90.49 239.03 87.06 233.36 63.19 239.43 50.14 206.15 10.4"/><polygon class="cls-11" points="223.08 42.22 221.71 44.45 201.58 37.34 201.85 43.45 202.11 41.83 221.08 45.47 213.45 57.92 205.01 47.5 202.24 52.11 202.85 65.86 206.06 51.59 214.64 60.16 222.05 45.66 228.88 46.97 222.52 44.73 223.74 42.36 223.08 42.22"/><polygon class="cls-11" points="202.5 67.41 203.29 75.72 202.85 65.86 202.5 67.41"/><polygon class="cls-11" points="199.87 56.07 202.24 52.11 201.85 43.45 199.87 56.07"/><path class="cls-12" d="M228.88,47,224,49.21s-19.78,33.37-20.44,33.5L207,84.29l19.52.4Z"/><path class="cls-9" d="M288.22,16.9l-24,18.86s25.72-1.84,27-2Z"/><polygon class="cls-11" points="288.65 11.31 261.4 37.16 261.49 38.13 291.64 15.09 288.65 11.31"/><polygon class="cls-13" points="265.67 80.86 283.08 63.85 282.42 62.8 257.36 67.81 260.27 89.17 262.64 72.69 265.67 80.86"/><polygon class="cls-13" points="291.52 64.38 286.38 41.83 276.75 46.71 266.07 41.17 285.72 67.15 291.52 64.38"/><polygon class="cls-13" points="241.8 3.32 230.86 3.32 232.97 33.26 251.96 6.22 241.8 3.32"/><polygon class="cls-10" points="243.52 24.16 238.77 33.26 246.02 50.4 249.45 50.14 243.52 24.16"/><polygon class="cls-10" points="239.77 69.34 248.12 52.28 240.12 42.79 239.77 69.34"/><path class="cls-10" d="M273,58.09l-11.95,13.1.17.88s21.37-7.57,21.72-7.65S273,58.09,273,58.09Z"/><polygon class="cls-10" points="279.78 10.44 252.62 17.04 244.84 25.08 251.3 45.13 258.29 40.11 256.18 31.94 260.27 37.34 279.78 10.44"/><polygon class="cls-11" points="234.42 32.86 233.1 6.35 229.93 8.73 232.18 32.86 250.64 56.07 234.42 32.86"/><polygon class="cls-11" points="252.87 51.4 254.89 55.62 259.64 41.12 252.87 51.4"/><polygon class="cls-11" points="253.22 53.69 256.56 68.2 267.2 86.22 264.74 72.24 280.74 64.24 263.25 70.13 270.19 61.6 253.22 53.69"/><path class="cls-11" d="M289.56,50c18.47-.88-.26-1.59-.26-1.59s-1.14-.33-3-.94c-13.81-.27-26-11.14-30.72-15.92l-.57.33S271.1,50.91,289.56,50Z"/><path class="cls-11" d="M286.58,65.38,261.79,47.84l-5.27-15.3,4.08,16.75S282.63,67.1,283,67.1Z"/><polygon class="cls-14" points="240.35 72.82 259.74 80.6 245.36 61.21 240.35 72.82"/><polygon class="cls-9" points="259.36 72.77 247.91 62.7 254.13 78.5 259.23 78.5 259.36 72.77"/><path class="cls-9" d="M240.61,77.44l3.69-2.25,3.36-10.85-7-5.25s-2.49,14-2.27,15.82S240.61,77.44,240.61,77.44Z"/><path class="cls-10" d="M245.05,69.69s-9.5-6.24-9.63-6.24l-4.66,6.11s8.48,2.94,11.12,2.86A3.44,3.44,0,0,0,245.05,69.69Z"/><path class="cls-13" d="M244.81,68.93s-3-2.29-5.19-4c-.67,4.08-1.41,9-1.28,10a2.33,2.33,0,0,0,.31.93Z"/><path class="cls-13" d="M223.27,71.85s5.45,1.49,5.71,1.49,4.57.27,5,.27h1.67s-.35-19.7-6.24-23.39l-3.6-1.41a14.75,14.75,0,0,0-8,13C217.55,71.41,223.27,71.85,223.27,71.85Z"/><path class="cls-15" d="M233.71,58.1l-14.05-3.31-.2.37,9.7,7,5-2.19C234,59.35,233.87,58.72,233.71,58.1Z"/><path class="cls-11" d="M227.1,49.31l-1.28-.5a14.75,14.75,0,0,0-8,13c-.26,9.41,5.24,10,5.44,10-1.67-.82-4.21-3.12-4-9.59A14.78,14.78,0,0,1,227.1,49.31Z"/><path class="cls-13" d="M238.52,60.46c0-5.23-4.53-9.54-4.53-9.54l-.7,2.86.35,10.51h3.87C238,64.29,238.57,65.69,238.52,60.46Z"/><polygon class="cls-16" points="235.72 53.59 234.08 41.43 230.83 37.03 230.21 44.41 233.73 55.84 233.94 55.9 235.72 53.59"/><polygon class="cls-9" points="231.71 37.53 221.74 35.42 219.99 42.74 228.6 57.16 233.41 43.56 231.71 37.53"/><path class="cls-13" d="M226.55,26.39c-1.11-3.75-7.38-5-7.38-5C217.05,25.69,222,37.82,222,37.82l3.57,1.76S227.66,30.14,226.55,26.39Z"/><path class="cls-9" d="M225.65,33.26l-.37,2.25a9.19,9.19,0,0,0-2.92-.28c-1.49.13-1.3,5.78-1.3,5.78l8.53,1.76s2.47-1,2.75-1.63-1-3.09-1-3.09l-2.71-1.41.41-3Z"/><path class="cls-13" d="M222.71,33.07,220.4,33s1.43,5.3,1.9,6.21l2.11-4.66Z"/><path class="cls-9" d="M226,37.41c.55-3,1.34-8.4.56-11a5.37,5.37,0,0,0-2-2.66l-2.47,1-.94-1.29,1.64,14.76.61.3Z"/><path class="cls-14" d="M225.24,35.5c-.19-2.6-1.05-10-4.74-12.93,0,0,4.47,8.16,4.14,12.79A5.65,5.65,0,0,1,225.24,35.5Z"/><path class="cls-14" d="M229.87,25.38a3.57,3.57,0,0,0-5.11.08s-1.64.17-2,2.73c-.3,2,.82,5.58,1.34,7.08a8.27,8.27,0,0,1,1.21.24l.37-2.25,3.42.37-.41,3,2.71,1.41a15.78,15.78,0,0,1,.82,1.94c.77-1.37-.84-4.47-1.38-5.22S232.57,27.83,229.87,25.38Z"/><path class="cls-9" d="M225.19,33a2.1,2.1,0,0,0,.14-1.45l-.9-.91s-.58-1.17-1.11-.64.28,1.33.59,2.09S224.82,33.9,225.19,33Z"/><path class="cls-13" d="M224.49,30.74l-.06-.06s-.58-1.17-1.11-.64.28,1.33.59,2.09v0Z"/><path class="cls-9" d="M230.48,32.19c.12-.81.73-1.77.1-2.17s-1,.88-1,.88L229,32a2.12,2.12,0,0,0,.46,1.38C230,34.12,230.35,33,230.48,32.19Z"/><path class="cls-16" d="M227.71,35.65a2.57,2.57,0,0,0,1.92-2,18.49,18.49,0,0,0,.59-4.09,3.82,3.82,0,0,1-3-2.27,2.9,2.9,0,0,0-2.13-1.47,1.78,1.78,0,0,0-1.16,1.2c-.22,1.45.86,5.88,1.25,7S227.71,35.65,227.71,35.65Z"/><path class="cls-13" d="M227.71,35.65a2.57,2.57,0,0,0,1.92-2,18.49,18.49,0,0,0,.59-4.09,2.8,2.8,0,0,1-1.25-.38c0,1.93.1,4.12.1,4.12l-1.95,2.15A5.87,5.87,0,0,0,227.71,35.65Z"/><polygon class="cls-13" points="226.71 28.24 226.08 27.99 224.63 28.43 226.56 31.23 226.95 29.57 226.71 28.24"/><path class="cls-9" d="M227,28.86c-.2-2.17-2.51-.61-2.65-.19,0,0,1.74-1,2.28.07s-.72,3.72-.72,3.72a1.11,1.11,0,0,0,1.74-.21,1.26,1.26,0,0,1-1.4.14A5.68,5.68,0,0,0,227,28.86Z"/><path class="cls-14" d="M225.09,29.22l-.26.26.12.09.22-.28Z"/><path class="cls-14" d="M226.13,29.21l-.08.07.2.28.12-.1Z"/><path class="cls-14" d="M225,29.07l-.32.17.09.13.29-.22Z"/><path class="cls-14" d="M226,29.33l-.1.05.11.32a.59.59,0,0,0,.14-.06Z"/><path class="cls-14" d="M225.26,29.34l-.18.31.13.06.14-.33Z"/><path class="cls-14" d="M225.76,29.41h-.11l0,.35.15,0Z"/><path class="cls-14" d="M225.55,29.42h-.1l-.09.34h.15Z"/><path class="cls-14" d="M225.61,28.4l0,.35.1,0,.09-.35Z"/><path class="cls-14" d="M226.17,28.6l-.22.29L226,29l.26-.25Z"/><path class="cls-14" d="M225.46,28.41l-.16,0,.06.34.11,0Z"/><path class="cls-14" d="M225.91,28.46l-.14.33.09,0,.19-.31Z"/><path class="cls-14" d="M226.39,28.81l-.3.21.06.09.32-.18Z"/><path class="cls-14" d="M225.15,28.47l-.14.06.15.31.1,0Z"/><path class="cls-14" d="M224.87,28.62l-.12.09L225,29l.08-.07Z"/><path class="cls-11" d="M226.38,29.19a.85.85,0,0,0-.73-.6,1,1,0,0,0-.91.39.86.86,0,0,0,.73.61A1,1,0,0,0,226.38,29.19Z"/><path class="cls-14" d="M225.46,29.65a1,1,0,0,0,1-.43l0,0v0a.93.93,0,0,0-.78-.65,1.06,1.06,0,0,0-1,.43V29A.92.92,0,0,0,225.46,29.65Zm.18-1a.81.81,0,0,1,.67.53.93.93,0,0,1-.83.35.8.8,0,0,1-.67-.54A.92.92,0,0,1,225.64,28.65Z"/><path class="cls-9" d="M225.84,29.49a.48.48,0,0,0,.18-.63.46.46,0,0,0-.64-.14.45.45,0,0,0-.18.62A.47.47,0,0,0,225.84,29.49Z"/><path class="cls-14" d="M225.73,29.31a.24.24,0,0,0,.1-.34.25.25,0,0,0-.35-.08.25.25,0,0,0-.09.34A.24.24,0,0,0,225.73,29.31Z"/><path class="cls-14" d="M228.4,30.31l-.1.11.26.24a.23.23,0,0,0,.07-.07Z"/><path class="cls-14" d="M228.5,31.54l-.3.17.09.13.27-.22A.16.16,0,0,1,228.5,31.54Z"/><path class="cls-14" d="M228.65,30.15l-.13.07.19.31.09,0Z"/><path class="cls-14" d="M228.42,31.34l-.34.08a.66.66,0,0,0,0,.15l.32-.13Z"/><path class="cls-14" d="M228.21,30.54a.83.83,0,0,0-.07.13l.32.16a.59.59,0,0,1,0-.08Z"/><path class="cls-14" d="M228.39,31.14l-.35,0c0,.05,0,.1,0,.15l.35,0A.34.34,0,0,1,228.39,31.14Z"/><path class="cls-14" d="M228.09,30.81a.24.24,0,0,0,0,.08s0,.05,0,.07l.35.07a.36.36,0,0,1,0-.1Z"/><path class="cls-14" d="M229.06,31.11a.36.36,0,0,1,0,.1l.33.12a.83.83,0,0,0,0-.15Z"/><path class="cls-14" d="M228.9,31.48l-.07.07.23.28.1-.11Z"/><path class="cls-14" d="M229.41,30.87l-.35,0a.34.34,0,0,1,0,.1l.35,0A.76.76,0,0,0,229.41,30.87Z"/><path class="cls-14" d="M229,31.31l0,.09.29.2a.54.54,0,0,0,.07-.13Z"/><path class="cls-14" d="M228.75,31.61l-.09,0,.15.34.13-.07Z"/><path class="cls-14" d="M229.33,30.57l-.32.13a.29.29,0,0,1,0,.1l.34-.08A.88.88,0,0,0,229.33,30.57Z"/><path class="cls-14" d="M229.17,30.3l-.27.22a.16.16,0,0,1,.06.08l.3-.17Z"/><path class="cls-11" d="M229.22,31.21a1,1,0,0,0-.32-.94.83.83,0,0,0-.66.67,1,1,0,0,0,.32.93A.83.83,0,0,0,229.22,31.21Z"/><path class="cls-14" d="M228.54,31.94h0a.92.92,0,0,0,.71-.72,1,1,0,0,0-.34-1l0,0h0a.92.92,0,0,0-.71.72,1,1,0,0,0,.34,1Zm-.24-1a.77.77,0,0,1,.59-.61.9.9,0,0,1,.27.85.78.78,0,0,1-.59.62A.92.92,0,0,1,228.3,31Z"/><path class="cls-9" d="M228.92,31.54a.47.47,0,0,0-.41-.85.46.46,0,0,0-.2.62A.45.45,0,0,0,228.92,31.54Z"/><path class="cls-14" d="M228.82,31.35a.25.25,0,0,0,.11-.34.24.24,0,1,0-.44.21A.25.25,0,0,0,228.82,31.35Z"/><path class="cls-9" d="M230.19,30.28c0-.15,0-.3,0-.45a2.19,2.19,0,0,0-2.75.07l.26.29A1.9,1.9,0,0,1,230.19,30.28Z"/><path class="cls-9" d="M227,34a.53.53,0,0,0,.5-.16s0,.1.39.1a.74.74,0,0,0,.57-.36c-.3.3-1,0-1,0-.27.29-.76.08-.76.08l-.92.23.81-.08S226.66,34,227,34Z"/><path class="cls-9" d="M228.19,33.93a1.84,1.84,0,0,1-1.05.39,1.89,1.89,0,0,1-1-.23,1.88,1.88,0,0,0,1.17.33A1.14,1.14,0,0,0,228.19,33.93Z"/><path class="cls-11" d="M227,35.44l-1.74-2.07-1.33-5.58a32.85,32.85,0,0,0,1.27,6.29C225.41,34.78,226.31,35.21,227,35.44Z"/><polygon class="cls-14" points="224.26 33.54 223.03 37.53 221.69 36 223.09 38.64 224.62 34.19 224.26 33.54"/><path class="cls-13" d="M232.41,45.29a3.1,3.1,0,0,1-3.56.27l.18.17s1.18,1.81,3.56.49,1-4.13,0-4.71C232.63,41.51,234,43.84,232.41,45.29Z"/><path class="cls-13" d="M224.88,47.05c4.69.5,3.55-3.34,3.55-3.34s-1.18,3.61-3.7,2.7-2.19-4.22-1.46-4.95l-1.12-1.94.15,2S220.19,46.55,224.88,47.05Z"/><path class="cls-9" d="M234,73.61h1.67S235.47,63,233,55.85L221.18,71a4.87,4.87,0,0,0,2.09.83s5.45,1.49,5.71,1.49S233.55,73.61,234,73.61Z"/><polygon class="cls-10" points="237.34 57.78 228.9 63.23 221.86 72.2 239.53 74.75 239.88 62.17 237.34 57.78"/><polygon class="cls-17" points="224.35 72.56 225.01 72.65 225.98 71.98 224.35 72.56"/><path class="cls-17" d="M239.83,64l.06-1.79L239.8,62,230,64.49l-5.38,4.18-2.77,3.53,1.37.2,7-6.91Z"/><path class="cls-9" d="M237.42,70.7c1.15-2.28-3.07-4.83-3.07-4.83l-12.66,6,6.94,3.69,3.25-4S236.28,73,237.42,70.7Z"/><path class="cls-13" d="M237.45,66.2V67c.82.34,2.17.83,2.63.49a1.4,1.4,0,0,0,.32-1.27,2,2,0,0,0,.08-1.15,1.71,1.71,0,0,0-.12-1c.32-.62-.45-1.87-.45-1.87l-.17.46a.66.66,0,0,1-.44.67,4.87,4.87,0,0,1-1.85-.16v.77a9.39,9.39,0,0,0,2.12.43.77.77,0,0,1-.18.1,5.15,5.15,0,0,1-1.94-.18V65a9.75,9.75,0,0,0,2.2.44.67.67,0,0,1-.21.09,5.17,5.17,0,0,1-2-.41V66a9,9,0,0,0,1.79.59A5.93,5.93,0,0,1,237.45,66.2Z"/><path class="cls-17" d="M255.62,49.77l-7.93-2.37-1.58.33-1,1.54-1.26.65-2,5.13-1.17,2.8-1,4.57,20.67,19.93-1.06-18,.93-.81-1.24-6.84,1.37.06S259.48,50.45,255.62,49.77Z"/><path class="cls-11" d="M248.41,47.78l0-.17-.69-.21-1.58.33-1,1.54-1.26.65-2,5.13-1.17,2.8-.6,2.68,15.14,14.79-7.65-15.48-2.3-2.74,4.1,11.32-5.53-4.85.62-7.46,11.69,4.54s-9.2-6.59-9.7-6.72,12.13,1.93,12.13,1.93l-.25-.56S246.22,53,245.57,52.94l10.8.43s-10.76-2.73-10.94-2.79A30.8,30.8,0,0,1,248.41,47.78Z"/><path class="cls-11" d="M238.38,73.6l2.27-5.37s-.36-5.82-.33-7.45C239.78,63.92,238.65,70.61,238.38,73.6Z"/><polygon class="cls-10" points="259.83 61.76 243.16 51.61 243.06 51.87 259.25 64.36 260.16 63.57 259.83 61.76"/><polygon class="cls-10" points="239.62 62.42 260.29 82.35 259.59 70.51 242.32 53.75 242.19 54.08 259.11 74.7 240.13 60.14 239.62 62.42"/><path class="cls-10" d="M243.63,50.4,259,57l-.05-.29,1.37.06s-.81-6.34-4.67-7l-1.27-.38-.65.41L255.85,52,243.77,50Z"/><path class="cls-9" d="M247.44,46.67c0,.47-.14,2.66-.14,2.66l10.08,3.92-3.92-5.09Z"/><path class="cls-13" d="M247.3,49.33H254L254.82,34l-10,1.36s-1.58,8-1.35,8S247.3,49.33,247.3,49.33Z"/><path class="cls-13" d="M252.9,40.84c4.81-7.51,6.53-17.35,6.53-17.35-8.07-1.73-11.05,2.66-11.15,2.89l1,13.81S248.1,48.35,252.9,40.84Z"/><path class="cls-11" d="M248.83,25.69c2-.38,7.69-1.5,10.58-2.07,0-.08,0-.13,0-.13C253.21,22.16,250,24.46,248.83,25.69Z"/><path class="cls-9" d="M249.23,42.94l2,.15a17.51,17.51,0,0,0,1.64-2.25A52.28,52.28,0,0,0,259,25.47c-2.72,4-7.22,10.81-9.71,14.59v.13A11.86,11.86,0,0,0,249.23,42.94Z"/><path class="cls-9" d="M253.14,28.09l-9.27-5.57c-2.55,3.8.67,17.86.67,17.86l6.1-.41Z"/><path class="cls-14" d="M248.17,30.68s-1.33-4.2-2.77-4.53a5.13,5.13,0,0,1,1.52,3.52C246.84,31.68,248.17,30.68,248.17,30.68Z"/><path class="cls-13" d="M244.05,22.63l-.18-.11c-2.55,3.8.67,17.86.67,17.86l3.23-.22Z"/><path class="cls-14" d="M255.25,26.74a1.38,1.38,0,0,0-1.34-1.42,1.13,1.13,0,0,0-.45.09,1.63,1.63,0,0,0-1.05-.38,1.83,1.83,0,0,0,0,3.65l.22,0a1.12,1.12,0,0,0,2.19-.4,1.14,1.14,0,0,0-.07-.41A1.44,1.44,0,0,0,255.25,26.74Z"/><path class="cls-14" d="M252.14,34.7c1.73-.63,3.66-7.17-.22-8.12s-4.47.63-4.54.63l2.37,7.47S250.41,35.33,252.14,34.7Z"/><path class="cls-14" d="M251.75,33.75a34.57,34.57,0,0,0,1.22-3.5,3.49,3.49,0,0,0-4.4-3.51c-3.71.7-1.95,6-1.95,6L251,34.42A2.34,2.34,0,0,0,251.75,33.75Z"/><path class="cls-16" d="M247.47,33.87a11.63,11.63,0,0,0,.4,2.81,5.75,5.75,0,0,0,3.77-1.33,4.46,4.46,0,0,0,.9-2.52c-1.17-.46-1.61-1.93-2.07-3.25A4.72,4.72,0,0,0,248,27.32a4.2,4.2,0,0,0-1.41,3.42,6.66,6.66,0,0,1-.6,2.44S246.16,34.05,247.47,33.87Z"/><path class="cls-18" d="M247.47,33.87a11.63,11.63,0,0,0,.4,2.81,7.1,7.1,0,0,0,1.39-.15c-.4-.56-1.33-1.86-1.4-1.86s.57-.37.57-.37L247,33.37l.25-2.88,0-1.2,2.36-1a7.28,7.28,0,0,0-1.5-1,4.2,4.2,0,0,0-1.41,3.42,6.66,6.66,0,0,1-.6,2.44S246.16,34.05,247.47,33.87Z"/><path class="cls-11" d="M247.45,33.87l-.07-.19-.39-.09v.3A2.39,2.39,0,0,0,247.45,33.87Z"/><path class="cls-11" d="M248.52,36.64c-.31-.81-.83-2.17-1.05-2.72a11,11,0,0,0,.4,2.76S248.13,36.68,248.52,36.64Z"/><polygon class="cls-11" points="248.38 30.85 247.29 30.82 247.93 33.17 249.41 32.01 248.38 30.85"/><path class="cls-11" d="M247.36,30.85l-.26-.42-.18-.76,1.51-2.14a4,4,0,0,0-.4-.21,4.2,4.2,0,0,0-1.41,3.42,8.16,8.16,0,0,1-.46,2.2Z"/><path class="cls-11" d="M246,33.18h0l0,0Z"/><path class="cls-19" d="M247.22,30.74l.32-1.61-.83.46a4.47,4.47,0,0,0-.09,1.15v.06Z"/><path class="cls-19" d="M247.47,33.87v.06l.37-.18.76-.68-2.56.09,0,0S246.16,34.05,247.47,33.87Z"/><path class="cls-13" d="M251.64,35.35a4.46,4.46,0,0,0,.9-2.52c-1.17-.46-1.61-1.93-2.07-3.25a2.92,2.92,0,0,0-.8-1.17l-.57,1.68.39-.11-.21,1.78.89-.29.57,2.3s-1.05,1.69-1.7,2.8A4.81,4.81,0,0,0,251.64,35.35Z"/><path class="cls-9" d="M251.64,35.35a4.46,4.46,0,0,0,.9-2.52c-1.13-.44-1.58-1.83-2-3.11l-.59,1.71.07.09.17-.05.09.39,1.49,1.89s-1,1.5-1.71,2.56A4.08,4.08,0,0,0,251.64,35.35Z"/><path class="cls-11" d="M247.2,30l-.5.84.28.22.49.06A1.76,1.76,0,0,0,247.2,30Z"/><path class="cls-20" d="M249.21,34.41l-.94-.18-.33.34-.36-.2-.08.05c0,.17,0,.37.05.57l.1,0A1.61,1.61,0,0,0,249.21,34.41Z"/><path class="cls-14" d="M247,33.59a.55.55,0,0,1,.43,0C247.22,33.27,247,33.59,247,33.59Z"/><path class="cls-14" d="M247.64,33.49a.37.37,0,0,1,.34,0C247.83,33.16,247.64,33.49,247.64,33.49Z"/><path class="cls-21" d="M247.25,33.88h.22c.58,0,.58-.39.58-.39s0,.3-.9.26a1.43,1.43,0,0,1-1.13-.56,1,1,0,0,0,.87.69h.36Z"/><path class="cls-21" d="M248.1,34.28c-.2.17-.47,0-.47,0l-.13.1c0,.07,0,.14,0,.21a.5.5,0,0,0,.08-.08s.09.14.4.15a.46.46,0,0,0,.41-.29,3.92,3.92,0,0,0,.75.11c.2,0,.38-.37.38-.37-.39.29-1.24,0-1.25,0S248.29,34.13,248.1,34.28Z"/><path class="cls-21" d="M248.28,34.12Z"/><path class="cls-14" d="M247.17,29.87a4.1,4.1,0,0,1-.55.95,1.45,1.45,0,0,0,.85.43l0-.2a.9.9,0,0,1-.73-.23l.54-.62Z"/><path class="cls-14" d="M246.94,30.08l-.06.1.16.1.07-.1Z"/><path class="cls-14" d="M246.83,30.28l-.06.1.14.09.06-.09Z"/><path class="cls-14" d="M247,29.93l0,.05.19.11,0-.05Z"/><path class="cls-14" d="M246.71,30.47l-.06.09.12.1.07-.09Z"/><path class="cls-14" d="M247.37,31.17l0,.19h.07v-.19Z"/><path class="cls-14" d="M247.16,31.11l-.06.2.12,0,0-.2Z"/><path class="cls-14" d="M247,31l-.1.18.11.06.08-.19Z"/><path class="cls-14" d="M246.79,30.89l-.13.16.1.08.12-.17Z"/><path class="cls-14" d="M249.52,32.17l-.11,0,.1.42a.58.58,0,0,0,.17-.06Z"/><path class="cls-14" d="M250.42,31l-.4.1a.5.5,0,0,1,0,.12l.41,0A.58.58,0,0,0,250.42,31Z"/><path class="cls-14" d="M249.17,32.24v.43h.17l0-.44Z"/><path class="cls-14" d="M250,31.39a.49.49,0,0,1,0,.12l.4.09a1.23,1.23,0,0,0,0-.19Z"/><path class="cls-14" d="M249.72,32l-.09.07.2.38a.83.83,0,0,0,.15-.11Z"/><path class="cls-14" d="M250,31.63l-.05.12.36.2a.87.87,0,0,0,.07-.17Z"/><path class="cls-14" d="M250.22,32.11l-.33-.25-.08.1.3.3.06-.08A.18.18,0,0,0,250.22,32.11Z"/><path class="cls-14" d="M249,31l-.12.14.34.25.08-.09Z"/><path class="cls-14" d="M249.59,30.66l-.17.06.16.4.11,0Z"/><path class="cls-14" d="M248.78,31.34a1.22,1.22,0,0,0-.07.17l.39.15a.61.61,0,0,1,.05-.12Z"/><path class="cls-14" d="M249.26,30.8l-.14.11.25.34.1-.07Z"/><path class="cls-14" d="M249.94,30.62h-.18l.05.43h.12Z"/><path class="cls-14" d="M248.66,31.69c0,.06,0,.13,0,.19l.41,0s0-.08,0-.12Z"/><path class="cls-14" d="M249.05,32l-.41,0,0,.18.4-.1S249.06,32.07,249.05,32Z"/><path class="cls-11" d="M250,32.05a1.15,1.15,0,0,0,.14-1.18,1,1,0,0,0-1.06.38,1.13,1.13,0,0,0-.14,1.17A1,1,0,0,0,250,32.05Z"/><path class="cls-14" d="M248.93,32.5a1.11,1.11,0,0,0,1.14-.4,1.27,1.27,0,0,0,.15-1.26l0,0h0a1.09,1.09,0,0,0-1.14.41,1.27,1.27,0,0,0-.15,1.26v0Zm.21-1.21a1,1,0,0,1,1-.36A1.09,1.09,0,0,1,250,32a.94.94,0,0,1-.95.36A1.08,1.08,0,0,1,249.14,31.29Z"/><path class="cls-14" d="M249,30.35c.49-.46,1.79,0,1.79,0a3.73,3.73,0,0,0-1.26-.33c-.64,0-1.26.91-1.26.91l.16.22A2.17,2.17,0,0,1,249,30.35Z"/><path class="cls-14" d="M247.64,29.18l0-.12a2.78,2.78,0,0,0-.61.3,2.26,2.26,0,0,0-.29.23c0,.15-.05.3-.07.46a2,2,0,0,1,1-.75Z"/><path class="cls-9" d="M250.13,31.6a.54.54,0,1,0-.54.57A.55.55,0,0,0,250.13,31.6Z"/><path class="cls-14" d="M249.88,31.6a.29.29,0,1,0-.29.31A.29.29,0,0,0,249.88,31.6Z"/><path class="cls-9" d="M247.91,30.62a.47.47,0,1,0-.47.49A.48.48,0,0,0,247.91,30.62Z"/><path class="cls-14" d="M247.69,30.62a.26.26,0,0,0-.25-.27.27.27,0,0,0-.26.27.27.27,0,0,0,.26.27A.27.27,0,0,0,247.69,30.62Z"/><path class="cls-9" d="M253,34.33c.44-.28.67-2,.67-2l-1.6.58v.67S252.59,34.6,253,34.33Z"/><path class="cls-11" d="M253.33,34.08a.31.31,0,1,0-.31.33A.32.32,0,0,0,253.33,34.08Z"/><path class="cls-11" d="M244.41,39.79l-.63-17.14C241.69,26.14,243.85,37.12,244.41,39.79Z"/><path class="cls-9" d="M253,37.11l-1.63,7.6c.14,0,4.24-.46,5.74-3.36Z"/><polygon class="cls-9" points="254.7 36.18 247.86 37.72 246.19 44.15 252 49.33 253.97 49.33 254.7 36.18"/><path class="cls-11" d="M245.49,35.68l.93,3.63c.1-.42.19-.71.19-.71l-.13,1s0-.13-.06-.29c-.25,1-.61,2.71-.31,3.34.44.9,2.21,1.4,3.17,1.55s3.11-1.49,3.11-1.49-2.18,1-3.36.62a10.11,10.11,0,0,1-2.36-1.12l.93-3.61Z"/><path class="cls-11" d="M246.42,39.31c0,.16.06.26.06.29l.13-1S246.52,38.89,246.42,39.31Z"/><path class="cls-11" d="M243.48,43.36c.23,0,3.82,6,3.82,6h0L244.09,43l0-4.06A29.89,29.89,0,0,0,243.48,43.36Z"/><path class="cls-13" d="M248.91,37.61,247,37.33c.1,0,5.16,2.15,5.13,2.05S248.91,37.61,248.91,37.61Z"/><path class="cls-10" d="M246,58.15,244.83,57S247,66.59,247,66.73s4.52,4.61,5.28,5.44C251.45,70.8,246,58.15,246,58.15Z"/><path class="cls-10" d="M252.3,72.17a.65.65,0,0,0,.09.11C252.44,72.32,252.41,72.28,252.3,72.17Z"/><path class="cls-10" d="M227.32,103.73l-8.48,4.65h20.59l-.89-.27A78.53,78.53,0,0,1,227.32,103.73Z"/><path class="cls-10" d="M229.92,102.31l-2.6,1.42a78.53,78.53,0,0,0,11.22,4.38l.89.27h24.69l4.93-7.3-4.66-4.57,3.08-3.26s-7.74-5.89-7.83-15.56l-.79.44-23.39,9.94.18,4.13-4,1.58Z"/></g><path class="cls-22" d="M274.39,12H205.15V74.09h69.24Zm-5.6,56.58h-58V17.5h58Z"/><path class="cls-23" d="M271.63,16.57H207.92v53h63.71Zm-3.94,50.49H211.85v-48h55.84Z"/><path class="cls-6" d="M272.49,13.81H206.94v58.5h65.55Zm-2.83,55.61H209.88V16.69h59.78Z"/><path class="cls-24" d="M195.87,84.6c.71-.58,1.6.61,1.6.61l.29-.29-.07-.69s0-1.6-1.08-1.9a2.56,2.56,0,0,0-2,.45l.33,1.84S195.16,85.18,195.87,84.6Z"/><path class="cls-25" d="M196.84,83.88a1.49,1.49,0,0,1,.71,1.32l.24.11a1.84,1.84,0,0,0-.53-2.23,2.64,2.64,0,0,0-2.81-.22v2.59c1.41,1.68,3.09-.06,3.09-.06l-.13-.26s-.64.63-1.15.22S196.09,83.46,196.84,83.88Z"/><polygon class="cls-25" points="194.91 85.57 195.4 82.57 194.45 82.86 193.55 83.31 192.73 85.44 194.12 86.39 194.91 85.57"/><path class="cls-26" d="M204.45,88.62a40.3,40.3,0,0,0-9.9-4.78C196.21,85.55,204.45,88.62,204.45,88.62Z"/><path class="cls-27" d="M201.18,86.65l-.24.57c1.93.81,3.51,1.4,3.51,1.4A35,35,0,0,0,201.18,86.65Z"/><path class="cls-28" d="M206.31,88.58s-.39.39-1.06-.07-1.07-.06-1.07-.06l-.1,0s1.07,1,1.49.91S206.31,88.58,206.31,88.58Z"/><path class="cls-29" d="M177,118.25l-2.29.16a12.34,12.34,0,0,1-.6,1.37h8.31S178.45,118.55,177,118.25Z"/><path class="cls-29" d="M164.82,118.41a12.34,12.34,0,0,1-.6,1.37h8.31s-3.95-1.23-5.42-1.53Z"/><path class="cls-30" d="M178.18,118.6s2.56-15.74,1.21-21.45L178,91.43l-6.47,5.43s4.11,16.8,2.86,21.74Z"/><path class="cls-30" d="M168.89,118.6s5.57-15.74,4.22-21.45l-1.36-5.72-6.47,5.43s2,17.51-.9,21.74Z"/><path class="cls-31" d="M167.52,118.6c3.38-5.21.84-22.07.84-22.07l4-2.5-.62-2.6-6.47,5.43s2,17.51-.9,21.74Z"/><path class="cls-32" d="M164.26,82.65l4.29,3.17-7.22-8.54s-10.28,8-8.7,16.23,15.13,7.39,15.13,7.39l.11-1.63s-9-1-10.83-6S164.26,82.65,164.26,82.65Z"/><path class="cls-30" d="M157.28,89.74l-4.6,0a10.5,10.5,0,0,0-.19,1.37l1.14,0,3.23,0A5.91,5.91,0,0,1,157.28,89.74Z"/><path class="cls-30" d="M155.83,83c-.28.38-.55.78-.82,1.19l4.72,2.09c.37-.38.74-.73,1.11-1.06Z"/><path class="cls-30" d="M157,93.19a4.36,4.36,0,0,1-.22-1.37l-4.31.62c0,.35.08.71.14,1.07,0,.1.05.2.07.29Z"/><path class="cls-30" d="M157.9,80.52c-.32.34-.65.71-1,1.1l4.5,3.12c.42-.35.83-.67,1.19-.95Z"/><path class="cls-30" d="M153.88,86.23q-.31.63-.57,1.29l4.58,1.07a11.13,11.13,0,0,1,.89-1.22Z"/><path class="cls-30" d="M159.34,96.16l-3,2.41a11.4,11.4,0,0,0,1.43.75L160.65,97A11.77,11.77,0,0,1,159.34,96.16Z"/><path class="cls-30" d="M163.74,98.33l-.79,2.36c.57.07,1.12.13,1.63.16l.69-2.08C164.8,98.65,164.28,98.5,163.74,98.33Z"/><path class="cls-30" d="M157.51,94.2,153.63,96a7.31,7.31,0,0,0,.91,1.15l3.88-1.83A6.31,6.31,0,0,1,157.51,94.2Z"/><path class="cls-30" d="M167.59,85.11l.14-.25-2-2.42-5.83-3.9c-.32.3-.68.65-1.07,1l5,3.36.44-.29Z"/><path class="cls-30" d="M161.29,97.35,159.74,100c.52.15,1,.28,1.58.39L162.73,98C162.25,97.79,161.77,97.58,161.29,97.35Z"/><path class="cls-32" d="M179.7,79.43c-.09-.78-.14-1.58-.18-2.31l-5.06-.72s.37,8.72,7,12.41,12.88-2.68,12.88-2.68l-1.09-.92s-5.33,3.39-9.75,1.52C180.33,85.41,179.76,81.56,179.7,79.43Z"/><path class="cls-30" d="M180.24,87.09l1.66-1.39a5.49,5.49,0,0,1-.75-.92l-2.37,2a11.25,11.25,0,0,0,.87.81Z"/><path class="cls-30" d="M180,81.89a10.5,10.5,0,0,1-.18-1l-4.1,1c.12.32.26.65.42,1Z"/><path class="cls-30" d="M181.67,88.94l1.77-2.22a5.16,5.16,0,0,1-1.08-.62l-1.75,2.2c.26.18.54.35.82.51Z"/><path class="cls-30" d="M179.69,79.29l-4.7.33c.08.32.18.66.29,1l4.47-.31C179.71,79.94,179.7,79.6,179.69,79.29Z"/><path class="cls-30" d="M180.65,83.91a8.24,8.24,0,0,1-.4-1L177,84.4a10.87,10.87,0,0,0,.62.94Z"/><path class="cls-30" d="M188.09,89.66,188,87.17q-.61.09-1.26.12l.14,2.61A9.87,9.87,0,0,0,188.09,89.66Z"/><path class="cls-30" d="M192.65,87.49l-1.11-1.41c-.33.14-.69.29-1.09.44l1.26,1.59C192.05,87.9,192.37,87.69,192.65,87.49Z"/><path class="cls-30" d="M185.66,87.26a6.91,6.91,0,0,1-1.26-.21l-.69,2.66a7.2,7.2,0,0,0,1.26.21Z"/><path class="cls-30" d="M189.62,89.17a11.62,11.62,0,0,0,1.07-.49l-1-1.91c-.37.11-.76.21-1.17.29Z"/><path class="cls-32" d="M164.6,102.92h15.24l-.13-25.84-6.21-1.15-5.59.67-6.58.68s4.72,17.86,3.72,23.14C164.82,101.64,164.68,102.43,164.6,102.92Z"/><path class="cls-30" d="M179.8,95.21H165c.05.51.1,1,.14,1.47h14.7Z"/><path class="cls-30" d="M179.83,100.33H165.07s0,.06,0,.09c-.1.54-.18,1-.25,1.38h15Z"/><path class="cls-30" d="M179.78,90.28H164.22c.09.49.18,1,.26,1.47h15.31Z"/><path class="cls-30" d="M179.82,99.31V97.83H165.18a14.41,14.41,0,0,1,0,1.48Z"/><path class="cls-30" d="M179.79,92.71H164.63q.12.75.21,1.47h15Z"/><path class="cls-30" d="M179.72,77.92H161.49c.1.36.22.86.37,1.47h17.87Z"/><path class="cls-30" d="M179.77,87.78h-16c.1.49.19,1,.28,1.47h15.74Z"/><path class="cls-30" d="M179.73,80.42H162.11c.11.45.23,1,.35,1.47h17.28Z"/><path class="cls-30" d="M179.74,82.79H162.67q.17.7.33,1.47h16.75Z"/><path class="cls-30" d="M179.75,85.28H163.23c.1.49.21,1,.31,1.48h16.22Z"/><polygon class="cls-30" points="173.5 75.93 171.37 76.19 174.58 77.63 176.95 76.57 173.5 75.93"/><path class="cls-33" d="M164.47,77.19c-1.58.84,8,2.72,8,2.72l4.06-3s-3.44-1.26-3.66-4.26l-5.55,0s.58.25-.49,2S166.05,76.35,164.47,77.19Z"/><path class="cls-34" d="M172.18,79l.44-.43a7.46,7.46,0,0,1-2.36-4l-.67.09s.25.89.68,2.2C170.85,78.59,171.5,78.48,172.18,79Z"/><path class="cls-30" d="M177.17,76.61l-1.35-.25-3.52,3c-1.77-.45-5-1.65-7.18-2.46l-2.24.23c1.48.58,7.1,2.74,9.45,3.27l.32.07Z"/><path class="cls-25" d="M166.79,100.86c3.82-2.53.51-2.79.51-2.79l-7.25,1.26S163,103.38,166.79,100.86Z"/><path class="cls-27" d="M168.31,105.3c6.2.75,15.15-2.49,15.62-5.42s-5.27-8.31-19.13-5c0,0-10,3.14-6.31,4.83s6.84.55,6.6,1.89S162.11,104.55,168.31,105.3Z"/><ellipse class="cls-35" cx="167.92" cy="102.93" rx="2.26" ry="0.95"/><ellipse class="cls-36" cx="174.47" cy="102.03" rx="2.61" ry="0.85"/><ellipse class="cls-25" cx="179.15" cy="99.56" rx="2.81" ry="1.23"/><ellipse class="cls-37" cx="176.62" cy="96.81" rx="2.53" ry="1.03"/><ellipse class="cls-38" cx="169.95" cy="95.71" rx="2.46" ry="0.86"/><path class="cls-25" d="M164,98.86c.21-.28,1,0,1,0l1.11,0a3,3,0,0,0-4.71-.37C161.76,99.06,163.81,99.13,164,98.86Z"/><path class="cls-39" d="M183.88,44.8c-3.59-14.22-16.9-11.74-21.55-10.15s-3.06,10.59-3.06,10.59,1.49,20.31,2.89,22.43,10.69,10.42,12.35,10.78,11-.09,10.86-.53.7-7.77.7-7.77l.7-1.42-.87-.61,1-1.33c-.87-.79-1.49-7.06-1.49-7.06l5.61-.62C191,52,183.88,44.8,183.88,44.8Z"/><path class="cls-33" d="M182,67.91l-3.71-.53,4.32,2.85a27.26,27.26,0,0,1,3.57-.22l.63-1.28-.87-.61.49-.69Z"/><path class="cls-40" d="M185.59,68.12l.34-.05.93-1.28a.85.85,0,0,1-.14-.17l-1.06-.24c-1.15.94-7.41,1-7.41,1C179.9,68.14,185.59,68.12,185.59,68.12Z"/><path class="cls-33" d="M180.88,56.84s-7.07,7.42-6.37,9.13,2.16,4.35,2.16,4.35a9.7,9.7,0,0,1-.76-3.94C176,64.2,180.88,56.84,180.88,56.84Z"/><path class="cls-41" d="M185.42,60.17c-.07.83-.37,4.93-.11,5.09a2.64,2.64,0,0,0,1,.17A41.36,41.36,0,0,1,185.42,60.17Z"/><path class="cls-33" d="M186,71.23c-3.28-.84-5.72,1.86-5.72,1.86a12.67,12.67,0,0,1,5.58-.61C185.86,72,185.91,71.59,186,71.23Z"/><path class="cls-33" d="M170.74,71.74c.35,1.06,3.24,4.06,3.24,4.06s-.78-1.59-1.66-3,1.75-10.6,1.75-10.6Z"/><path class="cls-41" d="M162.33,34.65c-4.64,1.59-3.06,10.59-3.06,10.59s1.49,20.31,2.89,22.43c1,1.52,6.06,6.22,9.46,8.89-2.61-3.65-3.15-13.3-3.15-13.3s-3.07-1.06-3.95-2.65c-.74-1.35-.79-20.52-.79-26.39C163.21,34.36,162.74,34.51,162.33,34.65Z"/><path class="cls-42" d="M160.67,56.72l1.66-22.07s-8.23,4.23-8,11.83,2.54,10,2.54,10Z"/><path class="cls-43" d="M161.06,51.57l-5.6,2a12,12,0,0,0,.44,1.16L161,52.91Z"/><path class="cls-43" d="M161.28,48.57,155,51.75c.1.44.2.85.31,1.23l5.9-3Z"/><path class="cls-43" d="M156.49,39.78a12.82,12.82,0,0,0-1.2,2.08c2.34-1.31,4.81-2.65,6.77-3.64l.11-1.43C160.52,37.6,158.48,38.68,156.49,39.78Z"/><path class="cls-43" d="M161.76,42.2l-7.39,4.48c0,.49,0,1,.08,1.4l7.2-4.37Z"/><path class="cls-43" d="M154.76,43.28a10.56,10.56,0,0,0-.33,1.62l7.46-4.33.11-1.5Z"/><path class="cls-43" d="M161.49,45.79l-6.9,3.71c.06.46.13.89.2,1.3l6.59-3.55Z"/><path class="cls-41" d="M162,62.23l-1.49-7.51s-2.54-3.27-4.64-.88S159.24,65.76,162,62.23Z"/><path class="cls-33" d="M159.36,54.61a1.68,1.68,0,0,0-2.56.09c-1.13,1.33.77,5.64,2.63,6.6-1.69-1.35-3.19-5.07-2.16-6.29A1.54,1.54,0,0,1,159.36,54.61Z"/><path class="cls-41" d="M175.79,43.12a24,24,0,0,0,5.84-.37c.57-.11,1.06-.22,1.5-.35-.11-.28-.22-.56-.34-.82q-.54.15-1.32.3a22.66,22.66,0,0,1-5.61.36c-3.54-.27-7.41,2.61-7.57,2.74l.53.7S172.58,42.87,175.79,43.12Z"/><path class="cls-41" d="M175.47,41.05a24,24,0,0,0,5.84-.37l.94-.21c-.14-.28-.29-.54-.45-.8l-.65.14a23.15,23.15,0,0,1-5.61.36c-3.54-.28-7.41,2.61-7.57,2.73l.52.71S172.26,40.8,175.47,41.05Z"/><path class="cls-41" d="M174.51,39.46a24.06,24.06,0,0,0,5.84-.37c.33-.07.64-.13.93-.21-.19-.26-.39-.52-.59-.77l-.51.11a23.15,23.15,0,0,1-5.61.36c-3.54-.28-7.4,2.61-7.57,2.73l.53.71S171.3,39.21,174.51,39.46Z"/><path d="M172.54,53.57a2.67,2.67,0,0,0,1.38-3.47,2.63,2.63,0,0,0-3.17-1.94,2.66,2.66,0,0,0-1.37,3.47A2.63,2.63,0,0,0,172.54,53.57Z"/><path d="M184.13,50c.91-.31,1.26-1.72.79-3.15s-1.6-2.35-2.51-2-1.26,1.71-.79,3.15S183.22,50.26,184.13,50Z"/><path class="cls-44" d="M172.79,49.28a.53.53,0,0,0-.53-.53.52.52,0,0,0-.52.53.52.52,0,0,0,.52.53A.53.53,0,0,0,172.79,49.28Z"/><path class="cls-44" d="M183.91,45.71a.52.52,0,0,0-.52-.53.53.53,0,0,0-.53.53.53.53,0,0,0,.53.53A.52.52,0,0,0,183.91,45.71Z"/><path class="cls-33" d="M171,48.27a3.25,3.25,0,0,1,3.71.6l1-.9a4.55,4.55,0,0,0-5.23-.9,8.48,8.48,0,0,0-4,4.25l1.23.47A7.13,7.13,0,0,1,171,48.27Z"/><path class="cls-33" d="M182.58,45.3a2.63,2.63,0,0,1,2.2.5c-.54-.64-.9-1-.9-1-.07-.29-.15-.58-.23-.86a3.25,3.25,0,0,0-1.46.09,4.58,4.58,0,0,0-2.57,2.82l1.25.41S181.41,45.66,182.58,45.3Z"/><path class="cls-41" d="M175.85,52.9l-3.5,2.35S174.86,56,175.85,52.9Z"/><path class="cls-41" d="M182.34,50.42a2.12,2.12,0,0,0,2.51.42Z"/><path class="cls-29" d="M27,118.48l-2.22.15a11.34,11.34,0,0,1-.58,1.35h8S28.43,118.77,27,118.48Z"/><path class="cls-29" d="M17.45,118.48l-2.22.15a11.34,11.34,0,0,1-.58,1.35h8S18.87,118.77,17.45,118.48Z"/><path class="cls-45" d="M24.53,118.82h3.64s2.48-15.37,1.17-21L28,92.28l-6.27,5.31S25.74,114,24.53,118.82Z"/><path class="cls-45" d="M19.18,118.82s5.39-15.37,4.08-21L22,92.28l-6.27,5.31s1.89,17.09-.87,21.23Z"/><path class="cls-45" d="M17.85,118.82c3.27-5.09.81-21.56.81-21.56l3.88-2.45L22,92.28l-6.27,5.31s1.89,17.09-.87,21.23Z"/><path class="cls-45" d="M18.08,101.53l.11-1.59S9.44,98.9,7.69,94s7-10.32,7-10.32l4.16,3.1-7-8.35S1.9,86.24,3.43,94.31,18.08,101.53,18.08,101.53Z"/><path class="cls-45" d="M15.46,98.27c-.22,1-.93,6-1,6.45H30.34l-.68-26.58-6-1-5.41.58-6.38.58S16.42,93.71,15.46,98.27Z"/><path class="cls-46" d="M15.73,85.09,25.19,93,28.8,84.6,26.89,83l1.53-.91L27,77.76l-2.85-.53-1,0-4.9.59-3.36.35a12.36,12.36,0,0,1-.84,3l3.4,2.06Z"/><polygon class="cls-47" points="26.2 77.63 23.64 77.15 18.23 77.8 15.7 78.06 24.93 92.07 26.2 77.63"/><polygon class="cls-48" points="22.53 88.43 24.93 92.07 25.3 87.91 23.28 83.62 23.99 81.02 20.4 81.35 19.92 81.96 21.72 83.62 22.53 88.43"/><path class="cls-49" d="M20.44,83.38l1-2.35,2.67,1.76L26,80.18l.22-2.56-2.53-.47h-.06l-5.38.65-2.53.26,2.93,4.45C19.61,83,20.44,83.38,20.44,83.38Z"/><path class="cls-46" d="M25.19,95.4a.4.4,0,0,0,.43-.37.43.43,0,0,0-.85,0A.4.4,0,0,0,25.19,95.4Z"/><path class="cls-46" d="M25.51,99a.4.4,0,0,0,.43-.37.43.43,0,0,0-.85,0A.4.4,0,0,0,25.51,99Z"/><path class="cls-46" d="M25.41,102.64a.4.4,0,0,0,.42-.37.43.43,0,0,0-.85,0A.4.4,0,0,0,25.41,102.64Z"/><ellipse class="cls-46" cx="25.16" cy="105.98" rx="0.43" ry="0.36"/><path class="cls-25" d="M17,101.33c3.83-2.55.51-2.81.51-2.81L10.2,99.79S13.13,103.87,17,101.33Z"/><path class="cls-27" d="M8.64,100.14c3.69,1.71,6.85.55,6.62,1.91s-3,3,3.22,3.76,15.15-2.51,15.62-5.47S28.83,92,15,95.27C15,95.27,5,98.43,8.64,100.14Z"/><path class="cls-35" d="M18.09,104.37c1.25,0,2.26-.42,2.26-1s-1-1-2.26-1-2.27.42-2.27,1S16.84,104.37,18.09,104.37Z"/><path class="cls-36" d="M24.64,103.37c1.44,0,2.61-.38,2.61-.85s-1.17-.86-2.61-.86S22,102,22,102.52,23.2,103.37,24.64,103.37Z"/><ellipse class="cls-25" cx="29.32" cy="100.02" rx="2.81" ry="1.24"/><path class="cls-37" d="M26.79,98.28c1.4,0,2.53-.46,2.53-1s-1.13-1-2.53-1-2.54.46-2.54,1S25.38,98.28,26.79,98.28Z"/><path class="cls-38" d="M20.11,97c1.36,0,2.46-.39,2.46-.87s-1.1-.87-2.46-.87-2.45.39-2.45.87S18.76,97,20.11,97Z"/><path class="cls-25" d="M14.17,99.31c.21-.28,1,0,1,0l1.11,0A3,3,0,0,0,11.6,99C11.92,99.51,14,99.59,14.17,99.31Z"/><path class="cls-45" d="M38.31,93.58C41.57,92.78,43.48,79,43.48,79l-2.89-2.25S40,87.65,36.76,88.4,29,78.27,29,78.27s-2.5.56-2.63.56l2.24,4.38C29.18,87.06,35.05,94.38,38.31,93.58Z"/><path class="cls-24" d="M43.11,77.58c.08-1.23,1.52-1,1.52-1v-.55l-.53-.59S43,74,42,74.72A3.87,3.87,0,0,0,41,77.07l1.51,1.43S43,78.81,43.11,77.58Z"/><path class="cls-25" d="M44.81,76.72l-.27-.11s0,1.21-.64,1.3-1.43-1.62-.62-1.94,1.4.58,1.4.58l.24-.13s-.37-1.71-1.91-1.61-2.08,2.48-2.08,2.48l1.8,2.45C44.86,80,44.81,76.72,44.81,76.72Z"/><path class="cls-26" d="M41.68,78.12c2.32,0,10.1-4.92,10.1-4.92A33.14,33.14,0,0,0,41.68,78.12Z"/><path class="cls-27" d="M51.78,73.2a26,26,0,0,0-3.61,1.26l.24.76C50.28,74.15,51.78,73.2,51.78,73.2Z"/><path class="cls-28" d="M53.08,72.85a3.12,3.12,0,0,0,0-1.47,1,1,0,0,1-.77,1,1,1,0,0,0-.78,1l-.06.11S52.87,73.37,53.08,72.85Z"/><path class="cls-49" d="M43.48,79l-2.89-2.25s-.06,1.07-.23,2.55l2.75,2C43.35,80,43.48,79,43.48,79Z"/><ellipse class="cls-50" cx="17.75" cy="41.11" rx="12.6" ry="6.35" transform="translate(-1.46 0.66) rotate(-2.06)"/><path class="cls-51" d="M18.42,47.44c7-.38,12.28-3.51,11.91-7s-6.3-6-13.25-5.65h0l1.34,12.66Z"/><path class="cls-51" d="M33,56.1s3.36-7.5,3.3-11.49-11.11-8.4-16.62-4.12-5.53,4.93-5.53,4.93l3.33,9Z"/><path class="cls-51" d="M31.09,56.08c-4.54-4.45-6.67,5.31-6.67,5.31l4.85,3.08S35.63,60.53,31.09,56.08Z"/><path class="cls-50" d="M5.73,57.57l15-3.3L22.11,45s-.16-.64-6.51-4.28S-.74,42.61,0,46.56,5.73,57.57,5.73,57.57Z"/><path class="cls-50" d="M11.17,65.44l4.14-3.57s-4.16-9.41-7.71-4.53S11.17,65.44,11.17,65.44Z"/><path class="cls-41" d="M28.13,63.17c1.66.24,4-3.18,4.87-6.13s-.17-4.31-1.83-4.55-3.34.74-4.18,3.69S26.47,62.93,28.13,63.17Z"/><path class="cls-33" d="M11.78,64c1.59-.41,1.11-4.2-.35-7s-3.32-3.61-4.91-3.2-2.29,1.87-.84,4.7S10.19,64.46,11.78,64Z"/><path class="cls-52" d="M21.8,81.57,27,77.76l4.6-32.05s-2.73-3.31-8.8-4.86a41.49,41.49,0,0,1-5.23.59,43.87,43.87,0,0,1-5.27,0C6.59,43.6,4.6,47.15,4.6,47.15L15.7,78.06Z"/><path class="cls-53" d="M21.8,81.57l.15-.09-1-9.43-1.44.07-1.93-.06-2.8-1.68L12.29,55.2,11.17,48l-2.25.38-1.5-4.22a11.75,11.75,0,0,0-2.82,3l9.9,30.22Z"/><path class="cls-41" d="M23,62.89l.34-.21L23,61.59c-.12,0-2,1.18-5.68.37l-.2,1.25,2.95.51Z"/><polygon class="cls-41" points="19.52 65.04 19.48 65.06 19.85 65.21 19.52 65.04"/><path class="cls-41" d="M12.15,66.48a15.6,15.6,0,0,0,6.24-1l1.09-.42L18,64.45s-1,1-6,1.24a7,7,0,0,1-1.77-.13l.23.76A11.2,11.2,0,0,0,12.15,66.48Z"/><path class="cls-41" d="M21.41,65.32a16.22,16.22,0,0,0,6.38.32A8.85,8.85,0,0,0,30.23,65l.06-.82a6.08,6.08,0,0,1-2.48.64c-5,.3-6.23-.58-6.23-.58l-.95.63.54.17Z"/><path class="cls-33" d="M20.31,64.05a5.36,5.36,0,0,0,3.31-1.19L21,54.26l1.84,8.22a6.68,6.68,0,0,1-2.59.76,7.11,7.11,0,0,1-2.73-.48l.09-8.32-.8,8.79A5.89,5.89,0,0,0,20.31,64.05Z"/><path class="cls-41" d="M20.62,67.8a7.19,7.19,0,0,1,2.16.18l3-1.18L22.9,66l-2.42.52L18,66.24s-2.68,1.12-2.68,1.12l3.22.85A6.63,6.63,0,0,1,20.62,67.8Z"/><path class="cls-33" d="M20.49,66.59a4.94,4.94,0,0,0,2-.48l3.32.69a21.21,21.21,0,0,0-3.64-1.37,4.75,4.75,0,0,1-1.72.54,5.18,5.18,0,0,1-1.81-.35,19.51,19.51,0,0,0-3.31,1.74l3.14-1A5.15,5.15,0,0,0,20.49,66.59Z"/><path class="cls-50" d="M11.69,66.29a19.09,19.09,0,0,0,6.93-1l.94.26.68-.55-2-.75s-1.09,1-6.7,1.28-6.61-4.15-6.61-4.15C4.73,63.52,6.5,66.27,11.69,66.29Z"/><path class="cls-50" d="M22,65.08a20,20,0,0,0,7.07.28c5.14-.58,6.3-3.49,5.69-5.61,0,0-.14,4.48-5.66,4.8s-6.9-.54-6.9-.54l-1.86,1,.79.47Z"/><path class="cls-50" d="M27.06,55.56c1-.05,1.67-.64,1.6-1.32s-.9-1.19-1.86-1.14-1.67.65-1.6,1.32S26.11,55.61,27.06,55.56Z"/><path class="cls-11" d="M27.81,55.11c.25,0,.44-.17.42-.35s-.24-.3-.49-.29-.43.17-.41.34S27.56,55.12,27.81,55.11Z"/><path class="cls-11" d="M28.21,54.31c.15,0,.26-.09.25-.2s-.14-.18-.29-.18-.26.1-.25.21S28.06,54.32,28.21,54.31Z"/><path class="cls-50" d="M26.27,52.32a8.79,8.79,0,0,1,3.08,1.28A4.58,4.58,0,0,0,25.85,52a8.47,8.47,0,0,0-3.62,1.12l.29.3S25,52.2,26.27,52.32Z"/><path class="cls-33" d="M28.63,52.34c-2.05-1.9-4.65-.11-4.65-.11C26.93,51,28.63,52.34,28.63,52.34Z"/><path class="cls-50" d="M14.09,56.5c1,0,1.68-.64,1.6-1.32S14.79,54,13.83,54s-1.67.64-1.6,1.32S13.14,56.55,14.09,56.5Z"/><path class="cls-11" d="M14.84,56.05c.25,0,.44-.17.42-.35a.42.42,0,0,0-.48-.29c-.25,0-.44.16-.42.34S14.59,56.06,14.84,56.05Z"/><path class="cls-11" d="M15.24,55.25c.15,0,.26-.1.25-.2s-.14-.19-.29-.18-.26.1-.25.21S15.09,55.26,15.24,55.25Z"/><path class="cls-50" d="M11.65,53.1c1.26-.25,3.92.65,3.92.65l.23-.33A9.24,9.24,0,0,0,12,52.7a4,4,0,0,0-3.13,2A8,8,0,0,1,11.65,53.1Z"/><path class="cls-33" d="M14.31,52.75s-3-1.49-4.58.6C9.73,53.35,11.14,51.85,14.31,52.75Z"/><path class="cls-50" d="M20.55,51s4.93-2.17,6.74-1.86a6.32,6.32,0,0,1,3.21,2s-1.13-3-3.79-3.14a21.35,21.35,0,0,0-6.49,1.29l.44,1-.93-.77Z"/><path class="cls-50" d="M16,51.85l1.43-1.56L16,51.14,16.92,50S13,47.7,10.65,47.85,6.37,50.2,6.37,50.2a18.21,18.21,0,0,1,3-1.21C10.65,48.65,16,51.85,16,51.85Z"/><path class="cls-41" d="M18.29,47.59c2.75-.15,5-.83,5.35-1.6a14.41,14.41,0,0,1-5.4,1.12,15.4,15.4,0,0,1-5.57-.53C13.2,47.3,15.55,47.74,18.29,47.59Z"/><path class="cls-41" d="M18.16,46.31c1.79-.09,3.25-.44,3.51-.82a12.24,12.24,0,0,1-3.54.59,13.07,13.07,0,0,1-3.61-.2C14.85,46.22,16.37,46.41,18.16,46.31Z"/><path class="cls-41" d="M21.09,72.51c2.95-.16,5.31-1.34,5.79-2.78A12.21,12.21,0,0,1,21,71.36a13.08,13.08,0,0,1-6.19-1C15.55,71.75,18.13,72.67,21.09,72.51Z"/><path class="cls-53" d="M27.17,62.54c.95,0,1.66-.64,1.59-1.31s-.9-1.18-1.85-1.13-1.66.64-1.59,1.31S26.22,62.59,27.17,62.54Z"/><path class="cls-53" d="M13.27,63.29c1,0,1.66-.64,1.59-1.32S14,60.79,13,60.84s-1.66.64-1.58,1.32S12.32,63.34,13.27,63.29Z"/><rect class="cls-5" x="54.25" y="9.34" width="78.63" height="67.25"/><rect class="cls-6" x="55.76" y="10.6" width="75.6" height="64.74"/><g class="cls-54"><rect class="cls-55" x="23.64" y="17.11" width="100.31" height="13.07"/><rect class="cls-56" x="23.64" y="21.74" width="100.31" height="8.31"/><circle class="cls-56" cx="67.22" cy="23.17" r="2.42"/><circle class="cls-56" cx="63.98" cy="21.98" r="2.45"/><circle class="cls-56" cx="70.42" cy="23.17" r="2.08" transform="translate(36.26 88.97) rotate(-80.78)"/><rect class="cls-57" x="24.65" y="27.19" width="99.49" height="10.35"/><path class="cls-57" d="M65,30.76A3.38,3.38,0,0,0,68,29.06a1.87,1.87,0,0,0,.71.14A2,2,0,0,0,70.52,28a.94.94,0,0,0,.75.36.95.95,0,1,0,0-1.9,1,1,0,0,0-.69.29,2,2,0,0,0-1.9-1.45,1.84,1.84,0,0,0-.88.21A3.37,3.37,0,1,0,65,30.76Z"/><path class="cls-57" d="M90.84,30.7a2.15,2.15,0,0,0,2.14-2,1.77,1.77,0,0,0,1.76-.42,1.43,1.43,0,1,0,1.38-1.82,1.47,1.47,0,0,0-.83.27,1.81,1.81,0,0,0-3.56-.14,2.18,2.18,0,0,0-.89-.19,2.15,2.15,0,0,0,0,4.29Z"/><rect class="cls-58" x="43.11" y="35.22" width="81.02" height="34.72"/><polygon class="cls-59" points="125.19 44.99 121.65 45.42 125.6 46.2 125.19 44.99"/><polygon class="cls-59" points="126.46 44.84 125.09 44.7 125.19 44.99 126.46 44.84"/><polygon class="cls-59" points="124.56 43.16 119.75 43.29 118.38 44.06 125.09 44.7 124.56 43.16"/><path class="cls-60" d="M89.55,76l45.24,1.54,2.15-14.1-22.47-1.12L130.4,59.6s-12.56-.29-17-.25a8.86,8.86,0,0,1-1.48.06,11.6,11.6,0,0,1,1.48-.06c4.85-.31,19.74-1.48,19.74-1.48l-32.27-1.13,6.33-2.14L90.6,53.19l11-2.27-11.91-.2,15.21-2.35H95.68l9.4-2.86-7.46.2,4.9-1.63L91.9,45.61l3.47.82-34.61.1Z"/><path class="cls-61" d="M92.6,74.52,126.83,73l.68-4.72-16.84-.32,15.88-.59-1.77-1s-20.92-.4-21.19-.45,12.89-2,12.89-2l-20.11-.23L105.08,62l-12.3-.73L92,68.12l9.26.68-9.58.77Z"/><path class="cls-60" d="M113.42,59.35a11.6,11.6,0,0,0-1.48.06A8.86,8.86,0,0,0,113.42,59.35Z"/><path class="cls-62" d="M104.27,64.49c.86,1.22,4.54.41,4.54.41l-.46-2.06s3.45.7,3.81-1.26-2.29-1.95-2.29-1.95.34-2.77,2.52-3.31,3.5-.91,3.5-.91.27-2.9-1.59-2.9L97.64,54.82s-.23,4.27,1.13,5.86S103.4,63.26,104.27,64.49Z"/><path class="cls-63" d="M112.8,61.45a8.88,8.88,0,0,0-.86-2c-.55-.87-2-.55-2-.55s-1.31-1.5-2.58-.82a5.74,5.74,0,0,0-1.73,1.27l1.77,2.91S110.85,62.76,112.8,61.45Z"/><path class="cls-64" d="M109.87,59.63a2.73,2.73,0,0,0-2.52-1.33l.05.38C107.7,58.73,109.41,59,109.87,59.63Z"/><path class="cls-64" d="M111.3,60.54l-3.73-.46.15,1.23C108,61.31,110.49,61.77,111.3,60.54Z"/><path class="cls-64" d="M107.4,58.68h-.05L107.22,60l.35,0Z"/><path class="cls-65" d="M121.56,56.59l-1-2,.27-1.5,3.72.32L123,50.24l-5.81.18-4.72,3.9c.14.09,4.31,3.18,4.31,3.18Z"/><path class="cls-65" d="M120.83,45.88s-5.44-.68-6.53-1-3-1.23-5.59,0-8,1.83-8,1.83l14.84-.2C115.8,46.56,120.83,45.88,120.83,45.88Z"/><polygon class="cls-66" points="93.74 89.59 93.74 49.28 71.54 55.55 62.96 93.27 76.44 93.95 93.74 89.59"/><polygon class="cls-67" points="93.74 49.28 60.65 49.28 42.67 87.14 61.33 87.82 93.74 49.28"/><ellipse class="cls-66" cx="66.96" cy="61.55" rx="3.99" ry="2.68" transform="translate(-19.9 34.56) rotate(-25.33)"/><path class="cls-66" d="M84.7,61.27c10.94-1.09,2-3.59,2-3.59l-13-.45S73.76,62.36,84.7,61.27Z"/><polygon class="cls-59" points="102.85 41.31 124.14 42.75 124.14 39.49 96.77 38.81 111.97 41.12 102.85 41.31"/><rect class="cls-68" x="22.11" y="32.23" width="102.03" height="7.49"/><path class="cls-69" d="M50.56,35.38,49,35.5l1.62,0Z"/><path class="cls-69" d="M52.78,35.22l8.72-.95s-11-1-11.24-1a10.57,10.57,0,0,0,.3,2.06Z"/><path class="cls-69" d="M106.72,39.72v-.48L89.48,38.9l9-1.36-8.17.07,4.83-.89L50.59,35.54c.26,1.34.61,3,.86,4.18Z"/><path class="cls-59" d="M87.71,44.35l6.35-4.61V38.56L90.94,39l.19.73H49.86L49,44.35H87.71Z"/><path class="cls-67" d="M94.06,38.56l-1.47.21-.73.72-4.15,3.68v1.18l6.35-4.61Z"/><path class="cls-70" d="M87.71,43.17l6.35-4.61H49.86L49,43.17H87.71Z"/><path class="cls-71" d="M81.51,43.17,86.28,42l-6.06-.19L86.89,41,79,40.82l8.23-1L78,39.44l9.67-.63-9.36-.25H49.86L49,43.17H81.51Z"/><path class="cls-71" d="M60.68,43.17,65.45,42l-6.06-.19L66.06,41l-7.9-.19,8.24-1-9.26-.35,9.67-.63-9.36-.25H29l-.81,4.61H60.68Z"/><polygon class="cls-72" points="104.16 38.13 105.9 39.72 124.14 39.72 124.14 33.48 102.94 33.09 98.74 34.54 101.8 37.81 104.16 38.13"/><path class="cls-73" d="M107.75,38.85l.58.87h15.81V34.19l-17.3.44c0,.14-1.18.91-1.18.91l2.63,2.63Z"/><path class="cls-14" d="M48.75,26.88l.08-.1A.39.39,0,0,0,48.75,26.88Z"/><path class="cls-74" d="M71.29,58l.31.46s1.08,1.11,1.29.13S71.55,56.66,71,57,71.29,58,71.29,58Z"/><path class="cls-75" d="M71.29,58h0c-.13-.2-.19-.45.08-.62s.88,0,1.32.38a1.3,1.3,0,0,0-.18-.23c-.45-.37-1-.57-1.33-.38s-.1.63.11.85Z"/><path class="cls-75" d="M71.86,58.73l-.21-.3-.06,0,.2.28A.36.36,0,0,0,71.86,58.73Z"/><path class="cls-76" d="M72.89,58.62a1.46,1.46,0,0,0-.82-1.42,1.15,1.15,0,0,1,.29.95c-.12.54-.5.45-.81.25l0,.09S72.68,59.6,72.89,58.62Z"/><path class="cls-74" d="M69.53,62.71c2-.94,3.1-2.79,2.47-4.13s-2.77-1.65-4.76-.71-3.1,2.79-2.46,4.13S67.54,63.65,69.53,62.71Z"/><path class="cls-75" d="M66.92,58.43c1.87-.87,3.86-.58,4.45.65A2.06,2.06,0,0,1,71.23,61a2.2,2.2,0,0,0,.33-2.2c-.59-1.23-2.58-1.52-4.45-.65A4.66,4.66,0,0,0,65,60,4.93,4.93,0,0,1,66.92,58.43Z"/><path class="cls-76" d="M69.25,62.43c1.91-.82,3-2.44,2.37-3.61a1.73,1.73,0,0,0-.63-.66,1.68,1.68,0,0,1,.3.4c.61,1.17-.45,2.79-2.37,3.61a4.47,4.47,0,0,1-4,0C65.8,63,67.57,63.15,69.25,62.43Z"/><path class="cls-14" d="M67.61,59.7c.18,0,.33-.08.33-.18s-.15-.17-.33-.17-.34.08-.34.17S67.42,59.7,67.61,59.7Z"/><path class="cls-14" d="M68.16,60.13c.19,0,.34-.08.34-.17s-.15-.18-.34-.18-.33.08-.33.18S68,60.13,68.16,60.13Z"/><path class="cls-14" d="M68.57,59.52c.16-.09.24-.24.19-.32s-.21-.07-.37,0-.25.24-.2.32S68.41,59.62,68.57,59.52Z"/><path class="cls-14" d="M69,59.85a.21.21,0,0,0,.08-.3.22.22,0,0,0-.3-.07.22.22,0,0,0-.08.3A.21.21,0,0,0,69,59.85Z"/><path class="cls-14" d="M68.05,59.19a.22.22,0,1,0-.22-.37.22.22,0,0,0-.08.3A.21.21,0,0,0,68.05,59.19Z"/><path class="cls-14" d="M66.35,59.84a.23.23,0,0,0,.08-.3.24.24,0,0,0-.31-.07.21.21,0,0,0-.07.3A.22.22,0,0,0,66.35,59.84Z"/><path class="cls-14" d="M67.32,59.25a.22.22,0,1,0-.23-.38.22.22,0,0,0,.23.38Z"/><path class="cls-14" d="M68.56,58.91c.08,0,.08-.19,0-.32s-.21-.19-.29-.15-.08.2,0,.33S68.48,59,68.56,58.91Z"/><path class="cls-14" d="M68.86,58.69c.08,0,.08-.19,0-.32s-.21-.2-.29-.15-.08.19,0,.32S68.78,58.74,68.86,58.69Z"/><path class="cls-14" d="M69.54,59.79c.08,0,.08-.19,0-.32s-.2-.2-.29-.15-.08.19,0,.32S69.46,59.84,69.54,59.79Z"/><path class="cls-14" d="M68.28,61.17c.08,0,.08-.19,0-.32s-.2-.2-.28-.15-.09.19,0,.32S68.2,61.22,68.28,61.17Z"/><path class="cls-14" d="M68.93,61.27a.3.3,0,0,0,0-.4.29.29,0,0,0-.37-.15.3.3,0,0,0,0,.4A.29.29,0,0,0,68.93,61.27Z"/><path class="cls-14" d="M68.9,60.65a.18.18,0,0,0,.26,0c0-.08,0-.19-.11-.25s-.22,0-.26,0S68.79,60.59,68.9,60.65Z"/><path class="cls-14" d="M68.25,60.69a.2.2,0,0,0,.27,0c0-.07,0-.18-.11-.24a.17.17,0,1,0-.16.28Z"/><path class="cls-14" d="M69.23,60.22c.1.05.22,0,.26,0s0-.19-.11-.25-.22,0-.26,0S69.12,60.16,69.23,60.22Z"/><path class="cls-14" d="M69.57,60.64c.1,0,.22,0,.26,0s0-.19-.11-.25a.18.18,0,0,0-.26,0C69.41,60.47,69.46,60.58,69.57,60.64Z"/><path class="cls-14" d="M68.92,59.21a.17.17,0,1,0,.16-.29c-.11-.05-.23,0-.27,0A.21.21,0,0,0,68.92,59.21Z"/><path class="cls-14" d="M69.16,58.83a.13.13,0,0,0,.18,0c0-.06,0-.13-.08-.17a.12.12,0,0,0-.18,0S69.09,58.8,69.16,58.83Z"/><path class="cls-14" d="M67.59,58.7a.12.12,0,0,0,.18,0,.15.15,0,1,0-.18,0Z"/><path class="cls-14" d="M69.11,58.48a.13.13,0,0,0,.18,0,.13.13,0,0,0-.07-.17.13.13,0,0,0-.18,0A.13.13,0,0,0,69.11,58.48Z"/><path class="cls-14" d="M70.47,59.7c.07,0,.16,0,.18,0a.13.13,0,0,0-.07-.17.12.12,0,0,0-.18,0A.13.13,0,0,0,70.47,59.7Z"/><path class="cls-14" d="M70.13,60a.12.12,0,0,0,.18,0,.12.12,0,0,0-.07-.16.13.13,0,0,0-.18,0A.13.13,0,0,0,70.13,60Z"/><path class="cls-14" d="M68,61.53a.12.12,0,0,0,.18,0,.15.15,0,0,0-.25-.14A.13.13,0,0,0,68,61.53Z"/><path class="cls-14" d="M70.05,59.63c.07,0,.16,0,.18,0a.15.15,0,1,0-.18,0Z"/><path class="cls-14" d="M67.28,60.36a.12.12,0,0,0,.18,0,.13.13,0,0,0-.07-.17.14.14,0,0,0-.18,0A.13.13,0,0,0,67.28,60.36Z"/><path class="cls-14" d="M65.78,60c.08,0,.16,0,.19,0s0-.13-.08-.17a.12.12,0,1,0-.11.2Z"/><path class="cls-14" d="M65.61,60.56c.08,0,.16,0,.19,0s0-.13-.08-.17a.12.12,0,0,0-.18,0C65.51,60.45,65.54,60.52,65.61,60.56Z"/><path class="cls-14" d="M66.53,59.25a.15.15,0,0,0,.19,0c0-.06,0-.13-.08-.17a.13.13,0,0,0-.18,0A.13.13,0,0,0,66.53,59.25Z"/><path class="cls-14" d="M66.87,61.62a.14.14,0,0,0,.19,0c0-.05,0-.13-.08-.17a.12.12,0,1,0-.11.2Z"/><path class="cls-14" d="M69.86,59a.12.12,0,1,0,.11-.2.14.14,0,0,0-.19,0A.15.15,0,0,0,69.86,59Z"/><path class="cls-14" d="M70.31,59.17a.18.18,0,0,0,.15-.2.19.19,0,0,0-.22-.13.17.17,0,0,0-.14.2A.16.16,0,0,0,70.31,59.17Z"/><path class="cls-14" d="M69.78,58.77a.17.17,0,1,0-.07-.34.17.17,0,0,0-.14.2A.17.17,0,0,0,69.78,58.77Z"/><path class="cls-14" d="M69.57,59.27a.18.18,0,0,0,.15-.2.17.17,0,0,0-.21-.13.17.17,0,1,0,.06.33Z"/><path class="cls-14" d="M67.59,60.09a.18.18,0,0,0,.15-.21.19.19,0,0,0-.22-.13.18.18,0,0,0-.14.21A.17.17,0,0,0,67.59,60.09Z"/><path class="cls-14" d="M67,59.68a.17.17,0,1,0-.07-.34.19.19,0,0,0-.15.21A.19.19,0,0,0,67,59.68Z"/><path class="cls-14" d="M67.86,60.64a.17.17,0,0,0,.14-.2.18.18,0,0,0-.36.07A.19.19,0,0,0,67.86,60.64Z"/><path class="cls-14" d="M65.82,61.08c.19,0,.34-.08.34-.18s-.15-.17-.34-.17-.33.08-.33.17S65.64,61.08,65.82,61.08Z"/><path class="cls-14" d="M66.38,61.51c.18,0,.33-.08.33-.18s-.15-.17-.33-.17-.34.08-.34.17S66.19,61.51,66.38,61.51Z"/><path class="cls-14" d="M66.78,60.9c.16-.09.25-.24.2-.32s-.22-.08-.38,0-.25.24-.2.32S66.62,61,66.78,60.9Z"/><path class="cls-14" d="M67.2,61.23a.22.22,0,0,0,.08-.3.22.22,0,0,0-.3-.07.23.23,0,0,0-.08.3A.22.22,0,0,0,67.2,61.23Z"/><path class="cls-14" d="M66.26,60.57a.21.21,0,0,0,.08-.3.22.22,0,0,0-.3-.07.22.22,0,0,0-.08.3A.21.21,0,0,0,66.26,60.57Z"/><path class="cls-14" d="M67.75,61.17c.08-.05.08-.19,0-.33s-.2-.19-.28-.14-.08.19,0,.32S67.67,61.22,67.75,61.17Z"/><path class="cls-14" d="M66.89,60.33a.33.33,0,1,0-.37-.15A.29.29,0,0,0,66.89,60.33Z"/><path class="cls-14" d="M67.11,62a.17.17,0,1,0,.16-.29c-.11-.05-.23,0-.27,0A.21.21,0,0,0,67.11,62Z"/><path class="cls-14" d="M66.46,62.07a.17.17,0,1,0,.16-.28.2.2,0,0,0-.27,0A.19.19,0,0,0,66.46,62.07Z"/><path class="cls-14" d="M67.44,61.6a.17.17,0,1,0,.16-.29.19.19,0,0,0-.27,0A.21.21,0,0,0,67.44,61.6Z"/><path class="cls-14" d="M65.8,61.47a.18.18,0,0,0,.15-.21.18.18,0,0,0-.21-.13.18.18,0,0,0-.15.21A.18.18,0,0,0,65.8,61.47Z"/><path class="cls-14" d="M66.07,62a.18.18,0,0,0,.15-.2.19.19,0,0,0-.37.07A.19.19,0,0,0,66.07,62Z"/><path class="cls-14" d="M59.65,27a2.87,2.87,0,0,0,0,.39C59.65,27.28,59.65,27.15,59.65,27Z"/><path class="cls-14" d="M81.81,29.75c0-.22.07-.34.07-.34S81.83,29.64,81.81,29.75Z"/><path class="cls-77" d="M103.53,34.41l-1.54,1,5,.27-.46-.46,6.13.14.86.54,6.9.05-.72.77,7,.09,1.77-1.65S125.09,23,124.89,23s-4.43,1.7-4.43,1.7l-3.54.14-2.11,1.56-.68-.27-2.45,2.25H109.5l-3,2-2.11-.07L101,32.85l-2.26,1.69,2.34-.27Z"/><path class="cls-78" d="M119.69,36.72l3.83.05.12-.68-.5-2,1.5-2.82.13,2.73-.5.32.41,1.22-.38,1.24,2.42,0,1.77-1.65s-1.14-4.09-2.14-7.53l-3.58.88-1,2.81-1.36-.05-.87,4.67h.91Z"/><path class="cls-78" d="M114.83,35.91l3.4,0L120,30.46l1.22-.32.77-1.59,4.12-1.72c-.44-1.5-.83-2.79-1.05-3.43l-5,3.06-1-.59-1.5,1.37-1.91,4.26,2.09.82-2,0S115.2,34.45,114.83,35.91Z"/><polygon class="cls-78" points="103.03 34.73 101.99 35.41 102.43 35.43 103.03 34.73"/><polygon class="cls-79" points="103.32 34.4 105.75 31.58 103.4 33.01 101.7 33.15 100.07 34.39 101.08 34.27 103.32 34.4"/><path class="cls-79" d="M107,35.68l-.46-.46,1.31,0V33.52l.44-.3-.88-1.06,1.15-.51-.74-.34.64-1.19-.78.34-1,1.77.37.78s-.92,1.45-1.62,2.58Z"/><polygon class="cls-78" points="108.92 33.38 108.2 33.73 108.22 35.26 112.65 35.36 113.21 35.71 114.71 32.16 115.35 32.16 114.6 31.65 115.63 29.68 115.69 28.18 116.95 26.61 114.54 27.33 114.26 28.76 114.64 29.37 112.94 33.15 112.7 31.48 113.99 30.42 114.16 29.5 113.82 29.06 113.92 27.91 112.05 28.93 112.15 31.96 111.17 29.1 110.48 29.27 110.21 31.92 109.53 30.59 110.04 29.27 109.43 29.4 108.51 31.27 108.99 31.89 108.07 32.43 108.92 33.38"/><polygon class="cls-59" points="102.25 39.21 100.07 39.17 98.64 40.33 103.68 40.09 102.25 39.21"/><path class="cls-80" d="M72.38,56.9c.82.48,1.14-1,1.14-1l.38-.71s.73-2.13-.68-1.76S71.56,56.41,72.38,56.9Z"/><path class="cls-81" d="M72.38,56.9c.72.42,1.05-.7,1.12-1A2.29,2.29,0,0,1,72,55C71.82,55.83,72,56.65,72.38,56.9Z"/><path class="cls-80" d="M84.61,60c.55,0,1,1.18.91,3s1,1.86,1.77,3.26.36,1.59,1.5,2.77,1.5-1.09,1.63-1.86,1.64-1,1.86-2,.23-4-.31-4.91a4.16,4.16,0,0,1-.23-3.08,9.81,9.81,0,0,0-.64-5c-.68-1.18-4.44-1.45-10.44-.95s-9.12,4.31-6.8,6.94S84.61,60,84.61,60Z"/><path class="cls-82" d="M81.31,54.6l7,1.81-.4,6.67,1.94,2.5c1.64-.5,2.23-2.82,2.18-3.68s-1-2-1-3a34,34,0,0,0-.37-5.72c-.31-1-.18-1.95-6-1.82S76,53.5,76,53.5a13.11,13.11,0,0,1,3.59-1.08Z"/><path class="cls-82" d="M84.75,59.86c.54,0,1,1.18.91,3s1,1.87,1.77,3.27.36,1.59,1.49,2.77c.62.64,1,.27,1.26-.34-.22.15-.5.12-.85-.25-1.13-1.18-.77-1.36-1.49-2.77s-1.91-1.45-1.77-3.27-.37-3-.91-3c0,0-8.45.77-10.76-1.86A2.81,2.81,0,0,1,74.08,54,2.94,2.94,0,0,0,74,58C76.31,60.63,84.75,59.86,84.75,59.86Z"/><path class="cls-82" d="M92.39,65.13c-.53.48-1.32.76-1.42,1.31v0C91.44,66.08,92.18,65.77,92.39,65.13Z"/><path class="cls-83" d="M86,58.86c.69.82.32,4.31.82,4.59a6.83,6.83,0,0,1,1.95,3.17c0,.77.41,1.82.77,1.27s0-2,1-2.58a3.63,3.63,0,0,0,1-3.27c-.13-1.14-1.18-1.82-1-3a20.21,20.21,0,0,0,0-4.72,2.42,2.42,0,0,0-2.4-2.41c-1.45,0-8.13-.18-11,1.27,0,0-3.13,1.91-2.27,3.81S85.29,58,86,58.86Z"/><path class="cls-84" d="M76.71,53.64c2.91-1.45,9.58-1.32,11-1.27a2.42,2.42,0,0,1,2.41,2.41,20.77,20.77,0,0,1,0,4.72c-.23,1.22.81,1.9,1,3a4.47,4.47,0,0,1-.42,2.54,4,4,0,0,0,.78-3c-.13-1.14-1.18-1.82-1-3a20.21,20.21,0,0,0,0-4.72,2.42,2.42,0,0,0-2.4-2.41c-1.45,0-8.13-.18-11,1.27a7.06,7.06,0,0,0-2,1.94A7.8,7.8,0,0,1,76.71,53.64Z"/><path class="cls-84" d="M89.51,67.89c.28-.41.17-1.3.48-2-.63.55-.56,1.52-.7,2.14C89.36,68.05,89.44,68,89.51,67.89Z"/><path class="cls-84" d="M85.6,58.68,90.14,53a2.29,2.29,0,0,0-2-1.17c-1.45,0-8.13-.18-11,1.27,0,0-3.13,1.91-2.27,3.81C75.6,58.69,83.67,58.17,85.6,58.68Z"/><polygon class="cls-85" points="80.66 56.81 87.27 55.99 87.18 55.68 80.41 56.43 79.11 56.77 78.2 57.06 79.78 57.4 80.66 56.81"/><path class="cls-86" d="M87.79,56.59a.85.85,0,1,0-.78-.85A.82.82,0,0,0,87.79,56.59Z"/><polygon class="cls-86" points="80.63 56.6 87.57 55.82 87.78 55.45 80.55 56.33 79.71 56.13 77.8 56.84 79.68 57.11 80.63 56.6"/><polygon class="cls-86" points="87.83 60.54 88.11 59.13 87.95 58.93 87.86 56.39 87.61 56.27 87.65 58.93 87.38 59.27 87.83 60.54"/><polygon class="cls-66" points="67.08 49.78 51.9 53.55 50.06 57.42 72.52 49.87 67.08 49.78"/><path class="cls-87" d="M72.86,49.9,72,49.35s2.35-6,2.35-6.6,1.84-3.37,1.84-3.37l-.3-2.86.61-4.8s-.21-7.25-.21-8.57L74,22.74l-.62.1-.1,7.56.31,3.06-.51,2.86-1.84,6.13-2.76,5.72-2.86,2,3.58.3Z"/><polygon class="cls-88" points="70.2 49.01 71.63 46.63 71.22 45.33 72.92 40.64 74.29 38.46 74.97 34.65 74.63 31.31 74.41 22.81 73.98 22.74 73.37 22.84 73.27 30.4 73.58 33.46 73.07 36.32 71.23 42.45 68.47 48.16 65.61 50.21 68.66 50.47 70.2 49.01"/><path class="cls-89" d="M74.58,23.7,75,24.94l.42-1.19.89-.57v0L74,22.74l-.62.1.75,1.8Z"/><path class="cls-90" d="M85,34.52c.7.26,1.29-.51,1.32-.69s-.17-3.13-.19-3.25a12.4,12.4,0,0,0-1.19-.76l-.87.05-.14.15a10.11,10.11,0,0,0-.22,2.67A2.5,2.5,0,0,0,85,34.52Z"/><path class="cls-87" d="M81.66,31l.66.09L89.67,30l1.68.18,1.59,0,.31.26.32-.35-.63-.31-1.24,0-1.79-.18L84.09,30l-1.69.15-.12-2.44,2-2.26-.15-.18-2.34,2.26-.19,2.22c-1.56,1.77-5.76,3.77-5.76,3.77l-.51,1.73,1.79-.76Z"/><polygon class="cls-88" points="85.34 29.9 84.7 29.96 84.35 30.75 85.61 30.57 85.34 29.9"/><path class="cls-91" d="M85.48,30.44a13.37,13.37,0,0,1,0,2.11l.07.48.29.61.63,1.06a3.46,3.46,0,0,0,.39.51l.46,0a4.9,4.9,0,0,0,.31-.61,12.12,12.12,0,0,1,.34-1.26,6.41,6.41,0,0,0,.26-.78c0-.05.23-1.31.23-1.38s-.13-.78-.13-.78l-.46-.79a6.75,6.75,0,0,1-2.81,0l0,.23A1.37,1.37,0,0,1,85.48,30.44Z"/><path class="cls-92" d="M85.48,30.44a13.37,13.37,0,0,1,0,2.11l0,.21c0-.62.13-2,.09-2.29a1.16,1.16,0,0,0-.52-.76v.11A1.37,1.37,0,0,1,85.48,30.44Z"/><path class="cls-92" d="M86.81,35.21l.46,0,.17-.31a3.66,3.66,0,0,1,.24-.87l.1-.24a4.38,4.38,0,0,1,.14-.45,6.41,6.41,0,0,0,.26-.78c0-.05.23-1.31.23-1.38s-.13-.78-.13-.78l-.46-.79a2,2,0,0,1-.53.14.1.1,0,0,0,0,0,2.14,2.14,0,0,1,.63,1.54c0,.88-.7,2.35-.66,2.71s-.13,1.18-.52,1.09l0,0A.69.69,0,0,0,86.81,35.21Z"/><path class="cls-92" d="M86.3,34.49a3.44,3.44,0,0,0-.22-.56,4.58,4.58,0,0,0-.35-.42l.06.13Z"/><path class="cls-93" d="M85.18,30.31c.14.51,0,2.6.25,3s.53.77.74,1.13.44,1.17,1,1,.42-.92.71-1.55A9.37,9.37,0,0,0,88.78,31c0-.72-.43-1.59-.83-1.59s-.43.28-.43.28a2.13,2.13,0,0,1,.63,1.53c-.05.89-.7,2.35-.67,2.72S87.36,35.08,87,35s-.45-.84-.66-1.16-.59-.58-.61-.93.14-2.16.09-2.53a1.23,1.23,0,0,0-.63-.83c-.35-.18-1.24.06-1.24.48l.42,0S85,29.8,85.18,30.31Z"/><path class="cls-90" d="M85.26,34.79a.2.2,0,0,0,.2-.2.2.2,0,0,0-.2-.21.21.21,0,0,0-.21.21A.2.2,0,0,0,85.26,34.79Z"/><path class="cls-90" d="M85.27,35.15c.3,0,.54-.1.54-.22s-.24-.22-.54-.22-.53.1-.53.22S85,35.15,85.27,35.15Z"/><path class="cls-94" d="M85.27,35.15s0-.1,0-.22,0-.22,0-.22,0,.1,0,.22S85.25,35.15,85.27,35.15Z"/><path class="cls-94" d="M85.27,35.15s-.09-.1-.09-.22,0-.22.09-.22-.14.1-.14.22S85.19,35.15,85.27,35.15Z"/><path class="cls-94" d="M85.27,35.15c.08,0,.15-.1.15-.22s-.07-.22-.15-.22.1.1.1.22S85.33,35.15,85.27,35.15Z"/><path class="cls-94" d="M85.27,35.15c-.21,0-.39-.1-.39-.22s.18-.22.39-.22c-.25,0-.46.1-.46.22S85,35.15,85.27,35.15Z"/><path class="cls-94" d="M85.27,35.15c.26,0,.47-.1.47-.22s-.21-.22-.47-.22c.22,0,.4.1.4.22S85.49,35.15,85.27,35.15Z"/><path class="cls-94" d="M85.27,35.15a.23.23,0,1,1,0-.44c-.19,0-.34.1-.34.22S85.08,35.15,85.27,35.15Z"/><path class="cls-94" d="M85.27,35.15c.19,0,.35-.1.35-.22s-.16-.22-.35-.22a.23.23,0,1,1,0,.44Z"/><path class="cls-94" d="M85.27,35.15a.22.22,0,0,1,0-.44.22.22,0,0,0,0,.44Z"/><path class="cls-94" d="M85.27,35.15a.22.22,0,0,0,0-.44.22.22,0,0,1,0,.44Z"/><path class="cls-88" d="M86.73,32.19l-.18.36.38.76.18-.78-.21-.28A7.67,7.67,0,0,0,86.85,30h-.32A13.74,13.74,0,0,1,86.73,32.19Z"/><path class="cls-95" d="M101.25,49l4.06.09s1.82-2.59,1.09-3-4.77-.25-6,.79S101.16,49,101.25,49Z"/><path class="cls-96" d="M104.61,49.45s1.45-2.63.8-2.91a9.48,9.48,0,0,0-4.3.53c-.79.43.12,1.45.12,1.45Z"/><path class="cls-97" d="M101,60.45a32.51,32.51,0,0,1,4.43,3,4.5,4.5,0,0,0,2.45.68,2.33,2.33,0,0,0,.45-1.43c0-.91-.72-2.27-.13-3.09s-.55-2.41.09-3,2.27-.32,3.45-.73,2-1.4,3.31-1.13,2,1.09,3,.68,1.5-3,2.36-3.22a46.77,46.77,0,0,0,7-1.68A2.8,2.8,0,0,0,129.23,47s-3.81,1.58-6.94.54S110.8,43.9,108,45.74c0,0-6.06,2.25-8.11,3.13s-2.17,3.34-2.31,6.34S99.66,59.7,101,60.45Z"/><path class="cls-98" d="M115.07,54.8c1.27.27,2,1.09,3,.68s1.5-3,2.36-3.22c.45-.12,1.56-.29,2.92-.56a6.25,6.25,0,0,0-.49-4,6.09,6.09,0,0,1-.61-.17,57.41,57.41,0,0,0-7.86-2.06c.67,1.69,1.85,5.57-.45,7.8a3.07,3.07,0,0,0-1.13,2.17A3.05,3.05,0,0,1,115.07,54.8Z"/><path class="cls-98" d="M104.36,56.05l1.31,1.81,2.67.6c-.14-.71-.43-1.46,0-1.8.63-.55,2.27-.32,3.45-.73s2-1.4,3.31-1.13,2,1.09,3,.68a1.69,1.69,0,0,0,.65-.61l-.51-.64c-1.09-1.32-5.59-.68-7.22.77a3,3,0,0,1-3.18.73c-1.22-1.64-6.08-1.73-6.08-1.73l.22.66A3.27,3.27,0,0,1,104.36,56.05Z"/><path class="cls-63" d="M99.83,54.12c.75.44.41,1.19.41,2s.47,1.4.75,1.19-.31-.47-.34-1.09.2-1.29-.07-1.83-1.16-.89-.78-1.71C99.8,52.65,99.08,53.67,99.83,54.12Z"/><path class="cls-99" d="M101,60.45a32.51,32.51,0,0,1,4.43,3,4.5,4.5,0,0,0,2.45.68,2.33,2.33,0,0,0,.45-1.29,3.28,3.28,0,0,1-1.58.13,5.13,5.13,0,0,1-2.24-1.53c-.51-.72-1.47-1.84-2.22-2a7,7,0,0,1-3.57-4.19c-.48-1.64.13-4.5.53-6-1.48,1.08-1.6,3.31-1.72,6C97.41,58.2,99.66,59.7,101,60.45Z"/><path class="cls-99" d="M107.29,59.7a1.55,1.55,0,0,1,1.06-.4,2.41,2.41,0,0,0-.07-1.12,1.73,1.73,0,0,0-1.18.77,2.87,2.87,0,0,1-2,1S106.65,60.31,107.29,59.7Z"/><path class="cls-100" d="M120.47,52.26a46.77,46.77,0,0,0,7-1.68A2.8,2.8,0,0,0,129.23,47s-3.81,1.58-6.94.54a58.13,58.13,0,0,0-7.53-2c1.11,2.08,3.38,6.35,4.44,8.6C119.61,53.27,120,52.39,120.47,52.26Z"/><path class="cls-101" d="M102.45,54.93c1.19,0,3.71,2.56,2.89,3.85,0,0,.17-.09.26-.52a3.52,3.52,0,0,0,.05-.64c0-1-1.33-2.11-2.08-2.62s-1.73-.58-1.9-1.19.71-1.7-.1-2.89a3.63,3.63,0,0,1-.11,1.67C101.19,53.33,101.26,54.9,102.45,54.93Z"/><path class="cls-101" d="M109.86,58.36c-1.64-1.38-4.46-.91-4.46-.91l.1.4C107.23,57.22,109.86,58.36,109.86,58.36Z"/><path class="cls-101" d="M109.92,57.81a4.63,4.63,0,0,0-4.61-.88l.1.23S108.19,56.47,109.92,57.81Z"/><path class="cls-101" d="M110,56.76a4.89,4.89,0,0,0-5.06-.32l.14.25S107.93,55.52,110,56.76Z"/><path class="cls-101" d="M109.73,55.81a4.9,4.9,0,0,0-5.07.14l.17.24S107.57,54.76,109.73,55.81Z"/><path class="cls-101" d="M109.24,54.88a4.89,4.89,0,0,0-5,.77l.2.21S107,54.11,109.24,54.88Z"/><path class="cls-101" d="M105.51,52c-2.24,0-3.67,2.54-3.67,2.54l.59.21C103.11,52.87,105.51,52,105.51,52Z"/><path class="cls-101" d="M106.2,52.3a4.36,4.36,0,0,0-3.5,2.48l.32.11C103.74,53.28,106.2,52.3,106.2,52.3Z"/><path class="cls-101" d="M107.42,52.69c-3.2.09-4.06,2.31-4.06,2.31l.29.23C104.54,53.21,107.42,52.69,107.42,52.69Z"/><path class="cls-101" d="M108.53,53.16c-3.81-.11-4.76,2.18-4.76,2.18l.36.21C105,53.62,108.53,53.16,108.53,53.16Z"/><path class="cls-101" d="M103.93,51.67c-1.71.34-2.43,2.38-2.43,2.38l.36.25A5.83,5.83,0,0,1,103.93,51.67Z"/><path class="cls-101" d="M102.9,51.53a4.6,4.6,0,0,0-1.29.86l0,.68A6.72,6.72,0,0,1,102.9,51.53Z"/><path class="cls-101" d="M102.65,50.87l-1,.34,0,.19C101.92,51.3,102.59,50.89,102.65,50.87Z"/><path class="cls-101" d="M101.78,51.58l0-.18,0,0,.07.15Z"/><path class="cls-101" d="M102.65,50.87h0Z"/><polygon class="cls-101" points="102.86 51.16 101.78 51.58 101.86 51.94 102.86 51.16"/><path class="cls-65" d="M126.52,55.24c.14-.54-1.77-1.36-1.77-1.36l-2.59.14-1,1.19,3.48,1.53Z"/><path class="cls-102" d="M110.69,50.93l1.46-.66a4.51,4.51,0,0,0,.68-.8,16.37,16.37,0,0,0,.14-2.31,13.21,13.21,0,0,0-1.62-1.89,7.22,7.22,0,0,0-2.35-.36c-.93.1-1.56.83-3.33,1.24s-2.18,1.09-2.18,1.09L109,50.68S110.64,51,110.69,50.93Z"/><path class="cls-95" d="M113.28,51.65c.48-.68.55-1.22.09-1.58a2.28,2.28,0,0,0-1.09-.42l-1.09.94s-.77.77-.24,1.31A1.71,1.71,0,0,0,113.28,51.65Z"/><path class="cls-95" d="M113.28,51.65c.48-.68.55-1.22.09-1.58a2.28,2.28,0,0,0-1.09-.42l-1.09.94s-.77.77-.24,1.31A1.71,1.71,0,0,0,113.28,51.65Z"/><path class="cls-103" d="M113.07,51.84a1.58,1.58,0,0,1-1.46-.29c-.53-.54.24-1.31.24-1.31l.85-.74-.21,0-1.09.95s-.77.77-.23,1.31A1.71,1.71,0,0,0,113.07,51.84Z"/><path class="cls-103" d="M113.26,51.68l0,0,.06-.09a1.42,1.42,0,0,1-1.11-.34c-.53-.54.24-1.31.24-1.31l.21-.18-.19,0-.46.4s-.77.77-.24,1.31A1.6,1.6,0,0,0,113.26,51.68Z"/><path class="cls-95" d="M102.69,47.79s3.44.51,4.56,2.07,4.32,2,5.65.21-.34-4.7-1.19-5a2.08,2.08,0,0,0-1.4-.07s2,1.47,2.18,3A2.11,2.11,0,0,1,110,50.41a4.26,4.26,0,0,1-2.44-1.69A6.46,6.46,0,0,0,103.86,47c-1.14,0-1.7.41-1.55.89Z"/><path class="cls-103" d="M103.23,47.32A6.39,6.39,0,0,1,106.94,49a4.14,4.14,0,0,0,2.43,1.68,1.94,1.94,0,0,0,1.62-.28l-.3.07a1.88,1.88,0,0,1-.91-.06,4.14,4.14,0,0,1-2.43-1.68,6.42,6.42,0,0,0-3.71-1.72,2.93,2.93,0,0,0-.61,0,1.21,1.21,0,0,0-.59.31A3.09,3.09,0,0,1,103.23,47.32Z"/><path class="cls-103" d="M111.08,45.38c.85.31,2.51,2.48,1.19,4.32a2.74,2.74,0,0,1-.5.52,2.74,2.74,0,0,0,.91-.79c1.32-1.84-.35-4-1.2-4.32A2.29,2.29,0,0,0,110.4,45l-.09,0s.14.1.33.27A2.93,2.93,0,0,1,111.08,45.38Z"/><path class="cls-95" d="M109.51,47.72l.29.9.92.46-.18-.89-.84-.54a13.59,13.59,0,0,0-2.4-1.89l-.15.15A19.52,19.52,0,0,1,109.51,47.72Z"/><path class="cls-95" d="M107.26,46.11c.23,0,.41-.14.41-.3s-.18-.29-.41-.29-.41.13-.41.29S107,46.11,107.26,46.11Z"/><rect class="cls-1" x="37.09" y="4.07" width="85.92" height="60.46"/><rect class="cls-1" x="60.65" y="17.69" width="61.82" height="50.79"/><circle class="cls-56" cx="84.68" cy="23.55" r="2.66"/><circle class="cls-56" cx="87.98" cy="22.15" r="2.14" transform="translate(-2.64 26.45) rotate(-16.85)"/><circle class="cls-56" cx="91.15" cy="22.93" r="1.84"/><circle class="cls-56" cx="120.12" cy="22.76" r="1.84" transform="translate(75.05 136.41) rotate(-79.1)"/><path class="cls-56" d="M122.6,24.16a1.84,1.84,0,1,0-1.83-1.84A1.84,1.84,0,0,0,122.6,24.16Z"/><path class="cls-56" d="M118.11,23.24a1,1,0,1,0-1-.95A.95.95,0,0,0,118.11,23.24Z"/><polygon class="cls-79" points="108.92 33.38 108.2 33.73 108.22 35.26 110.66 35.32 111.19 29.18 111.17 29.1 110.48 29.27 110.23 31.78 110.21 34.37 109.75 31.01 109.53 30.59 109.65 30.3 109.52 29.38 109.43 29.4 108.51 31.27 108.99 31.89 108.07 32.43 108.92 33.38"/><polygon class="cls-79" points="111.78 32.3 110.84 35.32 111.74 35.34 111.78 32.3"/><path class="cls-79" d="M117.6,32.4l0-.08-1.83,0s-.54,2.09-.91,3.55H115Z"/><polygon class="cls-79" points="117.02 31.07 119.4 28.86 119.16 25.91 119.1 25.87 117.6 27.23 115.69 31.5 117.52 32.22 117.02 31.07"/><polygon class="cls-79" points="119.69 36.72 122.62 36.76 122.13 33.45 121.65 36.04 120.37 31.29 119.5 35.94 120.41 35.95 119.69 36.72"/><polygon class="cls-59" points="112.07 42.48 109.21 42.34 107.26 42.75 113.25 43.34 112.07 42.48"/></g><path class="cls-22" d="M130,11.94H57.1V74H130Zm-5.91,56.58H63V17.41h61.11Z"/><path class="cls-23" d="M127.11,16.48H60v53h67.1ZM123,67H64.16V19H123Z"/><path class="cls-6" d="M128,13.72H59v58.5h69Zm-3,55.61h-63V16.6h63Z"/></g></g></g></svg>