<svg xmlns="http://www.w3.org/2000/svg" xmlns:xlink="http://www.w3.org/1999/xlink" viewBox="0 0 123.81 178.27"><defs><style>.cls-1{fill:none;}.cls-2{fill:#aa634d;}.cls-3{fill:#723a26;}.cls-4{clip-path:url(#clip-path);}.cls-5{fill:#9fa896;}.cls-6{fill:#b3b79a;}.cls-7{fill:#6e897c;}.cls-8{fill:#82a392;}.cls-9{fill:#7bb299;}.cls-10{fill:#96785a;}.cls-11{fill:#8e6d50;}.cls-12{fill:#9e5c21;}.cls-13{fill:#c6bb8f;}.cls-14{fill:#7a6048;}.cls-15{fill:#799386;}.cls-16{fill:#999479;}.cls-17{fill:#3a3318;}.cls-18{fill:#4c3729;}.cls-19{fill:#382519;}.cls-20{fill:#e8c395;}.cls-21{fill:#54491b;}.cls-22{fill:#473e16;}.cls-23{fill:#544827;}.cls-24{fill:#e8b685;}.cls-25{fill:#dbaa7d;}.cls-26{fill:#cea16f;}.cls-27{fill:#e5b080;}.cls-28{fill:#1e1a1a;}.cls-29{fill:#010002;}.cls-30{fill:#fff;}.cls-31{fill:#685a21;}.cls-32{fill:#544a1e;}.cls-33{fill:#2d2611;}.cls-34{fill:#5e502d;}.cls-35{fill:#8e781c;}.cls-36{fill:#7c6813;}.cls-37{fill:#d69561;}.cls-38{fill:#af845d;}.cls-39{fill:#5a7768;}.cls-40{fill:#875641;}.cls-41{fill:#efe7d3;}.cls-42{fill:#937f2e;}.cls-43{fill:#776826;}.cls-44{fill:#af9b48;}</style><clipPath id="clip-path"><rect class="cls-1" x="18.8" y="19.95" width="83.53" height="116.28"/></clipPath></defs><title>cuadros_pared_Recurso 31</title><g id="Capa_2" data-name="Capa 2"><g id="Capa_1-2" data-name="Capa 1"><g id="Silencio"><rect class="cls-2" width="123.8" height="157.46"/><rect class="cls-3" x="2.39" y="2.94" width="119.02" height="151.59"/><g class="cls-4"><rect class="cls-5" x="13.05" y="18.16" width="91.61" height="117.63"/><rect class="cls-6" x="13.05" y="34.27" width="91.61" height="117.62"/><path class="cls-7" d="M24,42.82A3.9,3.9,0,0,0,20.23,46a5.37,5.37,0,0,0-2.51,8.33,2.73,2.73,0,0,0-.22,1.07,2.67,2.67,0,0,0,1.77,2.53v.2a7,7,0,0,0,14,.76h.13a3.85,3.85,0,0,0,0-7.69,3.57,3.57,0,0,0-.87.1,3.59,3.59,0,0,0,.16-1,3.31,3.31,0,0,0-4.79-3,3.15,3.15,0,0,0,0-.44A3.91,3.91,0,0,0,24,42.82Z"/><path class="cls-7" d="M42.65,56.38A2.6,2.6,0,1,0,40.05,59,2.62,2.62,0,0,0,42.65,56.38Z"/><path class="cls-8" d="M100.24,51.86,97.46,57.1s9.2,1.68,9.66,1.68l-1.05-8.53Z"/><path class="cls-8" d="M81,57.65c.37,1.05.85,1.51,1.37,1.51s.82-.31,1.15-1c.27,3.86,1.08,5.37,2,5.37s1.83-1.65,2-5.91c.21,3,.83,4.18,1.56,4.18.4,0,.76-.34,1-1.13.24,2.6.83,3.63,1.51,3.63.91,0,1.64-1.76,1.64-6.48S92.63,47.2,91.72,47.2c-.44,0-.84,1.42-1.13,3.42-.28-3.22-.81-5.93-1.43-5.93s-1.34,3.84-1.55,7.8c-.22-5.49-1.06-11.15-2.06-11.15-.5,0-1,1.39-1.32,3.46C83.87,40.56,83.17,37,82.37,37s-1.51,3.63-1.86,7.89c-.39-2.65-.91-4.54-1.49-4.54-1.17,0-2.12,7.66-2.12,13.79s.95,8.41,2.12,8.41C79.92,62.51,80.7,61.14,81,57.65Z"/><rect class="cls-9" x="13" y="56.16" width="91.61" height="79.49"/><polygon class="cls-7" points="49.01 65.65 29.77 65.65 49.36 69.73 49.23 68.24 49.01 65.65"/><path class="cls-7" d="M53.51,77,53,70.48l-3.62-.75,1,11.31a3.06,3.06,0,0,0,.61.09Z"/><path class="cls-7" d="M47.86,80.33H27.74L50.6,84l-.26-3C49.39,80.83,47.86,80.33,47.86,80.33Z"/><path class="cls-10" d="M13,127.32c2,.27,5.3,1.48,9.27,1.35s5.69-.54,8.47-.54,9.93.4,10.86.54l3.83-46.19-2.38-2-1.06,3-2.12-1.75-2.11,4.57-2.25-2.69L32.86,87,26.37,84l-2.91.14-6.62,4.43s-7.41,29.94-7,31.69S11,127.06,13,127.32Z"/><path class="cls-11" d="M45.37,96.51c0-.4.93-4.43.93-4.43l-9.8-2.89-3,3.16-7.15-5.91s-8.34,2.62-8.6,2.62l11.12,8.52a61.93,61.93,0,0,0,6.29,1.28C40.21,99.73,45.37,96.91,45.37,96.51Z"/><polygon class="cls-12" points="40.27 109.2 7.71 107.59 9.29 119.94 37.49 123.83 40.27 109.2"/><polygon class="cls-13" points="9.43 108.66 5.59 116.05 41.86 122.89 42.79 115.78 14.06 110.54 18.69 109.2 43.45 102.22 40.54 96.71 14.06 91.61 25.31 95.77 38.42 97.78 39.08 100.07 10.22 105.57 9.43 108.66"/><path class="cls-14" d="M114.94,137.26l8.87-30.75c-1.59.54-49.38,23.23-48.19,23.9s16.81,9.4,17.21,9.54S114.94,137.26,114.94,137.26Z"/><polygon class="cls-7" points="91.9 84.22 98.39 79.12 117.58 76.57 114.41 56.96 98.25 64.35 93.49 59.65 87.4 63.81 84.49 60.72 72.84 60.72 76.43 87.59 83.3 86.37 91.9 84.22"/><polygon class="cls-15" points="110.17 90.44 113.79 75.76 111.14 62.42 73.98 79.07 113.44 76.12 73.98 83.73 110.17 90.44"/><path class="cls-10" d="M81.84,99.66l2,35.85s35.61-30.21,37.33-31.82Z"/><path class="cls-12" d="M100.36,121.47,82,102.24l.24,4.32,3.7,27.17C88.85,131.25,94.46,126.49,100.36,121.47Z"/><polygon class="cls-16" points="102.62 85.03 96.93 84.09 86.61 90 73.02 97.18 114.35 112.9 110.83 81.4 102.62 85.03"/><path class="cls-13" d="M77.48,94.82l-.12.06,3.42,4,20.56,4.47s-10.56-1-15.18-1.15l22.72,8.64a.26.26,0,0,0,.05-.15c0-.53.71-11.28.71-11.28L85.81,97.16s22.51-4.75,19.68-5.46c-2.37-.61-15-1.4-19-1.63l-3.24,1.71-.42.36L95.43,93l-14.3,3.76Z"/><polygon class="cls-7" points="13.27 65.2 13.27 68.87 15.11 68.87 14.65 65.2 13.27 65.2"/><path class="cls-7" d="M49.8,73.52V68.87H15.11l1.33,10.47c4.06.09,32.3,0,32.3,0V76.48H16.8v-3Z"/><path class="cls-7" d="M49.8,58.4s-.16-.89-.49-2.24H13.5l1.15,9H49.8Z"/><polygon class="cls-17" points="39.01 85.64 30.54 111.08 40.6 113.56 41.66 86.64 39.01 85.64"/><path class="cls-17" d="M46.69,103.62c-10-.94-16.15,7.46-16.15,7.46l4.11,8.86,8.27,1.61S56.69,104.56,46.69,103.62Z"/><path class="cls-17" d="M49.54,150.82l6.88-41.35s-43.55,19.2-44.35,19.6l.27,21.35h8.34C21.47,150.42,49.54,150.82,49.54,150.82Z"/><ellipse class="cls-18" cx="54.45" cy="45.86" rx="9.09" ry="10.47"/><path class="cls-18" d="M61.65,55c0-5.78-4.07-10.47-9.08-10.47S43.48,49.17,43.48,55s4.07,10.48,9.09,10.48S61.65,60.74,61.65,55Z"/><path class="cls-18" d="M58.7,89.36c1.89-.59,9.32,2.76,8.38-7.06s-2.36-16.16-2.36-17.11-7.79-18.44-7.79-18.44L44.78,56.69s-2.84,15.56,0,21.18S44,89.36,44,89.36,56.81,90,58.7,89.36Z"/><path class="cls-19" d="M50,82.1l9.83-3.51s.47-9.33.24-10.45a43.42,43.42,0,0,1,0-5.67V55.13c0-2.39.71-8.7.23-11.41a5.73,5.73,0,0,0-3.22-4.23c-.79-.4-5.27-.88-7.08,5.59s3.62,11.65,3.62,11.65,7.08-3.19,1.65,1.19-3.62,17.24-3.62,17.24c-3.46-3-1.49-11.89-1.49-11.89C43.71,69.81,50,82.1,50,82.1Z"/><path class="cls-19" d="M77.77,39.08A15,15,0,1,0,63,56.57a14.9,14.9,0,0,0,3.15-.34l-5,25c-.71,3.48,1.06,4.19,1.53,6.71s5,2.63,5,2.63,17.23,2.87,18.65-2.27-5.2-7.54-5.2-7.54c1.18-6.47-1.89-17.48-1.65-27.65A49.31,49.31,0,0,0,77.77,39.08Z"/><path class="cls-18" d="M73.05,39.32A15.08,15.08,0,0,0,59.91,26.49a15.25,15.25,0,0,0,1.48,30h0a13.82,13.82,0,0,0,1.58.09,14.9,14.9,0,0,0,3.15-.34l-5,25c-.71,3.48,1.06,4.19,1.53,6.71s5,2.63,5,2.63a67.76,67.76,0,0,0,8.83.79c2.59-.36,4.64-1.18,5.09-2.82C83,83.38,76.4,81,76.4,81c1.18-6.47-1.89-17.48-1.65-27.65A49.31,49.31,0,0,0,73.05,39.32Z"/><path class="cls-20" d="M80.36,81.36,66.22,72.63H60.07L46.86,80.79c1.27,6.47,8.32,11.42,16.82,11.42C71.92,92.21,78.8,87.55,80.36,81.36Z"/><path class="cls-21" d="M89.55,143.52l-.3.22C89.43,147.49,89.54,145.54,89.55,143.52Z"/><path class="cls-21" d="M92.49,141.38,87.8,96.73l-.67-11.19-6.77-4.18-29.8-1.57-3.7,1L39,85.64,38.5,96.73l-4.7,44.65,4.64,2.35-.14-3.07s50.44.54,51.15.36a12.73,12.73,0,0,1,.1,2.5Z"/><rect class="cls-22" x="60.35" y="84.14" width="0.94" height="28.97"/><rect class="cls-22" x="62.32" y="84.14" width="0.94" height="28.97"/><rect class="cls-22" x="68.46" y="84.14" width="0.94" height="28.97"/><rect class="cls-22" x="64.37" y="84.14" width="0.94" height="28.97"/><rect class="cls-22" x="66.49" y="84.14" width="0.94" height="28.97"/><rect class="cls-22" x="70.5" y="84.14" width="0.94" height="28.97"/><rect class="cls-22" x="76.56" y="84.14" width="0.94" height="28.97"/><rect class="cls-22" x="72.55" y="84.14" width="0.94" height="28.97"/><rect class="cls-22" x="78.68" y="84.14" width="0.94" height="28.97"/><rect class="cls-22" x="74.51" y="84.14" width="0.94" height="28.97"/><rect class="cls-22" x="80.65" y="84.14" width="0.94" height="28.97"/><rect class="cls-22" x="82.7" y="84.14" width="0.94" height="28.97"/><rect class="cls-22" x="48" y="84.14" width="0.94" height="28.97"/><polygon class="cls-22" points="84.9 84.17 84.9 113.1 85.84 113.1 85.84 84.75 84.9 84.17"/><polygon class="cls-22" points="87.8 96.73 87.13 85.54 86.87 85.38 86.87 113.1 87.81 113.1 87.81 96.86 87.8 96.73"/><polygon class="cls-22" points="88.91 113.1 89.52 113.1 88.91 107.33 88.91 113.1"/><rect class="cls-22" x="52.01" y="84.14" width="0.94" height="28.97"/><rect class="cls-22" x="49.97" y="84.14" width="0.94" height="28.97"/><rect class="cls-22" x="54.14" y="84.14" width="0.94" height="28.97"/><rect class="cls-22" x="56.11" y="84.14" width="0.94" height="28.97"/><rect class="cls-22" x="58.15" y="84.14" width="0.94" height="28.97"/><path class="cls-22" d="M80.05,83.2l-3.28-2L51.09,79.82l-4.54,2.8c1.27,6.48,8.31,11.43,16.81,11.43C71.61,94.05,78.48,89.39,80.05,83.2Z"/><path class="cls-22" d="M71.92,109.15c-7.2,4.56-13.14-2.44-13.1-2.39-3.78,3.59-11.68,2.63-11.68,2.63L45.9,144c7.91.08,20.29.2,29.79.27C76.53,137.09,77.9,105.36,71.92,109.15Z"/><rect class="cls-23" x="55.76" y="127.79" width="3.18" height="11.68"/><path class="cls-24" d="M80.36,81.36,66.22,72.63H60.07L46.86,80.79c1.27,6.47,8.32,11.42,16.82,11.42C71.92,92.21,78.8,87.55,80.36,81.36Z"/><path class="cls-24" d="M80.36,81.36,66.22,72.63H60.07L46.86,80.79c1.27,6.47,8.32,11.42,16.82,11.42C71.92,92.21,78.8,87.55,80.36,81.36Z"/><path class="cls-25" d="M58,91.44a20.41,20.41,0,0,0,2.86.59l-1.69-2.66Z"/><path class="cls-26" d="M56.06,60.62c1.5-.19,2.42-4.1,2-7.18s-1.87-4.16-3.37-4S52.31,51,52.68,54.1,54.56,60.8,56.06,60.62Z"/><path class="cls-26" d="M73.88,54.1c.36-3.08-.56-4.46-2.06-4.64s-3,.89-3.38,4,.56,7,2.06,7.18S73.51,57.18,73.88,54.1Z"/><path class="cls-20" d="M68,81l.71-6.78,5.19-27.11c-.55-5.66-4.33-10.18-5.33-11.29l-6.73-2.58-.51-.86a5.79,5.79,0,0,1-1.11.86l-.6.38c-5.89,3.93-6.79,8.84-6.79,8.84l0,0-.48,2.91,5.51,28.82.89,6.92Z"/><path class="cls-24" d="M69.2,71.76l4.71-24.63c-.55-5.66-4.33-10.18-5.33-11.29l-6.73-2.58-.51-.86a6.22,6.22,0,0,1-1.11.86c5.9,2.08,10.15,9.9,10.15,9.9L67.91,70.93Z"/><path class="cls-27" d="M66.18,60.08a6.21,6.21,0,0,1-2.33.33,6.55,6.55,0,0,1-2,.37,6.26,6.26,0,0,1-2-.38,6.21,6.21,0,0,1-2.33-.33c.5,1.9,2.49,2.5,4.3,2.65C63.68,62.57,65.68,62,66.18,60.08Z"/><path class="cls-26" d="M62.57,61.28a8.19,8.19,0,0,0,3.63-1.21c-1.11.15-2.32,0-3.34.13a2.41,2.41,0,0,0-1,.49,2.54,2.54,0,0,0-1-.49c-1-.17-2.23,0-3.34-.13a8.15,8.15,0,0,0,3.63,1.21A7.72,7.72,0,0,0,62.57,61.28Z"/><path class="cls-26" d="M63.11,57c0-.07,0-.13,0-.19A2,2,0,0,1,61.24,58a2,2,0,0,1-1.86-1.19,1.15,1.15,0,0,0,0,.19,1.87,1.87,0,1,0,3.74,0Z"/><path class="cls-28" d="M60,50.56A1.45,1.45,0,1,0,58.51,52,1.46,1.46,0,0,0,60,50.56Z"/><path class="cls-29" d="M57.39,48.44a3.08,3.08,0,0,0-3.06,1.77,5.76,5.76,0,0,1,6.12,0A3.1,3.1,0,0,0,57.39,48.44Z"/><path class="cls-27" d="M57.39,47.48a2.19,2.19,0,0,0-2.17,1.24,4.11,4.11,0,0,1,4.34,0A2.19,2.19,0,0,0,57.39,47.48Z"/><path class="cls-27" d="M67,47.48a2.19,2.19,0,0,0-2.17,1.24,4.11,4.11,0,0,1,4.34,0A2.19,2.19,0,0,0,67,47.48Z"/><path class="cls-27" d="M56.74,44.14a3,3,0,0,0-3,1.8,5.45,5.45,0,0,1,6,0A3,3,0,0,0,56.74,44.14Z"/><path class="cls-27" d="M67.05,44.14a3,3,0,0,0-3,1.8,5.43,5.43,0,0,1,6,0A3,3,0,0,0,67.05,44.14Z"/><path class="cls-28" d="M69.55,50.56A1.45,1.45,0,1,0,68.1,52,1.46,1.46,0,0,0,69.55,50.56Z"/><path class="cls-29" d="M67,48.44A3.08,3.08,0,0,0,64,50.21a5.74,5.74,0,0,1,6.11,0A3.07,3.07,0,0,0,67,48.44Z"/><path class="cls-30" d="M58.49,51.11a.44.44,0,0,0-.44-.45.45.45,0,0,0-.44.45.45.45,0,0,0,.44.45A.45.45,0,0,0,58.49,51.11Z"/><path class="cls-30" d="M67.89,51.11a.45.45,0,0,0-.44-.45.44.44,0,0,0-.44.45.45.45,0,0,0,.44.45A.45.45,0,0,0,67.89,51.11Z"/><path class="cls-24" d="M68,81l.71-6.78,1.41-7.34c-2,2.07-4.91,4.39-8,4.29a7.67,7.67,0,0,1-5.41-2.69l1.09,5.74.89,6.92Z"/><path class="cls-18" d="M68.58,35.84l-1.89-.72A43.7,43.7,0,0,0,57.82,35a9.89,9.89,0,0,0-.75.67A43.25,43.25,0,0,1,68.73,36Z"/><path class="cls-18" d="M61.26,31.63s-7.87,3.15-7.87,3.43a2.64,2.64,0,0,1-.31.84l3.46-.16,4.56-2.39Z"/><path class="cls-25" d="M62.16,71.19a7.67,7.67,0,0,1-5.41-2.69l.1.54,6,6.2,3.38-1.12,4.28,17a16.54,16.54,0,0,0,7.75-5.39c-.2-1.5-.5-3.71-.82-6.16l-8.68-5.36,1.39-7.28C68.14,69,65.22,71.29,62.16,71.19Z"/><polygon class="cls-19" points="71.33 64.83 71.33 101.93 71.33 107.56 80.3 90.08 78.88 76.8 71.33 64.83"/><path class="cls-31" d="M89.56,143.52l2.93-2.14L87.8,96.73l-.67-11.19-6.77-4.18-1.13-.79c-3.26,7.77-10.88,27.5-11,38.73A101.86,101.86,0,0,0,70.27,141c10.16.09,18.89.13,19.18.06a12.73,12.73,0,0,1,.1,2.5Z"/><path class="cls-32" d="M90.85,125.8l-.26-2.51c-11.44,2-18.09,5.52-21.78,8.3.11,1,.23,2,.35,2.92a25.17,25.17,0,0,1,3.08-2.23C75.59,130.19,81.43,127.5,90.85,125.8Z"/><path class="cls-32" d="M69,112.15c-.19,1-.36,2.08-.48,3.07,3.92-2.17,10.38-4.56,20.63-5.56l-.27-2.5C79.65,108.07,73.29,110.09,69,112.15Z"/><path class="cls-32" d="M74.71,92.24c-.33,1-.67,1.92-1,2.91A69.56,69.56,0,0,1,87.55,92.6l-.15-2.51A75.56,75.56,0,0,0,74.71,92.24Z"/><path class="cls-32" d="M87.65,94.37A69.45,69.45,0,0,0,73,97.18c-.32,1-.64,2-1,3a64.41,64.41,0,0,1,15.74-3.28v-.15Z"/><path class="cls-32" d="M92,136.47A58.42,58.42,0,0,0,74.33,141l7.22,0A68.12,68.12,0,0,1,92.24,139Z"/><path class="cls-32" d="M91.3,130.08,91,127.57c-11.51,2.11-18.09,5.71-21.65,8.49.29,1.95.61,3.6.88,4.9h.82c3.55-2.26,9.92-5.05,20.7-6.27l-.26-2.5c-10.59,1.2-17.2,3.89-21.16,6.28a26.06,26.06,0,0,1,2.81-2C76.47,134.42,82.17,131.78,91.3,130.08Z"/><path class="cls-32" d="M90.05,143.16l2.44-1.78-.12-1.2c-1.6.27-3.1.56-4.52.87,1,0,1.53,0,1.6,0a10.33,10.33,0,0,1,.11,2.24Z"/><path class="cls-32" d="M71.43,102.31c-.31,1-.6,2.1-.88,3.14,3.59-1.72,9.25-3.65,17.68-4.62L88,98.33A61.27,61.27,0,0,0,71.43,102.31Z"/><path class="cls-32" d="M89.34,111.43c-10.15,1-16.8,3.39-21,5.66-.06.77-.1,1.5-.11,2.21v.75c.41-.25.85-.51,1.34-.77,3.6-1.93,9.92-4.33,20-5.35Z"/><path class="cls-32" d="M78.26,82.93c-.34.84-.7,1.75-1.09,2.73a69.93,69.93,0,0,1,8.59-1l-3.64-2.25C80.76,82.58,79.48,82.74,78.26,82.93Z"/><path class="cls-32" d="M90.44,121.84l-.27-2.5C79.4,121,72.58,124,68.39,126.62c.06,1,.13,1.95.21,2.87.39-.27.82-.56,1.28-.85C73.45,126.42,79.86,123.5,90.44,121.84Z"/><path class="cls-32" d="M76.43,87.59c-.34.89-.68,1.81-1,2.77a69.12,69.12,0,0,1,11.94-1.44l-.15-2.51A74.08,74.08,0,0,0,76.43,87.59Z"/><path class="cls-32" d="M90,117.57l-.26-2.5c-10.42,1.57-17.21,4.33-21.52,6.89q0,1.49.09,2.91c.2-.14.42-.28.64-.41C72.56,122.2,79.11,119.22,90,117.57Z"/><path class="cls-32" d="M88.41,102.6c-8.45,1-14.35,2.92-18.38,4.88-.27,1.09-.51,2.17-.73,3.22l.66-.37c3.44-1.84,9.36-4.13,18.72-5.23Z"/><path class="cls-19" d="M48.55,77.1A32.14,32.14,0,0,1,47.08,83l-.53,5.81c6.37-4.19,6.72-14.85,6.72-14.85Z"/><path class="cls-31" d="M48.23,79.73l-1.37,1.06L39,85.64,38.5,96.73l-4.7,44.65,4.64,2.35-.14-3.07,11,.11Z"/><path class="cls-32" d="M48.91,117.3a48.18,48.18,0,0,0-13.15,5.42L35.42,126c.49-.36,1-.73,1.65-1.12A45.84,45.84,0,0,1,49,119.9Z"/><path class="cls-32" d="M40.89,84.48,39,85.64l-.09,2a64.22,64.22,0,0,1,9.42-2l-.05-2.53A68.46,68.46,0,0,0,40.89,84.48Z"/><path class="cls-32" d="M49.14,130.32c-7.35,1.64-12,4-14.81,6L34,139.78a22.17,22.17,0,0,1,4.42-3,43.47,43.47,0,0,1,10.8-3.86Z"/><path class="cls-32" d="M38.83,89.46l-.12,2.67A62.17,62.17,0,0,1,48.41,90l0-2.54A66.14,66.14,0,0,0,38.83,89.46Z"/><path class="cls-32" d="M49,124.34l0-2.61a44.63,44.63,0,0,0-13.77,6.16l-.7,6.63c2.45-1.84,6.94-4.33,14.59-6l0-2.56a45,45,0,0,0-13.86,5.11A26.3,26.3,0,0,1,38,129,44.36,44.36,0,0,1,49,124.34Z"/><path class="cls-32" d="M44,140.72l5.34.05,0-1.85A54.64,54.64,0,0,0,44,140.72Z"/><path class="cls-32" d="M49.26,137.09l0-2.6c-7.61,2.08-12.35,4.79-15.19,7l2.5,1.27c.38-.27.8-.55,1.25-.83l.56-.34,0-.93,1.69,0A49,49,0,0,1,49.26,137.09Z"/><path class="cls-32" d="M37.34,107.75l-.3,2.84a53.28,53.28,0,0,1,11.69-3.31l0-2.54A57.28,57.28,0,0,0,37.34,107.75Z"/><path class="cls-32" d="M36.32,117.46l-.32,3a50.46,50.46,0,0,1,12.88-4.79l-.05-2.58A56,56,0,0,0,36.32,117.46Z"/><path class="cls-32" d="M37.83,103.08l-.29,2.78a55.13,55.13,0,0,1,11.11-2.93l0-2.53A59.83,59.83,0,0,0,37.83,103.08Z"/><path class="cls-32" d="M46.86,80.79l-2.21,1.36c1.14-.16,2.34-.29,3.61-.41l0-2Z"/><path class="cls-32" d="M38.11,143.56l.33.17,0-.35Z"/><path class="cls-32" d="M36.83,112.57l-.31,2.93a54.73,54.73,0,0,1,12.28-4.21l0-2.57A58.84,58.84,0,0,0,36.83,112.57Z"/><path class="cls-32" d="M38.3,98.59l-.3,2.82a53.38,53.38,0,0,1,10.57-3l0-2.55A57.57,57.57,0,0,0,38.3,98.59Z"/><path class="cls-32" d="M38.62,94l-.12,2.73a56.25,56.25,0,0,1,10-2.64l-.05-2.54A60.21,60.21,0,0,0,38.62,94Z"/><path class="cls-17" d="M87.71,141.05l4.7-.45L87.8,96.73l-.67-11.19s-7.54,8.37-7.66,20.1S79,139,79,139.88c0,.39.53.82,1.09,1.15C83.39,141.05,86.07,141.06,87.71,141.05Z"/><path class="cls-33" d="M87.71,141.05l4.7-.45-1.27-12.07-5,2.55-1.68-3.92-4-4-1.28.07c-.12,8.58-.24,16.2-.24,16.69s.53.82,1.09,1.15C83.39,141.05,86.07,141.06,87.71,141.05Z"/><polygon class="cls-23" points="82.07 122.49 52.32 122.49 52.32 128.8 85.19 128.8 84.48 127.16 82.07 122.49"/><polygon class="cls-34" points="82.63 123.56 52.32 123.56 52.32 127.32 84.55 127.32 84.48 127.16 82.63 123.56"/><path class="cls-17" d="M39,85.64,38.5,96.73l-4.7,44.65,3.37,1.71,1.23-.22-.1-2.21,4.14,0Z"/><polygon class="cls-25" points="61.55 112.23 44.07 107.91 38.26 110.81 41.94 117.03 60.4 115.63 61.55 112.23"/><path class="cls-35" d="M44.07,107.91l-4.64,2.32c-.27.42-.52.85-.77,1.25L41.94,117l13.35-1a5.65,5.65,0,0,1,.87-5.12Z"/><path class="cls-36" d="M46.88,108.86l.31-.18-2-.5c-1.44.95-2.71,2-3,2.92-.33,1.26.48,3.88,1.21,5.81L45,116.8c-.81-2.11-1.54-4.5-1.32-5.31C43.66,111.35,44,110.59,46.88,108.86Z"/><path class="cls-36" d="M54,110.37l-1.87-.46A6.09,6.09,0,0,0,50,112.39a10.82,10.82,0,0,0,.11,4l1.46-.11a10.14,10.14,0,0,1-.17-3.5A7.73,7.73,0,0,1,54,110.37Z"/><path class="cls-36" d="M50.28,109.45,48.56,109a9.07,9.07,0,0,0-2.39,3.07,8.1,8.1,0,0,0,.35,4.59l1.5-.11a7.38,7.38,0,0,1-.47-4A10.17,10.17,0,0,1,50.28,109.45Z"/><path class="cls-24" d="M49.77,127.43a3.46,3.46,0,0,0,1.54.68h.55s.08.43.86.43V124.2s3.74-.92,5-2.92l26.76,5.88-5-11.9H52.8l-6.49,6.1s.87,5,2.83,6.07Z"/><path class="cls-25" d="M70.28,115.64c-1.28-3-7.46-3-7.64-3l6,5.64S71.56,118.6,70.28,115.64Z"/><path class="cls-35" d="M79.44,115.26H56.68a27.14,27.14,0,0,1,2.26,6.29l25.54,5.61Z"/><polygon class="cls-36" points="67.38 115.26 65.38 115.26 65.62 123.02 67.64 123.46 67.38 115.26"/><polygon class="cls-36" points="62.27 115.26 60.21 115.26 61.83 122.19 64 122.66 62.27 115.26"/><polygon class="cls-36" points="77.31 115.26 75.3 115.26 76.37 125.38 78.43 125.83 77.31 115.26"/><polygon class="cls-36" points="69.83 115.26 69.8 123.94 71.81 124.38 71.84 115.26 69.83 115.26"/><path class="cls-37" d="M50.22,127.72l-2-5.68,1.38,5.39h.15A3.86,3.86,0,0,0,50.22,127.72Z"/><path class="cls-37" d="M51.81,128.11,50.6,123l.43,5.06.28.05Z"/><path class="cls-25" d="M56.82,57.3a1.65,1.65,0,0,0-2.49-1.45L54.92,59l.24,0A1.67,1.67,0,0,0,56.82,57.3Z"/><path class="cls-25" d="M69.46,57.3A1.66,1.66,0,1,0,67.81,59,1.66,1.66,0,0,0,69.46,57.3Z"/><path class="cls-25" d="M64.64,122.41l6.09-2s-1.92-7-7.68-8.25a13.16,13.16,0,0,0-6.63-.09c-.13.54-.32,1.34-.46,1.89l.54.75S63.38,117.31,64.64,122.41Z"/><path class="cls-37" d="M67.1,121.59a8.22,8.22,0,0,0-3.89-4.94c1.7,1.14,2.68,3.75,3.11,5.19Z"/><path class="cls-37" d="M69.39,120.85a8.24,8.24,0,0,0-3.83-4.7c1.62,1.08,2.58,3.49,3,5Z"/><path class="cls-17" d="M44.6,108l-3.35-.83A11,11,0,0,0,35,112.14a3.61,3.61,0,0,0,1.77,5.28l5.52-.42c-.78-1.44-2.16-4.21-2.06-5.65C40.28,110.24,42.41,108.94,44.6,108Z"/><polygon class="cls-38" points="9.82 85.3 0.82 104.77 32.46 98.19 22.93 88.12 9.82 85.3"/><polygon class="cls-39" points="32.2 61.3 29.77 58.84 26.77 58.84 24.74 56.25 14.24 56.25 16.09 64.04 27.92 63.68 19.09 62.07 35.95 62.07 32.2 61.3"/><path class="cls-7" d="M38.09,77.17S16.38,71.4,16,71.33l-2.65,1.14L15.12,82H32.26L16.05,77.37l1.58-.2Z"/></g><polygon class="cls-40" points="116.23 148.99 116.23 149.13 116.09 149.13 116.09 152.16 119.26 152.16 119.26 148.99 116.23 148.99"/><rect class="cls-40" x="30.7" y="149.13" width="3.28" height="3.03"/><rect class="cls-40" x="43.84" y="149.13" width="3.28" height="3.03"/><rect class="cls-40" x="50.4" y="149.13" width="3.28" height="3.03"/><rect class="cls-40" x="37.27" y="149.13" width="3.28" height="3.03"/><rect class="cls-40" x="24.13" y="149.13" width="3.28" height="3.03"/><rect class="cls-40" x="10.99" y="149.13" width="3.28" height="3.03"/><rect class="cls-40" x="17.56" y="149.13" width="3.28" height="3.03"/><rect class="cls-40" x="56.97" y="149.13" width="3.28" height="3.03"/><rect class="cls-40" x="96.38" y="149.13" width="3.28" height="3.03"/><rect class="cls-40" x="102.95" y="149.13" width="3.28" height="3.03"/><rect class="cls-40" x="109.52" y="149.13" width="3.28" height="3.03"/><rect class="cls-40" x="89.81" y="149.13" width="3.28" height="3.03"/><rect class="cls-40" x="70.11" y="149.13" width="3.28" height="3.03"/><rect class="cls-40" x="63.54" y="149.13" width="3.28" height="3.03"/><rect class="cls-40" x="83.25" y="149.13" width="3.28" height="3.03"/><rect class="cls-40" x="76.68" y="149.13" width="3.28" height="3.03"/><polygon class="cls-40" points="4.54 148.99 4.54 152.16 7.71 152.16 7.71 149.13 7.57 149.13 7.57 148.99 4.54 148.99"/><rect class="cls-40" x="4.54" y="57.27" width="3.03" height="3.28"/><rect class="cls-40" x="4.54" y="44.17" width="3.03" height="3.28"/><rect class="cls-40" x="4.54" y="50.72" width="3.03" height="3.28"/><rect class="cls-40" x="4.54" y="63.82" width="3.03" height="3.28"/><rect class="cls-40" x="4.54" y="76.93" width="3.03" height="3.28"/><rect class="cls-40" x="4.54" y="70.37" width="3.03" height="3.28"/><rect class="cls-40" x="4.54" y="17.97" width="3.03" height="3.28"/><rect class="cls-40" x="4.54" y="11.42" width="3.03" height="3.28"/><rect class="cls-40" x="4.54" y="37.62" width="3.03" height="3.28"/><rect class="cls-40" x="4.54" y="24.52" width="3.03" height="3.28"/><rect class="cls-40" x="4.54" y="31.07" width="3.03" height="3.28"/><rect class="cls-40" x="4.54" y="122.78" width="3.03" height="3.28"/><rect class="cls-40" x="4.54" y="129.33" width="3.03" height="3.28"/><rect class="cls-40" x="4.54" y="116.23" width="3.03" height="3.28"/><rect class="cls-40" x="4.54" y="135.88" width="3.03" height="3.28"/><rect class="cls-40" x="4.54" y="142.44" width="3.03" height="3.28"/><rect class="cls-40" x="4.54" y="109.68" width="3.03" height="3.28"/><rect class="cls-40" x="4.54" y="96.58" width="3.03" height="3.28"/><rect class="cls-40" x="4.54" y="83.48" width="3.03" height="3.28"/><rect class="cls-40" x="4.54" y="90.03" width="3.03" height="3.28"/><rect class="cls-40" x="4.54" y="103.13" width="3.03" height="3.28"/><polygon class="cls-40" points="7.71 8 7.71 4.97 4.54 4.97 4.54 8.14 7.57 8.14 7.57 8 7.71 8"/><rect class="cls-40" x="37.27" y="4.97" width="3.28" height="3.03"/><rect class="cls-40" x="50.4" y="4.97" width="3.28" height="3.03"/><rect class="cls-40" x="30.7" y="4.97" width="3.28" height="3.03"/><rect class="cls-40" x="56.97" y="4.97" width="3.28" height="3.03"/><rect class="cls-40" x="10.99" y="4.97" width="3.28" height="3.03"/><rect class="cls-40" x="24.13" y="4.97" width="3.28" height="3.03"/><rect class="cls-40" x="17.56" y="4.97" width="3.28" height="3.03"/><rect class="cls-40" x="43.84" y="4.97" width="3.28" height="3.03"/><rect class="cls-40" x="96.38" y="4.97" width="3.28" height="3.03"/><rect class="cls-40" x="102.95" y="4.97" width="3.28" height="3.03"/><rect class="cls-40" x="63.54" y="4.97" width="3.28" height="3.03"/><rect class="cls-40" x="109.52" y="4.97" width="3.28" height="3.03"/><rect class="cls-40" x="89.81" y="4.97" width="3.28" height="3.03"/><rect class="cls-40" x="70.11" y="4.97" width="3.28" height="3.03"/><rect class="cls-40" x="76.68" y="4.97" width="3.28" height="3.03"/><rect class="cls-40" x="83.25" y="4.97" width="3.28" height="3.03"/><polygon class="cls-40" points="119.26 8.14 119.26 4.97 116.09 4.97 116.09 8 116.23 8 116.23 8.14 119.26 8.14"/><rect class="cls-40" x="116.23" y="50.72" width="3.03" height="3.28"/><rect class="cls-40" x="116.23" y="44.17" width="3.03" height="3.28"/><rect class="cls-40" x="116.23" y="37.62" width="3.03" height="3.28"/><rect class="cls-40" x="116.23" y="57.27" width="3.03" height="3.28"/><rect class="cls-40" x="116.23" y="63.82" width="3.03" height="3.28"/><rect class="cls-40" x="116.23" y="17.97" width="3.03" height="3.28"/><rect class="cls-40" x="116.23" y="70.38" width="3.03" height="3.28"/><rect class="cls-40" x="116.23" y="11.42" width="3.03" height="3.28"/><rect class="cls-40" x="116.23" y="31.07" width="3.03" height="3.28"/><rect class="cls-40" x="116.23" y="24.52" width="3.03" height="3.28"/><rect class="cls-40" x="116.23" y="129.33" width="3.03" height="3.28"/><rect class="cls-40" x="116.23" y="116.23" width="3.03" height="3.28"/><rect class="cls-40" x="116.23" y="109.68" width="3.03" height="3.28"/><rect class="cls-40" x="116.23" y="122.78" width="3.03" height="3.28"/><rect class="cls-40" x="116.23" y="76.93" width="3.03" height="3.28"/><rect class="cls-40" x="116.23" y="135.88" width="3.03" height="3.28"/><rect class="cls-40" x="116.23" y="142.44" width="3.03" height="3.28"/><rect class="cls-40" x="116.23" y="90.03" width="3.03" height="3.28"/><rect class="cls-40" x="116.23" y="103.13" width="3.03" height="3.28"/><rect class="cls-40" x="116.23" y="83.48" width="3.03" height="3.28"/><rect class="cls-40" x="116.23" y="96.58" width="3.03" height="3.28"/><path class="cls-40" d="M10,10.14V147.32H113.82V10.14Zm91.74,125.08H22.08v-113h79.64Z"/><path class="cls-41" d="M14.71,16.4V141.06h94.38V16.4Zm87,118.82H22.08v-113h79.64Z"/><path class="cls-3" d="M12.79,13V144.51H111V13ZM104.53,138H19.27V19.44h85.26Z"/><rect class="cls-42" x="45.45" y="164.02" width="32.9" height="14.25"/><rect class="cls-43" x="50.29" y="168.26" width="23.3" height="3.34"/><rect class="cls-44" x="50.29" y="167.4" width="23.3" height="3.34"/><rect class="cls-43" x="50.29" y="172.82" width="10.33" height="1.16"/><rect class="cls-44" x="50.29" y="172.51" width="10.33" height="1.16"/><rect class="cls-43" x="61.35" y="172.82" width="10.33" height="1.16"/><rect class="cls-44" x="61.35" y="172.51" width="10.33" height="1.16"/><rect class="cls-43" x="54.36" y="174.73" width="5.89" height="1.16"/><rect class="cls-44" x="54.36" y="174.43" width="5.89" height="1.16"/><rect class="cls-43" x="61.03" y="174.73" width="5.89" height="1.16"/><rect class="cls-44" x="61.03" y="174.43" width="5.89" height="1.16"/><rect class="cls-43" x="67.56" y="174.73" width="2.15" height="1.16"/><rect class="cls-44" x="67.56" y="174.43" width="2.15" height="1.16"/><path class="cls-44" d="M47.42,165.57a.6.6,0,0,0-.6-.6.59.59,0,0,0-.59.6.58.58,0,0,0,.59.59A.59.59,0,0,0,47.42,165.57Z"/><path class="cls-44" d="M47.42,176.53a.6.6,0,0,0-.6-.59.6.6,0,0,0,0,1.19A.6.6,0,0,0,47.42,176.53Z"/><path class="cls-44" d="M77.34,165.57a.59.59,0,0,0-.59-.6.6.6,0,0,0-.6.6.59.59,0,0,0,.6.59A.58.58,0,0,0,77.34,165.57Z"/><path class="cls-44" d="M77.34,176.53a.59.59,0,0,0-.59-.59.6.6,0,1,0,0,1.19A.59.59,0,0,0,77.34,176.53Z"/></g></g></g></svg>