<svg xmlns="http://www.w3.org/2000/svg" xmlns:xlink="http://www.w3.org/1999/xlink" viewBox="0 0 138.49 183.71"><defs><style>.cls-1{fill:none;}.cls-2{fill:#aa634d;}.cls-3{fill:#723a26;}.cls-4{fill:#875641;}.cls-5{clip-path:url(#clip-path);}.cls-6{fill:#72a5a6;}.cls-7{fill:#566163;}.cls-8{fill:#667275;}.cls-9{fill:#717e82;}.cls-10{fill:#8a9699;}.cls-11{fill:#97a3a5;}.cls-12{fill:#5a8ea0;}.cls-13{fill:#437a89;}.cls-14{fill:#467f8c;}.cls-15{fill:#4a8593;}.cls-16{fill:#becc9a;}.cls-17{fill:#aeba86;}.cls-18{fill:#8b8c89;}.cls-19{fill:#707070;}.cls-20{fill:#c79a7e;}.cls-21{fill:#ac8067;}.cls-22{fill:#212121;}.cls-23{fill:#4f301e;}.cls-24{fill:#ddae97;}.cls-25{fill:#2a2a2a;}.cls-26{fill:#dceae9;}.cls-27{fill:#912424;}.cls-28{fill:#600f0f;}.cls-29{fill:#fff;}.cls-30{fill:#493325;}.cls-31{fill:#3d9933;}.cls-32{fill:#2f7a25;}.cls-33{fill:#2e8421;}.cls-34{fill:#c6dbc3;}.cls-35{fill:#efe7d3;}.cls-36{fill:#937f2e;}.cls-37{fill:#776826;}.cls-38{fill:#af9b48;}</style><clipPath id="clip-path"><rect class="cls-1" x="22.6" y="26.15" width="86.6" height="118.16"/></clipPath></defs><title>cuadros_pared_Recurso 36</title><g id="Capa_2" data-name="Capa 2"><g id="Capa_1-2" data-name="Capa 1"><g id="Silencio"><rect class="cls-2" x="5.29" y="7.31" width="122.31" height="155.57"/><rect class="cls-3" x="7.65" y="10.21" width="117.59" height="149.77"/><polygon class="cls-4" points="120.13 154.51 120.13 154.65 119.99 154.65 119.99 157.64 123.12 157.64 123.12 154.51 120.13 154.51"/><rect class="cls-4" x="35.62" y="154.65" width="3.24" height="2.99"/><rect class="cls-4" x="48.6" y="154.65" width="3.24" height="2.99"/><rect class="cls-4" x="55.09" y="154.65" width="3.24" height="2.99"/><rect class="cls-4" x="42.11" y="154.65" width="3.24" height="2.99"/><rect class="cls-4" x="29.13" y="154.65" width="3.24" height="2.99"/><rect class="cls-4" x="16.16" y="154.65" width="3.24" height="2.99"/><rect class="cls-4" x="22.65" y="154.65" width="3.24" height="2.99"/><rect class="cls-4" x="61.58" y="154.65" width="3.24" height="2.99"/><rect class="cls-4" x="100.52" y="154.65" width="3.24" height="2.99"/><rect class="cls-4" x="107.01" y="154.65" width="3.24" height="2.99"/><rect class="cls-4" x="113.5" y="154.65" width="3.24" height="2.99"/><rect class="cls-4" x="94.03" y="154.65" width="3.24" height="2.99"/><rect class="cls-4" x="74.56" y="154.65" width="3.24" height="2.99"/><rect class="cls-4" x="68.07" y="154.65" width="3.24" height="2.99"/><rect class="cls-4" x="87.54" y="154.65" width="3.24" height="2.99"/><rect class="cls-4" x="81.05" y="154.65" width="3.24" height="2.99"/><polygon class="cls-4" points="9.78 154.51 9.78 157.64 12.91 157.64 12.91 154.65 12.77 154.65 12.77 154.51 9.78 154.51"/><rect class="cls-4" x="9.78" y="63.89" width="2.99" height="3.24"/><rect class="cls-4" x="9.78" y="50.95" width="2.99" height="3.24"/><rect class="cls-4" x="9.78" y="57.42" width="2.99" height="3.24"/><rect class="cls-4" x="9.78" y="70.37" width="2.99" height="3.24"/><rect class="cls-4" x="9.78" y="83.31" width="2.99" height="3.24"/><rect class="cls-4" x="9.78" y="76.84" width="2.99" height="3.24"/><rect class="cls-4" x="9.78" y="25.06" width="2.99" height="3.24"/><rect class="cls-4" x="9.78" y="18.59" width="2.99" height="3.24"/><rect class="cls-4" x="9.78" y="44.48" width="2.99" height="3.24"/><rect class="cls-4" x="9.78" y="31.53" width="2.99" height="3.24"/><rect class="cls-4" x="9.78" y="38" width="2.99" height="3.24"/><rect class="cls-4" x="9.78" y="128.62" width="2.99" height="3.24"/><rect class="cls-4" x="9.78" y="135.09" width="2.99" height="3.24"/><rect class="cls-4" x="9.78" y="122.14" width="2.99" height="3.24"/><rect class="cls-4" x="9.78" y="141.56" width="2.99" height="3.24"/><rect class="cls-4" x="9.78" y="148.03" width="2.99" height="3.24"/><rect class="cls-4" x="9.78" y="115.67" width="2.99" height="3.24"/><rect class="cls-4" x="9.78" y="102.73" width="2.99" height="3.24"/><rect class="cls-4" x="9.78" y="89.78" width="2.99" height="3.24"/><rect class="cls-4" x="9.78" y="96.25" width="2.99" height="3.24"/><rect class="cls-4" x="9.78" y="109.2" width="2.99" height="3.24"/><polygon class="cls-4" points="12.91 15.21 12.91 12.22 9.78 12.22 9.78 15.35 12.77 15.35 12.77 15.21 12.91 15.21"/><rect class="cls-4" x="42.11" y="12.22" width="3.24" height="2.99"/><rect class="cls-4" x="55.09" y="12.22" width="3.24" height="2.99"/><rect class="cls-4" x="35.62" y="12.22" width="3.24" height="2.99"/><rect class="cls-4" x="61.58" y="12.22" width="3.24" height="2.99"/><rect class="cls-4" x="16.16" y="12.22" width="3.24" height="2.99"/><rect class="cls-4" x="29.13" y="12.22" width="3.24" height="2.99"/><rect class="cls-4" x="22.65" y="12.22" width="3.24" height="2.99"/><rect class="cls-4" x="48.6" y="12.22" width="3.24" height="2.99"/><rect class="cls-4" x="100.52" y="12.22" width="3.24" height="2.99"/><rect class="cls-4" x="107.01" y="12.22" width="3.24" height="2.99"/><rect class="cls-4" x="68.07" y="12.22" width="3.24" height="2.99"/><rect class="cls-4" x="113.5" y="12.22" width="3.24" height="2.99"/><rect class="cls-4" x="94.03" y="12.22" width="3.24" height="2.99"/><rect class="cls-4" x="74.56" y="12.22" width="3.24" height="2.99"/><rect class="cls-4" x="81.05" y="12.22" width="3.24" height="2.99"/><rect class="cls-4" x="87.54" y="12.22" width="3.24" height="2.99"/><polygon class="cls-4" points="123.12 15.35 123.12 12.22 119.99 12.22 119.99 15.21 120.13 15.21 120.13 15.35 123.12 15.35"/><rect class="cls-4" x="120.13" y="57.42" width="2.99" height="3.24"/><rect class="cls-4" x="120.13" y="50.95" width="2.99" height="3.24"/><rect class="cls-4" x="120.13" y="44.48" width="2.99" height="3.24"/><rect class="cls-4" x="120.13" y="63.89" width="2.99" height="3.24"/><rect class="cls-4" x="120.13" y="70.37" width="2.99" height="3.24"/><rect class="cls-4" x="120.13" y="25.06" width="2.99" height="3.24"/><rect class="cls-4" x="120.13" y="76.84" width="2.99" height="3.24"/><rect class="cls-4" x="120.13" y="18.59" width="2.99" height="3.24"/><rect class="cls-4" x="120.13" y="38" width="2.99" height="3.24"/><rect class="cls-4" x="120.13" y="31.53" width="2.99" height="3.24"/><rect class="cls-4" x="120.13" y="135.09" width="2.99" height="3.24"/><rect class="cls-4" x="120.13" y="122.14" width="2.99" height="3.24"/><rect class="cls-4" x="120.13" y="115.67" width="2.99" height="3.24"/><rect class="cls-4" x="120.13" y="128.62" width="2.99" height="3.24"/><rect class="cls-4" x="120.13" y="83.31" width="2.99" height="3.24"/><rect class="cls-4" x="120.13" y="141.56" width="2.99" height="3.24"/><rect class="cls-4" x="120.13" y="148.03" width="2.99" height="3.24"/><rect class="cls-4" x="120.13" y="96.25" width="2.99" height="3.24"/><rect class="cls-4" x="120.13" y="109.2" width="2.99" height="3.24"/><rect class="cls-4" x="120.13" y="89.78" width="2.99" height="3.24"/><rect class="cls-4" x="120.13" y="102.73" width="2.99" height="3.24"/><g class="cls-5"><rect class="cls-6" x="4.09" y="21.6" width="134.39" height="136.39"/><rect class="cls-7" x="11.36" y="11.76" width="107.7" height="85.45"/><path class="cls-8" d="M55.57,12a20,20,0,0,0-3.75-.36A16.24,16.24,0,1,0,32,31.91a19.88,19.88,0,0,0,30,16.7,12.72,12.72,0,0,0,24,5.58A10.89,10.89,0,0,0,101,56.93a16.81,16.81,0,1,0,.21-17.82A10.91,10.91,0,0,0,85.7,42a12.71,12.71,0,0,0-14.51-6c.06-.25.11-.51.16-.76A19.88,19.88,0,0,0,55.57,12Z"/><path class="cls-9" d="M46.58,35.59a20.31,20.31,0,0,0-3.76.35A16.24,16.24,0,1,0,27.14,59.62,19.88,19.88,0,0,0,59.72,70.38a12.72,12.72,0,0,0,24.58,1,10.89,10.89,0,0,0,15.36-.16,16.81,16.81,0,1,0-3.15-17.54,10.91,10.91,0,0,0-14.69,5.73,12.74,12.74,0,0,0-15.38-3.13c0-.26,0-.52,0-.78A19.88,19.88,0,0,0,46.58,35.59Z"/><path class="cls-10" d="M83.35,64a5.72,5.72,0,0,0-5.5,4.16,8.14,8.14,0,0,0-11.19,5.25,8.4,8.4,0,0,0-1.31.44A10,10,0,0,0,49,69a10.47,10.47,0,0,0-10.36-9,10.33,10.33,0,0,0-4.51,1,14.57,14.57,0,1,0-17.44,18.4,14.43,14.43,0,1,0,26.82.28,10.41,10.41,0,0,0,2.24-1.58A10,10,0,0,0,62,84.28a7.28,7.28,0,0,0,12.8-.52,8.15,8.15,0,0,0,7.81-8.14,1.41,1.41,0,0,0,0-.2,5.65,5.65,0,0,0,.71,0,5.75,5.75,0,0,0,1.39-.17,10.85,10.85,0,1,0,19.92,8.23,8.86,8.86,0,1,0-5-12.28,10.78,10.78,0,0,0-5.49-1.5,10.9,10.9,0,0,0-5.32,1.39,5.3,5.3,0,0,0,.18-1.39A5.72,5.72,0,0,0,83.35,64Z"/><path class="cls-11" d="M83.56,78.67a5.72,5.72,0,0,0-11.29-.88,8.14,8.14,0,0,0-10.86,5.9,8,8,0,0,0-1.28.52,10,10,0,0,0-16.58-3.89A10.46,10.46,0,0,0,32.68,72a10.28,10.28,0,0,0-4.45,1.29,14.57,14.57,0,1,0-16.31,19.4A14.42,14.42,0,1,0,40,96.46a14.17,14.17,0,0,0-1.26-5.1,10.49,10.49,0,0,0,2.14-1.72,10,10,0,0,0,16.59,5.13,7.29,7.29,0,0,0,12.75-1.28,8.14,8.14,0,0,0,7.31-8.58c0-.07,0-.13,0-.2a5.61,5.61,0,0,0,.71,0,5.71,5.71,0,0,0,1.37-.25,10.86,10.86,0,1,0,20.38,7,8.47,8.47,0,0,0,3,.33,8.86,8.86,0,1,0-8.68-12.29,10.8,10.8,0,0,0-10.79.54A5.41,5.41,0,0,0,83.56,78.67Z"/><rect class="cls-12" x="11.36" y="82.96" width="107.7" height="45.14"/><path class="cls-13" d="M17.44,99.72l0-3.43a23.34,23.34,0,0,0-2.91.06l.56,3.38h-.15Z"/><path class="cls-13" d="M31.47,96.26H26.28V99.7h5.2Z"/><path class="cls-13" d="M38.5,96.26H33.3v3.43h5.2Z"/><rect class="cls-13" x="40.32" y="96.26" width="5.2" height="3.43"/><path class="cls-13" d="M24.45,96.27h-5.2v3.43h5.2Z"/><rect class="cls-13" x="47.34" y="96.26" width="5.2" height="3.43"/><rect class="cls-13" x="61.4" y="96.26" width="5.2" height="3.43"/><rect class="cls-13" x="54.37" y="96.26" width="5.2" height="3.43"/><rect class="cls-13" x="75.45" y="96.27" width="5.2" height="3.43"/><rect class="cls-13" x="68.42" y="96.27" width="5.2" height="3.43"/><rect class="cls-13" x="118.5" y="95.43" width="3.43" height="5.2" transform="translate(22.05 218.13) rotate(-89.93)"/><rect class="cls-13" x="103.56" y="96.3" width="5.2" height="3.43"/><rect class="cls-13" x="111.47" y="95.42" width="3.43" height="5.2" transform="translate(15.04 211.1) rotate(-89.94)"/><rect class="cls-13" x="96.53" y="96.29" width="5.2" height="3.43"/><rect class="cls-13" x="82.48" y="96.28" width="5.2" height="3.43"/><rect class="cls-13" x="89.5" y="96.28" width="5.2" height="3.43"/><polygon class="cls-13" points="125.49 95.39 125.49 96.32 124.56 96.32 124.56 99.75 128.92 99.75 128.92 95.39 125.49 95.39"/><polygon class="cls-13" points="128.92 95.39 128.92 91.04 124.56 91.04 124.56 94.47 125.49 94.47 125.49 95.39 128.92 95.39"/><rect class="cls-14" x="24.84" y="91.04" width="5.27" height="3.43"/><rect class="cls-14" x="31.96" y="91.04" width="5.27" height="3.43"/><rect class="cls-14" x="17.71" y="91.04" width="5.27" height="3.43"/><rect class="cls-14" x="60.45" y="91.04" width="5.27" height="3.43"/><rect class="cls-14" x="67.58" y="91.04" width="5.27" height="3.43"/><rect class="cls-14" x="39.08" y="91.04" width="5.27" height="3.43"/><rect class="cls-14" x="46.21" y="91.04" width="5.27" height="3.43"/><rect class="cls-14" x="53.33" y="91.04" width="5.27" height="3.43"/><rect class="cls-14" x="110.31" y="91.04" width="5.27" height="3.43"/><rect class="cls-14" x="103.19" y="91.04" width="5.27" height="3.43"/><rect class="cls-14" x="74.7" y="91.04" width="5.27" height="3.43"/><rect class="cls-14" x="117.44" y="91.04" width="5.27" height="3.43"/><rect class="cls-14" x="81.82" y="91.04" width="5.27" height="3.43"/><rect class="cls-14" x="96.07" y="91.04" width="5.27" height="3.43"/><rect class="cls-14" x="88.94" y="91.04" width="5.27" height="3.43"/><polygon class="cls-13" points="11.51 90.11 11.51 94.47 15.86 94.47 15.86 91.04 14.93 91.04 14.93 90.11 11.51 90.11"/><polygon class="cls-13" points="15.86 88.75 15.86 85.32 11.51 85.32 11.51 89.68 14.93 89.68 14.93 88.75 15.86 88.75"/><rect class="cls-15" x="25.01" y="85.32" width="5.38" height="3.43"/><rect class="cls-15" x="17.75" y="85.32" width="5.38" height="3.43"/><rect class="cls-15" x="39.54" y="85.32" width="5.38" height="3.43"/><rect class="cls-15" x="32.28" y="85.32" width="5.38" height="3.43"/><rect class="cls-15" x="46.8" y="85.32" width="5.38" height="3.43"/><rect class="cls-15" x="61.33" y="85.32" width="5.38" height="3.43"/><rect class="cls-15" x="54.07" y="85.32" width="5.38" height="3.43"/><rect class="cls-15" x="68.59" y="85.32" width="5.38" height="3.43"/><rect class="cls-15" x="112.18" y="85.32" width="5.37" height="3.43"/><rect class="cls-15" x="104.91" y="85.32" width="5.38" height="3.43"/><rect class="cls-15" x="119.44" y="85.32" width="5.37" height="3.43"/><rect class="cls-15" x="83.12" y="85.32" width="5.38" height="3.43"/><rect class="cls-15" x="75.86" y="85.32" width="5.37" height="3.43"/><rect class="cls-15" x="97.65" y="85.32" width="5.37" height="3.43"/><rect class="cls-15" x="90.39" y="85.32" width="5.38" height="3.43"/><rect class="cls-13" x="126.7" y="85.32" width="2.64" height="3.43"/><rect class="cls-13" x="11.36" y="99.82" width="107.7" height="45.14"/><rect class="cls-16" x="11.36" y="106.25" width="107.7" height="45.14"/><path class="cls-17" d="M41,107.57c0-.24-.5-.43-1.11-.43s-1.11.19-1.11.43.5.43,1.11.43S41,107.81,41,107.57Z"/><rect class="cls-18" x="11.36" y="111.75" width="107.7" height="45.14"/><path class="cls-19" d="M31.36,111.75v15.42H14.93v1.43H36.79V145H16.93v1.43H31.36v10.42h1.71V146.46H96.78v10.42h1.71V146.46h18.29V145h-8.86V128.6h6.86v-1.43H98.49V111.75H96.78v15.42H33.07V111.75ZM87.64,128.6h18.57V145H87.64Zm-49.14,0H85.92V145H38.5Z"/><path class="cls-20" d="M50.91,145.9c8.7-2.14,3.33-12.33,3.33-12.33l-11.85,2.5S42.2,148,50.91,145.9Z"/><path class="cls-21" d="M87,136.07l-11.85-2.5s-5.38,10.19,3.33,12.33S87,136.07,87,136.07Z"/><rect x="47.24" y="136.75" width="34.42" height="18.29"/><polygon class="cls-22" points="47.36 144.61 73.28 144.61 63.43 66.5 58.29 68.52 39.96 76.36 39.96 136.75 47.24 136.75 47.24 144.61 47.36 144.61"/><polygon points="65.78 90.62 65.51 79.38 63.66 67.91 61.16 67.39 58.29 68.52 55.55 69.69 52.23 77.56 56.89 78.67 53.16 81.83 65.78 90.62"/><polygon points="81.21 144.61 81.73 144.61 81.73 136.75 89.49 136.75 89.49 76.36 71.17 68.52 66.03 66.5 65.24 81.82 65.61 81.82 65.61 144.61 81.21 144.61"/><polygon class="cls-22" points="76.25 70.69 71.17 68.52 68.96 67.65 66.14 68.24 65.61 89.81 65.61 90.6 78.21 81.83 74.48 78.67 79.14 77.56 76.25 70.69"/><polygon class="cls-23" points="57.2 47.18 57.2 51.89 61.2 52.15 60.69 47.09 57.2 47.18"/><path class="cls-20" d="M60.34,55.84c1.18-.55,1.47-2.38.67-4.09s-2.4-2.65-3.58-2.09S56,52,56.77,53.75,59.17,56.39,60.34,55.84Z"/><path class="cls-21" d="M59,50.68a1.35,1.35,0,0,1,.77-.1,1.64,1.64,0,0,0-1.62-.26c-.89.42-1.12,1.82-.51,3.11a2.81,2.81,0,0,0,2,1.7,3.29,3.29,0,0,1-1.1-1.34C57.92,52.49,58.14,51.1,59,50.68Z"/><polygon class="cls-23" points="74.19 47.18 70.7 47.09 70.2 52.15 74.19 51.89 74.19 47.18"/><path class="cls-20" d="M75.07,53.75c.8-1.71.5-3.54-.67-4.09s-2.77.38-3.57,2.09-.51,3.54.66,4.09S74.27,55.45,75.07,53.75Z"/><path class="cls-21" d="M72.21,55.13a2.82,2.82,0,0,0,2-1.7c.61-1.29.38-2.69-.51-3.11a1.64,1.64,0,0,0-1.62.26,1.3,1.3,0,0,1,.76.1c.89.42,1.12,1.81.51,3.11A3.37,3.37,0,0,1,72.21,55.13Z"/><polygon class="cls-21" points="73.28 49.04 65.78 56.19 58.29 49.04 58.29 69.35 65.78 88 73.28 69.35 73.28 49.04"/><path class="cls-24" d="M65.82,65.18c4.14,0,7.52-4.72,7.52-8.86V38.83C73.34,34.69,70,33,65.82,33h0c-4.14,0-7.53,5.16-7.53,9.3v14c0,4.14,3.39,8.86,7.53,8.86Z"/><path class="cls-20" d="M73.34,56.32V38.83C73.34,34.69,70,33,65.82,33h-.14V65.18h.14C70,65.18,73.34,60.46,73.34,56.32Z"/><path class="cls-20" d="M73.34,45.16c-4.68.28-10.12.56-15.05.81v4a106.34,106.34,0,0,0,15.05.68Z"/><path class="cls-22" d="M74.43,38.83c0-4.14-3.9-5.79-8.66-5.79s-8.65,1.65-8.65,5.79v8c4.67.24,13.07.59,17.31.38Z"/><path d="M74.43,38.83c0-4.14-3.9-5.79-8.66-5.79h-.09V47.19c3.3.1,6.57.14,8.75,0Z"/><path class="cls-25" d="M62.16,48.39c2.29.12,4.41.18,6.39.18a47.19,47.19,0,0,0,12-1.2,1.1,1.1,0,0,0-.58-2.12c-9.2,2.5-28.21,0-28.4,0a1.1,1.1,0,1,0-.29,2.18C51.28,47.41,56.17,48.06,62.16,48.39Z"/><polygon class="cls-26" points="65.68 72.1 58.29 69.35 65.78 88 73.28 69.35 65.68 72.1"/><polygon class="cls-27" points="64.67 71.73 63.89 73.26 63.89 77.17 65.68 79.69 65.68 72.1 64.67 71.73"/><polygon class="cls-28" points="66.69 71.73 65.68 72.1 65.68 79.69 67.47 77.17 67.47 73.26 66.69 71.73"/><polygon class="cls-29" points="73.28 69.35 65.68 72.1 68.21 77.17 71.28 74.3 73.28 69.35"/><polygon class="cls-29" points="65.68 72.1 58.29 69.35 60.23 74.18 63.09 77.17 65.68 72.1"/><polygon class="cls-27" points="64.08 79.43 63.43 82.14 65.75 87.91 65.68 78.27 64.08 79.43"/><polygon class="cls-28" points="67.26 79.43 65.7 78.3 65.61 87.56 65.78 88 68 82.49 67.26 79.43"/><path class="cls-22" d="M68.54,96.14a1.07,1.07,0,1,0-1.07,1.07A1.06,1.06,0,0,0,68.54,96.14Z"/><path class="cls-22" d="M68.54,106.6a1.07,1.07,0,1,0-2.13,0,1.07,1.07,0,0,0,2.13,0Z"/><path class="cls-22" d="M68.54,119a1.07,1.07,0,1,0-1.07,1.07A1.07,1.07,0,0,0,68.54,119Z"/><polygon class="cls-19" points="37.94 106.25 36.14 106.25 31.36 111.75 32 113.75 33.07 111.75 37.94 106.25"/><polygon class="cls-19" points="94.22 106.25 92.65 106.25 96.78 111.75 98.49 111.75 94.22 106.25"/><path class="cls-19" d="M100.21,142.36a.72.72,0,1,0-.72.72A.71.71,0,0,0,100.21,142.36Z"/><path class="cls-19" d="M102.4,139.08a1.53,1.53,0,1,0-3.05,0,1.53,1.53,0,0,0,3.05,0Z"/><path class="cls-19" d="M103.35,141.46a.48.48,0,1,0-.95,0,.48.48,0,0,0,.95,0Z"/><path class="cls-19" d="M101.16,124.79a.86.86,0,1,0-.86.86A.85.85,0,0,0,101.16,124.79Z"/><path class="cls-19" d="M102.21,118.56a1.39,1.39,0,1,0-1.38,1.38A1.38,1.38,0,0,0,102.21,118.56Z"/><path class="cls-19" d="M104,121a.91.91,0,1,0-.91.91A.9.9,0,0,0,104,121Z"/><path class="cls-19" d="M90.59,141.79a.91.91,0,1,0-.91.91A.9.9,0,0,0,90.59,141.79Z"/><path class="cls-19" d="M95.16,149.79a1.29,1.29,0,1,0-1.29,1.29A1.28,1.28,0,0,0,95.16,149.79Z"/><path class="cls-19" d="M24.12,141.55a1.33,1.33,0,1,0-1.33,1.34A1.33,1.33,0,0,0,24.12,141.55Z"/><path class="cls-19" d="M26.12,138.93A1.1,1.1,0,1,0,25,140,1.09,1.09,0,0,0,26.12,138.93Z"/><path class="cls-19" d="M35.55,125.37a.76.76,0,1,0-.76.76A.76.76,0,0,0,35.55,125.37Z"/><path class="cls-19" d="M35.45,123.22a.33.33,0,1,0-.33.34A.33.33,0,0,0,35.45,123.22Z"/><path class="cls-19" d="M34.5,131a.43.43,0,0,0-.43-.43.43.43,0,0,0,0,.86A.43.43,0,0,0,34.5,131Z"/><path class="cls-19" d="M33.74,140.08a.81.81,0,1,0-.81.81A.81.81,0,0,0,33.74,140.08Z"/><path class="cls-19" d="M24.41,131.27a.57.57,0,0,0-.57-.57.56.56,0,0,0-.57.57.57.57,0,0,0,.57.57A.58.58,0,0,0,24.41,131.27Z"/><path class="cls-19" d="M26.41,141.13a.34.34,0,1,0-.67,0,.34.34,0,0,0,.67,0Z"/><path class="cls-19" d="M27.46,123A1.43,1.43,0,1,0,26,124.41,1.43,1.43,0,0,0,27.46,123Z"/><path class="cls-19" d="M27.46,125.13a.72.72,0,1,0-.72.71A.72.72,0,0,0,27.46,125.13Z"/><path class="cls-19" d="M30.41,124.46a.52.52,0,0,0-.53-.52.52.52,0,0,0,0,1A.52.52,0,0,0,30.41,124.46Z"/><path class="cls-19" d="M29.17,115.18a.67.67,0,0,0-.67-.67.67.67,0,1,0,.67.67Z"/><path class="cls-19" d="M36.69,150.27a1.48,1.48,0,1,0-1.47,1.47A1.47,1.47,0,0,0,36.69,150.27Z"/><path class="cls-19" d="M96.68,121.41a.72.72,0,1,0-.71.72A.71.71,0,0,0,96.68,121.41Z"/><path class="cls-19" d="M94.49,125.41a.72.72,0,1,0-.71.72A.71.71,0,0,0,94.49,125.41Z"/><path class="cls-19" d="M93.83,122.56a.62.62,0,0,0-1.24,0,.62.62,0,1,0,1.24,0Z"/><circle class="cls-19" cx="104.63" cy="125.89" r="0.52"/><path class="cls-17" d="M26.07,110.11c0-.24-.49-.43-1.1-.43s-1.11.19-1.11.43.5.42,1.11.42S26.07,110.34,26.07,110.11Z"/><path class="cls-17" d="M27.79,108.75c0-.24-.5-.43-1.11-.43s-1.11.19-1.11.43.5.43,1.11.43S27.79,109,27.79,108.75Z"/><path class="cls-17" d="M36.36,110.75c0-.16-.33-.28-.73-.28s-.74.12-.74.28.33.28.74.28S36.36,110.91,36.36,110.75Z"/><path class="cls-17" d="M37.93,110.07c0-.15-.33-.28-.73-.28s-.73.13-.73.28.32.29.73.29S37.93,110.23,37.93,110.07Z"/><path class="cls-17" d="M29,110.54c0-.16-.33-.29-.73-.29s-.73.13-.73.29.33.28.73.28S29,110.69,29,110.54Z"/><path class="cls-17" d="M93.6,108.82c0-.24-.5-.43-1.11-.43s-1.1.19-1.1.43.49.43,1.1.43S93.6,109.06,93.6,108.82Z"/><path class="cls-17" d="M94.81,110.61c0-.16-.32-.29-.73-.29s-.73.13-.73.29.33.28.73.28S94.81,110.76,94.81,110.61Z"/><path class="cls-17" d="M102.31,108.82c0-.24-.49-.43-1.1-.43s-1.11.19-1.11.43.5.43,1.11.43S102.31,109.06,102.31,108.82Z"/><path class="cls-17" d="M101.38,110.39c0-.15-.32-.28-.73-.28s-.73.13-.73.28.33.29.73.29S101.38,110.55,101.38,110.39Z"/><path class="cls-17" d="M105.24,108.82c0-.15-.33-.28-.73-.28s-.73.13-.73.28.33.29.73.29S105.24,109,105.24,108.82Z"/><path class="cls-17" d="M97.6,107c0-.16-.33-.29-.73-.29s-.73.13-.73.29.32.28.73.28S97.6,107.12,97.6,107Z"/><polygon class="cls-30" points="65.74 45.36 65.74 50.99 66.44 52.96 66.44 45.36 65.74 45.36"/><path class="cls-31" d="M66.05,62.46c4,0,7.35-3.86,7.57-8.73a5.84,5.84,0,0,0,0-.73,5.08,5.08,0,0,0-.23-1.52,3.42,3.42,0,0,0-.26-.64,4.27,4.27,0,0,0-3.82-2.52A4.17,4.17,0,0,0,66.07,50a4.17,4.17,0,0,0-3.29-1.65,4.23,4.23,0,0,0-3.67,2.23,3.37,3.37,0,0,0-.61,1.89,5.25,5.25,0,0,0,0,.56v.23C58.47,58.33,61.86,62.46,66.05,62.46Z"/><path class="cls-32" d="M64.8,62.33a5.7,5.7,0,0,0,1.25.13c4,0,7.35-3.86,7.57-8.73a5.84,5.84,0,0,0,0-.73,5.08,5.08,0,0,0-.23-1.52,3.42,3.42,0,0,0-.26-.64,4.27,4.27,0,0,0-3.82-2.52,4.05,4.05,0,0,0-1.26.2,4.46,4.46,0,0,1,2.58,2.32,3.41,3.41,0,0,1,.25.64A5.08,5.08,0,0,1,71.16,53a4.4,4.4,0,0,1,0,.73C70.92,58.08,68.25,61.63,64.8,62.33Z"/><path class="cls-33" d="M66.26,45.57l0-.07s-.84-1.47-3.94-.7a3.53,3.53,0,0,0-2.91,3.55C64.64,48.87,66.05,46.08,66.26,45.57Z"/><path class="cls-33" d="M66.43,45.35s-.15-1.31-2.15-2.3-2.73-.59-3.24-1.17a2.54,2.54,0,0,0,2,3.1C65.67,45.7,66.43,45.35,66.43,45.35Z"/><path class="cls-32" d="M64.28,43.05c-2-1-2.73-.59-3.24-1.17a7.44,7.44,0,0,0,5.22,3A4.13,4.13,0,0,0,64.28,43.05Z"/><path class="cls-33" d="M71.45,42.44c-.62.88-3.64-.35-4.74.27s-.83,2.19-.83,2.19l.16.48C71.77,45.78,71.45,42.44,71.45,42.44Z"/><path class="cls-32" d="M71.45,42.47c-.25.44-.86,1-2.32,1a4.82,4.82,0,0,0-3.27,1.28c0,.09,0,.14,0,.14l.16.48C71.45,45.76,71.46,42.79,71.45,42.47Z"/><path class="cls-34" d="M62.87,52.7a1.63,1.63,0,1,0-3-.8,1.63,1.63,0,1,0,3,.8Z"/><path class="cls-32" d="M66.26,45.57l0-.07A1.48,1.48,0,0,0,65.8,45a12.7,12.7,0,0,0-6.36,3.32C64.64,48.87,66.05,46.08,66.26,45.57Z"/><path class="cls-33" d="M73.37,48.78a4.77,4.77,0,0,0-2.59-4.07,4.3,4.3,0,0,0-4.6.51,3.69,3.69,0,0,0,2.72,3A22.05,22.05,0,0,0,73.37,48.78Z"/><path class="cls-32" d="M73.17,48.78h.2a4.77,4.77,0,0,0-2.59-4.07,4.27,4.27,0,0,0-4.2.22C68.87,45.74,72.3,47.17,73.17,48.78Z"/></g><path class="cls-4" d="M117.75,17.33H15.15V152.86h102.6Zm-12,123.57H27.11V29.29h78.68Z"/><path class="cls-35" d="M113.07,23.51H19.83V146.68h93.24ZM105.79,140.9H27.11V29.29h78.68Z"/><path class="cls-3" d="M115,20.1h-97v130h97Zm-6.4,123.58H24.33V26.51h84.24Z"/><rect class="cls-36" x="50" y="169.46" width="32.9" height="14.25"/><rect class="cls-37" x="54.85" y="173.71" width="23.3" height="3.34"/><rect class="cls-38" x="54.85" y="172.84" width="23.3" height="3.34"/><rect class="cls-37" x="54.85" y="178.26" width="10.33" height="1.16"/><rect class="cls-38" x="54.85" y="177.96" width="10.33" height="1.16"/><rect class="cls-37" x="65.9" y="178.26" width="10.33" height="1.16"/><rect class="cls-38" x="65.9" y="177.96" width="10.33" height="1.16"/><rect class="cls-37" x="58.91" y="180.18" width="5.89" height="1.16"/><rect class="cls-38" x="58.91" y="179.87" width="5.89" height="1.16"/><rect class="cls-37" x="65.58" y="180.18" width="5.89" height="1.16"/><rect class="cls-38" x="65.58" y="179.87" width="5.89" height="1.16"/><rect class="cls-37" x="72.12" y="180.18" width="2.15" height="1.16"/><rect class="cls-38" x="72.12" y="179.87" width="2.15" height="1.16"/><path class="cls-38" d="M52,171a.59.59,0,0,0-.6-.59.58.58,0,0,0-.59.59.59.59,0,0,0,.59.6A.6.6,0,0,0,52,171Z"/><path class="cls-38" d="M52,182a.6.6,0,0,0-.6-.6.6.6,0,0,0,0,1.19A.6.6,0,0,0,52,182Z"/><path class="cls-38" d="M81.89,171a.58.58,0,0,0-.59-.59.59.59,0,0,0-.6.59.6.6,0,0,0,.6.6A.59.59,0,0,0,81.89,171Z"/><path class="cls-38" d="M81.89,182a.59.59,0,0,0-.59-.6.6.6,0,1,0,0,1.19A.59.59,0,0,0,81.89,182Z"/></g></g></g></svg>