<svg xmlns="http://www.w3.org/2000/svg" xmlns:xlink="http://www.w3.org/1999/xlink" viewBox="0 0 141.29 146.15"><defs><style>.cls-1{fill:none;}.cls-2{fill:#aa634d;}.cls-3{fill:#723a26;}.cls-4{clip-path:url(#clip-path);}.cls-5{fill:#62b7b1;}.cls-6{fill:#72c1b9;}.cls-7{fill:#60b2a8;}.cls-8{fill:#8cbfb7;}.cls-9{fill:#68aa9d;}.cls-10{fill:#8abcb2;}.cls-11{fill:#6fa399;}.cls-12{fill:#6b7777;}.cls-13{fill:#3d4b4c;}.cls-14{fill:#2d3a3a;}.cls-15{fill:#af7d46;}.cls-16{fill:#994b2e;}.cls-17{fill:#c56824;}.cls-18{fill:#e3be84;}.cls-19{fill:#ca9c61;}.cls-20{fill:#d28182;}.cls-21{fill:#b12f1f;}.cls-22{fill:#d1a471;}.cls-23{fill:#cf8f72;}.cls-24{fill:#4b4641;}.cls-25{fill:#2e6262;}.cls-26{fill:#3c7776;}.cls-27{fill:#010002;}.cls-28{fill:#b25c1a;}.cls-29{fill:#7f552a;}.cls-30{fill:#fff;}.cls-31{fill:#9aadae;}.cls-32{fill:#bfd7d8;}.cls-33{fill:#5a6363;}.cls-34{fill:#dfe9ea;}.cls-35{fill:#4d6060;}.cls-36{fill:#35605f;}.cls-37{fill:#3e706d;}.cls-38{fill:#4d7775;}.cls-39{fill:#354948;}.cls-40{fill:#0d1414;}.cls-41{fill:#875641;}.cls-42{fill:#efe7d3;}.cls-43{fill:#937f2e;}.cls-44{fill:#776826;}.cls-45{fill:#af9b48;}</style><clipPath id="clip-path"><rect class="cls-1" x="19.03" y="17.37" width="84.56" height="96.11" transform="translate(122.62 130.85) rotate(180)"/></clipPath></defs><title>cuadros_pared_Recurso 33</title><g id="Capa_2" data-name="Capa 2"><g id="Capa_1-2" data-name="Capa 1"><g id="Silencio"><rect class="cls-2" x="6.69" y="6.34" width="110" height="114.31"/><rect class="cls-3" x="8.81" y="8.61" width="105.76" height="109.76"/><g class="cls-4"><rect class="cls-5" x="3.7" width="137.59" height="143.38"/><path class="cls-6" d="M91.56,41.87,88,45a34.52,34.52,0,0,1,2.92,3.88l4-2.55A38.83,38.83,0,0,0,91.56,41.87Z"/><path class="cls-6" d="M95.79,47.77l-4.07,2.37a33.91,33.91,0,0,1,2.13,4.37l4.37-1.76A37.55,37.55,0,0,0,95.79,47.77Z"/><path class="cls-6" d="M90.4,40.59a39.09,39.09,0,0,0-4.1-3.72l-2.91,3.71A34.82,34.82,0,0,1,87,43.85Z"/><path class="cls-6" d="M80.19,33,78,37.15a34.46,34.46,0,0,1,4.14,2.53l2.74-3.84A38,38,0,0,0,80.19,33Z"/><path class="cls-6" d="M66.31,28.92l-.43,4.69a33.72,33.72,0,0,1,4.79.8l1.1-4.58A38.4,38.4,0,0,0,66.31,28.92Z"/><path class="cls-6" d="M73.45,30.27,72.13,34.8a33.59,33.59,0,0,1,4.55,1.69l2-4.28A39.08,39.08,0,0,0,73.45,30.27Z"/><path class="cls-6" d="M98.83,54.38l-4.45,1.55a33,33,0,0,1,1.26,4.68l4.63-.88A38.05,38.05,0,0,0,98.83,54.38Z"/><path class="cls-6" d="M96.2,68.53a33.9,33.9,0,0,1-.57,4.82l4.62.89a38.78,38.78,0,0,0,.66-5.5Z"/><path class="cls-6" d="M75.23,98a33.58,33.58,0,0,1-4.62,1.48l1.1,4.58A37.71,37.71,0,0,0,77,102.4Z"/><path class="cls-6" d="M69.13,99.83a35.23,35.23,0,0,1-4.82.57l.21,4.7a37.37,37.37,0,0,0,5.5-.65Z"/><path class="cls-6" d="M85.89,91.16a34.78,34.78,0,0,1-3.75,3.09l2.74,3.84a37.82,37.82,0,0,0,4.26-3.53Z"/><path class="cls-6" d="M101,67V67a37.66,37.66,0,0,0-.4-5.52l-4.66.68A33.94,33.94,0,0,1,96.24,67V67Z"/><path class="cls-6" d="M80.89,95.1a33.2,33.2,0,0,1-4.26,2.33l2,4.29a37.54,37.54,0,0,0,4.86-2.66Z"/><path class="cls-6" d="M90.05,86.34A32.56,32.56,0,0,1,87,90.09l3.41,3.25a38.64,38.64,0,0,0,3.52-4.26Z"/><path class="cls-6" d="M95.31,74.83a34,34,0,0,1-1.48,4.62l4.37,1.76a37.71,37.71,0,0,0,1.69-5.28Z"/><path class="cls-6" d="M93.23,80.84a33.76,33.76,0,0,1-2.33,4.25l4,2.56a37.54,37.54,0,0,0,2.66-4.86Z"/><path class="cls-6" d="M30.61,76.36l-4.52,1.32A38.57,38.57,0,0,0,28,82.87l4.28-2A34.37,34.37,0,0,1,30.61,76.36Z"/><path class="cls-6" d="M43.67,33.86A39.24,39.24,0,0,0,39.09,37L42,40.67a34.23,34.23,0,0,1,4-2.73Z"/><path class="cls-6" d="M40.84,41.64l-3.08-3.56A38,38,0,0,0,33.85,42l3.56,3.08A33.66,33.66,0,0,1,40.84,41.64Z"/><path class="cls-6" d="M51.77,98.59,50.22,103a39.43,39.43,0,0,0,5.35,1.43l.88-4.63A33,33,0,0,1,51.77,98.59Z"/><path class="cls-6" d="M50.28,30.84A38.07,38.07,0,0,0,45.19,33l2.17,4.18a33.06,33.06,0,0,1,4.46-1.91Z"/><path class="cls-6" d="M32.75,43.32a38.53,38.53,0,0,0-3.11,4.59l4.09,2.35a33,33,0,0,1,2.72-4Z"/><path class="cls-6" d="M64.37,33.51l.22-4.71c-.61,0-1.22,0-1.83,0-1.24,0-2.48.06-3.7.18l.45,4.69a31.86,31.86,0,0,1,3.25-.16C63.29,33.47,63.83,33.48,64.37,33.51Z"/><path class="cls-6" d="M28.82,49.42a36.77,36.77,0,0,0-2.18,5.09l4.45,1.54A33.81,33.81,0,0,1,33,51.59Z"/><path class="cls-6" d="M26.11,56.16a38.46,38.46,0,0,0-1.17,5.42l4.67.65a33.34,33.34,0,0,1,1-4.74Z"/><path class="cls-6" d="M24.74,63.29c-.12,1.21-.18,2.44-.18,3.66,0,.62,0,1.25.05,1.87l4.71-.22c0-.55,0-1.1,0-1.65,0-1.07,0-2.15.15-3.21Z"/><path class="cls-6" d="M57.34,29.14a37,37,0,0,0-5.41,1.18l1.33,4.52a33.39,33.39,0,0,1,4.74-1Z"/><path class="cls-6" d="M62.79,100.43h0a33.52,33.52,0,0,1-4.81-.34l-.67,4.66a38.42,38.42,0,0,0,5.48.39h0Z"/><path class="cls-6" d="M29.42,70.11l-4.69.44A38.88,38.88,0,0,0,25.64,76l4.58-1.12A33.35,33.35,0,0,1,29.42,70.11Z"/><path class="cls-6" d="M46,95.94,43.62,100a37.49,37.49,0,0,0,5,2.42l1.75-4.37A33.11,33.11,0,0,1,46,95.94Z"/><path class="cls-6" d="M40.81,92.24l-3.09,3.55a37.61,37.61,0,0,0,4.43,3.32l2.54-4A34.13,34.13,0,0,1,40.81,92.24Z"/><path class="cls-6" d="M39.69,91.22a34.82,34.82,0,0,1-3.27-3.6l-3.7,2.92a38.89,38.89,0,0,0,3.72,4.09Z"/><path class="cls-6" d="M33,82.27l-4.19,2.16a37.51,37.51,0,0,0,2.89,4.72l3.83-2.74A33.69,33.69,0,0,1,33,82.27Z"/><path class="cls-7" d="M105.78,56.26l-4.57,1.13a38.87,38.87,0,0,1,.89,4.91l4.68-.55A42.4,42.4,0,0,0,105.78,56.26Z"/><path class="cls-7" d="M95.49,37.07,92,40.24a41.61,41.61,0,0,1,3.13,3.89L99,41.42A44.4,44.4,0,0,0,95.49,37.07Z"/><path class="cls-7" d="M90.13,32.09l-2.91,3.7a40.44,40.44,0,0,1,3.72,3.32l3.35-3.31A43,43,0,0,0,90.13,32.09Z"/><path class="cls-7" d="M103.43,49.31l-4.32,1.88a39.14,39.14,0,0,1,1.69,4.69l4.53-1.31A45.24,45.24,0,0,0,103.43,49.31Z"/><path class="cls-7" d="M100,42.86l-4,2.56a39.66,39.66,0,0,1,2.45,4.35l4.24-2A43.89,43.89,0,0,0,100,42.86Z"/><path class="cls-7" d="M68.53,23c-1.21-.16-2.44-.27-3.66-.32-.63,0-1.28-.05-1.91-.05l0,4.71c.56,0,1.14,0,1.7,0,1.1.06,2.2.15,3.28.29Z"/><path class="cls-7" d="M70.25,23.26l-.79,4.65a38,38,0,0,1,4.85,1.14l1.38-4.51A44.28,44.28,0,0,0,70.25,23.26Z"/><path class="cls-7" d="M77.34,25.08l-1.55,4.45a39.59,39.59,0,0,1,4.6,1.94l2.1-4.22A43.84,43.84,0,0,0,77.34,25.08Z"/><path class="cls-7" d="M84,28.05l-2.26,4.14A39.23,39.23,0,0,1,86,34.85L88.75,31A44.67,44.67,0,0,0,84,28.05Z"/><path class="cls-7" d="M81.43,101.89A38.68,38.68,0,0,1,76.89,104l1.68,4.4a43.07,43.07,0,0,0,5.08-2.32Z"/><path class="cls-7" d="M75.42,104.5a39.8,39.8,0,0,1-4.82,1.29l.93,4.62a43.89,43.89,0,0,0,5.4-1.45Z"/><path class="cls-7" d="M86.92,98.34a39.84,39.84,0,0,1-4.13,2.79l2.38,4.07a43.7,43.7,0,0,0,4.63-3.13Z"/><path class="cls-7" d="M102.32,68.89l4.71.23v-.06c0-.71,0-1.43,0-2.14,0-1.15,0-2.3-.13-3.44l-4.7.37c.08,1,.12,2.05.12,3.07,0,.63,0,1.28-.05,1.92Z"/><path class="cls-7" d="M95.21,97.14l-3.45-3.21a39.06,39.06,0,0,1-3.62,3.43l3,3.62A44.52,44.52,0,0,0,95.21,97.14Z"/><path class="cls-7" d="M99,83.07a40.24,40.24,0,0,1-2.32,4.41l4,2.45A44.66,44.66,0,0,0,103.26,85Z"/><path class="cls-7" d="M101.11,76.9a39,39,0,0,1-1.55,4.73l4.38,1.75a44.48,44.48,0,0,0,1.73-5.31Z"/><path class="cls-7" d="M95.81,88.8a39.82,39.82,0,0,1-3,4l3.57,3.08a45.21,45.21,0,0,0,3.37-4.45Z"/><path class="cls-7" d="M102.22,70.45a41,41,0,0,1-.75,4.93l4.6,1a42.76,42.76,0,0,0,.84-5.52Z"/><path class="cls-7" d="M69.07,106.07a39.09,39.09,0,0,1-5,.47l.15,4.71a44.9,44.9,0,0,0,5.56-.53Z"/><path class="cls-7" d="M29.12,38.08a44,44,0,0,0-3.36,4.45l3.93,2.6a38.48,38.48,0,0,1,3-4Z"/><path class="cls-7" d="M45.1,102.42,43,106.64a43.7,43.7,0,0,0,5.14,2.17l1.55-4.45A40.19,40.19,0,0,1,45.1,102.42Z"/><path class="cls-7" d="M37.35,36.56l-3-3.62a45.87,45.87,0,0,0-4,3.84L33.73,40A40.44,40.44,0,0,1,37.35,36.56Z"/><path class="cls-7" d="M46.91,25.54a45.63,45.63,0,0,0-5.08,2.33L44.06,32a42.24,42.24,0,0,1,4.54-2.08Z"/><path class="cls-7" d="M40.31,28.72a44.62,44.62,0,0,0-4.62,3.13l2.88,3.73a39.93,39.93,0,0,1,4.13-2.8Z"/><path class="cls-7" d="M23.19,65l-4.71-.23v0c0,.71-.05,1.43-.05,2.14,0,1.14,0,2.28.13,3.41l4.7-.36c-.08-1-.12-2-.12-3,0-.63,0-1.28.05-1.92Z"/><path class="cls-7" d="M61.22,22.65a42.91,42.91,0,0,0-5.55.54l.75,4.65a41,41,0,0,1,5-.48Z"/><path class="cls-7" d="M21.57,50.55a44.53,44.53,0,0,0-1.74,5.31L24.4,57a39.7,39.7,0,0,1,1.54-4.74Z"/><path class="cls-7" d="M24.83,44a46.43,46.43,0,0,0-2.59,4.94l4.31,1.92a39.51,39.51,0,0,1,2.31-4.42Z"/><path class="cls-7" d="M19.43,57.55a44.55,44.55,0,0,0-.83,5.52l4.7.41A38.55,38.55,0,0,1,24,58.55Z"/><path class="cls-7" d="M24.7,78,20.18,79.3a42.22,42.22,0,0,0,1.89,5.26l4.32-1.87A39.92,39.92,0,0,1,24.7,78Z"/><path class="cls-7" d="M51.17,104.84l-1.37,4.51a45.6,45.6,0,0,0,5.43,1.29L56,106A38.55,38.55,0,0,1,51.17,104.84Z"/><path class="cls-7" d="M54,23.5A45.58,45.58,0,0,0,48.56,25l1.51,4.46a40.14,40.14,0,0,1,4.81-1.29Z"/><path class="cls-7" d="M62.55,106.56c-.56,0-1.12,0-1.68,0-1.1,0-2.21-.15-3.3-.3L57,110.9c1.22.16,2.46.27,3.7.33.62,0,1.25,0,1.87,0Z"/><path class="cls-7" d="M23.41,71.58l-4.68.54a44.3,44.3,0,0,0,1,5.5l4.58-1.14A38.39,38.39,0,0,1,23.41,71.58Z"/><path class="cls-7" d="M39.51,99l-2.77,3.82a44.59,44.59,0,0,0,4.72,3l2.26-4.13A38.75,38.75,0,0,1,39.51,99Z"/><path class="cls-7" d="M30.36,89.75l-3.85,2.71A42.87,42.87,0,0,0,30,96.81l3.48-3.17A40,40,0,0,1,30.36,89.75Z"/><path class="cls-7" d="M34.55,94.77,31.2,98.08a44.53,44.53,0,0,0,4.16,3.72l2.91-3.71A40.28,40.28,0,0,1,34.55,94.77Z"/><path class="cls-7" d="M27,84.1,22.8,86.15A43.89,43.89,0,0,0,25.53,91l4-2.56A38.89,38.89,0,0,1,27,84.1Z"/><path class="cls-8" d="M103.48,37.11l-3.8,2.79a45.87,45.87,0,0,1,2.72,4.17l4.08-2.36A49.69,49.69,0,0,0,103.48,37.11Z"/><path class="cls-8" d="M98.82,31.62l-3.37,3.3a46.79,46.79,0,0,1,3.29,3.74l3.7-2.91A50.93,50.93,0,0,0,98.82,31.62Z"/><path class="cls-8" d="M107.31,43.21l-4.15,2.22a45,45,0,0,1,2.1,4.51l4.37-1.75A47.9,47.9,0,0,0,107.31,43.21Z"/><path class="cls-8" d="M110.25,49.79l-4.43,1.6a46.68,46.68,0,0,1,1.43,4.77l4.58-1.11A51.24,51.24,0,0,0,110.25,49.79Z"/><path class="cls-8" d="M66.89,16.64l-.38,4.69a47.89,47.89,0,0,1,4.93.68l.89-4.63A52.28,52.28,0,0,0,66.89,16.64Z"/><path class="cls-8" d="M112.2,56.73l-4.61,1a47.85,47.85,0,0,1,.74,4.92l4.69-.44A49.38,49.38,0,0,0,112.2,56.73Z"/><path class="cls-8" d="M72,111.79a45.44,45.44,0,0,1-4.93.74l.44,4.69a49.36,49.36,0,0,0,5.43-.81Z"/><path class="cls-8" d="M87.41,22.89,85.11,27a43.79,43.79,0,0,1,4.2,2.67l2.74-3.84A51.06,51.06,0,0,0,87.41,22.89Z"/><path class="cls-8" d="M74,17.73,73,22.32a46,46,0,0,1,4.79,1.37l1.54-4.45A51.22,51.22,0,0,0,74,17.73Z"/><path class="cls-8" d="M80.9,19.83l-1.69,4.4a44.9,44.9,0,0,1,4.54,2l2.16-4.18A48.82,48.82,0,0,0,80.9,19.83Z"/><path class="cls-8" d="M99.09,94.8a46.6,46.6,0,0,1-3.25,3.78l3.41,3.26a50.64,50.64,0,0,0,3.57-4.17Z"/><path class="cls-8" d="M108.37,70.76a47.89,47.89,0,0,1-.68,4.93l4.63.89a54.33,54.33,0,0,0,.75-5.44Z"/><path class="cls-8" d="M78.26,110a46.68,46.68,0,0,1-4.77,1.43l1.1,4.58a50.68,50.68,0,0,0,5.27-1.58Z"/><path class="cls-8" d="M108.47,69.2l4.71.24v-.08c0-.82.06-1.64.06-2.45,0-1,0-2-.09-3l-4.7.28c0,.91.08,1.84.08,2.76q0,1.11-.06,2.22Z"/><path class="cls-8" d="M84.23,107.38a47.29,47.29,0,0,1-4.51,2.1l1.74,4.37a50.14,50.14,0,0,0,5-2.31Z"/><path class="cls-8" d="M94.75,99.68A45.25,45.25,0,0,1,91,103l2.91,3.7A47.33,47.33,0,0,0,98,103.05Z"/><path class="cls-8" d="M89.77,103.9a44,44,0,0,1-4.18,2.72L88,110.71a51.83,51.83,0,0,0,4.6-3Z"/><path class="cls-8" d="M107.37,77.21A46.55,46.55,0,0,1,106,82l4.45,1.55A48.19,48.19,0,0,0,112,78.26Z"/><path class="cls-8" d="M105.46,83.45a45,45,0,0,1-2,4.54l4.18,2.17a51.16,51.16,0,0,0,2.26-5Z"/><path class="cls-8" d="M102.68,89.35a45.84,45.84,0,0,1-2.67,4.2l3.83,2.74a49.66,49.66,0,0,0,3-4.63Z"/><path class="cls-8" d="M65.78,117.35l-.28-4.71c-.89.06-1.8.08-2.7.08-.74,0-1.49,0-2.22,0h-.06l-.23,4.7h.06c.81,0,1.64.05,2.45.05C63.79,117.43,64.79,117.4,65.78,117.35Z"/><path class="cls-8" d="M93.43,26.85l-2.87,3.74a43.07,43.07,0,0,1,3.78,3.24l3.26-3.41A52.36,52.36,0,0,0,93.43,26.85Z"/><path class="cls-8" d="M31.57,27.26a48.84,48.84,0,0,0-4.13,3.62l3.3,3.37A44.89,44.89,0,0,1,34.48,31Z"/><path class="cls-8" d="M37.53,23.22a51.06,51.06,0,0,0-4.6,3L35.72,30a43.83,43.83,0,0,1,4.17-2.72Z"/><path class="cls-8" d="M50.88,17.87a50.51,50.51,0,0,0-5.26,1.58l1.6,4.44A43.67,43.67,0,0,1,52,22.45Z"/><path class="cls-8" d="M44,20.07a48.8,48.8,0,0,0-5,2.31l2.22,4.16a45,45,0,0,1,4.51-2.1Z"/><path class="cls-8" d="M26.24,32.1a50.64,50.64,0,0,0-3.57,4.17l3.74,2.86a44.58,44.58,0,0,1,3.24-3.78Z"/><path class="cls-8" d="M15.05,50.4a50.51,50.51,0,0,0-1.51,5.28l4.6,1a43.64,43.64,0,0,1,1.36-4.79Z"/><path class="cls-8" d="M17,64.73l-4.71-.23v0c0,.81-.06,1.63-.06,2.44,0,1,0,2,.09,3l4.71-.28C17,68.81,17,67.9,17,67c0-.74,0-1.48.05-2.22Z"/><path class="cls-8" d="M21.65,37.64a53.45,53.45,0,0,0-2.95,4.64l4.11,2.3a47.25,47.25,0,0,1,2.67-4.2Z"/><path class="cls-8" d="M13.19,57.36a51.56,51.56,0,0,0-.74,5.44l4.69.38a45.29,45.29,0,0,1,.68-4.93Z"/><path class="cls-8" d="M47.73,110.2l-1.54,4.45a48.19,48.19,0,0,0,5.28,1.51l1.05-4.59A46,46,0,0,1,47.73,110.2Z"/><path class="cls-8" d="M17.89,43.78a51.08,51.08,0,0,0-2.25,5L20,50.48a45,45,0,0,1,2-4.54Z"/><path class="cls-8" d="M54,111.89l-.9,4.63a52.28,52.28,0,0,0,5.44.74l.39-4.7A45.27,45.27,0,0,1,54,111.89Z"/><path class="cls-8" d="M18.26,77.7l-4.59,1.11a51.24,51.24,0,0,0,1.58,5.26l4.44-1.6A41.53,41.53,0,0,1,18.26,77.7Z"/><path class="cls-8" d="M17.18,71.26l-4.69.44a49.36,49.36,0,0,0,.81,5.43l4.62-.94A45.44,45.44,0,0,1,17.18,71.26Z"/><path class="cls-8" d="M64.94,21.23h0l.24-4.7h0c-.81,0-1.63-.06-2.44-.06q-1.52,0-3,.09l.28,4.7c.91-.05,1.84-.08,2.75-.08C63.45,21.18,64.2,21.2,64.94,21.23Z"/><path class="cls-8" d="M41.73,107.62l-2.16,4.18a50.11,50.11,0,0,0,5,2.26l1.69-4.4A45,45,0,0,1,41.73,107.62Z"/><path class="cls-8" d="M20.24,83.93l-4.38,1.75a51.12,51.12,0,0,0,2.32,5l4.16-2.22A45,45,0,0,1,20.24,83.93Z"/><path class="cls-8" d="M58,16.69a49.9,49.9,0,0,0-5.44.81l1,4.61a48,48,0,0,1,4.93-.73Z"/><path class="cls-8" d="M23.09,89.8,19,92.16a49.69,49.69,0,0,0,3,4.6L25.81,94A48.1,48.1,0,0,1,23.09,89.8Z"/><path class="cls-8" d="M31.14,100.05l-3.25,3.41A52.21,52.21,0,0,0,32.05,107l2.87-3.74A48.55,48.55,0,0,1,31.14,100.05Z"/><path class="cls-8" d="M36.17,104.21l-2.74,3.84A49.56,49.56,0,0,0,38.06,111l2.31-4.11A43.09,43.09,0,0,1,36.17,104.21Z"/><path class="cls-8" d="M26.75,95.21l-3.7,2.91a49.06,49.06,0,0,0,3.62,4.13L30,99A48.75,48.75,0,0,1,26.75,95.21Z"/><path class="cls-9" d="M104.67,29.05l-3.5,3.17a51.06,51.06,0,0,1,3.76,4.66l3.83-2.74A57.28,57.28,0,0,0,104.67,29.05Z"/><path class="cls-9" d="M113.82,42.73l-4.25,2a50.12,50.12,0,0,1,2.24,5.54l4.47-1.51A57.78,57.78,0,0,0,113.82,42.73Z"/><path class="cls-9" d="M103.49,27.79a55.83,55.83,0,0,0-4.79-4.43l-3,3.63a54.51,54.51,0,0,1,4.39,4.07Z"/><path class="cls-9" d="M109.74,35.56l-3.91,2.62a49.4,49.4,0,0,1,3,5.16l4.2-2.15A55.77,55.77,0,0,0,109.74,35.56Z"/><path class="cls-9" d="M76.82,12.21l-1.17,4.57a49.69,49.69,0,0,1,5.7,1.82L83,14.2A56.25,56.25,0,0,0,76.82,12.21Z"/><path class="cls-9" d="M76,117a50.69,50.69,0,0,1-5.86,1.19l.66,4.67a57.57,57.57,0,0,0,6.4-1.3Z"/><path class="cls-9" d="M92,18.59l-2.44,4A51.87,51.87,0,0,1,94.47,26l2.89-3.73A55,55,0,0,0,92,18.59Z"/><path class="cls-9" d="M68.7,10.76l-.49,4.68a51.26,51.26,0,0,1,5.91,1l1-4.6A56.27,56.27,0,0,0,68.7,10.76Z"/><path class="cls-9" d="M84.64,14.84l-1.83,4.35a51.29,51.29,0,0,1,5.37,2.63l2.32-4.1A55.79,55.79,0,0,0,84.64,14.84Z"/><path class="cls-9" d="M116.8,50.43l-4.5,1.38a51.78,51.78,0,0,1,1.41,5.81l4.63-.84A54.9,54.9,0,0,0,116.8,50.43Z"/><path class="cls-9" d="M96,106.65a52.47,52.47,0,0,1-4.8,3.58l2.6,3.93a56.8,56.8,0,0,0,5.23-3.9Z"/><path class="cls-9" d="M119.23,65.05V65a56.09,56.09,0,0,0-.59-6.49l-4.66.7a53.65,53.65,0,0,1,.55,6v.07Z"/><path class="cls-9" d="M69.13,123.1l-.53-4.69c-1.33.15-2.69.25-4,.3-.61,0-1.24,0-1.85,0h-.1v4.71h.11c.67,0,1.35,0,2,0C66.2,123.37,67.68,123.26,69.13,123.1Z"/><path class="cls-9" d="M118.91,73.29a57.55,57.55,0,0,0,.35-6.3v-.22l-4.71,0V67a53,53,0,0,1-.32,5.78Z"/><path class="cls-9" d="M105,104.51l-3.52-3.13a52.76,52.76,0,0,1-4.23,4.23l3.14,3.52A59.1,59.1,0,0,0,105,104.51Z"/><path class="cls-9" d="M89.89,111.08a52.3,52.3,0,0,1-5.27,2.83l2,4.28a56.81,56.81,0,0,0,5.75-3.1Z"/><path class="cls-9" d="M83.18,114.56a51.1,51.1,0,0,1-5.63,2l1.34,4.51A54.38,54.38,0,0,0,85,118.89Z"/><path class="cls-9" d="M114,74.34a50.69,50.69,0,0,1-1.19,5.86l4.55,1.2a53.35,53.35,0,0,0,1.3-6.4Z"/><path class="cls-9" d="M112.41,81.72a50.89,50.89,0,0,1-2,5.62l4.33,1.86a57.6,57.6,0,0,0,2.22-6.14Z"/><path class="cls-9" d="M109.73,88.78a51.38,51.38,0,0,1-2.83,5.27l4,2.47a56.81,56.81,0,0,0,3.1-5.75Z"/><path class="cls-9" d="M106.05,95.38a50.59,50.59,0,0,1-3.57,4.8l3.61,3A56.47,56.47,0,0,0,110,98Z"/><path class="cls-9" d="M35.19,17.62a57.51,57.51,0,0,0-5.5,3.51L32.45,25a51.18,51.18,0,0,1,5-3.22Z"/><path class="cls-9" d="M16.87,34a56.85,56.85,0,0,0-3.5,5.51l4.11,2.3a51.92,51.92,0,0,1,3.21-5Z"/><path class="cls-9" d="M34.08,110.08,31.47,114a53.79,53.79,0,0,0,5.63,3.3l2.14-4.19A52.35,52.35,0,0,1,34.08,110.08Z"/><path class="cls-9" d="M28.3,22.16a60.69,60.69,0,0,0-4.93,4.28l3.29,3.38a49.59,49.59,0,0,1,4.52-3.92Z"/><path class="cls-9" d="M42.67,14.12a56.81,56.81,0,0,0-6,2.68L38.88,21a50.45,50.45,0,0,1,5.47-2.45Z"/><path class="cls-9" d="M40.66,113.8l-2,4.26a57.71,57.71,0,0,0,6.06,2.45L46.2,116A50.12,50.12,0,0,1,40.66,113.8Z"/><path class="cls-9" d="M22.15,27.66a59,59,0,0,0-4.26,4.94l3.74,2.87a52.83,52.83,0,0,1,3.91-4.54Z"/><path class="cls-9" d="M6.29,64.76c0,.71,0,1.44,0,2.16s0,1.34,0,2,.07,1.57.13,2.35l4.7-.36c-.06-.71-.1-1.44-.12-2.16s0-1.23,0-1.84,0-1.33,0-2Z"/><path class="cls-9" d="M12.55,41a55.76,55.76,0,0,0-2.66,6l4.41,1.66a51.1,51.1,0,0,1,2.44-5.46Z"/><path class="cls-9" d="M7.21,56.56A54.13,54.13,0,0,0,6.39,63l4.7.32a51.28,51.28,0,0,1,.75-5.94Z"/><path class="cls-9" d="M9.31,48.58a54.82,54.82,0,0,0-1.76,6.29l4.6,1a54.15,54.15,0,0,1,1.61-5.77Z"/><path class="cls-9" d="M27,104.37A51.21,51.21,0,0,1,22.87,100l-3.63,3a59.22,59.22,0,0,0,4.45,4.78Z"/><path class="cls-9" d="M47.71,116.52,46.34,121a54.86,54.86,0,0,0,6.35,1.53l.83-4.64A50.64,50.64,0,0,1,47.71,116.52Z"/><path class="cls-9" d="M50.58,11.77a56.76,56.76,0,0,0-6.28,1.76L45.83,18a52.38,52.38,0,0,1,5.76-1.62Z"/><path class="cls-9" d="M55.08,118.18l-.69,4.66a56.45,56.45,0,0,0,6.5.58l.15-4.71A51.54,51.54,0,0,1,55.08,118.18Z"/><path class="cls-9" d="M58.74,10.59a56.09,56.09,0,0,0-6.47.83l.87,4.63a53.57,53.57,0,0,1,5.94-.76Z"/><path class="cls-9" d="M12.61,79.93,8.05,81.11a56.25,56.25,0,0,0,2,6.22l4.4-1.7A51.11,51.11,0,0,1,12.61,79.93Z"/><path class="cls-9" d="M62.79,15.16c1.28,0,2.58.05,3.85.14L67,10.6c-1.39-.1-2.8-.15-4.2-.15l-2,0-.32,0,.19,4.7h.29Z"/><path class="cls-9" d="M18.48,93.83l-4,2.45a58.36,58.36,0,0,0,3.71,5.38l3.72-2.9A52,52,0,0,1,18.48,93.83Z"/><path class="cls-9" d="M11.26,72.5,6.58,73a58.4,58.4,0,0,0,1.06,6.44l4.6-1A51.12,51.12,0,0,1,11.26,72.5Z"/><path class="cls-9" d="M28.11,105.44,25,109A57.17,57.17,0,0,0,30.05,113l2.73-3.84A50.75,50.75,0,0,1,28.11,105.44Z"/><path class="cls-9" d="M15,87.1l-4.34,1.83a58.06,58.06,0,0,0,2.89,5.87l4.1-2.33A53.5,53.5,0,0,1,15,87.1Z"/><path class="cls-10" d="M68.34,9.17l.45-4.69c-2-.19-4-.29-6-.29h-.5l0,4.71h.46C64.64,8.91,66.51,9,68.34,9.17Z"/><path class="cls-10" d="M100.58,16.87l-2.84,3.76a56.39,56.39,0,0,1,4.6,3.87l3.21-3.45A63.88,63.88,0,0,0,100.58,16.87Z"/><path class="cls-10" d="M116.87,35.15l-4.06,2.39a57.38,57.38,0,0,1,2.78,5.33l4.29-1.95A61.91,61.91,0,0,0,116.87,35.15Z"/><path class="cls-10" d="M112.25,28.36l-3.71,2.9A59.52,59.52,0,0,1,112,36.18l4-2.5A61.17,61.17,0,0,0,112.25,28.36Z"/><path class="cls-10" d="M106.79,22.24l-3.31,3.35A59,59,0,0,1,107.55,30l3.63-3A64.06,64.06,0,0,0,106.79,22.24Z"/><path class="cls-10" d="M70.49,4.66l-.57,4.68a58.9,58.9,0,0,1,5.91,1l1.06-4.59C74.79,5.31,72.64,4.93,70.49,4.66Z"/><path class="cls-10" d="M86.34,8.78l-1.77,4.37A57.19,57.19,0,0,1,90,15.69l2.22-4.16A64.27,64.27,0,0,0,86.34,8.78Z"/><path class="cls-10" d="M71.34,129.12l-.63-4.67a58.35,58.35,0,0,1-5.92.51h-.07l.15,4.71H65C67.09,129.59,69.24,129.41,71.34,129.12Z"/><path class="cls-10" d="M120.57,42.49l-4.34,1.84a55.8,55.8,0,0,1,2,5.64l4.51-1.37A62.74,62.74,0,0,0,120.57,42.49Z"/><path class="cls-10" d="M78.56,6.2l-1.19,4.56a57.69,57.69,0,0,1,5.73,1.81l1.65-4.41A60.91,60.91,0,0,0,78.56,6.2Z"/><path class="cls-10" d="M78.14,122.93a58.47,58.47,0,0,1-5.87,1.29l.77,4.65c2.13-.36,4.27-.82,6.35-1.39Z"/><path class="cls-10" d="M93.73,12.36l-2.33,4.1a57,57,0,0,1,5.06,3.23l2.74-3.83A61.76,61.76,0,0,0,93.73,12.36Z"/><path class="cls-10" d="M98.39,112.78a59.57,59.57,0,0,1-4.93,3.44l2.5,4c1.83-1.15,3.62-2.4,5.32-3.72Z"/><path class="cls-10" d="M123.26,50.25l-4.54,1.25A58.28,58.28,0,0,1,120,57.36l4.65-.77A59.2,59.2,0,0,0,123.26,50.25Z"/><path class="cls-10" d="M92.1,117a53.84,53.84,0,0,1-5.33,2.77l2,4.29a61.74,61.74,0,0,0,5.77-3Z"/><path class="cls-10" d="M104.06,107.73a58.7,58.7,0,0,1-4.43,4.06l3,3.63a62.13,62.13,0,0,0,4.8-4.38Z"/><path class="cls-10" d="M125.22,73.06c.2-2,.29-4,.29-6.07v-.42l-4.71,0V67c0,1.87-.09,3.76-.27,5.62Z"/><path class="cls-10" d="M85.32,120.45a57,57,0,0,1-5.66,2L81,127a60.33,60.33,0,0,0,6.12-2.21Z"/><path class="cls-10" d="M125.48,64.86v-.11c-.08-2.16-.27-4.33-.56-6.46l-4.67.64a59.74,59.74,0,0,1,.52,6V65Z"/><path class="cls-10" d="M120.36,74.18a58.63,58.63,0,0,1-1,5.92l4.59,1.06a59.91,59.91,0,0,0,1.13-6.4Z"/><path class="cls-10" d="M118.93,81.64a57.57,57.57,0,0,1-1.82,5.72L121.52,89a63.59,63.59,0,0,0,2-6.19Z"/><path class="cls-10" d="M116.53,88.83A57.27,57.27,0,0,1,114,94.27l4.16,2.22a63,63,0,0,0,2.76-5.88Z"/><path class="cls-10" d="M113.22,95.66a57,57,0,0,1-3.25,5l3.84,2.75c1.25-1.76,2.43-3.6,3.5-5.47Z"/><path class="cls-10" d="M109,102a56.39,56.39,0,0,1-3.87,4.6l3.44,3.21a60,60,0,0,0,4.19-5Z"/><path class="cls-10" d="M36.75,9.82a64.32,64.32,0,0,0-5.77,3l2.39,4.06a58.47,58.47,0,0,1,5.33-2.77Z"/><path class="cls-10" d="M35.46,118.19l-2.22,4.15a60.51,60.51,0,0,0,5.88,2.76l1.78-4.36A57.27,57.27,0,0,1,35.46,118.19Z"/><path class="cls-10" d="M22.85,18.51a64.21,64.21,0,0,0-4.79,4.39l3.36,3.31a56.67,56.67,0,0,1,4.43-4.06Z"/><path class="cls-10" d="M42.37,121.31l-1.66,4.42a63.72,63.72,0,0,0,6.2,2l1.19-4.56A54.48,54.48,0,0,1,42.37,121.31Z"/><path class="cls-10" d="M44.43,6.91a62.74,62.74,0,0,0-6.11,2.22l1.83,4.34a56.87,56.87,0,0,1,5.65-2.05Z"/><path class="cls-10" d="M16.87,24.14a62.07,62.07,0,0,0-4.18,5L16.45,32a58.48,58.48,0,0,1,3.87-4.6Z"/><path class="cls-10" d="M29.51,13.71a63.42,63.42,0,0,0-5.32,3.73l2.9,3.71c1.57-1.22,3.23-2.38,4.92-3.44Z"/><path class="cls-10" d="M11.68,30.49A59,59,0,0,0,8.18,36l4.09,2.33a59.47,59.47,0,0,1,3.24-5.06Z"/><path class="cls-10" d="M.29,60.89c-.19,2-.29,4-.29,6v.47l4.71,0v-.44c0-1.85.09-3.73.27-5.57Z"/><path class="cls-10" d="M1.6,52.79c-.48,2.1-.86,4.26-1.13,6.4l4.68.58a59.1,59.1,0,0,1,1-5.92Z"/><path class="cls-10" d="M4,44.93c-.75,2-1.41,4.11-2,6.2l4.56,1.18a54.3,54.3,0,0,1,1.82-5.72Z"/><path class="cls-10" d="M7.35,37.46A62.88,62.88,0,0,0,4.6,43.34L9,45.11a59.68,59.68,0,0,1,2.55-5.44Z"/><path class="cls-10" d="M5.5,76.49l-4.65.77a62.47,62.47,0,0,0,1.39,6.35l4.54-1.25A55.79,55.79,0,0,1,5.5,76.49Z"/><path class="cls-10" d="M52.42,5c-2.13.36-4.26.83-6.34,1.4L47.33,11a58.28,58.28,0,0,1,5.86-1.29Z"/><path class="cls-10" d="M63.13,125h-.41c-1.87,0-3.75-.09-5.6-.27l-.45,4.69c2,.19,4,.29,6,.29h.44Z"/><path class="cls-10" d="M5.26,74.92A58.49,58.49,0,0,1,4.75,69v0L0,69.1v.05a62.26,62.26,0,0,0,.55,6.41Z"/><path class="cls-10" d="M29,114.18,26.27,118c1.76,1.25,3.6,2.43,5.47,3.5l2.33-4.1A56.29,56.29,0,0,1,29,114.18Z"/><path class="cls-10" d="M49.63,123.51l-1.06,4.59a63,63,0,0,0,6.4,1.13l.58-4.67A59.64,59.64,0,0,1,49.63,123.51Z"/><path class="cls-10" d="M60.75,8.94l-.17-4.71h0c-2.15.08-4.32.27-6.44.56l.64,4.67a56.37,56.37,0,0,1,6-.52Z"/><path class="cls-10" d="M17.94,103.84l-3.64,3a64,64,0,0,0,4.39,4.79L22,108.28A58.67,58.67,0,0,1,17.94,103.84Z"/><path class="cls-10" d="M7.22,83.88,2.71,85.25a62.92,62.92,0,0,0,2.22,6.12l4.34-1.84A56.87,56.87,0,0,1,7.22,83.88Z"/><path class="cls-10" d="M23.14,109.37l-3.22,3.45a63.88,63.88,0,0,0,5,4.18l2.85-3.76A56.39,56.39,0,0,1,23.14,109.37Z"/><path class="cls-10" d="M9.91,91l-4.29,2a64.33,64.33,0,0,0,3,5.77l4.07-2.39A55,55,0,0,1,9.91,91Z"/><path class="cls-10" d="M13.5,97.68l-4,2.49a63.58,63.58,0,0,0,3.73,5.33L17,102.6A57.88,57.88,0,0,1,13.5,97.68Z"/><path class="cls-10" d="M85.79,44.81,82.4,48.07a27.52,27.52,0,0,1,3.46,4.45l4-2.5A32,32,0,0,0,85.79,44.81Z"/><path class="cls-10" d="M94.69,65.89v-.06a31.91,31.91,0,0,0-.91-6.54l-4.57,1.13A28.09,28.09,0,0,1,90,66v.06Z"/><path class="cls-10" d="M79.28,39.6l-2.44,4A27,27,0,0,1,81.33,47l3.22-3.45A32.39,32.39,0,0,0,79.28,39.6Z"/><path class="cls-10" d="M90.74,51.52,86.62,53.8A27.11,27.11,0,0,1,88.81,59l4.51-1.37A31.37,31.37,0,0,0,90.74,51.52Z"/><path class="cls-10" d="M71.64,36.25l-1.31,4.53a26.83,26.83,0,0,1,5.22,2.12l2.22-4.16A31.65,31.65,0,0,0,71.64,36.25Z"/><path class="cls-10" d="M70.37,98l-1.11-4.58a27.17,27.17,0,0,1-5.55.76h0l.15,4.71h.05A32.1,32.1,0,0,0,70.37,98Z"/><path class="cls-10" d="M81.61,86.62a28.09,28.09,0,0,1-4.45,3.46l2.5,4a32.35,32.35,0,0,0,5.21-4Z"/><path class="cls-10" d="M75.88,90.83A27.47,27.47,0,0,1,70.69,93l1.37,4.51A32,32,0,0,0,78.15,95Z"/><path class="cls-10" d="M63.4,35l-.09,4.71a26.14,26.14,0,0,1,5.58.69L70,35.81A32,32,0,0,0,63.4,35Z"/><path class="cls-10" d="M86.06,81.07a28,28,0,0,1-3.41,4.49l3.44,3.21a31.81,31.81,0,0,0,4-5.26Z"/><path class="cls-10" d="M90,67.54a26.8,26.8,0,0,1-.7,5.58l4.59,1.07a31.41,31.41,0,0,0,.82-6.56Z"/><path class="cls-10" d="M88.92,74.56a26.87,26.87,0,0,1-2.13,5.22L91,82a31.82,31.82,0,0,0,2.49-6.12Z"/><path class="cls-10" d="M39.4,45.15a32,32,0,0,0-4,5.27l4,2.44a27.6,27.6,0,0,1,3.41-4.5Z"/><path class="cls-10" d="M49.94,91l-2.22,4.16a31.82,31.82,0,0,0,6.12,2.49l1.32-4.52A27.51,27.51,0,0,1,49.94,91Z"/><path class="cls-10" d="M45.83,39.84a32.92,32.92,0,0,0-5.21,4.07l3.27,3.39a27.44,27.44,0,0,1,4.44-3.46Z"/><path class="cls-10" d="M53.43,36.38A32,32,0,0,0,47.34,39l2.28,4.12a27.76,27.76,0,0,1,5.18-2.19Z"/><path class="cls-10" d="M31.62,59.74a32.79,32.79,0,0,0-.81,6.56l4.71.09a27.66,27.66,0,0,1,.69-5.59Z"/><path class="cls-10" d="M34.55,51.93a32.47,32.47,0,0,0-2.49,6.12l4.53,1.31a26.74,26.74,0,0,1,2.12-5.21Z"/><path class="cls-10" d="M39.64,81.37l-4,2.49a32.53,32.53,0,0,0,4.06,5.21l3.4-3.26A27.44,27.44,0,0,1,39.64,81.37Z"/><path class="cls-10" d="M36.69,74.89l-4.5,1.38a31.86,31.86,0,0,0,2.57,6.09l4.12-2.28A27.57,27.57,0,0,1,36.69,74.89Z"/><path class="cls-10" d="M56.6,93.49l-1.07,4.59a32.09,32.09,0,0,0,6.56.82l.09-4.72A26.79,26.79,0,0,1,56.6,93.49Z"/><path class="cls-10" d="M61.82,39.73,61.65,35h0a32.5,32.5,0,0,0-6.53.9l1.12,4.58a27.47,27.47,0,0,1,5.57-.77Z"/><path class="cls-10" d="M36.3,73.46a27.27,27.27,0,0,1-.76-5.55v0L30.82,68v0a32.29,32.29,0,0,0,.89,6.51Z"/><path class="cls-10" d="M44.16,86.85,40.94,90.3a33.49,33.49,0,0,0,5.27,4l2.44-4A28,28,0,0,1,44.16,86.85Z"/><path class="cls-11" d="M82.82,51.38,79.1,54.27a20.71,20.71,0,0,1,2.84,4.93l4.37-1.76A25.4,25.4,0,0,0,82.82,51.38Z"/><path class="cls-11" d="M43.06,73.26a20.68,20.68,0,0,1-1-5.59v0l-4.71.16v0a25.25,25.25,0,0,0,1.19,6.86Z"/><path class="cls-11" d="M62.77,46.27a21.33,21.33,0,0,1,2.88.2l.65-4.67a26,26,0,0,0-3.53-.24h-.9c-.86,0-1.71.11-2.56.22L60,46.46c.68-.09,1.39-.15,2.08-.18Z"/><path class="cls-11" d="M72.38,85.26A20.52,20.52,0,0,1,67,87.19l1,4.61a25.33,25.33,0,0,0,6.59-2.37Z"/><path class="cls-11" d="M68.12,42.13l-1,4.6a20.4,20.4,0,0,1,5.34,2l2.22-4.16A25.27,25.27,0,0,0,68.12,42.13Z"/><path class="cls-11" d="M81.9,74.79A20.57,20.57,0,0,1,79,79.71l3.71,2.91a25.38,25.38,0,0,0,3.52-6Z"/><path class="cls-11" d="M88.14,66.12v-.06a25.4,25.4,0,0,0-1.19-6.88l-4.49,1.44a20.77,20.77,0,0,1,1,5.61v0Z"/><path class="cls-11" d="M81.55,84l-3.49-3.17a20.89,20.89,0,0,1-4.37,3.65l2.49,4A25.59,25.59,0,0,0,81.55,84Z"/><path class="cls-11" d="M83.42,67.78a20.4,20.4,0,0,1-1,5.6l4.48,1.47A25.51,25.51,0,0,0,88.13,68Z"/><path class="cls-11" d="M81.63,50a25.62,25.62,0,0,0-5.35-4.5l-2.51,4a20.67,20.67,0,0,1,4.36,3.67Z"/><path class="cls-11" d="M66.17,92.11l-.63-4.67a20.2,20.2,0,0,1-2.06.18,21.05,21.05,0,0,1-3.64-.19l-.65,4.67a26.24,26.24,0,0,0,3.55.24h.91A23.58,23.58,0,0,0,66.17,92.11Z"/><path class="cls-11" d="M53,85.2,50.8,89.36a25.3,25.3,0,0,0,6.57,2.41l1-4.6A20.92,20.92,0,0,1,53,85.2Z"/><path class="cls-11" d="M51.81,49.4l-2.5-4A25.58,25.58,0,0,0,44,49.89l3.49,3.17A20.43,20.43,0,0,1,51.81,49.4Z"/><path class="cls-11" d="M38.61,59.08A25.13,25.13,0,0,0,37.38,66l4.71.17a20.47,20.47,0,0,1,1-5.6Z"/><path class="cls-11" d="M42.76,51.3a25.44,25.44,0,0,0-3.52,6.05l4.37,1.78a20.53,20.53,0,0,1,2.86-4.92Z"/><path class="cls-11" d="M57.49,42.11a25.4,25.4,0,0,0-6.58,2.37l2.2,4.17a20.52,20.52,0,0,1,5.35-1.93Z"/><path class="cls-11" d="M51.72,84.44a20.62,20.62,0,0,1-4.35-3.67l-3.5,3.15a25.36,25.36,0,0,0,5.34,4.51Z"/><path class="cls-11" d="M43.57,74.68,39.2,76.44a25,25,0,0,0,3.48,6.06l3.72-2.89A20.68,20.68,0,0,1,43.57,74.68Z"/><path class="cls-12" d="M32.79,42.63c-1,1.63,1.27,6.82,1.27,6.82s-1,6.79.88,10.77a4,4,0,0,0,5.46,2.24l30.95-4.2S62,26.75,61.07,26.42s-9.24,1.14-13.3,4.21-12.52,4-12.52,4c-2.19,1.56-1,6.21-1,6.21S33.83,41,32.79,42.63Z"/><polygon class="cls-13" points="67.3 98.34 52.7 88.44 12.62 104.51 2.15 146.15 113.76 144.2 106.42 111.94 67.3 98.34"/><polygon class="cls-14" points="13.01 104.36 23.31 120.97 49.69 89.65 13.01 104.36"/><path class="cls-15" d="M75,97.78,49,72.69c.44.27.7,23.61.7,23.61l21.08,25.44Z"/><path class="cls-16" d="M46.63,77.05c2.66,3.25,7.88,3.89,7.88,3.89L78.75,48.57s5.1-6.31-1.12-9.32l0,2.47s-.25-3.56-5.58-4.57l.72,2.1S71.4,36.07,66.58,36l.51,1.55s-7.2-3.63-13.31.14c0,0,2,.6,1.65.61s-7.86,2.52-7.86,2.52l2.61.41S42.8,44,41.34,48.4l1.53-.67s-2.06,7.09-2.4,9.65S44,73.8,46.63,77.05Z"/><path class="cls-17" d="M45.76,54.84a11.49,11.49,0,0,0-5.27,3.71c.07.61.19,1.38.37,2.25,2.6-5.31,9.4-5.73,13.19-6,.73,0,1.36-.08,1.82-.15s1.19-.17,1.35-.85-2.55-3.39-2.84-3.59a19.75,19.75,0,0,0-2.1-1.15,9.58,9.58,0,0,0-1.65-.65l-4.17.46-5.49,6c-.14.59-.26,1.14-.35,1.63a.82.82,0,0,1,0,.27c.25-.26.52-.51.79-.76,4.42-4.07,6.51-7.47,10.17-5.66.64.32,3.11,2.82,3.43,3l-1,.07A28.57,28.57,0,0,0,45.76,54.84Z"/><path class="cls-17" d="M53.78,37.66s.82.24,1.32.42c-.35-.19-.73-.36-1.13-.54Z"/><path class="cls-17" d="M46.26,61.42a16.36,16.36,0,0,0-4.53,3.08c.15.55.3,1.12.47,1.68,3.06-3.71,9.15-5.19,12.33-6,.72-.18,1.29-.32,1.72-.45s1.17-.36,1.13-1.05-.84-.89-1.33-1-1.36-.28-2.58-.47a12.09,12.09,0,0,0-8.86,2.31,23.72,23.72,0,0,0-3.4,2.89c.13.55.27,1.11.42,1.7,2.45-2.65,6.5-6.29,11.59-5.5l1.07.17-.14,0A40,40,0,0,0,46.26,61.42Z"/><path class="cls-17" d="M70.4,36.89c3.72,4.42,2.83,10.92,2.56,11.64a4.16,4.16,0,0,0-.42,1.55c-.17,1.33,2,4,2.12,4.09a.93.93,0,0,0,.86.45c.56,0,.93-.54,1.34-1.32.21-.41-1.54-3.2-1.27-3.86-.17.57,1.71,3.15,1.7,3.16l-.38,1,1.11,0a1,1,0,0,0,.49-.14l-.25-4.27c.27-.43.58-1,.92-1.57,1.14-2.11.59-5.17-.08-7.38a7,7,0,0,0-1.47-.94l0,2.47a4.57,4.57,0,0,0-1.81-3,12.79,12.79,0,0,1,.46,2,14.68,14.68,0,0,0-1-2.32,8.31,8.31,0,0,0-2.33-1c2.34,3.55,3,6.87,1.82,9.88-.06.16-.13.32-.18.47,0-.27,0-.54.07-.75a18.14,18.14,0,0,0-.21-4.34,14.36,14.36,0,0,0-2-5.39l-.4-.09.72,2.1A5.65,5.65,0,0,0,70.4,36.89ZM78,45.07A20.26,20.26,0,0,0,78,42c.38,1.72.53,3.64-.19,5l-.12.21C77.82,46.51,77.91,45.81,78,45.07Z"/><path class="cls-17" d="M44.17,72.12l10.76-9.26-1.08-2.3L43.67,66.47l.81,1.2L52.54,63l-8.91,7.67C43.8,71.16,44,71.65,44.17,72.12Z"/><path class="cls-17" d="M65.75,37.93c3.35,4.68,1.85,11.48,1.83,11.55l0,.1v.11a29,29,0,0,1,2.21,3.51c.13.51.41,1.69,1.39,1.74h.08c.88,0,1.34-1.09,1.54-1.55.39-.92-1.18-4.64-.73-6.61a10.06,10.06,0,0,0-1-7.09,14.84,14.84,0,0,0-2.59-3.5A9.3,9.3,0,0,0,66.58,36l.18.56c3.34,3.11,4.62,6.46,3.81,10a32.76,32.76,0,0,1-1,3.69c-.09.24,1.83,2.69,1.76,2.85-.09-.32-2.17-3-2.22-3.38a19.94,19.94,0,0,0,.36-4.22A14.54,14.54,0,0,0,67,37.14l-.1-.14.17.52a15.29,15.29,0,0,0-2.49-.92A9.24,9.24,0,0,1,65.75,37.93Z"/><path class="cls-17" d="M46.64,45h0a9.8,9.8,0,0,0-3.58.72,7.26,7.26,0,0,0-1.7,2.68l.33-.15a7.45,7.45,0,0,1,5-1.83h0a20.41,20.41,0,0,1,6.74,1.43c.59.21,1.1.39,1.5.49s1.07.27,1.51-.25,0-1.46-.79-2.48a7.92,7.92,0,0,0-5.07-3,16,16,0,0,0-3-.26A22.83,22.83,0,0,0,45,44c3.53-.44,7.41-.19,9.35,2.42l.25.35-.69-.23A21.21,21.21,0,0,0,46.64,45Z"/><path class="cls-17" d="M63.91,43.93A10.78,10.78,0,0,0,61.2,37.6,8.34,8.34,0,0,0,59,36a12.23,12.23,0,0,0-2.73.51,7.51,7.51,0,0,1,3.75,2c2.9,3,2.44,8.05,2.37,8.65-.09.26-.42,1.25-.72,2.23-.2.68,1.65,3.49,1.56,3.9a6.05,6.05,0,0,0-.11.63.83.83,0,0,0,.54.95.89.89,0,0,0,.9-.21,2.47,2.47,0,0,0,.27-.32c.15-.23.35-.57.6-1,.52-1-.72-4.82.25-7a7.69,7.69,0,0,0-.21-7.61,10.63,10.63,0,0,0-2.25-2.51,16.34,16.34,0,0,0-3-.32,11.09,11.09,0,0,1,3.94,3.54,6.34,6.34,0,0,1,.13,6.34l-.31.7A16.61,16.61,0,0,0,63.91,43.93Z"/><path class="cls-17" d="M51.15,39.6c-1.53.5-3,1-3.43,1.14,4.85-.61,9.33,4,10.38,5.1q.07.4.12.6c0,.07,0,.13,0,.17a.79.79,0,0,0,.87.55.75.75,0,0,0,.65-.76s0-.08,0-.13,0-.17,0-.3,0-.39,0-.4l0-.19-.12-.15h0c-.1-.55-.25-1.39-.49-2.69-.28-1.6-1.41-3-3.36-4.15l-.22-.12h0a19.84,19.84,0,0,0-2,.6c2.08.9,3.81,2.17,4.12,3.91,0,.18.07.36.1.54a20,20,0,0,0-2.32-1.79A14.1,14.1,0,0,0,51.15,39.6Z"/><path class="cls-18" d="M84.68,52.72s-3.24-5-4.56-7.46a28.39,28.39,0,0,1-10.89.14,37,37,0,0,1-11.56-4.1L48.93,47l3.7,9.55-3.58,3L51,67.77l-1.44,1.36c.58,6.36,1.5,16.28,2.16,16.94.9.89,15.07,14.1,15.07,14.1l11.49-.2s-.46-9.69.91-15.57,6.91-9.28,6.91-9.28L83.75,67,86,60.75Z"/><path class="cls-19" d="M54.36,43.47,48.93,47l3.7,9.55-3.58,3L51,67.77l0,0L53,76.69l-2.34.79-.85-5.14c.36,3.91.8,8.29,1.22,11L63,84.81,54.34,64.36,59.15,61Z"/><path class="cls-20" d="M50.9,67.59l1.16,5c.11-2.11.29-4.21.29-4.21Z"/><path class="cls-17" d="M49.5,68.88c.58,6.34,1.51,16.52,2.18,17.19.9.89,15.07,14.1,15.07,14.1l11.49-.2s-.39-8.45.57-13.9l-.23-.29-2.79,6.13-1.14-3.73s-4.8-1.88-4.58-.51-2,5.16-2,5.16l-.92-1.73-1.07.66L65.5,90.4l-1.56.76-.52-1.91-2.36.13.77-6.7Z"/><path class="cls-21" d="M50,69.4l-.37.49c.06.63.12,1.28.18,2,.42-.49.8-.95,1.14-1.4Z"/><path class="cls-21" d="M53,72.75l-1-1.12c-.27.52-.55,1.06-.85,1.6s-.69,1.24-1,1.81c.07.75.15,1.5.22,2.24.68-1,1.38-2.17,2.08-3.45Z"/><path class="cls-21" d="M66.51,91.52l-.4.24-.6-1.34A15.89,15.89,0,0,1,61.24,95l1,.94.53-.43A16.62,16.62,0,0,0,66.51,91.52Z"/><path class="cls-21" d="M65.33,97.46a15.06,15.06,0,0,0,2.11-3.31c.23-.46.44-.93.63-1.37l-.86-1.63c-.29.74-.65,1.61-1.07,2.47a10.85,10.85,0,0,1-2.55,3.61l1,.94A6.05,6.05,0,0,0,65.33,97.46Z"/><path class="cls-21" d="M66.88,97.93c-.22.6-.45,1.18-.67,1.74l.54.5h.78c.23-.57.47-1.17.69-1.79a30,30,0,0,0,2.07-8c.11,1,.22,2.36.25,3.72a22.18,22.18,0,0,1-.34,4.76,9.41,9.41,0,0,1-.35,1.28l1.49,0A20,20,0,0,0,72,94a47.64,47.64,0,0,0-.45-5.41l.18,0L73,100.06l1.43,0-1-8.17c.09.33.19.65.29,1a53.19,53.19,0,0,0,2,5.52c.27.61.53,1.15.79,1.63l1.61,0a33.38,33.38,0,0,1-3-7.48c-.23-.76-.44-1.51-.64-2.22a44.64,44.64,0,0,0,2.55,4.84c.37.63.75,1.25,1.11,1.82,0-.8,0-1.72,0-2.69-.67-1.16-1.33-2.35-1.87-3.45l-.51,1.12-1.14-3.73a23.58,23.58,0,0,0-2.44-.79l-1.53-.22c-.41,0-.67.16-.61.5.14.89-.74,2.82-1.37,4A37.48,37.48,0,0,1,66.88,97.93Z"/><path class="cls-21" d="M77.64,87.85l-.79,1.74c.43,1,.9,2.13,1.36,3.25,0-1.07.09-2.17.17-3.26C78.11,88.93,77.86,88.35,77.64,87.85Z"/><path class="cls-21" d="M57.22,77.52l-1-1.09c-.55.93-1.15,1.92-1.79,2.9A53.07,53.07,0,0,1,51.14,84a12.56,12.56,0,0,0,.36,1.72A48.14,48.14,0,0,0,55.67,80C56.22,79.17,56.74,78.33,57.22,77.52Z"/><path class="cls-21" d="M61.35,86.89l.4-3.48c-1,2.65-3.59,5.07-5.76,6.72.33.31.67.62,1,1l.64-.5A22.7,22.7,0,0,0,61.35,86.89Z"/><path class="cls-21" d="M63.44,90.82l.31-.38-.33-1.19-.52,0-.6.74a20.67,20.67,0,0,1-3.09,3.12l1,.94A22.1,22.1,0,0,0,63.44,90.82Z"/><path class="cls-21" d="M55.05,75.1l-1-1.1a43,43,0,0,1-3.56,5.21c.08.68.15,1.34.23,2,.25-.32.51-.64.76-1A48.4,48.4,0,0,0,55.05,75.1Z"/><path class="cls-21" d="M60.25,83.64c.38-.51.74-1,1.09-1.51l-1-1.06c-.41.59-.85,1.2-1.31,1.82a34.16,34.16,0,0,1-4.93,5.52l1,.94c.34-.29.68-.6,1-.95A42.23,42.23,0,0,0,60.25,83.64Z"/><path class="cls-21" d="M59.22,79.76l-1-1.13c-.86,2-2.85,4.46-5.85,7.38l-.37.36,1,.94.4-.38A30.93,30.93,0,0,0,59.22,79.76Z"/><polygon class="cls-22" points="72.87 62.68 69.87 59.44 66.49 60.18 70.68 63.75 67.13 71.09 69 77.31 70.4 76.49 72.51 77.37 72.93 77.18 73.19 75.16 72.2 69.14 73.01 64.73 72.87 62.68"/><path class="cls-23" d="M75.21,89.73l3.35-2.62-.44-2.19s-10.42-.69-10.81-.68-3,2.48-3,2.48l4.57,3A19.41,19.41,0,0,1,75.21,89.73Z"/><polygon class="cls-24" points="75.79 86.31 78.31 87.3 78.78 84.89 65.6 84.98 63.73 87.21 70.78 86.33 72.81 88.35 75.79 86.31"/><polygon class="cls-19" points="80.99 71.92 76.23 69.44 80.53 73.48 83.93 71.41 80.99 71.92"/><path class="cls-25" d="M65.29,66a2.55,2.55,0,0,0-5.1.09,2.29,2.29,0,0,0,.62,1.53l3.92-.07A2.31,2.31,0,0,0,65.29,66Z"/><path class="cls-26" d="M65.28,66.31a5.2,5.2,0,0,0-2.34-.47,5,5,0,0,0-2.68.77,2.36,2.36,0,0,0,.55,1l3.92-.07A2.35,2.35,0,0,0,65.28,66.31Z"/><path class="cls-27" d="M63.72,66a1,1,0,1,0-1,.94A1,1,0,0,0,63.72,66Z"/><path class="cls-19" d="M63.87,62.82s-5.75,1.26-6.18,3.2c0,0,7.61-1.72,10.92-1Z"/><path class="cls-15" d="M67.88,64.92c.26,0,.5.07.73.12l-4.74-2.22s-5.75,1.26-6.18,3.2l.15,0c1.38-1.37,5.65-2.36,5.65-2.36Z"/><path class="cls-19" d="M62.9,68.7a35.38,35.38,0,0,1-3.44-.86s1.83,1.48,3.11,1.52a16.67,16.67,0,0,0,4.21-1.16Z"/><path class="cls-25" d="M81.55,65.62a2.37,2.37,0,1,0-4.74.08,2.42,2.42,0,0,0,.64,1.61L81,67.25A2.42,2.42,0,0,0,81.55,65.62Z"/><path class="cls-26" d="M81.54,66a4.67,4.67,0,0,0-2.18-.48,4.32,4.32,0,0,0-2.48.77,2.47,2.47,0,0,0,.57,1.07L81,67.25A2.45,2.45,0,0,0,81.54,66Z"/><path class="cls-27" d="M80.09,65.64a.91.91,0,1,0-.89,1A.92.92,0,0,0,80.09,65.64Z"/><path class="cls-19" d="M84.46,65,81.38,62.7s-4.66.46-5.23,2.2c0,0,5.53-.58,8.26.28Z"/><path class="cls-19" d="M79.54,68.41a27.68,27.68,0,0,1-3-.87s1.62,1.49,2.74,1.52A13.06,13.06,0,0,0,83,67.92Z"/><polygon class="cls-17" points="73.01 87.25 75.31 85.8 77.4 85.8 79.85 90.88 80.64 85.28 76.82 80.5 75.75 81.16 74 82.38 71.9 80.22 62.42 82.67 60.31 91.13 66.5 85.81 71.68 85.8 73.01 87.25"/><polygon class="cls-21" points="74.6 81.97 74 82.38 73.66 82.03 73.69 86.82 74.62 86.23 74.6 81.97"/><polygon class="cls-21" points="76.61 80.63 75.75 81.16 75.69 81.2 75.8 85.8 76.74 85.8 76.61 80.63"/><path class="cls-21" d="M71.15,85.8c-.07-1.71-.14-3.6-.2-5.33l-.92.24c0,1.2.09,2.7.15,4.2,0,.31,0,.61,0,.89Z"/><polygon class="cls-21" points="80.63 85.27 79.81 84.26 79.16 89.46 79.85 90.88 80.54 85.98 80.63 85.27"/><polygon class="cls-21" points="79.65 84.05 78.84 83.04 78.45 86.06 78.27 82.32 77.28 81.08 77.51 86.03 78.99 89.11 79.65 84.05"/><polygon class="cls-21" points="62.52 82.65 62.1 89.59 63.08 88.75 63.47 82.4 62.52 82.65"/><polygon class="cls-21" points="72.1 80.42 71.94 86.08 72.84 87.08 73 81.35 72.1 80.42"/><polygon class="cls-21" points="67.21 81.44 66.26 81.68 66.02 86.22 66.5 85.81 66.97 85.81 67.21 81.44"/><polygon class="cls-21" points="67.99 81.23 67.82 85.81 68.75 85.81 68.93 80.99 67.99 81.23"/><polygon class="cls-21" points="64.15 82.23 63.82 88.11 64.8 87.27 65.1 81.98 64.15 82.23"/><path class="cls-15" d="M74.24,81.88c3.46-.06,4.23-2.48,4.23-2.48s-1.6-2.79-1.69-4.09.4-6.39.4-6.39L75.4,64.28l.6,4.66-.56,5.91L77,79.29C76.71,79.71,74.24,81.88,74.24,81.88Z"/><path class="cls-15" d="M84.46,65,81.38,62.7s-4.58.45-5.21,2.16a22.89,22.89,0,0,1,4.74-1.52l3.51,1.82Z"/><path class="cls-28" d="M71.15,60.86c.64-1-.49-2.74-.49-2.74l-.31-.89c-.28,1.18-5,1.33-7,2s-6.76,4.92-6.76,4.92,3.43-1.91,5.91-2.92S71.15,60.86,71.15,60.86Z"/><path class="cls-28" d="M85.45,61.64h.23L85.9,61l-5-2.8-5.67.16.27,2.74a21.9,21.9,0,0,1,4.85-.63A12.22,12.22,0,0,1,85.45,61.64Z"/><path class="cls-19" d="M74.08,61.33c.46-1.43-1.72-5.6-1.72-5.6l1.16,4.51c.16,1-1.13,2.77-1.13,2.77A2.48,2.48,0,0,0,74.08,61.33Z"/><path class="cls-16" d="M82.62,59.18l-.05,1.52.59.13,0-1.32Z"/><path class="cls-16" d="M81.92,58.79l-.6-.33,0,2.07c.2,0,.4,0,.59.06Z"/><path class="cls-16" d="M83.8,59.85,83.71,61l.58.19.08-1Z"/><path class="cls-16" d="M84.88,60.45l-.1.9.57.24.09-.83Z"/><path class="cls-16" d="M80.68,60.49l-.29-2.26-.59,0,.29,2.25h.59Z"/><path class="cls-16" d="M76.53,58.35h-.59L76.17,61l.58-.12Z"/><path class="cls-16" d="M77.76,58.31l-.59,0,.33,2.4.59-.08Z"/><path class="cls-16" d="M79,58.27l-.59,0,.29,2.3.59-.05Z"/><path class="cls-16" d="M66,58.67l-.61.1a9.12,9.12,0,0,1,.89,1.89h.61A9,9,0,0,0,66,58.67Z"/><path class="cls-16" d="M68,59.5a10.53,10.53,0,0,0-.39-1.09l-.6.1a12.53,12.53,0,0,1,.7,2.15h.61C68.18,60.31,68.08,59.91,68,59.5Z"/><path class="cls-16" d="M68.81,58.13l-.58.14A11.14,11.14,0,0,1,69,60.7l.6,0A11.76,11.76,0,0,0,68.81,58.13Z"/><path class="cls-16" d="M70.61,59.17a11.76,11.76,0,0,0-.51-1.58,2.09,2.09,0,0,1-.52.29,13.94,13.94,0,0,1,.77,2.91l.6.05A15.5,15.5,0,0,0,70.61,59.17Z"/><path class="cls-16" d="M63,61.06l-.51-1.43-.51.31.46,1.32.1,0Z"/><path class="cls-16" d="M64.67,58.9l-.59.12.8,1.72.62-.05Z"/><path class="cls-16" d="M63.6,59.14l-.22.07-.33.13.58,1.57.59-.1Z"/><path class="cls-16" d="M59.13,62l-.46.37.29.5.52-.26Z"/><path class="cls-16" d="M57.85,63.07l-.45.38.1.2.52-.27Z"/><path class="cls-16" d="M60.16,61.21l-.47.36.38.76.52-.25Z"/><path class="cls-16" d="M61.2,60.46l-.49.34.46,1,.53-.24Z"/><path class="cls-29" d="M70,79.11l-.82.93a50.13,50.13,0,0,1,5.22.69C73.17,79.79,70,79.11,70,79.11Z"/><path class="cls-15" d="M73.39,77.91c-.2-.23-2.06-2.16-3.52-1.82s-2.39,3.8-2.39,3.8,1.77-2.55,2.6-2.84Z"/><polygon class="cls-19" points="68.39 70.31 64.7 72.84 58.89 71.84 59.98 72.56 64.83 74.76 68.39 70.31"/><polygon class="cls-20" points="49.5 68.88 51.8 71.5 50.96 67.77 49.5 68.88"/><path class="cls-30" d="M81,66.24c0-.22-.26-.4-.58-.39s-.57.19-.56.41.26.4.57.4S81,66.47,81,66.24Z"/><path class="cls-30" d="M64.48,66.53c0-.22-.27-.4-.58-.4s-.57.2-.57.42.27.4.58.39S64.48,66.75,64.48,66.53Z"/><path class="cls-31" d="M73.69,105.14l-5.44,5L49.74,96v.29l21.08,25.44Z"/><polygon class="cls-14" points="42.26 92.63 34.31 115.47 75.73 135.99 90.66 113.58 82.2 103.52 80.16 102.81 84.94 112.76 73.26 129.8 41.9 111.31 44.68 91.66 42.26 92.63"/><polygon class="cls-12" points="40.16 49.77 42.58 48.68 43.22 44.32 40.16 49.77"/></g><path class="cls-32" d="M38.64,58l-7.95,3.63s.8,17.26,15.9,17.94S38.64,58,38.64,58Z"/><path class="cls-14" d="M40.48,65.64c1.78-.78,1.64-8.26,1.64-8.26l-2.77-.23L31.74,58s-3.49-2.72-4.66-1.15.11,4.66.11,4.66l.22-.74s1.17,2.54,2.88,3.09l-.22-1.2s2.33,3.32,6,3l0-.83S38.7,66.42,40.48,65.64Z"/><path class="cls-33" d="M42.51,50.39,41,50.27C39.09,56.61,29,57.13,29,57.13,40.5,67.8,42.51,50.39,42.51,50.39Z"/><path class="cls-33" d="M32.79,42.63c-1,1.63,1.27,6.82,1.27,6.82s-1,6.79.88,10.77a4,4,0,0,0,5.46,2.24l.43-.06a4.26,4.26,0,0,1-2.59-2.47c-1.92-4-.89-10.76-.89-10.76S35,44,36.08,42.35s1.47-1.8,1.47-1.8-1.2-4.65,1-6.21c0,0,8.46-.92,12.52-4,2.62-2,7-3.3,10-3.9l0,0c-1-.33-9.24,1.14-13.3,4.21s-12.52,4-12.52,4c-2.19,1.56-1,6.21-1,6.21S33.83,41,32.79,42.63Z"/><path class="cls-33" d="M38.19,46A1.2,1.2,0,1,0,37,47.2,1.19,1.19,0,0,0,38.19,46Z"/><path class="cls-33" d="M40.06,44.56a.82.82,0,1,0-.82.82A.82.82,0,0,0,40.06,44.56Z"/><path class="cls-33" d="M38.19,43.42a.6.6,0,0,0-.6-.59.6.6,0,0,0,0,1.19A.6.6,0,0,0,38.19,43.42Z"/><path class="cls-33" d="M39,47.54a.74.74,0,1,0-.74.74A.74.74,0,0,0,39,47.54Z"/><circle class="cls-33" cx="39.21" cy="47.03" r="0.51"/><path class="cls-33" d="M39.21,49.39a.43.43,0,1,0-.85,0,.43.43,0,0,0,.85,0Z"/><path class="cls-33" d="M37.79,50.49a.91.91,0,1,0-.91.91A.91.91,0,0,0,37.79,50.49Z"/><path class="cls-33" d="M38.13,52.76a.63.63,0,1,0-.62.63A.62.62,0,0,0,38.13,52.76Z"/><path class="cls-33" d="M39,51.71a.43.43,0,0,0-.85,0,.43.43,0,1,0,.85,0Z"/><path class="cls-33" d="M40.12,53.7a.66.66,0,1,0-.65.65A.65.65,0,0,0,40.12,53.7Z"/><path class="cls-33" d="M40.74,52.2a.34.34,0,1,0-.34.34A.35.35,0,0,0,40.74,52.2Z"/><circle class="cls-33" cx="39.55" cy="49.75" r="0.62"/><path class="cls-33" d="M41.25,48.82a.54.54,0,1,0-.54.54A.54.54,0,0,0,41.25,48.82Z"/><circle class="cls-33" cx="41" cy="50.35" r="0.37"/><path class="cls-33" d="M40.86,46.86a.23.23,0,0,0-.23-.23.23.23,0,0,0-.23.23.23.23,0,0,0,.23.23A.24.24,0,0,0,40.86,46.86Z"/><path class="cls-33" d="M40,41a.47.47,0,0,0-.48-.48.48.48,0,1,0,0,1A.47.47,0,0,0,40,41Z"/><path class="cls-33" d="M38.19,54a.51.51,0,0,0-.51-.52.52.52,0,1,0,.51.52Z"/><path class="cls-33" d="M38.24,55.69a1.22,1.22,0,0,0-2.44,0,1.22,1.22,0,1,0,2.44,0Z"/><path class="cls-33" d="M36.14,42.46a.54.54,0,1,0-.54.54A.54.54,0,0,0,36.14,42.46Z"/><path class="cls-34" d="M49.07,84.79a8.73,8.73,0,0,0,6.21,6.13c2.9,4.51,8.31,6.31,8.31,6.31C59.83,93.16,58.16,75.41,56.8,72S52.54,66.89,51,62.63,48.45,41,48.45,41c-3.13-.3-4.13,6.65-4.13,6.65-3.29.46-4,5.91-4,5.91s-5.18,5.49-3,15.37S49.07,84.79,49.07,84.79Z"/><path class="cls-32" d="M46.93,79.45a30.3,30.3,0,0,1,7.48,8.39c-2.38-8-7.32-9.37-11.92-14.48-3.14-3.49-3.82-12-3.93-17a18.84,18.84,0,0,0-1.18,12.59c2.22,9.88,11.69,15.86,11.69,15.86a9.21,9.21,0,0,0,4.45,5.47l-.46-1.39C51.47,84.1,47,81.94,42.28,77A12.75,12.75,0,0,1,38.53,66.5C39.44,73.54,41.59,75.13,46.93,79.45Z"/><path class="cls-32" d="M41.13,50.7a12,12,0,0,0-.78,2.86s-.18.19-.46.56c-.3,5.29-.26,13.1,2.27,16.13C46.14,75,53.52,78.2,55,85c.88,4,1.23,6.23,1.38,7.36.05.06.11.12.16.19.13-2.11.22-7.69-1.76-12.21-2.5-5.67-8.41-9.76-10-17.25-1.4-6.61-.15-16,.16-18.08a20.21,20.21,0,0,0-.61,2.63l-.39.08a31.18,31.18,0,0,0,.62,18.66A21.48,21.48,0,0,1,41.4,56C41.27,53.79,41.19,52,41.13,50.7Z"/><path class="cls-32" d="M52.84,70.25c-3.52-5.68-5.34-10.45-5.8-15L46.14,47s-3,13.51,3.29,21.12,6.93,13.4,6.93,13.4A23.54,23.54,0,0,0,52.84,70.25Z"/><path class="cls-13" d="M57.92,25.5C53.23,29.59,44,31.63,42.34,35.89S41.29,42,41.29,42h.9a10.33,10.33,0,0,0-.3,7.32l1.36-.51s-.3,4.77,4.39,5.62S54,51.73,54,51.73v.51s4.54,1.87,10.74-1.53c0,0,5.25,2.13,9.2,1.06l3.95-.55S83.54,58,86.46,58c0,0,4.28-1.5,4.43-3.38a35.8,35.8,0,0,0,0-4.25l1.06,2a8.52,8.52,0,0,0-1.37-8l1.82,1s-1.06-6.31-5.29-7c0,0,3.63-1.7,2.42-6.3s-2.88-5.28-2.88-5.28L87,29.07s-3.63-6.3-7.87-6.64l-.15,2.05a5.79,5.79,0,0,0-6.2-3.92L65,21.07l2.57,1.19A12.58,12.58,0,0,0,57.92,25.5Z"/><path class="cls-14" d="M60.9,25.41a13.23,13.23,0,0,1,6.65-3.16,12.67,12.67,0,0,0-9.63,3.25C53.23,29.59,44,31.63,42.34,35.89S41.29,42,41.29,42h.9a10.33,10.33,0,0,0-.3,7.32l1.36-.51s-.3,4.77,4.39,5.62a6.77,6.77,0,0,0,3-.07h0c-4.69-.85-4.39-5.62-4.39-5.62l-1.36.51a10.36,10.36,0,0,1,.3-7.33h-.9s-.61-1.87,1-6.13S56.21,29.5,60.9,25.41Z"/><path class="cls-14" d="M72.74,20.56,65,21.07l2.54,1.18a10.19,10.19,0,0,1,3-.07L68,21l6.09-.4A7.62,7.62,0,0,0,72.74,20.56Z"/><path class="cls-35" d="M59.27,24.46c4,.46,9.2,1.82,10.32,5.74,0,0,2.55.17.68-3.15,0,0,2.64-.25,2.64,3.75s-5.2,5.53-5.2,5.53l5.54-.51s-1.53,5.88-6.13,7.07l4.26.85-4.77,1.79s5.11,3.75,7.92-.08c0,0,.59,5.19-3.92,6.55l-.11,0a10.36,10.36,0,0,0,3.43-.27l2.82-.39.93-2.7.18,2.54h0s.42.5,1.09,1.23l2-2.32s1.92,3.14,1.07,5.38C83.61,56.85,85.26,58,86.46,58c0,0,4.28-1.5,4.43-3.38a35.8,35.8,0,0,0,0-4.25l1.06,2a8.52,8.52,0,0,0-1.37-8l1.82,1s-1.06-6.31-5.29-7c0,0,3.63-1.7,2.42-6.3s-2.88-5.28-2.88-5.28L87,29.07s-3.63-6.3-7.87-6.64l-.15,2.05a5.79,5.79,0,0,0-6.2-3.92L65,21.07l2.57,1.19A12.29,12.29,0,0,0,59.27,24.46Z"/><path class="cls-13" d="M73.44,43.62,69.7,45.67S73.05,46.46,73.44,43.62Z"/><path class="cls-13" d="M74,40.69l-4.35,1.82S73.54,43.83,74,40.69Z"/><path class="cls-13" d="M71.42,40.69c.15,0,3-.8,3-.8l-.49-2.8Z"/><path class="cls-13" d="M75.54,40.73l-1.4,3.78C76.07,43.53,75.54,40.73,75.54,40.73Z"/><path class="cls-13" d="M75.77,46.52a6.41,6.41,0,0,1-2.08,4.31L76,49.74A5.44,5.44,0,0,0,75.77,46.52Z"/><polygon class="cls-13" points="76.3 45.69 76.94 48.26 77.63 44.44 76.3 45.69"/><path class="cls-13" d="M79.82,46.93l-1.1-1.36c.12.38.08,5,.08,5A5.78,5.78,0,0,0,79.82,46.93Z"/><path class="cls-13" d="M77.29,40.73c0,.15-1,3.21-1.67,3.74,0,0,2.08-.41,2.42-1.81Z"/><path class="cls-13" d="M71.87,34.6s1.71.53,2.8-2.16L74,29.6S74.3,33.57,71.87,34.6Z"/><polygon class="cls-13" points="73.84 35.58 75.77 35.05 75.89 33.31 73.84 35.58"/><path class="cls-13" d="M76,36.15l-1.06,3.33a2.43,2.43,0,0,0,1.66-1.93Z"/><path class="cls-13" d="M67.86,24.87l-2.27.19s3.86,1.29,4.16,3.78C69.75,28.84,70.28,26,67.86,24.87Z"/><path class="cls-13" d="M71,24.79l-.6,1s3.29.83,3.59,2.53A3.63,3.63,0,0,0,71,24.79Z"/><path class="cls-13" d="M74.67,28.16l.69,3.71.34-1.32A4.38,4.38,0,0,0,74.67,28.16Z"/><path class="cls-13" d="M77.4,34.41c.49-1.33-.68-2.92-.68-2.92a6.23,6.23,0,0,1-.12,3.37Z"/><path class="cls-13" d="M77.66,37l-.15,2.5,1-.19A3.07,3.07,0,0,0,77.66,37Z"/><path class="cls-13" d="M84.17,53.82a3.88,3.88,0,0,0-1.62-3.67,10.35,10.35,0,0,1,.68,4.47Z"/><path class="cls-14" d="M42.34,35.89C40.68,40.15,41.29,42,41.29,42h.9a10.33,10.33,0,0,0-.3,7.32l1.36-.51s-.3,4.77,4.39,5.62S54,51.73,54,51.73v.51s3.75,1.55,9.1-.73c-.26-.32-.8-.42-1.76-.1-3.58,1.19-4.94-.77-4.94-.77a2.85,2.85,0,0,0,2.55-3.15c-1.78,2.21-5.53.08-5.53.08,3.49-1.19,2.21-3.49,2.21-3.49,0,1.88-3.74,1-3.74,1l.93-4-2,1.62.86-6.56L48.9,40c-1.69-3.55.2-7.78,1.56-10.1C46.79,31.71,43.3,33.43,42.34,35.89Z"/><path class="cls-36" d="M75.11,86S87,92,90.78,98.21c0,0,3.9,1,6,.57,0,0,1.44-7.21,3.19-9,0,0-4.46-4.3-9-2.06a16.47,16.47,0,0,1,.16,5.05S81.89,86.8,75.11,86Z"/><path class="cls-37" d="M97.79,88.26c-.53,2.08-1.87,7.66-1.87,10.62a5.11,5.11,0,0,0,.82-.1s1.44-7.21,3.19-9A11.06,11.06,0,0,0,97.79,88.26Z"/><path class="cls-37" d="M96.93,88.57A83.67,83.67,0,0,0,94.8,98.88H95c.45-3.21,1.2-7.88,1.9-9.11C98,87.85,96.93,88.57,96.93,88.57Z"/><path class="cls-37" d="M93.1,98.69l.41.06.91-4.24Z"/><path class="cls-37" d="M95.29,92.77a2.08,2.08,0,0,0-.06.24Z"/><path class="cls-37" d="M94.09,98.82l.46,0c.17-1.93.45-4.81.68-5.85A48.11,48.11,0,0,0,94.09,98.82Z"/><path class="cls-36" d="M86.72,90.91l-.84-1.77c-2.54,0-1.51,3.4-1.51,3.4l1.87.12Z"/><path class="cls-38" d="M86,89.32l-.09-.18c-2.54,0-1.51,3.4-1.51,3.4h.09A3.91,3.91,0,0,1,86,89.32Z"/><path class="cls-39" d="M99.83,89.89h0l.09-.09s-4.46-4.3-9-2.06v0l0,.07A9.13,9.13,0,0,0,99.83,89.89Z"/><path class="cls-40" d="M98.48,89.53h0l.06,0a9,9,0,0,0-6.24-1.56v0l0,0A9.45,9.45,0,0,0,98.48,89.53Z"/><path class="cls-41" d="M10.68,11V116h102V11Zm93.76,97.27H18.94V18.86h85.5Z"/><path class="cls-42" d="M14.76,17.17V110h93.86V17.17Zm88.06,90.07H20.55v-87h82.27Z"/><path class="cls-3" d="M13.31,13.57v99.67h96.58V13.57Zm92.42,96.2H17.65V17.39h88.08Z"/><rect class="cls-43" x="45.24" y="127.2" width="32.9" height="14.25"/><rect class="cls-44" x="50.08" y="131.45" width="23.3" height="3.34"/><rect class="cls-45" x="50.08" y="130.59" width="23.3" height="3.34"/><rect class="cls-44" x="50.08" y="136" width="10.33" height="1.16"/><rect class="cls-45" x="50.08" y="135.7" width="10.33" height="1.16"/><rect class="cls-44" x="61.14" y="136" width="10.33" height="1.16"/><rect class="cls-45" x="61.14" y="135.7" width="10.33" height="1.16"/><rect class="cls-44" x="54.15" y="137.92" width="5.89" height="1.16"/><rect class="cls-45" x="54.15" y="137.62" width="5.89" height="1.16"/><rect class="cls-44" x="60.82" y="137.92" width="5.89" height="1.16"/><rect class="cls-45" x="60.82" y="137.62" width="5.89" height="1.16"/><rect class="cls-44" x="67.35" y="137.92" width="2.15" height="1.16"/><rect class="cls-45" x="67.35" y="137.62" width="2.15" height="1.16"/><path class="cls-45" d="M47.21,128.76a.6.6,0,0,0-.6-.6.59.59,0,0,0-.59.6.58.58,0,0,0,.59.59A.59.59,0,0,0,47.21,128.76Z"/><path class="cls-45" d="M47.21,139.72a.59.59,0,0,0-.6-.59.58.58,0,0,0-.59.59.59.59,0,0,0,.59.6A.6.6,0,0,0,47.21,139.72Z"/><path class="cls-45" d="M77.13,128.76a.59.59,0,0,0-.59-.6.6.6,0,0,0-.6.6.59.59,0,0,0,.6.59A.58.58,0,0,0,77.13,128.76Z"/><path class="cls-45" d="M77.13,139.72a.58.58,0,0,0-.59-.59.59.59,0,0,0-.6.59.6.6,0,0,0,.6.6A.59.59,0,0,0,77.13,139.72Z"/></g></g></g></svg>