<svg xmlns="http://www.w3.org/2000/svg" xmlns:xlink="http://www.w3.org/1999/xlink" viewBox="0 0 211.27 224.69"><defs><style>.cls-1{fill:none;}.cls-2{fill:#aa634d;}.cls-3{fill:#723a26;}.cls-4{fill:#875641;}.cls-5{clip-path:url(#clip-path);}.cls-6{fill:#81b1bd;}.cls-7{fill:#5d89a0;}.cls-8{fill:#9fccd6;}.cls-9{fill:#2a3831;}.cls-10{fill:#587466;}.cls-11{fill:#adc1a7;}.cls-12{fill:#9ab798;}.cls-13{fill:#6a998b;}.cls-14{fill:#3d5147;}.cls-15{fill:#afad8c;}.cls-16{fill:#939164;}.cls-17{fill:#bcbb9b;}.cls-18{fill:#d8d8c5;}.cls-19{fill:#cc7332;}.cls-20{fill:#994811;}.cls-21{fill:#f9ddbd;}.cls-22{fill:#e2c09c;}.cls-23{fill:#4aa5a0;}.cls-24{fill:#f2d3ad;}.cls-25{fill:#ffe5c0;}.cls-26,.cls-34{fill:#e2bf96;}.cls-27{fill:#b75353;}.cls-28{fill:#a03737;}.cls-29{fill:#f4d5b0;}.cls-30{fill:#8ba328;}.cls-31{fill:#020100;}.cls-32{fill:#fff;}.cls-33{fill:#9b6637;}.cls-34{opacity:0.39;}.cls-35{fill:#efe7d3;}.cls-36{fill:#937f2e;}.cls-37{fill:#776826;}.cls-38{fill:#af9b48;}</style><clipPath id="clip-path"><rect class="cls-1" x="34.98" y="24.87" width="133.96" height="133.96"/></clipPath></defs><title>cuadros_pared_Recurso 40</title><g id="Capa_2" data-name="Capa 2"><g id="Capa_1-2" data-name="Capa 1"><g id="Silencio"><rect class="cls-2" x="14.16" y="1.1" width="175.4" height="177.54"/><rect class="cls-3" x="17.55" y="4.42" width="168.64" height="170.92"/><path class="cls-4" d="M20.53,8V171.8H183.2V8ZM170,157.34H33.7V22.41H170Z"/><g class="cls-5"><rect class="cls-6" y="13.78" width="200.64" height="116.95"/><path class="cls-7" d="M57.26,48.83a14.42,14.42,0,0,0,2.56.24A13.78,13.78,0,0,0,73.4,37.61a14.79,14.79,0,0,0,7.81-5.89,16.64,16.64,0,0,0,23.69-2.33,12.53,12.53,0,0,0,2.14.18A12.26,12.26,0,0,0,119.3,17.46a3.7,3.7,0,1,0-2-7A12.27,12.27,0,0,0,102.3,6a16.63,16.63,0,0,0-25.12,5.28A14.81,14.81,0,0,0,56.82,15,32.24,32.24,0,0,0,29.57,0C26.37,0,15.5,73.35,15.5,61.37c0-.32,7.62,3.16,14.07,3.16A32.23,32.23,0,0,0,57.26,48.83Z"/><circle class="cls-8" cx="71.31" cy="93.45" r="12.43"/><circle class="cls-8" cx="87.11" cy="82.69" r="12.43" transform="translate(-23.36 35.55) rotate(-20.4)"/><circle class="cls-8" cx="103.74" cy="74.63" r="12.43" transform="translate(23.32 173.95) rotate(-86.74)"/><circle class="cls-8" cx="94.5" cy="93.61" r="12.43" transform="translate(-13.24 171.63) rotate(-80.64)"/><circle class="cls-8" cx="16.37" cy="99.49" r="5.71" transform="translate(-34.63 12.51) rotate(-21.04)"/><circle class="cls-8" cx="11" cy="99.49" r="5.71" transform="translate(-36.99 11.65) rotate(-22.34)"/><circle class="cls-8" cx="110.46" cy="60.01" r="5.71"/><circle class="cls-8" cx="136" cy="49.09" r="4.2"/><circle class="cls-8" cx="140.53" cy="44.05" r="4.2"/><circle class="cls-8" cx="145.24" cy="46.4" r="4.2" transform="translate(64.12 175.5) rotate(-75.57)"/><circle class="cls-8" cx="151.45" cy="43.55" r="4.2" transform="translate(-5.1 61.6) rotate(-22.62)"/><path class="cls-8" d="M161.37,42.37a4.2,4.2,0,1,0-4.2,4.2A4.2,4.2,0,0,0,161.37,42.37Z"/><circle class="cls-8" cx="117.18" cy="54.13" r="5.71" transform="translate(-6.39 16.83) rotate(-8)"/><circle class="cls-8" cx="127.93" cy="56.99" r="9.58" transform="translate(51.41 174.28) rotate(-80.89)"/><circle class="cls-8" cx="166.41" cy="46.91" r="9.58" transform="translate(38.13 162.82) rotate(-57.84)"/><circle class="cls-8" cx="181.7" cy="52.79" r="9.58" transform="translate(-7.21 63.47) rotate(-19.44)"/><circle class="cls-8" cx="194.3" cy="41.53" r="9.58" transform="translate(-3.37 21.41) rotate(-6.25)"/><circle class="cls-8" cx="201.69" cy="48.42" r="9.58" transform="matrix(0.13, -0.99, 0.99, 0.13, 127.35, 242.06)"/><circle class="cls-8" cx="22.59" cy="94.62" r="5.71" transform="translate(-46.68 26.32) rotate(-31.98)"/><circle class="cls-8" cx="29.48" cy="95.29" r="5.71"/><circle class="cls-8" cx="36.53" cy="93.28" r="5.71" transform="translate(-47.83 39.26) rotate(-35.98)"/><circle class="cls-8" cx="49.14" cy="96.81" r="12.43" transform="translate(-41.82 37.53) rotate(-30)"/><circle class="cls-8" cx="64.93" cy="96.47" r="12.43" transform="translate(-31.71 31.8) rotate(-22.27)"/><circle class="cls-8" cx="99.54" cy="105.04" r="12.43" transform="translate(-8.18 8.4) rotate(-4.64)"/><circle class="cls-8" cx="34.85" cy="104.87" r="12.43" transform="translate(-37.27 21.14) rotate(-22.36)"/><path class="cls-8" d="M153.43,104c20.82-1,31.69-3.19,32.75-3.53l-8-51.91c-1.07-.68-12.21-9.41-12.21-9.41s-8.48,15-8.48,13.94S136.18,41.7,136.18,41.7l-7.82,4.7-3.18-1.85L119.87,53l-13.13.68L96.4,69.08,85.52,88.91s-34.08-5.55,6.1,3.53S132.6,105,153.43,104Z"/><rect class="cls-9" x="146.59" y="78.09" width="2.68" height="19.99"/><rect class="cls-9" x="151.14" y="77.07" width="3.44" height="19.17"/><rect class="cls-9" x="157.19" y="77.48" width="1.92" height="19.85"/><rect class="cls-9" x="164.4" y="78.52" width="3.71" height="16.63"/><path class="cls-9" d="M166.46,83.37c-.27-.05-6-5.86-6-5.86l-.78.73L166,85.89l.65-2.76C166.59,83.28,166.52,83.38,166.46,83.37Z"/><path class="cls-9" d="M167.06,81.4l-.41,1.73A10.84,10.84,0,0,0,167.06,81.4Z"/><path class="cls-9" d="M132.36,57.79A2.16,2.16,0,1,0,130.2,60,2.16,2.16,0,0,0,132.36,57.79Z"/><circle class="cls-9" cx="133.19" cy="60.16" r="3.09" transform="translate(-10.29 32.39) rotate(-13.35)"/><circle class="cls-9" cx="135.89" cy="58.66" r="1.72"/><path class="cls-9" d="M138.16,62.92a2.27,2.27,0,1,0-2.27,2.27A2.27,2.27,0,0,0,138.16,62.92Z"/><path class="cls-9" d="M141.73,61.55a2.41,2.41,0,1,0-2.4,2.4A2.41,2.41,0,0,0,141.73,61.55Z"/><path class="cls-9" d="M146,66.56a4.12,4.12,0,1,0-4.12,4.12A4.12,4.12,0,0,0,146,66.56Z"/><circle class="cls-9" cx="145.31" cy="65.12" r="3.58"/><circle class="cls-9" cx="145.44" cy="61.48" r="4.95" transform="translate(-6.45 18.32) rotate(-7.05)"/><circle class="cls-9" cx="149.91" cy="60.45" r="5.84"/><circle class="cls-9" cx="154.23" cy="66.97" r="3.98" transform="translate(-11.21 36.97) rotate(-13.19)"/><circle class="cls-9" cx="151.83" cy="73.64" r="4.74"/><circle class="cls-9" cx="150.59" cy="77.9" r="3.64"/><path class="cls-9" d="M147.78,79.48a3,3,0,1,0-3,3A3,3,0,0,0,147.78,79.48Z"/><circle class="cls-9" cx="142.21" cy="76.25" r="2.54"/><path class="cls-9" d="M148.46,76.18a2.34,2.34,0,1,0-2.33,2.34A2.33,2.33,0,0,0,148.46,76.18Z"/><path class="cls-9" d="M147.91,73.23a2.41,2.41,0,1,0-2.4,2.4A2.4,2.4,0,0,0,147.91,73.23Z"/><circle class="cls-9" cx="146.95" cy="69.31" r="2.61" transform="matrix(0.95, -0.3, 0.3, 0.95, -14.1, 47.86)"/><path class="cls-9" d="M152.45,66.49a2.27,2.27,0,1,0-2.27,2.27A2.27,2.27,0,0,0,152.45,66.49Z"/><circle class="cls-9" cx="157.12" cy="79.06" r="3.43" transform="translate(33.22 203.91) rotate(-71.93)"/><circle class="cls-9" cx="162.41" cy="76.8" r="2.27" transform="translate(66.38 228.63) rotate(-83)"/><path class="cls-9" d="M164.26,76a3.64,3.64,0,1,0-3.64,3.64A3.64,3.64,0,0,0,164.26,76Z"/><circle class="cls-9" cx="169" cy="77.76" r="2.4" transform="translate(71.22 236.02) rotate(-83)"/><path class="cls-9" d="M170.72,78.79a3.3,3.3,0,1,0-3.3,3.3A3.3,3.3,0,0,0,170.72,78.79Z"/><circle class="cls-9" cx="172.65" cy="87.03" r="4.53"/><circle class="cls-9" cx="172.78" cy="84.29" r="4.26"/><circle class="cls-9" cx="176.42" cy="80.64" r="4.47"/><path class="cls-9" d="M174.43,81.88a3.51,3.51,0,1,0-3.5,3.51A3.5,3.5,0,0,0,174.43,81.88Z"/><path class="cls-9" d="M178.14,77.21a4.06,4.06,0,1,0-4,4.05A4,4,0,0,0,178.14,77.21Z"/><path class="cls-9" d="M167.56,76.87a2.34,2.34,0,1,0-2.33,2.33A2.33,2.33,0,0,0,167.56,76.87Z"/><circle class="cls-9" cx="159.66" cy="70.2" r="7.76" transform="translate(-11.96 39.09) rotate(-13.46)"/><circle class="cls-9" cx="174.16" cy="67.39" r="9.89"/><path class="cls-9" d="M161.65,56.6a3.92,3.92,0,1,0-3.91,3.92A3.92,3.92,0,0,0,161.65,56.6Z"/><circle class="cls-9" cx="158.91" cy="63.54" r="6.32" transform="translate(86.32 218.52) rotate(-86.7)"/><path class="cls-9" d="M168,59.76a3.16,3.16,0,1,0-3.16,3.16A3.15,3.15,0,0,0,168,59.76Z"/><circle class="cls-9" cx="164.26" cy="56.81" r="2.89"/><path class="cls-9" d="M169.62,56.32a1.44,1.44,0,1,0-1.44,1.45A1.44,1.44,0,0,0,169.62,56.32Z"/><path class="cls-9" d="M173.74,57.49A2.47,2.47,0,1,0,171.27,60,2.47,2.47,0,0,0,173.74,57.49Z"/><path class="cls-9" d="M140.36,64.36a1.93,1.93,0,1,0-1.93,1.93A1.93,1.93,0,0,0,140.36,64.36Z"/><path class="cls-9" d="M137.06,65.39a2.41,2.41,0,1,0-2.41,2.41A2.41,2.41,0,0,0,137.06,65.39Z"/><path class="cls-9" d="M138.57,67.39a1.38,1.38,0,1,0-1.37,1.37A1.38,1.38,0,0,0,138.57,67.39Z"/><path class="cls-9" d="M179.52,56.19a3,3,0,1,0-3,3A3,3,0,0,0,179.52,56.19Z"/><circle class="cls-9" cx="170.1" cy="62.37" r="5.29" transform="translate(35.03 183.12) rotate(-61.93)"/><path class="cls-9" d="M129.64,58.18a1.24,1.24,0,1,0-1.24,1.24A1.24,1.24,0,0,0,129.64,58.18Z"/><circle class="cls-9" cx="140.02" cy="70.27" r="1.85" transform="translate(21.33 172.52) rotate(-67.39)"/><path class="cls-9" d="M145.18,69.09a1.6,1.6,0,1,0-1.6,1.6A1.6,1.6,0,0,0,145.18,69.09Z"/><path class="cls-9" d="M151.36,81.27a1.79,1.79,0,1,0-1.79,1.79A1.79,1.79,0,0,0,151.36,81.27Z"/><path class="cls-9" d="M160.74,80a.88.88,0,1,0-.88.88A.88.88,0,0,0,160.74,80Z"/><path class="cls-9" d="M185,82.18a3.14,3.14,0,1,0-3.14,3.14A3.15,3.15,0,0,0,185,82.18Z"/><polygon class="cls-9" points="142.5 93.76 129.05 90.4 94.44 94.44 83.68 92.42 46.71 101.49 211.05 103.17 195.93 85.7 142.5 93.76"/><path class="cls-10" d="M4.71,94.1v80H195.59v-80h-1.23v.1a3.27,3.27,0,0,1-6.24,1.39,3.29,3.29,0,0,1-3,1.89A3.25,3.25,0,0,1,182.41,96a3.28,3.28,0,0,1-5.72-.4,3.27,3.27,0,0,1-5.88.11,3.27,3.27,0,0,1-5.88-.11,3.27,3.27,0,0,1-5.71.4,3.27,3.27,0,0,1-5.71-.4,3.3,3.3,0,0,1-3,1.89,3.26,3.26,0,0,1-2.8-1.58,3.28,3.28,0,0,1-5.77-.31,3.29,3.29,0,0,1-3,1.89A3.25,3.25,0,0,1,136.26,96a3.28,3.28,0,0,1-5.72-.4,3.27,3.27,0,0,1-5.88.11,3.27,3.27,0,0,1-5.88-.11,3.27,3.27,0,0,1-5.71.4,3.27,3.27,0,0,1-5.71-.4,3.28,3.28,0,0,1-5.72.4,3.25,3.25,0,0,1-2.74,1.49,3.29,3.29,0,0,1-3-1.89,3.27,3.27,0,0,1-5.71.4,3.27,3.27,0,0,1-5.71-.4,3.28,3.28,0,0,1-5.89.11,3.26,3.26,0,0,1-2.91,1.78,3.3,3.3,0,0,1-3-1.89A3.27,3.27,0,0,1,67,96a3.27,3.27,0,0,1-5.71-.4,3.28,3.28,0,0,1-5.77.31,3.26,3.26,0,0,1-2.8,1.58,3.29,3.29,0,0,1-3-1.89,3.27,3.27,0,0,1-5.71.4,3.27,3.27,0,0,1-5.71-.4,3.3,3.3,0,0,1-3,1.89,3.26,3.26,0,0,1-2.91-1.78,3.28,3.28,0,0,1-5.89-.11,3.27,3.27,0,0,1-5.71.4,3.27,3.27,0,0,1-5.71-.4A3.28,3.28,0,0,1,8.92,94.2s0-.07,0-.1Z"/><path class="cls-11" d="M4.71,102.73v80H195.59v-80h-1.23v.1a3.27,3.27,0,0,1-6.24,1.39,3.27,3.27,0,0,1-5.71.4,3.28,3.28,0,0,1-5.72-.4,3.27,3.27,0,0,1-5.88.11,3.27,3.27,0,0,1-5.88-.11,3.27,3.27,0,0,1-5.71.4,3.27,3.27,0,0,1-5.71-.4,3.3,3.3,0,0,1-3,1.89,3.26,3.26,0,0,1-2.8-1.58,3.28,3.28,0,0,1-5.77-.31,3.27,3.27,0,0,1-5.71.4,3.28,3.28,0,0,1-5.72-.4,3.27,3.27,0,0,1-5.88.11,3.27,3.27,0,0,1-5.88-.11,3.27,3.27,0,0,1-5.71.4,3.27,3.27,0,0,1-5.71-.4,3.28,3.28,0,0,1-5.72.4,3.27,3.27,0,0,1-5.71-.4,3.27,3.27,0,0,1-5.71.4,3.27,3.27,0,0,1-5.71-.4,3.28,3.28,0,0,1-5.89.11,3.26,3.26,0,0,1-2.91,1.78,3.3,3.3,0,0,1-3-1.89,3.27,3.27,0,0,1-5.71.4,3.27,3.27,0,0,1-5.71-.4,3.28,3.28,0,0,1-5.77.31,3.26,3.26,0,0,1-2.8,1.58,3.29,3.29,0,0,1-3-1.89,3.27,3.27,0,0,1-5.71.4,3.27,3.27,0,0,1-5.71-.4,3.3,3.3,0,0,1-3,1.89,3.26,3.26,0,0,1-2.91-1.78,3.28,3.28,0,0,1-5.89-.11,3.27,3.27,0,0,1-5.71.4,3.27,3.27,0,0,1-5.71-.4,3.28,3.28,0,0,1-6.25-1.39s0-.07,0-.1Z"/><path class="cls-12" d="M4.71,109.11v80H195.59v-80h-1.23v.11a3.27,3.27,0,0,1-6.24,1.38,3.27,3.27,0,0,1-5.71.4,3.28,3.28,0,0,1-5.72-.4,3.28,3.28,0,0,1-5.88.12,3.28,3.28,0,0,1-5.88-.12,3.27,3.27,0,0,1-5.71.4,3.27,3.27,0,0,1-5.71-.4,3.28,3.28,0,0,1-5.77.32,3.28,3.28,0,0,1-5.77-.32,3.27,3.27,0,0,1-5.71.4,3.28,3.28,0,0,1-5.72-.4,3.28,3.28,0,0,1-5.88.12,3.28,3.28,0,0,1-5.88-.12,3.27,3.27,0,0,1-5.71.4,3.27,3.27,0,0,1-5.71-.4,3.28,3.28,0,0,1-5.72.4,3.27,3.27,0,0,1-5.71-.4,3.27,3.27,0,0,1-5.71.4,3.27,3.27,0,0,1-5.71-.4,3.29,3.29,0,0,1-5.89.12,3.28,3.28,0,0,1-5.88-.12A3.27,3.27,0,0,1,67,111a3.27,3.27,0,0,1-5.71-.4,3.28,3.28,0,0,1-5.77.32,3.28,3.28,0,0,1-5.77-.32,3.27,3.27,0,0,1-5.71.4,3.27,3.27,0,0,1-5.71-.4,3.28,3.28,0,0,1-5.88.12,3.29,3.29,0,0,1-5.89-.12,3.27,3.27,0,0,1-5.71.4,3.27,3.27,0,0,1-5.71-.4,3.28,3.28,0,0,1-6.25-1.38s0-.07,0-.11Z"/><polygon class="cls-9" points="166.02 107.21 155.94 113.59 137.79 121.32 195.93 124.01 197.61 110.23 166.02 107.21"/><path class="cls-13" d="M4.71,116.06v80H195.59v-80h-1.23v.1a3.27,3.27,0,0,1-6.24,1.39,3.27,3.27,0,0,1-5.71.4,3.28,3.28,0,0,1-5.72-.4,3.27,3.27,0,0,1-5.88.11,3.27,3.27,0,0,1-5.88-.11,3.27,3.27,0,0,1-5.71.4,3.27,3.27,0,0,1-5.71-.4,3.3,3.3,0,0,1-3,1.89,3.26,3.26,0,0,1-2.8-1.58,3.28,3.28,0,0,1-5.77-.31,3.27,3.27,0,0,1-5.71.4,3.28,3.28,0,0,1-5.72-.4,3.27,3.27,0,0,1-5.88.11,3.27,3.27,0,0,1-5.88-.11,3.27,3.27,0,0,1-5.71.4,3.27,3.27,0,0,1-5.71-.4,3.28,3.28,0,0,1-5.72.4,3.27,3.27,0,0,1-5.71-.4,3.27,3.27,0,0,1-5.71.4,3.27,3.27,0,0,1-5.71-.4,3.28,3.28,0,0,1-5.89.11,3.27,3.27,0,0,1-5.88-.11A3.27,3.27,0,0,1,67,118a3.27,3.27,0,0,1-5.71-.4,3.28,3.28,0,0,1-5.77.31,3.26,3.26,0,0,1-2.8,1.58,3.29,3.29,0,0,1-3-1.89,3.27,3.27,0,0,1-5.71.4,3.27,3.27,0,0,1-5.71-.4,3.27,3.27,0,0,1-5.88.11,3.28,3.28,0,0,1-5.89-.11,3.27,3.27,0,0,1-5.71.4,3.27,3.27,0,0,1-5.71-.4,3.28,3.28,0,0,1-6.25-1.39s0-.07,0-.1Z"/><path class="cls-10" d="M4.71,131.07v80H195.59v-80h-1.23v.1a3.27,3.27,0,0,1-6.24,1.39,3.27,3.27,0,0,1-5.71.4,3.28,3.28,0,0,1-5.72-.4,3.27,3.27,0,0,1-5.88.11,3.27,3.27,0,0,1-5.88-.11,3.27,3.27,0,0,1-5.71.4,3.27,3.27,0,0,1-5.71-.4,3.3,3.3,0,0,1-3,1.89,3.26,3.26,0,0,1-2.8-1.58,3.28,3.28,0,0,1-5.77-.31,3.27,3.27,0,0,1-5.71.4,3.28,3.28,0,0,1-5.72-.4,3.27,3.27,0,0,1-5.88.11,3.27,3.27,0,0,1-5.88-.11,3.27,3.27,0,0,1-5.71.4,3.27,3.27,0,0,1-5.71-.4,3.28,3.28,0,0,1-5.72.4,3.27,3.27,0,0,1-5.71-.4,3.27,3.27,0,0,1-5.71.4,3.27,3.27,0,0,1-5.71-.4,3.28,3.28,0,0,1-5.89.11,3.27,3.27,0,0,1-5.88-.11A3.27,3.27,0,0,1,67,133a3.27,3.27,0,0,1-5.71-.4,3.28,3.28,0,0,1-5.77.31,3.26,3.26,0,0,1-2.8,1.58,3.29,3.29,0,0,1-3-1.89,3.27,3.27,0,0,1-5.71.4,3.27,3.27,0,0,1-5.71-.4,3.27,3.27,0,0,1-5.88.11,3.28,3.28,0,0,1-5.89-.11,3.27,3.27,0,0,1-5.71.4,3.27,3.27,0,0,1-5.71-.4,3.28,3.28,0,0,1-6.25-1.39s0-.07,0-.1Z"/><polygon class="cls-9" points="155.21 132.75 141.38 142.71 116.51 154.77 196.21 158.96 198.51 137.47 155.21 132.75"/><path class="cls-14" d="M4.71,144.7v80H195.59v-80h-1.23v.1a3.27,3.27,0,0,1-6.24,1.39,3.29,3.29,0,0,1-3,1.89,3.25,3.25,0,0,1-2.74-1.49,3.28,3.28,0,0,1-5.72-.4,3.27,3.27,0,0,1-5.88.11,3.27,3.27,0,0,1-5.88-.11,3.27,3.27,0,0,1-5.71.4,3.27,3.27,0,0,1-5.71-.4,3.3,3.3,0,0,1-3,1.89,3.26,3.26,0,0,1-2.8-1.58,3.28,3.28,0,0,1-5.77-.31,3.29,3.29,0,0,1-3,1.89,3.25,3.25,0,0,1-2.74-1.49,3.28,3.28,0,0,1-5.72-.4,3.27,3.27,0,0,1-5.88.11,3.27,3.27,0,0,1-5.88-.11,3.27,3.27,0,0,1-5.71.4,3.27,3.27,0,0,1-5.71-.4,3.28,3.28,0,0,1-5.72.4,3.25,3.25,0,0,1-2.74,1.49,3.29,3.29,0,0,1-3-1.89,3.27,3.27,0,0,1-5.71.4,3.27,3.27,0,0,1-5.71-.4,3.28,3.28,0,0,1-5.89.11,3.26,3.26,0,0,1-2.91,1.78,3.3,3.3,0,0,1-3-1.89,3.27,3.27,0,0,1-5.71.4,3.27,3.27,0,0,1-5.71-.4,3.28,3.28,0,0,1-5.77.31,3.26,3.26,0,0,1-2.8,1.58,3.29,3.29,0,0,1-3-1.89,3.27,3.27,0,0,1-5.71.4,3.27,3.27,0,0,1-5.71-.4,3.3,3.3,0,0,1-3,1.89,3.26,3.26,0,0,1-2.91-1.78,3.28,3.28,0,0,1-5.89-.11,3.27,3.27,0,0,1-5.71.4,3.27,3.27,0,0,1-5.71-.4,3.28,3.28,0,0,1-6.25-1.39s0-.07,0-.1Z"/><path class="cls-15" d="M47.25,118.73c0,.16-.1.32-.14.49C44,130.29,58.87,135.83,58.87,135.83l9.24,3.24,41.07,3.55,9.21-.42,12.27-1.88A24.22,24.22,0,0,0,141.27,136c-.06-2.33,3.67-5,5.19-6a10.21,10.21,0,0,0,.54-7.76c-4.17-3.23-4.1-4.66-3.45-5.28a40.42,40.42,0,0,0-8.08-6.45c-3.76-.24-7.17-3.13-8.24-4.24q-2.83-1.2-6-2.24l-.31.05c-2.42.32-5.49-.93-8.06-2.35a113.55,113.55,0,0,0-11.8-2C96,101.83,85.5,99.3,85.5,99.3c-1.81,1.18-6.29-.29-6.29-.29a3,3,0,0,1-1.89,1.4c-1.2.36-4.9-.19-6-.36l-.26,0c0,.23-.18.81-2.88,1.36a16.54,16.54,0,0,1-3.48.35,35,35,0,0,0-5,2.15,4.29,4.29,0,0,1-1.15,2.2c-1.32,1.51-4.81,3.32-7.07,4.4a24.12,24.12,0,0,0-1.56,2.19,5.58,5.58,0,0,1-.7,4.27A4.92,4.92,0,0,1,47.25,118.73Z"/><path class="cls-16" d="M98.44,126.32,95,125.9s-7.79,2.3-9.79,5.23,9.79,8,17.11,8.67S111.78,129.14,98.44,126.32Z"/><path class="cls-16" d="M85.82,99.37c-.22,11.55.39,27.23,4.72,35.52,0,0,0-22.55,5-34.35A48,48,0,0,1,85.82,99.37Z"/><path class="cls-16" d="M64.53,101.87l-.26.09-.32.12-.36.13-.3.12-.38.15-.27.11-.39.16-.24.11-.41.18-.21.09-.42.2-.18.08-.44.22-.14.07-.47.24,0,0a2.86,2.86,0,0,1-.2.71c4.23,10.25,11.77,26,20.88,33.77C80.39,138.44,67.23,117.51,64.53,101.87Z"/><path class="cls-16" d="M140.68,136.4l.21-.14.33-.24.05,0c-.06-2.33,3.66-5,5.19-6l0-.09,0,0c.07-.15.14-.3.2-.46v0c-14.08-.1-28.6,1.13-30.94,6.4,0,0,13.64-2.17,24.87.7Z"/><path class="cls-16" d="M47.72,118.46C54.89,124,66.58,133.17,74,139.07c.26.19.5.38.73.57l3.67.32L50.6,111.75l-.05.07-.41.61-.07.1-.14.22a5.58,5.58,0,0,1-.7,4.27A4.36,4.36,0,0,1,47.72,118.46Z"/><path class="cls-16" d="M106.82,134.47s16.19-11.4,40.45-11.34v0a1.82,1.82,0,0,0-.07-.25l0-.09-.07-.25,0-.06-.09-.27c-4-3.08-4.09-4.52-3.53-5.19C132.41,119.73,116.06,125.12,106.82,134.47Z"/><path class="cls-16" d="M77.32,100.41c-1.2.36-4.9-.19-6-.36h0c2.13,12.17,6.08,28,13.08,37.34,0,0-7.66-24.82-5.15-38.39A3,3,0,0,1,77.32,100.41Z"/><path class="cls-16" d="M127.23,106.2l0,0h0c-7,3.95-14.6,10.87-19.4,23.07,0,0,11-15.37,27.7-18.81C131.71,110.2,128.3,107.32,127.23,106.2Z"/><path class="cls-16" d="M121.23,104l-.31.05c-2.42.32-5.49-.93-8.06-2.35l-.16,0-1-.23-.39-.08-1-.21-.27,0-1.21-.23-.46-.09-.85-.15-.49-.08-1.16-.19-8.91,24.33L93.05,134l6.77,6.3S107.42,112.69,121.23,104Z"/><path class="cls-17" d="M131.8,140.37l-13.63-3.13s-5.66,4.39-9.56,2.66a23.26,23.26,0,0,1-4.6-2.35l-5.13,1.26.17,4.07C99.59,143.19,112.68,148.36,131.8,140.37Z"/><path class="cls-18" d="M131.8,140.37l-13.63-3.13s-5.66,4.39-9.56,2.66a23.26,23.26,0,0,1-4.6-2.35l-5.13,1.26.12,2.78c3.89,1.35,11.5,3.54,15.1,1.6,5-2.66,4.78-4.23,4.78-4.23a60,60,0,0,0,11.21,2.1Z"/><path class="cls-18" d="M98.35,138c-.53.16-14-.62-14-.62l-1.94-3.76s-15.4,4.85-23.55,2.19c0,0,21.95,8.77,33.64,7.36Z"/><path class="cls-17" d="M65.3,138.15c7.4,2.49,19.52,6,27.21,5l2.38-2.11-15.29-.8.16-3.2C76.91,138.81,70.8,138.7,65.3,138.15Z"/><path class="cls-19" d="M99.19,137.57c-1.18-2.09-2.44-.8-2.44-.8s-3.54,4.54-12.39,5.8c0,0,14.16,3.91,23.72,1.72C108.08,144.29,100.37,139.66,99.19,137.57Z"/><path class="cls-20" d="M94.85,144.55l.85.09.89-3.94Z"/><path class="cls-20" d="M91.43,144.06l1.25.2c.77-1,2.89-3.35,2.89-3.35Z"/><path class="cls-20" d="M99.82,140.28l1.92,4.68c.55,0,1.09,0,1.62-.05Z"/><path class="cls-20" d="M98.72,139.94l.63,5,1.2,0Z"/><path class="cls-20" d="M96.73,144.74l1.53.12-.56-4.3Z"/><path class="cls-20" d="M88.25,143.47c.58.12,1.23.25,1.91.37l4.39-3.21Z"/><path class="cls-20" d="M101,140.7l3.4,4.14c.51,0,1-.1,1.51-.16Z"/><path class="cls-20" d="M85.77,142.92c.57.14,1.29.3,2.14.48l6.17-3.46Z"/><path class="cls-21" d="M98,130.86a8.68,8.68,0,0,0,2.78,1.92c1.46.53,1.39,2.18,2,2.65a14.41,14.41,0,0,0,3,1l.93-.86a23.66,23.66,0,0,1-2.72-3.51,15.2,15.2,0,0,1-1.59-3.29c-.44-1.41,1.77-5.3,3.09-10.59a53.12,53.12,0,0,0,1.24-11.66l-5.52,2-2.52,8.94a65.54,65.54,0,0,1,.73,8.8A8.75,8.75,0,0,1,98,130.86Z"/><path class="cls-21" d="M113.39,80,99.6,83.45l1,19.14s1.66,8.21,4.37,7.94,2.53-3.46,2.53-3.46C117.89,99.63,113.39,80,113.39,80Z"/><path class="cls-22" d="M102.13,100.24c-.06.15-.07.22,0,.19S102.15,100.35,102.13,100.24Z"/><path class="cls-22" d="M108.14,97.43a7,7,0,0,0,4,3.9c2.43-5.22,2.42-11.72,2-16.16-5,.45-12,1.2-14.36,2.1l.44,8.14c.87,2.23,1.77,4.21,1.89,4.83C102.62,99,106.61,92.73,108.14,97.43Z"/><path class="cls-22" d="M101.3,108.26c.87,0,2.73-2.79,2.73-2.79s4.54-17,3.26-23.72-2.38-7-2.38-7L98.1,73.36l-1.17,3.77s-1.65,4.29-1.87,12.28,3.72,16.44,3.72,16.44S100.42,108.26,101.3,108.26Z"/><path class="cls-19" d="M122.49,69.19s2.8-6.66,1.07-9.46-2.47-2.22-3.12-6.49-10.2-6.66-10.2-6.66l-6.9,13.32s3.12,25,3.53,28.19,14.22,4.52,16.44-2.55-3.2-15-3.2-15.29a25.18,25.18,0,0,1,1.64-2.63Z"/><path class="cls-23" d="M112.93,48.44c.5-1.36-1.25-1.71-1.25-1.71l-3,3.16,1.83.84A5.42,5.42,0,0,0,112.93,48.44Z"/><path class="cls-19" d="M112.39,47.76a1.34,1.34,0,0,0-.93-1.53l-3.73,3.32a9,9,0,0,0,1.76,1.23S112.14,48.92,112.39,47.76Z"/><path class="cls-23" d="M111.94,47.59c.82-1.2-.78-2-.78-2l-3.74,2.31L109,49.19A5.42,5.42,0,0,0,111.94,47.59Z"/><path class="cls-19" d="M111.61,46.35a2.88,2.88,0,0,0-2-2.22l-2.39,3.13,1.65,1.48S111.86,47.83,111.61,46.35Z"/><path class="cls-23" d="M110,45.57a2.63,2.63,0,0,0,.76-2.35l-7.53-.55-1,1s-1.59,1.2,2.41,4.11,2.76-1.67,2.76-1.67A2.31,2.31,0,0,0,110,45.57Z"/><path class="cls-19" d="M110.42,43.35c.29-2.71-1.07-2.5-1.19-2.42l-2,1.23V46S110.13,46.07,110.42,43.35Z"/><path class="cls-19" d="M111.71,32.45c-.44-.27-6.55.18-6.68.18L106.25,39a13.17,13.17,0,0,0,2.47,3.46c2,2.27,6.37-1.33,7.15,1s3.51,4,5,3.27,2.44.2,3.44,2,2.17.93,2.17.93c-1.47.05.13-2.13-.52-4.4s-3.12-1.78-4.42-1.6-2-.44-2.52-2.8-3.29-1.91-4.9-1.51-2.34-2.89-2.34-2.89a1.44,1.44,0,0,0,1.74.71c1.17-.4,2-.66,2.38.36s1.56.58,2.82.22a1.22,1.22,0,0,1,1.6.76,1.8,1.8,0,0,0-.65-1.25c-.6-.44-1.08.31-2.08-.18s.18-.89-1-1.55-3,.53-2.69-.89S112.14,32.72,111.71,32.45Z"/><path class="cls-19" d="M98.39,36.6a2.63,2.63,0,0,1-.06-.27A.94.94,0,0,0,98.39,36.6Z"/><path class="cls-19" d="M100.38,41.92c.39,1.64,3.46,3.54,3.46,3.54l2.5,1.72-1-12.82s-.09-2.52-.88-3.49a2.26,2.26,0,0,0-3.42.35,5,5,0,0,1-2.5,2.08c-.91.48-.8,1.78-.71,2.34-.05-1,1.85-1,1.85-1a2.9,2.9,0,0,0,.4,5.3A4.75,4.75,0,0,0,100.38,41.92Z"/><path class="cls-24" d="M105.24,43.5l-2.71,4.38-3.94,3.2,8.63,5s5.73-4.2,5.42-5-4.56-3.57-4.56-3.57l1.29-6.29Z"/><path class="cls-19" d="M113.27,29.53c-2.13,0-2,1.82-3.21,1.42s-2.34-1.86-4.68-1.46-1.78,3.29-1.78,3.29L107.28,34s3.21.84,4.3.22.47-1.73,1.47-2.18.91.54,2.17,1.56,3.12-.4,3.42-1.24,2-.18,2-.18-1.6-1.42-2.6-.36-2.56.31-2.17-.31S115.39,29.53,113.27,29.53Z"/><path class="cls-21" d="M115.5,72c2.06,1.23,3-2.38,2.39-4.19s-3.29-10.94-3.7-13a11.26,11.26,0,0,0-1.55-3.72l-3.79-1.62,1.39,10.77S113.45,70.75,115.5,72Z"/><path class="cls-24" d="M97.33,79.38,104.81,86s10.82-2.63,10.45-9a21.82,21.82,0,0,0-4.09-11.13l.89-5.06a3.84,3.84,0,0,0,1.17-2.83,3.39,3.39,0,0,0-1.17-2.16l.5-4.26s-4.06-3.32-4.28-3.39l-9.16,3s-.53,3.14-1.35,8.73c-.07.52-.14,1.11-.19,1.76.27,1.71,1.24,7,1.24,7l-1.51,9.78C97.32,79,97.33,79.38,97.33,79.38Z"/><path class="cls-22" d="M107.9,56.11l-.37-1.6-4.64,4.89-3.83,4.44,3.29,3c0-.24,3-5.87,3-5.87l5.18-.5a2,2,0,0,0,1.55.3l0-.09a3.84,3.84,0,0,0,1.17-2.83l0-.18a7.1,7.1,0,0,1-3.33-.12s-1.52-.19-1.74-.2c.26-.11,2.36-2,2.36-2Z"/><path class="cls-22" d="M97.33,79.38,104.81,86a23.91,23.91,0,0,0,3.76-1.32c-10.93-4.54-4.49-16.18-4.49-16.18-.33-1.4-2-7-2-7a4.58,4.58,0,0,0,3.28-2.39,3.77,3.77,0,0,1-3.37.66c-1.72-.66-.24-6.49-.24-6.49a2.32,2.32,0,0,1,1.81-.74c1.23,0,.74,1.31,2.54,1.31a2.58,2.58,0,0,0,2.39-1.64,6.08,6.08,0,0,1-2.83-3.24l-6.57,2.15s-.53,3.14-1.35,8.73c-.07.52-.14,1.11-.19,1.76.27,1.71,1.24,7,1.24,7l-1.51,9.78C97.32,79,97.33,79.38,97.33,79.38Z"/><path class="cls-22" d="M105.24,43.5l-2.71,4.38-2.78,2.25c3.4.45,9.18,1.17,7.29.64s-1.91-5.16-1.75-7.29Z"/><path class="cls-24" d="M98.39,48.89s-2.06.74-2.67,1.84S92.39,67.2,92.78,68s2.11,2.15,2.89,1.11,3.61-9.44,3.89-11.53a24.07,24.07,0,0,0,0-4.5l1-1.36Z"/><path class="cls-22" d="M100.24,52.18l.1-.15-2.35-3a5.08,5.08,0,0,0-2.27,1.68C95.11,51.84,92.39,67.2,92.78,68a2.65,2.65,0,0,0,.52.67l2.26-1.1s-1.85-3.4.49-9.81C97.91,52.66,99.62,52.17,100.24,52.18Z"/><path class="cls-19" d="M99.76,46.34s-3.89.55-2.9,2.89,3.72,3.85,5.61,2.73,1.29.63,2.85,1,1.73-1.29,2.74-.57.58,1.15,1.24,1.39,3.34-.37,3.34-.37-3.08.13-3.08-.78-.29-2.46-1.73-2.26-2.67.91-2.67-.45S103.8,47.79,102,48c-1.16.15-.36-1.32.4-2.43-.71-1.09-.31-1.68-.15-1.85C101.22,44.22,99.67,45.15,99.76,46.34Z"/><path class="cls-19" d="M103.35,46.5a5,5,0,0,1-1.74-2l-.85.34L100,48.41S103,48.86,103.35,46.5Z"/><path class="cls-19" d="M100.24,34.29c.12-.12,0-1.73-1.81,0s-.08,3.9-.08,3.9l.74-.94S100.11,34.41,100.24,34.29Z"/><path class="cls-25" d="M109.22,42.36c.41-1.09.83-2.58,0-3.39-1-.94-.48-4.22-1.19-5.12s-4.22-1-4.22-1c-.1.48-1,.91-2,1.57a5.52,5.52,0,0,0-1.44,2.5c.25.94,2.33,7.5,5.39,8.18C105.75,45.1,108,46.1,109.22,42.36Z"/><path class="cls-26" d="M104.33,40a4.33,4.33,0,0,0,.08-1.42c-.11-.59-1-1.14-1-1.14l-1.6.3C103.43,37.41,104.33,40,104.33,40Z"/><path class="cls-26" d="M105.46,42a1.05,1.05,0,0,1-1.19-.93l0,.67C104.53,42.37,105.46,42,105.46,42Z"/><path class="cls-27" d="M106.75,42.54l-.38.12h-.51l-.36.25-.48,0-.34.12-.32.11a1.72,1.72,0,0,0,1.43.3A1.14,1.14,0,0,0,106.75,42.54Z"/><path class="cls-28" d="M105.81,42.78Z"/><path class="cls-28" d="M105.52,43c.19,0,.28-.25.29-.26h0s0,0,.39,0a.88.88,0,0,0,.63-.3,2,2,0,0,1-1,0,.72.72,0,0,1-.81.21c-.16,0-.66.4-.66.4A3.77,3.77,0,0,0,105,43,1.41,1.41,0,0,0,105.52,43Z"/><path class="cls-29" d="M105.44,43.88l.83-.21A.6.6,0,0,0,105.44,43.88Z"/><path class="cls-29" d="M103.64,38.89l.1,0-.1,0Z"/><path class="cls-29" d="M103.64,38.89c-1.62-.84-1.87.59-1.87.59C102.33,38.54,103.62,38.88,103.64,38.89Z"/><path class="cls-30" d="M103.23,39.46a.45.45,0,0,0-.45-.45.45.45,0,1,0,0,.9A.45.45,0,0,0,103.23,39.46Z"/><path class="cls-31" d="M103,39.46a.22.22,0,0,0-.22-.22.22.22,0,1,0,0,.44A.22.22,0,0,0,103,39.46Z"/><path class="cls-32" d="M102.78,39.64a.13.13,0,0,0-.14-.13.13.13,0,0,0-.13.13.13.13,0,0,0,.13.14A.14.14,0,0,0,102.78,39.64Z"/><path class="cls-31" d="M101.87,39.57c.58-.68,1.91-.44,1.93-.43C102.13,38.53,101.87,39.57,101.87,39.57Z"/><path class="cls-31" d="M103.8,39.14l.1,0-.1,0Z"/><path class="cls-33" d="M100.9,38.33s2.18-1.23,3.11-.47C104,37.86,103.18,36.36,100.9,38.33Z"/><path class="cls-29" d="M107.66,38.23l.1.05-.1-.05Z"/><path class="cls-29" d="M107.66,38.23c-1.62-.83-1.87.6-1.87.6C106.35,37.89,107.64,38.23,107.66,38.23Z"/><path class="cls-30" d="M107.25,38.81a.45.45,0,0,0-.45-.45.45.45,0,1,0,0,.9A.45.45,0,0,0,107.25,38.81Z"/><path class="cls-31" d="M107,38.81a.22.22,0,0,0-.22-.22.22.22,0,1,0,0,.44A.22.22,0,0,0,107,38.81Z"/><path class="cls-32" d="M106.8,39a.13.13,0,0,0-.14-.13.13.13,0,0,0,0,.26A.13.13,0,0,0,106.8,39Z"/><path class="cls-31" d="M105.89,38.91c.58-.68,1.91-.43,1.93-.43C106.15,37.88,105.89,38.91,105.89,38.91Z"/><path class="cls-31" d="M107.82,38.48l.1,0-.1,0Z"/><path class="cls-33" d="M105.26,37.08v.33a6.85,6.85,0,0,1,1.88-.52,3.34,3.34,0,0,1,1.58.54C107.35,35.87,105.26,37.08,105.26,37.08Z"/><path class="cls-34" d="M108.75,40.56a.85.85,0,1,0-.84.84A.85.85,0,0,0,108.75,40.56Z"/><path class="cls-34" d="M103.74,41.68a.84.84,0,0,0-1.61-.33c.21.4.43.79.67,1.16h.1A.84.84,0,0,0,103.74,41.68Z"/><path class="cls-21" d="M110.72,55.11s-6,1.17-7.09,2.16-9.43,8.51-9.43,8.51L92.91,67.2c-1.24,1-.25,3.51-.25,3.51a7,7,0,0,0,2.77.55c.93-.18,8.76-10.48,8.76-10.48s1.72-.37,2-.37l4.69.13.06-.62-2.65-.43,2.83-.19.13-.49-4-.43c.49-.19,4.44-.86,4.44-.86l-.06-.25c-1.11-.43-4.93,0-4.93,0l4.19-2Z"/><path class="cls-21" d="M107.74,54s-4.13,3.76-4.2,3.78l2.8-1.21A3.6,3.6,0,0,0,107.74,54Z"/><path class="cls-22" d="M100.83,59.81l-6.63,6L92.91,67.2c-1.24,1-.25,3.51-.25,3.51a7,7,0,0,0,2.77.55,2.34,2.34,0,0,0,.76-.62c-.93-.26-2.26-.82-1.93-1.84S98.37,62.88,100.83,59.81Z"/><path class="cls-22" d="M107.78,72.64c0-.41-.2-.74-.45-.74s-.46.33-.46.74.21.74.46.74S107.78,73.05,107.78,72.64Z"/><path class="cls-19" d="M103,83.35c-3.64,3-2.9,9.68-.19,10.05s5.67-.44,6.66,2.15,4.44,7.83,8.69,4.69c0,0-3.39,1.23-4.68-1,0,0,2.77,1.54,4.43-.06s2.47,1,2.47,1,.74-.93-.43-2.16-2.53-.25-3.58-.25-1.6-2.09-1.6-2.09,1.6,2.22,3,.61c0,0-1.72,1.61-2-1.66s-2.9-7.15-6.1-7.15l.74-3.89S106.65,80.39,103,83.35Z"/><path class="cls-21" d="M103.69,92l3-2.46-2.71,2.8.19.29,4.13-2.8L104.37,93a8.2,8.2,0,0,0,4.75-2.75s-.23,2.21-1.79,2.94c0,0,1.6.1,2.16-1s2.4-6.64,2.4-6.64h0a43.58,43.58,0,0,0,5.61-8.66,13.59,13.59,0,0,0,.39-9.15l-2.61.08s-1.6,5-2.34,8.39a30.93,30.93,0,0,1-3.41,7.43,2.63,2.63,0,0,0-2,.37c-.8.68-2.34,3.6-3.15,4.23,0,0,1.3.34,2.84-1.66l-4,5.15Z"/><path class="cls-22" d="M109,85.3s3.21-4.28,3.7-6.58a74.75,74.75,0,0,1,3.12-8.38l-.9-1.33c-.52,1.67-1.47,4.86-2,7.25a30.93,30.93,0,0,1-3.41,7.43,2.63,2.63,0,0,0-2,.37,7.1,7.1,0,0,0-1,1.26C108.47,84.66,109,85.3,109,85.3Z"/><path class="cls-22" d="M115.83,70.34s-2.61-3.84-4.39-6.52c1,2.95,2.57,6.81,3.79,7.95Z"/><path class="cls-22" d="M94.36,131.63c1.34-.87,5.67-9.91,7.22-14.53s1-7,1-7a11,11,0,0,0,2-7.31c-.51-4-.72-4.32-.72-4.32l-4.13,5.86a16.9,16.9,0,0,0-5,8.56c-1.45,5.68,1.54,8.47-.62,13.18S93,132.49,94.36,131.63Z"/><path class="cls-22" d="M91.57,137.59a21.73,21.73,0,0,0,2.11-2.91c.18-.44,1.77-3.36,2.74-3.89s1-4.85,1-4.85l-.26-2.3-3.27,3.27s-4.77,6.09-5.12,7S91.21,137.94,91.57,137.59Z"/></g><path class="cls-35" d="M27,20V159.8H176.7V20ZM167.46,153.24H36.27V26.51H167.46Z"/><path class="cls-3" d="M24.72,12.66V167.09h154V12.66ZM172.09,159.47H31.64V20.27H172.09Z"/><rect class="cls-36" x="85.52" y="185.2" width="32.9" height="14.25"/><rect class="cls-37" x="90.36" y="189.45" width="23.3" height="3.34"/><rect class="cls-38" x="90.36" y="188.58" width="23.3" height="3.34"/><rect class="cls-37" x="90.36" y="194" width="10.33" height="1.16"/><rect class="cls-38" x="90.36" y="193.7" width="10.33" height="1.16"/><rect class="cls-37" x="101.42" y="194" width="10.33" height="1.16"/><rect class="cls-38" x="101.42" y="193.7" width="10.33" height="1.16"/><rect class="cls-37" x="94.43" y="195.92" width="5.89" height="1.16"/><rect class="cls-38" x="94.43" y="195.61" width="5.89" height="1.16"/><rect class="cls-37" x="101.1" y="195.92" width="5.89" height="1.16"/><rect class="cls-38" x="101.1" y="195.61" width="5.89" height="1.16"/><rect class="cls-37" x="107.63" y="195.92" width="2.15" height="1.16"/><rect class="cls-38" x="107.63" y="195.61" width="2.15" height="1.16"/><path class="cls-38" d="M87.48,186.75a.59.59,0,1,0-.59.59A.58.58,0,0,0,87.48,186.75Z"/><path class="cls-38" d="M87.48,197.72a.59.59,0,1,0-.59.59A.59.59,0,0,0,87.48,197.72Z"/><path class="cls-38" d="M117.41,186.75a.6.6,0,1,0-.59.59A.59.59,0,0,0,117.41,186.75Z"/><path class="cls-38" d="M117.41,197.72a.6.6,0,1,0-.59.59A.6.6,0,0,0,117.41,197.72Z"/></g></g></g></svg>