<svg xmlns="http://www.w3.org/2000/svg" xmlns:xlink="http://www.w3.org/1999/xlink" viewBox="0 0 140.62 182.06"><defs><style>.cls-1{fill:none;}.cls-2{fill:#aa634d;}.cls-3{fill:#723a26;}.cls-4{clip-path:url(#clip-path);}.cls-5{fill:#2c4a63;}.cls-6{fill:#385d77;}.cls-24,.cls-7{fill:#44d3b8;}.cls-7{opacity:0.24;}.cls-8{fill:#fcf4e6;}.cls-9{fill:#93b5cc;}.cls-10{fill:#397a6e;}.cls-11{fill:#e28e07;}.cls-12{fill:#ffce00;}.cls-13{fill:#f9c035;}.cls-14{fill:#eda320;}.cls-15{fill:#599b8e;}.cls-16{fill:#66aa9d;}.cls-17{fill:#ea8d28;}.cls-18{fill:#609693;}.cls-19{fill:#fff;}.cls-20{fill:#cccac6;}.cls-21{fill:#d8890b;}.cls-22{fill:#a05f00;}.cls-23{fill:#7f7f7f;}.cls-25{fill:#875641;}.cls-26{fill:#efe7d3;}.cls-27{fill:#937f2e;}.cls-28{fill:#776826;}.cls-29{fill:#af9b48;}</style><clipPath id="clip-path"><rect class="cls-1" x="30.26" y="40.42" width="72.92" height="103.62"/></clipPath></defs><title>cuadros_pared_Recurso 35</title><g id="Capa_2" data-name="Capa 2"><g id="Capa_1-2" data-name="Capa 1"><g id="Silencio"><rect class="cls-2" x="11.89" y="21.34" width="110" height="139.91"/><rect class="cls-3" x="14.01" y="23.95" width="105.76" height="134.69"/><g class="cls-4"><rect class="cls-5" x="22.05" y="34.79" width="95.54" height="123.96"/><polygon class="cls-6" points="44.59 29.4 16.59 107.1 15.19 110.98 11.27 132.29 18.62 136.7 107.55 41.65 25.23 102.16 29.64 79.13 121.76 31.36 79.62 28.17 29.64 76.19 53.9 30.62 44.59 29.4"/><polygon class="cls-7" points="62.73 1.61 69.58 2.02 67.86 0 62.73 1.61"/><polygon class="cls-7" points="69.58 2.02 118.33 59.53 117.35 4.9 69.58 2.02"/><path class="cls-7" d="M5.88,54.14,25.23,74.48c1.23.24,44.84,27.92,44.84,27.92L30.13,58.8,23.76,33.32,66.15,67.13,38.22,9.31l24.52-7.7L36,0S18.62,6.12,18.86,13,4.65,51.94,5.88,54.14Z"/><path class="cls-7" d="M16.41,113.43,24,129.35S63.4,96.28,64.42,95.8C63.38,96.2,16.41,113.43,16.41,113.43Z"/><path class="cls-7" d="M64.42,95.8s0,0,0,0Z"/><path class="cls-6" d="M69.82,100.93l63.7-24.25L128.13,39.2C125.68,41.65,69.82,100.93,69.82,100.93Z"/><path class="cls-7" d="M85.75,112.94l54.87-29.89L122,68.35C120.78,69.58,85.75,112.94,85.75,112.94Z"/><polygon class="cls-8" points="77.56 112.79 63.17 113.21 20.64 129.47 0 165.12 125.92 165.12 125.92 122.59 77.56 112.79"/><path class="cls-9" d="M94,116.13c-18.33,12.93-54.88,38.55-69.77,49H125.92V122.59Z"/><polygon class="cls-5" points="11.47 145.32 9.66 148.44 125.92 148.44 125.92 145.32 11.47 145.32"/><polygon class="cls-5" points="8.09 151.16 6.28 154.28 125.92 154.28 125.92 151.16 8.09 151.16"/><rect class="cls-5" x="6.25" y="156.58" width="119.67" height="3.13"/><polygon class="cls-5" points="38.63 122.59 30.45 125.72 125.92 125.72 125.92 122.59 38.63 122.59"/><polygon class="cls-5" points="23.37 128.43 20.64 129.47 19.43 131.56 125.92 131.56 125.92 128.43 23.37 128.43"/><polygon class="cls-5" points="52.81 117.17 44.63 120.3 114.6 120.3 99.17 117.17 52.81 117.17"/><polygon class="cls-5" points="14.61 139.9 12.79 143.02 125.92 143.02 125.92 139.9 14.61 139.9"/><polygon class="cls-5" points="18.11 133.85 16.3 136.98 125.92 136.98 125.92 133.85 18.11 133.85"/><polygon class="cls-5" points="77.56 112.79 63.17 113.21 43.48 120.74 61.4 133.02 85.51 114.41 77.56 112.79"/><polygon class="cls-10" points="80.06 76.52 56.5 90.9 56.5 125.93 61.71 129.68 80.06 115.3 80.06 76.52"/><polygon class="cls-11" points="56.5 93.94 56.5 125.93 61.71 129.68 74.84 89.44 56.5 93.94"/><polygon class="cls-8" points="56.5 93.94 56.5 125.93 61.71 129.68 56.66 93.9 56.5 93.94"/><path class="cls-12" d="M49.66,100.92H65.73l11.72-7.34s1.66-.2,2.37-3.21.47-30.52.47-30.52-.47-10-7.1-13.25-29-4.12-28.72,15.56L44,76.07l-.77.8-.18,4a18.8,18.8,0,0,0,6,.56l-.24,7.07,2,.91-1.54,1a1.61,1.61,0,0,0,1.42,1.86l0,.71S45.93,94.37,49.66,100.92Z"/><polygon class="cls-13" points="64.84 79.75 75.75 81.03 78.25 71.93 71.65 70.06 60.67 67.48 57.82 65.54 58.72 69.92 58.44 72.77 64.84 79.75"/><polygon class="cls-13" points="61.29 66.51 72.03 61.3 62.02 44.86 61.29 66.51"/><polygon class="cls-13" points="59.73 80.48 53.06 72.35 59.43 100.92 65.73 100.92 68.44 99.22 71.51 81.21 66.09 96.64 61.81 90.38 62.34 84.86 59.73 80.48"/><path class="cls-14" d="M76.84,49.68a9.77,9.77,0,0,0-.72-.87l-8.29-3.69a31,31,0,0,0-6.74-.2l8.27,17.56,6.87,4.8Z"/><path class="cls-14" d="M43.13,79.12l-.08,1.71a18.8,18.8,0,0,0,6,.56v.18l5.8-.88s-.21-4.73-.14-5S47,77.94,43.13,79.12Z"/><path class="cls-8" d="M64.77,72c-.21,0-13.21-7.71-13.21-7.71l-1.18-.49,4.17,15.36S65,72,64.77,72Z"/><polygon class="cls-14" points="76.58 68.73 69.84 62.9 61.02 67.76 62.82 70.89 77.35 71.17 76.58 68.73"/><path class="cls-15" d="M49.76,54.35,45,56.92a21.53,21.53,0,0,0-.54,5.22l7.09.48L54,57.82Z"/><path class="cls-8" d="M44.47,61.29v.87L44,76.07l-.77.8L43.13,79c2.15-5,6.75-15.76,6.91-15.86l-3.2-2.3Z"/><path class="cls-8" d="M59,45.19c-6.19,1-12.2,4.32-14,11.82l4.07-2.45,1.95.9Z"/><path class="cls-16" d="M77.45,93.58s1.66-.2,2.37-3.21.47-30.52.47-30.52-.47-10-7.1-13.25A25.14,25.14,0,0,0,62,44.86c4.33,2.31,9.64,5.58,10.43,8C73.8,57,75.16,71.83,74.12,74s-9.28,5.73-9.28,5.73,3.85,3.54,4.17,5.42c.24,1.48-.22,10.32-.43,14Z"/><path class="cls-15" d="M79.82,90.37c.71-3,.47-30.52.47-30.52a20.08,20.08,0,0,0-.41-3c-3.25,13.55-8,33.37-9.91,41.37l7.48-4.69S79.11,93.38,79.82,90.37Z"/><path class="cls-8" d="M51.08,93.13,50.53,93c-.86.36-4.14,2.17-.87,7.91h5.45C54.11,98.86,51.08,93.13,51.08,93.13Z"/><polygon class="cls-8" points="51.43 87.74 50.92 81.94 49 82.24 48.8 88.46 50.49 89.22 50.92 89.18 51.43 87.74"/><path class="cls-14" d="M55.32,95.46s-.64-3.48-5.51-3.64a2.06,2.06,0,0,0,.88.41l0,.71a3.67,3.67,0,0,0-1,.57A6.85,6.85,0,0,1,55.32,95.46Z"/><path class="cls-17" d="M50.69,92.23a18.6,18.6,0,0,1,3.72.08l4.24-2.87-8-.57L50,89l.84.38-1.54,1A1.61,1.61,0,0,0,50.69,92.23Z"/><path class="cls-18" d="M51.43,87.74c-.8,1.15-2.64.72-2.64.72l2,.91,7.84.07Z"/><path class="cls-5" d="M46.62,79.83c-.47,0-.85.52-.92,1.21l1.84,0C47.47,80.34,47.08,79.83,46.62,79.83Z"/><path class="cls-5" d="M52.41,79.57c-.47,0-.86.52-.93,1.21l1.85,0C53.25,80.08,52.87,79.57,52.41,79.57Z"/><path class="cls-15" d="M43.05,80.83a18.8,18.8,0,0,0,6,.56l0,.93c3.35-.11,7.57-.59,7.57-2.4,0-3-3.69-5.28-3.69-5.28s1.81,4.59,1,5.49S43.05,80.83,43.05,80.83Z"/><path class="cls-14" d="M62.64,100.92c.36-4,1-12.54.22-16.17-1-4.79-8.24-10.32-8.24-10.32,5.84,5.84,6.26,10.64,6.26,10.64l-1.37,15.85Z"/><path class="cls-14" d="M65.73,100.92l1.38-.87.44-15.3-3.23-3.12S66,84.86,66,85.69s-.9,13.47-1,15.23Z"/><path class="cls-5" d="M76.75,70.84a9.49,9.49,0,0,0-7-3.65c-3.64-.31-6.88,1.09-8.3,3.33a9.47,9.47,0,0,0,7,3.65C72.08,74.49,75.33,73.08,76.75,70.84Z"/><path class="cls-19" d="M75.43,70.81a7.9,7.9,0,0,0-5.83-3c-3-.26-5.7.9-6.87,2.75a7.87,7.87,0,0,0,5.83,3C71.57,73.82,74.25,72.66,75.43,70.81Z"/><circle class="cls-5" cx="70.47" cy="70.75" r="2.99"/><path class="cls-5" d="M44.5,60.53c0,.53,0,1.07,0,1.63v.45a9.62,9.62,0,0,0,6.09,2.81l0-.65L50.35,64l.37-6A9,9,0,0,0,44.5,60.53Z"/><path class="cls-5" d="M44,60.26c-.2.22-.31.37-.32.38l1.19.85s.07-.1.21-.26Z"/><path class="cls-5" d="M46.62,58.32q-.37.18-.72.39L46.65,60q.3-.18.6-.33Z"/><path class="cls-5" d="M45.22,59.16a7.79,7.79,0,0,0-.63.51l1,1.09c.17-.15.34-.29.53-.43Z"/><path class="cls-5" d="M49.74,57.47a7,7,0,0,0-.8.11L49.19,59c.22,0,.45-.07.68-.09Z"/><path class="cls-5" d="M48.15,57.75c-.27.07-.53.16-.78.25l.51,1.37c.21-.08.43-.15.65-.21Z"/><path class="cls-5" d="M51,57.44h-.45v1.46h.38Z"/><path class="cls-19" d="M50.55,64.81l.12-6.19a6.83,6.83,0,0,0-6.21,3,7.28,7.28,0,0,0,5.6,3.16Z"/><circle class="cls-5" cx="50.52" cy="61.79" r="3.27"/><path class="cls-19" d="M61.15,68.94l8.69-4.86,6,3.27-7.23-6.82s-5.07,5-9,5.29L59,64.15s.28,2.92.49,3.89S61.15,68.94,61.15,68.94Z"/><path class="cls-14" d="M57.05,53.38l-1.73,2.78-5.84-3.27L45.27,56a16.92,16.92,0,0,0-.54,2.38l4.4-2.12,6.19,2.91Z"/><path class="cls-20" d="M68.8,45.45,75.89,53l-.84.14,1.53,3.26-1.25-.06,1.81,4.23-1.39-.27s2.15,7.43,2.71,9a25.22,25.22,0,0,1,.9,3.82l4.94-3.19-1.81-2.64s2.22-6.47,2.22-10S86.24,45.25,68.8,45.45Z"/><polygon class="cls-14" points="57.02 66.15 58.95 69.69 57.8 62.19 57.02 66.15"/><path class="cls-20" d="M63,64.72c-.3.16-.6.3-.91.43.23.86.51,1.89.77,2.83l.81-.45Z"/><path class="cls-20" d="M61.15,68.94l.54-.3-.62-3.11a7.22,7.22,0,0,1-.89.22l.5,3.16A2.65,2.65,0,0,0,61.15,68.94Z"/><path class="cls-20" d="M65.39,63.24c-.39.28-.8.56-1.22.82L65,66.81l.93-.52C65.73,65.36,65.55,64.26,65.39,63.24Z"/><path class="cls-20" d="M68.06,61.09c-.33.3-.78.69-1.32,1.13l.77,3.17.62-.35Z"/><polygon class="cls-20" points="72.49 64.14 72.18 65.34 72.85 65.71 73.32 64.92 72.49 64.14"/><polygon class="cls-20" points="70.33 62.1 70.11 64.22 70.67 64.53 71.22 62.95 70.33 62.1"/><path class="cls-14" d="M64.7,51.78,56.29,50S59.21,53.93,64.7,51.78Z"/><path class="cls-14" d="M64.59,49.6l-6.94-1.44S60.06,51.38,64.59,49.6Z"/><path class="cls-14" d="M51.86,66.62c-2.73.45-5.86-1-7.47-1.94l0,1.41A14.72,14.72,0,0,0,50.81,68a7.44,7.44,0,0,0,1.25-.1Z"/><path class="cls-14" d="M67.2,75.24a10.29,10.29,0,0,1-7-4.26L59,71.77a11.64,11.64,0,0,0,8.05,4.92Z"/><path class="cls-8" d="M82.77,66.41c.12-.37.27-.85.43-1.39l-6.59-1.76c.15.52.32,1.08.48,1.64L81.37,66Z"/><path class="cls-8" d="M83.92,51,71.25,48.07,73,50l11.44,2.65A8.74,8.74,0,0,0,83.92,51Z"/><path class="cls-8" d="M75.12,53.32l9.63,2.22c0-.47,0-1-.06-1.51l-10-2.32L75.89,53l-.84.14Z"/><path class="cls-8" d="M79.2,46.93l-9.8-1.48h-.6l1.5,1.61,12.06,1.82A9.71,9.71,0,0,0,79.2,46.93Z"/><path class="cls-8" d="M83.85,62.65l-8-2.3-.11,0s.19.67.48,1.64l7.25,2.09C83.6,63.61,83.73,63.14,83.85,62.65Z"/><path class="cls-8" d="M84.4,60.17l-4.8-1.41-3.71-1.08.74,1.73C79.31,60.19,82,61,84.1,61.6,84.21,61.12,84.31,60.64,84.4,60.17Z"/><path class="cls-8" d="M84.63,58.62a13.31,13.31,0,0,0,.08-1.35v-.13l-5.22-1.33-3.63-.92.72,1.54-.71,0Z"/><path class="cls-15" d="M85.87,72.07c.83-4.5-.76-6.55-3.11-7S77.83,68,77,72.45s.4,8.5,2.75,8.93S85,76.57,85.87,72.07Z"/><path class="cls-10" d="M79.74,77.46v0Z"/><path class="cls-10" d="M84.59,71.2c.42-2.19-.73-3.8-2.1-3.92s-4,3.51-3.58,4.86a44.17,44.17,0,0,1,.83,5.26c0-.51-.43-4.61.89-6.56S84.59,71.2,84.59,71.2Z"/><path class="cls-14" d="M105,142.91l7.27-3.51-10.7-18.78-7.11,6.53-1.47.9s-.32,8.9,3,12.49S105,142.91,105,142.91Z"/><path class="cls-12" d="M96.91,131.18a37.83,37.83,0,0,0-2-4.4l-.4.37-1.47.9a29.75,29.75,0,0,0,1.29,9.46l1.65.66Z"/><path class="cls-14" d="M91.44,124.33l1.38,3.12L94,129.87l4.7-1.92-6-13.41-16.38-5.43s3.67,7.89,12.15,8.47Z"/><path class="cls-21" d="M102.4,125.11,98.65,97s-5.8,8.25-1.55,14.95c0,0-1.64,7.59-1.31,8.33s1.31,5.63,1.31,5.63l-2.45.66Z"/><path class="cls-12" d="M92.46,118.47l-1-2S78.1,118.65,75,128.43c0,0,5.23.57,11.2-3.72S92.46,118.47,92.46,118.47Z"/><path class="cls-22" d="M65.35,112.3c10.6,17.8,30.32,28.93,30.32,28.93C92.31,128.92,65.35,112.3,65.35,112.3Z"/><path class="cls-14" d="M94.89,120.76l.64,3.35.55,2.62,5-.81-2.84-14.43-14.72-9s1.78,8.51,9.91,11Z"/><path class="cls-12" d="M94.12,131.92l2.79-.74c0-7.44-5.45-14.66-5.45-14.66s-3.38,5.08-3.41,5.24l.25.82C88.71,127.92,94.12,131.92,94.12,131.92Z"/><path class="cls-14" d="M93.08,137.53l0-2.88c-5.21-6.84-16.1-7-16.1-7C83.26,138.11,93.08,137.53,93.08,137.53Z"/><path class="cls-14" d="M98.25,136c-4.21-3-9.76-1.33-10-1.44L90.54,137c3.66,3.23,9.65,3.67,9.65,3.67S102.46,139,98.25,136Z"/><path class="cls-21" d="M105,142.91l7.27-3.51-10.36-18.19-.91.3.13,21.5A12.52,12.52,0,0,0,105,142.91Z"/><path class="cls-21" d="M129.72,154.22l-15.8-16.78c-.86.24-11.52,4.9-11.52,4.9S94.81,152,95.79,152,129.72,154.22,129.72,154.22Z"/><path class="cls-23" d="M65.35,112.3a69.6,69.6,0,0,0,8.34,11.09l3.15-3.12C70.65,115.56,65.35,112.3,65.35,112.3Z"/><path class="cls-22" d="M67.31,114.39s2.88-2.33-1.31-5.32-13.88-2.94-14.06-2.94c0,0,8.55,5.93,11.31,7.9S67.31,114.39,67.31,114.39Z"/><path class="cls-24" d="M51.94,106.13s5.35,3.71,9,6.23l1.34.21-1-1.71,1.71.36-.86-1.59,2.15.37-1.17-1.72h1.57C60,106.09,52.1,106.13,51.94,106.13Z"/><path class="cls-11" d="M38.34,151.11a9.19,9.19,0,1,0,8.33-13.06,10,10,0,0,0-1.1.07,15.18,15.18,0,1,0-7.23,13Z"/><circle class="cls-24" cx="31.44" cy="129.19" r="3.1" transform="translate(-28.84 10.68) rotate(-13.28)"/><circle class="cls-16" cx="38.05" cy="134.42" r="3.1"/><circle class="cls-15" cx="40.59" cy="143.24" r="3.1"/></g><polygon class="cls-25" points="115.17 153.72 115.17 153.85 115.04 153.85 115.04 156.53 117.86 156.53 117.86 153.72 115.17 153.72"/><rect class="cls-25" x="39.17" y="153.85" width="2.92" height="2.69"/><rect class="cls-25" x="50.84" y="153.85" width="2.92" height="2.69"/><rect class="cls-25" x="56.67" y="153.85" width="2.92" height="2.69"/><rect class="cls-25" x="45" y="153.85" width="2.92" height="2.69"/><rect class="cls-25" x="33.33" y="153.85" width="2.92" height="2.69"/><rect class="cls-25" x="21.66" y="153.85" width="2.92" height="2.69"/><rect class="cls-25" x="27.49" y="153.85" width="2.92" height="2.69"/><rect class="cls-25" x="62.51" y="153.85" width="2.92" height="2.69"/><rect class="cls-25" x="97.53" y="153.85" width="2.92" height="2.69"/><rect class="cls-25" x="103.37" y="153.85" width="2.92" height="2.69"/><rect class="cls-25" x="109.2" y="153.85" width="2.92" height="2.69"/><rect class="cls-25" x="91.69" y="153.85" width="2.92" height="2.69"/><rect class="cls-25" x="74.18" y="153.85" width="2.92" height="2.69"/><rect class="cls-25" x="68.35" y="153.85" width="2.92" height="2.69"/><rect class="cls-25" x="85.86" y="153.85" width="2.92" height="2.69"/><rect class="cls-25" x="80.02" y="153.85" width="2.92" height="2.69"/><polygon class="cls-25" points="15.92 153.72 15.92 156.53 18.74 156.53 18.74 153.85 18.61 153.85 18.61 153.72 15.92 153.72"/><rect class="cls-25" x="15.92" y="72.23" width="2.69" height="2.91"/><rect class="cls-25" x="15.92" y="60.59" width="2.69" height="2.91"/><rect class="cls-25" x="15.92" y="66.41" width="2.69" height="2.91"/><rect class="cls-25" x="15.92" y="78.05" width="2.69" height="2.91"/><rect class="cls-25" x="15.92" y="89.69" width="2.69" height="2.91"/><rect class="cls-25" x="15.92" y="83.87" width="2.69" height="2.91"/><rect class="cls-25" x="15.92" y="37.3" width="2.69" height="2.91"/><rect class="cls-25" x="15.92" y="31.48" width="2.69" height="2.91"/><rect class="cls-25" x="15.92" y="54.76" width="2.69" height="2.91"/><rect class="cls-25" x="15.92" y="43.12" width="2.69" height="2.91"/><rect class="cls-25" x="15.92" y="48.94" width="2.69" height="2.91"/><rect class="cls-25" x="15.92" y="130.44" width="2.69" height="2.91"/><rect class="cls-25" x="15.92" y="136.26" width="2.69" height="2.91"/><rect class="cls-25" x="15.92" y="124.61" width="2.69" height="2.91"/><rect class="cls-25" x="15.92" y="142.08" width="2.69" height="2.91"/><rect class="cls-25" x="15.92" y="147.9" width="2.69" height="2.91"/><rect class="cls-25" x="15.92" y="118.79" width="2.69" height="2.91"/><rect class="cls-25" x="15.92" y="107.15" width="2.69" height="2.91"/><rect class="cls-25" x="15.92" y="95.51" width="2.69" height="2.91"/><rect class="cls-25" x="15.92" y="101.33" width="2.69" height="2.91"/><rect class="cls-25" x="15.92" y="112.97" width="2.69" height="2.91"/><polygon class="cls-25" points="18.74 28.44 18.74 25.75 15.92 25.75 15.92 28.57 18.61 28.57 18.61 28.44 18.74 28.44"/><rect class="cls-25" x="45" y="25.75" width="2.92" height="2.69"/><rect class="cls-25" x="56.67" y="25.75" width="2.92" height="2.69"/><rect class="cls-25" x="39.17" y="25.75" width="2.92" height="2.69"/><rect class="cls-25" x="62.51" y="25.75" width="2.92" height="2.69"/><rect class="cls-25" x="21.66" y="25.75" width="2.92" height="2.69"/><rect class="cls-25" x="33.33" y="25.75" width="2.92" height="2.69"/><rect class="cls-25" x="27.49" y="25.75" width="2.92" height="2.69"/><rect class="cls-25" x="50.84" y="25.75" width="2.92" height="2.69"/><rect class="cls-25" x="97.53" y="25.75" width="2.92" height="2.69"/><rect class="cls-25" x="103.37" y="25.75" width="2.92" height="2.69"/><rect class="cls-25" x="68.35" y="25.75" width="2.92" height="2.69"/><rect class="cls-25" x="109.2" y="25.75" width="2.92" height="2.69"/><rect class="cls-25" x="91.69" y="25.75" width="2.92" height="2.69"/><rect class="cls-25" x="74.18" y="25.75" width="2.92" height="2.69"/><rect class="cls-25" x="80.02" y="25.75" width="2.92" height="2.69"/><rect class="cls-25" x="85.86" y="25.75" width="2.92" height="2.69"/><polygon class="cls-25" points="117.86 28.57 117.86 25.75 115.04 25.75 115.04 28.44 115.17 28.44 115.17 28.57 117.86 28.57"/><rect class="cls-25" x="115.17" y="66.41" width="2.69" height="2.91"/><rect class="cls-25" x="115.17" y="60.59" width="2.69" height="2.91"/><rect class="cls-25" x="115.17" y="54.76" width="2.69" height="2.91"/><rect class="cls-25" x="115.17" y="72.23" width="2.69" height="2.91"/><rect class="cls-25" x="115.17" y="78.05" width="2.69" height="2.91"/><rect class="cls-25" x="115.17" y="37.3" width="2.69" height="2.91"/><rect class="cls-25" x="115.17" y="83.87" width="2.69" height="2.91"/><rect class="cls-25" x="115.17" y="31.48" width="2.69" height="2.91"/><rect class="cls-25" x="115.17" y="48.94" width="2.69" height="2.91"/><rect class="cls-25" x="115.17" y="43.12" width="2.69" height="2.91"/><rect class="cls-25" x="115.17" y="136.26" width="2.69" height="2.91"/><rect class="cls-25" x="115.17" y="124.61" width="2.69" height="2.91"/><rect class="cls-25" x="115.17" y="118.79" width="2.69" height="2.91"/><rect class="cls-25" x="115.17" y="130.44" width="2.69" height="2.91"/><rect class="cls-25" x="115.17" y="89.69" width="2.69" height="2.91"/><rect class="cls-25" x="115.17" y="142.08" width="2.69" height="2.91"/><rect class="cls-25" x="115.17" y="147.9" width="2.69" height="2.91"/><rect class="cls-25" x="115.17" y="101.33" width="2.69" height="2.91"/><rect class="cls-25" x="115.17" y="112.97" width="2.69" height="2.91"/><rect class="cls-25" x="115.17" y="95.51" width="2.69" height="2.91"/><rect class="cls-25" x="115.17" y="107.15" width="2.69" height="2.91"/><path class="cls-25" d="M20.75,30.35V152.24H113V30.35Zm81.52,111.13H31.51V41.1h70.76Z"/><path class="cls-26" d="M25,35.91V146.68h83.86V35.91Zm77.31,105.57H31.51V41.1h70.76Z"/><path class="cls-3" d="M23.25,32.84v116.9h87.28V32.84ZM104.77,144H29V38.61h75.76Z"/><rect class="cls-27" x="50.44" y="167.8" width="32.9" height="14.25"/><rect class="cls-28" x="55.28" y="172.05" width="23.3" height="3.34"/><rect class="cls-29" x="55.28" y="171.18" width="23.3" height="3.34"/><rect class="cls-28" x="55.28" y="176.6" width="10.33" height="1.16"/><rect class="cls-29" x="55.28" y="176.3" width="10.33" height="1.16"/><rect class="cls-28" x="66.34" y="176.6" width="10.33" height="1.16"/><rect class="cls-29" x="66.34" y="176.3" width="10.33" height="1.16"/><rect class="cls-28" x="59.35" y="178.52" width="5.89" height="1.16"/><rect class="cls-29" x="59.35" y="178.22" width="5.89" height="1.16"/><rect class="cls-28" x="66.02" y="178.52" width="5.89" height="1.16"/><rect class="cls-29" x="66.02" y="178.22" width="5.89" height="1.16"/><rect class="cls-28" x="72.55" y="178.52" width="2.15" height="1.16"/><rect class="cls-29" x="72.55" y="178.22" width="2.15" height="1.16"/><path class="cls-29" d="M52.4,169.36a.59.59,0,1,0-.59.59A.59.59,0,0,0,52.4,169.36Z"/><path class="cls-29" d="M52.4,180.32a.59.59,0,1,0-1.18,0,.59.59,0,1,0,1.18,0Z"/><path class="cls-29" d="M82.33,169.36a.6.6,0,1,0-.59.59A.6.6,0,0,0,82.33,169.36Z"/><path class="cls-29" d="M82.33,180.32a.6.6,0,0,0-1.19,0,.6.6,0,1,0,1.19,0Z"/></g></g></g></svg>