<svg xmlns="http://www.w3.org/2000/svg" xmlns:xlink="http://www.w3.org/1999/xlink" viewBox="0 0 110 160.72"><defs><style>.cls-1{fill:none;}.cls-2{fill:#aa634d;}.cls-3{fill:#723a26;}.cls-4{clip-path:url(#clip-path);}.cls-5{fill:#d8b97e;}.cls-6{fill:#b57e55;}.cls-7{fill:#96603b;}.cls-8{fill:#f4f1ed;}.cls-9{fill:#eae4dc;}.cls-10{fill:#967042;}.cls-11{fill:#a0774b;}.cls-12{fill:#7f592f;}.cls-13{fill:#e8c197;}.cls-14{fill:#776f3f;}.cls-15{fill:#ffedd2;}.cls-16{fill:#c69a59;}.cls-17{fill:#cea665;}.cls-18{fill:#e8c895;}.cls-19{fill:#e8c19d;}.cls-20{fill:#ffe2ca;}.cls-21{fill:#e2b896;}.cls-22{fill:#ce996e;}.cls-23{fill:#c62114;}.cls-24{fill:#fff;}.cls-25{fill:#991a0a;}.cls-26{fill:#516ead;}.cls-27{fill:#5780bc;}.cls-28{fill:#80a7d6;}.cls-29{fill:#d4e4ff;}.cls-30{fill:#606060;}.cls-31{fill:#3f3f3f;}.cls-32{fill:#875641;}.cls-33{fill:#efe7d3;}.cls-34{fill:#937f2e;}.cls-35{fill:#776826;}.cls-36{fill:#af9b48;}</style><clipPath id="clip-path"><rect class="cls-1" x="18.29" y="18.47" width="73" height="104.05"/></clipPath></defs><title>cuadros_pared_Recurso 38</title><g id="Capa_2" data-name="Capa 2"><g id="Capa_1-2" data-name="Capa 1"><g id="Silencio"><rect class="cls-2" width="110" height="139.91"/><rect class="cls-3" x="2.12" y="2.61" width="105.76" height="134.69"/><g class="cls-4"><rect x="11.97" y="13.17" width="91.44" height="115.43"/><path class="cls-5" d="M41,34.7,64,46.47s3.86-.79,5.15-2.49.12-6.68.12-6.68.47-.26.47-1.57S67.47,28.52,57.29,27s-9.84,2.88-9.84,2.88C43.24,29.83,41,34.7,41,34.7Z"/><path class="cls-6" d="M67.4,100.92S51.49,83.25,51.49,76.17l-7.27,5.7L46,81.28s5.5,4.32,2.75,15.52S67.4,100.92,67.4,100.92Z"/><path class="cls-7" d="M46.08,80.41,56.24,86.7c-2.66-4-4.75-8-4.75-10.53Z"/><path class="cls-8" d="M71.69,80.61s-18.46,4.32-24.94,7.66-6.29,12.57-6.29,12.57l32.21-8Z"/><path class="cls-9" d="M52.69,97.78l20-5-1-12.18s-7.12,1.67-14.08,3.73c-6.66,6-15.59,14.08-15,14.08C43,98.42,47.23,98.16,52.69,97.78Z"/><path class="cls-10" d="M77.58,129.12l-.39-34.37-8.64-10s-24,4.52-30.64,18.07l-1.18,2.56s-9.43,20.43-9.43,23.76S77.58,129.12,77.58,129.12Z"/><path class="cls-11" d="M37.91,102.8l-1.18,2.56s-9.43,20.43-9.43,23.76c0,1,4.42,1.4,10.65,1.47a30.75,30.75,0,0,1-2-3.76c-4.55-10.1,6.94-22.1,6.94-22.1s-4,3-4.42,1.26c-.21-1,1.49-5,3-8.21A20.75,20.75,0,0,0,37.91,102.8Z"/><path class="cls-12" d="M68,129.69l5.49-1.55L64.23,85.78a68.16,68.16,0,0,0-14.11,5.58L46,101.43l7.27-2-4.32,8.84L54,119.5l-1.59,10.88C58,130.19,63.5,129.93,68,129.69Z"/><path class="cls-12" d="M54.91,122.52l.38-10.08s.38-2.78-5.3-4.43-8.09,4.43-8.09,4.43L45.31,117l-1.64,15.66Z"/><path class="cls-13" d="M38.73,103.12c6.13-12.44,26.8-17.26,30.17-18l-.35-.41s-24,4.52-30.64,18.07l-1.18,2.56s-9.43,20.43-9.43,23.76c0,.3.41.55,1.15.75-.22-.13-.33-.27-.33-.43,0-3.34,9.43-23.77,9.43-23.77Z"/><path d="M39.87,121.27l-5.11,1.57s.81,3.74,1.58,7.73c1.4,0,2.9,0,4.49,0Z"/><path d="M45.37,119.3c-1.13,3.88-2.09,8-2.77,11.3,4.36,0,9.2-.19,13.84-.37l-1.84-17.8S47.73,111.25,45.37,119.3Z"/><path d="M34.05,111.53c5.43-4.5,14.11-10.28,24.09-11.67l-2.56,6.48s8.77,13.34,5.66,23.68c9-.41,16.34-.9,16.34-.9l-.39-34.37-8.64-10a72.6,72.6,0,0,0-11.79,3.54L56,92.59l2.94,3S41,100.22,34.05,111.53Z"/><path d="M33.89,111.66l-.19.45.28-.47.07-.11Z"/><path class="cls-14" d="M73.75,34l-2.93-2,3,69.33,8.78.59C83.11,86,73.75,34,73.75,34Z"/><path d="M78.61,63.61,77.84,97,74.25,36.84c-.31-1.81-.5-2.84-.5-2.84l-2.32-1.58.34,21.73,2,47.19,8.78.59a95.2,95.2,0,0,0-.47-10.59L79.8,97.28l.09-24.79C79.48,69.52,79.05,66.53,78.61,63.61Z"/><path class="cls-15" d="M61.85,25.71s-1.85-3.8-7.09-2.56-4.26,6.91-4.26,6.91h8Z"/><path class="cls-16" d="M62.42,26.09s-1.85-3.8-7.1-2.56-4.25,6.91-4.25,6.91h8Z"/><path d="M63,26.47s-1.85-3.8-7.09-2.56-4.26,6.91-4.26,6.91h8Z"/><path class="cls-17" d="M73.75,34C72.66,28.19,67,26.65,67,26.65a6.85,6.85,0,0,0-6.16-3.36c-4.61-.11-7.73,3.88-7.73,3.88L67.9,43.8S74.85,39.82,73.75,34Z"/><path class="cls-5" d="M63.6,23.79a8,8,0,0,0-2.72-.5c-4.61-.11-7.73,3.88-7.73,3.88l.94,1,4.32.89a3.31,3.31,0,0,1,.25-.87c.67-1.63,4.36-2.52,7.3-3a6.59,6.59,0,0,0-1.22-.93A31.83,31.83,0,0,0,54.3,27.71l.53-.56C57.07,24.72,60.57,24,63.6,23.79Z"/><path class="cls-5" d="M59.61,29.35l-1.2-.24C58.33,29.87,59,29.67,59.61,29.35Z"/><path class="cls-5" d="M62.4,32.87a10.24,10.24,0,0,1,.71-2.8l-.77-.15C60.52,33.65,62.4,33,62.4,32.87Z"/><path class="cls-5" d="M66.69,26.09c-.11-.15-.25-.32-.41-.5a9.35,9.35,0,0,0-5.77,3.2,7.26,7.26,0,0,1-.9.56l2.73.57c.2-.41.44-.87.74-1.39A4.89,4.89,0,0,1,66.69,26.09Z"/><path class="cls-5" d="M69.15,27.6a10,10,0,0,0-2.11-1l0,0a5.19,5.19,0,0,0-3.91,3.45l1.53.32C65.2,28.24,67,27.55,69.15,27.6Z"/><path class="cls-15" d="M67.45,26.79l.1.18a9.64,9.64,0,0,1,2.1.94A10.75,10.75,0,0,0,67.45,26.79Z"/><path class="cls-15" d="M61.38,23.6a7.89,7.89,0,0,1,3.73,1,7.55,7.55,0,0,0-4.23-1.28c-4.61-.11-7.73,3.88-7.73,3.88L67.9,43.8l.15-.09L53.66,27.48S56.78,23.5,61.38,23.6Z"/><path d="M54.4,28.57,67.9,43.8s6.95-4,5.85-9.8a9.12,9.12,0,0,0-1.81-4c.62,2-.72,3.51-7.71,2.46l1.1-5S58.81,26.68,54.4,28.57Z"/><path class="cls-5" d="M41,34.7,64,46.47s3.86-.79,5.15-2.49.12-6.68.12-6.68.47-.26.47-1.57S67.47,28.52,57.29,27s-9.84,2.88-9.84,2.88C43.24,29.83,41,34.7,41,34.7Z"/><path class="cls-18" d="M58.73,30.41l2.69,1.26S62.46,30.51,58.73,30.41Z"/><path class="cls-18" d="M41,34.7l1.88,1c1-1.82,4-6,11.43-5.63l2-.13s-4.8,1.2-5.87,5-.25,3.29-.25,3.29l4-1.84s-1.14-5.87,3.6-5.93c.31,0,.59,0,.85,0l-1.23-.57L53,29.52l-4.23-.19s5.74-3.78,13.26,0c2.42,1.23,3.38,1.23,3.52.67A19.43,19.43,0,0,0,57.29,27c-10.19-1.57-9.84,2.88-9.84,2.88C43.24,29.83,41,34.7,41,34.7Z"/><path d="M51.55,29.57s12.88.92,14.52,10.48a50.64,50.64,0,0,0,1.15,5.32A5.23,5.23,0,0,0,69.11,44c1.29-1.71.12-6.68.12-6.68s.47-.26.47-1.57S67.47,28.52,57.29,27c-.45-.07-.88-.12-1.29-.17,4.43,1.72,10.32,4.73,11.82,8.82C67.82,35.6,64.19,28.26,51.55,29.57Z"/><path class="cls-15" d="M41,34.7,64,46.47l.1,0L41.72,35s2.21-4.86,6.43-4.86c0,0-.35-4.45,9.83-2.88a23.33,23.33,0,0,1,4.88,1.26A23,23,0,0,0,57.29,27c-10.19-1.57-9.84,2.88-9.84,2.88C43.24,29.83,41,34.7,41,34.7Z"/><path class="cls-19" d="M66.58,69.73a29.88,29.88,0,0,0,3-7.84L61.15,38.61s-10.73-2.7-18.39-4.49c-.59.13-1.17.27-1.73.44-5.88,5.3-7.32,17.76-7.32,17.76v0c-.3,10.07-.16,22.93,2.18,27.08C39.92,86.59,60.56,80.24,66.58,69.73Z"/><path class="cls-20" d="M34.22,52.26S35.66,39.8,41.53,34.5c.44-.13.89-.25,1.34-.35l-.11,0c-.59.13-1.17.27-1.73.44-5.88,5.3-7.32,17.76-7.32,17.76v0c-.3,10.07-.16,22.93,2.18,27.08,1.52,2.69,5.37,3.48,9.91,2.85-4.32.5-7.95-.32-9.4-2.91-2.34-4.16-2.48-17-2.18-27.09Z"/><path class="cls-21" d="M44.76,77.8a12.15,12.15,0,0,0,1.41,2.35c.31.1,12.14-13.45,12.14-13.45l.71-4L50.51,61s.09,8.1-2.31,12.37S44.76,77.8,44.76,77.8Z"/><path class="cls-21" d="M38.91,56.4c-1.64-1.6-2.56-.63-2.56-.63l2.4,6.82,1.43-.92S40.56,58,38.91,56.4Z"/><path class="cls-21" d="M55.29,68.42l1.64-6.31V58.57s-1.2-2.21-5.93-1.7a8.81,8.81,0,0,0-6.7,4.48C51.19,59.08,55.29,68.42,55.29,68.42Z"/><path class="cls-21" d="M46.34,82.19c.93-1.4,1.81-2.88,1.81-2.88s-1.32-4.6-6-4.13L41.4,77a18.91,18.91,0,0,1,.64,5.5A20.12,20.12,0,0,0,46.34,82.19Z"/><path class="cls-21" d="M41.37,71.07l-1.61.13-.32,2.46s4,1.53,4.8,1.29C44.24,75,41.49,72.5,41.37,71.07Z"/><path class="cls-21" d="M40.91,58.91s-.19,5.24-.56,7.51a13.46,13.46,0,0,1-1.39,4l-.51.82s4,1.52,4.3-.69-1.9-11.05,1.76-12.25l-.08,0a39.3,39.3,0,0,1,5.83-1.39C51.86,56.85,46.34,55.86,40.91,58.91Z"/><path class="cls-22" d="M57.52,58.55s6.48-7.83,3.87-8.67-22.9-3.71-24-3.71l-3.06,2.55c-.29,1.38-.47,2.47-.56,3.08,3.58-.11,9.15,0,12.29,1.19A126.51,126.51,0,0,1,57.52,58.55Z"/><path class="cls-22" d="M42.87,82.47c7.84.06,19.45-5.3,23.71-12.74.22-.4.44-.8.64-1.22-.75-7.27-2.58-18.21-2.58-18.21l-9.48,2.9a29,29,0,0,1-.75,11.24C52.93,69.32,44.65,77.85,42.87,82.47Z"/><path d="M61.5,58s3.67-7.08,2.58-7.43-16.63-3.66-19.44-3.66-2.41,0-7.33.61c-1,.12-1.92.27-2.79.44-.59,2.57-.81,4.41-.81,4.41v0c0,.1,0,.2,0,.31a16.24,16.24,0,0,1,8.61-2.39C47.69,50.52,61.5,58,61.5,58Z"/><path d="M48.67,81.71c6.94-1.72,14.62-6.23,17.91-12a29.88,29.88,0,0,0,3-7.84L65.18,49.74c-3.42-.45-6.71-.05-5.9,1.83,1.52,3.54-1.41,8.78-1.41,8.78s2.58,2.62.24,9.42C56.71,73.84,52.13,78.57,48.67,81.71Z"/><path class="cls-23" d="M44,75l-1.51-.08-2.76-.53-3.1.35s0,2.42,1.75,2.75S43,77.5,44,75Z"/><ellipse cx="51.82" cy="62.08" rx="2.73" ry="3.06"/><path class="cls-24" d="M51.42,63.25a.9.9,0,0,0-.76-1,.87.87,0,0,0-.89.85.9.9,0,0,0,.76,1A.87.87,0,0,0,51.42,63.25Z"/><path class="cls-24" d="M50.29,61.7a.5.5,0,0,0-.41-.54.48.48,0,0,0-.49.46.49.49,0,0,0,.41.54A.46.46,0,0,0,50.29,61.7Z"/><ellipse cx="37.51" cy="60.76" rx="2.73" ry="3.06"/><path class="cls-22" d="M52.39,58.58A6.57,6.57,0,0,0,45.52,61s6.3-4.28,10.94.49C56.46,61.52,57,59.45,52.39,58.58Z"/><path class="cls-22" d="M56.06,59.81s-.58-2.46-4.56-3.12-5.6,3.1-5.6,3.1,1.11-2.11,4.63-2.62C53.26,56.77,56.06,59.81,56.06,59.81Z"/><path class="cls-22" d="M40.27,60s.37-2.09-2.4-2.79-4.27,2.7-4.27,2.7S37.57,55.44,40.27,60Z"/><path class="cls-22" d="M40.07,58.33a3.53,3.53,0,0,0-2.69-2.94c-2.41-.52-3.51,3.29-3.51,3.29a4.71,4.71,0,0,1,2.9-2.78C38.45,55.4,40.07,58.33,40.07,58.33Z"/><path class="cls-24" d="M37.18,62.07a.9.9,0,0,0-.76-1,.86.86,0,0,0-.89.85.9.9,0,0,0,.75,1A.87.87,0,0,0,37.18,62.07Z"/><path class="cls-24" d="M36.05,60.52a.49.49,0,0,0-.41-.54.47.47,0,0,0-.49.46.48.48,0,0,0,.41.54A.47.47,0,0,0,36.05,60.52Z"/><path class="cls-24" d="M39.55,75.47c1.64-.06,2-1,2-1l-4,.06S37.91,75.54,39.55,75.47Z"/><path class="cls-25" d="M40.49,73.44a1,1,0,0,0-1.05,0c-1.17.79-1.47-.13-1.94-.06s-1.4,1.31-1.4,1.31c1.17.45,8.14.26,8.14.26A6.59,6.59,0,0,1,40.49,73.44Z"/><path class="cls-26" d="M34.32,43.91a5.41,5.41,0,0,0-1.23,2.75,26.64,26.64,0,0,0,.08,5.66c1.22-.61,4.57-1.93,10.69-1.93C51,50.39,64.69,57.85,69.07,62a45.81,45.81,0,0,0,1-12.88c.19-1.35,0-3.62-1.12-7.41A8.49,8.49,0,0,0,67.56,39a3.92,3.92,0,0,0-.25-.32l0-.05c-5.88-7-22.41-6.23-26-5-4,1.37-3.51,4.19-3.51,4.19a4.55,4.55,0,0,0-1.47,1C35.32,39.72,34.32,43.91,34.32,43.91Z"/><path class="cls-27" d="M34.32,43.91a5.41,5.41,0,0,0-1.23,2.75c0,.27-.08.58-.1.91,2.83-1.52,8.72-3.47,18.44-1.37,0,0-4.74-3.21-9-2.81l.94-3.54s4.56-.59,7.72.92c0,0-4.51-2.82-8.25-2.69l1.52-3.53a21.82,21.82,0,0,1,5.22-1.78,30,30,0,0,0-8.34.8c-4,1.37-3.51,4.19-3.51,4.19a4.55,4.55,0,0,0-1.47,1C35.32,39.72,34.32,43.91,34.32,43.91Z"/><path class="cls-27" d="M34.32,43.91a5.41,5.41,0,0,0-1.23,2.75c0,.27-.08.58-.1.91,2.83-1.52,8.72-3.47,18.44-1.37,0,0-4.74-3.21-9-2.81l.94-3.54s4.56-.59,7.72.92c0,0-4.51-2.82-8.25-2.69l1.52-3.53a21.82,21.82,0,0,1,5.22-1.78,30,30,0,0,0-8.34.8c-4,1.37-3.51,4.19-3.51,4.19a4.55,4.55,0,0,0-1.47,1C35.32,39.72,34.32,43.91,34.32,43.91Z"/><path d="M56.2,54c5.34,2.49,10.49,5.74,12.87,8a45.81,45.81,0,0,0,1-12.88c.19-1.35,0-3.62-1.12-7.41A8.49,8.49,0,0,0,67.56,39a3.92,3.92,0,0,0-.25-.32l0-.05c-3.56-4.26-11-5.65-17.17-5.81a64,64,0,0,1,12.81,5c-2.34-1.14-7.11-.79-4,1.57a6.12,6.12,0,0,1,2.73,5.33c-2.58-2.19-4.76-1.84-4.76-1.84l3.59,7.86c-3.83-3.58-11.16-3.93-11.16-3.93A10.5,10.5,0,0,1,56.2,54Z"/><path class="cls-17" d="M72.05,34.17l-1.58,6.09-2.81,72.08,7.55-3.53s0-4.52.17-18.66S72.05,34.17,72.05,34.17Z"/><path class="cls-27" d="M67.94,105.14l-.28,7.2,7.55-3.53s0-1.62,0-6Z"/><path d="M71,78.56l2.43-26.69C73,46,72.6,41,72.34,37.74,72,43.62,71,78.56,71,78.56Z"/><path d="M74.45,67c-1.45,8.7-3.18,19.89-3.28,24.31a71.51,71.51,0,0,0,.88,13.35s.51-15.16,3.14-23.81C75,76.69,74.76,71.9,74.45,67Z"/><polygon points="69.56 58.76 55.54 76.82 52.89 80.48 59.08 81.37 68.05 71.64 69.56 58.76"/><path class="cls-6" d="M40.42,58.75s-1,7.7-3.41,10,1.08,3.52,2.79,2.62c0,0-2.94.15-2.76-1.17S39.9,69.17,40.42,58.75Z"/><path class="cls-28" d="M41.29,33.57c-2.24.76-3.08,2-3.38,2.89a15.46,15.46,0,0,1,4.16.24,3.49,3.49,0,0,0-3-1.05,34.21,34.21,0,0,1,5-2.63A14.34,14.34,0,0,0,41.29,33.57Z"/><path class="cls-28" d="M41.61,38.13s-.24-.94-3.85-.88a2.15,2.15,0,0,0,0,.51l-.13.05A13,13,0,0,1,41.61,38.13Z"/><path class="cls-28" d="M36.18,44.57c3.07-1.6,4.5-1.43,4.5-1.43s-4-.82-6.16,0l-.2.77a5.41,5.41,0,0,0-1.23,2.75,26.64,26.64,0,0,0,.08,5.66S33.11,46.17,36.18,44.57Z"/><path class="cls-28" d="M36.08,39.09a5.26,5.26,0,0,0-.5.9,13.73,13.73,0,0,1,5.69,0A7.56,7.56,0,0,0,36.08,39.09Z"/><path class="cls-28" d="M35.11,41.22c-.11.31-.21.63-.3.92a9.58,9.58,0,0,1,5.45,0A5.78,5.78,0,0,0,35.11,41.22Z"/><path class="cls-29" d="M34.32,43.91a5.41,5.41,0,0,0-1.23,2.75,26.64,26.64,0,0,0,.08,5.66l.26-.13a22.67,22.67,0,0,1,0-5.09,5.31,5.31,0,0,1,1.23-2.75s1-4.19,2-5.1a4.45,4.45,0,0,1,1.46-1S37.57,35.38,41.6,34c3.58-1.22,20.11-2,26,5l0,0c.07.08.13.17.2.26-.09-.13-.17-.25-.27-.38a3.92,3.92,0,0,0-.25-.32l0-.05c-5.88-7-22.41-6.23-26-5-4,1.37-3.51,4.19-3.51,4.19a4.55,4.55,0,0,0-1.47,1C35.32,39.72,34.32,43.91,34.32,43.91Z"/><path class="cls-30" d="M60.89,75.44a2.44,2.44,0,1,0,0,4.51,2.44,2.44,0,0,1,0-4.51Z"/><path class="cls-31" d="M60.89,75.44l-.27-.1a2.44,2.44,0,0,0-.42,4.78,2.33,2.33,0,0,0,.69-.17,2.44,2.44,0,0,1,0-4.51Z"/><path class="cls-24" d="M59.08,77.08a.69.69,0,0,0-.31-.89.68.68,0,0,0-.79.5.6.6,0,1,0,1.1.39Z"/></g><polygon class="cls-32" points="103.28 132.38 103.28 132.51 103.15 132.51 103.15 135.2 105.97 135.2 105.97 132.38 103.28 132.38"/><rect class="cls-32" x="27.28" y="132.51" width="2.92" height="2.69"/><rect class="cls-32" x="38.95" y="132.51" width="2.92" height="2.69"/><rect class="cls-32" x="44.79" y="132.51" width="2.92" height="2.69"/><rect class="cls-32" x="33.11" y="132.51" width="2.92" height="2.69"/><rect class="cls-32" x="21.44" y="132.51" width="2.92" height="2.69"/><rect class="cls-32" x="9.77" y="132.51" width="2.92" height="2.69"/><rect class="cls-32" x="15.6" y="132.51" width="2.92" height="2.69"/><rect class="cls-32" x="50.62" y="132.51" width="2.92" height="2.69"/><rect class="cls-32" x="85.64" y="132.51" width="2.92" height="2.69"/><rect class="cls-32" x="91.48" y="132.51" width="2.92" height="2.69"/><rect class="cls-32" x="97.31" y="132.51" width="2.92" height="2.69"/><rect class="cls-32" x="79.8" y="132.51" width="2.92" height="2.69"/><rect class="cls-32" x="62.3" y="132.51" width="2.92" height="2.69"/><rect class="cls-32" x="56.46" y="132.51" width="2.92" height="2.69"/><rect class="cls-32" x="73.97" y="132.51" width="2.92" height="2.69"/><rect class="cls-32" x="68.13" y="132.51" width="2.92" height="2.69"/><polygon class="cls-32" points="4.03 132.38 4.03 135.2 6.85 135.2 6.85 132.51 6.72 132.51 6.72 132.38 4.03 132.38"/><rect class="cls-32" x="4.03" y="50.89" width="2.69" height="2.91"/><rect class="cls-32" x="4.03" y="39.25" width="2.69" height="2.91"/><rect class="cls-32" x="4.03" y="45.07" width="2.69" height="2.91"/><rect class="cls-32" x="4.03" y="56.71" width="2.69" height="2.91"/><rect class="cls-32" x="4.03" y="68.35" width="2.69" height="2.91"/><rect class="cls-32" x="4.03" y="62.53" width="2.69" height="2.91"/><rect class="cls-32" x="4.03" y="15.97" width="2.69" height="2.91"/><rect class="cls-32" x="4.03" y="10.14" width="2.69" height="2.91"/><rect class="cls-32" x="4.03" y="33.43" width="2.69" height="2.91"/><rect class="cls-32" x="4.03" y="21.79" width="2.69" height="2.91"/><rect class="cls-32" x="4.03" y="27.61" width="2.69" height="2.91"/><rect class="cls-32" x="4.03" y="109.1" width="2.69" height="2.91"/><rect class="cls-32" x="4.03" y="114.92" width="2.69" height="2.91"/><rect class="cls-32" x="4.03" y="103.28" width="2.69" height="2.91"/><rect class="cls-32" x="4.03" y="120.74" width="2.69" height="2.91"/><rect class="cls-32" x="4.03" y="126.56" width="2.69" height="2.91"/><rect class="cls-32" x="4.03" y="97.46" width="2.69" height="2.91"/><rect class="cls-32" x="4.03" y="85.82" width="2.69" height="2.91"/><rect class="cls-32" x="4.03" y="74.17" width="2.69" height="2.91"/><rect class="cls-32" x="4.03" y="79.99" width="2.69" height="2.91"/><rect class="cls-32" x="4.03" y="91.64" width="2.69" height="2.91"/><polygon class="cls-32" points="6.85 7.11 6.85 4.42 4.03 4.42 4.03 7.23 6.72 7.23 6.72 7.11 6.85 7.11"/><rect class="cls-32" x="33.11" y="4.42" width="2.92" height="2.69"/><rect class="cls-32" x="44.79" y="4.42" width="2.92" height="2.69"/><rect class="cls-32" x="27.28" y="4.42" width="2.92" height="2.69"/><rect class="cls-32" x="50.62" y="4.42" width="2.92" height="2.69"/><rect class="cls-32" x="9.77" y="4.42" width="2.92" height="2.69"/><rect class="cls-32" x="21.44" y="4.42" width="2.92" height="2.69"/><rect class="cls-32" x="15.6" y="4.42" width="2.92" height="2.69"/><rect class="cls-32" x="38.95" y="4.42" width="2.92" height="2.69"/><rect class="cls-32" x="85.64" y="4.42" width="2.92" height="2.69"/><rect class="cls-32" x="91.48" y="4.42" width="2.92" height="2.69"/><rect class="cls-32" x="56.46" y="4.42" width="2.92" height="2.69"/><rect class="cls-32" x="97.31" y="4.42" width="2.92" height="2.69"/><rect class="cls-32" x="79.8" y="4.42" width="2.92" height="2.69"/><rect class="cls-32" x="62.3" y="4.42" width="2.92" height="2.69"/><rect class="cls-32" x="68.13" y="4.42" width="2.92" height="2.69"/><rect class="cls-32" x="73.97" y="4.42" width="2.92" height="2.69"/><polygon class="cls-32" points="105.97 7.23 105.97 4.42 103.15 4.42 103.15 7.11 103.28 7.11 103.28 7.23 105.97 7.23"/><rect class="cls-32" x="103.28" y="45.07" width="2.69" height="2.91"/><rect class="cls-32" x="103.28" y="39.25" width="2.69" height="2.91"/><rect class="cls-32" x="103.28" y="33.43" width="2.69" height="2.91"/><rect class="cls-32" x="103.28" y="50.89" width="2.69" height="2.91"/><rect class="cls-32" x="103.28" y="56.71" width="2.69" height="2.91"/><rect class="cls-32" x="103.28" y="15.97" width="2.69" height="2.91"/><rect class="cls-32" x="103.28" y="62.53" width="2.69" height="2.91"/><rect class="cls-32" x="103.28" y="10.14" width="2.69" height="2.91"/><rect class="cls-32" x="103.28" y="27.61" width="2.69" height="2.91"/><rect class="cls-32" x="103.28" y="21.79" width="2.69" height="2.91"/><rect class="cls-32" x="103.28" y="114.92" width="2.69" height="2.91"/><rect class="cls-32" x="103.28" y="103.28" width="2.69" height="2.91"/><rect class="cls-32" x="103.28" y="97.46" width="2.69" height="2.91"/><rect class="cls-32" x="103.28" y="109.1" width="2.69" height="2.91"/><rect class="cls-32" x="103.28" y="68.35" width="2.69" height="2.91"/><rect class="cls-32" x="103.28" y="120.74" width="2.69" height="2.91"/><rect class="cls-32" x="103.28" y="126.56" width="2.69" height="2.91"/><rect class="cls-32" x="103.28" y="79.99" width="2.69" height="2.91"/><rect class="cls-32" x="103.28" y="91.64" width="2.69" height="2.91"/><rect class="cls-32" x="103.28" y="74.17" width="2.69" height="2.91"/><rect class="cls-32" x="103.28" y="85.82" width="2.69" height="2.91"/><path class="cls-32" d="M8.86,9V130.9h92.28V9ZM90.38,120.15H19.62V19.77H90.38Z"/><path class="cls-33" d="M13.07,14.57V125.34H96.93V14.57ZM90.38,120.15H19.62V19.77H90.38Z"/><path class="cls-3" d="M11.36,11.51V128.4H98.64V11.51ZM92.88,122.64H17.12V17.27H92.88Z"/><rect class="cls-34" x="38.55" y="146.47" width="32.9" height="14.25"/><rect class="cls-35" x="43.4" y="150.72" width="23.3" height="3.34"/><rect class="cls-36" x="43.4" y="149.85" width="23.3" height="3.34"/><rect class="cls-35" x="43.4" y="155.27" width="10.33" height="1.16"/><rect class="cls-36" x="43.4" y="154.96" width="10.33" height="1.16"/><rect class="cls-35" x="54.45" y="155.27" width="10.33" height="1.16"/><rect class="cls-36" x="54.45" y="154.96" width="10.33" height="1.16"/><rect class="cls-35" x="47.46" y="157.19" width="5.89" height="1.16"/><rect class="cls-36" x="47.46" y="156.88" width="5.89" height="1.16"/><rect class="cls-35" x="54.13" y="157.19" width="5.89" height="1.16"/><rect class="cls-36" x="54.13" y="156.88" width="5.89" height="1.16"/><rect class="cls-35" x="60.67" y="157.19" width="2.15" height="1.16"/><rect class="cls-36" x="60.67" y="156.88" width="2.15" height="1.16"/><path class="cls-36" d="M40.52,148a.59.59,0,0,0-.6-.59.59.59,0,1,0,0,1.18A.59.59,0,0,0,40.52,148Z"/><path class="cls-36" d="M40.52,159a.6.6,0,0,0-.6-.59.6.6,0,0,0,0,1.19A.6.6,0,0,0,40.52,159Z"/><path class="cls-36" d="M70.44,148a.58.58,0,0,0-.59-.59.59.59,0,1,0,0,1.18A.58.58,0,0,0,70.44,148Z"/><path class="cls-36" d="M70.44,159a.59.59,0,0,0-.59-.59.6.6,0,1,0,0,1.19A.59.59,0,0,0,70.44,159Z"/></g></g></g></svg>