<svg xmlns="http://www.w3.org/2000/svg" xmlns:xlink="http://www.w3.org/1999/xlink" viewBox="0 0 187.29 162.26"><defs><style>.cls-1{fill:none;}.cls-2{fill:#937f2e;}.cls-3{fill:#776826;}.cls-4{fill:#af9b48;}.cls-5{clip-path:url(#clip-path);}.cls-6{fill:#aa634d;}.cls-7{fill:#723a26;}.cls-8{fill:#875641;}.cls-9{clip-path:url(#clip-path-2);}.cls-10{fill:#72a5a6;}.cls-11{fill:#5d8f8f;}.cls-12{fill:#8ebbb8;}.cls-13{fill:#d8dde7;}.cls-14{fill:#fff;}.cls-15{fill:#353a64;}.cls-16{fill:#a86f24;}.cls-17{fill:#7a7a7a;}.cls-18{fill:#949494;}.cls-19{fill:#e8c08f;}.cls-20{fill:#eccda8;}.cls-21{fill:#ce8d30;}.cls-22{fill:#bf9773;}.cls-23{fill:#ba8e5f;}.cls-24{fill:#d4ab80;}.cls-25{fill:#010002;}.cls-26{fill:#413732;}.cls-27{fill:#3c3123;}.cls-28{fill:#efe7d3;}</style><clipPath id="clip-path"><rect class="cls-1" x="22.06" width="111.21" height="141.45"/></clipPath><clipPath id="clip-path-2"><rect class="cls-1" x="37.8" y="17.14" width="78.74" height="107.44"/></clipPath></defs><title>cuadros_pared_Recurso 29</title><g id="Capa_2" data-name="Capa 2"><g id="Capa_1-2" data-name="Capa 1"><g id="Silencio"><rect class="cls-2" x="61.12" y="148" width="32.9" height="14.25"/><rect class="cls-3" x="65.96" y="152.25" width="23.3" height="3.34"/><rect class="cls-4" x="65.96" y="151.39" width="23.3" height="3.34"/><rect class="cls-3" x="65.96" y="156.8" width="10.33" height="1.16"/><rect class="cls-4" x="65.96" y="156.5" width="10.33" height="1.16"/><rect class="cls-3" x="77.02" y="156.8" width="10.33" height="1.16"/><rect class="cls-4" x="77.02" y="156.5" width="10.33" height="1.16"/><rect class="cls-3" x="70.03" y="158.72" width="5.89" height="1.16"/><rect class="cls-4" x="70.03" y="158.42" width="5.89" height="1.16"/><rect class="cls-3" x="76.7" y="158.72" width="5.89" height="1.16"/><rect class="cls-4" x="76.7" y="158.42" width="5.89" height="1.16"/><rect class="cls-3" x="83.23" y="158.72" width="2.15" height="1.16"/><rect class="cls-4" x="83.23" y="158.42" width="2.15" height="1.16"/><path class="cls-4" d="M63.08,149.56a.59.59,0,0,0-.59-.6.6.6,0,0,0-.6.6.59.59,0,0,0,.6.59A.58.58,0,0,0,63.08,149.56Z"/><path class="cls-4" d="M63.08,160.52a.58.58,0,0,0-.59-.59.59.59,0,0,0-.6.59.6.6,0,0,0,.6.6A.59.59,0,0,0,63.08,160.52Z"/><path class="cls-4" d="M93,149.56a.6.6,0,1,0-1.19,0,.6.6,0,0,0,1.19,0Z"/><path class="cls-4" d="M93,160.52a.6.6,0,0,0-1.19,0,.6.6,0,1,0,1.19,0Z"/><g class="cls-5"><rect class="cls-6" x="22.06" width="111.21" height="141.45"/><rect class="cls-7" x="24.21" y="2.64" width="106.92" height="136.17"/><polygon class="cls-8" points="126.47 133.84 126.47 133.97 126.34 133.97 126.34 136.69 129.19 136.69 129.19 133.84 126.47 133.84"/><rect class="cls-8" x="49.64" y="133.97" width="2.95" height="2.72"/><rect class="cls-8" x="61.44" y="133.97" width="2.95" height="2.72"/><rect class="cls-8" x="67.34" y="133.97" width="2.95" height="2.72"/><rect class="cls-8" x="55.54" y="133.97" width="2.95" height="2.72"/><rect class="cls-8" x="43.74" y="133.97" width="2.95" height="2.72"/><rect class="cls-8" x="31.94" y="133.97" width="2.95" height="2.72"/><rect class="cls-8" x="37.84" y="133.97" width="2.95" height="2.72"/><rect class="cls-8" x="73.24" y="133.97" width="2.95" height="2.72"/><rect class="cls-8" x="108.64" y="133.97" width="2.95" height="2.72"/><rect class="cls-8" x="114.54" y="133.97" width="2.95" height="2.72"/><rect class="cls-8" x="120.44" y="133.97" width="2.95" height="2.72"/><rect class="cls-8" x="102.74" y="133.97" width="2.95" height="2.72"/><rect class="cls-8" x="85.04" y="133.97" width="2.95" height="2.72"/><rect class="cls-8" x="79.14" y="133.97" width="2.95" height="2.72"/><rect class="cls-8" x="96.84" y="133.97" width="2.95" height="2.72"/><rect class="cls-8" x="90.94" y="133.97" width="2.95" height="2.72"/><polygon class="cls-8" points="26.14 133.84 26.14 136.69 28.99 136.69 28.99 133.97 28.86 133.97 28.86 133.84 26.14 133.84"/><rect class="cls-8" x="26.14" y="51.45" width="2.72" height="2.94"/><rect class="cls-8" x="26.14" y="39.68" width="2.72" height="2.94"/><rect class="cls-8" x="26.14" y="45.56" width="2.72" height="2.94"/><rect class="cls-8" x="26.14" y="57.33" width="2.72" height="2.94"/><rect class="cls-8" x="26.14" y="69.1" width="2.72" height="2.94"/><rect class="cls-8" x="26.14" y="63.22" width="2.72" height="2.94"/><rect class="cls-8" x="26.14" y="16.14" width="2.72" height="2.94"/><rect class="cls-8" x="26.14" y="10.26" width="2.72" height="2.94"/><rect class="cls-8" x="26.14" y="33.79" width="2.72" height="2.94"/><rect class="cls-8" x="26.14" y="22.03" width="2.72" height="2.94"/><rect class="cls-8" x="26.14" y="27.91" width="2.72" height="2.94"/><rect class="cls-8" x="26.14" y="110.3" width="2.72" height="2.94"/><rect class="cls-8" x="26.14" y="116.18" width="2.72" height="2.94"/><rect class="cls-8" x="26.14" y="104.41" width="2.72" height="2.94"/><rect class="cls-8" x="26.14" y="122.07" width="2.72" height="2.94"/><rect class="cls-8" x="26.14" y="127.95" width="2.72" height="2.94"/><rect class="cls-8" x="26.14" y="98.53" width="2.72" height="2.94"/><rect class="cls-8" x="26.14" y="86.76" width="2.72" height="2.94"/><rect class="cls-8" x="26.14" y="74.99" width="2.72" height="2.94"/><rect class="cls-8" x="26.14" y="80.87" width="2.72" height="2.94"/><rect class="cls-8" x="26.14" y="92.64" width="2.72" height="2.94"/><polygon class="cls-8" points="28.99 7.18 28.99 4.47 26.14 4.47 26.14 7.31 28.86 7.31 28.86 7.18 28.99 7.18"/><rect class="cls-8" x="55.54" y="4.47" width="2.95" height="2.72"/><rect class="cls-8" x="67.34" y="4.47" width="2.95" height="2.72"/><rect class="cls-8" x="49.64" y="4.47" width="2.95" height="2.72"/><rect class="cls-8" x="73.24" y="4.47" width="2.95" height="2.72"/><rect class="cls-8" x="31.94" y="4.47" width="2.95" height="2.72"/><rect class="cls-8" x="43.74" y="4.47" width="2.95" height="2.72"/><rect class="cls-8" x="37.84" y="4.47" width="2.95" height="2.72"/><rect class="cls-8" x="61.44" y="4.47" width="2.95" height="2.72"/><rect class="cls-8" x="108.64" y="4.47" width="2.95" height="2.72"/><rect class="cls-8" x="114.54" y="4.47" width="2.95" height="2.72"/><rect class="cls-8" x="79.14" y="4.47" width="2.95" height="2.72"/><rect class="cls-8" x="120.44" y="4.47" width="2.95" height="2.72"/><rect class="cls-8" x="102.74" y="4.47" width="2.95" height="2.72"/><rect class="cls-8" x="85.04" y="4.47" width="2.95" height="2.72"/><rect class="cls-8" x="90.94" y="4.47" width="2.95" height="2.72"/><rect class="cls-8" x="96.84" y="4.47" width="2.95" height="2.72"/><polygon class="cls-8" points="129.19 7.31 129.19 4.47 126.34 4.47 126.34 7.18 126.47 7.18 126.47 7.31 129.19 7.31"/><rect class="cls-8" x="126.47" y="45.56" width="2.72" height="2.94"/><rect class="cls-8" x="126.47" y="39.68" width="2.72" height="2.94"/><rect class="cls-8" x="126.47" y="33.79" width="2.72" height="2.94"/><rect class="cls-8" x="126.47" y="51.45" width="2.72" height="2.94"/><rect class="cls-8" x="126.47" y="57.33" width="2.72" height="2.94"/><rect class="cls-8" x="126.47" y="16.14" width="2.72" height="2.94"/><rect class="cls-8" x="126.47" y="63.22" width="2.72" height="2.94"/><rect class="cls-8" x="126.47" y="10.26" width="2.72" height="2.94"/><rect class="cls-8" x="126.47" y="27.91" width="2.72" height="2.94"/><rect class="cls-8" x="126.47" y="22.03" width="2.72" height="2.94"/><rect class="cls-8" x="126.47" y="116.18" width="2.72" height="2.94"/><rect class="cls-8" x="126.47" y="104.41" width="2.72" height="2.94"/><rect class="cls-8" x="126.47" y="98.53" width="2.72" height="2.94"/><rect class="cls-8" x="126.47" y="110.3" width="2.72" height="2.94"/><rect class="cls-8" x="126.47" y="69.1" width="2.72" height="2.94"/><rect class="cls-8" x="126.47" y="122.07" width="2.72" height="2.94"/><rect class="cls-8" x="126.47" y="127.95" width="2.72" height="2.94"/><rect class="cls-8" x="126.47" y="80.87" width="2.72" height="2.94"/><rect class="cls-8" x="126.47" y="92.64" width="2.72" height="2.94"/><rect class="cls-8" x="126.47" y="74.99" width="2.72" height="2.94"/><rect class="cls-8" x="126.47" y="86.76" width="2.72" height="2.94"/><g class="cls-9"><rect class="cls-10" x="20.97" y="12.99" width="122.19" height="124.01"/><polygon class="cls-11" points="18.38 102.05 33.83 89.28 32.88 89.11 18.38 102.05"/><polygon class="cls-11" points="90.35 100.76 99.88 94.2 93.38 89.04 90.35 100.76"/><polygon class="cls-11" points="63.97 30.12 73.99 37.21 70.74 22.89 63.97 30.12"/><polygon class="cls-11" points="99.88 94.2 111.06 103.09 118.57 81.34 99.88 94.2"/><polygon class="cls-11" points="28.73 29.78 28.96 48.46 33.56 30.5 28.73 29.78"/><polygon class="cls-11" points="33.56 30.5 28.96 48.46 29 51.05 56.7 33.96 33.56 30.5"/><polygon class="cls-11" points="28.73 29.78 18.64 28.27 3.37 84.45 0 123.54 37.54 133.38 59.03 116.81 27.44 107.49 76.63 97.13 33.83 89.28 18.38 102.05 32.88 89.11 33.83 89.28 63.17 65.03 93.38 89.04 99.93 63.73 138.25 93.51 98.89 50.79 136.95 73.83 139.28 48.98 92.68 47.43 135.4 33.19 130.22 22.31 21.23 80.05 114.17 13.25 84.14 8.59 70.74 22.89 73.99 37.21 63.97 30.12 22.26 74.61 28.96 48.46 28.73 29.78"/><path class="cls-11" d="M38.32,12,64,30.12l6.78-7.23L68.09,11.18a56.26,56.26,0,0,0-8.81-3.11c-3.62-.77-30.8,1.3-30.8,1.3l.25,20.41,4.83.72Z"/><path class="cls-12" d="M99.62,95.07s37.27-20,37.27-20.58L145.63,72l-44.27,1.16-.19,1.55,29.51-.38L93.79,89.63Z"/><path class="cls-12" d="M17.1,27.31c3.5.58,49.12,9.32,49.12,9.32L27.39,23.82Z"/><polygon class="cls-12" points="39.82 29.64 102.14 14.5 81.95 13.72 39.82 29.64"/><line class="cls-12" x1="102.14" y1="14.5" x2="42.54" y2="29.64"/><polygon class="cls-12" points="22.93 51.39 27.39 65.17 31.14 62.01 29.14 54.1 64.09 31.97 22.93 51.39"/><path class="cls-12" d="M63.5,34.69,31.14,62l1.49,5.88C33.8,66.92,63.5,34.69,63.5,34.69Z"/><path class="cls-12" d="M26.84,85.94l.55,2.92c.06,0,.46.06,1.12.18Z"/><path class="cls-12" d="M28.51,89c.95,1.75,1.6,2.92,1.6,2.92l3.12-2Z"/><path class="cls-12" d="M57.27,74.2l6.43-.49-5.81.08Z"/><path class="cls-12" d="M33.23,89.92C47.31,92.59,82,99.34,82,99.34L38.17,86.69Z"/><path class="cls-12" d="M53.54,73.85,21,74.3c-.35,0,3.1,6.52,5.86,11.64l-1.78-9.31,26.72-2Z"/><path class="cls-12" d="M53.54,73.85l4.35-.06L66,68.47Z"/><path class="cls-12" d="M53.54,73.85l-1.76.76,5.49-.41.62-.41Z"/><polygon class="cls-12" points="51.77 74.61 29.53 84.2 38.17 86.69 57.27 74.2 51.77 74.61"/><polygon class="cls-12" points="70.88 96.43 53.51 92.13 57.87 94.88 56.32 110.02 70.88 96.43"/><polygon class="cls-12" points="51.27 91.58 27.59 116.23 30.89 129.63 52.46 91.87 51.27 91.58"/><polygon class="cls-12" points="52.46 91.87 53.51 92.13 52.63 91.58 52.46 91.87"/><path class="cls-13" d="M186.66,147.1s4.66-26.41-11.39-41.17-69.39-11.65-69.39-11.65L100.19,79,67.31,90.92l-47.89,49.7,15.27,1,52,1Z"/><polygon class="cls-14" points="29.07 130.6 47.06 134.42 62.71 95.7 29.07 130.6"/><path class="cls-15" d="M52.16,106.64l-4.45,4.62L182,114.6a33,33,0,0,0-6.11-8.13Z"/><path class="cls-15" d="M42.82,116.33l-5.55,5.77,150,15.17a60.64,60.64,0,0,0-.91-9.62Z"/><path class="cls-15" d="M105.88,94.28l-2.51-6.75-28.53.66-7.53,2.73-9.86,10.23,102-2.81C137.54,92.44,105.88,94.28,105.88,94.28Z"/><polygon class="cls-16" points="88.13 83.38 67.31 90.92 61.39 97.06 105.88 94.28 101.61 82.81 88.13 83.38"/><path class="cls-17" d="M87.26,29.19C81.43,23.36,64.93,23.36,55,32.1s-6.8,36.11-6.8,36.11L88.42,52.29S93.08,35,87.26,29.19Z"/><path class="cls-18" d="M53.58,33.62a14.49,14.49,0,0,0-1.06,1.47H59.2V33.62Z"/><path class="cls-18" d="M52,36c-.27.47-.51,1-.75,1.47h7V36Z"/><path class="cls-18" d="M56.11,31.2q-.55.43-1.08.9a8.08,8.08,0,0,0-.6.57h5.46V31.2Z"/><path class="cls-18" d="M49.63,42c-.13.48-.26,1-.37,1.47h7.52V42Z"/><path class="cls-18" d="M50.54,39.14c-.18.48-.35,1-.5,1.47h7.69V39.14Z"/><path class="cls-18" d="M48.86,45.35c-.09.49-.17,1-.25,1.47h7.74V45.35Z"/><path class="cls-19" d="M64.72,108c2.7,2.86,19.89-2,25.13-4.92s10.73-21.45,11.38-26,1.64-28.82-.32-32.91S93.7,20.56,71.27,23.67,47.81,60,47.81,60s-2,13.52-1.65,14.66c0,0-.16,4.11,1.48,6.81a43.74,43.74,0,0,0,11.47-1.3s.94,9.14,2.54,10.74l2.46,1.18s-2.66,1.39-1.85,4.06,2.95,1.47,2.95,1.47l-.16,2.13S62,105.13,64.72,108Z"/><path class="cls-20" d="M71.27,23.67C59.92,25.25,54.05,34.52,51,43.3l9.39,6.46-1.3-7.17L87.05,25.87C83.06,23.81,77.92,22.75,71.27,23.67Z"/><path class="cls-14" d="M64.72,108c.92,1,3.52,1,6.75.62-2-4-5.91-11.62-5.91-11.62l-2.62.36a2,2,0,0,0,2.27.24l-.16,2.13S62,105.13,64.72,108Z"/><path class="cls-21" d="M77.67,101.08s.58-.78-2.79-4c-2.8-2.7-9.29-.23-11.37.67a2.17,2.17,0,0,0,1.7-.14l0,.54A16.52,16.52,0,0,1,77.67,101.08Z"/><path class="cls-20" d="M71.27,23.67C59.92,25.25,54.05,34.52,51,43.3l9.39,6.46-1.3-7.17L87.05,25.87C83.06,23.81,77.92,22.75,71.27,23.67Z"/><path class="cls-14" d="M81.07,23.81a29.93,29.93,0,0,0-9.8-.14c-8.58,1.19-14,6.78-17.48,13.23h3.34l2,5.69S74.31,29.2,81.07,23.81Z"/><path class="cls-22" d="M89.85,103.08c5.24-2.94,10.73-21.45,11.38-26s1.64-28.82-.32-32.91c-1.25-2.6-3.81-11.39-11.25-16.67L82,57.15l.39,8.73,4.27-.39,3.69,3.11-7.18,9.9s10.2,12.85,5.63,25.12A11,11,0,0,0,89.85,103.08Z"/><path class="cls-21" d="M102.06,59.21c0-1,0-2,0-3-4.3,4-11.48,3.56-11.56,3.55l-.14,2-.07-.05c-.85-.67-3.44-2.69-5.35-1.55s-1.4,4-1.3,4.54l.07.43.35.28c.44.35,8.9,7.06,16.41,7.06a11.12,11.12,0,0,0,1.16-.06c0-.73.09-1.52.13-2.35-6.06.89-14.08-4.83-15.88-6.18a2.72,2.72,0,0,1,.26-1.72s.66-.22,2.72,1.38c3.77,3,9.22,3.46,13,3.39,0-.77.06-1.55.08-2.34-3.26.07-7.85-.3-11.1-2.46C92.57,62.17,97.86,62,102.06,59.21Z"/><path class="cls-17" d="M98.73,61.91l8.55-.37s2.09-21-6.26-31.53a17.71,17.71,0,0,0-19.47-6.08L84.14,25,97.86,39.79Z"/><rect class="cls-18" x="98.54" y="31.59" width="1.81" height="4.69" transform="translate(-2.62 58.91) rotate(-32.59)"/><rect class="cls-18" x="95.27" y="32.12" width="1.81" height="6.09" transform="translate(2.98 77.6) rotate(-44.57)"/><rect class="cls-18" x="99.83" y="39.65" width="1.81" height="5.65" transform="translate(-8.2 33.25) rotate(-18.02)"/><rect class="cls-18" x="102.36" y="47.89" width="1.81" height="5.67" transform="translate(-11.27 39.8) rotate(-20.71)"/><rect class="cls-18" x="89.25" y="26.9" width="1.81" height="4.68" transform="translate(3.35 67.28) rotate(-41.64)"/><path class="cls-18" d="M92.58,24a17.52,17.52,0,0,0-5-.85l-.13.27,5.31,2.72.82-1.62Z"/><path class="cls-18" d="M104.57,37l-1.52,1,3.37,5.18A43.82,43.82,0,0,0,105,37.68Z"/><rect class="cls-18" x="92.49" y="25.75" width="1.81" height="6.07" transform="translate(11.49 82.1) rotate(-50.19)"/><path class="cls-18" d="M99.87,28.69l-4.66-2.76-.92,1.56,5.7,3.37.72-1.22C100.43,29.3,100.16,29,99.87,28.69Z"/><polygon class="cls-18" points="100.44 48.96 98.07 45.1 98.21 48.79 98.9 49.91 100.44 48.96"/><rect class="cls-18" x="100.03" y="51.75" width="1.81" height="5.34" transform="translate(-5.33 11.34) rotate(-6.26)"/><path class="cls-18" d="M105.72,45.49l-1.49,1,3.14,4.53c-.07-1.16-.17-2.39-.31-3.64Z"/><path class="cls-18" d="M107.42,59.53,105,54.59l-1.62.81L106,60.84l1.34-.67C107.39,60,107.41,59.76,107.42,59.53Z"/><path class="cls-18" d="M85.23,23.2a18.33,18.33,0,0,0-3.15.58l5.51,2.47.74-1.66Z"/><rect class="cls-18" x="102.42" y="39.77" width="1.81" height="4.38" transform="translate(-7.33 55.78) rotate(-29.22)"/><path class="cls-18" d="M100.92,32.67,104.39,36a25.41,25.41,0,0,0-2.32-4.53Z"/><path class="cls-22" d="M109.64,58.56c-10-4.14-14.37,9.84-14.37,9.84L94.49,78C102.26,98.56,119.61,62.7,109.64,58.56Z"/><path class="cls-23" d="M112.61,63.75a3.72,3.72,0,0,0-1.84-1.66c-8.8-3.65-12.68,8.66-12.68,8.66l-.3,3.71c1.65-3.38,5.42-8.88,11.69-6.29a3.81,3.81,0,0,1,1.85,1.67,14.43,14.43,0,0,1,0,2A21.62,21.62,0,0,0,112.61,63.75Z"/><path class="cls-24" d="M76.29,92.82l3.19-2-3.8-10.78-11-5.31-4.17,2.11S64.2,89,64.38,89.37,76.29,92.82,76.29,92.82Z"/><path class="cls-20" d="M61.65,90.89l1.56.75,2.68.06.9-2.59L62.13,76.55l-6,1.36.73,2.74c.74-.14,1.5-.31,2.27-.5C59.11,80.15,60.05,89.29,61.65,90.89Z"/><path class="cls-20" d="M48.49,53.67c-.35,2.17-.52,3.94-.6,5l6.65,1.56L51.78,54.5Z"/><polygon class="cls-20" points="46.32 77.29 59.41 61.53 51.06 60.3 46.32 77.29"/><path class="cls-14" d="M71.27,23.67c-8.74,1.21-14.23,7-17.68,13.6l3.49,1L74.34,23.38C73.36,23.43,72.33,23.53,71.27,23.67Z"/><path class="cls-24" d="M76.29,92.82l3.19-2-3.8-10.78-11-5.31-4.17,2.11S64.2,89,64.38,89.37,76.29,92.82,76.29,92.82Z"/><path class="cls-20" d="M61.65,90.89l1.56.75,2.68.06.9-2.59L62.13,76.55l-6,1.36.73,2.74c.74-.14,1.5-.31,2.27-.5C59.11,80.15,60.05,89.29,61.65,90.89Z"/><path class="cls-20" d="M48.49,53.67c-.35,2.17-.52,3.94-.6,5l6.65,1.56L51.78,54.5Z"/><polygon class="cls-20" points="46.32 77.29 59.41 61.53 51.06 60.3 46.32 77.29"/><polygon class="cls-14" points="58.44 60.63 58.05 61.34 63.81 74.93 71.52 66.26 58.44 60.63"/><path class="cls-23" d="M62.26,96.13c.49,1.58,1.45,1.8,2.14,1.72l.81-.25s3.52-1.76,6.29-1.55,6.73-4.61,6.73-4.61L63.9,92l.21.1S61.45,93.46,62.26,96.13Z"/><path class="cls-21" d="M66.43,63c-.08-.14-.16-.27-.24-.42A1.67,1.67,0,0,0,66.43,63Z"/><path class="cls-21" d="M86,65.46l8-4.92s-5.18-8.2-11.65-6.81-8.63,6.21-12,8.71c-2.38,1.77-3.47,1.12-3.9.59,3.06,5,9.77,5.45,9.77,5.45Z"/><path class="cls-21" d="M50.92,43.61a62.46,62.46,0,0,0-2.53,10.68l14.35-.65.6-6.65c-8.54.69-7.94-5.35-7.94-5.35Z"/><path class="cls-23" d="M59.11,80.15l5.55-5.41-18,4.3a9,9,0,0,0,1,2.41A43.74,43.74,0,0,0,59.11,80.15Z"/><path class="cls-14" d="M46.32,77.29l8.89-16.4L50.35,60l-2.49-.77c0,.5,0,.77,0,.77s-2,13.52-1.65,14.66A16.12,16.12,0,0,0,46.32,77.29Z"/><path class="cls-14" d="M58.9,47.88a18.55,18.55,0,0,0-10.49,6.73C52.94,58.82,59.28,58,59.28,58Z"/><path class="cls-25" d="M59.47,48.84l-.2-2.06c-7.12.69-11.89,7.23-12.09,7.51l1.68,1.21C48.91,55.43,53.3,49.44,59.47,48.84Z"/><path class="cls-25" d="M47.19,53c-.25.3-.38.49-.4.51l1.69,1.21s.11-.16.32-.41Z"/><path class="cls-25" d="M52.56,48.25c-.34.2-.68.43-1,.66l1.2,1.69c.3-.21.6-.41.9-.59Z"/><path class="cls-25" d="M50.59,49.64c-.31.24-.62.5-.91.77L51.05,52c.28-.25.55-.48.83-.71Z"/><path class="cls-25" d="M54.71,47.11c-.37.16-.74.34-1.1.53l1,1.83c.32-.16.64-.32,1-.46Z"/><path class="cls-25" d="M57,46.32c-.4.1-.79.21-1.19.35l.67,2a10.43,10.43,0,0,1,1-.3Z"/><path class="cls-25" d="M48.8,51.23c-.28.28-.56.57-.83.86l1.53,1.4c.25-.27.5-.53.76-.79Z"/><path class="cls-25" d="M58.88,46l-.63.07.31,2.05.52-.06Z"/><path class="cls-14" d="M91.13,61.52c-14.95-6.91-19.69,5.3-19.69,5.3C86.23,74,91.13,61.52,91.13,61.52Z"/><ellipse class="cls-26" cx="83.58" cy="64.08" rx="4.25" ry="4.33"/><path class="cls-25" d="M85.34,64.08a1.76,1.76,0,1,0-1.76,1.79A1.78,1.78,0,0,0,85.34,64.08Z"/><path class="cls-25" d="M77.88,61.38c3.46-1.48,7.76-1.05,12.79,1.26l.92-2C86,58.06,81.07,57.62,77,59.36a13.78,13.78,0,0,0-7.16,7.55l2.08.72A11.64,11.64,0,0,1,77.88,61.38Z"/><ellipse class="cls-26" cx="58.92" cy="53.4" rx="4.64" ry="4.72"/><path class="cls-25" d="M60.84,53.4a1.92,1.92,0,1,0-1.92,2A1.93,1.93,0,0,0,60.84,53.4Z"/><path class="cls-21" d="M79.91,92.73s-.78-7.51-3.37-12.68-16.91-6.82-16.91-6.82,9.15,4.31,13.89,8.28S79.91,92.73,79.91,92.73Z"/><path class="cls-21" d="M72.29,70.85s7,4.73,14.24.65Z"/><path class="cls-21" d="M59.87,59.82c-4.07,1-8.85-.88-11.87-2.4-.11,1.19-.16,2-.18,2.37a23.47,23.47,0,0,0,9.63,2.5A12.6,12.6,0,0,0,60.38,62Z"/><path class="cls-27" d="M52.44,77.3a2.13,2.13,0,0,0-1.71,2.15l3.68-.29A2.1,2.1,0,0,0,52.44,77.3Z"/><path class="cls-27" d="M58.65,76.49a2.13,2.13,0,0,0-1.71,2.15l3.69-.29A2.13,2.13,0,0,0,58.65,76.49Z"/><path class="cls-16" d="M78.44,91.5,66.79,89.11l-1.68,2.13-3.75-.77h0a2.29,2.29,0,0,0,.3.41l2.46,1.18a4.94,4.94,0,0,0-.76.54Z"/><path class="cls-22" d="M87,94,80.77,82.2l3.79,23.13,1.56-.57Z"/><path class="cls-22" d="M88.73,51l.72-3.44S77.34,44.32,72.68,56.1A15.58,15.58,0,0,1,88.73,51Z"/><path class="cls-22" d="M54.13,36.28a39.22,39.22,0,0,0-1.79,3.62l4.74-1.66s-1.42,6.08,7.19,5.43c0,0-6.93-.32-5.83-7.44Z"/><path class="cls-22" d="M90,37.33s-10.29,5.37-27.44,2.2c0,0,16,6.47,26.27,1.29Z"/><path class="cls-21" d="M89.13,81.86a1.8,1.8,0,0,0,.92-2.3c-.27-1.08-1.13-1.79-1.91-1.59a1.8,1.8,0,0,0-.92,2.3C87.5,81.35,88.35,82.06,89.13,81.86Z"/><polygon class="cls-12" points="46.22 11.78 39.04 12.36 56.52 25.56 58.07 22.85 46.22 11.78"/></g><path class="cls-8" d="M31,9.11V132.34h93.29V9.11Zm82.42,112.36H41.9V20h71.54Z"/><path class="cls-28" d="M35.28,14.73v112h84.77v-112Zm78.16,106.74H41.9V20h71.54Z"/><path class="cls-7" d="M33.55,11.63V129.82h88.23V11.63ZM116,124H39.37V17.46H116Z"/></g></g></g></g></svg>