<svg xmlns="http://www.w3.org/2000/svg" viewBox="0 0 53.16 85.23"><defs><style>.cls-1{fill:#3a3d3f;}.cls-2{fill:#050505;}.cls-3{fill:#2c2f30;}.cls-4{fill:#fcfcfc;}.cls-5{fill:#4d87aa;}.cls-6{fill:#e4e7ea;}.cls-7{fill:#eab5a4;}.cls-8{fill:#d3ad35;}.cls-9{fill:#7bb299;}.cls-10{fill:#6e897c;}.cls-11{fill:#9e5c21;}.cls-12{fill:#685a21;}.cls-13{fill:#dda292;}.cls-14{fill:#3a2a19;}.cls-15{fill:#845e45;}.cls-16{fill:#050206;}.cls-17{fill:#3e3d3e;}.cls-18{fill:#eab7a0;}.cls-19{fill:#d8a18b;}.cls-20{fill:#f4caba;}.cls-21{fill:#f4c3b0;}.cls-22{fill:#fff;}</style></defs><title>daliRecurso 19</title><g id="Capa_2" data-name="Capa 2"><g id="Capa_1-2" data-name="Capa 1"><g id="Silencio"><path class="cls-1" d="M27,83.73l-2.22.16a11.88,11.88,0,0,1-.58,1.34h8S28.43,84,27,83.73Z"/><path class="cls-1" d="M17.45,83.73l-2.22.16a11.88,11.88,0,0,1-.58,1.34h8S18.87,84,17.45,83.73Z"/><path class="cls-2" d="M24.53,84.08h3.64s2.48-15.38,1.17-21L28,57.54l-6.27,5.3S25.74,79.25,24.53,84.08Z"/><path class="cls-2" d="M19.18,84.08s5.39-15.38,4.08-21L22,57.54l-6.27,5.3s1.89,17.1-.87,21.24Z"/><path class="cls-2" d="M17.85,84.08c3.27-5.09.81-21.57.81-21.57l3.88-2.44L22,57.54l-6.27,5.3s1.89,17.1-.87,21.24Z"/><path class="cls-2" d="M18.08,66.79l.11-1.6s-8.75-1-10.5-5.91,7-10.31,7-10.31l4.16,3.09-7-8.34S1.9,51.5,3.43,59.57,18.08,66.79,18.08,66.79Z"/><path class="cls-2" d="M15.46,63.52c-.22,1-.93,6-1,6.45H30.34L29.66,43.4l-6-1L18.23,43l-6.38.58S16.42,59,15.46,63.52Z"/><path class="cls-3" d="M15.73,50.35l9.46,7.87,3.61-8.36-1.91-1.64,1.53-.92L27,43l-2.85-.53-1,0-4.9.6-3.36.34A12.2,12.2,0,0,1,14,46.45l3.4,2.07Z"/><polygon class="cls-4" points="26.2 42.88 23.64 42.4 18.23 43.06 15.7 43.32 24.93 57.33 26.2 42.88"/><polygon class="cls-5" points="22.53 53.68 24.93 57.33 25.3 53.17 23.28 48.88 23.99 46.28 20.4 46.6 19.92 47.21 21.72 48.88 22.53 53.68"/><path class="cls-6" d="M20.44,48.63l1-2.34L24.13,48,26,45.44l.22-2.56-2.53-.47h-.06l-5.38.65-2.53.26,2.93,4.45Z"/><path class="cls-3" d="M25.19,60.65a.4.4,0,0,0,.43-.36.43.43,0,0,0-.85,0A.39.39,0,0,0,25.19,60.65Z"/><path class="cls-3" d="M25.51,64.24a.4.4,0,0,0,.43-.36.43.43,0,0,0-.85,0A.39.39,0,0,0,25.51,64.24Z"/><path class="cls-3" d="M25.41,67.89a.39.39,0,0,0,.42-.36.43.43,0,0,0-.85,0A.4.4,0,0,0,25.41,67.89Z"/><ellipse class="cls-3" cx="25.16" cy="71.24" rx="0.43" ry="0.36"/><path class="cls-7" d="M17,66.58c3.83-2.54.51-2.81.51-2.81L10.2,65S13.13,69.13,17,66.58Z"/><path class="cls-8" d="M8.64,65.4c3.69,1.7,6.85.55,6.62,1.9s-3,3,3.22,3.77S33.63,68.56,34.1,65.6,28.83,57.21,15,60.53C15,60.53,5,63.69,8.64,65.4Z"/><path class="cls-9" d="M18.09,69.63c1.25,0,2.26-.43,2.26-.95s-1-1-2.26-1-2.27.43-2.27,1S16.84,69.63,18.09,69.63Z"/><path class="cls-10" d="M24.64,68.63c1.44,0,2.61-.39,2.61-.86s-1.17-.85-2.61-.85S22,67.3,22,67.77,23.2,68.63,24.64,68.63Z"/><ellipse class="cls-7" cx="29.32" cy="65.28" rx="2.81" ry="1.24"/><path class="cls-11" d="M26.79,63.54c1.4,0,2.53-.47,2.53-1s-1.13-1-2.53-1-2.54.47-2.54,1S25.38,63.54,26.79,63.54Z"/><path class="cls-12" d="M20.11,62.27c1.36,0,2.46-.39,2.46-.87s-1.1-.87-2.46-.87-2.45.39-2.45.87S18.76,62.27,20.11,62.27Z"/><path class="cls-7" d="M14.17,64.57c.21-.28,1,0,1,0l1.11,0a3,3,0,0,0-4.71-.37C11.92,64.77,14,64.84,14.17,64.57Z"/><path class="cls-2" d="M38.31,58.84c3.26-.8,5.17-14.54,5.17-14.54l-2.89-2.25S40,52.9,36.76,53.65,29,43.53,29,43.53s-2.5.55-2.63.55l2.24,4.39C29.18,52.32,35.05,59.64,38.31,58.84Z"/><path class="cls-13" d="M43.11,42.84c.08-1.23,1.52-1,1.52-1v-.55l-.53-.58S43,39.26,42,40A3.83,3.83,0,0,0,41,42.32l1.51,1.43S43,44.06,43.11,42.84Z"/><path class="cls-7" d="M44.81,42l-.27-.11s0,1.2-.64,1.3-1.43-1.62-.62-2,1.4.58,1.4.58l.24-.13S44.55,40,43,40.07s-2.08,2.47-2.08,2.47L42.73,45C44.86,45.24,44.81,42,44.81,42Z"/><path class="cls-14" d="M41.68,43.38c2.32,0,10.1-4.93,10.1-4.93A33.3,33.3,0,0,0,41.68,43.38Z"/><path class="cls-8" d="M51.78,38.45a26,26,0,0,0-3.61,1.27l.24.76C50.28,39.41,51.78,38.45,51.78,38.45Z"/><path class="cls-15" d="M53.08,38.11a3.12,3.12,0,0,0,0-1.47,1,1,0,0,1-.77,1,1,1,0,0,0-.78,1l-.06.12S52.87,38.63,53.08,38.11Z"/><path class="cls-6" d="M43.48,44.3l-2.89-2.25s-.06,1.06-.23,2.55l2.75,2C43.35,45.22,43.48,44.3,43.48,44.3Z"/><ellipse class="cls-16" cx="17.75" cy="6.36" rx="12.6" ry="6.35" transform="translate(-0.22 0.64) rotate(-2.06)"/><path class="cls-17" d="M18.42,12.69c7-.37,12.28-3.51,11.91-7S24-.34,17.08,0h0l1.34,12.65Z"/><path class="cls-17" d="M33,21.36s3.36-7.51,3.3-11.49S25.18,1.47,19.67,5.75s-5.53,4.92-5.53,4.92l3.33,9Z"/><path class="cls-17" d="M31.09,21.33c-4.54-4.44-6.67,5.31-6.67,5.31l4.85,3.09S35.63,25.78,31.09,21.33Z"/><path class="cls-16" d="M5.73,22.82l15-3.29,1.38-9.28S22,9.61,15.6,6-.74,7.87,0,11.82,5.73,22.82,5.73,22.82Z"/><path class="cls-16" d="M11.17,30.7l4.14-3.57S11.15,17.71,7.6,22.6,11.17,30.7,11.17,30.7Z"/><path class="cls-18" d="M28.13,28.42c1.66.24,4-3.17,4.87-6.12s-.17-4.32-1.83-4.56-3.34.75-4.18,3.7S26.47,28.19,28.13,28.42Z"/><path class="cls-19" d="M11.78,29.3c1.59-.41,1.11-4.2-.35-7s-3.32-3.62-4.91-3.2-2.29,1.87-.84,4.7S10.19,29.71,11.78,29.3Z"/><path class="cls-20" d="M21.8,46.83,27,43,31.55,11s-2.73-3.3-8.8-4.85a43.43,43.43,0,0,1-5.23.59,43.87,43.87,0,0,1-5.27,0C6.59,8.86,4.6,12.41,4.6,12.41L15.7,43.32Z"/><path class="cls-21" d="M21.8,46.83l.15-.09L21,37.3l-1.44.08-1.93-.07-2.8-1.68L12.29,20.45l-1.12-7.22-2.25.38L7.42,9.39a11.56,11.56,0,0,0-2.82,3l9.9,30.22Z"/><path class="cls-18" d="M23,28.15l.34-.21L23,26.85a8.48,8.48,0,0,1-5.68.36l-.2,1.26L20,29Z"/><polygon class="cls-18" points="19.52 30.3 19.48 30.31 19.85 30.46 19.52 30.3"/><path class="cls-18" d="M12.15,31.73a15.51,15.51,0,0,0,6.24-1l1.09-.43L18,29.71s-1,1-6,1.23a6.58,6.58,0,0,1-1.77-.13l.23.76A9.17,9.17,0,0,0,12.15,31.73Z"/><path class="cls-18" d="M21.41,30.58a16.36,16.36,0,0,0,6.38.31,8.51,8.51,0,0,0,2.44-.62l.06-.81a6.09,6.09,0,0,1-2.48.63c-5,.3-6.23-.58-6.23-.58l-.95.64.54.17Z"/><path class="cls-19" d="M20.31,29.3a5.32,5.32,0,0,0,3.31-1.18L21,19.52l1.84,8.21a6.5,6.5,0,0,1-2.59.76A7,7,0,0,1,17.5,28l.09-8.32-.8,8.78A5.8,5.8,0,0,0,20.31,29.3Z"/><path class="cls-18" d="M20.62,33.06a7.05,7.05,0,0,1,2.16.17l3-1.18s-2.84-.82-2.88-.82l-2.42.51L18,31.49,15.3,32.61l3.22.85A6.9,6.9,0,0,1,20.62,33.06Z"/><path class="cls-19" d="M20.49,31.84a4.75,4.75,0,0,0,2-.48l3.32.69a22.15,22.15,0,0,0-3.64-1.37,4.67,4.67,0,0,1-1.72.55,5.08,5.08,0,0,1-1.81-.36,20.32,20.32,0,0,0-3.31,1.74l3.14-1A5,5,0,0,0,20.49,31.84Z"/><path class="cls-16" d="M11.69,31.54a19.09,19.09,0,0,0,6.93-1l.94.27.68-.55-2-.75s-1.09,1-6.7,1.27-6.61-4.14-6.61-4.14C4.73,28.77,6.5,31.52,11.69,31.54Z"/><path class="cls-16" d="M22,30.33a19.67,19.67,0,0,0,7.07.28c5.14-.57,6.3-3.48,5.69-5.6,0,0-.14,4.48-5.66,4.8s-6.9-.54-6.9-.54l-1.86.95.79.48Z"/><path class="cls-16" d="M27.06,20.82c1-.05,1.67-.64,1.6-1.32s-.9-1.19-1.86-1.14-1.67.64-1.6,1.32S26.11,20.87,27.06,20.82Z"/><path class="cls-22" d="M27.81,20.37c.25,0,.44-.17.42-.35s-.24-.31-.49-.29-.43.16-.41.34S27.56,20.38,27.81,20.37Z"/><path class="cls-22" d="M28.21,19.57c.15,0,.26-.1.25-.2s-.14-.19-.29-.18-.26.1-.25.21S28.06,19.58,28.21,19.57Z"/><path class="cls-16" d="M26.27,17.58a8.84,8.84,0,0,1,3.08,1.27,4.58,4.58,0,0,0-3.5-1.64,8.47,8.47,0,0,0-3.62,1.12l.29.3A10.35,10.35,0,0,1,26.27,17.58Z"/><path class="cls-19" d="M28.63,17.59c-2.05-1.89-4.65-.1-4.65-.1C26.93,16.26,28.63,17.59,28.63,17.59Z"/><path class="cls-16" d="M14.09,21.76c1-.06,1.68-.65,1.6-1.33s-.9-1.19-1.86-1.14-1.67.65-1.6,1.33S13.14,21.81,14.09,21.76Z"/><path class="cls-22" d="M14.84,21.3c.25,0,.44-.16.42-.34s-.24-.31-.48-.3-.44.17-.42.35A.42.42,0,0,0,14.84,21.3Z"/><path class="cls-22" d="M15.24,20.51c.15,0,.26-.1.25-.21s-.14-.18-.29-.17-.26.1-.25.2S15.09,20.52,15.24,20.51Z"/><path class="cls-16" d="M11.65,18.36c1.26-.25,3.92.65,3.92.65l.23-.33A9.06,9.06,0,0,0,12,18a4,4,0,0,0-3.13,2A7.86,7.86,0,0,1,11.65,18.36Z"/><path class="cls-19" d="M14.31,18s-3-1.49-4.58.6C9.73,18.61,11.14,17.11,14.31,18Z"/><path class="cls-16" d="M20.55,16.26s4.93-2.17,6.74-1.86a6.32,6.32,0,0,1,3.21,2s-1.13-3-3.79-3.14a21,21,0,0,0-6.49,1.29l.44,1-.93-.76Z"/><path class="cls-16" d="M16,17.11l1.43-1.56L16,16.4l.93-1.12S13,13,10.65,13.11s-4.28,2.35-4.28,2.35a17.87,17.87,0,0,1,3-1.22C10.65,13.9,16,17.11,16,17.11Z"/><path class="cls-18" d="M18.29,12.85c2.75-.15,5-.84,5.35-1.6a14.45,14.45,0,0,1-5.4,1.11,15.22,15.22,0,0,1-5.57-.52C13.2,12.55,15.55,13,18.29,12.85Z"/><path class="cls-18" d="M18.16,11.57c1.79-.1,3.25-.45,3.51-.82a13,13,0,0,1-3.54.59,13,13,0,0,1-3.61-.21C14.85,11.47,16.37,11.67,18.16,11.57Z"/><path class="cls-18" d="M21.09,37.77C24,37.61,26.4,36.43,26.88,35A12.2,12.2,0,0,1,21,36.62a13.07,13.07,0,0,1-6.19-1C15.55,37,18.13,37.93,21.09,37.77Z"/><path class="cls-21" d="M27.17,27.8c.95-.05,1.66-.64,1.59-1.32s-.9-1.18-1.85-1.12-1.66.63-1.59,1.31A1.65,1.65,0,0,0,27.17,27.8Z"/><path class="cls-21" d="M13.27,28.54c1-.05,1.66-.63,1.59-1.31S14,26.05,13,26.1s-1.66.64-1.58,1.32S12.32,28.6,13.27,28.54Z"/></g></g></g></svg>