<svg xmlns="http://www.w3.org/2000/svg" viewBox="0 0 78.31 85"><defs><style>.cls-1{fill:#cc905c;}.cls-2{fill:#e4bb99;}.cls-3{fill:#f3d5af;}.cls-4{fill:#cdcac7;}.cls-5{fill:#49494a;}.cls-6{fill:#f2f2f2;}.cls-7{fill:#8d8884;}.cls-8{fill:#9f9d9e;}.cls-9{fill:#aa7344;}.cls-10{fill:#a96f2b;}.cls-11{fill:#8b5523;}.cls-12{fill:#e3bf97;}.cls-13{fill:#c09d7c;}.cls-14{fill:#f8ede0;}.cls-15{fill:#121112;}.cls-16{fill:#fff;}.cls-17{fill:#2d2c2b;}.cls-18{fill:#686361;}.cls-19{fill:#d1d0cf;}</style></defs><title>obstaculo_dinamico_ladronRecurso 46</title><g id="Capa_2" data-name="Capa 2"><g id="Capa_1-2" data-name="Capa 1"><g id="Silencio"><path class="cls-1" d="M8.54,49.61A9.84,9.84,0,0,0,6,50.39l-.24.11h0a10.15,10.15,0,1,0,13.63,4.81c-.41-2.14-5.94-5.24-5.93-6.38,0-2.29,7-3.44,7-3.44l-3.92-4.28-4.59,5.71S11.92,48.72,8.54,49.61Z"/><path class="cls-2" d="M11.56,69.69a10.16,10.16,0,0,0,7.78-14.38c-.41-2.14-5.94-5.24-5.93-6.38,0-2.29,7-3.44,7-3.44l-3.29-3.58c-2.28,3-5.3,7.69-4.28,9.74C14.11,54.28,17.43,64.71,11.56,69.69Z"/><path class="cls-3" d="M12.46,46.76a2.21,2.21,0,0,1,.21.7,3.16,3.16,0,0,0,1.43,2.22L15,49a2.18,2.18,0,0,1-1.3-1.7c-.06-.36-.25-1.45-1-1.59a1.23,1.23,0,0,0-1.12.55,5.56,5.56,0,0,0-.37.52l-.1.18,0,.19A8.5,8.5,0,0,0,12,49.33a6.11,6.11,0,0,0,1,1.31l.81-.66a6.56,6.56,0,0,1-1.57-2.87A1.9,1.9,0,0,1,12.46,46.76Z"/><path class="cls-3" d="M12.74,50.8a4.48,4.48,0,0,1-1.51-3l-1,0a4.78,4.78,0,0,0,.72,2.4,6.52,6.52,0,0,0,1,1.28Z"/><path class="cls-4" d="M63.76,43.52c-2.66-1.61-4.21-5-4.59-10.05a16.78,16.78,0,0,0-1.87-6.92,10.22,10.22,0,0,0-4.07-4.07,13.14,13.14,0,0,0-6.82-1.42,26.08,26.08,0,0,0-6.57,1.14A40.5,40.5,0,0,0,33,24.92L27.31,26a24,24,0,0,0-5.33.65,20.18,20.18,0,0,0-4.92,1.8,14.81,14.81,0,0,0-4.68,3.8A14.1,14.1,0,0,0,9.5,39a19.79,19.79,0,0,0-.16,4.46,29.86,29.86,0,0,0,.87,5.23l3.77-1c-1.43-5.64-1-10,1.43-13a13.34,13.34,0,0,1,7.35-4.24,20.9,20.9,0,0,1,4.68-.57h.21l.21-.05,6.49-1.25.26-.14A36.75,36.75,0,0,1,41,25.91c3.09-.9,7.39-1.63,10.37,0,2.29,1.25,3.61,3.9,3.91,7.86A27.23,27.23,0,0,0,56,38.42a17.55,17.55,0,0,0,1.39,3.7,11.71,11.71,0,0,0,4.35,4.74,12.6,12.6,0,0,0,5.87,1.69A20.5,20.5,0,0,0,76,47l-1.57-3.56h0C74.32,43.49,68.11,46.14,63.76,43.52Z"/><path class="cls-5" d="M16.66,28.7a14.67,14.67,0,0,0-2.5,1.75l2.12,3.33a10.9,10.9,0,0,1,2.06-1.55Z"/><path class="cls-5" d="M21,26.93a20.22,20.22,0,0,0-2,.64l1.4,3.64a17.67,17.67,0,0,1,1.83-.6Z"/><path class="cls-5" d="M13.24,43.52c0-.57-.07-1.12-.07-1.66l-3.89.35c0,.41,0,.84.06,1.26,0,.24,0,.49.06.73Z"/><path class="cls-5" d="M12,32.75a13.5,13.5,0,0,0-1.42,2.48L14.07,37A9.74,9.74,0,0,1,15,35.26Z"/><path class="cls-5" d="M13.54,45.73l-3.82.7c.13.74.3,1.5.49,2.27l3.77-1C13.81,47.05,13.66,46.38,13.54,45.73Z"/><path class="cls-5" d="M9.7,37.94c-.08.35-.14.71-.2,1.07s-.13,1-.16,1.44l3.9,0A12.76,12.76,0,0,1,13.46,39Z"/><path class="cls-6" d="M63.76,43.52c-2.39-1.45-3.87-4.31-4.43-8.52l-.88,0S57.69,45,69.63,45.77c2.44.17,4.35.21,5.84.18l-1.09-2.48h0C74.32,43.49,68.11,46.14,63.76,43.52Z"/><path class="cls-3" d="M76.78,45.57a2.39,2.39,0,0,1,.72.48l.78-.71a3.37,3.37,0,0,0-1.1-.74A2.45,2.45,0,0,0,76,44.41a2.64,2.64,0,0,0-1.41.63l.67.81A1.43,1.43,0,0,1,76.78,45.57Z"/><path class="cls-3" d="M76.79,47.13a2,2,0,0,1,.62.61l.9-.56a3.33,3.33,0,0,0-1-.94,2.48,2.48,0,0,0-1.15-.4,2.67,2.67,0,0,0-1.5.35l.51.92A1.44,1.44,0,0,1,76.79,47.13Z"/><path class="cls-3" d="M76.35,44.16a2.21,2.21,0,0,1,.8.34l.63-.85a3.18,3.18,0,0,0-1.22-.52,2.39,2.39,0,0,0-1.22,0,2.56,2.56,0,0,0-1.27.87l.81.67A1.42,1.42,0,0,1,76.35,44.16Z"/><path class="cls-7" d="M65.6,44.31a8.41,8.41,0,0,1-1.54-.62l-2.47,3.06.18.11a11.22,11.22,0,0,0,2.38,1.08Z"/><path class="cls-7" d="M61.12,40.77l-3.4,1.89A12.11,12.11,0,0,0,59,44.5l3.29-2.16A8.26,8.26,0,0,1,61.12,40.77Z"/><path class="cls-7" d="M60.32,39.09a15.42,15.42,0,0,1-.7-2.4l-3.84.65c.08.37.16.73.25,1.08.14.54.29,1.06.47,1.56Z"/><path class="cls-7" d="M71.94,44.23l1.23,3.71A19,19,0,0,0,76,47l-1.57-3.56h0A17.6,17.6,0,0,1,71.94,44.23Z"/><path class="cls-7" d="M69.91,48.5l0-3.91a13.67,13.67,0,0,1-2.32.06l-.3,3.88.33,0A18.88,18.88,0,0,0,69.91,48.5Z"/><path class="cls-8" d="M65.51,44.28h0l-.09,0h0l-.09,0h0l-.09,0h0l-.09,0h0L64.73,44h0l-.07,0h0l-.07,0,0,0-.06,0h0l-.06,0,0,0-.06,0,0,0-.06,0,0,0-.07,0h0l-.43.53a13.52,13.52,0,0,0,1.71.74l.26-.65Z"/><path class="cls-8" d="M62.3,42.34h0c-.14-.14-.26-.29-.39-.44h0l-.06-.08,0,0-.06-.08h0l-.07-.09h0c-.11-.16-.23-.32-.34-.5h0L61.26,41v0l-.06-.09v0l0-.09h0l-.87.49A9.09,9.09,0,0,0,61.6,42.8Z"/><path class="cls-8" d="M69.93,44.59h0l-.42,0h0l-.43,0H67.61l-.07.87a18.14,18.14,0,0,0,2.09.25l.3,0Z"/><path class="cls-8" d="M74.38,43.47h-.13l0,0h0l-.1,0h0c-.31.12-.83.3-1.49.48h0l-.31.08h0l-.26.07h-.07l.56,1.69c1.14,0,2.12,0,3,0l-1.09-2.48h0Z"/><path class="cls-8" d="M60.31,39.06l0-.08,0-.07,0-.08,0-.07,0-.07,0-.08,0-.07,0-.09,0-.08a.65.65,0,0,0,0-.13l0-.07,0-.09L60,38l0-.09,0-.07,0-.09,0-.07,0-.09,0-.07,0-.09v-.07l0-.1,0-.07,0-.1,0-.07,0-.11v-.06a.94.94,0,0,1,0-.16h0l-1.07.18a11,11,0,0,0,.67,2.48l1.1-.26Z"/><path class="cls-9" d="M6.49,50.16,6,50.39l-.24.11h0a10.15,10.15,0,0,0-.84,17.8c-.5-1.16-1.14-2.49-1.93-4C-.53,57.67,2.92,53,6.49,50.16Z"/><path class="cls-10" d="M60.39,81.78,57.26,82l-.77,2.09L56.3,85h9C65.14,84.6,64.39,82.76,60.39,81.78Z"/><polygon class="cls-11" points="57.26 82 56.49 84.09 56.3 85 59.63 85 59.51 81.84 57.26 82"/><path class="cls-10" d="M27.09,81.78,24,82l-.77,2.09L23,85h9C31.84,84.6,31.1,82.76,27.09,81.78Z"/><polygon class="cls-11" points="23.96 82 23.19 84.09 23 85 26.33 85 26.21 81.84 23.96 82"/><path class="cls-5" d="M51.8,43,58,35.6s.77-8.29-3.18-10.44-6.22.17-6.43,1.09.27,9.18.92,11a28.29,28.29,0,0,1,1.22,3.93C50.75,42.23,50.76,42.68,51.8,43Z"/><path class="cls-4" d="M57,28.47a13.42,13.42,0,0,0-3.52.58l.61,4h4.7S57.79,28.65,57,28.47Z"/><path class="cls-5" d="M62.65,82.42a53.85,53.85,0,0,0,.63-7.91,37.53,37.53,0,0,0-1.82-12.12A27.29,27.29,0,0,0,59,57.09H51.47c3.94,4,5.94,9.77,6,17.25a47,47,0,0,1-.72,8.08Z"/><path class="cls-7" d="M62.65,82.42a53.85,53.85,0,0,0,.63-7.91,37.53,37.53,0,0,0-1.82-12.12A27.29,27.29,0,0,0,59,57.09H57.1C59,61.27,64.5,75,58.75,82.42Z"/><path class="cls-5" d="M23,82.42h6.85a18.75,18.75,0,0,0,1.85-5.32,25.19,25.19,0,0,0,0-8.83,38.24,38.24,0,0,0-2.16-7.56C29,59.36,28.47,58.14,28,57.09H23.81v1h-2a41.71,41.71,0,0,1,2.44,5.18c1.29,3.31,2.64,8.19,1.8,12.61A18.76,18.76,0,0,1,23,82.42Z"/><path class="cls-4" d="M45.83,25.05a15.6,15.6,0,0,0-18.76,2.36c-7.48,7.15-6,27.48-5.56,32l38.69-.88C56.34,50.66,58,35.6,58,35.6S46.2,25.54,45.83,25.05Z"/><path class="cls-6" d="M57.68,35.33,53.2,36.69s-2.52,15.29-1.34,22l8.34-.19C56.34,50.66,58,35.6,58,35.6Z"/><path class="cls-5" d="M58.86,54.77H21.19c0,.85.09,1.63.13,2.31H59.58A20.09,20.09,0,0,1,58.86,54.77Z"/><path class="cls-5" d="M58.07,50.54h-37c0,.81,0,1.58,0,2.32H58.44C58.29,52.1,58.17,51.32,58.07,50.54Z"/><path class="cls-5" d="M21.22,46c0,.78-.07,1.56-.09,2.32H57.84c-.06-.79-.11-1.56-.14-2.32Z"/><path class="cls-5" d="M23.57,33.07c-.28.74-.53,1.52-.76,2.32H57.74C57.3,35,56.28,34.14,55,33.07Z"/><path class="cls-5" d="M21.61,41.52q-.13,1.15-.24,2.31H57.65c0-.8,0-1.58,0-2.31Z"/><path class="cls-5" d="M22.33,37.29c-.16.76-.31,1.54-.44,2.32H57.72c0-.9.09-1.69.13-2.32Z"/><path class="cls-7" d="M51.65,50.54c0,.79-.07,1.56-.09,2.32h6.88c0-.19-.07-.38-.11-.57h0l-.09-.58h0l-.09-.58h0a2.7,2.7,0,0,0,0-.28h0c0-.09,0-.19,0-.29H51.65Z"/><path class="cls-7" d="M57.82,48h0c0-.1,0-.19,0-.29h0c0-.1,0-.19,0-.29h0c0-.1,0-.19,0-.29h0l0-.58h0l0-.57H52c-.08.76-.15,1.53-.21,2.32h6A2.64,2.64,0,0,0,57.82,48Z"/><path class="cls-7" d="M59.48,56.81h0l-.09-.27h0c0-.09-.07-.19-.1-.28h0L59.19,56h0l-.09-.29h0c0-.1-.05-.2-.08-.29h0c-.06-.2-.11-.39-.16-.59H51.55c0,.81,0,1.59.1,2.31h7.93A2.15,2.15,0,0,1,59.48,56.81Z"/><path class="cls-7" d="M57.48,35.39h.26l-.06-.06Z"/><path class="cls-7" d="M57.74,39.12V39h0V38.8h0v-.15h0V38.5h0v-.14h0v-.13h0v-.13h0v-.13h0v-.13h0l0-.5H53.11c-.08.51-.2,1.31-.34,2.32h4.95c0-.17,0-.33,0-.49Z"/><path class="cls-7" d="M52.51,41.52c-.09.72-.18,1.5-.27,2.31h5.41c0-.8,0-1.58,0-2.31Z"/><circle class="cls-5" cx="41.96" cy="26.74" r="13.66" transform="translate(8.84 63.87) rotate(-80.78)"/><circle class="cls-12" cx="41.96" cy="26.74" r="10.93"/><path class="cls-12" d="M30.1,17.74c0-2.21-1.44-4-3.22-4s-3.21,1.79-3.21,4,1.44,4,3.21,4S30.1,20,30.1,17.74Z"/><path class="cls-13" d="M28.44,17.81a1.83,1.83,0,0,0-1.6-2,1.83,1.83,0,0,0-1.6,2,1.83,1.83,0,0,0,1.6,2A1.83,1.83,0,0,0,28.44,17.81Z"/><path class="cls-14" d="M57,17.08c0-2.21-1.44-4-3.22-4s-3.21,1.79-3.21,4,1.44,4,3.21,4S57,19.29,57,17.08Z"/><path class="cls-15" d="M53.9,20.5c0-.3,2.43,1.36,2.43,1.36l-.5-12.22-3.33-1,0,.19C52.71,10.45,53.9,20.78,53.9,20.5Z"/><path class="cls-3" d="M58.72,29.82c-3.12-7.74-4.2-21-4.2-21L37.07,8.12S29.39.71,27.48,11.06,32.15,34.7,32.15,34.7C49.13,35.77,58.72,29.82,58.72,29.82Z"/><path class="cls-12" d="M38,14.93c4.2-.06,19.07-3.74,19.07-3.74l-7-2.47c-1.44-.2-12.6-.13-13.5-.53s-9.23,1.47-9.23,1.47l2.22,5.27S33.83,15,38,14.93Z"/><path class="cls-15" d="M36.24,13.33a5.86,5.86,0,0,1,2.95.94,4.94,4.94,0,0,1,.92.79l.86-.83a6.48,6.48,0,0,0-4.68-2.17,5,5,0,0,0-2.2.39c-.18.07-.36.16-.54.25L34,13.85A4.16,4.16,0,0,1,36.24,13.33Z"/><path class="cls-12" d="M27.48,11.06C25.56,21.41,32.15,34.7,32.15,34.7c1.59.1,3.1.14,4.56.12A63.26,63.26,0,0,1,30.14,6C29,6.66,28,8.17,27.48,11.06Z"/><path class="cls-15" d="M29.79,23.66l.81.2-1-12.67-3.24-.35s-1.53,1.95.13,2.85S29.79,23.66,29.79,23.66Z"/><path class="cls-14" d="M54.52,8.86,53.05,8.8c.57,4.94,1.88,14.94,3.81,22a16.84,16.84,0,0,0,1.86-1C55.6,22.08,54.52,8.86,54.52,8.86Z"/><path class="cls-15" d="M51,14.13a3.94,3.94,0,0,1,2.3.94,4.36,4.36,0,0,1,.72.79l.67-.83A4.85,4.85,0,0,0,51,12.86a3.13,3.13,0,0,0-1.71.39,5.09,5.09,0,0,0-1.3,1,7.87,7.87,0,0,0-1.15,1.51l.7.78a6.45,6.45,0,0,1,1-1.28A3.14,3.14,0,0,1,51,14.13Z"/><polygon class="cls-14" points="50.45 25.02 49.49 15.27 48.68 15.23 49.28 24.02 43.01 24.88 50.45 25.02"/><path class="cls-12" d="M38.12,18.64c2.94-.13,5.43,6.08,5.43,6.08s-.39-7.32-.39-7.42l-4-2.53S35.18,18.77,38.12,18.64Z"/><path class="cls-16" d="M36.67,25.46S44.86,29,51.15,26.92Z"/><path class="cls-5" d="M42.17,20c3.42-2.87,7.8-.74,7.8-.74l.3,1.41c1.54.27,4.2-.65,5.69-1.25-.31-1.68-.56-3.3-.76-4.75l-28-.86c0,.33,0,.67,0,1,.32.33.68.69,1.07,1.11C34.13,22.28,38.75,22.88,42.17,20Z"/><path class="cls-17" d="M32.07,19.42c-.15-2-.21-3.93-.23-5.46l-4.68-.14c0,.33,0,.67,0,1,.32.33.68.69,1.07,1.11A26.74,26.74,0,0,0,32.07,19.42Z"/><path class="cls-17" d="M41.93,15.32a5.19,5.19,0,0,0-.11-1.05l-9-.27a5.19,5.19,0,0,0-.17,1.32,4.62,4.62,0,1,0,9.23,0Z"/><path class="cls-17" d="M51.83,19.38c1.77-.2,3.06-2.26,3-4.71L48,14.46a4.32,4.32,0,0,0,0,.5C48.22,17.61,50,19.59,51.83,19.38Z"/><path class="cls-16" d="M37.24,18.74a1.9,1.9,0,0,0,1.88-1.9v0l-3.87.14v0A1.87,1.87,0,0,0,37.24,18.74Z"/><path class="cls-16" d="M51.54,18.2a1.9,1.9,0,0,0,1.88-1.9v0l-3.86.14v0A1.87,1.87,0,0,0,51.54,18.2Z"/><path class="cls-14" d="M45.08,33a3.21,3.21,0,0,1-1.64-.45,3.09,3.09,0,0,0,2.69,1.7,3.31,3.31,0,0,0,3.12-3.47,3.71,3.71,0,0,0-.71-2.2,4.58,4.58,0,0,1,0,.53A3.7,3.7,0,0,1,45.08,33Z"/><path class="cls-7" d="M51.74,2.85,34.44,0c-10.56,1.44-8.52,11-8.52,11a39.52,39.52,0,0,0,7.18.38c3.77,3,8,1.88,14.29.9s11.57.54,12.41-.4-4-2.87-4-2.87l-.32-.06C57.06,7,55.63,3.92,51.74,2.85Z"/><path class="cls-18" d="M35.41.16l-1-.16c-10.56,1.44-8.52,11-8.52,11h5.7A12.24,12.24,0,0,1,35.41.16Z"/><path class="cls-19" d="M52.56,3.12c1.21,2.26.8,6,.8,6,1.43.11,3.39,1.74,4.79,3.09.84,0,1.42-.06,1.65-.32.84-.93-4-2.87-4-2.87l-.32-.06C56.94,7.16,55.83,4.37,52.56,3.12Z"/></g></g></g></svg>