<svg xmlns="http://www.w3.org/2000/svg" viewBox="0 0 119.97 130.25"><defs><style>.cls-1{fill:#e8c69d;}.cls-2{fill:#83bb26;}.cls-3{fill:#15130f;}.cls-4{fill:#437d31;}.cls-5{fill:#7796ad;}.cls-6{fill:#52778a;}.cls-7{fill:#a2baca;}.cls-8{fill:#f6dbb7;}.cls-9{fill:#5e5650;}.cls-10{fill:#918a85;}.cls-11{fill:#3d3833;}.cls-12{fill:#fbf2e8;}.cls-13{fill:#fff;}.cls-14{fill:#008c92;}.cls-15{fill:#403a34;}.cls-16{fill:#8c8785;}.cls-17{fill:#403a33;}.cls-18{fill:#7d736d;}.cls-19{fill:#e35d79;}.cls-20{fill:#8f8680;}.cls-21{fill:#12100b;}.cls-22{fill:#61bb9d;}.cls-23{fill:#bddfd3;}.cls-24{fill:#e0dcdc;}.cls-25{fill:#a96f2b;}.cls-26{fill:#8b5523;}.cls-27{fill:#3e929a;}.cls-28{fill:#226c70;}.cls-29{fill:#4d4a47;}.cls-30{fill:#fcfcfb;}.cls-31{fill:#ce975a;}.cls-32{fill:#55b147;}.cls-33{fill:#418840;}.cls-34{fill:#b9814a;}.cls-35{fill:#4d4a46;}.cls-36{fill:#888583;}.cls-37{fill:#e7b68a;}.cls-38{fill:#dfb88f;}.cls-39{fill:#775c3f;}.cls-40{fill:#c8e8ec;opacity:0.3;}.cls-41{fill:#359b47;}.cls-42{fill:#fffbf8;}.cls-43{fill:#af6f1d;}.cls-44{fill:#925418;}.cls-45{fill:#3b919c;}.cls-46{fill:#206a6f;}.cls-47{fill:#d64e1c;}.cls-48{fill:#a63217;}.cls-49{fill:#e4be93;}.cls-50{fill:#f9d4d0;}.cls-51{fill:#805f3b;}.cls-52{fill:#a6282d;}.cls-53{fill:#615a51;}.cls-54{fill:#544d47;}.cls-55{fill:#67615c;}.cls-56{fill:#837e7a;}.cls-57{fill:#cc5867;}.cls-58{fill:#921a29;}.cls-59{fill:#fffdfc;}.cls-60{fill:#d2a87e;}.cls-61{fill:#383432;}.cls-62{fill:#b6b0ae;}.cls-63{fill:#f4f4f6;}.cls-64{fill:#f9dbc4;}.cls-65{fill:#891e62;}.cls-66{fill:#6f6b69;}.cls-67{fill:#d7d5d5;}.cls-68{fill:#e8bb9a;}.cls-69{fill:#8b9548;}.cls-70{fill:#c6cc82;}.cls-71{fill:#6fbe44;}.cls-72{fill:#383531;}.cls-73{fill:#56534f;}.cls-74{fill:#75706b;}.cls-75{fill:#e5637c;}.cls-76{fill:#ebd1a9;}.cls-77{fill:#87827e;}.cls-78{fill:#59c1a1;}.cls-79{fill:#b0ddcf;}.cls-80{fill:#fbece3;}.cls-81{fill:#696b6a;}.cls-82{fill:#38a09d;}.cls-83{fill:#221f1c;}.cls-84{fill:#e03537;}.cls-85{fill:#5a362c;}.cls-86{fill:#ad3585;}.cls-87{fill:#601947;}.cls-88{fill:#ddb326;}.cls-89{fill:#f2c53d;}.cls-90{fill:#d19d00;}.cls-91{fill:#3a3b3a;}.cls-92{fill:#f6e2cd;}.cls-93{fill:#fcefe1;}.cls-94{fill:#4899ab;}.cls-95{fill:#c7412b;}.cls-96{fill:#edc447;}.cls-97{fill:#938832;}.cls-98{fill:#10733b;}.cls-99{fill:#565756;}.cls-100{fill:#279446;}.cls-101{fill:#d6862b;}.cls-102{fill:#f8951d;}.cls-103{fill:#d38028;}.cls-104{fill:#82807e;}</style></defs><title>obstaculo_turistasRecurso 42</title><g id="Capa_2" data-name="Capa 2"><g id="Capa_1-2" data-name="Capa 1"><g id="Silencio"><path class="cls-1" d="M56.37,59.6h.82a24.36,24.36,0,0,0-1.65-8.87,40,40,0,0,0-3.75-7.49,51,51,0,0,0-5.2-6.92l-.18-.67-3.86-1.34c.06.24.12.51.19.79.31,1.25.63,2.43.64,2.48l.11.41.3.31a46.56,46.56,0,0,1,5.12,6.77c2.27,3.62,5,9.07,4.86,14.47l1.06,0c0-1-.1-2.19-.09-2.29s.24-.1.24-.1l.15,2.39.89,0-.11-2.51.22,0Z"/><path class="cls-2" d="M29.21,76.73c-3.25.83-3.86,2.39-3.95,2.72h7.27l-.16-.77-.62-1.76Z"/><path class="cls-3" d="M28.72,76.77a2.63,2.63,0,0,1,.85,1l.24-.1a1.89,1.89,0,0,0-.88-1Z"/><path class="cls-3" d="M28.3,76.87a2.48,2.48,0,0,1,.86,1l.25-.1a2,2,0,0,0-.9-1A1,1,0,0,0,28.3,76.87Z"/><path class="cls-3" d="M27.89,77.08a2.62,2.62,0,0,1,.85,1L29,78a1.86,1.86,0,0,0-.88-1Z"/><path class="cls-4" d="M28.48,79.45h0a.78.78,0,0,0,.36-.2s-.47-1.72-1.25-2l-.21.1c.38.29,1,.87.92,1.55C28.28,79.32,28.36,79.44,28.48,79.45Z"/><polygon class="cls-4" points="29.92 76.78 29.83 79.45 32.53 79.45 32.37 78.68 31.75 76.92 29.92 76.78"/><path class="cls-3" d="M25.69,78.67a2.2,2.2,0,0,0-.43.78h7.27l-.16-.77H25.69Z"/><path class="cls-2" d="M45.72,76.73c-3.25.83-3.86,2.39-3.95,2.72H49l-.16-.77-.62-1.76Z"/><path class="cls-3" d="M45.23,76.77a2.63,2.63,0,0,1,.85,1l.24-.1a1.89,1.89,0,0,0-.88-1Z"/><path class="cls-3" d="M44.8,76.87a2.43,2.43,0,0,1,.87,1l.25-.1a2,2,0,0,0-.9-1Z"/><path class="cls-3" d="M44.4,77.08a2.62,2.62,0,0,1,.85,1l.24-.1a1.86,1.86,0,0,0-.88-1Z"/><path class="cls-4" d="M45,79.45h0a.78.78,0,0,0,.36-.2s-.47-1.72-1.25-2l-.21.1c.38.29,1,.87.92,1.55C44.79,79.32,44.87,79.44,45,79.45Z"/><polygon class="cls-4" points="46.43 76.78 46.34 79.45 49.04 79.45 48.88 78.68 48.26 76.92 46.43 76.78"/><path class="cls-3" d="M42.2,78.67a2.2,2.2,0,0,0-.43.78H49l-.16-.77H42.2Z"/><ellipse class="cls-1" cx="24.63" cy="26.61" rx="3.7" ry="3.68"/><path class="cls-5" d="M46.36,50.4l-1.5-.58A14.87,14.87,0,0,0,40.52,49a11.28,11.28,0,0,0-4,.5,9.33,9.33,0,0,0-4.16,2.72,10.33,10.33,0,0,0-1.76,3.17,29.5,29.5,0,0,0-1.13,4A82.05,82.05,0,0,0,28,68.51c-.34,3.31-.54,6.44-.65,8.64h4.28c.11-2.12.3-5,.61-8.06a76.94,76.94,0,0,1,1.29-8.52c.75-3.39,1.45-4.45,1.71-4.75a6,6,0,0,1,5-1.83,11.29,11.29,0,0,1,1.79.21c0,2.16,0,5.82.23,9.85.17,3.72.45,7,.81,9.7.17,1.25.35,2.38.55,3.4h4.42A74.44,74.44,0,0,1,46.54,63.8c-.29-6.11-.21-11.5-.21-11.55Z"/><path class="cls-6" d="M47.86,77.15h2.88A65.64,65.64,0,0,1,49,63.8c-.28-5.07-.26-9.65-.25-11.08l-.42-1.17-14.79.08c-.21.18-.41.36-.61.56a10,10,0,0,0-2,3.17,20.65,20.65,0,0,0-.74,2c1.83.92,3.81,2,4.39,2.25.75-2.67,1.42-3.56,1.69-3.83A7.31,7.31,0,0,1,41.93,54a14,14,0,0,1,2,.21c0,1.23,0,2.95.07,4.95l2.54.83S46.36,70,47.86,77.15Z"/><path class="cls-7" d="M31.5,54.25c-.18.34-.36.71-.53,1.11a28,28,0,0,0-1.28,4,74,74,0,0,0-1.57,9.19c-.38,3.31-.61,6.44-.73,8.64h1.92c-.08-8.38,3.47-22.32,3.47-22.32Z"/><path class="cls-8" d="M20.43,45.18a12.75,12.75,0,0,0,6.76.17,18.63,18.63,0,0,0,4-1.42,29.71,29.71,0,0,0,4.35-2.62c1-.7,1.88-1.34,2.72-1.91l-3.55-1.69-1.2.86c-4.6,3.3-8.65,4.45-12,3.39a10.38,10.38,0,0,1-5.32-4.13,15,15,0,0,1-1.75-3.18h0l-3.22,1.1C11.26,36.05,13.87,43.13,20.43,45.18Z"/><path class="cls-1" d="M17.16,42.72l1-2.59a12.07,12.07,0,0,1-1.45-1.49l-5.19-1.93c1,2.07,3.68,6.85,8.88,8.47a12.75,12.75,0,0,0,6.76.17,17.1,17.1,0,0,0,2.59-.81,5.94,5.94,0,0,0-2,.36A12.29,12.29,0,0,1,17.16,42.72Z"/><path class="cls-8" d="M54.61,59.57c1.11-6.93-7.76-19.73-7.76-19.73l-1.1.77a50.1,50.1,0,0,1,3.16,4.47c2.27,3.62,5,9.07,4.86,14.47Z"/><path class="cls-9" d="M25.86,42.18,27,45.42l.31-.07a19.8,19.8,0,0,0,4-1.42,29,29,0,0,0,4.35-2.63c1-.69,1.86-1.32,2.69-1.88L34.64,37.8l-1.06.76A19.29,19.29,0,0,1,25.86,42.18Z"/><path class="cls-10" d="M33.58,38.56a19.29,19.29,0,0,1-7.72,3.62l.29.84c2-.34,7.19-1.36,8.7-2.67,1.1-1,.52-1.89-.24-2.53Z"/><path class="cls-9" d="M46.36,35.44l-3.83-1.2q.09.4.21.87c.31,1.25.63,2.43.64,2.48l.11.41.3.31a46.56,46.56,0,0,1,5.12,6.77c.12.2.25.39.37.6l3.36-1c-.27-.47-.55-.93-.85-1.4a51,51,0,0,0-5.2-6.92C46.51,36,46.44,35.74,46.36,35.44Z"/><path class="cls-9" d="M29.65,57.58l19.76-.12s1-14.11-6.11-22.45-6.23-4-6.23-4l-4.3,7S31.21,51.94,29.65,57.58Z"/><path class="cls-10" d="M29.65,57.58h1.61c1.25-5.3,3.07-19.45,3.07-19.45L33,37.65l-.19.3S31.21,51.94,29.65,57.58Z"/><ellipse class="cls-11" cx="39.67" cy="39.24" rx="5.94" ry="4.46"/><path class="cls-11" d="M49.41,57.46s.86-12.11-4.66-20.52L42,38.79s4.58,10.43,2.24,18.7Z"/><ellipse class="cls-1" cx="40" cy="39.21" rx="4.92" ry="3.1"/><path class="cls-2" d="M28.77,41A34.92,34.92,0,0,1,21,36.84a30,30,0,0,1-3-2.41h0l-.55.55a27.66,27.66,0,0,0,3.09,2.48,35.41,35.41,0,0,0,8,4.28,24,24,0,0,0,8.42,1.62,19.62,19.62,0,0,0,2.55-.16,19.3,19.3,0,0,0,6-1.82,23.74,23.74,0,0,0,6-4.27l-.55-.56C44.59,42.64,37.14,44.14,28.77,41Z"/><path class="cls-2" d="M26.94,37.86a35,35,0,0,1-8.56-2.27,28.54,28.54,0,0,1-3.51-1.65h0l-.4.67a29,29,0,0,0,3.59,1.69,36,36,0,0,0,8.76,2.33,24.11,24.11,0,0,0,8.58-.38,20.26,20.26,0,0,0,2.44-.75,19.25,19.25,0,0,0,5.41-3.15,23.5,23.5,0,0,0,4.81-5.54l-.67-.41C42.7,35.77,35.82,39,26.94,37.86Z"/><path class="cls-8" d="M24.88,13.52l-3.21,21.4s16.74,11.41,37.65-1c-.17-9.8-1.79-17-3.64-22C47.39,9.73,32.15,12.14,24.88,13.52Z"/><path class="cls-1" d="M62.65,27.37A3.56,3.56,0,0,0,59,24a2.61,2.61,0,0,0-.4,0,56.08,56.08,0,0,0-3.42-13.5,48.34,48.34,0,0,0-6-2.14,50.63,50.63,0,0,1,2.53,6l-17-.62-9.72,1.47-.75,6,13-.21A21.72,21.72,0,0,0,42,22.44l.11-1.6,5.9-.1,5.56,1.43a26.63,26.63,0,0,1-2.13,15.27,43.54,43.54,0,0,0,7.8-3.67c0-1-.05-2-.09-3A3.54,3.54,0,0,0,62.65,27.37Z"/><path class="cls-12" d="M23.4,35.78C25,30.27,26.19,21.1,27,13.86l-2.26.38L21.63,34.76A19.82,19.82,0,0,0,23.4,35.78Z"/><path class="cls-1" d="M36.06,23.36a66.31,66.31,0,0,1-.9,8.13l5.23-.32L40.47,25l-1.24,5.21H36.42A18.67,18.67,0,0,0,36.06,23.36Z"/><path class="cls-13" d="M38.3,36.49c3.68,0,6.7-1.84,7.08-4.2-4.2.07-10.82.72-13.81,1C32.53,35.17,35.18,36.49,38.3,36.49Z"/><path class="cls-14" d="M30.16,24.06c-.14,1,.08,1.77.5,1.83s.88-.65,1-1.6-.07-1.77-.49-1.83S30.31,23.11,30.16,24.06Z"/><path class="cls-14" d="M48,24.35c-.14.95.08,1.77.5,1.83s.88-.66,1-1.6-.07-1.77-.49-1.84S48.18,23.4,48,24.35Z"/><path class="cls-15" d="M45.86,22.14a4.45,4.45,0,0,1,5.74,0,3.2,3.2,0,0,0-5.74,0Z"/><path class="cls-15" d="M28.58,22.22a3.48,3.48,0,0,1,5,0,2.88,2.88,0,0,0-2.49-1.79A2.88,2.88,0,0,0,28.58,22.22Z"/><path class="cls-9" d="M60.2,18.18l2.55.92c.69-7.61-4.42-10.67-4.42-10.67l3.05-.68c-7-10.86-20.76-5.52-20.76-5.52-11.22-2.88-19,2-19,2l4.12,1.35c-8.86,2.4-6.8,10.19-6.8,10.19L20.24,14l.94,11.28a3.27,3.27,0,0,1,1.76-1.79l-1.09,6.4.53.37.74-4.94c1.85-1,8-4.74,8.37-9.46C31.42,16,33.11,20.9,43,22.68l.75-4.9a23.54,23.54,0,0,0,10.63,3.68l-.08-2.87s1.33,2.87,3.24,2.95l.08,7.11L59,28.24s0-1.61-.08-3.72c.45-.05,1.29-.08,1.29-.08ZM32.33,14.81l.19-.07.21,0Z"/><path class="cls-16" d="M40.63,2.57c.65.2.6.05,0-.35h0c-11.22-2.88-19,2-19,2l4.12,1.35c-8.86,2.4-6.8,10.19-6.8,10.19L20.24,14l.94,11.28a3.27,3.27,0,0,1,1.76-1.79l-1.09,6.4.53.37.74-4.94c.33-.18.8-.45,1.35-.8l-1-12.09-2,.82s2.83-7.28,7.48-7.36l-2.16-2S36.72,1.34,40.63,2.57Z"/><path class="cls-15" d="M60.2,18.18l2.55.92c.69-7.61-4.42-10.67-4.42-10.67l3.05-.68C57.23,1.29,50.68.57,46,1c3,.63,7.7,2.07,10.21,5.13L52.8,7.47s4.45,3,5.86,6.91l-6.27.82s3.4,4.05,5.36,4.7l-1.14,1.36a2.36,2.36,0,0,0,1,.28l.08,7.11L59,28.24s0-1.61-.08-3.72c.45-.05,1.29-.08,1.29-.08Z"/><path class="cls-15" d="M44.36,12.35s7.7,6.82,10,8.79l-.07-2.55,1.06-3.72Z"/><path class="cls-15" d="M43.05,22.58l.74-4.8h0l-.75-3.9-6.35-.5Z"/><polygon class="cls-17" points="22.62 28.69 22.85 26.42 19.79 26.12 19.56 28.39 22.62 28.69"/><path class="cls-17" d="M12.14,24,9.78,27l9.71,1.38.4-1s-.86-2.5-2.24-2.82A50.84,50.84,0,0,0,12.14,24Z"/><path class="cls-9" d="M10.19,23.75l-2.36,3,9.71,1.38.4-1s-.86-2.5-2.24-2.83A53.59,53.59,0,0,0,10.19,23.75Z"/><path class="cls-17" d="M8.88,25.89a3.24,3.24,0,0,0-3.56,2.86L4.59,36A3.2,3.2,0,0,0,7.5,39.51l13.69,1.35A3.24,3.24,0,0,0,24.74,38l.74-7.26a3.21,3.21,0,0,0-2.91-3.49Z"/><path class="cls-18" d="M5.86,25.6a3.23,3.23,0,0,0-3.55,2.86l-.73,7.26a3.21,3.21,0,0,0,2.91,3.5l13.69,1.34a3.24,3.24,0,0,0,3.55-2.86l.74-7.26a3.22,3.22,0,0,0-2.91-3.5Z"/><polygon class="cls-19" points="2.2 29.55 7.27 30.05 7.38 29.01 2.31 28.51 2.2 29.55"/><path class="cls-9" d="M9.54,36.5A3.24,3.24,0,0,1,6,39.37l12.19,1.19a3.24,3.24,0,0,0,3.55-2.86l.74-7.26a3.22,3.22,0,0,0-2.91-3.5L7.37,25.75a3.21,3.21,0,0,1,2.91,3.49Z"/><path class="cls-9" d="M5.17,36.08a3.21,3.21,0,0,1-2.08,2.67,3.28,3.28,0,0,0,1.4.47l9.32.91a3.23,3.23,0,0,0,3.55-2.86L18.1,30a3.22,3.22,0,0,0-2.91-3.5L5.86,25.6a3.24,3.24,0,0,0-1.46.19,3.18,3.18,0,0,1,1.51,3Z"/><ellipse class="cls-20" cx="13.8" cy="33.34" rx="6.34" ry="6.24"/><path class="cls-18" d="M8.74,37.1l.31,1.68,3.65.36a5.88,5.88,0,0,0,1.55-11.66h-.18l-.19,0-.41,0-3.24-.26-3,3,.35,1.48a5.69,5.69,0,0,0-.22,1.09A5.78,5.78,0,0,0,8.74,37.1Z"/><ellipse class="cls-20" cx="9.65" cy="32.93" rx="5.98" ry="5.88"/><ellipse class="cls-9" cx="9.65" cy="32.93" rx="4.9" ry="4.83"/><ellipse class="cls-21" cx="9.65" cy="32.93" rx="4.37" ry="4.3"/><ellipse class="cls-22" cx="9.91" cy="32.96" rx="3.49" ry="3.43"/><path class="cls-23" d="M11.85,33.17l.7.07v0a2.65,2.65,0,0,0-5.27-.52v0l1.42.14v0a1.59,1.59,0,0,1,3.16.31Z"/><path class="cls-9" d="M16.51,32.45l2.73.26c0-.18,0-.36-.08-.54l-2.71-.26A4.69,4.69,0,0,1,16.51,32.45Z"/><path class="cls-9" d="M16.48,33.75l2.74.26s0-.09,0-.14,0-.26,0-.38l-2.74-.27a2.43,2.43,0,0,1,0,.38S16.48,33.7,16.48,33.75Z"/><path class="cls-9" d="M15,28.65l2.26.22a6.55,6.55,0,0,0-.85-.61l-2-.19A6,6,0,0,1,15,28.65Z"/><path class="cls-9" d="M15.81,29.92l2.54.25a5.56,5.56,0,0,0-.41-.58l-2.45-.24C15.6,29.54,15.71,29.72,15.81,29.92Z"/><path class="cls-9" d="M16.28,31.12l2.66.26a5.25,5.25,0,0,0-.22-.55l-2.62-.26A5.05,5.05,0,0,1,16.28,31.12Z"/><path class="cls-9" d="M18.29,36.51a5.24,5.24,0,0,0,.3-.51l-2.68-.26c-.08.17-.17.34-.26.51Z"/><path class="cls-9" d="M18.89,35.33a4.36,4.36,0,0,0,.17-.51l-2.73-.27-.15.52Z"/><path class="cls-9" d="M17.26,37.68a5.55,5.55,0,0,0,.49-.48L15.19,37c-.13.17-.27.33-.41.49Z"/><path class="cls-9" d="M15.62,38.7a5.92,5.92,0,0,0,.87-.44L14.17,38a5.5,5.5,0,0,1-.61.47Z"/><path class="cls-9" d="M53.46,56l3.5.15c-.13-.83-.3-1.68-.52-2.54l-3.59-.1A23.19,23.19,0,0,1,53.46,56Z"/><polygon class="cls-24" points="36.54 47.34 36.73 46.05 37.67 46.05 37.67 45.33 35.86 45.33 35.68 47.34 36.54 47.34"/><polygon class="cls-24" points="42.63 47.34 42.63 45.33 40.56 45.33 40.56 46.05 41.77 46.05 41.77 47.34 42.63 47.34"/><polygon class="cls-24" points="35.37 49.44 35.2 51.43 37.51 51.43 37.51 50.7 36.07 50.7 36.23 49.44 35.37 49.44"/><polygon class="cls-24" points="40.73 50.7 40.73 51.43 42.8 51.43 42.8 49.44 41.93 49.44 41.93 50.7 40.73 50.7"/><ellipse class="cls-24" cx="39" cy="48.34" rx="1.46" ry="1.47"/><ellipse class="cls-9" cx="39" cy="48.34" rx="0.82" ry="0.82"/><path class="cls-25" d="M100.58,76l-.65,1.76-.16.76h7.58c-.1-.33-.73-1.88-4.12-2.7Z"/><polygon class="cls-26" points="99.93 77.77 99.77 78.53 102.59 78.53 102.49 75.88 100.58 76.01 99.93 77.77"/><path class="cls-25" d="M86.39,75.83,83.74,76l-.65,1.76-.17.76h7.59C90.41,78.2,89.77,76.65,86.39,75.83Z"/><polygon class="cls-26" points="83.09 77.77 82.92 78.53 85.74 78.53 85.64 75.88 83.74 76.01 83.09 77.77"/><path class="cls-27" d="M100.68,60.55A10.44,10.44,0,0,0,99.26,58a40.42,40.42,0,0,0-3.19-3.67,2.89,2.89,0,0,0-2-1v3.83a1.61,1.61,0,0,1-.93-.26,23.26,23.26,0,0,1,3.09,3.51c.5.63,1.85,3.07,3.47,12.07.24,1.3.45,2.58.63,3.75h3.91c-.21-1.36-.46-2.86-.74-4.4-.56-3.1-1.14-5.74-1.73-7.86A32,32,0,0,0,100.68,60.55Z"/><path class="cls-28" d="M100.24,59.56,96,60l.24.3c.35.43,1.1,1.74,2.07,5.49l4,.17q-.27-1.12-.54-2.1a32,32,0,0,0-1.1-3.34C100.53,60.19,100.39,59.86,100.24,59.56Z"/><path class="cls-27" d="M87.47,76.15C87.94,70.34,88,61,88,60.57H84.09c0,.11,0,10-.49,15.58Z"/><path class="cls-28" d="M87.88,66.47c.06-3.17.07-5.68.07-5.9H84.09s0,2.52-.06,5.68Z"/><path class="cls-28" d="M83.6,76.15h2.34l.3-15-2-.62h-.13C84.09,60.68,84.08,70.54,83.6,76.15Z"/><path class="cls-29" d="M111,36a1.66,1.66,0,0,0-1.67,1.66v9.55A1.66,1.66,0,0,0,111,48.82h5.42a1.66,1.66,0,0,0,1.68-1.65V37.62A1.67,1.67,0,0,0,116.39,36Z"/><rect class="cls-30" x="110.64" y="37.5" width="6.53" height="8.81"/><path class="cls-31" d="M82.52,49.36A7.67,7.67,0,0,1,89.2,47.8a15.78,15.78,0,0,0,4.85.84c.42,0,.8,0,1.12-.06a26.71,26.71,0,0,0,3.46,3.82,17.91,17.91,0,0,0,4.55,3.06,10.53,10.53,0,0,0,5.94.92,7.74,7.74,0,0,0,2.65-.88,6,6,0,0,0,1.86-1.66,6.83,6.83,0,0,0,1.19-4.26,10.29,10.29,0,0,0-.95-3.87l-.44.28.49,1.67-.29.13-.55-1.58-.62.39.4,1.55-.3.15-.5-1.45-1,.61a6.31,6.31,0,0,1,.45,2.95,3,3,0,0,1-2.93,2.8c-3,.45-5.9-1.46-7.78-3.14A24.31,24.31,0,0,1,97.25,46l-.66-1-1.18.37a9.9,9.9,0,0,1-5.19-.55,9.8,9.8,0,0,0-5-.14,11.43,11.43,0,0,0-2.55.86A9.47,9.47,0,0,0,80.37,47a7.55,7.55,0,0,0-2.18,3.14A7.79,7.79,0,0,0,78,54.36a9,9,0,0,0,5,6.69,9.44,9.44,0,0,0,3.79.9h0l-.06-3.21h0a6.25,6.25,0,0,1-2.39-.59,5.86,5.86,0,0,1-3.22-4.42A4.32,4.32,0,0,1,82.52,49.36Z"/><path class="cls-32" d="M105.79,56.3l.3-3.22a12.79,12.79,0,0,1-5.24-3,23.78,23.78,0,0,1-2.47-2.61,25.15,25.15,0,0,1-.58-6.27c.63-3.35-9.63-2.73-9.63-2.73L84.54,44s0,.27,0,.74a11.6,11.6,0,0,0-1.84.69A9.47,9.47,0,0,0,80.37,47a7.55,7.55,0,0,0-2.18,3.14,8.36,8.36,0,0,0-.27,1L81,52.25a4.23,4.23,0,0,1,1.51-2.89,7,7,0,0,1,1.9-1.16c-.16,5.18-.42,13.49-.5,14.59l17.63-.62s-1.06-4.29-2.06-9a16.77,16.77,0,0,0,3.69,2.33A12,12,0,0,0,105.79,56.3Z"/><polygon class="cls-33" points="93.75 62.44 94.45 62.42 93.63 51.48 93.04 51.82 93.75 62.44"/><polygon class="cls-33" points="83.8 45.11 89.62 55.79 93.19 52.56 97 55.1 99.5 43.99 89.62 44.05 83.8 45.11"/><polygon class="cls-34" points="85.68 46.04 93.19 52.56 99.13 43.62 90.81 43.62 85.68 46.04"/><path class="cls-33" d="M91.73,60.42a.65.65,0,1,0,.65-.64A.65.65,0,0,0,91.73,60.42Z"/><ellipse class="cls-33" cx="92.06" cy="56.58" rx="0.65" ry="0.64"/><path class="cls-33" d="M86.51,62.7,85.12,45.17l-.6-.43v0a11.6,11.6,0,0,0-1.84.69A9.47,9.47,0,0,0,80.37,47a7.55,7.55,0,0,0-2.18,3.14,8.36,8.36,0,0,0-.27,1l1.87.7a6.7,6.7,0,0,1,3.76-4.94l.87,1.35c-.16,5.18-.42,13.49-.5,14.59Z"/><path class="cls-35" d="M115.94,18.29a5.41,5.41,0,0,0-5.06-5.09,4.72,4.72,0,0,0,1.18-3.1c0-2.84-2.61-5.13-5.82-5.13a6.28,6.28,0,0,0-3.69,1.16C102.55,3.29,100,1,96.73,1a6.14,6.14,0,0,0-4.36,1.74A6,6,0,0,0,87.23,0a5.66,5.66,0,0,0-5.75,4.31,6.34,6.34,0,0,0-3.38-1c-3.22,0-5.83,2.3-5.83,5.14a5,5,0,0,0,.1.95c-3.11.1-5.6,2.36-5.6,5.13a4.62,4.62,0,0,0,.86,2.68l0,.08a5,5,0,0,0-2.45,4.19,4.82,4.82,0,0,0,1.43,3.38l0,.3a4.75,4.75,0,0,0-1.34,3.27,5.29,5.29,0,0,0,4.25,5l0,0a4.61,4.61,0,0,0-.39,1.85c0,2.84,2.6,5.14,5.82,5.14a6.34,6.34,0,0,0,1.7-.23,25.72,25.72,0,0,0,13.25,3.58c10.23,0,18.93-5.72,22.1-13.67a5,5,0,0,0,2.62-4.29,4.74,4.74,0,0,0-1.31-3.25A5,5,0,0,0,115.94,18.29Z"/><path class="cls-36" d="M83.48,1.21A6.55,6.55,0,0,1,85.32.94a6,6,0,0,1,5.15,2.73,6.1,6.1,0,0,1,1.74-1.19,6,6,0,0,0-5-2.48A6.23,6.23,0,0,0,83.48,1.21Z"/><path class="cls-36" d="M70.47,10.38a5,5,0,0,1-.08-.56,5.88,5.88,0,0,0-1.55.82A6.69,6.69,0,0,1,70.47,10.38Z"/><path class="cls-36" d="M74.35,4.56a6.55,6.55,0,0,1,1.84-.26,6.34,6.34,0,0,1,3.39,1,4.62,4.62,0,0,1,.59-1.56,6.37,6.37,0,0,0-2.07-.34A6.29,6.29,0,0,0,74.35,4.56Z"/><path class="cls-36" d="M115.94,18.29a5.41,5.41,0,0,0-5.06-5.09,4.72,4.72,0,0,0,1.18-3.1c0-2.84-2.61-5.13-5.82-5.13a6.28,6.28,0,0,0-3.69,1.16C102.55,3.29,100,1,96.73,1A6.32,6.32,0,0,0,93,2.2a6.56,6.56,0,0,1,1.85-.26c3.21,0,5.82,2.29,5.82,5.13a6.26,6.26,0,0,1,3.69-1.16c3.21,0,5.82,2.3,5.82,5.13A4.77,4.77,0,0,1,109,14.15a5.4,5.4,0,0,1,5,5.09,5,5,0,0,1-2.6,4.28,4.76,4.76,0,0,1,1.31,3.25,5,5,0,0,1-2.62,4.29,21.16,21.16,0,0,1-9.59,10.52A21.61,21.61,0,0,0,112,30.12a5,5,0,0,0,2.62-4.29,4.74,4.74,0,0,0-1.31-3.25A5,5,0,0,0,115.94,18.29Z"/><path class="cls-32" d="M107.89,29c.16,0,3.45-.49,3.45-.49l.3-.18-.25-1.26L107,27.3A11,11,0,0,0,107.89,29Z"/><path class="cls-31" d="M82.71,45.34c9.49,4.31,24.58.18,26.75-8.05s-3.82-15.75-7.38-18.87-17-5.82-24.2,3.66c0,0-3.7,4.75-3.44,9C74.44,31.06,73.23,41,82.71,45.34Z"/><path class="cls-37" d="M96.68,38.17a5,5,0,0,1-1.7.24v.67a4.56,4.56,0,0,0,3.08,0c1.11-.59.92-1.49,1-2.29.21-2.32-.32-9.18-.32-9.18l-.48-.88-.87.16a89.28,89.28,0,0,1,.29,8.94C97.6,36.68,97.79,37.58,96.68,38.17Z"/><path class="cls-38" d="M95.33,42.9c1.77,0,3.22-.9,3.4-2.06L92,41C92.24,42.08,93.64,42.9,95.33,42.9Z"/><path class="cls-34" d="M90.17,36.79l-5.55.66L82.2,36.13l-2.5-3S81,37.17,83.37,38s9.34,1.45,11.09-2.23,1.29-4.56,1.29-4.56L93,35.26Z"/><path class="cls-37" d="M98.46,45.52c-.35.28-.74.57-1.13.86,5.88-1.4,10.9-4.66,12.11-9.08,2.24-8.25-3.86-15.75-7.5-18.86a14.71,14.71,0,0,0-6.76-2.58,21.69,21.69,0,0,1,9.61,10.32C108.73,35.64,102,42.66,98.46,45.52Z"/><path class="cls-35" d="M107.6,13.68l1.59-3.78a6.56,6.56,0,0,0-2.75-.78,5.89,5.89,0,0,0-5.58,2.93,6.33,6.33,0,0,0-3-.91h-.1A5.76,5.76,0,0,0,92.43,7.2a5.82,5.82,0,0,0-5.67,3.12A5.94,5.94,0,0,0,83.3,12a6.15,6.15,0,0,0-3.91-1.62c-3.21-.18-5.94,2-6.1,4.81a4.46,4.46,0,0,0,.2,1.59,4.72,4.72,0,0,0-1.32,3c-.16,2.83,2.32,5.27,5.53,5.45a6.14,6.14,0,0,0,4.69-1.73,6.31,6.31,0,0,0,3.92,1.62,6,6,0,0,0,5-2A6,6,0,0,0,96.2,26a5.86,5.86,0,0,0,5.57-2.93,6.36,6.36,0,0,0,3,.91c3.21.18,5.94-2,6.1-4.81a4.69,4.69,0,0,0-.19-1.59,4.86,4.86,0,0,0,1.22-2.29Z"/><path class="cls-34" d="M100.34,34.81a5.24,5.24,0,0,0,1.46,2,6,6,0,0,0,4.54,1.31,27.92,27.92,0,0,0,3-.39c0-.13.08-.27.11-.4a12.57,12.57,0,0,0,.36-1.87l-2.77,1.37-2.83.13Z"/><path class="cls-34" d="M95.17,32.24l.21-1.37L99,31l1-3.6s7-.67,8.13-.5l.23.06a3.36,3.36,0,0,0-.54-1.15,3.09,3.09,0,0,0-1.19-.29l-4.59.12-2.21.53L99,29l.1,1.06-1.32-1.28-2.53.07-1.82-2.66L86,25.48l-4.72.33c-.1,0-2.37,1.46-2.37,1.46v2.94a4.7,4.7,0,0,1,3.21-3c2.37-.45,9.21,0,10.3.62s1.83,4.64,1.25,6.5S95.17,32.24,95.17,32.24Z"/><path class="cls-31" d="M97.62,43.79a6.36,6.36,0,0,0,3.13-3.17,37.32,37.32,0,0,0-4.91-.43,42,42,0,0,0-6.25.7,6.27,6.27,0,0,0,4.56,3.37l-.06-2.69,2.58,0Z"/><path class="cls-39" d="M88.41,29.81c-.82,0-1.47,1-1.45,2.09S87.65,34,88.47,34s1.47-1,1.45-2.09S89.23,29.8,88.41,29.81Z"/><path class="cls-39" d="M101.16,31.79c0,1.1.56,2,1.22,2s1.19-.91,1.17-2-.56-2-1.22-2S101.15,30.7,101.16,31.79Z"/><path class="cls-35" d="M77.05,22.2s-2.91,3.63-3.49,7.37a3.86,3.86,0,0,1,1.59-.1,4.11,4.11,0,0,1,2.63,1.4S80.12,19.45,83,17.63a5.75,5.75,0,0,0,.68-.5A16.43,16.43,0,0,0,77.05,22.2Z"/><path class="cls-35" d="M83.16,28.71l.34,1.52s4.4-2.56,7.53-1.44L91.26,27S86.49,26.1,83.16,28.71Z"/><path class="cls-40" d="M90.77,25.77l-11,.27L79,30.85l2.13,4.72,4.75,1.48H87l1.14,0s4.39-.53,4.79-1,2.49-5.66,2.49-5.66-1.49-3.46-1.49-3.59A27.17,27.17,0,0,0,90.77,25.77Z"/><path class="cls-35" d="M98.31,26.75l-.21,1.54s5-.92,7.58,1.19l.81-1.58S102.32,25.41,98.31,26.75Z"/><path class="cls-40" d="M108.23,25.41l-8.58.27-.6,4.81,1.66,4.72,3.69,1.48h.88l.88.05s3.41-.54,3.72-1S111.82,30,111.82,30s-1.16-3.46-1.16-3.59A18.11,18.11,0,0,0,108.23,25.41Z"/><path class="cls-41" d="M93.82,25.57a44.36,44.36,0,0,0-12.64-.35,3.3,3.3,0,0,0-2.91,3.9L79,32.6a5.33,5.33,0,0,0,1.11,2.47c.79.94,2.7,2.47,6.74,2.54l2.27-.11.86-.07a6.73,6.73,0,0,0,6-6.92V30C95.89,28.92,95.64,26.08,93.82,25.57ZM89.53,36.39l-.73.06-1.92.09c-3.43-.06-5-1.33-5.72-2.11a4.41,4.41,0,0,1-.94-2l-.6-2.9a2.73,2.73,0,0,1,2.46-3.24,38.16,38.16,0,0,1,10.71.29c1.55.42,1.76,2.78,1.78,3.65v.46A5.63,5.63,0,0,1,89.53,36.39Z"/><path class="cls-41" d="M100.26,25.57c-1.43.49-1.62,3.31-1.64,4.34v.55c-.09,5,3.18,6.56,4.64,6.85l.67.07,1.77.1A6.08,6.08,0,0,0,111,35a5.94,5.94,0,0,0,.86-2.44l.56-3.45c.08-.85.09-3.37-2.27-3.87A27.3,27.3,0,0,0,100.26,25.57Zm11.08,3.87-.47,2.86a5.14,5.14,0,0,1-.73,2,5.22,5.22,0,0,1-4.47,2.09l-1.5-.09-.57-.06c-1.23-.24-4-1.53-3.93-5.7v-.45c0-.86.18-3.2,1.39-3.61a23.54,23.54,0,0,1,8.36-.3C111.42,26.64,111.41,28.73,111.34,29.44Z"/><path class="cls-41" d="M73.7,28.85c0,.24-.1.48-.14.72a3.86,3.86,0,0,1,1.59-.1,4.08,4.08,0,0,1,1.07.28l1.43-.15H78.8L79,28.06l-.59.23.09-.35Z"/><polygon class="cls-41" points="95.74 30 98.83 29.91 99.15 28.27 94.8 28.27 95.74 30"/><path class="cls-42" d="M95.12,42.48c1.77,0,3.22-.9,3.4-2l-6.77.16C92,41.66,93.43,42.48,95.12,42.48Z"/><path class="cls-31" d="M73.79,29.34c-1.71.82-2.06,4.38-.59,6.18a2.88,2.88,0,0,0,3.44.69,38.9,38.9,0,0,1,.3-6.34A2.89,2.89,0,0,0,73.79,29.34Z"/><path class="cls-34" d="M74.78,31.57a1.06,1.06,0,1,0,1.18.9A1.06,1.06,0,0,0,74.78,31.57Z"/><path class="cls-35" d="M117.13,40.84a.68.68,0,0,0-.63-.63.62.62,0,0,0,.14-.39.69.69,0,0,0-.73-.65.81.81,0,0,0-.46.15.69.69,0,0,0-.73-.65.81.81,0,0,0-.55.22.74.74,0,0,0-.64-.34.7.7,0,0,0-.72.54.77.77,0,0,0-.43-.12.69.69,0,0,0-.73.64.37.37,0,0,0,0,.12.7.7,0,0,0-.71.65.55.55,0,0,0,.11.33h0a.63.63,0,0,0-.31.53.6.6,0,0,0,.18.42v0a.62.62,0,0,0-.16.41.65.65,0,0,0,.53.62h0a.59.59,0,0,0,0,.23.69.69,0,0,0,.73.64.66.66,0,0,0,.21,0,3.21,3.21,0,0,0,1.67.45,2.93,2.93,0,0,0,2.77-1.71.64.64,0,0,0,.33-.54.57.57,0,0,0-.17-.41A.62.62,0,0,0,117.13,40.84Z"/><path class="cls-36" d="M113.06,38.7a.85.85,0,0,1,.23,0,.77.77,0,0,1,.65.34.8.8,0,0,1,.21-.15.73.73,0,0,0-.62-.31A.82.82,0,0,0,113.06,38.7Z"/><path class="cls-36" d="M111.43,39.85a.15.15,0,0,1,0-.07.78.78,0,0,0-.2.11A.78.78,0,0,1,111.43,39.85Z"/><path class="cls-36" d="M112.15,39.09a.76.76,0,0,1,.42.12.68.68,0,0,1,.07-.2,1,1,0,0,0-.26,0,.82.82,0,0,0-.47.15A.93.93,0,0,1,112.15,39.09Z"/><path class="cls-36" d="M117.13,40.84a.68.68,0,0,0-.63-.63.62.62,0,0,0,.14-.39.69.69,0,0,0-.73-.65.81.81,0,0,0-.46.15.69.69,0,0,0-.73-.65.76.76,0,0,0-.47.16.59.59,0,0,1,.23,0,.69.69,0,0,1,.73.65.82.82,0,0,1,.47-.15.69.69,0,0,1,.73.65.58.58,0,0,1-.15.38.69.69,0,0,1,.63.64.63.63,0,0,1-.33.54.57.57,0,0,1,.17.41.64.64,0,0,1-.33.54,2.73,2.73,0,0,1-1.2,1.32,2.74,2.74,0,0,0,1.44-1.44.64.64,0,0,0,.33-.54.57.57,0,0,0-.17-.41A.62.62,0,0,0,117.13,40.84Z"/><path class="cls-32" d="M116.12,42.19s.43-.06.43-.06l0,0,0-.16L116,42A1.13,1.13,0,0,0,116.12,42.19Z"/><path class="cls-31" d="M113,44.24c1.19.54,3.09,0,3.36-1a2.54,2.54,0,0,0-.93-2.37,2.33,2.33,0,0,0-3,.46,2.08,2.08,0,0,0-.44,1.13A1.79,1.79,0,0,0,113,44.24Z"/><path class="cls-37" d="M114.72,43.34l-.22,0v.08a.56.56,0,0,0,.39,0c.14-.08.11-.19.12-.29A10.63,10.63,0,0,0,115,42l-.06-.11-.11,0c0,.15.06.86,0,1.12C114.83,43.15,114.85,43.26,114.72,43.34Z"/><path class="cls-34" d="M113.9,43.16l-.7.09-.3-.17-.32-.38s.17.51.47.61,1.17.18,1.39-.28.16-.57.16-.57l-.35.51Z"/><path class="cls-37" d="M114.94,44.26l-.14.11a2,2,0,0,0,1.51-1.14,2.49,2.49,0,0,0-.93-2.37,2,2,0,0,0-.85-.32,2.72,2.72,0,0,1,1.2,1.29A2.06,2.06,0,0,1,114.94,44.26Z"/><path class="cls-35" d="M116.09,40.27l.19-.48a.9.9,0,0,0-.34-.1.75.75,0,0,0-.7.37.89.89,0,0,0-.37-.11h0a.72.72,0,0,0-.67-.5.74.74,0,0,0-.71.39.79.79,0,0,0-.43.21.83.83,0,0,0-.49-.2.7.7,0,0,0-.77.6.64.64,0,0,0,0,.2.63.63,0,0,0-.17.38.68.68,0,0,0,.69.68.74.74,0,0,0,.59-.21.83.83,0,0,0,.49.2.79.79,0,0,0,.63-.25.77.77,0,0,0,1.31,0,.81.81,0,0,0,.38.12.69.69,0,0,0,.76-.61.68.68,0,0,0,0-.2.59.59,0,0,0,.15-.28Z"/><path class="cls-34" d="M115.17,42.92a.63.63,0,0,0,.19.24.75.75,0,0,0,.57.17l.37,0s0,0,0-.05a2,2,0,0,0,0-.24l-.34.17-.36,0Z"/><path class="cls-34" d="M114.53,42.59l0-.17H115l.12-.45s.88-.08,1-.06h0a.38.38,0,0,0-.07-.15s-.15,0-.15,0h-.57l-.28.07-.1.36v.14l-.17-.17h-.31l-.23-.33-.94-.09-.59,0-.29.18v.37a.58.58,0,0,1,.4-.38,3.72,3.72,0,0,1,1.29.08,1,1,0,0,1,.16.81C114.26,43.09,114.53,42.59,114.53,42.59Z"/><path class="cls-31" d="M114.83,44a.78.78,0,0,0,.39-.39,4.88,4.88,0,0,0-.61-.06,6.24,6.24,0,0,0-.78.09.78.78,0,0,0,.57.42v-.34h.32Z"/><path class="cls-39" d="M113.5,42.55c0,.14.08.26.18.26s.19-.12.19-.26-.09-.26-.19-.26S113.49,42.41,113.5,42.55Z"/><path class="cls-39" d="M115.28,42.54c0,.14.07.25.15.25s.15-.12.15-.26-.07-.24-.16-.24S115.27,42.4,115.28,42.54Z"/><path class="cls-35" d="M111.82,42.26a.37.37,0,0,1,.19,0,.48.48,0,0,1,.33.17s.3-1.43.65-1.66l.09-.06a2.07,2.07,0,0,0-.83.63A2.36,2.36,0,0,0,111.82,42.26Z"/><path class="cls-35" d="M113.06,42.34a1.4,1.4,0,0,1,1-.18l0-.22a1.37,1.37,0,0,0-1,.21Z"/><path class="cls-35" d="M114.89,42.1a1.36,1.36,0,0,1,1,.15l.11-.2a1.41,1.41,0,0,0-1-.14Z"/><path class="cls-32" d="M112.77,41.71a.41.41,0,0,0-.36.49l.09.44a.79.79,0,0,0,.13.31,1.08,1.08,0,0,0,.85.32l.29,0h.1a.85.85,0,0,0,.75-.87v-.07c0-.13,0-.49-.26-.55A5.73,5.73,0,0,0,112.77,41.71Zm1.68.68a.72.72,0,0,1-.63.73h-.33a.89.89,0,0,1-.72-.26.57.57,0,0,1-.12-.26l-.08-.36a.35.35,0,0,1,.31-.41,4.83,4.83,0,0,1,1.35,0c.19,0,.22.35.22.46Z"/><path class="cls-32" d="M115.16,41.76c-.18.06-.2.41-.2.54v.07a.78.78,0,0,0,.58.86h.31a.8.8,0,0,0,.66-.31.76.76,0,0,0,.1-.31l.08-.43c0-.11,0-.43-.29-.49A3.51,3.51,0,0,0,115.16,41.76Zm1.39.48-.06.36a.54.54,0,0,1-.09.26.66.66,0,0,1-.56.26h-.26a.65.65,0,0,1-.49-.71v-.06c0-.11,0-.4.17-.45a3,3,0,0,1,1,0A.34.34,0,0,1,116.55,42.24Z"/><path class="cls-32" d="M111.83,42.17s0,.06,0,.09a.37.37,0,0,1,.19,0,.32.32,0,0,1,.14,0l.18,0h.14l0-.19-.07,0v-.05Z"/><polygon class="cls-32" points="114.98 42.3 115.03 42.1 114.48 42.1 114.6 42.31 114.98 42.3"/><path class="cls-42" d="M114.52,43.88a.41.41,0,0,0,.43-.26l-.85,0A.4.4,0,0,0,114.52,43.88Z"/><path class="cls-31" d="M111.84,42.23c-.21.1-.25.55-.07.77a.36.36,0,0,0,.43.09,5.16,5.16,0,0,1,0-.79A.37.37,0,0,0,111.84,42.23Z"/><path class="cls-34" d="M112,42.51a.13.13,0,1,0,0,.26.13.13,0,0,0,.11-.15A.14.14,0,0,0,112,42.51Z"/><path class="cls-42" d="M94.57,42.51c1.84,0,3.36-.94,3.55-2.15l-7.07.17C91.35,41.65,92.81,42.51,94.57,42.51Z"/><path class="cls-43" d="M114.4,130.25c-.11-.37-.81-2.08-4.53-3l-2.92.2-.72,2-.18.84Z"/><polygon class="cls-44" points="109.04 127.31 106.95 127.46 106.23 129.41 106.05 130.25 109.15 130.25 109.04 127.31"/><path class="cls-43" d="M95.86,130.25c-.11-.37-.81-2.08-4.54-3l-2.92.2-.71,2-.18.84Z"/><polygon class="cls-44" points="90.5 127.31 88.41 127.46 87.69 129.41 87.51 130.25 90.61 130.25 90.5 127.31"/><path class="cls-45" d="M110.17,122.73c-.61-3.43-1.25-6.37-1.9-8.72a35.7,35.7,0,0,0-1.22-3.7c-.09-.24-.19-.47-.29-.69h-5c.12.14.23.29.35.44.56.7,2,3.41,3.83,13.4.26,1.44.49,2.85.69,4.16H111C110.75,126.11,110.48,124.44,110.17,122.73Z"/><path class="cls-46" d="M108.27,114a35.7,35.7,0,0,0-1.22-3.7c-.16-.39-.32-.76-.48-1.1l-4.67.52.26.33c.39.49,1.22,1.94,2.28,6.1l4.42.19C108.67,115.51,108.47,114.73,108.27,114Z"/><path class="cls-45" d="M92.51,127.62c.52-6.45.53-16.8.53-17.29H88.79c0,.12,0,11.06-.54,17.29Z"/><path class="cls-46" d="M88.72,116.63l4.24.24c.07-3.51.08-6.29.08-6.54H88.79C88.79,110.39,88.79,113.13,88.72,116.63Z"/><path class="cls-46" d="M88.25,127.62h2.58l.33-16.6-2.22-.69h-.15C88.79,110.45,88.78,121.39,88.25,127.62Z"/><path class="cls-8" d="M118.53,100.71c-.2,1.79-.75,1.16-2.72,1.46-3.33.5-6.5-1.62-8.56-3.48a26.82,26.82,0,0,1-4-4.56L102.55,93l-1.3.41a10.68,10.68,0,0,1-5.71-.6,10.77,10.77,0,0,0-5.5-.15,12.14,12.14,0,0,0-2.8.94,10.72,10.72,0,0,0-2.54,1.66,8.47,8.47,0,0,0-2.4,3.49,8.72,8.72,0,0,0-.27,4.72,9.94,9.94,0,0,0,5.49,7.41,10.24,10.24,0,0,0,4.18,1h0l-.06-3.55h0a7,7,0,0,1-2.64-.66,6.5,6.5,0,0,1-3.53-4.91,4.77,4.77,0,0,1,1.54-4.83,8.38,8.38,0,0,1,7.36-1.74,16.92,16.92,0,0,0,5.33.93c.47,0,.89,0,1.23-.06a30.63,30.63,0,0,0,3.82,4.23,19.49,19.49,0,0,0,5,3.39,11.45,11.45,0,0,0,6.54,1,8.06,8.06,0,0,0,2.92-1c.82-.47-1.5,1.13-1.05.33,1.35-2.43.46-.07.4-1.88"/><path class="cls-47" d="M107.25,98.69a25.56,25.56,0,0,1-2.72-2.89c-.54-3.14-.86-5.81-.64-7,.69-3.72-10.6-3-10.6-3l-4,6.19s0,.3,0,.83a11.43,11.43,0,0,0-2,.75,10.72,10.72,0,0,0-2.54,1.66,8.47,8.47,0,0,0-2.4,3.49,8,8,0,0,0-.3,1.09l3.4,1.29a4.67,4.67,0,0,1,1.66-3.2,7.6,7.6,0,0,1,2.1-1.3c-.18,5.75-.46,15-.56,16.18L108,112.1s-1.17-4.75-2.28-10a18.23,18.23,0,0,0,4.06,2.58,12.46,12.46,0,0,0,2.87.93L113,102A13.92,13.92,0,0,1,107.25,98.69Z"/><polygon class="cls-48" points="99.29 100.26 98.65 100.62 99.42 112.41 100.2 112.38 99.29 100.26"/><polygon class="cls-48" points="88.58 93.37 94.88 105.03 98.8 101.45 103 104.27 105.44 93.37 88.58 93.37"/><polygon class="cls-49" points="96.19 91.53 105.35 91.53 98.8 101.45 90.54 94.22 96.19 91.53"/><circle class="cls-50" cx="97.91" cy="110.17" r="0.71"/><circle class="cls-50" cx="97.57" cy="105.9" r="0.71"/><path class="cls-48" d="M89.16,96.61c-.18,5.75-.46,15-.56,16.18l2.86-.1L89.92,93.25l-.65-.48v.06a11.43,11.43,0,0,0-2,.75,10.72,10.72,0,0,0-2.54,1.66,8.47,8.47,0,0,0-2.4,3.49,8,8,0,0,0-.3,1.09l2.06.78a7.44,7.44,0,0,1,4.14-5.49"/><path class="cls-8" d="M115.89,75s2.15.1,2.57,2.91a4.07,4.07,0,0,1-3.53,4.94"/><circle class="cls-51" cx="116.6" cy="80.31" r="1.61"/><circle class="cls-49" cx="116.6" cy="80.31" r="0.71"/><path class="cls-21" d="M118.85,73.22l-4.82.21a11.53,11.53,0,0,0,1,1.93c.17,0,3.8-.54,3.8-.54l.33-.2"/><path class="cls-52" d="M115.45,64.82s2.57,10.47-.19,13.5-6.7-6.34-6.7-9.37.28-6.24.28-6.24"/><path class="cls-8" d="M78.17,77.61s-1.34,11.06,9.1,15.83,27.07.21,29.45-8.92S112.51,67,108.59,63.59s-18.75-6.46-26.63,4c0,0-4.08,5.28-3.79,10"/><path class="cls-12" d="M104.91,73.83l-.53-1-1,.18a99,99,0,0,1,.32,9.92c-.08.89.13,1.9-1.09,2.55a5.55,5.55,0,0,1-1.87.26v.75a5.07,5.07,0,0,0,3.39,0c1.22-.66,1-1.66,1.09-2.55C105.49,81.43,104.91,73.83,104.91,73.83Z"/><path class="cls-49" d="M97.45,88.63c.31,1.19,1.85,2.1,3.71,2.1s3.55-1,3.75-2.28Z"/><path class="cls-49" d="M84,79.88s1.42,4.49,4,5.37,10.28,1.6,12.21-2.48,1.42-5,1.42-5l-3,4.54L95.48,84l-6.11.74-2.66-1.47"/><path class="cls-12" d="M101,60.75a23.93,23.93,0,0,1,10.58,11.44c4.34,10.5-3,18.28-7,21.45-.39.31-.81.63-1.25,1,6.48-1.55,12-5.16,13.33-10.07,2.48-9.14-4.24-17.47-8.24-20.91A16.14,16.14,0,0,0,101,60.75Z"/><path class="cls-49" d="M116.72,84.52a14.36,14.36,0,0,0,.4-2.08L114.07,84,111,84.1l-4.27-2.34a5.75,5.75,0,0,0,1.61,2.17,6.51,6.51,0,0,0,5,1.45A27.44,27.44,0,0,0,116.6,85Z"/><path class="cls-53" d="M116.72,84.52A17.06,17.06,0,0,0,115.54,73c.86,4,1.85,12.79-4.8,16.76a17.17,17.17,0,0,0-5.2,4.23C111.06,92.21,115.54,88.87,116.72,84.52Z"/><path class="cls-49" d="M80.29,69.69s12.94-1.84,19.83-.19,14.68.74,15.14-2.84-12.48-3.22-13.58-3.22l-16.25.1Z"/><path class="cls-49" d="M83.09,76.66s.91-2.84,3.53-3.35,10.15,0,11.34.69,2,5.14,1.38,7.21,1.65-2.3,1.65-2.3l.23-1.51,4,.09,1.1-4s7.71-.74,9-.55l.26.06a3.93,3.93,0,0,0-.59-1.28,3.45,3.45,0,0,0-1.32-.31l-5,.13-2.43.58-.92,3.23.1,1.18-1.45-1.42-2.78.07-2-3-8.19-.82-5.2.36c-.1,0-2.6,1.62-2.6,1.62"/><path class="cls-54" d="M88,62.51A17.36,17.36,0,0,0,82,67.64s-4.08,5.28-3.79,10c0,0-1.34,11.06,9.1,15.83a22.89,22.89,0,0,0,8.8,1.91C73.31,85.63,83.57,68.41,88,62.51Z"/><path class="cls-55" d="M101.13,87c-10.35.54-15.57,3.67-17,4.66a16.68,16.68,0,0,0,3.1,1.83c8.12,3.71,20,1.78,26-3.55A22.56,22.56,0,0,0,101.13,87Z"/><path class="cls-49" d="M101.72,87.73a45.88,45.88,0,0,0-6.87.78,6.91,6.91,0,0,0,5,3.74l-.07-3,2.85,0,1,2.43a7,7,0,0,0,3.44-3.51A41.41,41.41,0,0,0,101.72,87.73Z"/><ellipse class="cls-51" cx="93.58" cy="78.51" rx="1.63" ry="2.3" transform="translate(-1.06 1.28) rotate(-0.78)"/><path class="cls-51" d="M110.22,78.38c0,1.22-.56,2.22-1.29,2.22s-1.33-1-1.35-2.18.56-2.22,1.29-2.23S110.2,77.16,110.22,78.38Z"/><path class="cls-56" d="M81.05,67.78s-3.21,4-3.84,8.17A4.22,4.22,0,0,1,79,75.84a4.54,4.54,0,0,1,2.89,1.56s2.57-12.67,5.69-14.69a6.07,6.07,0,0,0,.75-.56A18,18,0,0,0,81.05,67.78Z"/><path class="cls-52" d="M79.67,71.65S86.21,67.09,96.4,68s19.41,3.32,21.57-2.72-5.41-16.06-16.16-13.53c0,0,4.32,1.05,2.85,3.94S92.22,52,82.12,57s-4.7,17-4.63,17.62A10.52,10.52,0,0,1,79.67,71.65Z"/><path class="cls-57" d="M101.81,51.79a3,3,0,0,1,.36.11c3.6-.22,11.53.09,9.24,7.32-2.85,9-27.62,4.19-31.37,12.2A27.33,27.33,0,0,1,96.4,68c10.19.94,19.41,3.32,21.57-2.72S112.56,49.26,101.81,51.79Z"/><path class="cls-58" d="M99.75,56.19l.6,0c-4.44-.74-11.53-2.54-18.23.77-9,4.47-5.66,14.56-4.81,17.07.31-2.61,2.21-9.92,13.81-12.46l-9.73,1S90,55.46,99.75,56.19Z"/><path class="cls-52" d="M88.14,76.68s4.84-2.83,8.29-1.59l.25-1.94S91.43,72.1,87.77,75Z"/><path class="cls-52" d="M104.22,74.54s5.51-1,8.33,1.31l.9-1.75s-4.59-2.76-9-1.28Z"/><path class="cls-21" d="M101.81,77v-.61c0-1.15-.3-4.3-2.31-4.86a48.23,48.23,0,0,0-13.91-.4,3.65,3.65,0,0,0-3.2,4.33l.79,3.86a5.78,5.78,0,0,0,1.22,2.74c.87,1,3,2.74,7.42,2.82l2.5-.12c.33,0,.64-.06,1-.08C97.32,84.34,101.94,82.6,101.81,77Zm-7,6.53-.8.06-2.12.1c-3.77-.06-5.55-1.48-6.29-2.34a4.78,4.78,0,0,1-1-2.28l-.67-3.21a3,3,0,0,1,2.71-3.6,41.83,41.83,0,0,1,11.79.33c1.7.47,1.93,3.09,2,4v.51C100.44,81.8,96.52,83.25,94.78,83.52Z"/><path class="cls-21" d="M109.89,84.54c.24,0,.48,0,.74.07l2,.12c3.47-.07,5.12-1.76,5.8-2.79a6.74,6.74,0,0,0,1-2.71l.61-3.82c.09-.94.11-3.74-2.49-4.29a29.77,29.77,0,0,0-10.86.39c-1.57.55-1.78,3.67-1.81,4.82v.6C104.68,82.49,108.29,84.21,109.89,84.54Zm-4-7.47v-.5c0-.95.2-3.55,1.53-4a26.06,26.06,0,0,1,9.2-.32c2.21.46,2.19,2.78,2.12,3.56L118.27,79a5.62,5.62,0,0,1-.81,2.26,5.72,5.72,0,0,1-4.91,2.31l-1.65-.09-.63-.06C108.91,83.12,105.86,81.69,105.94,77.07Z"/><path class="cls-21" d="M83.16,74.28l-.66.26c0-.13.07-.27.1-.4l-5.24,1c-.06.26-.11.53-.15.79A4.22,4.22,0,0,1,79,75.84a4.1,4.1,0,0,1,1.17.31L81.71,76H83Z"/><polyline class="cls-21" points="101.62 76.42 105.01 76.33 105.37 74.51 100.58 74.51"/><path class="cls-54" d="M87.77,89.69a18.61,18.61,0,0,0-3.6,1.92,16.68,16.68,0,0,0,3.1,1.83,24.56,24.56,0,0,0,12.47,1.78A35.76,35.76,0,0,1,87.77,89.69Z"/><path class="cls-59" d="M97.22,88.17c.31,1.19,1.86,2.1,3.71,2.1s3.55-1,3.75-2.28Z"/><path class="cls-54" d="M101.13,87c-8.88.46-14,2.83-16.13,4.12l3.69.47s4.08-2.76,11.75-3.4a18.52,18.52,0,0,1,11.3,2.92,16,16,0,0,0,1.49-1.17A22.56,22.56,0,0,0,101.13,87Z"/><path class="cls-49" d="M80.92,76.28a3.17,3.17,0,0,0-3.46-.59c-1.89.91-2.27,4.87-.65,6.85a3.16,3.16,0,0,0,3.78.78A44,44,0,0,1,80.92,76.28Z"/><ellipse class="cls-60" cx="78.72" cy="79.18" rx="1.14" ry="1.18" transform="translate(-10.84 12.5) rotate(-8.5)"/><circle class="cls-51" cx="78.68" cy="82.54" r="1.61"/><circle class="cls-49" cx="78.68" cy="82.54" r="0.71"/><path class="cls-2" d="M109.33,104.44c3.85-.45,4.07.4.13.87a26.19,26.19,0,0,1-9.47-.49A21.63,21.63,0,0,1,97.3,104a21.26,21.26,0,0,1-6-3.58,26.54,26.54,0,0,1-5.27-6.26l.74-.46C91.94,102,99.51,105.61,109.33,104.44Z"/><path class="cls-2" d="M117.7,103.7a21,21,0,0,1-9.17-3.21,27,27,0,0,1-6.18-5.62l.92-.23c4.55,5.51,9.88,8.17,16.24,8.33"/><rect class="cls-17" x="99.77" y="95.57" width="2.34" height="3.11" transform="translate(-9.74 182.97) rotate(-81.69)"/><path class="cls-17" d="M110.69,95.89l1.57,3.57-9.87-1-.14-1.12s1.47-2.28,2.9-2.27A50.78,50.78,0,0,1,110.69,95.89Z"/><path class="cls-9" d="M112.65,96.17l1.57,3.57-9.87-1-.14-1.12s1.47-2.27,2.9-2.26A51.4,51.4,0,0,1,112.65,96.17Z"/><rect class="cls-17" x="98.48" y="94.34" width="14.06" height="20.47" rx="3.28" transform="translate(-13.22 193.87) rotate(-81.69)"/><rect class="cls-18" x="101.51" y="94.78" width="14.06" height="20.47" rx="3.28" transform="translate(-11.06 197.24) rotate(-81.69)"/><rect class="cls-19" x="116.04" y="100.43" width="1.07" height="5.15" transform="translate(-2.19 203.47) rotate(-81.69)"/><path class="cls-9" d="M110.12,109a3.28,3.28,0,0,0,2.77,3.72L100.64,111a3.28,3.28,0,0,1-2.77-3.72L99,99.83a3.28,3.28,0,0,1,3.72-2.77l12.25,1.79a3.28,3.28,0,0,0-3.72,2.77Z"/><path class="cls-9" d="M114.51,109.68a3.26,3.26,0,0,0,1.38,3.17,3.1,3.1,0,0,1-1.49.13L105,111.61a3.28,3.28,0,0,1-2.77-3.72l1.08-7.42a3.28,3.28,0,0,1,3.72-2.77l9.37,1.37a3.28,3.28,0,0,1,1.39.55,3.29,3.29,0,0,0-2.23,2.64Z"/><circle class="cls-20" cx="106.73" cy="104.84" r="6.41" transform="translate(-26.85 172.22) rotate(-71.26)"/><path class="cls-18" d="M110.76,109.83l-.73,1.6-3.66-.53a6,6,0,0,1,1.37-12h0l.18,0,.19,0,.4.07,3.25.54,2.22,3.71-.71,1.39a5.49,5.49,0,0,1-.06,1.14A6,6,0,0,1,110.76,109.83Z"/><circle class="cls-20" cx="110.9" cy="105.45" r="6.04" transform="translate(-35.79 149.05) rotate(-60.11)"/><circle class="cls-9" cx="110.9" cy="105.45" r="4.96" transform="translate(-39.9 131.48) rotate(-53.35)"/><circle class="cls-21" cx="110.9" cy="105.45" r="4.41"/><circle class="cls-22" cx="110.63" cy="105.41" r="3.53" transform="translate(-38.89 136.95) rotate(-55.53)"/><path class="cls-23" d="M108.68,105.16l-.7-.11v0a2.67,2.67,0,1,1,5.29.77v0l-1.43-.21v0a1.6,1.6,0,1,0-3.17-.46Z"/><path class="cls-9" d="M104.29,103.29l-2.74-.4a4.71,4.71,0,0,1,.21-.52l2.72.4C104.41,102.94,104.35,103.11,104.29,103.29Z"/><path class="cls-9" d="M104,104.59l-2.76-.4a.78.78,0,0,0,0-.14c0-.14,0-.27.07-.39l2.76.4c0,.13,0,.26-.07.39S104,104.55,104,104.59Z"/><path class="cls-9" d="M106.74,99.88l-2.28-.33a6,6,0,0,1,1-.4l2,.29A5.28,5.28,0,0,0,106.74,99.88Z"/><path class="cls-9" d="M105.61,100.94l-2.56-.37a4.88,4.88,0,0,1,.55-.47l2.46.36A5.11,5.11,0,0,0,105.61,100.94Z"/><path class="cls-9" d="M104.85,102l-2.68-.39a4.54,4.54,0,0,1,.36-.5l2.63.38C105.05,101.69,105,101.85,104.85,102Z"/><path class="cls-9" d="M101.53,106.9c-.06-.19-.12-.38-.17-.57l2.7.39c0,.19.08.38.13.57Z"/><path class="cls-9" d="M101.24,105.59a5.27,5.27,0,0,1,0-.56l2.75.4a5.24,5.24,0,0,0,0,.56Z"/><path class="cls-9" d="M102.25,108.33q-.19-.3-.36-.6l2.58.37a6.36,6.36,0,0,0,.28.59Z"/><path class="cls-9" d="M103.61,109.75a5.81,5.81,0,0,1-.74-.66l2.33.34a7.31,7.31,0,0,0,.48.62Z"/><path class="cls-61" d="M14.69,101.94l-1.81,7.18s6,2,5.83,1.95,1.6-7.73,1.6-7.73S15,102.06,14.69,101.94Z"/><path class="cls-62" d="M29,108.3c4.47-4.49,6.12-8.55,4.9-12.06-1.55-4.46-7.24-6.51-9.5-7.17l0-.52c.2-.38.59-1.13,1-1.89s.55-1.14.72-1.52.18-.45.23-.6A1.16,1.16,0,0,0,25.64,83a1.45,1.45,0,0,0-1.57.26,4.16,4.16,0,0,0-.31.35c-.2.24-.45.6-.79,1.09-.71,1-1.78,2.74-3.19,5-2.37,3.82-5.35,6.2-8.86,7.09a13.16,13.16,0,0,1-3.87.36L6,99.38A16.43,16.43,0,0,0,11.56,99c4.21-1,7.71-3.79,10.42-8.17l.86.19c.07,0,7.15,1.63,8.63,5.89.94,2.71-.54,6-4.38,9.89Z"/><path class="cls-63" d="M10.92,96.83a12.37,12.37,0,0,1-2.35.35l.18.7s6.1-.19,11-6.68c1.6-2.13,1.92-3.32,1.59-3.94-.46.73-1,1.55-1.54,2.48C17.41,93.56,14.43,95.94,10.92,96.83Z"/><path class="cls-61" d="M15.9,102.77l1.67,2.88.46-1c.46-1,.17-.67.52-1.85s1.84-5.93,2.31-8.4a16,16,0,0,0-.06-5.16l-1.5.57Z"/><path class="cls-64" d="M29,108.3c3.69-3.7,5.46-7.11,5.28-10.16l-2.53-.08c.24,2.48-1.31,5.41-4.63,8.74Z"/><path class="cls-65" d="M18.49,128.69c-.09,0-.8-.17-.8-.17l-3.58,1.59h4.82V130l-.23-1.23A.34.34,0,0,0,18.49,128.69Z"/><path class="cls-64" d="M15.93,129.3l.72.36,1.9-.88-.11-.1c-.19,0-.75-.16-.75-.16Z"/><path class="cls-65" d="M29.09,128.69c-.1,0-.8-.17-.8-.17l-3.58,1.59h4.81V130l-.24-1.24S29.18,128.69,29.09,128.69Z"/><path class="cls-64" d="M26.52,129.31l.72.35,1.9-.88-.11-.1c-.19,0-.74-.16-.74-.16Z"/><polygon class="cls-61" points="17.27 128.84 18.65 128.84 20.66 110.65 25.56 110.32 27.32 128.85 29.41 128.85 29.94 109.58 16.34 109.23 17.27 128.84"/><polygon class="cls-66" points="17.27 128.84 17.44 128.84 18 109.6 17.45 109.26 16.34 109.23 17.27 128.84"/><path class="cls-67" d="M31.77,111s-4.14-18.57-9.12-23.65l-2.55,2.2-.89,3.63L16.5,95.78,18,97.94l-3.17,12.88Z"/><polygon class="cls-63" points="20.12 90.66 19.79 90.79 19.21 93.17 16.5 95.78 18.04 97.94 14.87 110.82 16.78 110.84 19.31 98.12 17.83 96.07 19.77 94.56 20.12 90.66"/><path class="cls-62" d="M26.54,110.94l5.23,0s-4.08-18.32-9-23.55l-.15.48Z"/><ellipse class="cls-68" cx="21.62" cy="90.41" rx="1.84" ry="3.26"/><polygon class="cls-64" points="0.87 96.39 0.87 96.39 0.63 96.77 0.87 96.39"/><path class="cls-64" d="M.35,97.21,0,97.74a18,18,0,0,0,10.28,1.52l-.45-2.21a15.56,15.56,0,0,1-8.57-1.26L1,96.16H1l.24-.37L1,96.16l1.37.7L2.27,97l-1.4-.65-.35.54,1.45.7-.13.18Z"/><polygon class="cls-69" points="25.49 97.94 25.32 95.88 25.12 97.85 23.99 98.49 23.39 96.97 23.6 95.06 22.96 96.95 23.69 98.62 22.97 99.33 22 98.65 22.74 99.83 22.36 100.25 21.49 100.61 20.86 99.96 21.51 98.83 20.62 99.5 19.91 98.86 20.53 97.26 19.86 95.5 20.13 97.29 19.62 98.75 18.53 98.2 18.26 96.34 18.18 98.29 20.45 99.85 20.93 100.84 18.88 101.7 18.72 102.17 20.82 102.45 20.8 105.28 23.98 105.37 22.6 100.98 23.17 99.69 25.49 97.94"/><polygon class="cls-70" points="18.25 96.65 18.18 98.29 19.15 98.95 19.23 98.55 18.53 98.2 18.32 96.74 18.25 96.65"/><path class="cls-71" d="M17.5,94.88a14.14,14.14,0,0,0,1.15-3.46l1.13-1.54a14.13,14.13,0,0,1-1.06,5.36,18.44,18.44,0,0,1-4.95,6.81,21.12,21.12,0,0,1-2.8,2l-.5-1.18A16.81,16.81,0,0,0,17.5,94.88Z"/><path class="cls-71" d="M24.55,89.88l1.37-.26c-.12.4-2.62,8.94-8.43,13.34a13.75,13.75,0,0,1-2.26,1.4l-.53-1.09C21.54,99.94,24.52,90,24.55,89.88Z"/><polygon class="cls-72" points="18.85 99.68 16.48 100.53 15.76 98.93 18.14 98.08 18.85 99.68"/><path class="cls-72" d="M16.3,99.69l.1.82-7.69,2.41.56-2.82a43.74,43.74,0,0,1,4.28-1.53C14.69,98.31,16.3,99.69,16.3,99.69Z"/><path class="cls-73" d="M12,99.11c1.14-.25,2.75,1.12,2.75,1.12l.1.83-7.69,2.4.56-2.82A43.74,43.74,0,0,1,12,99.11Z"/><path class="cls-72" d="M7.63,102.53l10.62-3.81a2.83,2.83,0,0,1,3.51,1.34l2.29,5.12a2.34,2.34,0,0,1-1.5,3.14l-10.62,3.8a2.81,2.81,0,0,1-3.51-1.34l-2.29-5.12A2.32,2.32,0,0,1,7.63,102.53Z"/><path class="cls-74" d="M5.29,103.36l10.62-3.8a2.8,2.8,0,0,1,3.51,1.34l2.3,5.12a2.33,2.33,0,0,1-1.51,3.13L9.59,113a2.82,2.82,0,0,1-3.5-1.34l-2.3-5.12A2.34,2.34,0,0,1,5.29,103.36Z"/><polygon class="cls-75" points="8.07 105.86 4.14 107.27 3.81 106.53 7.74 105.13 8.07 105.86"/><path class="cls-73" d="M6.46,102.94l9.45-3.38a2.8,2.8,0,0,1,3.51,1.34l2.3,5.12a2.33,2.33,0,0,1-1.51,3.13l-9.45,3.39a2.33,2.33,0,0,0,1.5-3.14L10,104.29A2.83,2.83,0,0,0,6.46,102.94Z"/><path class="cls-73" d="M4.29,104a2.55,2.55,0,0,1,1-.63l7.23-2.59A2.82,2.82,0,0,1,16,102.11l2.3,5.12a2.34,2.34,0,0,1-1.5,3.14L9.59,113a3,3,0,0,1-1.21.16,2.2,2.2,0,0,0,.49-2.5L6.58,105.5A2.68,2.68,0,0,0,4.29,104Z"/><path class="cls-76" d="M8.21,111.16s-.07.21-.11.22S6.42,111,6.42,111l-.64.57-1.15-1.52L5.16,109s2.1,1,2.19,1-.25.35-.25.35l-1.5-.58-.26.85.72-.39Z"/><path class="cls-77" d="M10.45,101.9a5.35,5.35,0,0,1,6.68,2.56,4.45,4.45,0,0,1-2.86,6,5.35,5.35,0,0,1-6.67-2.56A4.44,4.44,0,0,1,10.45,101.9Z"/><path class="cls-72" d="M7.45,103.32l2.43-.91a1.57,1.57,0,0,1,.3-.12l.14-.05.13,0h0a5,5,0,0,1,6,2.5,4.19,4.19,0,0,1-2.69,5.63l-2.75,1-.87-1a4.59,4.59,0,0,1-2.67-2.4,3.32,3.32,0,0,1-.26-.79l-.82-.84Z"/><path class="cls-77" d="M7.43,103.27a5,5,0,0,1,6.29,2.41A4.18,4.18,0,0,1,11,111.3a5,5,0,0,1-6.29-2.4A4.19,4.19,0,0,1,7.43,103.27Z"/><path class="cls-73" d="M7.75,104a4.14,4.14,0,0,1,5.16,2,3.43,3.43,0,0,1-2.2,4.61,4.15,4.15,0,0,1-5.17-2A3.45,3.45,0,0,1,7.75,104Z"/><path class="cls-77" d="M6.46,103.1a5.51,5.51,0,0,1,6.86,2.62,4.56,4.56,0,0,1-2.94,6.13,5.5,5.5,0,0,1-6.86-2.62A4.57,4.57,0,0,1,6.46,103.1Z"/><path class="cls-74" d="M3.38,104.56l2.48-.94.32-.13.14,0,.14,0h0A5.17,5.17,0,0,1,12.64,106a4.3,4.3,0,0,1-2.77,5.77l-2.82,1-.89-1a4.75,4.75,0,0,1-2.75-2.47,3.63,3.63,0,0,1-.26-.81l-.84-.87Z"/><path class="cls-77" d="M3.35,104.51A5.17,5.17,0,0,1,9.81,107a4.3,4.3,0,0,1-2.76,5.78,5.18,5.18,0,0,1-6.46-2.48A4.29,4.29,0,0,1,3.35,104.51Z"/><path class="cls-73" d="M3.68,105.25a4.27,4.27,0,0,1,5.31,2A3.53,3.53,0,0,1,6.72,112a4.24,4.24,0,0,1-5.3-2A3.52,3.52,0,0,1,3.68,105.25Z"/><path d="M3.85,105.62a3.78,3.78,0,0,1,4.72,1.8,3.14,3.14,0,0,1-2,4.22,3.79,3.79,0,0,1-4.72-1.8A3.14,3.14,0,0,1,3.85,105.62Z"/><path class="cls-78" d="M4.33,106.15a3,3,0,0,1,3.77,1.44A2.51,2.51,0,0,1,6.49,111a3,3,0,0,1-3.77-1.44A2.5,2.5,0,0,1,4.33,106.15Z"/><path class="cls-79" d="M5.2,107.36a1.14,1.14,0,0,0-.73,1.53v0l-1.11.4v0a1.91,1.91,0,0,1,1.23-2.56,2.3,2.3,0,0,1,2.86,1.09v0l-.54.2v0A1.37,1.37,0,0,0,5.2,107.36Z"/><path class="cls-73" d="M10.07,106c-.08-.12-.16-.23-.25-.34l2.1-.75q.13.15.27.33Z"/><path class="cls-73" d="M12.51,105.7l.13.27a1,1,0,0,1,0,.1l-2.13.76a.42.42,0,0,0,0-.1c0-.09-.08-.18-.13-.27Z"/><path class="cls-73" d="M7.46,103.93a5.8,5.8,0,0,0-.63-.2l1.52-.55a6.14,6.14,0,0,1,.86.12Z"/><path class="cls-73" d="M10.54,103.79l-2,.7c-.15-.09-.3-.18-.46-.26l1.9-.68A5.05,5.05,0,0,1,10.54,103.79Z"/><path class="cls-73" d="M11.45,104.4l-2.07.74L9,104.83l2-.72Z"/><path class="cls-73" d="M13,108.05l-2.05.74c0-.14,0-.28,0-.43l2.09-.74A3.11,3.11,0,0,1,13,108.05Z"/><path class="cls-73" d="M13,107.06l-2.11.76a2.88,2.88,0,0,0-.09-.4l2.12-.76C12.91,106.8,12.94,106.93,13,107.06Z"/><path class="cls-73" d="M12.67,109.2l-1.92.69a3.94,3.94,0,0,0,.1-.47l2-.71A3.17,3.17,0,0,1,12.67,109.2Z"/><path class="cls-73" d="M11.86,110.45l-1.6.57a5.28,5.28,0,0,0,.27-.53l1.79-.64A4.35,4.35,0,0,1,11.86,110.45Z"/><ellipse class="cls-72" cx="16.51" cy="101.46" rx="0.66" ry="0.59"/><ellipse class="cls-72" cx="17.99" cy="102.87" rx="0.66" ry="0.59"/><polygon class="cls-21" points="3.06 75.35 7.7 76.44 7.44 74.56 2.95 73.91 3.06 75.35"/><ellipse class="cls-68" cx="34.71" cy="80.72" rx="3.15" ry="3.63"/><ellipse class="cls-80" cx="8.29" cy="78.38" rx="3.15" ry="3.63"/><ellipse class="cls-66" cx="7.37" cy="81" rx="1.39" ry="1.37"/><ellipse class="cls-68" cx="7.37" cy="81" rx="0.79" ry="0.78"/><path class="cls-64" d="M21.08,56.84c-7.85.68-12.47,3.07-15,10.13C6.07,67,3,82.58,15,90.67c0,0,27.23-1.24,21.24-24.94C36.19,65.73,28.92,56.16,21.08,56.84Z"/><path class="cls-68" d="M16.25,76l.66-2a17.22,17.22,0,0,1,7.31-1.87,6.13,6.13,0,0,1,5.4,3.46l3.15,1.74.07-.8L30.5,75.32l-1.17-2.95-1.68-1.3-6.36.14-3.58.57-.29,1.16-1.83,1-1.84-.34-.93-1.68-1.25-.36-5.86-.32c0,.57,0,1.19,0,1.84,1.9-.27,5.53-.58,6.7.78L13.36,75,13.18,76Zm-2.78-.94c.23.3,0,.07,0,.07Z"/><path class="cls-68" d="M33.64,72.15c.44-.94-1-6.06-1.38-6.2a45.43,45.43,0,0,0-9.5-1.88c-4.31-.29-7.53-.73-8-.22L5.14,66.22l14.11,5.2-2.63-1.94L29,71.93,23.12,69l8.55,2.1S33.21,73.09,33.64,72.15Z"/><path class="cls-68" d="M28.38,84A38.6,38.6,0,0,1,14.85,90.6l.1.07s27.23-1.24,21.24-24.94a31.54,31.54,0,0,0-4.27-4.41C33.37,67.63,34.84,78.94,28.38,84Z"/><path class="cls-81" d="M29.92,62.32l.44,5.79,1.8,12.5s2.52-3.52,4.17-3c0,0,2.85-8.81-1.64-12.77S30.25,62.1,29.92,62.32Z"/><path class="cls-80" d="M6.07,67S3,82.49,14.85,90.6h0C4.45,80.19,8.16,66.3,10.41,60.37A14.67,14.67,0,0,0,6.07,67Z"/><path class="cls-82" d="M24,76.6c0,.89.45,1.6,1,1.6s1-.71,1-1.6S25.54,75,25,75,24,75.72,24,76.6Z"/><path class="cls-83" d="M23.06,74.08a2.31,2.31,0,0,1,3.85,0A2.2,2.2,0,0,0,25,72.33,2.18,2.18,0,0,0,23.06,74.08Z"/><path class="cls-84" d="M14.56,85.54a1.18,1.18,0,0,0,1.28,1,1,1,0,1,0,0-2A1.17,1.17,0,0,0,14.56,85.54Z"/><path class="cls-85" d="M15.81,85.87a2.55,2.55,0,0,0,2.34-1.42,3.49,3.49,0,0,1-2.34.83,3.44,3.44,0,0,1-2.33-.83A2.53,2.53,0,0,0,15.81,85.87Z"/><ellipse class="cls-82" cx="10.48" cy="76.49" rx="1.01" ry="1.6"/><path class="cls-83" d="M8.15,74A2.31,2.31,0,0,1,12,74a2.18,2.18,0,0,0-1.93-1.75A2.18,2.18,0,0,0,8.15,74Z"/><path class="cls-68" d="M16.37,83.15l-2.46-2A12.23,12.23,0,0,0,14.53,76a7.74,7.74,0,0,0-2.81-2.57c1.61,1.76,2.69,4.58-.28,8.57Z"/><path class="cls-65" d="M31.9,58.44l4.38-1.95S25.1,51.44,17.21,55.41l1-3.9S3.1,55.76,5.07,63.12l.12.43c-.26,1.19-2,9.69.39,12.6l.51,0c0-.38-.29-7.63,1-10A65,65,0,0,0,23.45,72.6l-7.34-5.79s7.89,5,15.23,6l-9.86-5.36L37,72.28s0-4.6-.85-6.55l4.69,1.37S37.3,60,31.9,58.44Z"/><path class="cls-86" d="M17.13,67.38l3,1.63A49.49,49.49,0,0,0,25,71.14L14.35,61.25l9.29-4.18L13.11,59.66,18,55.05c-.26.11-.53.23-.78.36l.07-.29a36.14,36.14,0,0,1-4.53,1.8c0-.17,3.65-3.86,5.07-5.29-2.39.74-14.53,4.85-12.75,11.49l.12.43c-.26,1.19-2,9.69.39,12.6l.51,0c0-.38-.29-7.63,1-10A64.35,64.35,0,0,0,23,72.48L9.68,65l4.38-.22Z"/><path class="cls-87" d="M31.34,72.82l-9.86-5.36,4.6,4.06A30.39,30.39,0,0,0,31.34,72.82Z"/><path class="cls-87" d="M31.9,58.44l4.38-1.95s-9.33-4.21-17-1.92l14,1.85-4.09,2.24s7.16,3,8.62,5.56l-6.06-.44,1.82,4.55-12.09-.87L37,72.28s0-4.6-.85-6.55l4.69,1.37S37.3,60,31.9,58.44Z"/><path class="cls-87" d="M11.87,57.71l5.34-2,.57-.55-.57.27.93-3.55Z"/><path class="cls-21" d="M21.07,81.21l.72.05,1.89.09c3.37,0,5-1.32,5.62-2.1a4.34,4.34,0,0,0,.92-2l.6-2.88a2.74,2.74,0,0,0-2.42-3.24,37.26,37.26,0,0,0-10.53.29,2.67,2.67,0,0,0-1.59,2.24H13.75c-.15-.94-.49-2-1.25-2.24a23,23,0,0,0-8.22-.3c-2,.41-1.95,2.5-1.89,3.21l.47,2.85a4.94,4.94,0,0,0,.72,2A5.06,5.06,0,0,0,8,81.24l1.48-.08L10,81.1c1.21-.24,3.94-1.53,3.87-5.68V75l2.25.07v.43A5.59,5.59,0,0,0,21.07,81.21Zm-3.83-6c0-.71.19-2.67,1.48-3a32.22,32.22,0,0,1,8.93-.24,2.27,2.27,0,0,1,2.05,2.69L29.19,77a3.61,3.61,0,0,1-.78,1.7c-.56.64-1.91,1.7-4.76,1.75l-1.6-.08-.61,0a4.7,4.7,0,0,1-4.2-4.78ZM13,75.53c.06,3.45-2.25,4.52-3.28,4.72l-.47,0L8,80.37a4.35,4.35,0,0,1-3.72-1.74A4,4,0,0,1,3.66,77l-.39-2.38c-.06-.58-.07-2.32,1.6-2.66a20,20,0,0,1,7,.24c1,.35,1.14,2.29,1.15,3Z"/><path class="cls-21" d="M35.18,77.78a1.93,1.93,0,0,1,1.46.07l.26-.94L30.21,74.1,30,75.47Z"/><path class="cls-66" d="M33.38,83.55a1.39,1.39,0,1,0,1.39-1.37A1.38,1.38,0,0,0,33.38,83.55Z"/><path class="cls-68" d="M34.12,83.55a.66.66,0,1,0,.65-.65A.65.65,0,0,0,34.12,83.55Z"/><path class="cls-88" d="M81.46,102.21s-9.13-16-8.08-30.74-6.14-18.09-11.24-19L38.08,72.17s1.05,38.82-3.52,51.12c0,0,5.27-3.86,6.85-9.31a46.24,46.24,0,0,1-5.09,13.71s10.52-8.78,11.78-18c0,0,4.77,14.84,11.09,19.06,0,0,8-5.5,6.11-19.1,0,0,9.07,17.65,14.87,18a87.38,87.38,0,0,1-8.28-31.06S75.49,102.74,81.46,102.21Z"/><path class="cls-89" d="M73.84,122.8a11.39,11.39,0,0,0,6.33,4.89s-6.06-11.13-8-28.23c-.1,1.41-.23,3.74-.29,6.56C71.87,115.4,72,114.7,73.84,122.8Z"/><path class="cls-89" d="M73.47,67.67l-5.18-2.35s3.62,23.61,10.14,36.59a8.11,8.11,0,0,0,3,.3s-9.13-16-8.08-30.74A35.53,35.53,0,0,0,73.47,67.67Z"/><path class="cls-90" d="M36.32,127.69a48.5,48.5,0,0,0,7.39-8.09c.46-1,2-25.86,2-25.91l-3.57,20.08C41.64,116.9,39.37,122.26,36.32,127.69Z"/><path class="cls-91" d="M57.11,83.41a1.61,1.61,0,0,0-.37,0Z"/><path class="cls-91" d="M57.11,83.41a1.61,1.61,0,0,0-.37,0Z"/><path class="cls-92" d="M56.91,54.5c-8.13.11-14.57,10.83-14.57,10.83C38.7,90.61,66.8,89.05,66.8,89.05c11.46-9.68,6.6-25.58,6.6-25.58C70,56.39,65,54.38,56.91,54.5Z"/><path class="cls-76" d="M64.43,56.8l.19.07Z"/><path class="cls-76" d="M64.47,55.53A4.32,4.32,0,0,0,64,54.7c-.4-.56-1-.61-1.43-.88S60.3,53.94,60,54c-.16,0-1,.36-1.9.69l-2.62-.86c-.79.08-1,.9-1.36,1.16s-5.41,4.88-6.18,7.35-2.65,14.14-2.61,14.48,2.5,6.68,3.06,6.63,7.74-13.31,9.1-21.07c1.22-6.9,5.95-5.89,7-5.58l-1.82-.6c.62-.07,1.65-.18,1.76-.23A.33.33,0,0,0,64.47,55.53Z"/><path class="cls-76" d="M42.34,65.33C39.23,90.2,67.61,88.43,66.8,89.05l.1-.09a39.51,39.51,0,0,1-14.59-5.43C45.13,78.93,45.43,67,46.25,60.3A32.93,32.93,0,0,0,42.34,65.33Z"/><path class="cls-93" d="M73.4,63.47a15.33,15.33,0,0,0-5.15-6.42C71.19,63,76.46,77,66.9,89,78.23,79.28,73.4,63.47,73.4,63.47Z"/><path class="cls-94" d="M55,71.16c-.58.06-1,.86-.87,1.78s.64,1.62,1.21,1.56,1-.86.87-1.78S55.59,71.11,55,71.16Z"/><path class="cls-94" d="M69.89,69.53c-.57.06-1,.85-.87,1.77s.64,1.62,1.22,1.56,1-.85.87-1.77S70.47,69.47,69.89,69.53Z"/><path class="cls-88" d="M69.55,66.47a3,3,0,0,0-2.34,2.65,3.11,3.11,0,0,1,5.17-.53A3,3,0,0,0,69.55,66.47Z"/><path class="cls-88" d="M54,68.12a3,3,0,0,0-2.34,2.64,3.11,3.11,0,0,1,5.17-.53A3,3,0,0,0,54,68.12Z"/><path class="cls-76" d="M68.8,78c-3.47-3.83-2.66-6.88-1.19-8.87a8.09,8.09,0,0,0-2.62,3,12.79,12.79,0,0,0,1.2,5.38l-2.33,2.29Z"/><path class="cls-95" d="M64.14,84.42a4,4,0,0,0,3.62-3.84l-7.9,1A4,4,0,0,0,64.14,84.42Z"/><path class="cls-13" d="M64.21,83.52c1.66-.17,2.94-1.2,3-2.35L60.85,82C61.2,83,62.61,83.68,64.21,83.52Z"/><path class="cls-88" d="M62.05,51.09c-11.85-2.81-16,5.1-17.47,10.54l.7.88A48.51,48.51,0,0,0,71.8,65.76L61.35,60.93S70.13,65,75,65.15A16.69,16.69,0,0,0,62.05,51.09Z"/><path class="cls-88" d="M38.13,65.26c-2.69,15.93,9.72,21,9.72,21C55.23,76.86,50,60.93,50,60.93l6-3.75C52,52.15,40.83,49.34,38.13,65.26Z"/><path class="cls-90" d="M48.7,53.26c-4.31-.35-9,2.46-10.57,12a23.31,23.31,0,0,0,0,8.26c.13,7,.51,38.84-3.55,49.77a22.5,22.5,0,0,0,5.68-6.51c4.1-17.19,2-44.08,2-44.08C38.52,61.55,46.39,54.92,48.7,53.26Z"/><path class="cls-96" d="M54.21,50.86c6.93.78,16.47,3.79,19.69,14.19.37,0,.73.08,1.06.1A16.69,16.69,0,0,0,62.05,51.09,17,17,0,0,0,54.21,50.86Z"/><path class="cls-97" d="M50.37,105.76l-1.29,3.38c.17,1.65,1,6.51,4.57,8.5,0,0,.22,0,.62,0,.64-1.89,1.06-4.35-.74-5C50.49,111.5,50.37,105.76,50.37,105.76Z"/><polygon class="cls-76" points="79.2 93.74 80.35 96.55 81.79 96.92 82.52 95.06 81.2 92.73 80.69 92.69 79.2 93.74"/><polygon class="cls-98" points="64.27 129.21 65.07 129.24 66.34 129.28 71.15 129.45 66.49 126.99 65.01 126.56 64.27 129.21"/><polygon class="cls-98" points="51.94 129.21 52.75 129.24 54.02 129.28 58.83 129.45 54.17 126.99 52.68 126.56 51.94 129.21"/><path class="cls-76" d="M67.2,128.51l2.63.24-2.94-1.55h0L66.3,117h0l-.62-10,0,0v-.36l-2.05-5.16c-.4-.12-9.69,1.28-10.48,4.7,0,.08,0,.17,0,.27v0a1,1,0,0,0,0,.17,0,0,0,0,0,0,0,.07.07,0,0,0,0,0v.17h0s0,.07,0,.1v.31s0,.09,0,.14v.42a1,1,0,0,0,0,.17v.64c0,.07,0,.15,0,.24v.53c0,.12,0,.24,0,.36v.59c0,.13,0,.27,0,.41v.36c0,.08,0,.15,0,.23v0c0,.16,0,.32,0,.48v.37a1.69,1.69,0,0,0,0,.23v.08c0,.15,0,.29,0,.44v.75c0,.14,0,.29,0,.44v.46a1.85,1.85,0,0,1,0,.23V115c0,.16,0,.32,0,.49v1c0,.1,0,.21,0,.32v5.63h0c0,1.85,0,3.47.08,4.57l-.08.29,1.87,1.17,2.93.22-2.73-1.44,1.88-10.65h0l1.32-7.49,3.39,0,.21.56,3,14.85.53,2.67,0,.16Z"/><polygon class="cls-99" points="52.84 106.65 52.06 125.26 57.1 125.26 58.87 109.19 60.49 109.19 62.02 125.26 67.07 125.26 65.65 106.95 57.96 105.94 52.84 106.65"/><polygon class="cls-76" points="79.83 93.47 78.59 94.97 78.31 93.65 78.07 93.65 77.89 96.01 71.06 97.04 63.86 89.88 61.97 89.88 62.19 94.93 70.65 99.72 78.86 96.6 79.68 96.29 81.36 94.39 81.23 94.22 79.72 95.3 80.8 93.83 80.59 93.69 79.22 95.06 80.07 93.56 79.83 93.47"/><path class="cls-100" d="M52.42,107h14c-3.08-4.14-2.5-10.14-2.5-10.14L65.58,95c-.81-.77-1.75-3.47-2.25-5a13,13,0,0,1-3.2-1.44l-2.77-.45a10.07,10.07,0,0,1-3.11,2l-.37,2.17c1.22,2.49,1.1,6.12.83,8.5A38.32,38.32,0,0,1,52.42,107Z"/><polygon class="cls-101" points="51.73 107.52 55.83 91.83 54.52 90.78 49.96 107.24 51.73 107.52"/><path class="cls-98" d="M52.42,107h12c-3.08-4.14-2.5-10.14-2.5-10.14L63.64,95c-.82-.77-1.76-3.47-2.25-5-1-.18-6.07-.43-7.14.11l-.37,2.17c1.22,2.49,1.1,6.12.83,8.5A38.32,38.32,0,0,1,52.42,107Z"/><path class="cls-98" d="M58.42,103l.94,3.19,4.53-6.74c0-.72-.06-1.32,0-1.77Z"/><path class="cls-71" d="M66.92,91.35a16.6,16.6,0,0,1-3.33-1.65l-1.91-.38a16,16,0,0,0,4.65,3A21.69,21.69,0,0,0,74.75,94a23.29,23.29,0,0,0,3.44-.26l-.51-1.09A19.47,19.47,0,0,1,66.92,91.35Z"/><path class="cls-76" d="M55.7,89.27c.47,1.06,2.2,4.46,4.81,4.72,2.43.24,2.13-2.65,1.62-4.35a8.38,8.38,0,0,1-2-1.12l-2.77-.45h0A5.92,5.92,0,0,1,55.7,89.27Z"/><polygon class="cls-102" points="60.45 109.53 62.07 109.05 56.15 88.88 54.78 89.53 60.45 109.53"/><path class="cls-102" d="M49.58,118.38l8,1.19a2.2,2.2,0,0,0,2.56-1.48l2-9.29L49.81,107l-2,9.3A1.88,1.88,0,0,0,49.58,118.38Z"/><path class="cls-103" d="M48.14,114.7a1.74,1.74,0,0,0,1.53,2.08l7.12,1.06a2,2,0,0,0,2.31-1.52l.2-.93A2,2,0,0,1,57,116.91l-7.12-1.06a1.74,1.74,0,0,1-1.53-2.08Z"/><path class="cls-103" d="M56.2,119.36l1.41.21a2.2,2.2,0,0,0,2.56-1.48l2-9.29-1.41-.21-2,9.29A2.2,2.2,0,0,1,56.2,119.36Z"/><path class="cls-103" d="M52.9,115.31a.5.5,0,0,0,.47.57.59.59,0,0,0,.68-.4.49.49,0,0,0-.47-.56A.58.58,0,0,0,52.9,115.31Z"/><path class="cls-71" d="M55.71,88.93l-1.2.56c.34.23,7.65,5,14.84,5a14,14,0,0,0,2.6-.23l-.29-1.08C64.37,94.55,55.8,89,55.71,88.93Z"/><polygon class="cls-92" points="68.11 92.91 66.37 93.74 65.22 94.99 63.55 95.67 64.34 96.56 66.39 95.85 67.77 94.96 68.47 94.62 68.31 94.39 67.4 94.63 67.38 94.62 68.07 94.13 67.99 94.02 66.91 94.21 66.9 94.2 68.16 93 68.11 92.91"/><polygon class="cls-92" points="56.2 91.81 54.86 89.75 51.69 91.37 57 100.21 65.3 96.23 64.29 95.37 58.69 96.78 56.2 91.81"/><polygon class="cls-76" points="51.69 91.37 57 100.21 62.27 97.68 57.53 99.02 53.95 90.21 51.69 91.37"/><polygon class="cls-104" points="65.5 125.26 67.07 125.26 65.72 107.83 62.57 107.83 65.5 125.26"/><polygon class="cls-72" points="61.91 93.57 64.69 93.34 64.48 91.6 61.7 91.83 61.91 93.57"/><path class="cls-72" d="M64.39,92.51l.37.78,8.81-1.06-2.14-2.29s-3.75.16-5,.41S64.39,92.51,64.39,92.51Z"/><path class="cls-73" d="M68.2,90.21c-1.26.25-2,2.16-2,2.16l.37.78,8.81-1.06-2.14-2.3S69.45,90,68.2,90.21Z"/><path class="cls-72" d="M74.39,91.43,62,92.46a2.61,2.61,0,0,0-2.64,2.67l.67,5.55a2.85,2.85,0,0,0,3.22,2.19l12.44-1a2.61,2.61,0,0,0,2.64-2.67l-.67-5.55A2.86,2.86,0,0,0,74.39,91.43Z"/><path class="cls-74" d="M77.13,91.2l-12.44,1a2.61,2.61,0,0,0-2.64,2.67l.67,5.56a2.84,2.84,0,0,0,3.22,2.18l12.44-1A2.61,2.61,0,0,0,81,99l-.67-5.56A2.85,2.85,0,0,0,77.13,91.2Z"/><polygon class="cls-75" points="75.85 94.6 80.45 94.22 80.36 93.43 75.76 93.81 75.85 94.6"/><path class="cls-73" d="M75.76,91.32l-11.07.91a2.61,2.61,0,0,0-2.64,2.67l.67,5.56a2.84,2.84,0,0,0,3.22,2.18L77,101.73a2.85,2.85,0,0,1-3.22-2.19L73.12,94A2.61,2.61,0,0,1,75.76,91.32Z"/><path class="cls-73" d="M78.46,91.35a3.43,3.43,0,0,0-1.33-.15l-8.47.7A2.61,2.61,0,0,0,66,94.57l.67,5.56a2.85,2.85,0,0,0,3.22,2.19l8.47-.7a3.41,3.41,0,0,0,1.27-.36,2.57,2.57,0,0,1-1.89-2l-.67-5.56A2.32,2.32,0,0,1,78.46,91.35Z"/><path class="cls-76" d="M78.7,99.42s.19.16.24.16,1.41-1,1.41-1l.94.25.27-1.85-1.13-.75S79,98,78.89,98s.44.21.44.21l1.13-1.14.72.65-.91-.06Z"/><path class="cls-77" d="M71.31,92.05c-3.09.26-5.34,2.53-5,5.09s3.06,4.42,6.14,4.16,5.33-2.53,5-5.08S74.39,91.8,71.31,92.05Z"/><path class="cls-72" d="M75,92.07l-2.86.19-.36,0-.17,0h-.16c-2.74.37-4.69,2.44-4.41,4.75s2.88,4.17,5.79,3.93l3.22-.27.28-1.25a3.89,3.89,0,0,0,1.23-3.27,3.63,3.63,0,0,0-.19-.82l.31-1.1Z"/><path class="cls-77" d="M75,92c-2.91.23-5,2.38-4.74,4.79s2.88,4.16,5.79,3.92,5-2.38,4.73-4.79S77.91,91.78,75,92Z"/><path class="cls-73" d="M75.1,92.8c-2.38.19-4.12,2-3.88,3.93S73.58,100.15,76,100s4.12-2,3.89-3.93S77.49,92.6,75.1,92.8Z"/><path class="cls-77" d="M75.85,91.46c-3.16.26-5.48,2.6-5.16,5.22s3.14,4.54,6.3,4.28,5.48-2.6,5.17-5.23S79,91.19,75.85,91.46Z"/><path class="cls-74" d="M79.66,91.47l-2.94.2-.37,0-.17,0H76c-2.81.38-4.81,2.51-4.53,4.88s3,4.28,5.94,4l3.31-.28L81,99.08a4,4,0,0,0,1.27-3.36,4.68,4.68,0,0,0-.2-.84l.32-1.12Z"/><path class="cls-77" d="M79.65,91.42c-3,.24-5.16,2.45-4.86,4.92s3,4.28,5.94,4,5.16-2.45,4.86-4.92S82.64,91.17,79.65,91.42Z"/><path class="cls-73" d="M79.75,92.22c-2.45.2-4.23,2-4,4s2.43,3.51,4.87,3.31,4.24-2,4-4S82.2,92,79.75,92.22Z"/><path d="M79.8,92.62c-2.18.18-3.77,1.79-3.55,3.6s2.16,3.13,4.34,3,3.77-1.79,3.55-3.6S82,92.44,79.8,92.62Z"/><path class="cls-78" d="M79.64,93.3c-1.75.15-3,1.43-2.84,2.88a3.06,3.06,0,0,0,3.46,2.35c1.75-.15,3-1.43,2.84-2.88A3.06,3.06,0,0,0,79.64,93.3Z"/><path class="cls-79" d="M79.48,94.75a1.4,1.4,0,0,1,1.57,1.07v0l1.29-.1v0a2.33,2.33,0,0,0-2.63-1.79,2.13,2.13,0,0,0-2.15,2.18v0l.63,0v0A1.27,1.27,0,0,1,79.48,94.75Z"/><path class="cls-73" d="M74,95.52c0-.13,0-.27.05-.41l-2.46.21c0,.13,0,.27-.07.41Z"/><path class="cls-73" d="M71.46,96.32a2.64,2.64,0,0,0,0,.29s0,.08,0,.11l2.49-.2a.41.41,0,0,1,0-.11c0-.1,0-.2,0-.29Z"/><path class="cls-73" d="M75.35,92.62a5.41,5.41,0,0,1,.5-.44l-1.78.14a5.85,5.85,0,0,0-.77.47Z"/><path class="cls-73" d="M72.29,93.78l2.31-.19a4,4,0,0,1,.29-.43l-2.23.18A5.07,5.07,0,0,0,72.29,93.78Z"/><path class="cls-73" d="M71.75,94.71l2.42-.2c0-.14.1-.28.16-.42l-2.38.2C71.88,94.43,71.81,94.57,71.75,94.71Z"/><path class="cls-73" d="M72.34,98.63l2.4-.2c-.08-.13-.16-.25-.23-.39l-2.44.21A3.28,3.28,0,0,0,72.34,98.63Z"/><path class="cls-73" d="M71.79,97.73l2.47-.2a2.67,2.67,0,0,1-.13-.4l-2.49.21Z"/><path class="cls-73" d="M73.28,99.53l2.25-.19L75.16,99l-2.33.19A5.54,5.54,0,0,0,73.28,99.53Z"/><path class="cls-73" d="M74.77,100.31l1.87-.15-.56-.36L74,100A6.26,6.26,0,0,0,74.77,100.31Z"/><ellipse class="cls-72" cx="65.19" cy="94.19" rx="0.73" ry="0.6"/><ellipse class="cls-72" cx="64.56" cy="96.08" rx="0.73" ry="0.6"/></g></g></g></svg>