<svg xmlns="http://www.w3.org/2000/svg" xmlns:xlink="http://www.w3.org/1999/xlink" viewBox="0 0 120 57.71"><defs><style>.cls-1{isolation:isolate;}.cls-2{fill:#d47121;}.cls-3{fill:url(#_ÂÁ_Ï_ÌÌ_È_ËÂÌÚ_3);}.cls-4{fill:url(#_ÂÁ_Ï_ÌÌ_È_ËÂÌÚ_3-2);}.cls-5{fill:url(#_ÂÁ_Ï_ÌÌ_È_ËÂÌÚ_3-3);}.cls-6{fill:#fef8ce;}.cls-7{fill:#bc9045;opacity:0.35;mix-blend-mode:multiply;}.cls-8{fill:url(#_ÂÁ_Ï_ÌÌ_È_ËÂÌÚ_3-4);}.cls-9{fill:url(#_ÂÁ_Ï_ÌÌ_È_ËÂÌÚ_3-5);}.cls-10{fill:url(#_ÂÁ_Ï_ÌÌ_È_ËÂÌÚ_3-6);}.cls-11{fill:url(#_ÂÁ_Ï_ÌÌ_È_ËÂÌÚ_3-7);}.cls-12{fill:url(#_ÂÁ_Ï_ÌÌ_È_ËÂÌÚ_3-8);}.cls-13{fill:url(#_ÂÁ_Ï_ÌÌ_È_ËÂÌÚ_3-9);}.cls-14{fill:url(#_ÂÁ_Ï_ÌÌ_È_ËÂÌÚ_3-10);}.cls-15{fill:url(#_ÂÁ_Ï_ÌÌ_È_ËÂÌÚ_3-11);}.cls-16{fill:url(#_ÂÁ_Ï_ÌÌ_È_ËÂÌÚ_3-12);}.cls-17{fill:url(#_ÂÁ_Ï_ÌÌ_È_ËÂÌÚ_3-13);}.cls-18{fill:url(#_ÂÁ_Ï_ÌÌ_È_ËÂÌÚ_3-14);}.cls-19{fill:url(#_ÂÁ_Ï_ÌÌ_È_ËÂÌÚ_3-15);}</style><linearGradient id="_ÂÁ_Ï_ÌÌ_È_ËÂÌÚ_3" x1="523.57" y1="34.35" x2="532.36" y2="34.35" gradientTransform="matrix(1, 0, 0.07, 1, -523.51, 0)" gradientUnits="userSpaceOnUse"><stop offset="0" stop-color="#ffd86c"/><stop offset="0.15" stop-color="#fcbc5b"/><stop offset="0.29" stop-color="#faab51"/><stop offset="0.39" stop-color="#f9a54d"/><stop offset="0.51" stop-color="#faad54"/><stop offset="0.7" stop-color="#fbc168"/><stop offset="0.93" stop-color="#fde388"/><stop offset="1" stop-color="#feef93"/></linearGradient><linearGradient id="_ÂÁ_Ï_ÌÌ_È_ËÂÌÚ_3-2" x1="520.95" y1="31.67" x2="535.52" y2="31.67" xlink:href="#_ÂÁ_Ï_ÌÌ_È_ËÂÌÚ_3"/><linearGradient id="_ÂÁ_Ï_ÌÌ_È_ËÂÌÚ_3-3" x1="523.26" y1="54.1" x2="533.54" y2="54.1" xlink:href="#_ÂÁ_Ï_ÌÌ_È_ËÂÌÚ_3"/><linearGradient id="_ÂÁ_Ï_ÌÌ_È_ËÂÌÚ_3-4" x1="153.71" y1="34.35" x2="162.5" y2="34.35" gradientTransform="matrix(1, 0, 0.02, 1, -129.31, 0)" xlink:href="#_ÂÁ_Ï_ÌÌ_È_ËÂÌÚ_3"/><linearGradient id="_ÂÁ_Ï_ÌÌ_È_ËÂÌÚ_3-5" x1="150.92" y1="31.67" x2="165.48" y2="31.67" gradientTransform="matrix(1, 0, 0.02, 1, -129.31, 0)" xlink:href="#_ÂÁ_Ï_ÌÌ_È_ËÂÌÚ_3"/><linearGradient id="_ÂÁ_Ï_ÌÌ_È_ËÂÌÚ_3-6" x1="153.08" y1="54.1" x2="163.36" y2="54.1" gradientTransform="matrix(1, 0, 0.02, 1, -129.31, 0)" xlink:href="#_ÂÁ_Ï_ÌÌ_È_ËÂÌÚ_3"/><linearGradient id="_ÂÁ_Ï_ÌÌ_È_ËÂÌÚ_3-7" x1="-2200.16" y1="34.35" x2="-2191.38" y2="34.35" gradientTransform="matrix(-1, 0, -0.07, 1, -2080.23, 0)" xlink:href="#_ÂÁ_Ï_ÌÌ_È_ËÂÌÚ_3"/><linearGradient id="_ÂÁ_Ï_ÌÌ_È_ËÂÌÚ_3-8" x1="-2202.78" y1="31.67" x2="-2188.22" y2="31.67" gradientTransform="matrix(-1, 0, -0.07, 1, -2080.23, 0)" xlink:href="#_ÂÁ_Ï_ÌÌ_È_ËÂÌÚ_3"/><linearGradient id="_ÂÁ_Ï_ÌÌ_È_ËÂÌÚ_3-9" x1="-2200.48" y1="54.1" x2="-2190.2" y2="54.1" gradientTransform="matrix(-1, 0, -0.07, 1, -2080.23, 0)" xlink:href="#_ÂÁ_Ï_ÌÌ_È_ËÂÌÚ_3"/><linearGradient id="_ÂÁ_Ï_ÌÌ_È_ËÂÌÚ_3-10" x1="-2571.51" y1="34.35" x2="-2562.73" y2="34.35" gradientTransform="matrix(-1, 0, -0.02, 1, -2474.42, 0)" xlink:href="#_ÂÁ_Ï_ÌÌ_È_ËÂÌÚ_3"/><linearGradient id="_ÂÁ_Ï_ÌÌ_È_ËÂÌÚ_3-11" x1="-2574.31" y1="31.67" x2="-2559.75" y2="31.67" gradientTransform="matrix(-1, 0, -0.02, 1, -2474.42, 0)" xlink:href="#_ÂÁ_Ï_ÌÌ_È_ËÂÌÚ_3"/><linearGradient id="_ÂÁ_Ï_ÌÌ_È_ËÂÌÚ_3-12" x1="-2572.15" y1="54.1" x2="-2561.87" y2="54.1" gradientTransform="matrix(-1, 0, -0.02, 1, -2474.42, 0)" xlink:href="#_ÂÁ_Ï_ÌÌ_È_ËÂÌÚ_3"/><linearGradient id="_ÂÁ_Ï_ÌÌ_È_ËÂÌÚ_3-13" x1="-2714.8" y1="34.35" x2="-2706.02" y2="34.35" gradientTransform="matrix(-1, 0, 0.01, 1, -2650.54, 0)" xlink:href="#_ÂÁ_Ï_ÌÌ_È_ËÂÌÚ_3"/><linearGradient id="_ÂÁ_Ï_ÌÌ_È_ËÂÌÚ_3-14" x1="-2717.68" y1="31.67" x2="-2703.12" y2="31.67" gradientTransform="matrix(-1, 0, 0.01, 1, -2650.54, 0)" xlink:href="#_ÂÁ_Ï_ÌÌ_È_ËÂÌÚ_3"/><linearGradient id="_ÂÁ_Ï_ÌÌ_È_ËÂÌÚ_3-15" x1="-2715.58" y1="54.1" x2="-2705.3" y2="54.1" gradientTransform="matrix(-1, 0, 0.01, 1, -2650.54, 0)" xlink:href="#_ÂÁ_Ï_ÌÌ_È_ËÂÌÚ_3"/></defs><title>obstaculo_lamparaRecurso 41</title><g class="cls-1"><g id="Capa_2" data-name="Capa 2"><g id="Capa_1-2" data-name="Capa 1"><g id="Silencio"><path class="cls-2" d="M63.9,5.1H54.75l-1.67-4a18,18,0,0,1,12.49,0Z"/><polygon class="cls-2" points="54.75 5.11 49.54 9.26 69.7 9.26 63.91 5.11 54.75 5.11"/><path class="cls-2" d="M49.54,9.26c3,3.66,3.77,9,3.54,15h13c-.45-5.68.64-10.72,3.64-15Z"/><polygon class="cls-2" points="69.05 29.64 50.87 30.11 48.36 23.79 71.37 23.79 69.05 29.64"/><polygon class="cls-2" points="51.32 26.99 36.21 40.31 10.35 35.56 10.12 36.91 36.45 42.13 36.94 42.23 37.32 41.93 53.8 29.25 51.32 26.99"/><polygon class="cls-3" points="11.5 57.71 6.94 57.71 0.88 10.99 9.67 10.99 11.5 57.71"/><polygon class="cls-4" points="14.56 34.35 0 34.35 1.12 28.98 12.53 28.98 14.56 34.35"/><polygon class="cls-5" points="13.95 52.72 3.64 52.38 5.05 55.81 13.15 55.47 13.95 52.72"/><polygon class="cls-6" points="0.59 10.6 3 28.98 10.59 28.98 9.89 10.6 0.59 10.6"/><path class="cls-7" d="M4.61,29l.65,5.37H3.91l1.44,1L7.49,52.51H6l1.11,3.21.93,0,.17,2H9.45l-.18-2.08.89,0-.25-3-.75,0L8,35.17l2.55-.82-2-.05L8.4,29Z"/><polygon class="cls-2" points="56.64 26.99 47.4 40.31 32.37 35.56 32.19 36.91 47.49 42.13 47.77 42.23 48.01 41.93 58.04 29.25 56.64 26.99"/><polygon class="cls-8" points="32.25 57.71 27.69 57.71 24.61 10.99 33.39 10.99 32.25 57.71"/><polygon class="cls-9" points="36.8 34.35 22.24 34.35 23.7 28.98 35.11 28.98 36.8 34.35"/><polygon class="cls-10" points="35.02 52.72 24.73 52.38 25.92 55.81 34.05 55.47 35.02 52.72"/><polygon class="cls-6" points="24.34 10.6 25.58 28.98 33.16 28.98 33.64 10.6 24.34 10.6"/><path class="cls-7" d="M27.19,29l.31,5.37H26.15l1.37,1,1.05,17.17H27.09L28,55.72l.93,0,.05,2H30.2l0-2.08.89,0s-.06-3-.07-3l-.74,0,0-17.39,2.6-.82-2-.05L31,29Z"/><polygon class="cls-2" points="68.68 26.99 83.79 40.31 109.65 35.56 109.88 36.91 83.55 42.13 83.06 42.23 82.68 41.93 66.2 29.25 68.68 26.99"/><polygon class="cls-11" points="108.5 57.71 113.06 57.71 119.12 10.99 110.33 10.99 108.5 57.71"/><polygon class="cls-12" points="105.44 34.35 120 34.35 118.88 28.98 107.47 28.98 105.44 34.35"/><polygon class="cls-13" points="106.05 52.72 116.36 52.38 114.95 55.81 106.84 55.47 106.05 52.72"/><polygon class="cls-6" points="119.41 10.6 117 28.98 109.41 28.98 110.11 10.6 119.41 10.6"/><path class="cls-7" d="M115.39,29l-.65,5.37h1.35l-1.44,1-2.14,17.17H114l-1.11,3.21-.93,0-.17,2h-1.23l.18-2.08-.89,0,.25-3,.75,0L112,35.17l-2.55-.82,2-.05.2-5.32Z"/><polygon class="cls-2" points="64.85 26.99 74.09 40.31 89.13 35.56 89.3 36.91 74 42.13 73.72 42.23 73.49 41.93 63.46 29.25 64.85 26.99"/><polygon class="cls-14" points="89.24 57.71 93.8 57.71 96.89 10.99 88.1 10.99 89.24 57.71"/><polygon class="cls-15" points="84.69 34.35 99.25 34.35 97.79 28.98 86.38 28.98 84.69 34.35"/><polygon class="cls-16" points="86.48 52.72 96.76 52.38 95.57 55.81 87.44 55.47 86.48 52.72"/><polygon class="cls-6" points="97.16 10.6 95.91 28.98 88.33 28.98 87.85 10.6 97.16 10.6"/><path class="cls-7" d="M94.3,29,94,34.35h1.35l-1.37,1-1,17.17H94.4l-.9,3.21-.94,0,0,2H91.29l0-2.08-.89,0s.06-3,.07-3l.74,0,0-17.39-2.6-.82,2-.05L90.51,29Z"/><polygon class="cls-17" points="58.02 57.71 62.58 57.71 64.33 10.99 55.55 10.99 58.02 57.71"/><polygon class="cls-18" points="52.81 34.35 67.37 34.35 65.75 28.98 54.34 28.98 52.81 34.35"/><polygon class="cls-19" points="55.11 52.72 65.39 52.38 64.29 55.81 56.16 55.47 55.11 52.72"/><polygon class="cls-6" points="64.59 10.6 63.87 28.98 56.29 28.98 55.29 10.6 64.59 10.6"/><path class="cls-7" d="M62.26,29l-.16,5.37h1.36l-1.35,1-.56,17.17H63l-.81,3.21-.94,0v2H60.07l0-2.08-.89,0s0-3,0-3l.74,0-.47-17.39-2.63-.82,2-.05L58.47,29Z"/></g></g></g></g></svg>