<svg xmlns="http://www.w3.org/2000/svg" viewBox="0 0 53.84 86.38"><defs><style>.cls-1{fill:#dda292;}.cls-2{fill:#eab5a4;}.cls-3{fill:#3a2a19;}.cls-4{fill:#d3ad35;}.cls-5{fill:#845e45;}.cls-6{fill:#3a3d3f;}.cls-7{fill:#205382;}.cls-8{fill:#154c75;}.cls-9{fill:#dae6ea;}.cls-10{fill:#d8a18b;}.cls-11{fill:#d39c88;}.cls-12{fill:#7bb299;}.cls-13{fill:#6e897c;}.cls-14{fill:#9e5c21;}.cls-15{fill:#685a21;}.cls-16{fill:#eac7b0;}.cls-17{fill:#bf886d;}.cls-18{fill:#eab7a0;}.cls-19{fill:#d8cfcb;}.cls-20{fill:#b5aaa5;}.cls-21{fill:#f7ece8;}</style></defs><title>picassoRecurso 18</title><g id="Capa_2" data-name="Capa 2"><g id="Capa_1-2" data-name="Capa 1"><g id="Silencio"><path class="cls-1" d="M43.4,51.19c.71-.58,1.6.61,1.6.61l.29-.29-.07-.69s0-1.59-1.08-1.89a2.53,2.53,0,0,0-2,.44l.33,1.84S42.69,51.77,43.4,51.19Z"/><path class="cls-2" d="M44.38,50.48a1.49,1.49,0,0,1,.7,1.31l.25.11a1.83,1.83,0,0,0-.54-2.22A2.64,2.64,0,0,0,42,49.46v2.59c1.41,1.67,3.09-.07,3.09-.07L45,51.73s-.64.63-1.15.22S43.62,50.06,44.38,50.48Z"/><polygon class="cls-2" points="42.44 52.16 42.93 49.17 41.98 49.45 41.08 49.91 40.26 52.03 41.65 52.99 42.44 52.16"/><path class="cls-3" d="M52,55.21a40,40,0,0,0-9.9-4.77C43.74,52.15,52,55.21,52,55.21Z"/><path class="cls-4" d="M48.71,53.25l-.23.57c1.92.8,3.5,1.39,3.5,1.39A34.87,34.87,0,0,0,48.71,53.25Z"/><path class="cls-5" d="M53.84,55.17s-.39.4-1.06-.06a.82.82,0,0,0-1.07-.06h-.1s1.07,1,1.49.91S53.84,55.17,53.84,55.17Z"/><path class="cls-6" d="M24.51,84.84,22.22,85a11.78,11.78,0,0,1-.6,1.38h8.31S26,85.14,24.51,84.84Z"/><path class="cls-6" d="M12.35,85a11.78,11.78,0,0,1-.6,1.38h8.31s-3.95-1.24-5.42-1.54Z"/><path class="cls-7" d="M25.71,85.19s2.56-15.73,1.21-21.45L25.56,58l-6.47,5.43S23.2,80.26,22,85.19Z"/><path class="cls-7" d="M16.42,85.19S22,69.46,20.64,63.74L19.28,58l-6.47,5.43s2,17.5-.9,21.73Z"/><path class="cls-8" d="M15.05,85.19c3.38-5.21.84-22.07.84-22.07l4-2.5L19.28,58l-6.47,5.43s2,17.5-.9,21.73Z"/><path class="cls-9" d="M11.79,49.25l4.29,3.17L8.86,43.87S-1.42,51.84.17,60.1s15.12,7.4,15.12,7.4l.11-1.63s-9-1.06-10.83-6.05S11.79,49.25,11.79,49.25Z"/><path class="cls-7" d="M4.81,56.34l-4.6-.05A10.89,10.89,0,0,0,0,57.67H1.16l3.23,0A5.84,5.84,0,0,1,4.81,56.34Z"/><path class="cls-7" d="M3.36,49.63c-.28.38-.55.78-.82,1.19L7.26,52.9c.37-.37.74-.73,1.11-1.06Z"/><path class="cls-7" d="M4.56,59.78a4,4,0,0,1-.23-1.36L0,59A7.64,7.64,0,0,0,.17,60.1c0,.1,0,.2.06.3Z"/><path class="cls-7" d="M5.43,47.11c-.32.35-.64.72-1,1.11L9,51.33c.42-.35.83-.67,1.19-.94Z"/><path class="cls-7" d="M1.41,52.82c-.21.42-.4.86-.57,1.3l4.58,1.07A10.25,10.25,0,0,1,6.31,54Z"/><path class="cls-7" d="M6.87,62.76l-3,2.41a12.07,12.07,0,0,0,1.43.74L8.18,63.6A10.43,10.43,0,0,1,6.87,62.76Z"/><path class="cls-7" d="M11.27,64.92l-.79,2.36c.57.08,1.12.13,1.63.17l.69-2.09C12.33,65.24,11.81,65.09,11.27,64.92Z"/><path class="cls-7" d="M5,60.8,1.16,62.63a7.71,7.71,0,0,0,.91,1.14L6,62A6.67,6.67,0,0,1,5,60.8Z"/><path class="cls-7" d="M15.12,51.71l.14-.26-2-2.41-5.83-3.9c-.32.3-.68.64-1.07,1l5,3.37.44-.29Z"/><path class="cls-7" d="M8.82,63.94,7.27,66.63c.52.15,1.05.28,1.58.38l1.42-2.44C9.78,64.38,9.3,64.18,8.82,63.94Z"/><path class="cls-9" d="M27.23,46c-.09-.78-.14-1.57-.18-2.3L22,43s.37,8.71,7,12.4,12.88-2.68,12.88-2.68l-1.09-.91S35.42,55.19,31,53.33C27.86,52,27.29,48.15,27.23,46Z"/><path class="cls-7" d="M27.77,53.68l1.66-1.39a6,6,0,0,1-.75-.91c-.79.67-1.61,1.36-2.37,2a11.25,11.25,0,0,0,.87.81C27.37,54,27.57,53.86,27.77,53.68Z"/><path class="cls-7" d="M27.52,48.49a10.5,10.5,0,0,1-.18-1.05l-4.1,1a10.47,10.47,0,0,0,.42,1Z"/><path class="cls-7" d="M29.2,55.53,31,53.32a4.87,4.87,0,0,1-1.07-.63L28.14,54.9c.26.17.54.34.82.5Z"/><path class="cls-7" d="M27.22,45.89l-4.7.32c.09.33.18.66.29,1l4.47-.31C27.25,46.54,27.23,46.19,27.22,45.89Z"/><path class="cls-7" d="M28.18,50.5a8.11,8.11,0,0,1-.4-1L24.49,51c.19.31.39.62.62.93Z"/><path class="cls-7" d="M35.63,56.26l-.14-2.5a8.68,8.68,0,0,1-1.26.12l.14,2.61A10.37,10.37,0,0,0,35.63,56.26Z"/><path class="cls-7" d="M40.18,54.09l-1.11-1.42a11.73,11.73,0,0,1-1.09.44l1.26,1.6C39.58,54.5,39.9,54.29,40.18,54.09Z"/><path class="cls-7" d="M33.19,53.86a7.92,7.92,0,0,1-1.26-.22l-.69,2.67a9.74,9.74,0,0,0,1.26.21Z"/><path class="cls-7" d="M37.15,55.77c.37-.15.73-.32,1.07-.49l-1-1.92c-.38.11-.77.22-1.18.3Z"/><path class="cls-9" d="M12.13,69.52H27.37l-.12-25.84L21,42.53l-5.59.67-6.58.67S13.58,61.74,12.58,67C12.36,68.23,12.21,69,12.13,69.52Z"/><path class="cls-7" d="M27.33,61.8H12.5c.05.51.1,1,.14,1.48h14.7Z"/><path class="cls-7" d="M27.36,66.93H12.6a.29.29,0,0,1,0,.09c-.1.54-.18,1-.25,1.38h15Z"/><path class="cls-7" d="M27.31,56.87H11.75c.09.5.18,1,.26,1.48H27.32Z"/><path class="cls-7" d="M27.35,65.9V64.43H12.71q0,.79,0,1.47Z"/><path class="cls-7" d="M27.32,59.31H12.16q.12.75.21,1.47h15Z"/><path class="cls-7" d="M27.25,44.52H9c.1.36.22.86.37,1.47H27.26Z"/><path class="cls-7" d="M27.3,54.38h-16c.1.48.19,1,.28,1.47H27.3Z"/><path class="cls-7" d="M27.26,47H9.64c.11.46.23,1,.35,1.47H27.27Z"/><path class="cls-7" d="M27.27,49.38H10.2c.11.47.22,1,.33,1.47H27.28Z"/><path class="cls-7" d="M27.28,51.88H10.76c.1.48.21,1,.31,1.47H27.29Z"/><polygon class="cls-7" points="21.03 42.53 18.9 42.78 22.11 44.23 24.48 43.16 21.03 42.53"/><path class="cls-10" d="M12,43.79c-1.58.84,8,2.71,8,2.71l4.06-3s-3.44-1.25-3.66-4.25H14.84s.58.25-.49,2S13.58,42.94,12,43.79Z"/><path class="cls-11" d="M19.72,45.57l.43-.44a7.46,7.46,0,0,1-2.36-4l-.67.1s.25.88.68,2.2C18.39,45.19,19,45.07,19.72,45.57Z"/><path class="cls-7" d="M24.7,43.21,23.35,43l-3.52,3c-1.77-.45-5-1.65-7.18-2.47l-2.24.23A97.4,97.4,0,0,0,19.86,47l.32.07Z"/><path class="cls-2" d="M14.32,67.45c3.82-2.52.51-2.79.51-2.79L7.58,65.92S10.5,70,14.32,67.45Z"/><path class="cls-4" d="M15.84,71.9c6.2.74,15.15-2.49,15.62-5.43s-5.27-8.31-19.13-5c0,0-10,3.13-6.31,4.82s6.84.55,6.61,1.89S9.64,71.15,15.84,71.9Z"/><ellipse class="cls-12" cx="15.45" cy="69.52" rx="2.26" ry="0.95"/><ellipse class="cls-13" cx="22" cy="68.63" rx="2.61" ry="0.85"/><ellipse class="cls-2" cx="26.68" cy="66.16" rx="2.81" ry="1.23"/><ellipse class="cls-14" cx="24.15" cy="63.4" rx="2.53" ry="1.03"/><ellipse class="cls-15" cx="17.48" cy="62.31" rx="2.46" ry="0.86"/><path class="cls-2" d="M11.54,65.45c.21-.27,1,0,1,0l1.11,0A3,3,0,0,0,9,65.1C9.29,65.65,11.34,65.73,11.54,65.45Z"/><path class="cls-16" d="M31.41,11.4C27.82-2.82,14.51-.35,9.86,1.24S6.8,11.84,6.8,11.84,8.29,32.15,9.69,34.27,20.38,44.69,22,45s11-.09,10.86-.53.7-7.77.7-7.77l.71-1.41-.88-.62,1-1.32c-.87-.8-1.49-7.07-1.49-7.07l5.61-.62C38.51,18.64,31.41,11.4,31.41,11.4Z"/><path class="cls-10" d="M29.49,34.5,25.78,34l4.32,2.86a26.65,26.65,0,0,1,3.57-.23l.64-1.27-.88-.62.49-.68Z"/><path class="cls-17" d="M33.12,34.71l.35-.05.92-1.27-.14-.18L33.19,33c-1.15,1-7.41,1-7.41,1C27.43,34.74,33.12,34.71,33.12,34.71Z"/><path class="cls-10" d="M28.41,23.44S21.34,30.85,22,32.56s2.16,4.36,2.16,4.36a9.77,9.77,0,0,1-.76-4C23.5,30.8,28.41,23.44,28.41,23.44Z"/><path class="cls-18" d="M33,26.76c-.06.84-.37,4.94-.1,5.09a2.38,2.38,0,0,0,1,.18A43.36,43.36,0,0,1,33,26.76Z"/><path class="cls-10" d="M33.48,37.82c-3.28-.83-5.72,1.87-5.72,1.87a12.52,12.52,0,0,1,5.58-.61C33.39,38.61,33.44,38.18,33.48,37.82Z"/><path class="cls-10" d="M18.27,38.33c.35,1.06,3.25,4.06,3.25,4.06s-.79-1.59-1.67-3,1.75-10.6,1.75-10.6Z"/><path class="cls-18" d="M9.86,1.24C5.22,2.83,6.8,11.84,6.8,11.84S8.29,32.15,9.69,34.27c1,1.52,6.06,6.22,9.46,8.89C16.54,39.51,16,29.85,16,29.85s-3.07-1.06-3.95-2.65c-.74-1.34-.79-20.51-.79-26.38C10.74,1,10.27,1.1,9.86,1.24Z"/><path class="cls-19" d="M8.2,23.32,9.86,1.24s-8.23,4.24-8,11.83,2.54,10,2.54,10Z"/><path class="cls-20" d="M8.59,18.16l-5.6,2c.15.44.29.82.44,1.16l5.06-1.81Z"/><path class="cls-20" d="M8.81,15.16,2.5,18.34c.1.45.2.86.31,1.23l5.9-3Z"/><path class="cls-20" d="M4,6.38a12.82,12.82,0,0,0-1.2,2.08C5.16,7.15,7.63,5.8,9.59,4.82L9.7,3.39C8.05,4.19,6,5.28,4,6.38Z"/><path class="cls-20" d="M9.29,8.8,1.9,13.28c0,.49.05,1,.08,1.39l7.2-4.36Z"/><path class="cls-20" d="M2.3,9.87A9.42,9.42,0,0,0,2,11.5L9.42,7.16l.11-1.49Z"/><path class="cls-20" d="M9,12.38,2.13,16.09c.05.46.12.9.19,1.3l6.59-3.55Z"/><path class="cls-18" d="M9.57,28.82l-1.49-7.5s-2.54-3.27-4.64-.89S6.77,32.36,9.57,28.82Z"/><path class="cls-10" d="M6.89,21.2a1.68,1.68,0,0,0-2.56.1C3.2,22.62,5.1,26.94,7,27.9c-1.69-1.36-3.19-5.08-2.16-6.29A1.55,1.55,0,0,1,6.89,21.2Z"/><path class="cls-18" d="M23.32,9.72a24,24,0,0,0,5.84-.37c.57-.11,1.06-.23,1.5-.36-.11-.28-.22-.55-.34-.82A12.52,12.52,0,0,1,29,8.48a23.15,23.15,0,0,1-5.61.36c-3.54-.28-7.41,2.61-7.57,2.73l.53.71S20.11,9.47,23.32,9.72Z"/><path class="cls-18" d="M23,7.64a24,24,0,0,0,5.84-.37c.34-.06.65-.13.95-.2-.15-.28-.3-.55-.46-.8l-.65.13a22.66,22.66,0,0,1-5.61.36c-3.54-.27-7.41,2.61-7.57,2.74l.52.7S19.79,7.39,23,7.64Z"/><path class="cls-18" d="M22,6.05a24.06,24.06,0,0,0,5.84-.37c.33-.06.64-.13.93-.2-.19-.27-.39-.53-.59-.77l-.5.1a22.77,22.77,0,0,1-5.62.36c-3.54-.27-7.4,2.61-7.56,2.74l.52.7S18.83,5.8,22,6.05Z"/><path d="M20.07,20.17a2.66,2.66,0,0,0,1.38-3.47,2.64,2.64,0,0,0-3.17-1.95,2.67,2.67,0,0,0-1.37,3.47A2.63,2.63,0,0,0,20.07,20.17Z"/><path d="M31.66,16.55c.91-.3,1.26-1.71.79-3.15s-1.6-2.34-2.51-2-1.26,1.72-.79,3.15S30.75,16.86,31.66,16.55Z"/><path class="cls-21" d="M20.32,15.87a.53.53,0,0,0-.53-.53.53.53,0,0,0,0,1.06A.53.53,0,0,0,20.32,15.87Z"/><path class="cls-21" d="M31.44,12.31a.52.52,0,0,0-.52-.53.53.53,0,0,0,0,1.06A.52.52,0,0,0,31.44,12.31Z"/><path class="cls-10" d="M18.51,14.87a3.25,3.25,0,0,1,3.71.6l1-.9a4.55,4.55,0,0,0-5.23-.9,8.47,8.47,0,0,0-4,4.24l1.23.48A7.13,7.13,0,0,1,18.51,14.87Z"/><path class="cls-10" d="M30.11,11.89a2.71,2.71,0,0,1,2.2.5c-.54-.63-.9-1-.9-1-.07-.3-.15-.59-.23-.87a3.07,3.07,0,0,0-1.45.1,4.56,4.56,0,0,0-2.58,2.82l1.25.4S28.94,12.26,30.11,11.89Z"/><path class="cls-18" d="M23.38,19.49l-3.5,2.36S22.39,22.55,23.38,19.49Z"/><path class="cls-18" d="M29.87,17a2.11,2.11,0,0,0,2.51.41Z"/></g></g></g></svg>