<svg xmlns="http://www.w3.org/2000/svg" viewBox="0 0 66.5 54"><defs><style>.cls-1{fill:#2774c1;}.cls-2{fill:#415668;}.cls-13,.cls-3{fill:none;stroke-linecap:round;stroke-linejoin:round;stroke-width:0;}.cls-3{stroke:#415668;}.cls-4{fill:#6ab3ef;}.cls-5{fill:#b3e0ff;}.cls-6{fill:#fffab6;}.cls-7{fill:#ffea80;}.cls-8{fill:#f7da08;}.cls-9{fill:#161614;}.cls-10{fill:#547791;}.cls-11{fill:#91b4ce;}.cls-12{fill:#314e68;}.cls-13{stroke:#161614;}</style></defs><title>Recurso 68pintura_trozo_1</title><g id="Capa_2" data-name="Capa 2"><g id="Capa_1-2" data-name="Capa 1"><g id="Silencio"><path class="cls-1" d="M65.9,20.12l-.16.17.76-.13V18.48l-1.64.76Z"/><path class="cls-1" d="M45.33,2.24l.94-.43,1.14,2.48-1.14.53a10.43,10.43,0,0,1,.22,1.33L46.83,6l1.06,2.38a12.49,12.49,0,0,1,1-1.52l.84.62-1-2.34,4.06-2L54,6.08l-1.33.64L52.32,7l-.08-.09-2,.95.77.57a9.91,9.91,0,0,0-.86,1.38L48.07,8.76l.07.16-1.51.72c0,.58,0,1.24,0,2,0-.24.11-.48.17-.72l2.63.74a11.21,11.21,0,0,0-.25,1.15c.18-.28.35-.56.54-.83l.5.38a8.82,8.82,0,0,1,1.36-3.09l.37.25a13.59,13.59,0,0,1,1.52-1.2L55.22,11c-.15.1-.28.21-.42.31l.94.68a8.33,8.33,0,0,1,.9-.55l-1.12-1.37a5.71,5.71,0,0,1,.72-.49l.93,1.59a8.71,8.71,0,0,1,.89-.36l-.3-1.08-.6.22-.53-1.37a6.31,6.31,0,0,0-1.32.74L53.69,7.12A8.82,8.82,0,0,1,58,5.43l.1.84.21-.06.68,3.16c-.15,0-.3.08-.44.12l.11,1.12a9,9,0,0,1,1-.23l.23-1.49a5,5,0,0,1,.85.2l-.5,1.54.12,1,.1,0-.08.15.17,1.48.91-.38-.08-.15,1.94-1.26.23-1.13a10.22,10.22,0,0,1,1.54.49l1.19-.68c-.38-.19-.77-.36-1.16-.51l.82-2.45c-.2-.2-.38-.4-.59-.58L66.5,5.29V0h-.88l.11.24c-1.27.66-2.63,1.35-4,2.05L60.62,0H56.55L54.14,1.14,53.6,0H51.67l.89,1.89L49,3.55,47.85,1.08,50.16,0H45.52l-.14.05C45.36.91,45.34,1.65,45.33,2.24Zm15.55,10a2.24,2.24,0,0,0-.34-.27L62,9.71a5.06,5.06,0,0,1,.69.53Zm2.26-9.88a12.45,12.45,0,0,1,1.9.84l-1.3,2.4A9.92,9.92,0,0,0,62.25,5ZM62,5.88c.47,0,.93.06,1.39.12l-.07.49A8.82,8.82,0,0,1,65,7.63l-1.82,2a5.29,5.29,0,0,0-.66-.51,9.24,9.24,0,0,0-1.39-.06l0-.65a6.77,6.77,0,0,0-.77-.22l.57-2.67A8.91,8.91,0,0,1,62,5.88ZM54.5,2.27l4-2,.67,1.45a10.23,10.23,0,0,1,1.56.11l-.38,2.7a8.82,8.82,0,0,0-1.63-.09V3.75c-1,.48-1.92,1-2.92,1.44L55.74,5c-.15,0-.29.09-.43.15l-1-2.53.31-.11Z"/><path class="cls-1" d="M63.53,18.38a2.44,2.44,0,0,0-.4-.32l.09-.14a4.66,4.66,0,0,1-.48.51l-.06-.05-.79,1.52a6.22,6.22,0,0,0,1.92-1.54l.56.48L66.5,17.4v-.17L65,16.66Z"/><path class="cls-1" d="M63.55,22.08l.83.48a2.76,2.76,0,0,1-.32.49l1.64,1.37.8-.3v-.06l-1.07-1.38-1.1-.51a3.52,3.52,0,0,0,.16-.49l.89.24a11.4,11.4,0,0,0,.89-.81l.23.21V21H65A8.85,8.85,0,0,1,63.55,22.08Z"/><path class="cls-1" d="M23.94.2,24,0H22l0,.11C22.63.16,23.29.19,23.94.2Z"/><path class="cls-1" d="M53.33,22.47,53,23l1.47-.37a7,7,0,0,0,.39,1.17l.16-.35a9.23,9.23,0,0,0,1.53.53l-.19.74,1.85-1.41a8.82,8.82,0,0,1-1.89-.39l-.79.32a5.17,5.17,0,0,1-.21-.7l-.49-.22.92-1.73-.64,0a7.09,7.09,0,0,1,.12-1l3,.66c0,.13,0,.26,0,.39a6.84,6.84,0,0,0,.79.05h.18l0,.43,1.63-.14.07-.16a.27.27,0,0,0,.12,0v.12h.07a.27.27,0,0,0,0,.12L61,21l0,2.72h.21l.14,2.47,1.16-.51-.58-1.89a10.64,10.64,0,0,0,1.32-.52l-.58-.77c-.17.07-.33.16-.51.22l-.95-2.55.25-.12.08-.82a6,6,0,0,1-.79.33L59.89,17l.41-.17.11.21-.36-1.37-.88-1.13a.18.18,0,0,0,.07-.08l.58.32-.07-.27a5.47,5.47,0,0,1,1-.19l.1,1,.8.45a2.34,2.34,0,0,1-.29.41l.68.54.15-1-.59-.26a2,2,0,0,0,.14-.41l.53.13.12-.82a5.5,5.5,0,0,1,1,.24l-.25.8,1.27.34a6,6,0,0,1-.27.78l.74-1.18c.11.07.2.16.31.24a6.38,6.38,0,0,0,.1-1A7.26,7.26,0,0,0,64.11,14H59.27a.16.16,0,0,0,0-.1l-.11.22a.19.19,0,0,0-.1,0l0-.24-.3.1.11.18a.27.27,0,0,0-.07.08l-.24-.16a6.86,6.86,0,0,0-.76.4l1-.08a.3.3,0,0,0,0,.1l-2.41,1.28c0-.11-.09-.22-.13-.33L54.7,16l.82.6c-.1.16-.19.33-.29.5L56.76,16a3,3,0,0,0,.28.34l-.71.71.8.6.5-.87.28.13.14-.33-.64-.82a6.63,6.63,0,0,1,.81-.58l.25.44.45-1,.11,0,0,2,.78,1.4-.14.1,1.58,2.51-.08.09L59.3,19.39l0,.6H59l-.55,0,.07-.63-1.17-.62-.3.8a5.68,5.68,0,0,1-.79-.37l.44-.77-1-.5c.1-.21.24-.41.36-.62l-1,1c-.1-.1-.19-.22-.28-.33a7.46,7.46,0,0,0-.56,2.23L53,20.05l-.48.45c-.16-.17-.3-.36-.45-.54l-.85-.08c0-.32.09-.63.14-.94a8.89,8.89,0,0,1-1-2.47l2-.48a11.32,11.32,0,0,1,.7-1.22l.94.68L56.11,15a2.44,2.44,0,0,1-.07-.39l.87-.07-1.38-1.93-1.43-.73-.35.31-.4-.44a6.07,6.07,0,0,0-.56,2l-.7-.06.19.14a11.84,11.84,0,0,0-1,1.64L48.52,14c.14-.28.3-.56.46-.83L46.74,13c0,.74.09,1.54.15,2.37l2.24-.18a9.82,9.82,0,0,0,.26,1.61l-1,.24,2.1.62a11.7,11.7,0,0,0-.27,1.31,8.32,8.32,0,0,0,.61,1l-2.25,1.55a12.86,12.86,0,0,1-1-1.8l.86-.4-1.24-.15c.07.94.16,1.89.24,2.84l2.68-.22a11.78,11.78,0,0,0,.21,1.45l.74-.76,0-.09,0,.06,1-1A9.58,9.58,0,0,0,53.33,22.47Zm.27-9.25,2.67.55c0,.15,0,.29-.05.44l-2.73-.13A6.13,6.13,0,0,1,53.6,13.22Z"/><path class="cls-1" d="M54.15,29.88c1.12-.63,2.33-1.28,3.62-1.94l.28-.54.43.2L59.8,27c-.26,0-.52,0-.79,0l-.74,0,0-.63-.4-.2.46-.85.06-1c.17,0,.34,0,.51,0l.51-.92.31.16,1-2.27L59.23,22l0,1.3H59L57,25.5a7.25,7.25,0,0,1-.62-.75l-.26,1a1.67,1.67,0,0,0,.12.16l-.22.21-.12.46-.27-.08-1.66,1.62a10.56,10.56,0,0,1-2.11-3.49l0,0c.39,1.21.93,2.81,1.6,4.65l.08-.08C53.69,29.46,53.91,29.67,54.15,29.88Z"/><path class="cls-1" d="M61.05,17.54l-.35.07.84,1.63.17-1.92h0l-.7-.77L61,16.6Z"/><path class="cls-1" d="M59.24,18.1l0,0v0Z"/><path class="cls-1" d="M47,17.33c0,.4.07.81.1,1.22.06-.44.15-.87.25-1.3Z"/><path class="cls-1" d="M58.72,17.43l-.11-.14a2.94,2.94,0,0,1-.65-.16l-.34.89,1,.72Z"/><path class="cls-1" d="M59.82,23.76l-.17.47.41,0,.26,2.5.11-.05L60.69,24A3.25,3.25,0,0,1,59.82,23.76Z"/><path class="cls-1" d="M50.4,23.69l-2.76.71c.31,3.44.64,6.67.88,8.91l.91-.6L50,29l-.54.38a14.26,14.26,0,0,1-1.18-2.13l2.16-1.06L50.82,24c-.15-.13-.3-.26-.44-.4C50.39,23.61,50.39,23.65,50.4,23.69Z"/><path class="cls-1" d="M.63,25.42l.51-.07-.09-.12.67-.48.09.12-.5.47.5-.05L2,25l.12.08L2,25.27l.3,0v0l.11,0,.65,0v0l.13-.06,0,.09h.34L3.41,25l.11-.11.36.33h.93A1.4,1.4,0,0,0,4.9,25l.42.17a36.25,36.25,0,0,1,8.86,1.38c0-.24.07-.49.12-.72l1.36.34a6.85,6.85,0,0,0-.13.79l.53.17a5.69,5.69,0,0,1,.37-1.62l1.29.57a4.44,4.44,0,0,0-.31,1.53c.66.25,1.32.53,2,.82l.65-.18a1,1,0,0,0,.08.25l-.3.12,1.52.72.45-1.29a.2.2,0,0,0,.11,0l0,1.46-.26-.05.5.25.15,0,0,.11.59.32-.22-.55a1.51,1.51,0,0,0,.22-.11l.53,1,.36.2c.47.17.95.37,1.42.57l-.39-.41a4.13,4.13,0,0,0,.95-1.48l1.3.54A5.51,5.51,0,0,1,26,31.56l.89.4a3.11,3.11,0,0,0,.23-.28l1.13.86h0c1.11.48,2.15.92,3.13,1.31,0-1.15,0-2.24.06-3.21.42-7.9,3.34-10.06,3-16.21-1,.29-2,.57-2.92.8l-.72-3.14c1.13-.28,2.27-.61,3.42-1,0-.58,0-1.2,0-1.85-.44.11-.88.23-1.32.33L32.2,7q1-.24,2-.51c0-2.07.15-4.29.27-6.46h-1l-.72.13-.13,0,.65,3.49L31.32,4l-.4.07L30.28,0h-.05l0,.46c-.69.07-1.39.12-2.08.15l0-.61H26V.17c.7,0,1.41-.08,2.11-.16l.43,4.38c-.79.08-1.59.14-2.38.18L26,.49V.65c-.64,0-1.3-.05-1.94-.09L24,4.6c-.79,0-1.59,0-2.38-.11L21.91.33c-.67-.09-1.35-.19-2-.32h-.31L19,4.24c-.79-.11-1.58-.24-2.35-.39L17.39,0H15.16l-.8,3.32c-.76-.2-1.53-.42-2.29-.66L12.86,0H10.48L9.83,1.88C9.09,1.6,8.35,1.3,7.62,1L8,0H0V3.24l.31-.52C1.4,3.36,2.54,4,3.67,4.49L2.51,7C1.67,6.57.83,6.13,0,5.67V10a42,42,0,0,0,4,1.51l-.93,3.09C2,14.28,1,13.89,0,13.48V23l.19.09a2.43,2.43,0,0,0-.19,1v.81l.35-.1A2.46,2.46,0,0,0,.63,25.42Zm.22-.57a2.25,2.25,0,0,1-.08-.24l.79-.22c0,.05,0,.1.05.14ZM2.37,23l-.21-.82.24-.05.11.84Zm.25.94-.05,0-.4-.74a.91.91,0,0,1,.31-.12Zm-.13.1a.14.14,0,0,0,0,.06l-.8-.17a1.21,1.21,0,0,1,.11-.32Zm-.67.15-.82,0v-.09a.81.81,0,0,1,0-.16l.81.06v.15Zm.2-1-.46-.7.21-.14.37.76Zm-.18.16a.52.52,0,0,0-.1.11l-.66-.5.16-.2Zm-.22.33s0,.09-.05.14L.79,23.5a1.17,1.17,0,0,1,.09-.24Zm.25,1.13a1.08,1.08,0,0,1-.16-.3l.77-.29s0,0,0,.06Zm.76.4a1.14,1.14,0,0,1-.32-.07l.28-.8.06,0Zm.39-2a1.05,1.05,0,0,1,.29.17l-.53.65,0,0Zm-.27-.19.07-.85.24,0-.17.83Zm2.61-9.16.07,0,.42-1.64c1.39.38,2.82.7,4.24.95l-.13.81.23.17-.32.39-.13.83.06.06-.08.07-.14.85.61-.27a2.66,2.66,0,0,1,.25,1.14c0,.11,0,.21,0,.32l-.71-.08a1.93,1.93,0,0,0,0-.24,2.09,2.09,0,0,0-.18-.85h0l-.71-.14-.47.38-.09-.09L8.62,16,8.3,16l-.17.27L8,16.18l.11-.25-.26,0,0,.24-.13,0,0-.25-.27,0,0,.3-.12,0-.1-.37-.37-.09.27.53-.11.07-.4-.6.08,0-.5-.13a2.47,2.47,0,0,0-.28.28l-.56-.44,0,0-.38-.1.07-.26L5.06,15l-.56-.45a3.41,3.41,0,0,1,.37-.39l.35.37.18-.7Zm5,1.52a2.33,2.33,0,0,0-.27-.35l.54-.47a2.59,2.59,0,0,1,.32.42Zm.9.15a4.45,4.45,0,0,1,.19.51l-.69.2c0-.14-.1-.28-.15-.41ZM8.5,17.08a.78.78,0,0,1,0,.16l-.7-.13v0a.43.43,0,0,1,0,0l.68-.23A.92.92,0,0,1,8.5,17.08Zm0-.44.65-.33a1.8,1.8,0,0,1,.08.21l-.68.23Zm-.39,1.3.36.63a1.21,1.21,0,0,1-.2.09L8,18A.39.39,0,0,0,8.1,17.94Zm-.41-.71,0,0,.53.47a1,1,0,0,1-.22.18Zm.58.59.09-.09.54.47a.71.71,0,0,1-.15.15ZM7.72,17l0,0,.26-.67a1,1,0,0,1,.25.15Zm.07,1.1.12.71-.21,0,0-.72Zm.84.87.35.63a2.76,2.76,0,0,1-1.12.34l-.06-.71A2.23,2.23,0,0,0,8.63,18.93Zm-.15-1.37a.61.61,0,0,0,0-.12l.67.26a1.21,1.21,0,0,1-.09.2Zm.11-.32a.49.49,0,0,0,0-.12l.72,0c0,.07,0,.14,0,.21Zm0-.24a.62.62,0,0,0,0-.13l.71-.09a1.64,1.64,0,0,1,0,.22ZM3.74,21.85l.37-.76a3.4,3.4,0,0,1,1,.87l-.64.54A2.44,2.44,0,0,0,3.74,21.85Zm.76,1.56-.78.28a.69.69,0,0,0-.05-.13l.73-.39A2.44,2.44,0,0,1,4.5,23.41Zm.58-2.31a3.9,3.9,0,0,0-.4-.31l.44-.72.15.12.36-.47c.11.08.24.17.36.24l-.35.62-.09-.06Zm1-.13a4.74,4.74,0,0,1,.37.51l-.68.46c-.1-.14-.2-.28-.31-.41Zm.09-.12.25-.68a2.25,2.25,0,0,0,.42.13l-.15.7A4.44,4.44,0,0,1,6.21,20.85ZM6,19.42l.4-.59a2,2,0,0,0,.81.33l-.12.71A2.75,2.75,0,0,1,6,19.42ZM7.47,17s0,0,0,.05l-.71-.14a1,1,0,0,1,.11-.27Zm-.28-.69a.79.79,0,0,1,.27-.1l.12.71,0,0Zm-.38.19-.58-.42c0-.06.09-.12.14-.17l.52.49Zm-.1.18a.61.61,0,0,0,0,.12L6,16.59a1.59,1.59,0,0,1,.07-.2Zm.08,1,.08.09-.53.48a1.15,1.15,0,0,1-.14-.17ZM6.62,17v.12l-.72,0v-.08a.66.66,0,0,1,0-.14Zm0,.33a.56.56,0,0,1,0,.12L6,17.73a1.59,1.59,0,0,1-.07-.2Zm0,1.13L7,17.89l.1.06-.34.63Zm.31-.83a.89.89,0,0,1-.14-.25l.67-.25,0,.05Zm.63-.4h.06l0,.72a.87.87,0,0,1-.28,0Zm-1.83-.11H5v-.06A2.72,2.72,0,0,1,5.22,16l.66.28a2.05,2.05,0,0,0-.16.81Zm-.13.55a1.87,1.87,0,0,0,.42.77l-.55.47a2.8,2.8,0,0,1-.56-1ZM5,19a2.22,2.22,0,0,0,.28.33l-.52.5a3.36,3.36,0,0,1-.34-.41Zm-.91-.11a3.06,3.06,0,0,1-.22-.49l.68-.24c0,.13.11.27.17.4Zm-.15.58a5.71,5.71,0,0,1,.58.21l-.33.78a2.64,2.64,0,0,0-.47-.17ZM4,22.62c.06.06.11.13.16.19l-.63.54-.1-.11Zm-.76.47L3.12,23l.34-.78.22.12ZM3.16,25l-.41-.74,0,0,.62.56A1.09,1.09,0,0,1,3.16,25Zm-.31-.88v0s0-.05,0-.07l.77-.27a1,1,0,0,1,.06.34,1.1,1.1,0,0,1,0,.18Zm1.52.93-.72-.4.06-.14.77.31A1.63,1.63,0,0,1,4.37,25.05Zm.21-.65-.81-.13a.77.77,0,0,0,0-.15l.82,0A2.13,2.13,0,0,1,4.58,24.4ZM3.79,24a.76.76,0,0,0,0-.15l.81-.11a2.28,2.28,0,0,1,0,.26Zm2.08.46-.82-.09c0-.1,0-.19,0-.28a2.52,2.52,0,0,0-.21-1l.75-.34a3.45,3.45,0,0,1,.28,1.36C5.89,24.21,5.88,24.34,5.87,24.46Zm.22-2,.75-.35a5.89,5.89,0,0,1,.21.59L6.27,23A4.09,4.09,0,0,0,6.09,22.48ZM7.17,25l-.81-.15a4.35,4.35,0,0,0,.06-.52l.82,0A6.07,6.07,0,0,1,7.17,25ZM6.42,24a4.53,4.53,0,0,0,0-.52l.81-.11a4.44,4.44,0,0,1,0,.63Zm.7-5.28L7.33,18a.27.27,0,0,0,.12,0l-.11.71Zm.49,2.38H7.35l.05-.72h.44l0,.72Zm.9-.1-.16-.7a3.38,3.38,0,0,0,.42-.13l.25.67A3.33,3.33,0,0,1,8.51,21Zm1.06-3.14.67.27a3,3,0,0,1-.65,1l-.51-.52A1.92,1.92,0,0,0,9.57,17.86Zm0,2.72L9.24,20a2.82,2.82,0,0,0,.36-.24l.44.57A3.52,3.52,0,0,1,9.59,20.58Zm.92-.72L10,19.37a3,3,0,0,0,.28-.34l.58.42A3.36,3.36,0,0,1,10.51,19.86Zm.67-.94-.64-.33a3.52,3.52,0,0,0,.18-.4l.67.24A5.16,5.16,0,0,1,11.18,18.92Zm.38-1.1-.71-.13a2.2,2.2,0,0,0,.05-.44l.72,0A5.06,5.06,0,0,1,11.56,17.82ZM10.91,17a3.25,3.25,0,0,0,0-.44l.71-.09a4.58,4.58,0,0,1,0,.53ZM16,25.19l-1.29-.56a6.68,6.68,0,0,1,.47-1l1.21.73A5.39,5.39,0,0,0,16,25.19Zm1-1.66-1.08-.92a8.88,8.88,0,0,1,.71-.79l1,1.06A6.07,6.07,0,0,0,16.93,23.53Zm.69-3,.76,0,0,0h0l.41,0q0,.38.09.75l-.14,0,.25.53a6.89,6.89,0,0,0-.73.46l-.52-.8h-.06s0-.08,0-.12l-.19-.3.15-.09C17.65,20.8,17.63,20.67,17.62,20.54Zm0-1.08a7,7,0,0,1,.15-.9l1.19.29a6,6,0,0,0-.13.74Zm-.07,4.75a5.41,5.41,0,0,1,1-1l-.18.1a5.23,5.23,0,0,1-.37-.84l1.15-.41c.09.23.19.47.3.69l-.07,0,.41.8.13-.09a6.57,6.57,0,0,0,.48.57l-.88.85c-.11-.12-.22-.26-.32-.39a3.55,3.55,0,0,0-.53.57Zm3.65-4-.57,0,.15.91a5.93,5.93,0,0,0-.83.21L19.56,20c.15-.05.31-.08.47-.12a4.71,4.71,0,0,1,.35-1.58l1.13.47a3.57,3.57,0,0,0-.28,1.4Zm-.17,4.16.42-.08.08.67.14.09-.1.18.06.5-.24,0,0-.16-.28.49L20.92,26l-.09.06-.15-.22c-.11-.08-.23-.14-.34-.23l.1-.13-.4-.62a2.67,2.67,0,0,1,.36-.22l.27.54.41-.54.06,0Zm-.55,2c-.05.06-.11.12-.16.19l-1.12-.86a2.78,2.78,0,0,1,.27-.33ZM20,27.84l-1.39.07a.86.86,0,0,1,0-.16c0-.09,0-.19,0-.28l1.4.12a.81.81,0,0,0,0,.16Zm.08-.67-1.34-.42a2.86,2.86,0,0,1,.15-.41l1.28.59Zm.36-.32,1.21.73a.3.3,0,0,0,0,.1l-1.37-.29A1.76,1.76,0,0,1,20.42,26.85Zm.15,2a1.82,1.82,0,0,1-.28-.51l1.32-.5a.31.31,0,0,0,.05.1Zm1.19-1.42-.68-1.28a2,2,0,0,1,.54-.19l.24,1.43Zm.32-.85.42-1.15.36.11.33-.76a4.61,4.61,0,0,1-.63-.2l-.24,1.19a1,1,0,0,0-.25,0l.11-1.35a3.62,3.62,0,0,1-.43-.24l.44-.65a3.83,3.83,0,0,0-1.17.07l-.09-.4-.14.12a4.81,4.81,0,0,1-1-1.76L21,21.19a3.37,3.37,0,0,0,.4.86,7.48,7.48,0,0,1,.82,0,1.84,1.84,0,0,1-.17-.22l1-.69.13.17-.84.75a3.4,3.4,0,0,1,.64.09v.05l.48-.65.18.12-.59,1.07-.15-.1-.14.7a3.59,3.59,0,0,0,1.05.39l0,.16.61-1.25.2.14-.05-.91.22,0L25,23q.35.26.66.54a3.14,3.14,0,0,0,.57-.24l.6,1.07a4.81,4.81,0,0,1-1.55.52L25.1,25,25,25l-.13,0,0-.17a4.14,4.14,0,0,0-1.09-.87l-.15.84,0,0-.05.08v0h0l-.43.72.06,0L23,26.86l-.26-.08-.57.71a.15.15,0,0,0-.09-.06l.29-.76Zm-.08-7a6.81,6.81,0,0,1,.78.05l-1.11-.34A3,3,0,0,1,21.8,19l1.12.5a1.46,1.46,0,0,0-.07.19H23v.05a1.73,1.73,0,0,1,.11-.32l.89.52h0a6,6,0,0,1,.71.26v0a.29.29,0,0,0,0-.09l1.16-.39a1.31,1.31,0,0,1,.08.48,1.23,1.23,0,0,1,0,.27l-1-.18.1,0-.12.28.69.6a1.61,1.61,0,0,1-.38.31l-.4-.69-.35.83h0v.07a1.37,1.37,0,0,1-.49-.09l.06-.14c-.12,0-.22-.09-.34-.12l.18-.66-.56.45a1.82,1.82,0,0,1-.24-.43l.88-.32.08-.29-1-.2-.14,1.24c-.22,0-.43,0-.65,0l-.47.19-.12-.36.38-.09v-.54l-.46,0v-.14a1.85,1.85,0,0,1,0-.23L22,20Zm1.14-2.05.56,1.09-.19.11-.69-1A3.37,3.37,0,0,1,23.14,17.57Zm-.37-2.77-.37-1.17a6.77,6.77,0,0,1,.89-.21l.21,1.21A6,6,0,0,0,22.77,14.8ZM23.24,19l-.14.16-1-.72a2.17,2.17,0,0,1,.24-.29Zm.79-.47-.31-1.19.36-.07.16,1.22A.78.78,0,0,0,24,18.54Zm.38,1.35-.08,0-.59-1.07a1.5,1.5,0,0,1,.46-.17Zm.6-1.13a1.67,1.67,0,0,1,.43.25l-.79.94-.08,0Zm-.41-.27.1-1.22a2.35,2.35,0,0,1,.37.05l-.26,1.2A.71.71,0,0,0,24.6,18.49Zm4.27-.28a4.73,4.73,0,0,1,.42,2,4.89,4.89,0,0,1,0,.54L28,20.57a2.6,2.6,0,0,0,0-.4,3.64,3.64,0,0,0-.31-1.46Zm-.16-1.73.93-.8a7.74,7.74,0,0,1,.55.73l-1,.67A5.3,5.3,0,0,0,28.71,16.48Zm-.9,5L29,22a5,5,0,0,1-.65,1.11c.05.07.11.14.16.22l-1.17.79a7,7,0,0,0-.52-.7l.44-.4L27,22.75A3.74,3.74,0,0,0,27.81,21.5Zm-1.14.58a3.19,3.19,0,0,1-.26.26l-.06-.07-.3.37c-.1-.09-.21-.16-.31-.24l.17.3a2.59,2.59,0,0,1-.33.17l-.47-1.13.19-.1.17.3.24-.39-.12-.12a.75.75,0,0,0,.15-.16l.09.08L26,21,26,21l.09-.2,1.14.45a2.6,2.6,0,0,1-.16.34l-.07,0h0l-.38.46Zm-.54-1.64a1.5,1.5,0,0,0,0-.22l1.23,0c0,.12,0,.25,0,.37Zm0-.44a1.62,1.62,0,0,0,0-.22l1.21-.15a2.31,2.31,0,0,1,0,.37Zm-.09-.39-.09-.2,1.1-.55a3.45,3.45,0,0,1,.14.34Zm-.28-.5L25.63,19l.85-.89a3.33,3.33,0,0,1,.25.28Zm-.43-.38-.19-.1.5-1.12a2.68,2.68,0,0,1,.33.18Zm-1.16,3.11L24,23.05,23.63,23,24,21.79ZM24.93,27H24v0l-.28.11a2.44,2.44,0,0,0-.1-.24l.4-.21.05-.71-.67.56-.17-.18,1-1.05c.1.1.19.21.28.32l-.25.22q.3,0,.6,0l0,.4h0c.06.13.12.26.17.4l-.15.06Zm-2.71.63,1.33-.47a1.9,1.9,0,0,1,.09.58,1.63,1.63,0,0,1,0,.31l-1.37-.25v-.06A.36.36,0,0,0,22.22,27.64Zm.55,1.66L22.08,28a.27.27,0,0,0,.08-.07l1.05,1A1.73,1.73,0,0,1,22.77,29.3Zm1.37,1-.93-1.08.17-.19,1.06.95A3,3,0,0,1,24.14,30.32Zm.7-.92-1.23-.7a1.63,1.63,0,0,0,.11-.23L25,29A3.52,3.52,0,0,1,24.84,29.4Zm.36-1.11-1.38-.23c0-.06,0-.12,0-.18a.66.66,0,0,0,0-.14l1.39-.18c0,.1,0,.19,0,.29h0v0s0,.07,0,.1h0A2.85,2.85,0,0,1,25.2,28.29Zm2.2.09L26,28.22a3.83,3.83,0,0,0,0-.47A4.47,4.47,0,0,0,25.68,26l.11-.05-.07-.3a6,6,0,0,0,.72-.22l.07.19.45-.21a6,6,0,0,1,.47,2.33Q27.43,28.07,27.4,28.38Zm1.48,3.07-1.24-.66A7.43,7.43,0,0,0,28,30l1.32.49A8.65,8.65,0,0,1,28.88,31.45Zm.73-2.22L28.24,29a8.46,8.46,0,0,0,.1-.88l1.39.07A6.61,6.61,0,0,1,29.61,29.23ZM28.34,28a6.55,6.55,0,0,0-.05-.89l1.39-.19A9.64,9.64,0,0,1,29.74,28Zm1.07-3.09-.26-.25c.1.25.19.5.27.76l-.93.29a5.54,5.54,0,0,1-.65.42l-.6-1.06a5.31,5.31,0,0,0,.63-.42l.17.23.89-.42-.4-.39a6.71,6.71,0,0,0,.48-.58l1,.73A6.5,6.5,0,0,1,29.41,24.91Zm1.15-1.61-1.09-.56a5.32,5.32,0,0,0,.3-.69l1.15.41A6.24,6.24,0,0,1,30.56,23.3Zm.64-1.88L30,21.2a6.14,6.14,0,0,0,.08-.75l1.23.06A6.85,6.85,0,0,1,31.2,21.42ZM31.32,20H30.09a6.3,6.3,0,0,0-.05-.75l1.22-.16A7,7,0,0,1,31.32,20ZM31,18.21l-1.17.35a5.34,5.34,0,0,0-.27-.7l1.12-.51A6.86,6.86,0,0,1,31,18.21ZM30.54,7.33,31.09,10c-1.33.27-2.67.49-4,.66L26.77,8C28,7.8,29.28,7.59,30.54,7.33Zm-1.68,5.2.62,3.17c-.79.17-1.59.32-2.39.45a5.08,5.08,0,0,1,1.11,1l-.95.78A3.68,3.68,0,0,0,26.08,17l.36-.7-1.22.19,0,.2a3.61,3.61,0,0,0-1.5,0l-.27-1.2a5,5,0,0,1,1.39-.08l-.09-.8c-.23,0-.46,0-.69,0l0-1.22c.19,0,.37,0,.56,0v-.08C26,13.08,27.42,12.83,28.86,12.53ZM24.81,8.14l.24,2.72c-1.35.12-2.71.18-4,.19V8.32C22.25,8.32,23.53,8.25,24.81,8.14Zm-2.46,5.35.28,3.22h0l.15.28a3.54,3.54,0,0,0-1.15,1l-1-.76a3.06,3.06,0,0,1,.35-.37c-.72.05-1.44.08-2.15.09l.73.43a4.62,4.62,0,0,0-.33.67l-1.14-.47c.09-.21.2-.41.31-.61H18l0-3.24C19.43,13.69,20.9,13.62,22.35,13.49ZM15.79,8c1.24.16,2.52.26,3.79.3L19.49,11c-1.36,0-2.72-.15-4-.32Zm.54,5.67-.1,3.24c-1.55-.06-3.1-.18-4.62-.38L12,13.32C13.42,13.5,14.88,13.62,16.33,13.67ZM10.41,7c1.21.33,2.46.6,3.71.81l-.45,2.69a40.61,40.61,0,0,1-4-.86ZM5.22,5.18a37.89,37.89,0,0,0,3.56,1.3L8,9.09C6.69,8.69,5.4,8.22,4.16,7.7ZM4.14,15.06l.62.37a2.35,2.35,0,0,0-.19.39l-.66-.28A3.49,3.49,0,0,1,4.14,15.06Zm-.43,1.08.7.17a3.25,3.25,0,0,0-.08.43l-.71-.07A4.89,4.89,0,0,1,3.71,16.14Zm.61,1.12a3.29,3.29,0,0,0,0,.44l-.7.13a3.07,3.07,0,0,1-.07-.53Zm-.71,2.1-.1.85a4.07,4.07,0,0,0-.5,0v-.85C3.2,19.33,3.41,19.34,3.61,19.36ZM3.3,20.8l-.16.84a2.3,2.3,0,0,0-1,0L2,20.82A3.18,3.18,0,0,1,3.3,20.8ZM1.87,19.4l.14.84a4.37,4.37,0,0,0-.49.12l-.24-.81A5.66,5.66,0,0,1,1.87,19.4Zm-1.26.43.37.76-.44.26-.46-.7A4.15,4.15,0,0,1,.61,19.83ZM.12,22a3.25,3.25,0,0,1,1-.89l.38.75a2.44,2.44,0,0,0-.77.66Z"/><path class="cls-1" d="M63.6,23.54,64.31,25l.52-.22-1.14-1.29Z"/><path class="cls-1" d="M63.11,12.52l-1.26.57c0,.14.08.29.11.44l1-.15Z"/><polygon class="cls-1" points="62.54 17.17 63.31 17.78 64.07 16.56 62.89 16.05 62.54 17.17"/><path class="cls-1" d="M59.33,13.76l-.07.14.7-.3C59.75,13.64,59.54,13.7,59.33,13.76Z"/><path class="cls-2" d="M45.52,0h-.13V.05Z"/><path class="cls-2" d="M31.32,4l1.89-.35L32.56.15l-.22,0,0-.19h-2l.64,4.06Z"/><path class="cls-2" d="M26.17,4.57c.79,0,1.59-.1,2.38-.18L28.12,0c-.7.08-1.41.13-2.11.16V.49Z"/><path class="cls-2" d="M23.94.2c-.65,0-1.31,0-2-.09l0,.23h0l-.29,4.16c.79.06,1.59.1,2.38.11l.06-4h-.14Z"/><path class="cls-2" d="M14.36,3.32,15.16,0h-2.3l-.79,2.66C12.83,2.9,13.6,3.12,14.36,3.32Z"/><path class="cls-2" d="M19,4.24,19.58,0H17.39l-.7,3.85C17.46,4,18.25,4.13,19,4.24Z"/><path class="cls-2" d="M9.83,1.88,10.48,0H8l-.4,1C8.35,1.3,9.09,1.6,9.83,1.88Z"/><path class="cls-2" d="M11.61,16.53c1.52.2,3.07.32,4.62.38l.1-3.24c-1.45-.05-2.91-.17-4.33-.35Z"/><path class="cls-2" d="M5.36,14.68a2,2,0,0,0-.24.26l-.07.26.38.1a2.68,2.68,0,0,1,.86-.71l.33.63a2.14,2.14,0,0,0-.39.28l.5.13.11-.07,0,.11.37.09-.08-.33.21,0,.05.41.27,0,0-.47.22,0-.1.47.26,0,.18-.4.19.1L8.3,16l.32.06.17-.18.15.16-.09.07.71.14h0l.14-.85-.48.39a2,2,0,0,0-.68-.55l.32-.64a3.12,3.12,0,0,1,.86.67l.13-.83-.14.16-.35-.26.38-.6.2.14.13-.81c-1.42-.25-2.85-.57-4.24-.95l-.42,1.64.39-.23.32.64a3,3,0,0,0-.38.23l-.36-.53-.18.7ZM9.21,13.4l-.29.66a2.86,2.86,0,0,0-.41-.15l.19-.69A5.17,5.17,0,0,1,9.21,13.4Zm-.68-.3-.08.71a3.24,3.24,0,0,0-.44,0v-.72A4.58,4.58,0,0,1,8.53,13.1Zm-.36,1.21L8,15a2,2,0,0,0-.88,0L7,14.32A3.07,3.07,0,0,1,8.17,14.31ZM6.92,13.13l.13.71a3,3,0,0,0-.43.1l-.22-.68A3.3,3.3,0,0,1,6.92,13.13Z"/><path class="cls-2" d="M18,16.94h.42c0-.07.06-.14.1-.21l.33.19c.71,0,1.43,0,2.15-.09a4.86,4.86,0,0,1,1.19-.92l.42.81h0l-.28-3.22c-1.45.13-2.92.2-4.35.21ZM21.4,14,22,15.13c-.22.12-.44.24-.65.38l-.68-1A6.13,6.13,0,0,1,21.4,14Zm-1.62,1.13.83.9a5.35,5.35,0,0,0-.51.55l-1-.78A5.68,5.68,0,0,1,19.78,15.17Z"/><path class="cls-2" d="M4,11.52A42,42,0,0,1,0,10v3.47c1,.41,2,.8,3.07,1.13Z"/><path class="cls-2" d="M24.56,13.35c.12,0,.23,0,.35,0l-.14,1.21h-.06l.09.8a6.2,6.2,0,0,1,.62.06l-.2,1,1.22-.19.2-.39a4.3,4.3,0,0,1,.45.29c.8-.13,1.6-.28,2.39-.45l-.62-3.17c-1.44.3-2.89.55-4.31.74Zm3.58,1a6.25,6.25,0,0,1,.73.54l-.79.93a5.13,5.13,0,0,0-.6-.44Zm-1.81-.81a6.74,6.74,0,0,1,.86.3L26.7,15a6,6,0,0,0-.71-.26Z"/><path class="cls-2" d="M34.18,11.14c-1.15.35-2.29.68-3.42,1l.72,3.14c1-.23,1.94-.51,2.92-.8,0-.31,0-.61-.07-.95C34.25,12.82,34.21,12,34.18,11.14Z"/><path class="cls-2" d="M48.07,8.76l-.32-.16c0-.08.09-.16.14-.24L46.83,6l-.34.17c.08.79.13,1.83.13,3.2,0,.09,0,.2,0,.29l1.51-.72Z"/><path class="cls-2" d="M65.73.24,65.62,0h-5l1.07,2.29C63.1,1.59,64.46.9,65.73.24Z"/><path class="cls-2" d="M52.24,6.94,50.48,5a12.6,12.6,0,0,1,1.64-1.27L53.61,6a8.73,8.73,0,0,0-.92.68L54,6.08,52.69,3.15l-4.06,2,1,2.34.59.43Z"/><path class="cls-2" d="M56.86,4.67A9,9,0,0,0,55.74,5l.09.19c1-.49,2-1,2.92-1.44l-.06-2a4.47,4.47,0,0,1,.52,0L58.54.27l-4,2,.1.24A12.81,12.81,0,0,1,56.27,2Z"/><path class="cls-2" d="M51.17,19.88,52,20a9.26,9.26,0,0,1-.71-1C51.26,19.25,51.2,19.56,51.17,19.88Z"/><path class="cls-2" d="M53.61,15.52l.29-.07L53,14.77a11.32,11.32,0,0,0-.7,1.22l.68-.16a6.16,6.16,0,0,0,1.52,2.8L53,20.05l1.33.12a7.46,7.46,0,0,1,.56-2.23,4,4,0,0,1-.28-.32l.67-.5c.1-.17.19-.34.29-.5L54.7,16l-.84.33A6.09,6.09,0,0,1,53.61,15.52Z"/><path class="cls-2" d="M56.19,25.92a1.67,1.67,0,0,1-.12-.16l-.1.37Z"/><path class="cls-2" d="M54.84,23.77a7,7,0,0,1-.39-1.17L53,23l-1.17,1.67a10.56,10.56,0,0,0,2.11,3.49l1.66-1.62a12.09,12.09,0,0,1-1.69-.6Z"/><path class="cls-2" d="M57.77,27.94l.71-.34-.43-.2Z"/><path class="cls-2" d="M57.14,12l-.5-.61a8.33,8.33,0,0,0-.9.55l.86.62A2.86,2.86,0,0,1,57.14,12Z"/><path class="cls-2" d="M56.51,13.08l-1-.49,1.38,1.93.89-.07a6.86,6.86,0,0,1,.76-.4L56.69,12.8Z"/><path class="cls-2" d="M57.49,12,58.76,14l.3-.1.23-2.48.19,0,.16-1a9,9,0,0,0-1,.23l.11,1a3.12,3.12,0,0,0-.44.09l-.22-.85a8.71,8.71,0,0,0-.89.36l.44.77Z"/><path class="cls-2" d="M60,13.6l.57-.25-.17-1.48-1,1.89C59.54,13.7,59.75,13.64,60,13.6Z"/><path class="cls-2" d="M60.34,11.68l-.12-1-.29.88A2.09,2.09,0,0,1,60.34,11.68Z"/><path class="cls-2" d="M64.06,12.1l-1,.42-.18.86,1.55-.24a6.11,6.11,0,0,1,.06.86h-.43a7.26,7.26,0,0,1,1.13.61,2.3,2.3,0,0,0,0-.26,6.31,6.31,0,0,0-.81-3.09l.61-.34a10.22,10.22,0,0,0-1.54-.49l-.23,1.13.35-.23A4.75,4.75,0,0,1,64.06,12.1Z"/><path class="cls-2" d="M50,18.55c.06.13.13.25.2.37a11.7,11.7,0,0,1,.27-1.31L48.4,17l-1,.26c-.1.43-.19.86-.25,1.3,0,.2,0,.41,0,.61l1.24.15Z"/><path class="cls-2" d="M50.38,23.57a1.9,1.9,0,0,1-.21-.19l.14-.15a11.78,11.78,0,0,1-.21-1.45L47.42,22c.07.8.14,1.61.22,2.4l2.76-.71S50.39,23.61,50.38,23.57Z"/><path class="cls-2" d="M58.43,8.85l.07.64c.14,0,.29-.09.44-.12l-.68-3.16-.21.06.22,1.87a6.5,6.5,0,0,0-1.64.43l.53,1.37.6-.22L57.57,9A6.21,6.21,0,0,1,58.43,8.85Z"/><path class="cls-2" d="M53.47,29.24l-.08.08.3.82.46-.26C53.91,29.67,53.69,29.46,53.47,29.24Z"/><path class="cls-2" d="M49.49,29.33,50,29l.44-2.81L48.31,27.2A14.26,14.26,0,0,0,49.49,29.33Z"/><path class="cls-2" d="M53.35,11.73l.4.44.35-.31h0a5,5,0,0,1,.45-.74l.27.19c.14-.1.27-.21.42-.31l-1.7-2.71A13.59,13.59,0,0,0,52,9.48l1.87,1.3A6.72,6.72,0,0,0,53.35,11.73Z"/><path class="cls-2" d="M49,13.2c-.16.27-.32.55-.46.83L51.3,15.5a11.84,11.84,0,0,1,1-1.64l-.19-.14-2-.18a9.7,9.7,0,0,1,.2-1.22l-.5-.38c-.19.27-.36.55-.54.83,0,.15,0,.3-.07.45Z"/><path class="cls-2" d="M63.4,6c-.46-.06-.92-.1-1.39-.12a7.9,7.9,0,0,1,1.32.61Z"/><path class="cls-2" d="M61.11,9.1a9.24,9.24,0,0,1,1.39.06,5.83,5.83,0,0,0-1.41-.71Z"/><path class="cls-2" d="M65.92,7.28,65.1,9.73c.39.15.78.32,1.16.51l.24-.14V7.84h0C66.32,7.64,66.11,7.46,65.92,7.28Z"/><path class="cls-2" d="M59,17.27h.17l0,.8,0,0h0l.08,1.28,1.85,1.28.08-.09-1.58-2.51.14-.1L59,16.57v.7Z"/><path class="cls-2" d="M58.73,17.31l-.12,0,.11.14Z"/><polygon class="cls-2" points="57.63 18.02 57.36 18.72 58.53 19.34 58.59 18.74 57.63 18.02"/><path class="cls-2" d="M58.22,15.18a6.63,6.63,0,0,0-.81.58l.64.82.42-1Z"/><path class="cls-2" d="M55.76,17.88l1,.5.42-.73-.8-.6-.21.21C56,17.47,55.86,17.67,55.76,17.88Z"/><path class="cls-2" d="M58.19,23.28l-1.85,1.41v.06a7.25,7.25,0,0,0,.62.75L59,23.33h0A7.52,7.52,0,0,1,58.19,23.28Z"/><path class="cls-2" d="M60.73,14.33a5.47,5.47,0,0,0-1,.19l.07.27,1,.56Z"/><path class="cls-2" d="M61.05,17.54,61,16.6l-.11.11-.8-1,.36,1.37.29.56Z"/><path class="cls-2" d="M61,20.76a.27.27,0,0,1-.12,0l-.07.16H61Z"/><path class="cls-2" d="M57.9,26.14l.4.2.06-1.05Z"/><path class="cls-2" d="M61,23.77h0L61,21l-.31.18-1,2.27-.31-.16-.51.92a5.77,5.77,0,0,0,.72,0l.17-.47a3.25,3.25,0,0,0,.87.21l-.26,2.69.92-.43-.14-2.47Z"/><path class="cls-2" d="M58.22,20.55c0-.13,0-.26,0-.39l-3-.66a7.09,7.09,0,0,0-.12,1l.64,0,.36-.68A6.16,6.16,0,0,0,58.22,20.55Z"/><path class="cls-2" d="M64.09,16.53s0,0,0,0h0l-.76,1.22,0,0-.11.12-.09.14a2.44,2.44,0,0,1,.4.32L65,16.66l-.17-.06a6.1,6.1,0,0,0,.29-1c-.11-.08-.2-.17-.31-.24Z"/><polygon class="cls-2" points="64.86 19.24 66.5 18.48 66.5 17.4 64.37 18.84 64.86 19.24"/><path class="cls-2" d="M63.34,14.61a5.5,5.5,0,0,0-1-.24l-.12.82.84.22Z"/><polygon class="cls-2" points="62.89 16.05 62.17 15.73 62.02 16.75 62.54 17.17 62.89 16.05"/><path class="cls-2" d="M61.71,17.32l-.17,1.92v0h0l-.08.82.43-.19.79-1.52-1-1.06Z"/><path class="cls-2" d="M65.38,21.92l-.89-.24a3.52,3.52,0,0,1-.16.49l1.1.51-.36-.48C65.18,22.12,65.27,22,65.38,21.92Z"/><path class="cls-2" d="M65,21H66.5v-.84l-.76.13A7.82,7.82,0,0,1,65,21Z"/><path class="cls-2" d="M55.51,23.21l.79-.32a7.59,7.59,0,0,1-1-.38A5.17,5.17,0,0,0,55.51,23.21Z"/><path class="cls-2" d="M61.13,21a.27.27,0,0,1,0-.12h-.26L59.21,21l0,1,1.48-.81L61,21Z"/><path class="cls-2" d="M63.25,23.31l.19-.09.16.32.09-.08,1.14,1.29.87-.33-1.64-1.37a2.76,2.76,0,0,0,.32-.49l-.83-.48a9.17,9.17,0,0,1-.88.46Z"/><path class="cls-2" d="M25.1,25l.16-.13L25,25Z"/><path class="cls-2" d="M24.87,24.81l-.09-1a3.59,3.59,0,0,0,.86-.2q-.32-.28-.66-.54v0a2.21,2.21,0,0,1-.37,0v-.31l-.2-.14-.61,1.25v.06A4.14,4.14,0,0,1,24.87,24.81Z"/><path class="cls-2" d="M22.77,23.33l.14-.7-.16-.1.24-.34v-.05a3.4,3.4,0,0,0-.64-.09l-.07.06L22.23,22a7.48,7.48,0,0,0-.82,0,3.7,3.7,0,0,0,.31.46l-.79.67.09.4a3.83,3.83,0,0,1,1.17-.07l.25-.36A3.47,3.47,0,0,0,22.77,23.33Z"/><path class="cls-2" d="M26.51,25.63l.36,1a5.24,5.24,0,0,1-.88.26l-.2-.89-.11.05A4.47,4.47,0,0,1,26,27.75a3.83,3.83,0,0,1,0,.47l1.4.16q0-.31,0-.63A6,6,0,0,0,27,25.42Z"/><path class="cls-2" d="M25.74,29.32a4.13,4.13,0,0,1-.95,1.48l.39.41.25.1.56.25A5.51,5.51,0,0,0,27,29.86Z"/><path class="cls-2" d="M16.43,25.52a5.69,5.69,0,0,0-.37,1.62c.44.15.9.31,1.35.48a4.44,4.44,0,0,1,.31-1.53Z"/><path class="cls-2" d="M19.21,24.54a4,4,0,0,1-.27-.31l.86-.63-.41-.8-.83.42a5.41,5.41,0,0,0-1,1l1.1.9A3.55,3.55,0,0,1,19.21,24.54Z"/><path class="cls-2" d="M14.68,24.63l1.29.56a5.39,5.39,0,0,1,.39-.8l-1.21-.73A6.68,6.68,0,0,0,14.68,24.63Z"/><path class="cls-2" d="M14.3,25.84c-.05.23-.08.48-.12.72.44.12.9.26,1.35.41a6.85,6.85,0,0,1,.13-.79Z"/><path class="cls-2" d="M20,20.17a2.85,2.85,0,0,1,0-.29c-.16,0-.32.07-.47.12L20,21.38a5.93,5.93,0,0,1,.83-.21l-.15-.91H20Z"/><path class="cls-2" d="M18.42,20.48l0,0h0Z"/><path class="cls-2" d="M18.31,22.23a6.89,6.89,0,0,1,.73-.46l-.25-.53-1,.19Z"/><path class="cls-2" d="M17.71,21.32c0-.13,0-.26,0-.39l-.15.09Z"/><path class="cls-2" d="M15.85,22.61l1.08.92a6.07,6.07,0,0,1,.59-.65l-1-1.06A8.88,8.88,0,0,0,15.85,22.61Z"/><path class="cls-2" d="M27.21,23l-.44.4a7,7,0,0,1,.52.7l1.17-.79c-.05-.08-.11-.15-.16-.22a6.09,6.09,0,0,1-.46.55Z"/><path class="cls-2" d="M28,24.88l.57.75-.12.08.93-.29c-.08-.26-.17-.51-.27-.76l-.22-.2Z"/><path class="cls-2" d="M28.29,27.11a6.55,6.55,0,0,1,.05.89h1.4a9.64,9.64,0,0,0-.06-1.08Z"/><path class="cls-2" d="M25.47,21.94l.27.46c.1.08.21.15.31.24l.3-.37-.64-.72Z"/><polygon class="cls-2" points="26.95 21.53 26.03 21.02 25.83 21.35 26.58 21.99 26.95 21.53 26.95 21.53"/><path class="cls-2" d="M22.77,20.17v.08l-.76,0v.54l.81-.22a1.18,1.18,0,0,0,.07.2l-.67.28c.22,0,.43,0,.65,0L23,19.88h0a.67.67,0,0,1,.06-.15v-.05h-.19v0l-.06,0a6.81,6.81,0,0,0-.78-.05V20l.78.06A.57.57,0,0,0,22.77,20.17Z"/><path class="cls-2" d="M24.18,20.12l-.18,0-.08.29.27-.1a.56.56,0,0,0,0,.08l-.4.32-.18.66c.12,0,.22.08.34.12l.36-1,.1,0,0,1.15h0l.35-.83-.21-.37.07-.06.23.21.12-.28-.1,0-.19,0a0,0,0,0,0,0,0,6,6,0,0,0-.71-.26h0l.17.1Z"/><path class="cls-2" d="M28.24,29l1.37.27a6.61,6.61,0,0,0,.12-1.08l-1.39-.07A8.46,8.46,0,0,1,28.24,29Z"/><path class="cls-2" d="M27.64,30.79l1.24.66a8.65,8.65,0,0,0,.42-1L28,30A7.43,7.43,0,0,1,27.64,30.79Z"/><path class="cls-2" d="M27.11,31.68a3.11,3.11,0,0,1-.23.28l1.35.59h0Z"/><path class="cls-2" d="M20.4,24.67a2.67,2.67,0,0,0-.36.22l.4.62.23-.3Z"/><path class="cls-2" d="M20.83,26.09l.09-.06-.24-.16Z"/><path class="cls-2" d="M22.11,29.74l.17.09,0-.11Z"/><path class="cls-2" d="M18.59,27.47c0,.09,0,.19,0,.28a.86.86,0,0,0,0,.16L20,27.84v-.09a.81.81,0,0,1,0-.16Z"/><path class="cls-2" d="M19.23,25.7l1.12.86c0-.07.11-.13.16-.19l-1-1A2.78,2.78,0,0,0,19.23,25.7Z"/><path class="cls-2" d="M21.48,24.32l-.42.08.08.31.42.28Z"/><path class="cls-2" d="M21.42,25.81l.24,0-.06-.5-.22.39Z"/><path class="cls-2" d="M20.05,28.26l-.65.18.43.19.3-.12A1,1,0,0,1,20.05,28.26Z"/><path class="cls-2" d="M18.72,26.75l1.34.42.09-.24-1.28-.59A2.86,2.86,0,0,0,18.72,26.75Z"/><path class="cls-2" d="M23.59,24.92c-.14,0-.27-.08-.4-.12l-.33.76.3.08Z"/><path class="cls-2" d="M23.66,24.8l0,0,0,.1Z"/><path class="cls-2" d="M24.25,25.79l.25-.22c-.09-.11-.18-.22-.28-.32l-1,1.05.17.18.67-.56v-.13Z"/><path class="cls-2" d="M23.64,26.84a2.44,2.44,0,0,1,.1.24L24,27l0-.34Z"/><path class="cls-2" d="M24.89,26.19h0l0,.46.15-.06C25,26.45,25,26.32,24.89,26.19Z"/><path class="cls-2" d="M22.65,29.6l.22.55.53.29-.53-1A1.51,1.51,0,0,1,22.65,29.6Z"/><path class="cls-2" d="M23.21,29.24l.93,1.08a3,3,0,0,0,.3-.32l-1.06-.95Z"/><path class="cls-2" d="M23.61,28.7l1.23.7A3.52,3.52,0,0,0,25,29l-1.3-.53A1.63,1.63,0,0,1,23.61,28.7Z"/><path class="cls-2" d="M22.07,25.75a1,1,0,0,1,.25,0l.24-1.19-.38-.2Z"/><path class="cls-2" d="M25.24,27.85c0-.1,0-.19,0-.29l-1.39.18a.66.66,0,0,1,0,.14.15.15,0,0,1,0-.07Z"/><path class="cls-2" d="M25.24,27.9s0,.07,0,.1h0S25.24,27.94,25.24,27.9Z"/><path class="cls-2" d="M25.24,27.85h0l-1.39,0a.15.15,0,0,0,0,.07c0,.06,0,.12,0,.18l1.38.23a2.85,2.85,0,0,0,0-.29s0-.06,0-.1Z"/><path class="cls-2" d="M20.29,28.36a1.82,1.82,0,0,0,.28.51L21.66,28a.31.31,0,0,1-.05-.1Z"/><path class="cls-2" d="M21.91,28.08a.2.2,0,0,1-.11,0l-.45,1.29.26.14.26.05Z"/><path class="cls-2" d="M21.63,27.58l-1.21-.73a1.76,1.76,0,0,0-.2.54l1.37.29A.3.3,0,0,1,21.63,27.58Z"/><path class="cls-2" d="M21.08,26.17l.68,1.28.1,0L21.62,26A2,2,0,0,0,21.08,26.17Z"/><path class="cls-2" d="M23.61,28.06a1.63,1.63,0,0,0,0-.31,1.9,1.9,0,0,0-.09-.58l-1.33.47a.36.36,0,0,1,0,.11v.06Z"/><path class="cls-2" d="M22.12,27.49l.57-.71-.37-.11-.29.76A.15.15,0,0,1,22.12,27.49Z"/><path class="cls-2" d="M22.16,28a.27.27,0,0,1-.08.07l.69,1.26a1.73,1.73,0,0,0,.44-.37Z"/><path class="cls-2" d="M4.81,25.18h.51L4.9,25A1.4,1.4,0,0,1,4.81,25.18Z"/><path class="cls-2" d="M5.16,22a3.4,3.4,0,0,0-1-.87l-.37.76a2.44,2.44,0,0,1,.78.65Z"/><path class="cls-2" d="M4.86,23.07a2.52,2.52,0,0,1,.21,1c0,.09,0,.18,0,.28l.82.09c0-.12,0-.25,0-.37a3.45,3.45,0,0,0-.28-1.36Z"/><line class="cls-3" y1="24.09" y2="24.14"/><path class="cls-2" d="M0,23v1.06a2.43,2.43,0,0,1,.19-1Z"/><path class="cls-2" d="M.35,24.8,0,24.9v.61l.63-.09A2.46,2.46,0,0,1,.35,24.8Z"/><path class="cls-2" d="M1.53,21.88l-.38-.75a3.25,3.25,0,0,0-1,.89l.64.52A2.44,2.44,0,0,1,1.53,21.88Z"/><path class="cls-2" d="M2.13,21.65a2.3,2.3,0,0,1,1,0l.16-.84a3.18,3.18,0,0,0-1.34,0Z"/><path class="cls-2" d="M2,20.24l-.14-.84a5.66,5.66,0,0,0-.59.15l.24.81A4.37,4.37,0,0,1,2,20.24Z"/><path class="cls-2" d="M1,20.59l-.37-.76a4.15,4.15,0,0,0-.53.32l.46.7Z"/><path class="cls-2" d="M6.49,21.48A4.74,4.74,0,0,0,6.12,21l-.62.56c.11.13.21.27.31.41Z"/><path class="cls-2" d="M6.84,22.13l-.75.35a4.09,4.09,0,0,1,.18.49l.78-.25A5.89,5.89,0,0,0,6.84,22.13Z"/><path class="cls-2" d="M5.19,20.29l.08-.1-.15-.12-.44.72a3.9,3.9,0,0,1,.4.31l.47-.58Z"/><path class="cls-2" d="M6.39,23.48a4.53,4.53,0,0,1,0,.52h.82a4.44,4.44,0,0,0,0-.63Z"/><path class="cls-2" d="M3.51,20.21l.1-.85c-.2,0-.41,0-.61,0v.85A4.07,4.07,0,0,1,3.51,20.21Z"/><path class="cls-2" d="M6.36,24.8l.81.15a6.07,6.07,0,0,0,.07-.63l-.82,0A4.35,4.35,0,0,1,6.36,24.8Z"/><path class="cls-2" d="M4.15,20.5l.33-.78a5.71,5.71,0,0,0-.58-.21l-.22.82A2.64,2.64,0,0,1,4.15,20.5Z"/><path class="cls-2" d="M1.56,22.42l.46.7L2.14,23l-.37-.76Z"/><path class="cls-2" d="M1.08,22.89l.66.5a.52.52,0,0,1,.1-.11l-.6-.59Z"/><path class="cls-2" d="M2,25l-.18.25.22,0,.08-.15Z"/><path class="cls-2" d="M.79,23.5l.78.25c0-.05,0-.1.05-.14l-.74-.35A1.17,1.17,0,0,0,.79,23.5Z"/><path class="cls-2" d="M2.33,25.25h.12l-.11,0Z"/><path class="cls-2" d="M2.16,22.13l.21.82.14,0-.11-.84Z"/><path class="cls-2" d="M1.72,24.75l-.67.48.09.12h.17l.5-.47Z"/><path class="cls-2" d="M.77,24.61a2.25,2.25,0,0,0,.08.24l.76-.32s0-.09-.05-.14Z"/><path class="cls-2" d="M1,23.93a.81.81,0,0,0,0,.16v.09l.82,0V24Z"/><path class="cls-2" d="M3.12,23l.13.07.43-.73-.22-.12Z"/><path class="cls-2" d="M3.54,23.35l.63-.54c0-.06-.1-.13-.16-.19l-.57.62Z"/><path class="cls-2" d="M3.09,25.17v0h.17l0-.09Z"/><path class="cls-2" d="M2.82,22.07l-.07.85.14,0,.17-.83Z"/><path class="cls-2" d="M3.72,23.69l.78-.28a2.44,2.44,0,0,0-.1-.24l-.73.39A.69.69,0,0,1,3.72,23.69Z"/><path class="cls-2" d="M3.41,25l.2.23h.27l-.36-.33Z"/><path class="cls-2" d="M3.65,24.65l.72.4a1.63,1.63,0,0,0,.11-.23l-.77-.31Z"/><path class="cls-2" d="M3.78,23.85a.76.76,0,0,1,0,.15h.82a2.28,2.28,0,0,0,0-.26Z"/><path class="cls-2" d="M3.77,24.27l.81.13a2.13,2.13,0,0,0,0-.25l-.82,0A.77.77,0,0,1,3.77,24.27Z"/><path class="cls-2" d="M2.48,24.15l-.77.29a1.08,1.08,0,0,0,.16.3l.64-.53S2.48,24.17,2.48,24.15Z"/><path class="cls-2" d="M2.31,25.07a1.14,1.14,0,0,0,.32.07l0-.85-.06,0Z"/><path class="cls-2" d="M2.57,23.91l.05,0-.14-.84a.91.91,0,0,0-.31.12Z"/><path class="cls-2" d="M3.67,24.09a1,1,0,0,0-.06-.34L2.84,24s0,0,0,.07v0l.8.15A1.1,1.1,0,0,0,3.67,24.09Z"/><path class="cls-2" d="M1.67,23.88l.8.17a.14.14,0,0,1,0-.06l-.71-.43A1.21,1.21,0,0,0,1.67,23.88Z"/><path class="cls-2" d="M2.78,23.93l.53-.65A1.05,1.05,0,0,0,3,23.11l-.29.79Z"/><path class="cls-2" d="M2.75,24.26l.41.74a1.09,1.09,0,0,0,.26-.22l-.62-.56Z"/><path class="cls-4" d="M32.56.15l.13,0L33.41,0h-1.1l0,.19Z"/><path class="cls-4" d="M30.27.46l0-.46H28.16l0,.61C28.88.58,29.58.53,30.27.46Z"/><path class="cls-4" d="M23.92.55h.14c.64,0,1.3.08,1.94.09V0H24l0,.2Z"/><path class="cls-4" d="M21.91.33h0l0-.23L22,0h-2.1C20.56.14,21.24.24,21.91.33Z"/><path class="cls-4" d="M19.58,8.3c-1.27,0-2.55-.14-3.79-.3l-.34,2.71c1.32.17,2.68.27,4,.32Z"/><path class="cls-4" d="M14.12,7.76c-1.25-.21-2.5-.48-3.71-.81L9.7,9.59a40.61,40.61,0,0,0,4,.86Z"/><path class="cls-4" d="M25.05,10.86l-.24-2.72c-1.28.11-2.56.18-3.81.18v2.73C22.34,11,23.7,11,25.05,10.86Z"/><path class="cls-4" d="M8.78,6.48a37.89,37.89,0,0,1-3.56-1.3L4.16,7.7c1.24.52,2.53,1,3.81,1.39Z"/><path class="cls-4" d="M3.67,4.49C2.54,4,1.4,3.36.31,2.72L0,3.24V5.67c.83.46,1.67.9,2.51,1.29Z"/><path class="cls-4" d="M31.09,10l-.55-2.68c-1.26.26-2.53.47-3.77.63l.34,2.71C28.42,10.5,29.76,10.28,31.09,10Z"/><path class="cls-4" d="M34.18,6.46q-1,.27-2,.51l.63,2.65c.44-.1.88-.22,1.32-.33C34.14,8.39,34.16,7.44,34.18,6.46Z"/><path class="cls-4" d="M46.27,1.81l-.94.43c0,1,0,1.59,0,1.59s.58-.59,1,1l1.14-.53Z"/><path class="cls-4" d="M49,3.55l3.56-1.66L51.67,0H50.16L47.85,1.08Z"/><path class="cls-4" d="M56.55,0H53.6l.54,1.14Z"/><path class="cls-5" d="M52.09,13.72l.7.06a6.07,6.07,0,0,1,.56-2,6.72,6.72,0,0,1,.52-1L52,9.48l-.37-.25a8.82,8.82,0,0,0-1.36,3.09,9.7,9.7,0,0,0-.2,1.22Z"/><path class="cls-5" d="M52.94,15.83l-.68.16-2,.48a8.89,8.89,0,0,0,1,2.47A9.26,9.26,0,0,0,52,20c.15.18.29.37.45.54l.48-.45,1.51-1.42A6.16,6.16,0,0,1,52.94,15.83Z"/><path class="cls-5" d="M59.19,20.6H59a6.84,6.84,0,0,1-.79-.05,6.16,6.16,0,0,1-2.13-.67l-.36.68-.92,1.73.49.22a7.59,7.59,0,0,0,1,.38,8.82,8.82,0,0,0,1.89.39,7.52,7.52,0,0,0,.82,0h.26l0-1.3,0-1Z"/><path class="cls-5" d="M58.05,6.27,58,5.43a8.82,8.82,0,0,0-4.26,1.69l1.62,2.19a6.31,6.31,0,0,1,1.32-.74,6.5,6.5,0,0,1,1.64-.43Z"/><path class="cls-5" d="M65.07,10.92l-.61.34a6.31,6.31,0,0,1,.81,3.09,2.3,2.3,0,0,1,0,.26,6.38,6.38,0,0,1-.1,1,6.1,6.1,0,0,1-.29,1l.17.06,1.48.57V10.1l-.24.14Z"/><path class="cls-5" d="M61.09,8.45a5.83,5.83,0,0,1,1.41.71,5.29,5.29,0,0,1,.66.51l1.82-2a8.82,8.82,0,0,0-1.65-1.14A7.9,7.9,0,0,0,62,5.88a8.91,8.91,0,0,0-1.12-.32l-.57,2.67A6.77,6.77,0,0,1,61.09,8.45Z"/><path class="cls-5" d="M61.21,20.21l.95,2.55c.18-.06.34-.15.51-.22a9.17,9.17,0,0,0,.88-.46A8.85,8.85,0,0,0,65,21a7.82,7.82,0,0,0,.7-.71l.16-.17-1-.88-.49-.4-.56-.48a6.22,6.22,0,0,1-1.92,1.54l-.43.19Z"/><path class="cls-5" d="M49.16,13.22c0-.15.05-.3.07-.45a11.21,11.21,0,0,1,.25-1.15l-2.63-.74c-.06.24-.12.48-.17.72q0,.64.06,1.35L49,13.2Z"/><path class="cls-5" d="M48.4,17l1-.24a9.82,9.82,0,0,1-.26-1.61l-2.24.18c0,.65.09,1.32.14,2l.35-.08Z"/><path class="cls-5" d="M55.31,5.15c.14-.06.28-.1.43-.15a9,9,0,0,1,1.12-.33L56.27,2a12.81,12.81,0,0,0-1.67.51l-.31.11Z"/><path class="cls-5" d="M56.53,24A9.23,9.23,0,0,1,55,23.42l-.16.35-1,2.14a12.09,12.09,0,0,0,1.69.6l.27.08.12-.46.1-.37.26-1v-.06Z"/><path class="cls-5" d="M59.65,24.23a5.77,5.77,0,0,1-.72,0c-.17,0-.34,0-.51,0l-.06,1-.06,1.05,0,.63L59,27c.27,0,.53,0,.79,0l.52-.24-.26-2.5Z"/><path class="cls-5" d="M53,23l.35-.5a9.58,9.58,0,0,1-1.25-1l-1,1c.06.22.3,1,.7,2.23l0,0Z"/><path class="cls-5" d="M50.17,23.38a1.9,1.9,0,0,0,.21.19c.14.14.29.27.44.4l.23-1.5-.74.76Z"/><path class="cls-5" d="M48.42,19.31l-.86.4a12.86,12.86,0,0,0,1,1.8L50.84,20a8.32,8.32,0,0,1-.61-1c-.07-.12-.14-.24-.2-.37Z"/><path class="cls-5" d="M52.12,3.75A12.6,12.6,0,0,0,50.48,5l1.76,1.92.08.09.37-.31A8.73,8.73,0,0,1,53.61,6Z"/><path class="cls-5" d="M48.07,8.76l2.11,1.08A9.91,9.91,0,0,1,51,8.46l-.77-.57-.59-.43-.84-.62a12.49,12.49,0,0,0-1,1.52c0,.08-.1.16-.14.24Z"/><path class="cls-5" d="M65.92,7.28c.19.18.4.36.58.56h0V5.29L65.33,6.7C65.54,6.88,65.72,7.08,65.92,7.28Z"/><path class="cls-5" d="M58.75,3.75v.69a8.82,8.82,0,0,1,1.63.09l.38-2.7a10.23,10.23,0,0,0-1.56-.11,4.47,4.47,0,0,0-.52,0Z"/><path class="cls-5" d="M65.38,21.92c-.11.09-.2.2-.31.28l.36.48,1.07,1.38V21.32l-.23-.21A11.4,11.4,0,0,1,65.38,21.92Z"/><path class="cls-5" d="M65,3.23a12.45,12.45,0,0,0-1.9-.84L62.25,5a9.92,9.92,0,0,1,1.49.66Z"/><path class="cls-5" d="M63.44,23.22l-.19.09a10.64,10.64,0,0,1-1.32.52l.58,1.89q.89-.39,1.8-.75l-.71-1.43Z"/><path class="cls-6" d="M56.27,19.15a5.68,5.68,0,0,0,.79.37l.3-.8.26-.7.34-.89-.13,0,.08-.18-.28-.13-.5.87-.42.73Z"/><path class="cls-6" d="M53.9,15.45l-.29.07a6.09,6.09,0,0,0,.25.83L54.7,16l1.54-.6a3.19,3.19,0,0,1-.13-.44Z"/><path class="cls-6" d="M54.08,11.85h0l1.43.73,1,.49.18-.28-.16-.11.07-.09L55.74,12l-.94-.68-.27-.19A5,5,0,0,0,54.08,11.85Z"/><path class="cls-6" d="M54.84,17.94c.09.11.18.23.28.33l1-1,.21-.21.71-.71a3,3,0,0,1-.28-.34l-1.53,1.12-.67.5A4,4,0,0,0,54.84,17.94Z"/><path class="cls-6" d="M58.72,11.56l-.11-1L58.5,9.49l-.07-.64a6.21,6.21,0,0,0-.86.16l.19.71.3,1.08.22.85A3.12,3.12,0,0,1,58.72,11.56Z"/><path class="cls-6" d="M59.22,18.07l0-.8H59v.07a2.48,2.48,0,0,1-.27,0v.12l-.13,1.31-.06.6-.07.63L59,20h.32l0-.6-.08-1.28Z"/><path class="cls-6" d="M56.27,13.77l-2.67-.55a6.13,6.13,0,0,0-.11.86l2.73.13C56.23,14.06,56.25,13.92,56.27,13.77Z"/><path class="cls-6" d="M57.38,11.85l.11.16.12-.08-.44-.77-.93-1.59a5.71,5.71,0,0,0-.72.49l1.12,1.37.5.61A2.23,2.23,0,0,1,57.38,11.85Z"/><path class="cls-6" d="M60.54,12a2.24,2.24,0,0,1,.34.27l1.83-2A5.06,5.06,0,0,0,62,9.71Z"/><path class="cls-6" d="M61.85,13.09l1.26-.57,1-.42a4.75,4.75,0,0,0-.41-.77l-.35.23-1.94,1.26.08.15.32-.14A2,2,0,0,1,61.85,13.09Z"/><path class="cls-6" d="M63.31,17.78l-.77-.61L62,16.75l-.68-.54c-.1.12-.21.23-.32.34l.7.77,1,1.06.06.05a4.66,4.66,0,0,0,.48-.51l.11-.12Z"/><path class="cls-6" d="M59.93,11.51l.29-.88.5-1.54a5,5,0,0,0-.85-.2l-.23,1.49-.16,1A2.26,2.26,0,0,1,59.93,11.51Z"/><path class="cls-6" d="M61.54,19.24l-.84-1.63-.29-.56-.11-.21-.41.17.86,2.59a6,6,0,0,0,.79-.33h0Z"/><path class="cls-6" d="M64.07,16.56h0s0,0,0,0a6,6,0,0,0,.27-.78l-1.27-.34-.84-.22-.53-.13a2,2,0,0,1-.14.41l.59.26.72.32Z"/><path class="cls-6" d="M64.48,13.14l-1.55.24-1,.15A3.73,3.73,0,0,1,62,14h2.54A6.11,6.11,0,0,0,64.48,13.14Z"/><path class="cls-7" d="M56,14.59a2.44,2.44,0,0,0,.07.39,3.19,3.19,0,0,0,.13.44c0,.11.08.22.13.33l2.41-1.28a.3.3,0,0,1,0-.1l-1,.08-.89.07Z"/><path class="cls-7" d="M58,17.13a2.94,2.94,0,0,0,.65.16l.12,0a2.48,2.48,0,0,0,.27,0v-.77l0-2-.11,0-.45,1-.42,1-.14.33-.08.18Z"/><path class="cls-7" d="M57.38,11.85a2.23,2.23,0,0,0-.24.19,2.86,2.86,0,0,0-.54.56l-.07.09.16.11,1.87,1.25.24.16a.27.27,0,0,1,.07-.08L58.76,14,57.49,12Z"/><path class="cls-7" d="M59.26,13.9h0a.16.16,0,0,1,0,.1H62a3.73,3.73,0,0,0,0-.47c0-.15-.07-.3-.11-.44a2,2,0,0,0-.09-.26l-.32.14-.91.38L60,13.6Z"/><path class="cls-7" d="M61,16.6l.06-.05c.11-.11.22-.22.32-.34a2.34,2.34,0,0,0,.29-.41l-.8-.45-1-.56-.58-.32a.18.18,0,0,1-.07.08l.88,1.13.8,1Z"/><path class="cls-7" d="M59.48,11.41l-.19,0-.23,2.48,0,.24a.19.19,0,0,1,.1,0l.11-.22h0l.07-.14,1-1.89.08-.15-.1,0a2.09,2.09,0,0,0-.41-.17A2.26,2.26,0,0,0,59.48,11.41Z"/><path class="cls-8" d="M26.44,16.25l-.36.7a3.68,3.68,0,0,1,1.17.94l.95-.78a5.08,5.08,0,0,0-1.11-1,4.3,4.3,0,0,0-.45-.29Z"/><path class="cls-8" d="M24.8,15.38a5,5,0,0,0-1.39.08l.27,1.2a3.61,3.61,0,0,1,1.5,0l0-.2.2-1A6.2,6.2,0,0,0,24.8,15.38Z"/><path class="cls-8" d="M28.07,20.17a2.6,2.6,0,0,1,0,.4l1.22.14a4.89,4.89,0,0,0,0-.54,4.73,4.73,0,0,0-.42-2l-1.11.5A3.64,3.64,0,0,1,28.07,20.17Z"/><path class="cls-8" d="M27.21,23l.63.64a6.09,6.09,0,0,0,.46-.55A5,5,0,0,0,29,22l-1.14-.46A3.74,3.74,0,0,1,27,22.75Z"/><path class="cls-8" d="M24.87,24.81l0,.17L25,25l.24-.05a4.81,4.81,0,0,0,1.55-.52l-.6-1.07a3.14,3.14,0,0,1-.57.24,3.59,3.59,0,0,1-.86.2Z"/><path class="cls-8" d="M23.6,24.92v0l0-.1.15-.84v-.06l0-.16a3.59,3.59,0,0,1-1.05-.39,3.47,3.47,0,0,1-.33-.18l-.25.36-.44.65a3.62,3.62,0,0,0,.43.24l.38.2a4.61,4.61,0,0,0,.63.2c.13,0,.26.09.4.12Z"/><path class="cls-8" d="M21.41,22.05a3.37,3.37,0,0,1-.4-.86l-1.18.35a4.81,4.81,0,0,0,1,1.76l.14-.12.79-.67A3.7,3.7,0,0,1,21.41,22.05Z"/><path class="cls-8" d="M20.38,18.3A4.71,4.71,0,0,0,20,19.88a2.85,2.85,0,0,0,0,.29v.1h.66l.57,0v-.07a3.57,3.57,0,0,1,.28-1.4Z"/><path class="cls-8" d="M21,16.82a3.06,3.06,0,0,0-.35.37l1,.76a3.54,3.54,0,0,1,1.15-1l-.15-.28-.42-.81A4.86,4.86,0,0,0,21,16.82Z"/><path class="cls-8" d="M18.44,16.93c-.11.2-.22.4-.31.61l1.14.47a4.62,4.62,0,0,1,.33-.67l-.73-.43-.33-.19C18.5,16.79,18.48,16.86,18.44,16.93Z"/><path class="cls-8" d="M19,18.85l-1.19-.29a7,7,0,0,0-.15.9l1.21.13A6,6,0,0,1,19,18.85Z"/><path class="cls-8" d="M17.73,21.44h.06l1-.19.14,0q-.06-.37-.09-.75l-.41,0h-.05l-.76,0c0,.13,0,.26.05.39s0,.26,0,.39S17.72,21.4,17.73,21.44Z"/><path class="cls-8" d="M23.29,13.42a6.77,6.77,0,0,0-.89.21l.37,1.17a6,6,0,0,1,.73-.17Z"/><path class="cls-8" d="M23,26.86l.27-1.2-.06,0-.3-.08-.36-.11-.42,1.15.24.07.37.11Z"/><path class="cls-8" d="M20.67,25.21l-.23.3-.1.13c.11.09.23.15.34.23l.24.16.18.11.28-.49.22-.39.1-.18L21.56,25l-.42-.28-.06,0Z"/><path class="cls-8" d="M19.46,22.76c-.11-.22-.21-.46-.3-.69L18,22.48a5.23,5.23,0,0,0,.37.84l.18-.1.83-.42Z"/><path class="cls-8" d="M24.85,25.79q-.3,0-.6,0H24.1v.13l-.05.71L24,27v0h.91l0-.36,0-.46Z"/><path class="cls-8" d="M22,15.13,21.4,14a6.13,6.13,0,0,0-.78.46l.68,1C21.51,15.37,21.73,15.25,22,15.13Z"/><path class="cls-8" d="M19.21,24.54c.1.13.21.27.32.39l.88-.85a6.57,6.57,0,0,1-.48-.57l-.13.09-.86.63A4,4,0,0,0,19.21,24.54Z"/><path class="cls-8" d="M20.61,16.07l-.83-.9a5.68,5.68,0,0,0-.63.67l1,.78A5.35,5.35,0,0,1,20.61,16.07Z"/><path class="cls-8" d="M30.19,16.41a7.74,7.74,0,0,0-.55-.73l-.93.8a5.3,5.3,0,0,1,.46.6Z"/><path class="cls-8" d="M29.59,17.86a5.34,5.34,0,0,1,.27.7L31,18.21a6.86,6.86,0,0,0-.32-.86Z"/><path class="cls-8" d="M30.09,20h1.23a7,7,0,0,0-.06-.91L30,19.25A6.3,6.3,0,0,1,30.09,20Z"/><path class="cls-8" d="M28.87,14.93a6.25,6.25,0,0,0-.73-.54l-.66,1a5.13,5.13,0,0,1,.6.44Z"/><path class="cls-8" d="M24.91,13.37c-.12,0-.23,0-.35,0s-.37,0-.56,0l0,1.22c.23,0,.46,0,.69,0h.06Z"/><path class="cls-8" d="M28,24.88l-.17-.23a5.31,5.31,0,0,1-.63.42l.6,1.06a5.54,5.54,0,0,0,.65-.42l.12-.08Z"/><path class="cls-8" d="M27.19,13.88a6.74,6.74,0,0,0-.86-.3L26,14.75a6,6,0,0,1,.71.26Z"/><path class="cls-8" d="M26.87,26.59l-.36-1-.07-.19a6,6,0,0,1-.72.22l.07.3.2.89A5.24,5.24,0,0,0,26.87,26.59Z"/><path class="cls-8" d="M30,21.2l1.2.22a6.85,6.85,0,0,0,.11-.91l-1.23-.06A6.14,6.14,0,0,1,30,21.2Z"/><path class="cls-8" d="M29.47,22.74l1.09.56a6.24,6.24,0,0,0,.36-.84l-1.15-.41A5.32,5.32,0,0,1,29.47,22.74Z"/><path class="cls-8" d="M28.53,24.07l.4.39.22.2.26.25a6.5,6.5,0,0,0,.59-.69l-1-.73A6.71,6.71,0,0,1,28.53,24.07Z"/><path class="cls-8" d="M23.7,18.66l-.56-1.09a3.37,3.37,0,0,0-.32.19l.69,1Z"/><path class="cls-8" d="M25,23v0l-.21-1.18-.22,0,.05.91v.31A2.21,2.21,0,0,0,25,23Z"/><path class="cls-8" d="M21.55,20.17v.14l.46,0,.76,0v-.08a.57.57,0,0,1,0-.13L22,20l-.44,0A1.85,1.85,0,0,0,21.55,20.17Z"/><path class="cls-8" d="M22.91,22.63l.15.1.59-1.07-.18-.12-.48.65-.24.34Z"/><path class="cls-8" d="M22.11,18.45l1,.72.14-.16-.89-.85A2.17,2.17,0,0,0,22.11,18.45Z"/><path class="cls-8" d="M23.72,17.35,24,18.54a.78.78,0,0,1,.21,0l-.16-1.22Z"/><path class="cls-8" d="M24,23.05l.19-1.21L24,21.79,23.63,23Z"/><path class="cls-8" d="M22.83,20.61l-.81.22-.38.09.12.36.47-.19.67-.28A1.18,1.18,0,0,1,22.83,20.61Z"/><path class="cls-8" d="M22.36,22.05l.84-.75-.13-.17-1,.69a1.84,1.84,0,0,0,.17.22l.06.07Z"/><path class="cls-8" d="M22.85,19.67a1.46,1.46,0,0,1,.07-.19L21.8,19a3,3,0,0,0-.13.35l1.11.34.06,0Z"/><path class="cls-8" d="M25.16,18.63l.19.1.64-1a2.68,2.68,0,0,0-.33-.18Z"/><path class="cls-8" d="M25.63,19l.15.16.95-.77a3.33,3.33,0,0,0-.25-.28Z"/><path class="cls-8" d="M26,19.41l.09.2,1.15-.41a3.45,3.45,0,0,0-.14-.34Z"/><path class="cls-8" d="M25.3,21.64l-.19.1.47,1.13a2.59,2.59,0,0,0,.33-.17l-.17-.3-.27-.46Z"/><path class="cls-8" d="M25.74,21.27a.75.75,0,0,1-.15.16l.12.12.64.72.06.07a3.19,3.19,0,0,0,.26-.26L26.58,22l-.75-.64Z"/><path class="cls-8" d="M27,21.57a2.6,2.6,0,0,0,.16-.34L26,20.78,26,21,26,21l.92.51Z"/><path class="cls-8" d="M24.7,17.27l-.1,1.22a.71.71,0,0,1,.21,0l.26-1.2A2.35,2.35,0,0,0,24.7,17.27Z"/><path class="cls-8" d="M26.14,19.78a1.62,1.62,0,0,1,0,.22h1.23a2.31,2.31,0,0,0,0-.37Z"/><path class="cls-8" d="M27.38,20.26l-1.23,0a1.5,1.5,0,0,1,0,.22l1.21.19C27.36,20.51,27.37,20.38,27.38,20.26Z"/><path class="cls-8" d="M24.19,20.27l-.27.1-.88.32a1.82,1.82,0,0,0,.24.43l.56-.45.4-.32A.56.56,0,0,1,24.19,20.27Z"/><path class="cls-8" d="M24.36,20.44l-.36,1-.06.14a1.37,1.37,0,0,0,.49.09v-.07l0-1.15Z"/><path class="cls-8" d="M23,19.88l1,.2.18,0,0-.09-.17-.1-.89-.52a1.73,1.73,0,0,0-.11.32.67.67,0,0,0-.06.15Z"/><path class="cls-8" d="M24.33,19.92l.08,0-.21-1.21a1.5,1.5,0,0,0-.46.17Z"/><path class="cls-8" d="M24.93,20.26l1,.18a1.23,1.23,0,0,0,0-.27,1.31,1.31,0,0,0-.08-.48l-1.16.39a.29.29,0,0,1,0,.09v0a0,0,0,0,1,0,0Z"/><path class="cls-8" d="M24.65,20l.79-.94a1.67,1.67,0,0,0-.43-.25l-.44,1.15Z"/><path class="cls-8" d="M24.61,20.42l.21.37.4.69a1.61,1.61,0,0,0,.38-.31l-.69-.6-.23-.21Z"/><path class="cls-8" d="M10.24,18.13l-.67-.27a1.92,1.92,0,0,1-.49.73l.51.52A3,3,0,0,0,10.24,18.13Z"/><path class="cls-8" d="M8.56,15.2a2,2,0,0,1,.68.55l.48-.39.08-.07-.06-.06a3.12,3.12,0,0,0-.86-.67Z"/><path class="cls-8" d="M9,19.56l-.35-.63a2.23,2.23,0,0,1-.83.26l.06.71A2.76,2.76,0,0,0,9,19.56Z"/><path class="cls-8" d="M9.54,16.23a2.09,2.09,0,0,1,.18.85,1.93,1.93,0,0,1,0,.24l.71.08c0-.11,0-.21,0-.32a2.66,2.66,0,0,0-.25-1.14l-.61.27h0Z"/><path class="cls-8" d="M5.22,16A2.72,2.72,0,0,0,5,17.08v.06h.72v-.05a2.05,2.05,0,0,1,.16-.81Z"/><path class="cls-8" d="M6,18.45a1.87,1.87,0,0,1-.42-.77l-.69.21a2.8,2.8,0,0,0,.56,1Z"/><path class="cls-8" d="M6.62,15.22l-.33-.63a2.68,2.68,0,0,0-.86.71l0,0,.56.44a2.47,2.47,0,0,1,.28-.28A2.14,2.14,0,0,1,6.62,15.22Z"/><path class="cls-8" d="M7.15,15A2,2,0,0,1,8,15l.14-.71a3.07,3.07,0,0,0-1.17,0Z"/><path class="cls-8" d="M7.23,19.16a2,2,0,0,1-.81-.33l-.4.59a2.75,2.75,0,0,0,1.09.45Z"/><path class="cls-8" d="M4.41,16.31l-.7-.17a4.89,4.89,0,0,0-.09.53l.71.07A3.25,3.25,0,0,1,4.41,16.31Z"/><path class="cls-8" d="M4.37,17.7a3.29,3.29,0,0,1,0-.44l-.72,0a3.07,3.07,0,0,0,.07.53Z"/><path class="cls-8" d="M7.4,20.37l-.05.72h.53l0-.72Z"/><path class="cls-8" d="M7.05,13.84l-.13-.71a3.3,3.3,0,0,0-.52.13l.22.68A3,3,0,0,1,7.05,13.84Z"/><path class="cls-8" d="M6.88,20.3a2.25,2.25,0,0,1-.42-.13l-.25.68a4.44,4.44,0,0,0,.52.15Z"/><path class="cls-8" d="M5.22,14.53l-.35-.37a3.41,3.41,0,0,0-.37.39l.56.45.06-.06a2,2,0,0,1,.24-.26Z"/><path class="cls-8" d="M6.14,14.13l-.32-.64-.39.23-.07,0,0,.07.36.53A3,3,0,0,1,6.14,14.13Z"/><path class="cls-8" d="M4.72,19.87l.52-.5A2.22,2.22,0,0,1,5,19l-.58.42A3.36,3.36,0,0,0,4.72,19.87Z"/><path class="cls-8" d="M3.83,18.44a3.06,3.06,0,0,0,.22.49l.63-.33c-.06-.13-.12-.27-.17-.4Z"/><path class="cls-8" d="M5.55,20.52l.09.06L6,20c-.12-.07-.25-.16-.36-.24l-.36.47-.08.1Z"/><path class="cls-8" d="M4.76,15.43l-.62-.37a3.49,3.49,0,0,0-.23.48l.66.28A2.35,2.35,0,0,1,4.76,15.43Z"/><path class="cls-8" d="M10.54,18.59l.64.33a5.16,5.16,0,0,0,.21-.49l-.67-.24A3.52,3.52,0,0,1,10.54,18.59Z"/><path class="cls-8" d="M10.1,14.93a2.33,2.33,0,0,1,.27.35l.59-.4a2.59,2.59,0,0,0-.32-.42Z"/><path class="cls-8" d="M11.46,15.94a4.45,4.45,0,0,0-.19-.51l-.65.3c.05.13.11.27.15.41Z"/><path class="cls-8" d="M9.38,14.3l.35.26.14-.16.32-.39L10,13.84l-.2-.14Z"/><path class="cls-8" d="M10.88,16.56a3.25,3.25,0,0,1,0,.44h.71a4.58,4.58,0,0,0,0-.53Z"/><path class="cls-8" d="M8.45,13.81l.08-.71a4.58,4.58,0,0,0-.53,0v.72A3.24,3.24,0,0,1,8.45,13.81Z"/><path class="cls-8" d="M9.24,20l.35.63a3.52,3.52,0,0,0,.45-.3l-.44-.57A2.82,2.82,0,0,1,9.24,20Z"/><path class="cls-8" d="M8.35,20.3l.16.7A3.33,3.33,0,0,0,9,20.84l-.25-.67A3.38,3.38,0,0,1,8.35,20.3Z"/><path class="cls-8" d="M10.85,17.69l.71.13a5.06,5.06,0,0,0,.06-.53l-.72,0A2.2,2.2,0,0,1,10.85,17.69Z"/><path class="cls-8" d="M8.92,14.06l.29-.66a5.17,5.17,0,0,0-.51-.18l-.19.69A2.86,2.86,0,0,1,8.92,14.06Z"/><path class="cls-8" d="M10,19.37l.52.49a3.36,3.36,0,0,0,.34-.41L10.27,19A3,3,0,0,1,10,19.37Z"/><path class="cls-8" d="M6.73,15.63l-.08,0,.4.6.11-.07-.27-.53,0-.11Z"/><path class="cls-8" d="M6.23,16.08l.58.42.08-.1-.52-.49C6.32,16,6.28,16,6.23,16.08Z"/><path class="cls-8" d="M7,17.89l-.42.58.18.11L7.13,18Z"/><path class="cls-8" d="M7.7,18.79l.21,0-.12-.71H7.66Z"/><path class="cls-8" d="M6,16.59l.68.21a.61.61,0,0,1,0-.12l-.66-.29A1.59,1.59,0,0,0,6,16.59Z"/><path class="cls-8" d="M7.33,18l-.21.69.22.05.11-.71A.27.27,0,0,1,7.33,18Z"/><path class="cls-8" d="M7.18,15.43l.08.33.1.37.12,0,0-.3-.05-.41Z"/><path class="cls-8" d="M6.34,18.22l.53-.48-.08-.09-.59.4A1.15,1.15,0,0,0,6.34,18.22Z"/><path class="cls-8" d="M6.69,17.46a.56.56,0,0,0,0-.12L6,17.53a1.59,1.59,0,0,0,.07.2Z"/><path class="cls-8" d="M5.9,17.09v.08l.72,0V17L5.91,17A.66.66,0,0,0,5.9,17.09Z"/><path class="cls-8" d="M8.31,15.53l-.18.4L8,16.18l.11.06L8.3,16l.2-.34Z"/><path class="cls-8" d="M8.79,15.85,8.62,16l-.33.34.09.09.47-.38L8.94,16Z"/><path class="cls-8" d="M8.46,18.57l-.36-.63A.39.39,0,0,1,8,18l.27.66A1.21,1.21,0,0,0,8.46,18.57Z"/><path class="cls-8" d="M7.75,15.38l0,.47,0,.25.13,0,0-.24.1-.47Z"/><path class="cls-8" d="M9.22,16.52a1.8,1.8,0,0,0-.08-.21l-.65.33,0,.11Z"/><path class="cls-8" d="M8.9,18.2l-.54-.47-.09.09.48.53A.71.71,0,0,0,8.9,18.2Z"/><path class="cls-8" d="M9.2,17.7l-.67-.26a.61.61,0,0,1,0,.12l.63.34A1.21,1.21,0,0,0,9.2,17.7Z"/><path class="cls-8" d="M9.3,16.78l-.71.09a.62.62,0,0,1,0,.13h.72A1.64,1.64,0,0,0,9.3,16.78Z"/><path class="cls-8" d="M9.32,17.14l-.72,0a.49.49,0,0,1,0,.12l.71.11C9.31,17.28,9.31,17.21,9.32,17.14Z"/><path class="cls-8" d="M7.45,17.14l-.67.25a.89.89,0,0,0,.14.25l.56-.45Z"/><path class="cls-8" d="M7.61,17.25H7.55l-.24.68a.87.87,0,0,0,.28,0Z"/><path class="cls-8" d="M7.58,16.92l-.12-.71a.79.79,0,0,0-.27.1l.34.63Z"/><path class="cls-8" d="M7.77,17a.43.43,0,0,0,0,0v0l.7.13a.78.78,0,0,0,0-.16.92.92,0,0,0-.05-.28Z"/><path class="cls-8" d="M6.74,16.91l.71.14s0,0,0-.05l-.62-.36A1,1,0,0,0,6.74,16.91Z"/><path class="cls-8" d="M7.67,16.93l0,0,.46-.55a1,1,0,0,0-.25-.15Z"/><path class="cls-8" d="M7.74,17.2l0,0,.36.62a1,1,0,0,0,.22-.18Z"/><path class="cls-9" d="M23.76,30.64l-.36-.2-.53-.29-.59-.32-.17-.09-.5-.25-.26-.14-1.52-.72-.43-.19c-.67-.29-1.33-.57-2-.82-.45-.17-.91-.33-1.35-.48L15.53,27c-.45-.15-.91-.29-1.35-.41a36.25,36.25,0,0,0-8.86-1.38H3.1l-.65,0H2.33l-.3,0-.22,0-.5.05H1.14l-.51.07L0,25.51V33C5.11,30.92,14.94,27.56,23.76,30.64Z"/><path class="cls-9" d="M48.57,33.82l.76-.5.1-.61-.91.6C48.54,33.48,48.55,33.66,48.57,33.82Z"/><path class="cls-9" d="M64.83,24.75l-.52.22q-.91.36-1.8.75l-1.16.51-.92.43-.11.05L59.8,27l-1.32.65-.71.34c-1.29.66-2.5,1.31-3.62,1.94l-.46.26c.05.14.11.28.16.43A67.9,67.9,0,0,1,66.5,24.78v-.66l-.8.3Z"/><path class="cls-10" d="M48.85,36.39l.48-3.07-.76.5C48.74,35.41,48.85,36.39,48.85,36.39Z"/><path class="cls-10" d="M31.78,43c-.06-.86-.12-1.72-.17-2.58l-.78-.31.67-1.64c-.08-1.58-.13-3.12-.14-4.56-1-.39-2-.83-3.13-1.31L26.88,32l-.89-.4-.56-.25-.25-.1c-.47-.2-.95-.4-1.42-.57C14.94,27.56,5.11,30.92,0,33v3.59c1.29-.53,2.49-1,3.67-1.37L4.61,38c-1.15.39-2.32.82-3.58,1.34L.48,38H0v2H1.38C7.91,38.72,20.32,37.47,31.78,43ZM19.11,36l.32-2.93a22.89,22.89,0,0,1,4.1.81l-.83,2.82A20.74,20.74,0,0,0,19.11,36Zm9.38,3.09c-1.06-.46-2.16-.95-3.27-1.45l-.33-.15,1.17-2.7.38.17c1.09.49,2.17,1,3.21,1.42ZM16.67,33H17l0,3h-.33a29.61,29.61,0,0,0-3.47.21l-.35-3A31.3,31.3,0,0,1,16.67,33Zm-6.58.51.54,2.9c-1.2.22-2.44.52-3.7.87l-.8-2.84C7.47,34.07,8.8,33.75,10.09,33.51Z"/><path class="cls-10" d="M53.85,30.57c.35.91.72,1.86,1.12,2.84.73-.4,1.46-.8,2.17-1.16l1.35,2.62c-.78.4-1.57.83-2.37,1.27.62,1.41,1.28,2.82,2,4.2a29.73,29.73,0,0,1,8.4-4.93v-4l-.94-2.76.94-.3V24.78A67.9,67.9,0,0,0,53.85,30.57Zm6.85,3.21-1.26-2.67c1.25-.59,2.5-1.13,3.69-1.6l1.09,2.73C63.08,32.7,61.9,33.21,60.7,33.78Z"/><path class="cls-11" d="M30.83,40.06l.78.31c0-.65-.08-1.31-.11-1.95Z"/><path class="cls-11" d="M66.5,31.37V28.31l-.94.3Z"/><path class="cls-11" d="M59.44,31.11l1.26,2.67c1.2-.57,2.38-1.08,3.52-1.54l-1.09-2.73C61.94,30,60.69,30.52,59.44,31.11Z"/><path class="cls-11" d="M26.06,34.78l-1.17,2.7.33.15c1.11.5,2.21,1,3.27,1.45l1.16-2.71c-1-.45-2.12-.93-3.21-1.42Z"/><path class="cls-11" d="M10.63,36.41l-.54-2.9c-1.29.24-2.62.56-4,.93l.8,2.84C8.19,36.93,9.43,36.63,10.63,36.41Z"/><path class="cls-11" d="M1,39.35c1.26-.52,2.43-1,3.58-1.34l-.94-2.79c-1.18.39-2.38.84-3.67,1.37V38H.48Z"/><path class="cls-11" d="M0,40v.29c.42-.1.88-.19,1.38-.29Z"/><path class="cls-11" d="M16.67,36H17l0-3h-.37a31.3,31.3,0,0,0-3.82.23l.35,3A29.61,29.61,0,0,1,16.67,36Z"/><path class="cls-11" d="M58.49,34.87l-1.35-2.62c-.71.36-1.44.76-2.17,1.16.36.9.74,1.81,1.15,2.73C56.92,35.7,57.71,35.27,58.49,34.87Z"/><path class="cls-11" d="M23.53,33.87a22.89,22.89,0,0,0-4.1-.81L19.11,36a20.74,20.74,0,0,1,3.59.7Z"/><path class="cls-12" d="M61.13,54l-.38-.91.43-.18L61.62,54h1.91l-.61-1.74c1.17-.41,2.38-.76,3.58-1v-5c-1.5.48-2.36.85-2.37.85l-.83-2L61,44.76v0l.1-1.31L62.37,43a34.26,34.26,0,0,1,3.88-1.34l.25.85V35.41a29.73,29.73,0,0,0-8.4,4.93,51,51,0,0,0,3.25,5.57l3.13,2a8.31,8.31,0,0,1-.77,1l.06.08h-.14a9.44,9.44,0,0,1-3.14,2.19l-1-2.19H57.75l.76,2.88a20.41,20.41,0,0,1-4.38.6L54,49H52.35l-.11,3.48a37.72,37.72,0,0,1-4.15-.37L48.52,49H46.78l-.49,2.83c-1.26-.22-2.6-.49-4-.82l.48-2H41l-.41,1.57-.5-.13c-1-.28-2.12-.54-3.22-.78L37,49H35.25l-.06.33c-.63-.12-1.27-.23-1.93-.33h-.95l0-.14-.87-.13.52-3.81c-.06-.65-.11-1.31-.16-2-11.46-5.48-23.87-4.23-30.4-3-.5.1-1,.19-1.38.29V44.7l1.4-.19L2,49c-.66.08-1.3.18-1.95.27V54ZM26.24,43.7c1.36.09,2.7.22,4,.37l-.52,4.45c-1.23-.15-2.52-.27-3.81-.36Zm-5.79-.26c1.35,0,2.7.07,4,.14l-.25,4.47c-1.25-.07-2.54-.11-3.84-.14ZM18.34,44H19v4h-.66a29.78,29.78,0,0,0-3.54,0l-.13-4.47A7.54,7.54,0,0,1,18.34,44Zm-5.45-.46L13.08,48c-1.27.06-2.56.13-3.86.22L8.9,43.77C10.24,43.67,11.58,43.6,12.89,43.54Zm-5.76.37.38,4.46c-1.27.11-2.57.23-3.85.38l-.5-4.45C4.48,44.15,5.82,44,7.13,43.91Z"/><path class="cls-10" d="M60.75,53.09l.38.91h.49l-.44-1.09Z"/><path class="cls-10" d="M60.49,51.19A9.44,9.44,0,0,0,63.63,49H59.52Z"/><path class="cls-10" d="M64.48,47.92l-3.13-2a25.2,25.2,0,0,0,2.36,3A8.31,8.31,0,0,0,64.48,47.92Z"/><path class="cls-10" d="M62.37,43l-1.25.53L61,44.79v0l2.27.35.83,2s.87-.37,2.37-.85V42.46l-.25-.85A34.26,34.26,0,0,0,62.37,43Z"/><path class="cls-10" d="M63.53,54h3V51.21c-1.2.29-2.41.64-3.58,1Z"/><path class="cls-10" d="M18.34,48H19V44h-.66a7.54,7.54,0,0,0-3.67-.52L14.8,48A29.78,29.78,0,0,1,18.34,48Z"/><path class="cls-10" d="M13.08,48l-.19-4.47c-1.31.06-2.65.13-4,.23l.32,4.46C10.52,48.14,11.81,48.07,13.08,48Z"/><path class="cls-10" d="M1.4,44.51,0,44.7v4.52C.65,49.13,1.29,49,2,49Z"/><path class="cls-10" d="M24.46,43.58c-1.31-.07-2.66-.12-4-.14l-.08,4.47c1.3,0,2.59.07,3.84.14Z"/><path class="cls-10" d="M7.51,48.37l-.38-4.46c-1.31.11-2.65.24-4,.39l.5,4.45C4.94,48.6,6.24,48.48,7.51,48.37Z"/><path class="cls-10" d="M48.09,52.11a37.72,37.72,0,0,0,4.15.37L52.35,49H48.52Z"/><path class="cls-10" d="M42.31,51c1.38.33,2.72.6,4,.82L46.78,49h-4Z"/><path class="cls-10" d="M30.25,44.07c-1.31-.15-2.65-.28-4-.37l-.32,4.46c1.29.09,2.58.21,3.81.36Z"/><path class="cls-10" d="M54.13,52.48a20.41,20.41,0,0,0,4.38-.6L57.75,49H54Z"/><path class="cls-10" d="M36.85,49.66c1.1.24,2.18.5,3.22.78l.5.13L41,49H37Z"/><path class="cls-10" d="M35.19,49.33l.06-.33h-2C33.92,49.1,34.56,49.21,35.19,49.33Z"/><path class="cls-10" d="M31.42,48.73l.87.13c-.12-1.22-.24-2.55-.35-3.94Z"/><line class="cls-13" x1="32.31" y1="49" x2="32" y2="49"/><path class="cls-9" d="M34.15,9.29c0,.65,0,1.27,0,1.85,0,.88.07,1.68.15,2.35,0,.34.05.64.07.95.36,6.15-2.56,8.31-3,16.21-.05,1-.07,2.06-.06,3.21,0,1.44.06,3,.14,4.56,0,.64.07,1.3.11,1.95.05.86.11,1.72.17,2.58,0,.66.1,1.32.16,2,.11,1.39.23,2.72.35,3.94l0,.14H63.77l-.06-.08a25.2,25.2,0,0,1-2.36-3,51,51,0,0,1-3.25-5.57c-.7-1.38-1.36-2.79-2-4.2-.41-.92-.79-1.83-1.15-2.73s-.77-1.93-1.12-2.84c-.05-.15-.11-.29-.16-.43l-.3-.82c-.67-1.84-1.21-3.44-1.6-4.65s-.64-2-.7-2.23l0-.06,0,.09L50.82,24l-.35,2.17L50,29l-.6,3.76-.1.61-.48,3.07s-.11-1-.28-2.57c0-.16,0-.34,0-.51-.24-2.24-.57-5.47-.88-8.91-.08-.79-.15-1.6-.22-2.4s-.17-1.9-.24-2.84c0-.2,0-.41,0-.61,0-.41-.07-.82-.1-1.22-.05-.69-.1-1.36-.14-2-.06-.83-.11-1.63-.15-2.37q0-.7-.06-1.35c0-.72,0-1.38,0-2,0-.09,0-.2,0-.29,0-1.37,0-2.41-.13-3.2a10.43,10.43,0,0,0-.22-1.33c-.4-1.58-1-1-1-1s0-.59,0-1.59c0-.59,0-1.33.05-2.19V0H34.45c-.12,2.17-.22,4.39-.27,6.46C34.16,7.44,34.14,8.39,34.15,9.29Z"/></g></g></g></svg>