<svg xmlns="http://www.w3.org/2000/svg" viewBox="0 0 66.5 54"><defs><style>.cls-1{fill:#2774c1;}.cls-2{fill:#415668;}.cls-3{fill:none;stroke:#415668;stroke-linecap:round;stroke-linejoin:round;stroke-width:0;}.cls-4{fill:#6ab3ef;}.cls-5{fill:#f7da08;}</style></defs><title>Recurso 67pintura_trozo_1</title><g id="Capa_2" data-name="Capa 2"><g id="Capa_1-2" data-name="Capa 1"><g id="Silencio"><path class="cls-1" d="M2,.17A5.79,5.79,0,0,1,2.07,1h0c0,.12,0,.24,0,.36l.05.09L2,1.48c0,.11,0,.22,0,.32l-.47-.07a2.8,2.8,0,0,1-.3.15l-.08-.21L0,1.49v1l1.63.64c-.09.21-.19.42-.3.62a8.42,8.42,0,0,0,1.5-.68l.41.75,2.32.93A10.66,10.66,0,0,1,3.08,8.47L1.68,7A10.67,10.67,0,0,1,0,7.38V8.77l.79,1.41a8.26,8.26,0,0,1-.79.39v2l.93,2.49c-.3.11-.62.22-.93.31v1.34l.88-.63.37.57c.52-.28,1-.55,1.57-.81L4,18.32c-1,.5-2,1-3,1.64-.33.24-.66.49-1,.76v5.11l.32-.16L.5,26l1.07-.57-.16-.33c1.86-.91,3.68-1.74,5.42-2.48l0,.09c.37-.18.73-.37,1.1-.54v0l.23-.09c1-.5,2.07-1,3.07-1.41l.08.2,1.32-.46-.12-.3c2.2-.93,4.36-1.76,6.42-2.46l.28.88,1.34-.31.54,2.67c-1.67.34-3.42.79-5.2,1.33-.73.29-1.45.57-2.19.89L13.66,23l-1.28.45.1.25c-1.94.85-4,1.82-6.05,2.87l-.28-.6L4.9,26.5l.31.65C3.55,28,1.79,29,0,30v7.93l.72,1.31L0,39.61v2.31l.38.68L0,42.82v3.24L.15,46,1.4,48.41,0,49.13v1.11c1.27-.66,2.5-1.3,3.62-1.9l1.43,2.88-4,2.1L0,51.19V54H19.5l2.42-2.09a16.67,16.67,0,0,0,1.24,1.29l-.76.8h.08s0,0,0,0l3.76-2a16.89,16.89,0,0,0,1,1.77l-.43.31h5.86c-.07-.1-.16-.19-.24-.29l1.13-.87a6.13,6.13,0,0,0,.56.68l-.48.48h2.63a5,5,0,0,1-.63-.38l.79-1.2a4,4,0,0,0,1.58.67l-.16.91h1.33l-.08-.86a3.85,3.85,0,0,0,1.64-.52l.4.75,1.26.63h1.48l-.5-.49a5.94,5.94,0,0,0,.55-.69l1.13.86c-.07.11-.17.21-.25.32h.46a24.36,24.36,0,0,0,1.59-2.87l2.34,1.12c-.32.67-.63,1.26-.91,1.75h2.34c.09-.38.18-.77.25-1.16L52,53a24.59,24.59,0,0,0,1.81-2.12l-2.72-.14c0-.27,0-.55,0-.83s0-.83,0-1.25l4.23-.31c0,.38,0,.76,0,1.15l1.93,1.19A24.6,24.6,0,0,1,55,53.78,1.74,1.74,0,0,0,55,54h7.85l-2.27-.73c0-.1,0-.2.07-.3L58,52a29.49,29.49,0,0,0,1.15-4l2.89.64c-.09.46-.22.93-.34,1.39l2,.12A15.69,15.69,0,0,1,63,54H65.1c.29-.41.57-.82.83-1.24a13.2,13.2,0,0,0,.32-2.27h.25V48.17l-.3,0a18.12,18.12,0,0,0-.73-3.57l1-.32V41.62l-1.85.79a29.27,29.27,0,0,0-1.71-3.33l2.35-1.39c.45.75.84,1.5,1.21,2.25V35.59h-.39l.08-1.19c-.18-.31-.36-.61-.56-.92a4.7,4.7,0,0,1-1.79-.74l.63-.92c-.22-.29-.43-.58-.66-.87l.46-.4-.12-.15,1-.69,0,0,.15-.12a1.43,1.43,0,0,1-.2-.36l1-.39h0l.09,0a.2.2,0,0,0,0,.08l-.06,0,.14.18,0-.14h0v-.56l-.08,0-.59-1.07a1.56,1.56,0,0,1,.47-.17l.2,1.17V25.14a3.56,3.56,0,0,0-.73.09L65.51,24a4.69,4.69,0,0,1,1-.11v-7.1l-.3-1.36.3-.08V13.19a12.35,12.35,0,0,1-2.42.48l-.14-1.58-.67-.35q.3-.6.54-1.23v-.06h0l.09-.23.44.16a9.13,9.13,0,0,0,2.13-.61V8.69l-2.06-.38a11.4,11.4,0,0,0,.19-1.66l.64,0L65,6h-.35a13.26,13.26,0,0,0-.11-1.67l.3,0L63.36,1.63a.55.55,0,0,0,.18-.16l.35.32c-.11-.31-.21-.63-.35-.93L63.7.79a.13.13,0,0,1,0-.06L64.35.5l1.1-.5H63.79l-.32.4a.67.67,0,0,0-.21-.13l.1-.27h-.53l0,.23a.83.83,0,0,0-.22.08L62.48,0H61.37l1,.6a.85.85,0,0,0-.09.22L59.23.19l-.52.43c0,.12,0,.24,0,.35v.22l-3.11.16c0-.13,0-.25,0-.38s0-.4,0-.6L58,.56C57.79.36,57.6.18,57.4,0H53.54a8.64,8.64,0,0,0,0,.88v.19h-.33L52.9,2.34a2.65,2.65,0,0,0-.48-.07l.1-1.18-1.05,0,.15,1.18a3.55,3.55,0,0,0-.47.09l-.33-1.26H50.5V.88c0-.27,0-.55,0-.82l0-.06h-3.7a8.6,8.6,0,0,0-1,1.07L44.45,0H41.14a10.47,10.47,0,0,0-.6,1.21L38,.16,38.09,0H32a20.33,20.33,0,0,0-1.3,3.52L27.8,2.69c.18-.68.4-1.34.63-2a13.37,13.37,0,0,0-2.24,2.39L24.1,1.57A15,15,0,0,1,25.4,0H12.63l2.2.81A19.42,19.42,0,0,1,13.91,3L11.14,1.55A16.33,16.33,0,0,0,11.79,0h-1c0,.33,0,.67,0,1H9.09l-.25.45,2,.09a17.29,17.29,0,0,1-.24,2L7.9,3.07l0-.29a12.39,12.39,0,0,1-1,1.1l-1.92-2L3.54,1.67a6.55,6.55,0,0,0,0-.89c0-.17,0-.35,0-.52-.08.07-.14.16-.22.23L2.93,0H1.27l.14.25ZM64.6,34a4.27,4.27,0,0,0,.72.21l-.27,1.2a8.89,8.89,0,0,1-.88-.26ZM22.13,28.66v0l1.95-.35.14.95v-.74h.57c.52,0,1,0,1.54,0l-.2,3.71-1.35,0h-.11l.06.43c-.72.12-1.44.25-2.14.39L22.38,32l0,.35c-.63,0-1.27.11-1.9.18l-.41-3.69C20.76,28.78,21.44,28.71,22.13,28.66Zm12.52,1.87-1.54,3.38a17.15,17.15,0,0,0-1.65-.65l.39-1.18h-.66l-.08-4.39h.66c.59,0,1.18,0,1.75.05l-.12,2.32C33.82,30.2,34.25,30.35,34.65,30.53Zm.73,1.79L35.94,28c.82.11,1.63.26,2.41.44l-.82,3.76q.45.3.87.63l-2.27,2.93a16.11,16.11,0,0,0-1.45-1l1.37-2.29C35.83,32.4,35.61,32.35,35.38,32.32ZM49.51,6q.15.43.33.87l1.67-.61a.87.87,0,0,0,.11.18L50.17,7.58a2.14,2.14,0,0,1,.1.22l-1.08.58.11.15-2,1.82a7.65,7.65,0,0,1-.51-.65l.71-.49c-.18-.36-.34-.72-.49-1.08l-.88.35a7.13,7.13,0,0,1-.26-.78l.88-.24-.15-.39Zm-.7-.62a3.22,3.22,0,0,1,.39-1L51.56,5.7a.73.73,0,0,0-.07.19Zm2,4.88L51,9.63a3.57,3.57,0,0,0,.47.11l0,.08c.28.38.57.74.88,1.1l-.06-1.14a3.91,3.91,0,0,0,.48,0l.48,2.68a7.64,7.64,0,0,1-.82.1l-.05-.92-1.95,1.95A18.82,18.82,0,0,1,49,11.7h0a4.69,4.69,0,0,1-.67-.42l1.61-2.2a3.34,3.34,0,0,0,.4.25L49,11.63Zm3.52,2.6c.26.21.53.4.81.59A7.55,7.55,0,0,0,56,13l1.33,2.38a10.28,10.28,0,0,1-2.74,1l-.15.27-.26-.17a8.39,8.39,0,0,1-1.12.16l-.09-1-.47-.35.4-.54L52.82,14a7,7,0,0,0,.78-.11ZM53.55,9.5A3.42,3.42,0,0,0,54,9.29l1.36,2.37a5.17,5.17,0,0,1-.75.36Zm7.79,8.68a14.55,14.55,0,0,1-1.69,1.12l-.46-.81,0,.13a16,16,0,0,1-2.24-.68l1.09-3a16.79,16.79,0,0,0,1.83.56l-.12.57ZM50.68,13.92,50.2,16.6a10.74,10.74,0,0,1-4.14-1.69l1.54-2.26A7.87,7.87,0,0,0,50.68,13.92ZM48.35,6.2l-2.73.13V6a4.35,4.35,0,0,1,0-.51l2.72.21c0,.1,0,.2,0,.3Zm-2.34,5L43.93,13A10.56,10.56,0,0,1,41.8,9.07l2.62-.78A7.83,7.83,0,0,0,46,11.22ZM44.57,16c.09.07.2.13.29.19l.2-1a34,34,0,0,1,6.7,2.23l-.45,1.06a13.36,13.36,0,0,0,1.55,0l.2-.44c.7.35,1.4.74,2.08,1.15l-.22-1a11.31,11.31,0,0,0,1.6-.48l1,2.56-.41.13c.67.46,1.33.93,2,1.43l-1.86,2.59a35.33,35.33,0,0,0-5-3.19h-.12q-.49,0-1,0l.17-2.67-.78,1.85c-.49-.22-1-.43-1.51-.63l-.25,1.11a14.57,14.57,0,0,1-2-.58l.43-1.16c-.72-.23-1.44-.43-2.17-.61l-.43.76a14.71,14.71,0,0,1-1.71-1.11Zm7.14,27.66-2.58-.25a15.62,15.62,0,0,0,.08-1.66c-.17-.33-.34-.66-.52-1l.45-.29c0-.17,0-.35,0-.53l1.09-.12,2.12-1.33a23.8,23.8,0,0,1,1.17,2.31l-1.69.79A17.77,17.77,0,0,1,51.71,43.69Zm.36-13.25c-.55-.6-1.14-1.22-1.77-1.82s-1.56-1.43-2.36-2.07L48,26.5l-.24-.13L49,23.61a34.11,34.11,0,0,1,3.88,2.26l-.59.93c.63.6,1.22,1.21,1.76,1.81ZM47.33,32.7l-2.6,3.48A15.08,15.08,0,0,0,43.07,35L45,31.7c-.41-.41-.85-.8-1.31-1.18l1.64-2a19.66,19.66,0,0,1,2.82,2.8l-1.27,1ZM42.17,44.41a5.32,5.32,0,0,1,.85.86l-1.08.92a4.19,4.19,0,0,0-1.34-1.11l.63-1.3,0,0c-.08-.33-.14-.66-.24-1l.24-.07a5.52,5.52,0,0,0-.77-.29l.38-1.4a6.93,6.93,0,0,1,1,.37l-.55,1.3,1.48-.47L43,42l.18.14,1.44-.45a17.44,17.44,0,0,1,.53,2.13l-.2,0c.14.18.28.35.4.54l-1.17.8a6.16,6.16,0,0,0-.52-.71l.55-.49Zm-5.74,3.07c0-.11,0-.22,0-.32l-.41-.31c.09-.12.18-.23.28-.34l.22.22.8,0L36.87,46l.06,0h-.41c0-.21,0-.43,0-.64a4.17,4.17,0,0,0-.8.72c0,.12,0,.24,0,.37a4.89,4.89,0,0,1,0,.54l-1.22-.14a2.69,2.69,0,0,0,0-.4A3.64,3.64,0,0,0,34.19,45l1-.44a5.9,5.9,0,0,1,1-.72l.1.19.87-.39a6.86,6.86,0,0,1,.32.86l-.83.24.2.39-.16.1,1-.13a7,7,0,0,1,.06.91h-.42l.39.79h0v0l.14.28-.19.12c0,.16,0,.32-.06.48l-.38-.07-.06.08L37,47.59Zm.56.59a1.17,1.17,0,0,0-.09.24l-1.34-.41a3.52,3.52,0,0,1,.15-.42ZM27.5,46.45v.07l-1,0v-.1a1.85,1.85,0,0,1-.06-1.87l1.13.47A1.75,1.75,0,0,0,27.5,46.45Zm-.4-3a4.79,4.79,0,0,1,1.54-1.29l.57,1.09a3.54,3.54,0,0,0-1.15,1Zm3.36,1.34-.31-1.18a2.2,2.2,0,0,1,.37-.07l.15,1.21Zm.38,1.36a.11.11,0,0,0-.08,0l-.59-1.08a1.48,1.48,0,0,1,.46-.16Zm-.19.14a.2.2,0,0,0,0,.08l-1.2-.24a1.38,1.38,0,0,1,.18-.46Zm-2.11-1.58a2.17,2.17,0,0,1,.24-.29l.89.85a1.07,1.07,0,0,0-.14.16Zm.81,1c0,.07-.06.14-.08.2l-1.17-.35c0-.12.08-.23.13-.35Zm.59-.71-.69-1a3.37,3.37,0,0,1,.32-.19l.56,1.09Zm-.74-4-.07-.22-.16.08-1.85-4a12.55,12.55,0,0,1,1.17-.53l1.26,3.29.17,0,.21,1.2C29.68,41,29.44,41,29.2,41.08Zm-1.36-.76.54,1.09a5.14,5.14,0,0,0-.64.38l-.69-1A5.62,5.62,0,0,1,27.84,40.32Zm.15,5.9,1.22.1s0,.09,0,.13a.19.19,0,0,0,0,.08L28,46.59v-.14A1.77,1.77,0,0,1,28,46.22Zm1.27.67a1.18,1.18,0,0,0,.07.2l-1.13.47a2.53,2.53,0,0,1-.12-.36Zm.24.52.13.17-.91.81a3.25,3.25,0,0,1-.23-.29Zm.4.41.18.11L29.49,49a3.28,3.28,0,0,1-.31-.2Zm-.19-.42a1.7,1.7,0,0,1-.24-.44l1.15-.41.05.08Zm1.09-.68.09,0,0,1.22a1.37,1.37,0,0,1-.49-.09Zm-.69-3.79-.26-1.19a4.81,4.81,0,0,1,2,0l-.24,1.2A3.79,3.79,0,0,0,30.11,42.93Zm2,.86.33.17-.64,1-.19-.1Zm-.59-.19-.25,1.2a.78.78,0,0,0-.22,0l.1-1.23A2.2,2.2,0,0,1,31.5,43.6ZM31,46.7l.07-.06.53.47.86.21c0,.15,0,.3-.07.45l.67.58a1.66,1.66,0,0,1-.26.27l-.47-.53a.43.43,0,0,1,0,.11l-.49-.05.48.83-.33.17-.43-1L31,48.05A9.55,9.55,0,0,1,31.14,47l.07,0Zm0,2.62L31,48.14a.83.83,0,0,0,.22,0l.21,1.19.92,0c0,.15,0,.31.05.46a2,2,0,0,0,.26-.11l.6,1.07a4.83,4.83,0,0,1-1.92.59l-.08-.9-.18,0a7.77,7.77,0,0,1-.13-1.08Zm1.34-2.06a1.21,1.21,0,0,0,.09-.2l1.14.45a2,2,0,0,1-.15.33Zm.18-.54a1.64,1.64,0,0,0,0-.22l1.23,0a2.33,2.33,0,0,1,0,.37Zm.25-.39-.46-.2a1.19,1.19,0,0,1,0,.32,1.23,1.23,0,0,1,0,.27l-1.2-.22v0a.28.28,0,0,0,0-.09l.95-.33-.6-.26.07-.15-.51.61-.08,0L31.44,45a1.38,1.38,0,0,1,.33.2c.08-.15.13-.3.21-.44l.31.19.62-.65.25.27-.63.52.44.27.53-.27c0,.12.1.23.14.35l-.51.18s0,0,0,.06l.68-.09c0,.12,0,.25,0,.37H33Zm1-1.66-1.09-.91c.08-.1.16-.18.24-.27a2.85,2.85,0,0,0-.41-.26l.56-1.09a4.84,4.84,0,0,1,1.56,1.25l-.49.4.21.23C34.15,44.23,34,44.45,33.77,44.67ZM32.43,41l.33-1.18a8.82,8.82,0,0,1,.86.31l-.49,1.13A5.89,5.89,0,0,0,32.43,41Zm4.39,1.5-.42-1.39a7.09,7.09,0,0,1,1-.25l.24,1.43A5.93,5.93,0,0,0,36.82,42.53ZM37.26,48l1.21.73a.42.42,0,0,0,0,.1l-1.37-.28A1.82,1.82,0,0,1,37.26,48Zm1.18,1a.47.47,0,0,0,.06.09L37.4,50a1.56,1.56,0,0,1-.27-.51Zm-.52-1.69a1.78,1.78,0,0,1,.53-.19l.24,1.43-.09,0Zm0-1.77a3.15,3.15,0,0,1,.42-.09l.18,1.44-.24.05Zm0-.83-.31-1.41a5.36,5.36,0,0,1,2.29,0l-.27,1.43A3.94,3.94,0,0,0,37.86,44.72Zm.64-3.95a6,6,0,0,1,1,.06l-.16,1.44a6.11,6.11,0,0,0-.86-.05Zm5.29-1.1L40.4,41.19a14.38,14.38,0,0,0-.81-1.56l3.18-1.91A17.18,17.18,0,0,1,43.79,39.67ZM41.29,34c-.61-.29-1.25-.54-1.89-.77l1.33-4.17A22.27,22.27,0,0,1,43,30Zm-.8,11.91-.73,1.24-.22-.12.58-1.32C40.25,45.8,40.37,45.87,40.49,45.94Zm-1.05-.43-.29,1.42-.24,0L39,45.45A2.65,2.65,0,0,1,39.44,45.51Zm-.06,1.71a1.61,1.61,0,0,1,.48.3L39,48.63l-.09-.06ZM39,49.11l1,1a1.55,1.55,0,0,1-.44.37l-.7-1.26A.28.28,0,0,0,39,49.11Zm.07-.16a.13.13,0,0,0,0-.06.43.43,0,0,0,0-.11l1.33-.46a1.79,1.79,0,0,1,.09.57,1.73,1.73,0,0,1,0,.32Zm1.18-1.32a1.46,1.46,0,0,0-.16-.19l1-1a2.89,2.89,0,0,1,.29.32Zm3.17-27.17a32.39,32.39,0,0,1,5.24,3.2L47,25.85a29.24,29.24,0,0,0-4.8-2.93ZM43.29,27l-1.42,2.16a28.25,28.25,0,0,0-3.1-1.74l1.13-2.33A29.41,29.41,0,0,1,43.29,27Zm-3.23,7.22a17.57,17.57,0,0,1,1.46,1.65L38.6,38.19a14.47,14.47,0,0,0-1.16-1.31Zm-4.75,7-.67.79a6.41,6.41,0,0,1,.62-.38l.35.74.46-.4a6.34,6.34,0,0,1,.55.73l-1,.67-.14-.18a3.37,3.37,0,0,0-.32.19l-.78-1.2.1-.07a5.52,5.52,0,0,0-.55-.4l.66-1A7.33,7.33,0,0,1,35.31,41.21Zm-3.9-1.56-.14,1.21a6.28,6.28,0,0,0-.75,0l0-1.22A5.56,5.56,0,0,1,31.41,39.65Zm-1.68-6.86c-.58-.13-1.18-.24-1.79-.32l0-.17c-.37,0-.74.06-1.09.11L26.4,28c.77-.09,1.55-.17,2.33-.23l.08,1.05c.58.08,1.17.18,1.73.3ZM27.33,42l-.34.31.06.06a6.67,6.67,0,0,0-.52.55l-.08-.07a4.36,4.36,0,0,0-.35.4l-3.34-2.71a11.56,11.56,0,0,1,2-2Zm-2,3.9-.3,0c0,.17-.06.34-.08.52L20.7,46a10.67,10.67,0,0,1,.64-2.88l3.95,1.59c-.05.12-.07.25-.11.38l.24.06A4.57,4.57,0,0,0,25.3,45.87Zm.06,1.63-1.2.22a6.7,6.7,0,0,1-.11-.9l1.22-.07Q25.3,47.13,25.36,47.5ZM20.71,36.4c.33-.16.67-.31,1-.45l1.37,3.45c-.27.11-.53.22-.77.34Zm3.85,7.42A7.84,7.84,0,0,1,25,43l1.06.62a4.17,4.17,0,0,0-.33.67Zm-6.5-14.7.08.52c.44-.12.89-.25,1.34-.36l1,4.28c-.71.17-1.41.36-2.11.56L18,32.89c-.43.08-.86.14-1.28.23L16,29.47C16.7,29.34,17.38,29.23,18.06,29.12Zm-4,.78.22,1,.71-.26,1.31,4.19c-.68.23-1.37.48-2,.74l-.6-1.68L13,34l-1-3.57C12.7,30.23,13.36,30.06,14,29.9ZM11.71,40.34v-.22l.06-1.41a1.57,1.57,0,0,1,1.53,1.55,1.77,1.77,0,0,1-.22.82l-1.37-.74-.05,1.1,0-1.1ZM10.08,31l.42,1.3.07,0,1.62,4.07c-.66.28-1.34.58-2,.9l-1.75-4,.24-.11-.53-1.44C8.78,31.45,9.43,31.22,10.08,31ZM11.42,42.7c-.82.59-2,1.32-3.44,2.17L6.62,42.5c1.38-.8,2.46-1.47,3.2-2ZM4.36,33.24c.63-.29,1.26-.56,1.87-.81l1.42,3.43-.47.2,1,2.15c-.64.32-1.3.67-2,1L4.27,35.33l.84-.44ZM.23,37.61l1.41-.81L.71,35l1.81-.91,1.63,3.34L3,38l1.23,2.33L2.32,41.44ZM3,47.61,1.69,45.19C3,44.53,4.1,43.91,5.12,43.35l1.32,2.38C5.41,46.31,4.23,46.94,3,47.61Zm3.87,2.65L5.38,47.39c1.44-.77,2.76-1.51,3.92-2.18L10.81,48C9.63,48.72,8.29,49.47,6.83,50.26Zm4.18-6c1.58-.94,2.81-1.75,3.66-2.38l.63.9a9.28,9.28,0,0,1,.35-1.17l1.17.45,0-.36h0l0-.26.07-1.67a1.75,1.75,0,0,1,.6.14l-.62-.48a9.73,9.73,0,0,1,1.74-1.71l2.26,2.94a6.39,6.39,0,0,0-1.08,1.06l-1.53-1.2a1.78,1.78,0,0,1,.36,1.08,2.11,2.11,0,0,1-.24,1l-1.57-.87,0,.36,2.29.9a5.28,5.28,0,0,0-.32,1.41l-2.54-.22.25.35c-.94.7-2.26,1.56-3.93,2.56Zm4.17,2.19,3.67-.55a8.82,8.82,0,0,0,.4,1.59l-3.51,1.21A12.54,12.54,0,0,1,15.18,46.4Zm2.59,6.21a19.76,19.76,0,0,1-1.14-1.89L19.92,49a14.62,14.62,0,0,0,.91,1.5Zm3.66-1.11a15.45,15.45,0,0,1-.64-2.67l4.2-.65c0,.12.05.24.07.36l.53-.19q.14.34.3.69l-.65.33c.06.23.12.46.2.69ZM26,51.21a6.53,6.53,0,0,1-.58-.7l1-.72a6.57,6.57,0,0,0,.48.57Zm1.57,1.21a6.22,6.22,0,0,1-.76-.5l.74-1a6.15,6.15,0,0,0,.62.42Zm-.31-2.84a5,5,0,0,1-1-1.76l1.18-.35a3.53,3.53,0,0,0,.71,1.32Zm2.16,3.56a8.7,8.7,0,0,1-.87-.26l.42-1.15a6.52,6.52,0,0,0,.72.21ZM30,51.2a4.78,4.78,0,0,1-1.85-.76l.69-1a3.64,3.64,0,0,0,1.38.57Zm0-2,.35-1.18.21,0-.19,1.21Zm.83,4h-.44l.08-1.22a6.26,6.26,0,0,0,.75,0l.08,1.23Zm1.53-.17-.17-.75-.45.24a7.17,7.17,0,0,1-.42-1l1.32-.49A5.77,5.77,0,0,0,33,52L33,52l.33.88A6.38,6.38,0,0,1,32.42,53.13Zm1.08-4.21v0a6,6,0,0,1,.43-2.22l1.29.56a4.42,4.42,0,0,0-.24.84l.4.16a4.61,4.61,0,0,1-1.11,1.67L33.41,49Zm1,3.68c-.06-.08-.11-.17-.17-.26l-.1.07-.61-1.06.1-.07a5.16,5.16,0,0,1-.31-.77l1.34-.41a4.33,4.33,0,0,0,.82,1.56Zm1.72-1.41a2.65,2.65,0,0,1-.21-.26c-.07.08-.14.18-.22.26L35,50.34a5.35,5.35,0,0,0,.48-.57l.11.08a.25.25,0,0,0,0-.07l1.21-.33L35.93,49l-.51,0v-.17a2.44,2.44,0,0,1,0-.27l.62.05a3.49,3.49,0,0,0,.15-.34l1.15.41a6.24,6.24,0,0,1-.36.84l-.06,0,0,.1-1.06.45.53.39-.11.13.84-.6c0,.07.1.14.15.21Zm.52.49.83-1.17.2.14-.67,1.27A2.82,2.82,0,0,1,36.79,51.68Zm1.43.62a2.13,2.13,0,0,1-.42-.1l.4-1.39a2.1,2.1,0,0,0,.24.06Zm.49-1.62a1.5,1.5,0,0,1-.55-.11l.48-1.36.1,0Zm.21,1.66-.07-1.45a1.07,1.07,0,0,0,.25,0l.24,1.43A2.84,2.84,0,0,1,38.92,52.34Zm1.1-.26-.53-1.34.22-.11.7,1.26A3.49,3.49,0,0,1,40,52.08Zm5.7.52-.95-.51c0,.17-.09.34-.14.5l-1.36-.44a5.35,5.35,0,0,1-.66.83l-1-1a2.43,2.43,0,0,0,.2-.25l-.73-.24c0-.05,0-.11,0-.16a1.29,1.29,0,0,1-.16.17L40,50.38l.18-.18,1,.87c.07-.23.12-.46.18-.7l-.92-.52a2.29,2.29,0,0,0,.1-.23l.91.36a1.46,1.46,0,0,0,0-.2l3.66.64c-.05.26-.11.52-.16.77l1.12.41A7.24,7.24,0,0,1,45.72,52.6Zm-5-3.86,1.39-.18a3.24,3.24,0,0,1,0,.44h0a3,3,0,0,1,0,.43l-1.38-.22a1.94,1.94,0,0,0,0-.24A1.77,1.77,0,0,0,40.67,48.74Zm5.78,1.63-1.38-.26a5.27,5.27,0,0,0,.1-.88l1.4.07A6.37,6.37,0,0,1,46.45,50.37ZM45.18,49a7,7,0,0,0,0-.79l-.91,0a5.81,5.81,0,0,1,.05.72,4.58,4.58,0,0,1,0,.64l-1.39-.16a3.87,3.87,0,0,0,0-.48,4.15,4.15,0,0,0-.08-.79l-1.08-.05V47.8l-1.14.42a1.57,1.57,0,0,0-.09-.23l1.24-.66c0-.34,0-.69,0-1l3.1-.22,1.11-.52a9.41,9.41,0,0,1,.37,1l-.84.26c0,.18,0,.35,0,.53s0,.48,0,.72l1.09-.15A7.83,7.83,0,0,1,46.58,49Zm1-11.45,1.67-1.74c-.17-.36-.33-.72-.53-1.07l2.24-1.3a16.26,16.26,0,0,1,1.58,3.72l-1.9.53L47.56,39.1A15.28,15.28,0,0,0,46.23,37.55Zm4,12.4L47.77,49a24.46,24.46,0,0,0,1-3.39l1.92.41c-.11-.49-.23-1-.37-1.46l4.05-1.31A23.72,23.72,0,0,1,55,45.81l-3.77.74A26.84,26.84,0,0,1,50.19,50Zm13.52-2.43-2.58.25a16.77,16.77,0,0,0-.43-2.34l-1.11-.11v-.11a17.25,17.25,0,0,1-1.67,4.41l-2.4-1.29a14.13,14.13,0,0,0,1.65-5.08l2.5.29c0-.44,0-.87,0-1.3l-2.38-.07v-.34a13.32,13.32,0,0,0-1-4.88l1.89-.74c-.18-.38-.36-.75-.56-1.11l-1.77.83a21.64,21.64,0,0,0-3-4.62l1-.85c-.16-.15-.31-.31-.48-.45l1.88-2.37A23.38,23.38,0,0,1,58.46,31l-1.55,1.3a21.61,21.61,0,0,1,1.33,2.36l1.89-1.15a19.5,19.5,0,0,1,1.81,4.41l-1.4.41c.51.89,1,1.79,1.35,2.66l.62-.07a21.86,21.86,0,0,1,.12,2.82l.28-.08A20.48,20.48,0,0,1,63.71,47.52ZM60.47,31.89a7.91,7.91,0,0,1-.37-.84l1.16-.41a4.23,4.23,0,0,0,.3.69Zm1.55.19a6.68,6.68,0,0,0,.49.57l-.88.85a6.62,6.62,0,0,1-.59-.7ZM59.82,30c0-.3-.09-.61-.11-.91L60.94,29a4.8,4.8,0,0,0,.09.75Zm3.38,4.7a6.78,6.78,0,0,1-.77-.5l.74-1a5.23,5.23,0,0,0,.63.41Zm.66-4.87a2.53,2.53,0,0,1-.12-.36l1.18-.31c0,.07,0,.14.07.2Zm1.08-1.59-.17-.05-.39.36.49,0v.21l-.8,0-1,.91a3.88,3.88,0,0,0,.71,1.31l-.93.79a4.79,4.79,0,0,1-1-1.76l.94-.28c-.29-.33-.59-.67-.91-1H61.5v-.1c0-.12,0-.23,0-.35L61,27.85c0,.1,0,.21,0,.31L59.74,28a5.67,5.67,0,0,1,.16-.9l.49.12c-.71-.68-1.43-1.34-2.16-1.94l2-2.52c.48.39,1,.81,1.43,1.23l.26-.28.84.9a2.29,2.29,0,0,0-.21.23l.58.55h0a4.93,4.93,0,0,1,1.22-1l.57,1.09a3.94,3.94,0,0,0-.94.74l.47.49,0-.06.89.85-.11.13,0,0L65,28l.05,0A1.72,1.72,0,0,0,64.94,28.26Zm-2.23-5.19a6.25,6.25,0,0,1,.79-.46l.55,1.09a5.84,5.84,0,0,0-.65.38Zm3.6,5.53a.16.16,0,0,0,0,.09l-1.2-.24a1.56,1.56,0,0,1,.17-.47Zm-.13-2.75.16,1.22-.22,0-.31-1.19Zm-.39,1.38-.19.11-.69-1,.32-.19ZM65.39,22l.2,1.21a6.41,6.41,0,0,0-.73.17L64.5,22.2A6.77,6.77,0,0,1,65.39,22Zm-1-7c-.2.26-.4.52-.61.77H64L64.19,19c-.4,0-.8,0-1.19,0s-.76,0-1.14,0l.2-3.23h.26L61.16,14.7a13.18,13.18,0,0,0,1.08-1.29Zm-.67-9.66.55,3.18a6,6,0,0,1-.94.11l-.16-3.23A5.14,5.14,0,0,0,63.77,5.37ZM62.31,1.23a.94.94,0,0,0,.12.22L62,1.8a8.87,8.87,0,0,1,.36,1l.39-1.1a.59.59,0,0,0,.23.05L62.91,5h-.1c0,.36,0,.71,0,1.07a11.71,11.71,0,0,1-.06,1.19L62,7.13l-.22,1.44a7.21,7.21,0,0,1-.92-.21L61.26,7l-1.17-.13c0-.15,0-.32,0-.48l-.68,1.3c-.27-.16-.54-.34-.8-.53l1.46-2.07a8.17,8.17,0,0,0-.64-2.37l.1,0a3.34,3.34,0,0,1-.17-.38ZM58.56,5.17a7.7,7.7,0,0,1,0,.83h-1l-.12.1L57.39,6H55.88a3.87,3.87,0,0,0,0-.48l1.07-.14,0,0L59.45,3.5a3.79,3.79,0,0,0,.34.45L58.45,5.19Zm0,1a7.34,7.34,0,0,1-.08.82l-2.7-.42a3.91,3.91,0,0,0,.05-.48Zm-2-4.9a6.42,6.42,0,0,1,.56.61l-1.24,1,2.92-.81c0,.18.11.36.17.54l-1.08.46c.11.23.22.48.31.72l-2.58.91a4.07,4.07,0,0,0-.18-.44l1.86-.94-1.21.51A7.73,7.73,0,0,1,55.84,3l-.8.65a3.61,3.61,0,0,0-.33-.35ZM54.78.1a7.24,7.24,0,0,1,.73.38L54.08,2.81a4.36,4.36,0,0,0-.42-.23ZM51.53,2.71l.3,1.69,1-.32.47-1.2a3.71,3.71,0,0,1,.94.56l-.23.28.15-.05a10.12,10.12,0,0,0,.56,1.45l.54-.18A3.31,3.31,0,0,1,55.48,6c0,.12,0,.23,0,.35.18.26.37.52.57.77l-.31.28,2.46,1c-.07.17-.16.34-.24.51a7.7,7.7,0,0,0,1.34.76q.16-.33.3-.66l2.54,1a11.1,11.1,0,0,1-1,2l-.27,1.56-.82-.2c-.12.13-.23.26-.36.39L58.91,13a12.7,12.7,0,0,1-2.83-1.47l.56-.84-.18.18-1.83-2A3.64,3.64,0,0,0,55,8.48l2,1.71.74-1.13L55.42,7.82a2.06,2.06,0,0,0,.12-.26L53.65,9.24a12.57,12.57,0,0,1-1.56-2.41L52,9.39A3.28,3.28,0,0,1,51,9.18l.93-2.56.12,0a13.12,13.12,0,0,1-.8-2.06l.1,0L50.5,3.07A3.16,3.16,0,0,1,51.53,2.71ZM49.17.23,50.4,2.66c-.14.08-.28.16-.41.25L48.45.66A6.52,6.52,0,0,1,49.17.23Zm-2,1.62a3.61,3.61,0,0,1,.25-.3l.29.27,1-.05c0,.37.06.73.1,1.1l.59.56a3.79,3.79,0,0,0-.31.37l-.16-.12a.13.13,0,0,1,0,.06L47.58,4l1.09.49a3,3,0,0,0-.16.45l-2.26-.68-.39.07a19,19,0,0,1-.28-2.39Zm-4.95,0,2.52,1.06A7.86,7.86,0,0,0,44.09,6v.16l-2.73.05V6A10.6,10.6,0,0,1,42.2,1.85ZM41,11.78,38.55,13a17,17,0,0,1-.81-1.87l2.57-.92A12.23,12.23,0,0,0,41,11.78ZM37.27,2.44l2.66.64a11.47,11.47,0,0,0-.28,1.64l-2.72-.28A15.19,15.19,0,0,1,37.27,2.44ZM39.6,6.69a11.4,11.4,0,0,0,.19,1.66l-2.68.5a16.88,16.88,0,0,1-.24-2ZM36.69,14a37,37,0,0,1,4.24.25l1.09-.8a13.6,13.6,0,0,0,.92,1.09h0v0a1.83,1.83,0,0,0,.13.16l-.19.18-.43,2.59a33.17,33.17,0,0,0-5.79-.5h-.18V14Zm5.59,5.94-1.09,2.5a28.43,28.43,0,0,0-5.34-1.72l.57-2.67A31.31,31.31,0,0,1,42.28,19.94Zm-7-5.55.11,3,.84.13L35.7,20.5a35.55,35.55,0,0,0-6-.5h-.19V18.26l-.61.1-.54-3.19A49.94,49.94,0,0,1,35.26,14.39ZM27.17,5.6l2.92.51a34.16,34.16,0,0,0-.41,4.2l-2.95-.12A34.69,34.69,0,0,1,27.17,5.6ZM22.75,3.76,25.05,5A17.11,17.11,0,0,0,23.8,8.17l-2.49-.7A19.32,19.32,0,0,1,22.75,3.76Zm-2,6.16,2.55.44A26,26,0,0,0,23,13.9l-2.59-.1A29.45,29.45,0,0,1,20.76,9.92ZM27,15.44l.38,1.94.49,0,.1,2.73a42.68,42.68,0,0,0-5.67.62L22.16,20l-.94.28-.92-3.09A67.77,67.77,0,0,1,27,15.44Zm-8.47-7,.69,3.16c-1.21.28-2.38.6-3.5.93l-.86-3.1C16,9.09,17.23,8.76,18.5,8.45Zm-16.91.8a14.89,14.89,0,0,0,1.83-.57l1.1,3L4,11.89l.8,1a14.67,14.67,0,0,1-1.7,1.12L1.75,11.69l.33-.22Zm4,8.37-.24-.56-1.06.64L2.61,15a43.29,43.29,0,0,1,4.07-2.31L7.32,14c.31-.11.61-.22.93-.32l.85,2.59C7.86,16.68,6.67,17.13,5.54,17.62Zm8.3-4.49-.45.17L13.78,15c-1.06.24-2.09.51-3.06.79l-.38-1.29-.56.23-1.23-3c1.37-.61,2.82-1.18,4.32-1.69ZM7.39,5l2,.69-.62-.61A16.33,16.33,0,0,0,10,3.53l2.51,1.91A17.73,17.73,0,0,1,11,7.29L9.85,6.16a13.22,13.22,0,0,1-.7,1.59l-2-1L8.94,9.17c-.41.32-.83.62-1.27.9-.34.44-.7.87-1.08,1.28l-2-1.89A14.22,14.22,0,0,0,5.69,8.18l0,0-.29-.52A13.48,13.48,0,0,0,7,6.64L6.73,6.5A13.83,13.83,0,0,0,7.39,5Z"/><path class="cls-1" d="M28.71,0H28l.48.58Z"/><polygon class="cls-1" points="66.17 6.73 66.5 6.74 66.5 6 65.77 6 66.17 6.73"/><polygon class="cls-1" points="0.61 0.35 0.47 0 0 0 0 0.43 0.61 0.35"/><path class="cls-1" d="M0,3.19v.93a8.94,8.94,0,0,0,1.16-.29Z"/><path class="cls-1" d="M65.88,3.61a3.55,3.55,0,0,1-.7.64L66,4.13l.23-.24.21.18h0V1.72l-2,.61Z"/><path class="cls-2" d="M6.22,39.24c.67-.36,1.33-.71,2-1l-1-2.15c-.43.18-.86.36-1.29.56l-.78-1.73-.84.44Z"/><path class="cls-2" d="M0,41.92v.9l.38-.22Z"/><path class="cls-2" d="M4.27,40.32,3,38l-.62.32L1.64,36.8l-1.41.81,2.09,3.83Z"/><path class="cls-2" d="M9.42,35.17l-.75-2.05-.24.11,1.75,4c.67-.32,1.35-.62,2-.9l-1.62-4.07-.07,0,.72,2.23Z"/><path class="cls-2" d="M31.77,27.68h-.66l.08,4.39h.66l.77-2.34c.27.09.52.21.78.31l.12-2.32C33,27.7,32.36,27.68,31.77,27.68Z"/><path class="cls-2" d="M26.22,51.92l-3.76,2s0,0,0,0h4.34l.43-.31A16.89,16.89,0,0,1,26.22,51.92Z"/><path class="cls-2" d="M37.53,32.16l.82-3.76c-.78-.18-1.59-.33-2.41-.44l-.56,4.36c.23,0,.45.08.67.12l.54-.89C36.91,31.74,37.23,32,37.53,32.16Z"/><path class="cls-2" d="M24.23,44.84l.95.23c0-.13.06-.26.11-.38L21.34,43.1A10.67,10.67,0,0,0,20.7,46l4.22.38c0-.18,0-.35.08-.52l-.92-.1A7,7,0,0,1,24.23,44.84Z"/><path class="cls-2" d="M25.24,49.37l-.43.23a6.3,6.3,0,0,1-.37-.84l.62-.22c0-.12-.06-.24-.07-.36l-4.2.65a15.45,15.45,0,0,0,.64,2.67l4-1.44C25.36,49.83,25.3,49.6,25.24,49.37Z"/><path class="cls-2" d="M13.62,33.84l.6,1.68c.68-.26,1.37-.51,2-.74L15,30.59l-.71.26.63,2.66Z"/><path class="cls-2" d="M22.58,33.09c.7-.14,1.42-.27,2.14-.39l-.06-.43h-.38l-.06-3-.14-.95-1.95.35L22.38,32Z"/><path class="cls-2" d="M28.81,28.86l-.08-1.05c-.78.06-1.56.14-2.33.23l.48,4.37c.35,0,.72-.07,1.09-.11l.46-3.51Z"/><path class="cls-2" d="M22.76,40.51l3.34,2.71a4.36,4.36,0,0,1,.35-.4l-.87-.7a8,8,0,0,1,.63-.67l.78.83.34-.31-2.58-3.49A11.56,11.56,0,0,0,22.76,40.51Z"/><path class="cls-2" d="M55.35,49.54c0-.39,0-.77,0-1.15l-4.23.31c0,.42,0,.84,0,1.25s0,.56,0,.83l2.72.14c.41-.54.79-1.08,1.13-1.63Z"/><path class="cls-2" d="M54.84,54H55a1.74,1.74,0,0,1,.05-.22C55,53.85,54.9,53.93,54.84,54Z"/><path class="cls-2" d="M52,53l-1.13-.2c-.07.39-.16.78-.25,1.16h1.19l-.37-.37C51.66,53.44,51.84,53.24,52,53Z"/><path class="cls-2" d="M18,32.89l.33,1.23c.7-.2,1.4-.39,2.11-.56l-1-4.28c-.45.11-.9.24-1.34.36l.48,3.15Z"/><path class="cls-2" d="M39.4,33.26c.64.23,1.28.48,1.89.77L43,30a22.27,22.27,0,0,0-2.31-.93Z"/><path class="cls-2" d="M45,31.7,43.07,35a15.08,15.08,0,0,1,1.66,1.18l2.6-3.48-.46-.35-.74.61A16.63,16.63,0,0,0,45,31.7Z"/><path class="cls-2" d="M48.69,37.86a12.4,12.4,0,0,0-.79-2l-1.67,1.74a15.28,15.28,0,0,1,1.33,1.55l1.73-1.41Z"/><path class="cls-2" d="M54.38,43.29,50.33,44.6c.14.48.26,1,.37,1.46l.61.13c0,.12-.06.24-.09.36L55,45.81A23.72,23.72,0,0,0,54.38,43.29Z"/><path class="cls-2" d="M49.14,40.52l-.45.29c.18.31.35.64.52,1C49.21,41.35,49.18,40.94,49.14,40.52Z"/><path class="cls-2" d="M52.32,38.54,50.2,39.87l1.48-.18a15.71,15.71,0,0,1,.12,2l1.69-.79A23.8,23.8,0,0,0,52.32,38.54Z"/><path class="cls-2" d="M29.55,39.74l-1.26-3.29a12.55,12.55,0,0,0-1.17.53l1.85,4,.16-.08-.3-1C29.07,39.84,29.31,39.79,29.55,39.74Z"/><path class="cls-2" d="M11.26,20.68c-1,.44-2,.91-3.07,1.41,1.07-.44,2.12-.83,3.15-1.21Z"/><path class="cls-2" d="M6.15,25.93l.28.6c2.07-1.05,4.11-2,6.05-2.87l-.1-.25c-1.11.4-2.24.82-3.39,1.29L8,22.2c-.37.17-.73.36-1.1.54l1,2.42C7.33,25.4,6.74,25.67,6.15,25.93Z"/><path class="cls-2" d="M4.9,26.5,2.61,27.58l-1-2.12L.5,26l1,2.08L0,28.9V30c1.79-1,3.55-2,5.21-2.83Z"/><polygon class="cls-2" points="66.2 28.87 66.19 28.87 66.2 28.87 66.2 28.87"/><path class="cls-2" d="M66.41,29.15,66.27,29l-.89.72a.25.25,0,0,1,0-.07l-.15.12.11.13-.92.82-.11-.15-.46.4c.23.29.44.58.66.87l.06-.09a3.55,3.55,0,0,0,1.38.57l-.21,1.2-.07,0c.2.31.38.61.56.92v0h.31V30.25a1.45,1.45,0,0,1-.46-.09Zm-1.57,2,.72-1,.19.12-.6,1.07Zm1.24-.74.21.05-.2,1.21-.36-.08Z"/><path class="cls-2" d="M45.06,18.56c.73.18,1.45.38,2.17.61l.52-1.4a11.31,11.31,0,0,0,1.6.48L49,19.8c.51.2,1,.41,1.51.63l.78-1.85v0h0l.45-1.06a34,34,0,0,0-6.7-2.23l-.2,1A11.8,11.8,0,0,0,46,17Z"/><path class="cls-2" d="M65.93,52.76c-.26.42-.54.83-.83,1.24h.5A12.35,12.35,0,0,0,65.93,52.76Z"/><path class="cls-2" d="M53.15,21.25c-.3,0-.61,0-.92,0a35.33,35.33,0,0,1,5,3.19l1.86-2.59c-.65-.5-1.31-1-2-1.43a14.39,14.39,0,0,1-1.55.45l-.38-1.66c-.68-.41-1.38-.8-2.08-1.15l-.2.44a.41.41,0,0,1,.11,0Z"/><path class="cls-2" d="M63.89,27.55,65,28l.3-.28,0,0,0,0-1-.72a1.37,1.37,0,0,1,.19-.23l-.47-.49c-.06.08-.14.14-.21.22l-1-.76c.1-.12.22-.22.32-.33h0l-.58-.55a2.27,2.27,0,0,0-.3.32l-1-.78c.11-.14.24-.26.36-.39-.47-.42-1-.84-1.43-1.23l-2,2.52c.73.6,1.45,1.26,2.16,1.94l.69.17c0,.14,0,.29-.07.43l.53.54a4.37,4.37,0,0,1,.34-1.52l1.13.47a3.57,3.57,0,0,0-.28,1.4v.07l-.77,0c.32.33.62.67.91,1l.23-.07h0l1-.91-.42,0a.61.61,0,0,1,0-.14,1.85,1.85,0,0,1,0-.23l.73.06.39-.36-1-.31C63.8,27.79,63.84,27.67,63.89,27.55Zm-2.53-1-1.13-.47a7,7,0,0,1,.41-.82l1,.62A5.94,5.94,0,0,0,61.36,26.58Z"/><path class="cls-2" d="M22.16,20l-.36-2a45.52,45.52,0,0,1,5.55-.62L27,15.44a67.77,67.77,0,0,0-6.67,1.78l.92,3.09Z"/><path class="cls-2" d="M14.43,22.69l-.77.27.07.16c.74-.32,1.46-.6,2.19-.89l-.37.1-.81-2.6c1.54-.48,3-.86,4.5-1.19L19,17.66c-2.06.7-4.22,1.53-6.42,2.46l.12.3.92-.32Z"/><path class="cls-2" d="M28.9,18.36l.61-.1V17h.2a39.1,39.1,0,0,1,5.67.42l-.11-3a49.94,49.94,0,0,0-6.9.78Z"/><path class="cls-2" d="M43,14.55h0l0,0Z"/><path class="cls-2" d="M36.69,17a33.17,33.17,0,0,1,5.79.5l.43-2.59-1.78,1.71a14.91,14.91,0,0,1-1.31-1.55l1.11-.82A37,37,0,0,0,36.69,14H36.5v3Z"/><path class="cls-2" d="M19.19,11.61,18.5,8.45c-1.27.31-2.5.64-3.67,1l.86,3.1C16.81,12.21,18,11.89,19.19,11.61Z"/><path class="cls-2" d="M9.78,14.72l.56-.23L10,13.16c1-.3,2.1-.57,3.21-.83l.22,1,.45-.17-1-3.07c-1.5.51-2.95,1.08-4.32,1.69Z"/><path class="cls-2" d="M7.32,14l-.64-1.37A43.29,43.29,0,0,0,2.61,15L4.24,17.7l1.06-.64-.84-1.95C5.37,14.72,6.34,14.36,7.32,14Z"/><path class="cls-2" d="M.88,16.1,0,16.73v.65l1.25-.71Z"/><path class="cls-2" d="M.69,20.14,0,19v1.71c.34-.27.67-.52,1-.76Z"/><path class="cls-2" d="M5.05,51.22,3.62,48.34c-1.12.6-2.35,1.24-3.62,1.9v.95l1,2.13Z"/><path class="cls-2" d="M5.38,47.39l1.45,2.87c1.46-.79,2.8-1.54,4-2.22L9.3,45.21C8.14,45.88,6.82,46.62,5.38,47.39Z"/><line class="cls-3" x1="16.84" y1="41.65" x2="16.82" y2="42.01"/><path class="cls-2" d="M18.65,41.55a1.78,1.78,0,0,0-.36-1.08l-.77-.61a1.75,1.75,0,0,0-.6-.14l-.07,1.67,0,.26h0l1.57.87A2.11,2.11,0,0,0,18.65,41.55Z"/><path class="cls-2" d="M16.25,44.1,15.09,44a8.63,8.63,0,0,1,.21-1.27l-.63-.9c-.85.63-2.08,1.44-3.66,2.38L12.57,47c1.67-1,3-1.86,3.93-2.56Z"/><path class="cls-2" d="M61.74,50c.12-.46.25-.93.34-1.39l-2.89-.64A29.49,29.49,0,0,1,58,52l2.59,1a12.94,12.94,0,0,0,.55-3Z"/><path class="cls-2" d="M62.63,43.7a21.86,21.86,0,0,0-.12-2.82l-.62.07.15.31L60,42.14v.11h-.23l-.09,0,0,0h0c0,.43,0,.86,0,1.3l.21,0a13.58,13.58,0,0,1-.29,1.65v.11l1.11.11c-.08-.35-.16-.69-.27-1Z"/><path class="cls-2" d="M52.18,26.65c.06.05.1.1.15.15l.59-.93A34.11,34.11,0,0,0,49,23.61l-1.29,2.76.24.13,1.66-2.08C50.51,25.11,51.36,25.86,52.18,26.65Z"/><path class="cls-2" d="M59.53,38.22l.73-.43.28.5,1.4-.41a19.5,19.5,0,0,0-1.81-4.41l-1.89,1.15a1.09,1.09,0,0,0,.08.15l-.7.33c.2.36.38.73.56,1.11l.65-.26A16.42,16.42,0,0,1,59.53,38.22Z"/><path class="cls-2" d="M56.91,32.26,58.46,31a23.38,23.38,0,0,0-3.22-3.32L53.36,30c.17.14.32.3.48.45l1.07-.9A26.41,26.41,0,0,1,56.91,32.26Z"/><path class="cls-2" d="M30.09,6.11,27.17,5.6a34.69,34.69,0,0,0-.44,4.59l2.95.12A34.16,34.16,0,0,1,30.09,6.11Z"/><path class="cls-2" d="M28.51.63,28.43.7c-.23.65-.45,1.31-.63,2l2.85.83A20.33,20.33,0,0,1,32,0H28.71l-.24.58Z"/><path class="cls-2" d="M1.18,6.52A8.07,8.07,0,0,0,3,3.75l.21.08-.41-.75a8.42,8.42,0,0,1-1.5.68s0,.09-.05.13l-.12-.06A8.94,8.94,0,0,1,0,4.12V4.6L.49,5a5.78,5.78,0,0,1-.49.5V7.38A10.67,10.67,0,0,0,1.68,7Z"/><path class="cls-2" d="M6.26,2,5.05,1.84,7,3.88a12.39,12.39,0,0,0,1-1.1,12.49,12.49,0,0,0,.16-1.37l.75,0L9.09,1h-1c0-.33,0-.67-.07-1H6.28c0,.26,0,.52,0,.78A11.71,11.71,0,0,1,6.26,2Z"/><path class="cls-2" d="M5.45,7.69l.29.52L7.9,9.79l-.23.28c.44-.28.86-.58,1.27-.9L7.13,6.71,7,6.64A13.48,13.48,0,0,1,5.45,7.69Z"/><path class="cls-2" d="M13.91,3A19.42,19.42,0,0,0,14.83.81L12.63,0h-.84a16.33,16.33,0,0,1-.65,1.55Z"/><path class="cls-2" d="M4,11.89l.52-.18-1.1-3a14.89,14.89,0,0,1-1.83.57l.49,2.22c.36-.22.73-.45,1.07-.7Z"/><path class="cls-2" d="M9.85,6.16,11,7.29a17.73,17.73,0,0,0,1.49-1.85L10,3.53A16.33,16.33,0,0,1,8.73,5.05l.62.61.61.22A2.33,2.33,0,0,1,9.85,6.16Z"/><path class="cls-2" d="M1.22,1.88a2.8,2.8,0,0,0,.3-.15l-.38-.06Z"/><polygon class="cls-2" points="1.41 0.25 1.27 0 0.47 0 0.61 0.35 1.41 0.25"/><path class="cls-2" d="M2.08,1.45,2,1.36a.49.49,0,0,0,0,.12Z"/><path class="cls-2" d="M3.57.26c0-.09,0-.17,0-.26H2.93l.42.49C3.43.42,3.49.33,3.57.26Z"/><path class="cls-2" d="M41.27,43.81l0,0-.63,1.3a4.19,4.19,0,0,1,1.34,1.11L43,45.27a5.32,5.32,0,0,0-.85-.86l-.71.13C41.41,44.29,41.33,44.05,41.27,43.81Z"/><path class="cls-2" d="M39.57,44.71l.27-1.43a5.36,5.36,0,0,0-2.29,0l.31,1.41A3.94,3.94,0,0,1,39.57,44.71Z"/><path class="cls-2" d="M42.87,48.89a3.87,3.87,0,0,1,0,.48l1.39.16a4.58,4.58,0,0,0,0-.64,5.81,5.81,0,0,0-.05-.72l-1.43-.07A4.15,4.15,0,0,1,42.87,48.89Z"/><path class="cls-2" d="M41.63,51.94l1,1a5.35,5.35,0,0,0,.66-.83l-1.44-.46A2.43,2.43,0,0,1,41.63,51.94Z"/><path class="cls-2" d="M41.15,53.37l-.4-.75a3.85,3.85,0,0,1-1.64.52l.08.86h.7a7.84,7.84,0,0,0,.57-1Z"/><path class="cls-2" d="M36.44,52.42l-.79,1.2a5,5,0,0,0,.63.38h1.58l.16-.91A4,4,0,0,1,36.44,52.42Z"/><path class="cls-2" d="M33.46,50.51a5.16,5.16,0,0,0,.31.77,6.06,6.06,0,0,0,.53-.35l.74,1a5.74,5.74,0,0,1-.66.43c.06.09.11.18.17.26l1.07-.94a4.33,4.33,0,0,1-.82-1.56Z"/><path class="cls-2" d="M35,48.07a4.42,4.42,0,0,1,.24-.84l-1.29-.56a6,6,0,0,0-.43,2.22v0a3.45,3.45,0,0,0,.74-1.14Z"/><path class="cls-2" d="M36.67,45.22l.16-.1-.2-.39-.34.11a5.3,5.3,0,0,0-.26-.7l.24-.12-.1-.19a5.9,5.9,0,0,0-1,.72l.14-.06a4.79,4.79,0,0,1,.37,1.59,4.17,4.17,0,0,1,.8-.72.41.41,0,0,0,0-.11Z"/><path class="cls-2" d="M32.58,45.85l-.09,0a1.21,1.21,0,0,0-.09-.2L33,45.4l-.44-.27-.32.26-.15-.16.23-.24L32,44.8c-.08.14-.13.29-.21.44l.1,0-.28.33-.07.15.6.26.21-.07c0,.06,0,.12,0,.17l.46.2L33,46h-.39Z"/><path class="cls-2" d="M33.11,45.72s0,0,0-.06l-.24.08Z"/><path class="cls-2" d="M31,48.05l.62.07,0-.11a1.11,1.11,0,0,0,.19-.09l.13.23.49.05a.43.43,0,0,0,0-.11L32,47.71a1.21,1.21,0,0,0,.16-.16l.25.22c0-.15,0-.3.07-.45l-.86-.21.39.34a1.61,1.61,0,0,1-.38.31L31.21,47l-.07,0A9.55,9.55,0,0,0,31,48.05Z"/><path class="cls-2" d="M31.24,50.36l0-.32a3.65,3.65,0,0,0,1.17-.33c0-.15,0-.31-.05-.46l-.92,0v0a2.21,2.21,0,0,1-.37,0v0h-.11a7.77,7.77,0,0,0,.13,1.08Z"/><path class="cls-2" d="M37.41,40.89a7.09,7.09,0,0,0-1,.25l.42,1.39a5.93,5.93,0,0,1,.83-.21Z"/><path class="cls-2" d="M32.87,51.72,33,52,33,52a5.77,5.77,0,0,1-.34-.81l-1.32.49a7.17,7.17,0,0,0,.42,1l.45-.24-.1-.44A6,6,0,0,0,32.87,51.72Z"/><path class="cls-2" d="M34.46,42.1l-.1.07.78,1.2a3.37,3.37,0,0,1,.32-.19c-.1-.14-.2-.29-.31-.42l.46-.4-.35-.74a6.41,6.41,0,0,0-.62.38l-.12.14Z"/><path class="cls-2" d="M33.57,52.84l-1.13.87c.08.1.17.19.24.29h1l.48-.48A6.13,6.13,0,0,1,33.57,52.84Z"/><path class="cls-2" d="M34.14,43.79l-.46.38a3.81,3.81,0,0,0-.76-.68c-.08.09-.16.17-.24.27l1.09.91c.18-.22.38-.44.58-.65Z"/><path class="cls-2" d="M44.13,45.23l1.17-.8c-.12-.19-.26-.36-.4-.54l-.74.14-.55.49A6.16,6.16,0,0,1,44.13,45.23Z"/><path class="cls-2" d="M45.42,46.82l.84-.26a9.41,9.41,0,0,0-.37-1l-1.11.52.61,0C45.41,46.29,45.41,46.56,45.42,46.82Z"/><path class="cls-2" d="M45.42,48.07s0,.1,0,.16l-.28,0a7,7,0,0,1,0,.79h1.4a7.83,7.83,0,0,0-.07-1.08Z"/><path class="cls-2" d="M43,42l-.15.24.33-.1Z"/><path class="cls-2" d="M39.54,40.83a6,6,0,0,0-1-.06l0,1.45a6.11,6.11,0,0,1,.86.05Z"/><path class="cls-2" d="M41.87,41.44a6.93,6.93,0,0,0-1-.37l-.38,1.4a5.52,5.52,0,0,1,.77.29l0,0Z"/><path class="cls-2" d="M45.07,50.11l1.38.26a6.37,6.37,0,0,0,.12-1.07l-1.4-.07A5.27,5.27,0,0,1,45.07,50.11Z"/><path class="cls-2" d="M44.77,52.09l.95.51a7.24,7.24,0,0,0,.41-1L45,51.19Q44.91,51.66,44.77,52.09Z"/><path class="cls-2" d="M43.94,52.82a5.94,5.94,0,0,1-.55.69l.5.49h.93c.08-.11.18-.21.25-.32Z"/><path class="cls-2" d="M37.33,46h-.4l-.06,0,.49.73.36,0Z"/><path class="cls-2" d="M37.88,47.1l-.14-.28c0,.13,0,.27-.05.4Z"/><path class="cls-2" d="M38.85,50.89l.07,1.45a2.84,2.84,0,0,0,.42-.05l-.24-1.43A1.07,1.07,0,0,1,38.85,50.89Z"/><path class="cls-2" d="M36.05,48.67l-.62-.05a2.44,2.44,0,0,0,0,.27v.17l.51,0h0A3.68,3.68,0,0,0,36.05,48.67Z"/><path class="cls-2" d="M37.62,50.51l-.83,1.17a2.82,2.82,0,0,0,.36.24l.67-1.27Z"/><path class="cls-2" d="M37.19,47.71l.06-.08-.21,0Z"/><path class="cls-2" d="M36.56,46.73l-.22-.22c-.1.11-.19.22-.28.34l.41.31c0-.15,0-.29.05-.43Z"/><path class="cls-2" d="M38.5,46.9l-.18-1.44a3.15,3.15,0,0,0-.42.09l.36,1.4Z"/><path class="cls-2" d="M37.8,52.2a2.13,2.13,0,0,0,.42.1l.22-1.43a2.1,2.1,0,0,1-.24-.06Z"/><path class="cls-2" d="M37,49.65l0-.1-.19-.1-1.21.33a.25.25,0,0,1,0,.07l.35.25Z"/><path class="cls-2" d="M37.16,50l-.84.6a3.88,3.88,0,0,1-.26.31,2.65,2.65,0,0,0,.21.26l1-1C37.26,50.16,37.2,50.09,37.16,50Z"/><path class="cls-2" d="M35.56,47.9l1.34.41a1.17,1.17,0,0,1,.09-.24l-1.28-.59A3.52,3.52,0,0,0,35.56,47.9Z"/><path class="cls-2" d="M39.54,47.06l.22.12.73-1.24c-.12-.07-.24-.14-.37-.2Z"/><path class="cls-2" d="M41.05,46.39l-1,1a1.46,1.46,0,0,1,.16.19l1.09-.92A2.89,2.89,0,0,0,41.05,46.39Z"/><path class="cls-2" d="M41.72,47.33,40.48,48a1.57,1.57,0,0,1,.09.23l1.14-.42c0-.15,0-.3,0-.45Z"/><path class="cls-2" d="M39.49,50.74,40,52.08a3.49,3.49,0,0,0,.39-.19l-.7-1.26Z"/><path class="cls-2" d="M40.22,50.2l-.18.18L41,51.46a1.29,1.29,0,0,0,.16-.17c0-.07,0-.15,0-.22Z"/><path class="cls-2" d="M40.55,49.62a2.29,2.29,0,0,1-.1.23l.92.52c0-.13.07-.25.09-.39Z"/><path class="cls-2" d="M39.15,46.93l.29-1.42a2.65,2.65,0,0,0-.42-.06l-.11,1.44Z"/><path class="cls-2" d="M42.08,49h0a3.24,3.24,0,0,0,0-.44l-1.39.18a1.77,1.77,0,0,1,0,.23v0Z"/><path class="cls-2" d="M42,49.43a3,3,0,0,0,0-.43h0l-1.4,0v0a1.94,1.94,0,0,1,0,.24Z"/><path class="cls-2" d="M37.4,50l1.1-.91a.47.47,0,0,1-.06-.09l-1.31.49A1.56,1.56,0,0,0,37.4,50Z"/><path class="cls-2" d="M38.16,50.57a1.5,1.5,0,0,0,.55.11l0-1.45-.1,0Z"/><path class="cls-2" d="M38.47,48.72,37.26,48a1.82,1.82,0,0,0-.2.55l1.37.28A.42.42,0,0,1,38.47,48.72Z"/><path class="cls-2" d="M38.69,48.56l-.24-1.43a1.78,1.78,0,0,0-.53.19l.68,1.27Z"/><path class="cls-2" d="M40.48,48.89a1.79,1.79,0,0,0-.09-.57l-1.33.46a.43.43,0,0,1,0,.11.13.13,0,0,1,0,.06l1.38.26A1.73,1.73,0,0,0,40.48,48.89Z"/><path class="cls-2" d="M39.86,47.52a1.61,1.61,0,0,0-.48-.3l-.51,1.35.09.06Z"/><path class="cls-2" d="M40.05,50.07l-1-1a.28.28,0,0,1-.09.07l.7,1.26A1.55,1.55,0,0,0,40.05,50.07Z"/><path class="cls-2" d="M66.5,11.12V9.76a9.13,9.13,0,0,1-2.13.61Z"/><path class="cls-2" d="M63.81,10.45v.06l0-.07Z"/><path class="cls-2" d="M63.94,12.09l.14,1.58a12.35,12.35,0,0,0,2.42-.48V11.13A16,16,0,0,1,65.7,13Z"/><path class="cls-2" d="M51.81,5.46l-.5-.9-.1,0A13.12,13.12,0,0,0,52,6.64l.09,0v.17a12.57,12.57,0,0,0,1.56,2.41l1.89-1.68a1.3,1.3,0,0,0,.08-.17l.09,0L56,7.14c-.2-.25-.39-.51-.57-.77,0,.08,0,.16,0,.24l-2.69-.48a.37.37,0,0,0,0-.11.64.64,0,0,0,0-.2l2-.7a10.12,10.12,0,0,1-.56-1.45l-.15.05L52.52,5.53a.52.52,0,0,0-.18-.1l.53-1.35-1,.32.17,1Zm.78,1,2,1.81a3.34,3.34,0,0,1-.85.69L52.43,6.57A.48.48,0,0,0,52.59,6.44Z"/><path class="cls-2" d="M57.69,9.06,57,10.19l.08.07c-.12.14-.26.27-.39.41l-.56.84A12.7,12.7,0,0,0,58.91,13l-1.19-1.22a8.21,8.21,0,0,0,1.55-2.11,7.7,7.7,0,0,1-1.34-.76l-.11.24Z"/><path class="cls-2" d="M60.81,13.52,61.08,12A10.82,10.82,0,0,1,60,13.32Z"/><path class="cls-2" d="M50.5.88v.25h.32L50.54.06C50.52.33,50.5.61,50.5.88Z"/><polygon class="cls-2" points="52.52 1.09 52.61 0 51.32 0 51.47 1.11 52.52 1.09"/><path class="cls-2" d="M53.5,1.07V.88a8.64,8.64,0,0,1,0-.88h-.15l-.22,1.07Z"/><path class="cls-2" d="M48.69,1.77l-1,.05,1.1,1.05C48.75,2.5,48.71,2.14,48.69,1.77Z"/><path class="cls-2" d="M46.25,4.26l-.36-.11a7.15,7.15,0,0,1,.29-.77l1.4.62,1.34-.26a.13.13,0,0,0,0-.06l-2-1.5.28-.33-1.57.09a19,19,0,0,0,.28,2.39Z"/><path class="cls-2" d="M58,14.91l-1.09,3a16,16,0,0,0,2.24.68l0-.13-.89-1.56A14.54,14.54,0,0,0,59.69,16l0,0,.12-.57A16.79,16.79,0,0,1,58,14.91Z"/><path class="cls-2" d="M46.72,7.46,48.47,7c.05.16.1.31.16.46L47,8.13c.15.36.31.72.49,1.08L49,8.15a2,2,0,0,0,.18.23l1.08-.58a2.14,2.14,0,0,0-.1-.22l-.68.54A3,3,0,0,1,49,7.17l.89-.32q-.18-.44-.33-.87L46.57,7.07Z"/><path class="cls-2" d="M54.38,12.84,53.6,13.9a7.87,7.87,0,0,0,1.59-.47C54.91,13.24,54.64,13.05,54.38,12.84Z"/><path class="cls-2" d="M54.44,16.74l.15-.27c-.14,0-.27.08-.41.1Z"/><path class="cls-2" d="M52.5,15.42l.47.35-.07-.89Z"/><path class="cls-2" d="M49,11.69h0a18.82,18.82,0,0,0,1.5,1.84l1.95-1.95,0-.67c-.31-.36-.6-.72-.88-1.1l-.42,2.61a5.88,5.88,0,0,1-.81-.18l.6-2L49,11.63l0,.09Z"/><path class="cls-2" d="M62.32,15.81h-.26L61.86,19q.57,0,1.14,0c.39,0,.79,0,1.19,0L64,15.8h-.15c-.23.27-.46.53-.7.78Z"/><path class="cls-2" d="M66.5,16.82V15.38l-.3.08Z"/><path class="cls-2" d="M60.09,5.13,58.63,7.2c.26.19.53.37.8.53l.68-1.3c0-.13,0-.27,0-.41A8.69,8.69,0,0,0,60.09,5.13Z"/><path class="cls-2" d="M59.45,3.5,56.88,5.33l0,0,1.53-.19L59.79,4A3.79,3.79,0,0,1,59.45,3.5Z"/><path class="cls-2" d="M57.46,6.1l.12-.1h-.19Z"/><path class="cls-2" d="M60.89,8.36a7.21,7.21,0,0,0,.92.21L62,7.13,61.26,7Z"/><path class="cls-2" d="M58,.56,55.6.37c0,.2,0,.4,0,.6s0,.25,0,.38l3.11-.16V1c0-.11,0-.23,0-.35l-.39.32Z"/><path class="cls-2" d="M56.13,3.89l1.21-.51.57-.29s0,0,0,0L59,2.67c-.06-.18-.12-.36-.17-.54l-2.92.81L55.84,3A7.73,7.73,0,0,0,56.13,3.89Z"/><path class="cls-2" d="M64.32,8.55l-.55-3.18a5.14,5.14,0,0,1-.55.06l.16,3.23A6,6,0,0,0,64.32,8.55Z"/><polygon class="cls-2" points="65.77 6 65 6 65.27 6.68 66.17 6.73 65.77 6"/><path class="cls-2" d="M66.26,3.89,66,4.13l.44-.06Z"/><path class="cls-2" d="M62.87.23l0-.23h-.35l.17.31A.83.83,0,0,1,62.87.23Z"/><path class="cls-2" d="M61.94,1.65,62,1.8l.43-.35a.94.94,0,0,1-.12-.22l-2.93,1.1a3.34,3.34,0,0,0,.17.38Z"/><path class="cls-2" d="M62.91,5,63,1.73a.59.59,0,0,1-.23-.05l-.39,1.1A10,10,0,0,1,62.81,5Z"/><path class="cls-2" d="M63.47.4l.32-.4h-.43l-.1.27A.67.67,0,0,1,63.47.4Z"/><path class="cls-2" d="M62.28.82A.85.85,0,0,1,62.37.6l-1-.6h-1.9l-.24.19Z"/><path class="cls-2" d="M65.88,3.61l-1.4-1.28-.35.1c-.07-.22-.17-.43-.24-.64l-.35-.32a.55.55,0,0,1-.18.16l1.48,2.66.34,0A3.55,3.55,0,0,0,65.88,3.61Z"/><path class="cls-2" d="M63.69.73a.13.13,0,0,0,0,.06L64.35.5Z"/><path class="cls-2" d="M66.5,0h-.36q.19.47.36.93Z"/><path class="cls-4" d="M3,38l1.11-.55L2.52,34.1.71,35l.93,1.79.78,1.51Z"/><path class="cls-4" d="M0,37.91v1.7l.72-.39Z"/><path class="cls-4" d="M7.18,36.06l.47-.2L6.23,32.43c-.61.25-1.24.52-1.87.81l.75,1.65.78,1.73C6.32,36.42,6.75,36.24,7.18,36.06Z"/><path class="cls-4" d="M24.66,32.27h.11l1.35,0,.2-3.71c-.51,0-1,0-1.54,0h-.57v.74l.06,3Z"/><path class="cls-4" d="M21.92,51.91,19.5,54h2.9l.76-.8A16.67,16.67,0,0,1,21.92,51.91Z"/><path class="cls-4" d="M16.63,50.72a19.76,19.76,0,0,0,1.14,1.89l3.06-2.11a14.62,14.62,0,0,1-.91-1.5Z"/><path class="cls-4" d="M28.43,28.79,28,32.3l0,.17c.61.08,1.21.19,1.79.32l.81-3.63c-.56-.12-1.15-.22-1.73-.3Z"/><path class="cls-4" d="M16.25,44.1l2.54.22a5.28,5.28,0,0,1,.32-1.41L16.82,42l-1.17-.45a9.28,9.28,0,0,0-.35,1.17A8.63,8.63,0,0,0,15.09,44Z"/><path class="cls-4" d="M18.85,45.85l-3.67.55a12.54,12.54,0,0,0,.56,2.25l3.51-1.21A8.82,8.82,0,0,1,18.85,45.85Z"/><path class="cls-4" d="M9.42,35.17l1.8-.63-.72-2.23L10.08,31c-.65.21-1.3.44-1.94.67l.53,1.44Z"/><path class="cls-4" d="M18,32.89l.6-.1-.48-3.15-.08-.52c-.68.11-1.36.22-2,.35l.7,3.65C17.16,33,17.59,33,18,32.89Z"/><path class="cls-4" d="M22.4,32.36l0-.35-.25-3.31v0c-.69.05-1.37.12-2,.19l.41,3.69C21.13,32.47,21.77,32.41,22.4,32.36Z"/><path class="cls-4" d="M19.82,41.67a6.39,6.39,0,0,1,1.08-1.06l-2.26-2.94a9.73,9.73,0,0,0-1.74,1.71l.62.48.77.61Z"/><path class="cls-4" d="M45.42,48.07c0-.24,0-.48,0-.72s0-.35,0-.53,0-.53,0-.79l-.61,0-3.1.22c0,.35,0,.7,0,1v0c0,.15,0,.3,0,.45v.25l1.08.05,1.43.07.91,0,.28,0C45.42,48.17,45.41,48.12,45.42,48.07Z"/><path class="cls-4" d="M45.17,50.42l-3.66-.64a1.46,1.46,0,0,1,0,.2c0,.14-.06.26-.09.39s-.11.47-.18.7c0,.07,0,.15,0,.22s0,.11,0,.16l.73.24,1.44.46,1.36.44c0-.16.1-.33.14-.5s.17-.59.24-.9S45.12,50.68,45.17,50.42Z"/><path class="cls-4" d="M13.62,33.84l1.26-.33-.63-2.66-.22-1c-.67.16-1.33.33-2,.52L13,34Z"/><path class="cls-4" d="M40.46,53a7.84,7.84,0,0,1-.57,1h2.52l-1.26-.63Z"/><path class="cls-4" d="M31.85,32.08l-.39,1.18a17.15,17.15,0,0,1,1.65.65l1.54-3.38c-.4-.18-.83-.33-1.25-.48-.26-.1-.51-.22-.78-.31Z"/><path class="cls-4" d="M36.13,35.72l2.27-2.93q-.42-.33-.87-.63c-.3-.21-.62-.42-.94-.61l-.54.89-1.37,2.29A16.11,16.11,0,0,1,36.13,35.72Z"/><path class="cls-4" d="M38.6,38.19l2.92-2.29a17.57,17.57,0,0,0-1.46-1.65l-2.62,2.63A14.47,14.47,0,0,1,38.6,38.19Z"/><path class="cls-4" d="M45.1,43.85a17.44,17.44,0,0,0-.53-2.13l-1.44.45-.33.1-1.48.47,0,0-.24.07c.1.32.16.65.24,1s.14.48.19.73l.71-.13,2-.38.74-.14Z"/><path class="cls-4" d="M40.4,41.19l3.39-1.52a17.18,17.18,0,0,0-1-2l-3.18,1.91A14.38,14.38,0,0,1,40.4,41.19Z"/><path class="cls-4" d="M21.74,36c-.36.14-.7.29-1,.45l1.63,3.34c.24-.12.5-.23.77-.34Z"/><path class="cls-4" d="M4.9,26.5l1.25-.57c.59-.26,1.18-.53,1.75-.77l-1-2.42,0-.09c-1.74.74-3.56,1.57-5.42,2.48l.16.33,1,2.12Z"/><path class="cls-4" d="M.5,26l-.18-.36L0,25.83V28.9l1.54-.79Z"/><path class="cls-4" d="M58,39.11l1.5-.89a16.42,16.42,0,0,0-.7-2.27l-.65.26L56.29,37a13.32,13.32,0,0,1,1,4.88v.34l2.38.07h0A27.42,27.42,0,0,0,58,39.11Z"/><path class="cls-4" d="M60,42.25v-.11l-.23.1Z"/><path class="cls-4" d="M59.67,43.54l-2.5-.29a14.13,14.13,0,0,1-1.65,5.08l2.4,1.29a17.25,17.25,0,0,0,1.67-4.41,13.58,13.58,0,0,0,.29-1.65Z"/><path class="cls-4" d="M58.24,34.62a21.61,21.61,0,0,0-1.33-2.36,26.41,26.41,0,0,0-2-2.7l-1.07.9-1,.85a21.64,21.64,0,0,1,3,4.62l1.77-.83.7-.33A1.09,1.09,0,0,1,58.24,34.62Z"/><path class="cls-4" d="M41.19,22.44l1.09-2.5a31.31,31.31,0,0,0-5.86-1.89l-.57,2.67A28.43,28.43,0,0,1,41.19,22.44Z"/><path class="cls-4" d="M57.28,50.73l-1.93-1.19L55,49.29c-.34.55-.72,1.09-1.13,1.63A24.59,24.59,0,0,1,52,53c-.18.2-.36.4-.56.59l.37.37h3c.06-.07.12-.15.19-.22A24.6,24.6,0,0,0,57.28,50.73Z"/><path class="cls-4" d="M47,25.85l1.63-2.19a32.39,32.39,0,0,0-5.24-3.2l-1.19,2.46A29.24,29.24,0,0,1,47,25.85Z"/><path class="cls-4" d="M52.33,26.8c0-.05-.09-.1-.15-.15-.82-.79-1.67-1.54-2.53-2.23L48,26.5l-.05.05c.8.64,1.59,1.34,2.36,2.07s1.22,1.22,1.77,1.82l2-1.83C53.55,28,53,27.4,52.33,26.8Z"/><path class="cls-4" d="M15.55,22.33l.37-.1c1.78-.54,3.53-1,5.2-1.33l-.54-2.67-1.34.31c-1.47.33-3,.71-4.5,1.19Z"/><path class="cls-4" d="M12.38,23.41,13.66,23l.77-.27-.85-2.59-.92.32-1.32.46c-1,.38-2.08.77-3.15,1.21L8,22.18v0l1,2.5C10.14,24.23,11.27,23.81,12.38,23.41Z"/><path class="cls-4" d="M22.16,20l.11.66a42.68,42.68,0,0,1,5.67-.62l-.1-2.73-.49,0A45.52,45.52,0,0,0,21.8,18Z"/><path class="cls-4" d="M29.5,17v3h.19a35.55,35.55,0,0,1,6,.5l.51-2.95-.84-.13A39.1,39.1,0,0,0,29.7,17Z"/><path class="cls-4" d="M10,13.16l.38,1.33.38,1.29c1-.28,2-.55,3.06-.79l-.39-1.69-.22-1C12.06,12.59,11,12.86,10,13.16Z"/><path class="cls-4" d="M7.32,14c-1,.35-1.95.71-2.86,1.1l.84,1.95.24.56c1.13-.49,2.32-.94,3.56-1.34l-.85-2.59C7.93,13.79,7.63,13.9,7.32,14Z"/><path class="cls-4" d="M1,20c1-.6,2-1.14,3-1.64L2.82,15.86c-.53.26-1,.53-1.57.81L0,17.38V19l.69,1.13Z"/><path class="cls-4" d="M.15,46,0,46.06v3.07l1.4-.72Z"/><path class="cls-4" d="M5.12,43.35c-1,.56-2.17,1.18-3.43,1.84L3,47.61c1.27-.67,2.45-1.3,3.48-1.88Z"/><path class="cls-4" d="M11.72,40.34l1.37.74a1.77,1.77,0,0,0,.22-.82,1.57,1.57,0,0,0-1.53-1.55l-.06,1.41v.22h0l0,1.1Z"/><path class="cls-4" d="M6.62,42.5,8,44.87c1.46-.85,2.62-1.58,3.44-2.17l-1.6-2.21C9.08,41,8,41.7,6.62,42.5Z"/><path class="cls-4" d="M62.94,39.08a29.27,29.27,0,0,1,1.71,3.33l1.85-.79V39.94c-.37-.75-.76-1.5-1.21-2.25Z"/><path class="cls-4" d="M65.93,52.76A12.35,12.35,0,0,1,65.6,54h.9V50.5h-.25A13.2,13.2,0,0,1,65.93,52.76Z"/><path class="cls-4" d="M66.2,48.2l.3,0V44.31l-1,.32A18.12,18.12,0,0,1,66.2,48.2Z"/><path class="cls-4" d="M59.53,38.22l-1.5.89a27.42,27.42,0,0,1,1.61,3.13l0,0,.09,0,.23-.1L62,41.26,61.89,41c-.39-.87-.84-1.77-1.35-2.66l-.28-.5Z"/><path class="cls-4" d="M61.74,50l-.56,0a12.94,12.94,0,0,1-.55,3c0,.1,0,.2-.07.3l2.27.73H63a15.69,15.69,0,0,0,.72-3.91Z"/><path class="cls-4" d="M62.63,43.7l-2.2.68c.11.36.19.7.27,1a16.77,16.77,0,0,1,.43,2.34l2.58-.25a20.48,20.48,0,0,0-.8-3.9Z"/><path class="cls-4" d="M46.87,51.13A24.36,24.36,0,0,1,45.28,54h3c.28-.49.59-1.08.91-1.75Z"/><path class="cls-4" d="M50.7,46.06l-1.92-.41a24.46,24.46,0,0,1-1,3.39l2.42.91a26.84,26.84,0,0,0,1-3.4c0-.12.07-.24.09-.36Z"/><path class="cls-4" d="M50.2,39.87,49.11,40c0,.18,0,.36,0,.53,0,.42.07.83.07,1.26a15.62,15.62,0,0,1-.08,1.66l2.58.25a17.77,17.77,0,0,0,.09-2,15.71,15.71,0,0,0-.12-2Z"/><path class="cls-4" d="M38.77,27.45a28.25,28.25,0,0,1,3.1,1.74L43.29,27a29.41,29.41,0,0,0-3.39-1.91Z"/><path class="cls-4" d="M49.29,37.69l1.9-.53a16.26,16.26,0,0,0-1.58-3.72l-2.24,1.3c.2.35.36.71.53,1.07a12.4,12.4,0,0,1,.79,2Z"/><path class="cls-4" d="M45.32,28.52l-1.64,2c.46.38.9.77,1.31,1.18A16.63,16.63,0,0,1,46.13,33l.74-.61,1.27-1A19.66,19.66,0,0,0,45.32,28.52Z"/><path class="cls-4" d="M23.31,10.36l-2.55-.44a29.45,29.45,0,0,0-.39,3.88l2.59.1A26,26,0,0,1,23.31,10.36Z"/><path class="cls-4" d="M24.1,1.57l2.09,1.52A13.37,13.37,0,0,1,28.43.7l.08-.07,0-.05L28,0H25.4A15,15,0,0,0,24.1,1.57Z"/><path class="cls-4" d="M25.05,5l-2.3-1.19a19.32,19.32,0,0,0-1.44,3.71l2.49.7A17.11,17.11,0,0,1,25.05,5Z"/><path class="cls-5" d="M0,8.77v1.8a8.26,8.26,0,0,0,.79-.39Z"/><path class="cls-5" d="M3.59.78a6.55,6.55,0,0,1,0,.89l1.51.17L6.26,2A11.71,11.71,0,0,0,6.32.78c0-.26,0-.52,0-.78H3.55c0,.09,0,.17,0,.26S3.59.61,3.59.78Z"/><path class="cls-5" d="M1.18,6.52l.5.51,1.4,1.44A10.66,10.66,0,0,0,5.56,4.76L3.24,3.83,3,3.75A8.07,8.07,0,0,1,1.18,6.52Z"/><path class="cls-5" d="M9.09,1h1.74c0-.33,0-.67,0-1H8c0,.33.07.67.07,1Z"/><path class="cls-5" d="M3.1,14.06a14.67,14.67,0,0,0,1.7-1.12l-.8-1-.85-1.12c-.34.25-.71.48-1.07.7l-.33.22Z"/><path class="cls-5" d="M7.13,6.71l2,1a13.22,13.22,0,0,0,.7-1.59A2.33,2.33,0,0,0,10,5.88l-.61-.22L7.39,5A13.83,13.83,0,0,1,6.73,6.5L7,6.64Z"/><path class="cls-5" d="M0,12.59v2.8c.31-.09.63-.2.93-.31Z"/><path class="cls-5" d="M5.74,8.21l0,0A14.22,14.22,0,0,1,4.62,9.46l2,1.89c.38-.41.74-.84,1.08-1.28l.23-.28Z"/><path class="cls-5" d="M7.93,2.78l0,.29,2.68.5a17.29,17.29,0,0,0,.24-2l-2-.09-.75,0A12.49,12.49,0,0,1,7.93,2.78Z"/><path class="cls-5" d="M0,4.6v.92A5.78,5.78,0,0,0,.49,5Z"/><path class="cls-5" d="M1.28,3.89s0-.09.05-.13c.11-.2.21-.41.3-.62L0,2.5v.69l1.16.64Z"/><path class="cls-5" d="M2.06,1V1h0A5.79,5.79,0,0,0,2,.17l-.6.08-.8.1L0,.43V.92Z"/><path class="cls-5" d="M1.52,1.73,2,1.8c0-.1,0-.21,0-.32a.49.49,0,0,1,0-.12c0-.12,0-.24,0-.36V1L0,.92v.57l1.14.18Z"/><path class="cls-5" d="M34.14,43.79l.49-.4a4.84,4.84,0,0,0-1.56-1.25l-.56,1.09a2.85,2.85,0,0,1,.41.26,3.81,3.81,0,0,1,.76.68Z"/><path class="cls-5" d="M31.85,41.72a4.81,4.81,0,0,0-2,0l.26,1.19a3.79,3.79,0,0,1,1.5,0Z"/><path class="cls-5" d="M35.17,44.55l-1,.44a3.64,3.64,0,0,1,.31,1.46,2.69,2.69,0,0,1,0,.4l1.22.14a4.89,4.89,0,0,0,0-.54c0-.13,0-.25,0-.37a4.79,4.79,0,0,0-.37-1.59Z"/><path class="cls-5" d="M35.38,48.23l-.4-.16-.74-.29a3.45,3.45,0,0,1-.74,1.14l-.09.11.86.87A4.61,4.61,0,0,0,35.38,48.23Z"/><path class="cls-5" d="M31.24,50.36l.08.9a4.83,4.83,0,0,0,1.92-.59l-.6-1.07a2,2,0,0,1-.26.11,3.65,3.65,0,0,1-1.17.33Z"/><path class="cls-5" d="M28.18,50.44A4.78,4.78,0,0,0,30,51.2l.22-1.2a3.64,3.64,0,0,1-1.38-.57Z"/><path class="cls-5" d="M26.26,47.82a5,5,0,0,0,1,1.76l.93-.79a3.53,3.53,0,0,1-.71-1.32Z"/><path class="cls-5" d="M26.44,44.58a1.85,1.85,0,0,0,.06,1.87v.1l1,0v-.07a1.75,1.75,0,0,1,.07-1.4Z"/><path class="cls-5" d="M29.21,43.27l-.57-1.09a4.79,4.79,0,0,0-1.54,1.29l1,.76A3.54,3.54,0,0,1,29.21,43.27Z"/><path class="cls-5" d="M26,43.62,25,43a7.84,7.84,0,0,0-.41.82l1.14.47A4.17,4.17,0,0,1,26,43.62Z"/><path class="cls-5" d="M25.18,45.07l-.95-.23a7,7,0,0,0-.15.9l.92.1.3,0a4.57,4.57,0,0,1,.12-.74Z"/><path class="cls-5" d="M24.05,46.82a6.7,6.7,0,0,0,.11.9l1.2-.22q-.06-.37-.09-.75Z"/><path class="cls-5" d="M29.72,39.7l-.17,0c-.24,0-.48.1-.72.17l.3,1,.07.22c.24-.07.48-.13.73-.18Z"/><path class="cls-5" d="M28.51,52.88a8.7,8.7,0,0,0,.87.26l.27-1.2a6.52,6.52,0,0,1-.72-.21Z"/><path class="cls-5" d="M26.77,51.92a6.22,6.22,0,0,0,.76.5l.6-1.06a6.15,6.15,0,0,1-.62-.42Z"/><path class="cls-5" d="M24.81,49.6l.43-.23.65-.33q-.16-.34-.3-.69l-.53.19-.62.22A6.3,6.3,0,0,0,24.81,49.6Z"/><path class="cls-5" d="M30.53,52.07l-.08,1.22h.91l-.08-1.23A6.26,6.26,0,0,1,30.53,52.07Z"/><path class="cls-5" d="M27.74,41.79a5.14,5.14,0,0,1,.64-.38l-.54-1.09a5.62,5.62,0,0,0-.79.46Z"/><path class="cls-5" d="M26.36,49.79l-1,.72a6.53,6.53,0,0,0,.58.7l.88-.85A6.57,6.57,0,0,1,26.36,49.79Z"/><path class="cls-5" d="M25.58,42.12l.87.7.08.07a6.67,6.67,0,0,1,.52-.55L27,42.28l-.78-.83A8,8,0,0,0,25.58,42.12Z"/><path class="cls-5" d="M35.46,43.18l.14.18,1-.67a6.34,6.34,0,0,0-.55-.73l-.46.4-.46.4C35.26,42.89,35.36,43,35.46,43.18Z"/><path class="cls-5" d="M36.29,44.84l.34-.11.83-.24a6.86,6.86,0,0,0-.32-.86l-.87.39-.24.12A5.3,5.3,0,0,1,36.29,44.84Z"/><path class="cls-5" d="M37.75,46a7,7,0,0,0-.06-.91l-1,.13-.2,0a.41.41,0,0,1,0,.11c0,.21,0,.43,0,.64h1.23Z"/><path class="cls-5" d="M33.91,41.7a5.52,5.52,0,0,1,.55.4l.06,0,.12-.14.67-.79a7.33,7.33,0,0,0-.74-.54Z"/><path class="cls-5" d="M30.52,40.82a6.28,6.28,0,0,1,.75,0l.14-1.21a5.56,5.56,0,0,0-.91,0Z"/><path class="cls-5" d="M34.3,50.93a6.06,6.06,0,0,1-.53.35l-.1.07.61,1.06.1-.07a5.74,5.74,0,0,0,.66-.43Z"/><path class="cls-5" d="M33.62,40.16a8.82,8.82,0,0,0-.86-.31L32.43,41a5.89,5.89,0,0,1,.7.26Z"/><path class="cls-5" d="M32.87,51.72a6,6,0,0,1-.72.22l.1.44.17.75a6.38,6.38,0,0,0,.88-.26L33,52Z"/><path class="cls-5" d="M37.25,47.63l.38.07c0-.16,0-.32.06-.48s0-.27.05-.4v0h0l-.36,0-.8,0h0c0,.14,0,.28-.05.43s0,.21,0,.32l.61.11Z"/><path class="cls-5" d="M37,49.58a6.24,6.24,0,0,0,.36-.84l-1.15-.41a3.49,3.49,0,0,1-.15.34,3.68,3.68,0,0,1-.15.35h0l.81.42.19.1Z"/><path class="cls-5" d="M36.43,50.49l-.53-.39-.35-.25-.11-.08a5.35,5.35,0,0,1-.48.57l.88.85c.08-.08.15-.18.22-.26a3.88,3.88,0,0,0,.26-.31Z"/><path class="cls-5" d="M29.25,44l.69,1,.19-.11-.56-1.09A3.37,3.37,0,0,0,29.25,44Z"/><path class="cls-5" d="M31.41,49.32v0l-.21-1.19a.83.83,0,0,1-.22,0L31,49.32v0A2.21,2.21,0,0,0,31.41,49.32Z"/><path class="cls-5" d="M29.21,46.53a.19.19,0,0,1,0-.08s0-.09,0-.13L28,46.22a1.77,1.77,0,0,0,0,.23v.14Z"/><path class="cls-5" d="M30.08,47.93l-.18-.11-.72,1a3.28,3.28,0,0,0,.31.2Z"/><path class="cls-5" d="M29.67,45.29l-.89-.85a2.17,2.17,0,0,0-.24.29l1,.72A1.07,1.07,0,0,1,29.67,45.29Z"/><path class="cls-5" d="M30.15,43.63l.31,1.18.21,0-.15-1.21A2.2,2.2,0,0,0,30.15,43.63Z"/><path class="cls-5" d="M30.41,48.07l-.35,1.18.37.08.19-1.21Z"/><path class="cls-5" d="M29.33,47.09a1.18,1.18,0,0,1-.07-.2l-1.18.31a2.53,2.53,0,0,0,.12.36Z"/><path class="cls-5" d="M29.63,47.58l-.13-.17-1,.69a3.25,3.25,0,0,0,.23.29Z"/><path class="cls-5" d="M28.1,45.61l1.17.35c0-.06.05-.13.08-.2l-1.12-.5C28.18,45.38,28.14,45.49,28.1,45.61Z"/><path class="cls-5" d="M31.78,45l.64-1-.33-.17-.5,1.12Z"/><path class="cls-5" d="M32.21,45.39l.32-.26.63-.52-.25-.27-.62.65-.23.24Z"/><path class="cls-5" d="M32.49,45.89l.09,0a.15.15,0,0,1,0-.07l.32,0,.24-.08.51-.18c0-.12-.09-.23-.14-.35L33,45.4l-.57.29A1.21,1.21,0,0,1,32.49,45.89Z"/><path class="cls-5" d="M31.54,48l0,.11.43,1,.33-.17-.48-.83-.13-.23A1.11,1.11,0,0,1,31.54,48Z"/><path class="cls-5" d="M32,47.71l.35.38.47.53a1.66,1.66,0,0,0,.26-.27l-.67-.58-.25-.22A1.21,1.21,0,0,1,32,47.71Z"/><path class="cls-5" d="M33.61,47.51l-1.14-.45a1.21,1.21,0,0,1-.09.2l1.08.58A2,2,0,0,0,33.61,47.51Z"/><path class="cls-5" d="M31.25,44.8l.25-1.2a2.2,2.2,0,0,0-.37-.06L31,44.77A.78.78,0,0,1,31.25,44.8Z"/><path class="cls-5" d="M33.79,45.63l-.68.09-.22,0-.32,0a.15.15,0,0,0,0,.07V46h1.23C33.81,45.88,33.8,45.75,33.79,45.63Z"/><path class="cls-5" d="M33.81,46.54l-1.23,0a1.64,1.64,0,0,1,0,.22l1.21.19A2.33,2.33,0,0,0,33.81,46.54Z"/><path class="cls-5" d="M30.62,46.55,29.47,47a1.7,1.7,0,0,0,.24.44l1-.77Z"/><path class="cls-5" d="M30.89,46.74l-.09,0-.43,1.15a1.37,1.37,0,0,0,.49.09Z"/><path class="cls-5" d="M29.41,46.15l1.2.24a.2.2,0,0,1,0-.08l-1.06-.62A1.38,1.38,0,0,0,29.41,46.15Z"/><path class="cls-5" d="M30.76,46.2a.11.11,0,0,1,.08,0L30.63,45a1.48,1.48,0,0,0-.46.16Z"/><path class="cls-5" d="M32.12,46l-.95.33a.28.28,0,0,1,0,.09v0l1.2.22a1.23,1.23,0,0,0,0-.27,1.19,1.19,0,0,0,0-.32c0-.05,0-.11,0-.17Z"/><path class="cls-5" d="M31.77,45.24a1.38,1.38,0,0,0-.33-.2L31,46.18l.08,0,.51-.61.28-.33Z"/><path class="cls-5" d="M32,47.45l-.39-.34-.53-.47L31,46.7l.17.3.44.76A1.61,1.61,0,0,0,32,47.45Z"/><path class="cls-5" d="M65.77,25.23a3.56,3.56,0,0,1,.73-.09V23.92a4.69,4.69,0,0,0-1,.11Z"/><path class="cls-5" d="M65.91,32.29a3.55,3.55,0,0,1-1.38-.57l-.06.09-.63.92a4.7,4.7,0,0,0,1.79.74l.07,0Z"/><path class="cls-5" d="M62.87,29.83l-.94.28a4.79,4.79,0,0,0,1,1.76l.93-.79a3.88,3.88,0,0,1-.71-1.31h0Z"/><path class="cls-5" d="M62.73,28.74a3.57,3.57,0,0,1,.28-1.4l-1.13-.47a4.37,4.37,0,0,0-.34,1.52c0,.12,0,.23,0,.35v.1H62l.77,0Z"/><path class="cls-5" d="M63.72,26.52c.07-.08.15-.14.21-.22a3.94,3.94,0,0,1,.94-.74l-.57-1.09a4.93,4.93,0,0,0-1.22,1c-.1.11-.22.21-.32.33Z"/><path class="cls-5" d="M60.23,26.11l1.13.47a5.94,5.94,0,0,1,.33-.67l-1-.62A7,7,0,0,0,60.23,26.11Z"/><path class="cls-5" d="M60.39,27.25l-.49-.12a5.67,5.67,0,0,0-.16.9l1.22.13c0-.1,0-.21,0-.31s0-.29.07-.43Z"/><path class="cls-5" d="M59.71,29.11c0,.3.06.61.11.91L61,29.79a4.8,4.8,0,0,1-.09-.75Z"/><path class="cls-5" d="M65.59,23.2,65.39,22a6.77,6.77,0,0,0-.89.21l.36,1.17A6.41,6.41,0,0,1,65.59,23.2Z"/><path class="cls-5" d="M65.32,34.23A4.27,4.27,0,0,1,64.6,34l-.43,1.15a8.89,8.89,0,0,0,.88.26Z"/><path class="cls-5" d="M62.43,34.22a6.78,6.78,0,0,0,.77.5l.6-1.07a5.23,5.23,0,0,1-.63-.41Z"/><path class="cls-5" d="M60.1,31.05a7.91,7.91,0,0,0,.37.84l1.09-.56a4.23,4.23,0,0,1-.3-.69Z"/><path class="cls-5" d="M66.19,34.39l-.08,1.19h.39V34.36h-.31Z"/><path class="cls-5" d="M64.05,23.7l-.55-1.09a6.25,6.25,0,0,0-.79.46l.69,1A5.84,5.84,0,0,1,64.05,23.7Z"/><path class="cls-5" d="M62.51,32.65a6.68,6.68,0,0,1-.49-.57l-1,.72a6.62,6.62,0,0,0,.59.7Z"/><path class="cls-5" d="M62.2,25.19a2.27,2.27,0,0,1,.3-.32,2.29,2.29,0,0,1,.21-.23l-.84-.9-.26.28c-.12.13-.25.25-.36.39Z"/><path class="cls-5" d="M64.91,26.33l.69,1,.19-.11-.56-1.09Z"/><path class="cls-5" d="M63.64,28.74a.61.61,0,0,0,0,.14l.42,0,.8,0v-.21l-.49,0-.73-.06A1.85,1.85,0,0,0,63.64,28.74Z"/><path class="cls-5" d="M65.56,30.11l-.72,1,.31.2.6-1.07Z"/><path class="cls-5" d="M65.19,27.74l0,0,.11-.13-.89-.85,0,.06a1.37,1.37,0,0,0-.19.23Z"/><path class="cls-5" d="M66.34,27.07l-.16-1.22-.37.07.31,1.19Z"/><path class="cls-5" d="M66.09,31.62l.2-1.21-.21-.05-.35,1.18Z"/><path class="cls-5" d="M63.74,29.49a2.53,2.53,0,0,0,.12.36L65,29.38c0-.06,0-.13-.07-.2Z"/><path class="cls-5" d="M65.3,29.87l-.11-.13,0,0-1,.69.12.15.11.15Z"/><path class="cls-5" d="M63.89,27.55c0,.12-.09.24-.13.35l1,.31.17.05a1.72,1.72,0,0,1,.07-.21L65,28Z"/><path class="cls-5" d="M66.27,29l.06,0a.2.2,0,0,1,0-.08l-.09,0h0l-1,.39a1.43,1.43,0,0,0,.2.36.25.25,0,0,0,0,.07Z"/><path class="cls-5" d="M66.41,29.15l-.37,1a1.45,1.45,0,0,0,.46.09V29h0Z"/><path class="cls-5" d="M65.08,28.45l1.2.24a.16.16,0,0,1,0-.09L65.25,28A1.56,1.56,0,0,0,65.08,28.45Z"/><path class="cls-5" d="M65.83,27.42l.59,1.07.08,0v0l-.2-1.17A1.56,1.56,0,0,0,65.83,27.42Z"/><path class="cls-5" d="M58,.56l.34.38.39-.32.52-.43L59.47,0H57.4C57.6.18,57.79.36,58,.56Z"/><path class="cls-5" d="M52.9,14.88l.07.89.09,1a8.39,8.39,0,0,0,1.12-.16c.14,0,.27-.07.41-.1a10.28,10.28,0,0,0,2.74-1L56,13a7.55,7.55,0,0,1-.81.39,7.87,7.87,0,0,1-1.59.47,7,7,0,0,1-.78.11Z"/><path class="cls-5" d="M58.91,13l.72.73c.13-.13.24-.26.36-.39A10.82,10.82,0,0,0,61.08,12a11.1,11.1,0,0,0,1-2L59.57,9q-.14.33-.3.66a8.21,8.21,0,0,1-1.55,2.11Z"/><path class="cls-5" d="M59.55,2.71l-.1,0a8.17,8.17,0,0,1,.64,2.37,8.69,8.69,0,0,1,0,.89c0,.14,0,.28,0,.41s0,.33,0,.48L61.26,7l.77.09.77.08A11.71,11.71,0,0,0,62.86,6c0-.36,0-.71,0-1.07a10,10,0,0,0-.45-2.17,8.87,8.87,0,0,0-.36-1l-.06-.15Z"/><path class="cls-5" d="M41.8,9.07A10.56,10.56,0,0,0,43.93,13L46,11.22a7.83,7.83,0,0,1-1.59-2.93Z"/><path class="cls-5" d="M46.06,14.91A10.74,10.74,0,0,0,50.2,16.6l.48-2.68a7.87,7.87,0,0,1-3.08-1.27Z"/><path class="cls-5" d="M44.09,6.18V6a7.86,7.86,0,0,1,.63-3.11L42.2,1.85A10.6,10.6,0,0,0,41.36,6v.21Z"/><path class="cls-5" d="M46.82,0H44.45L45.8,1.07A8.6,8.6,0,0,1,46.82,0Z"/><path class="cls-5" d="M39.79,8.35a11.4,11.4,0,0,1-.19-1.66l-2.73.14a16.88,16.88,0,0,0,.24,2Z"/><path class="cls-5" d="M39.93,3.08l-2.66-.64a15.19,15.19,0,0,0-.34,2l2.72.28A11.47,11.47,0,0,1,39.93,3.08Z"/><path class="cls-5" d="M40.54,1.21A10.47,10.47,0,0,1,41.14,0h-3L38,.16Z"/><path class="cls-5" d="M47.75,17.77l-.52,1.4-.43,1.16a14.57,14.57,0,0,0,2,.58L49,19.8l.35-1.55A11.31,11.31,0,0,1,47.75,17.77Z"/><path class="cls-5" d="M38.55,13,41,11.78a12.23,12.23,0,0,1-.67-1.53l-2.57.92A17,17,0,0,0,38.55,13Z"/><path class="cls-5" d="M44.63,19.32l.43-.76L46,17a11.8,11.8,0,0,1-1.11-.73c-.09-.06-.2-.12-.29-.19l-1.65,2.18A14.71,14.71,0,0,0,44.63,19.32Z"/><path class="cls-5" d="M41.13,16.62l1.78-1.71.19-.18a1.83,1.83,0,0,1-.13-.16l0,0A13.6,13.6,0,0,1,42,13.45l-1.09.8-1.11.82A14.91,14.91,0,0,0,41.13,16.62Z"/><path class="cls-5" d="M51.29,18.58l-.17,2.67q.5,0,1,0h.12c.31,0,.62,0,.92,0L53,18.53a.41.41,0,0,0-.11,0,13.36,13.36,0,0,1-1.55,0h0Z"/><path class="cls-5" d="M63.7.79l-.16.07c.14.3.24.62.35.93s.17.42.24.64l.35-.1,2-.61V.93Q66.34.47,66.14,0h-.69l-1.1.5Z"/><path class="cls-5" d="M58.3,16.93l.89,1.56.46.81a14.55,14.55,0,0,0,1.69-1.12L59.72,16l0,0A14.54,14.54,0,0,1,58.3,16.93Z"/><path class="cls-5" d="M66,4.13l-.85.12-.34,0-.3,0A13.26,13.26,0,0,1,64.65,6H66.5V4.07h0Z"/><path class="cls-5" d="M61.16,14.7l1.16,1.11.81.77c.24-.25.47-.51.7-.78s.41-.51.61-.77l-2.2-1.62A13.18,13.18,0,0,1,61.16,14.7Z"/><path class="cls-5" d="M63.93,10.21l-.09.23,0,.07q-.24.63-.54,1.23l.67.35,1.76.9a16,16,0,0,0,.8-1.86h0l-2.13-.75Z"/><path class="cls-5" d="M57.07,20.45l.41-.13-1-2.56a11.31,11.31,0,0,1-1.6.48l.22,1,.38,1.66A14.39,14.39,0,0,0,57.07,20.45Z"/><path class="cls-5" d="M65.27,6.68l-.64,0a11.4,11.4,0,0,1-.19,1.66l2.06.38V6.74h-.33Z"/><path class="cls-5" d="M50.4,2.66,49.17.23a6.52,6.52,0,0,0-.72.43L50,2.91C50.12,2.82,50.26,2.74,50.4,2.66Z"/><path class="cls-5" d="M49.9,9.07l-1.61,2.2a4.69,4.69,0,0,0,.67.42l0,0,0-.09L50.3,9.32A3.34,3.34,0,0,1,49.9,9.07Z"/><path class="cls-5" d="M48.91,3.68l.16.12a3.79,3.79,0,0,1,.31-.37l-.59-.56-1.1-1-.29-.27a3.61,3.61,0,0,0-.25.3l-.28.33Z"/><path class="cls-5" d="M45.89,4.15l.36.11,2.26.68a3,3,0,0,1,.16-.45L47.58,4l-1.4-.62A7.15,7.15,0,0,0,45.89,4.15Z"/><path class="cls-5" d="M47.47,9.21l-.71.49a7.65,7.65,0,0,0,.51.65l2-1.82-.11-.15A2,2,0,0,1,49,8.15Z"/><path class="cls-5" d="M50.82,1.12l.33,1.26a3.55,3.55,0,0,1,.47-.09l-.15-1.18L51.32,0h-.8l0,.06Z"/><path class="cls-5" d="M51.07,12.43l.42-2.61,0-.08A3.57,3.57,0,0,1,51,9.63l-.18.61-.6,2A5.88,5.88,0,0,0,51.07,12.43Z"/><path class="cls-5" d="M45.64,5.51a4.35,4.35,0,0,0,0,.51v.31l2.73-.13V6c0-.1,0-.2,0-.3Z"/><path class="cls-5" d="M48.47,7l-1.75.47-.88.24a7.13,7.13,0,0,0,.26.78L47,8.13l1.65-.68C48.57,7.3,48.52,7.15,48.47,7Z"/><path class="cls-5" d="M55,3.65l.8-.65.08-.06,1.24-1a6.42,6.42,0,0,0-.56-.61l-1.89,2A3.61,3.61,0,0,1,55,3.65Z"/><path class="cls-5" d="M57.34,3.38l-1.86.94a4.07,4.07,0,0,1,.18.44l2.58-.91c-.09-.24-.2-.49-.31-.72,0,0,0,0,0,0Z"/><path class="cls-5" d="M52.45,12.51a7.64,7.64,0,0,0,.82-.1l-.48-2.68a3.91,3.91,0,0,1-.48,0l.06,1.14,0,.67Z"/><path class="cls-5" d="M55.34,11.66,54,9.29a3.42,3.42,0,0,1-.43.21l1,2.52A5.17,5.17,0,0,0,55.34,11.66Z"/><path class="cls-5" d="M55.85,5.52a3.87,3.87,0,0,1,0,.48h2.73a7.7,7.7,0,0,0,0-.83l-.11,0-1.53.19Z"/><path class="cls-5" d="M55.51.48A7.24,7.24,0,0,0,54.78.1L53.66,2.58a4.36,4.36,0,0,1,.42.23Z"/><path class="cls-5" d="M52.42,2.27a2.65,2.65,0,0,1,.48.07l.27-1.27L53.39,0h-.78l-.09,1.09Z"/><path class="cls-5" d="M55.54,7.56a2.06,2.06,0,0,1-.12.26l2.27,1.24.13.07.11-.24c.08-.17.17-.34.24-.51l-2.46-1-.09,0A1.3,1.3,0,0,1,55.54,7.56Z"/><path class="cls-5" d="M55.83,6.62l2.7.42a7.34,7.34,0,0,0,.08-.82l-2.73-.08A3.91,3.91,0,0,1,55.83,6.62Z"/><path class="cls-5" d="M57,10.19,55,8.48a3.64,3.64,0,0,1-.34.34l1.83,2,.18-.18c.13-.14.27-.27.39-.41Z"/><path class="cls-5" d="M51.81,5.46,52,5.39l-.17-1-.3-1.69a3.16,3.16,0,0,0-1,.36l.81,1.49Z"/><path class="cls-5" d="M49.49,8.12l.68-.54,1.45-1.16a.87.87,0,0,1-.11-.18l-1.67.61L49,7.17A3,3,0,0,0,49.49,8.12Z"/><path class="cls-5" d="M52,6.64l-.12,0L51,9.18A3.28,3.28,0,0,0,52,9.39l.06-2.56V6.66Z"/><path class="cls-5" d="M52.52,5.53l1.53-1.81.23-.28a3.71,3.71,0,0,0-.94-.56l-.47,1.2-.53,1.35A.52.52,0,0,1,52.52,5.53Z"/><path class="cls-5" d="M51.56,5.7,49.2,4.33a3.22,3.22,0,0,0-.39,1l2.68.53A.73.73,0,0,1,51.56,5.7Z"/><path class="cls-5" d="M54.64,8.25l-2-1.81a.48.48,0,0,1-.16.13l1.36,2.37A3.34,3.34,0,0,0,54.64,8.25Z"/><path class="cls-5" d="M52.75,6a.37.37,0,0,1,0,.11l2.69.48c0-.08,0-.16,0-.24s0-.23,0-.35a3.31,3.31,0,0,0-.18-1.08l-.54.18-2,.7A.64.64,0,0,1,52.75,6Z"/></g></g></g></svg>