<svg xmlns="http://www.w3.org/2000/svg" viewBox="0 0 67 54.23"><defs><style>.cls-1{fill:#2774c1;}.cls-2{fill:#415668;}.cls-3{fill:#6ab3ef;}.cls-4{fill:#f7da08;}.cls-5{fill:#161614;}</style></defs><title>Recurso 66pintura_trozo_1</title><g id="Capa_2" data-name="Capa 2"><g id="Capa_1-2" data-name="Capa 1"><g id="Silencio"><polygon class="cls-1" points="27.89 16.53 28.13 17.91 28.56 18.3 29.16 16.77 27.89 16.53"/><path class="cls-1" d="M0,40.75v.18l.1-.11Z"/><polygon class="cls-1" points="61.29 0 60.8 0 61.15 0.2 61.29 0"/><path class="cls-1" d="M67,42.18V39.86l-1,.56Z"/><path class="cls-1" d="M66.57,12.91l.4-.13,0,.06v-2c-.18.09-.37.16-.55.23Z"/><polygon class="cls-1" points="64.45 0 64.14 0 64.13 0.11 64.45 0"/><path class="cls-1" d="M30.65,24.6,30,22.93a6.46,6.46,0,0,1-.83.42l0-.11.34,1.92A9,9,0,0,0,30.65,24.6Z"/><polygon class="cls-1" points="33.62 16 31.62 16 31.44 16.15 33.22 16.2 33.62 16"/><polygon class="cls-1" points="66.39 0.51 67 0.43 67 0 66.3 0 66.39 0.51"/><path class="cls-1" d="M65.91,2.43l-.19,0-.06-1.11-1.37-.23-.18,1.12L65,3a3.49,3.49,0,0,1-.88.69l-.92-1.53-.09,0,0-.09-.43-.73a.55.55,0,0,0,.17-.13l.41.35L63.48,1,63.05.9s0-.08,0-.12a.65.65,0,0,0,0-.2l.64-.21L63.77,0h-.69l-.26.29a.81.81,0,0,0-.18-.1L62.71,0h-.26l-.61,1.11a.25.25,0,0,0,0,.07l-.14.1-.13.24-.09-.06L60,2.64a9.7,9.7,0,0,0,1.41.78l.78-2a.71.71,0,0,0,.21,0l-.06,2.36a9.55,9.55,0,0,0,1.3.34l-.29,1.62.27,1.43-.54.06v.08l-.21,0h-.1v0a10.61,10.61,0,0,1-1.37-.36l-.06.32A6.3,6.3,0,0,1,60.47,7l.13-.41a13.18,13.18,0,0,1-1.21-.55l-.24.43A6.81,6.81,0,0,1,58.42,6l.29-.38c-.19-.12-.39-.22-.58-.35l1.79-2.61-.26.19a3.26,3.26,0,0,1-.56-.95l2-.71L60.78,1l.34-.46L59,.12S59,0,59,0H57.37l.3.42.82.06c0,.1,0,.2,0,.3V1L58,1,56.45,2.31l2.16-.56a3.57,3.57,0,0,0,.16.46l-2.63,1c-.07-.17-.12-.35-.18-.53L55.6,3A13,13,0,0,1,54,.69c0,.09,0,.19,0,.29v.17l-2.1,0c.06.13.12.27.19.4L49.55,2.9l0,.21-2.78.51a15.44,15.44,0,0,1-.26-2l2-.09c-.09-.21-.18-.42-.26-.64L50.67,0H32.84l-1,2.35a12.86,12.86,0,0,0-1.79-.67L30.52,0H28.05l-.14,1.23A13.58,13.58,0,0,0,26,1.13L26,0H23.5l.23,1.34a12.85,12.85,0,0,0-1.85.47L21.33,0H19.66l.13.39c-.32.11-.62.24-.92.36l.93,1.93a14,14,0,0,0-1.65,1l-1.3-2-.2.1L15.6,0H10.48A13.26,13.26,0,0,0,8.19,2.44L6.1.92A11.25,11.25,0,0,1,6.86,0H1.57a22.08,22.08,0,0,0-1,2.74L0,2.57V14.19c.51,1,1,1.92,1.55,2.83L0,17.91v3.56l.2-.15C1.07,22.59,2,23.82,2.85,25L.42,27,0,26.43v5.82c1.39,1.11,2.79,2.16,4.17,3.12L2.62,37.61C1.75,37,.88,36.37,0,35.71v.94c1.83,1.28,3.67,2.45,5.47,3.49L4.05,42.79l1,.76L3,46.59c-.55-.38-1.1-.79-1.65-1.2L3.4,42.62c-.55-.32-1.1-.66-1.66-1L0,43.77V49.3l1.6-2.59c.61.41,1.24.81,1.85,1.19L1.31,51.69c-.44-.27-.87-.56-1.31-.84V54H8l1.25-3.07c.66.29,1.33.56,2,.81L10.46,54h2.37l.46-1.55c.68.22,1.38.42,2.06.6l-.22,1h2.23l.08-.47c.7.13,1.41.25,2.11.35l0,.12h.32l.69-3.64c.61.12,1.23.22,1.84.3L21.94,54h2l.23-3.15c.61,0,1.24.07,1.86.08L26,54H28.1L28,50.91c.62,0,1.24-.08,1.86-.14L30.16,54h.06l0-.28.36-.06,1.6-.31-.46-2.82.32-.06,1.56-.28.71,3.64-.93.17h1c.11-1.92.24-3.79.36-5.48a28.82,28.82,0,0,1-5.38,1.08l-.23-2.44-.93,0-.41,0,.14,2.55c-.57,0-1.16,0-1.73,0a34.36,34.36,0,0,1-5.29-.42l.43-2.94c-.43-.09-.86-.19-1.29-.31l-.55,3a43.89,43.89,0,0,1-6.7-1.92l1.05-3.05c.92.35,1.84.65,2.75.92l-.13,0,.92-2.57a37.3,37.3,0,0,0,5.46,1.51l-.44,2.34,1.23.13L24,44.13a27.15,27.15,0,0,0,5.58.29l.1,1.88c.4,0,.81-.11,1.21-.18l-.18-1.78a24.6,24.6,0,0,0,4.44-.89l.16-1.81.26,1.67.55-.17.46,1.3.68-.3c0-.28.09-.57.14-.86l-.22-.54.35-.16c.2-1.1.42-2.25.66-3.4l-.4.17-1.13-3L37.4,36l-.06-.16,1.82-.74a20,20,0,0,1,1.45-3.93c1.25-2.3,1.88-6.42,2.2-9.79L40.47,21a13,13,0,0,0,.2-1.66l2.3.12c0-.07,0-.14,0-.21L41.81,19h-1c0-.07,0-.15,0-.22l-.45-.08a14.48,14.48,0,0,0,.22-2l2.67.13c0-.52,0-.83,0-.86H40.62q0-.5,0-1l-.27.08a12.15,12.15,0,0,0-.58-1.56l2.48-1.13c.2.43.36.87.52,1.31l.85-.12A19.49,19.49,0,0,1,43.74,16H43.3a21.49,21.49,0,0,1,3.25,13.61c-.06.64-.11,1.36-.17,2.14a1,1,0,0,0,.17-.1l1.5,2.84c-.62.35-1.26.7-1.9,1,0,.71-.07,1.43-.11,2.17l2.26-1.41.49.79.35-.23,1.65,2.75c-1.47.94-3.07,2-5,3.22-.08,2.17-.15,4.32-.21,6.28l.51,1.31-.56.22v.07l1.1,2.89L45.6,54H50l1.29-.58.28.58h2l-.65-1.32L56.62,51l1.22,2.46L56.65,54h4.24l-.3-.62,4.18-2L66.08,54H67V51.19l-.38-.76.38-.19V49.12l-2.2,1.07-1.27-2.44c1.22-.59,2.39-1.15,3.47-1.69V42.82l-1.63,1L63.92,41.3l-1.49.83-2-3.2,1.79-1,1.14,1.89,1.76-1-1.1-1.87c.65-.35,1.24-.67,1.83-1L67,37.91V30l-.73.39-.48-.87-1.26.65.5.9c-1.94,1.07-3.91,2.21-6,3.46l-.62-1c-.41.24-.82.46-1.25.7l.64,1.07c-1.86,1.11-3.82,2.29-6,3.62l-.72-1.18-.52.31-1.49-2.33c1.9-1.12,3.62-2.13,5.26-3.07l.43.68,1.06-.63-.4-.67c1.88-1.07,3.63-2,5.35-2.95l.32.56L62.16,29l-.3-.53c1.77-.93,3.49-1.8,5.14-2.6V20.72l-1,.73-.14-.18c-.55.36-1.1.75-1.69,1.17l.22.27-1.87,1.5L60.8,25.63l-.32-.4-.5.4-1.14.88.31.41c-1.34,1-2.59,2-3.79,2.82l-.3-.42c-.47.34-.94.66-1.39,1L52,28.06c1-.69,2.08-1.44,3.22-2.3l0,0,1.41-1.07,0,0,1.53-1.19,1.65-1.27h0l.67-.55c.64-.5,1.26-1,1.89-1.51l.07.09c.6-.42,1.17-.82,1.73-1.19l-.15-.19c1.06-.82,2-1.52,2.94-2.16V15.39c-.35.1-.7.19-1.06.27L65.31,13l.66-.17-.65,0-1.18,0,.1-1.44c-.29,0-.57.09-.86.11l-.25-2.72a8.29,8.29,0,0,0,3.31-1l.56,1V7.38l-.55.08-.23-2.59L65,3.58a2.81,2.81,0,0,0,.35-.34l1.15,1L67,4.12V3.19l-1.16-.61A1,1,0,0,1,65.91,2.43ZM17,49.71c.61.18,1.21.35,1.82.5l-.9,3.6c-.67-.16-1.34-.35-2-.55ZM35.65,1a18.27,18.27,0,0,1,1.88,1.43l-2,2.48A15.72,15.72,0,0,0,34,3.69ZM31.83,4.85c.13.07.26.16.39.24l.24-.84a14.6,14.6,0,0,1,1.92.68l-.54,1.25a12.23,12.23,0,0,1,1.59,1.55l1.06-1.68c.22.14.43.29.64.44l2.34-2.11A18.93,18.93,0,0,1,40.88,6.3L38.27,8.08c-.11-.18-.24-.37-.37-.55L36.38,9.34c-.34-.28-.69-.52-1.05-.77l-1.41,1.2a10.93,10.93,0,0,1,2.29,1.89l1.32-.6a13.05,13.05,0,0,1,1,4.62,10.83,10.83,0,0,1,.5,3.26A11.85,11.85,0,0,1,39,20.13l-2.72-.3a8.85,8.85,0,0,0,0-.89,8.09,8.09,0,0,0-.15-1.56l-.77-.09a9.28,9.28,0,0,0,.06-1.06,9.86,9.86,0,0,0-.42-2.81l-.53.44a8.08,8.08,0,0,0-2.6-2.09l1-2.06a9.44,9.44,0,0,0-2.54-2ZM33,23.38a4.64,4.64,0,0,1-.38.39l-1.82-2a1.59,1.59,0,0,1,.13-.13l-.27-.31a3.45,3.45,0,0,1-.7.56l-1.36-2.37a.65.65,0,0,0,.16-.13l.91.8-.53-.6a4.75,4.75,0,0,0,.38-.4l-.55-.1a3.92,3.92,0,0,1-.71.58v.55l.15-.08,1.43,2.59-.11-.28a3.42,3.42,0,0,0,.43-.21l1.35,2.37a5.76,5.76,0,0,1-.61.3l.72,1.35A5.85,5.85,0,0,0,32.2,26l1.33,2.39a10.62,10.62,0,0,1-4.28,1.31l-.09-1a10.71,10.71,0,0,1-1.78.32l-.27-3.22a8.79,8.79,0,0,0,1.53-.29L28.5,22.7l.36,0-.6-1.51,0,1.15a3.39,3.39,0,0,1-.9-.15l.08.44c.1,0,.19.05.29.06l-.13.85.05.31h-.11l-.24,1.53a7.33,7.33,0,0,1-.81-.19l.37-1.26-.15,0-.16-3.23a5.14,5.14,0,0,0,.55-.06l.2,1.15.82-2.24h0l-.43-.77s0,0,0,0l-1.43-.29,0,1.17,1.49-.54a.52.52,0,0,0,.1.18L25.68,21c0-.05-.07-.11-.11-.17l-.09.55,0,0,0,0-.27,1.73L26.09,22a3.54,3.54,0,0,0,.41.26l-1.31,2.39a6.33,6.33,0,0,1-.7-.44l.31-.43a6,6,0,0,1-.61-.14l.38-1.34-1.1,1a4.56,4.56,0,0,1-.51-.65l1.88-1.3.23-.79.31.07a2.94,2.94,0,0,1-.23-.51l.08,0L25,20l.56-1.6-.53-.1a3.22,3.22,0,0,1,.39-1l.45.26.2-.57a.59.59,0,0,0,.23,0l0,.76,1.29.75-.89-1.61a.55.55,0,0,0,.18-.16l.52.48L26.69,16a3.57,3.57,0,0,1,1-.36l0,.11,1.34-.48-.47-.07.22-2.72c.28,0,.55.07.82.12h0l1.77-1.92a8.87,8.87,0,0,1,.64.72l-2.43,2-.13-.15-.42,2,.85-.3c0,.08,0,.16.06.23l.28-.63-.14-.33.38-.19L31,13a5.12,5.12,0,0,1,.73.39h0l1.22-.64a7.27,7.27,0,0,1,.38.91L31,14.5l-.75,1.22-.18-.09c0,.16,0,.32,0,.49a2.52,2.52,0,0,1,.33.24l-.37.45s0,.08,0,.13l-.08,0-1.28,1.53.28.25,1.1-.37a4.1,4.1,0,0,0,.21-.48l.55.22.64-.21a3.16,3.16,0,0,1,.13.53l.83.33,2.29-.29c0,.23,0,.47,0,.57h0v1h0c0-.51,0-.27-.07,0l-1.79-.29c0,.08-.07.17-.11.25l-.64-.36-.15,0v-.06l-.38-.22a2.4,2.4,0,0,1,0,.28l-2-.36,2.34,2.09c-.13.15-.27.29-.41.43l1.35,1.17a9.67,9.67,0,0,0,.82-1l-2.06-1.12a3.49,3.49,0,0,0,.2-.44l2.29.89a9.17,9.17,0,0,0,.71-1.44l2.9,1.2A14.92,14.92,0,0,1,37,22.41l1.26.5a10.61,10.61,0,0,1-2.48,3.72l-1.9-2c0-.05.1-.12.16-.17Zm-.32,7.3,1,2.55a14.61,14.61,0,0,1-2,.59l-.08-.37a15,15,0,0,1-1.45.42l-.69-3.15a14.89,14.89,0,0,0,1.83-.57l.31.87C32,30.92,32.36,30.81,32.71,30.68Zm-5.22,3.6c-.4,0-.79,0-1.19,0s-.76,0-1.14,0l.13-2L25,33.83a16.92,16.92,0,0,1-2-.58l1-2.56a14.47,14.47,0,0,0,1.42.43v-.06a15.37,15.37,0,0,0,1.92,0l.12,1.85.09-1.46a13.46,13.46,0,0,0,1.68,0l.18,2.73c-.34,0-.69,0-1,0s-.55,0-.83,0Zm-8.37-3.15L20.76,29a14,14,0,0,0,1.4.91l-.28.5c.42.14.84.27,1.26.37l-.68,3.15a16,16,0,0,1-2.24-.68l.39-1.09C20.1,31.81,19.6,31.48,19.12,31.13Zm-6.31-9.89a14.55,14.55,0,0,0,.76,1.82L10.8,24.55a18.89,18.89,0,0,1-.93-2.22ZM9.16,19.59a19,19,0,0,1-.28-2.39L12,17a14.48,14.48,0,0,0,.22,2Zm5.2,5.7c-.18-.4-.35-.8-.5-1.21L16,23.31a12.84,12.84,0,0,1-1-1.87l-1.79.33a16.88,16.88,0,0,1-.24-2l2.12-.11L17,19.06a11.8,11.8,0,0,1,.92-4.51l2.77,1.16,0,.07,1.27.1c0,.12,0,.24,0,.35a1.55,1.55,0,0,0,0,.22l-1.54.08a8.42,8.42,0,0,0-.3,1.41l2-.55q.07.27.18.54L20,18.87c0,.09,0,.18,0,.26v.18l-2.43,0a9.85,9.85,0,0,0,1.18,2.39l1.79-.53a7.9,7.9,0,0,0,1.59,2.93l-.43.36a8.8,8.8,0,0,0,2.89,1.09l-.08.45a7.68,7.68,0,0,0,2.29.79l-.48,2.69a11.12,11.12,0,0,1-2.53-.8,12,12,0,0,1-4.48-1.95l.64-1a10.67,10.67,0,0,1-1.59-2.6L17,24.42l.13.28-1.92,1c.24.3.48.59.74.86L13.68,28.8A17.47,17.47,0,0,1,12.18,27Zm-.22-12.21c.11-.26.22-.52.35-.77s.22-.69.35-1l.15.06,0-.1.85.5,1.83.79A9.7,9.7,0,0,0,17,16.23v.19l-1,0a11.82,11.82,0,0,0-.2,1.19l-2.72-.28a15.37,15.37,0,0,1,.35-2l.52.13a12.34,12.34,0,0,1,.35-2.35Zm8.39,2.37A3.9,3.9,0,0,1,23,14.24l.55.32.08-.1.43.41,1.64,1a.92.92,0,0,0-.09.23L25.23,16l.35.33-.2.24.23-.09a.94.94,0,0,0,.12.22l-.87.72a3.61,3.61,0,0,0-.16.42l-.26-.07-.94.78,1.05.08c0,.1,0,.2,0,.3a1.09,1.09,0,0,0,0,.18l-1.47.07v0l-2.32,2.15a6.28,6.28,0,0,1-.59-.77l1.9-1.35h-.26c0-.1,0-.21,0-.31s0-.35,0-.52l1.34.11a4,4,0,0,1-.49-.94l.52-.19-1.11-.33a5.2,5.2,0,0,1,.29-.78l1.72.77,1.09-.41L24,15.75Zm3.11-3.14.34,2,.59,1.16.49-1.31-.41-1.55a5.8,5.8,0,0,1,.81-.16l.07.47.17-.45a3.82,3.82,0,0,1,1.07.66l-1.05,1.3.1.72a3.55,3.55,0,0,0-.47.09L27.28,15l-.51.63a.76.76,0,0,0-.19-.12l0,0a3.38,3.38,0,0,0-.41.24L26,15.55l-.05,0-.23-.43-1.07-1.57.18-.11-.38-.72A3.62,3.62,0,0,1,25.64,12.31Zm-.44-.39-.8-3.13a7.67,7.67,0,0,1,.93-.19l.41,3.21A3.23,3.23,0,0,0,25.2,11.92ZM22.3,21.4a5.66,5.66,0,0,1-.27-.79l1.47-.39.27-.37.33.21.57-.15a3.39,3.39,0,0,0,.15.45l-.9.37L22.73,23a8.52,8.52,0,0,1-.8-.53l.9-1.28ZM22.18,15l-3-.93a7.77,7.77,0,0,1,.33-.92l2.85,1.32A3.35,3.35,0,0,0,22.18,15ZM16.94,29.11A14.18,14.18,0,0,1,16,28l2.19-1.61a13,13,0,0,0,1.08,1.27l-1,.93c.31.22.62.43,1,.62L17.74,32a16.58,16.58,0,0,1-1.94-1.32ZM33.66,15a7.26,7.26,0,0,1,.06.93l.39-.2a7.19,7.19,0,0,1,.32.76l-.76.28c0,.13,0,.27,0,.4l-.76-.12-1,.36a4.32,4.32,0,0,0-.19-.45l.17-.08-1.29-.21a5.48,5.48,0,0,0,.05-.57h.47L31,16H30.6a5.44,5.44,0,0,0,0-.57l1-.13L32.8,14a8,8,0,0,1,.56.6l-.69.56ZM30.44,8.4l-.54,2.67L29.39,11l-.84,1.43a4.67,4.67,0,0,0-.49-.27l.54-1.23a8.25,8.25,0,0,0-1.22,0l-.18.9a3.31,3.31,0,0,0-.55-.08l.06-.71-.15,0L26,8.44A10.86,10.86,0,0,1,30.44,8.4ZM28.31,3.68a15.51,15.51,0,0,1,1.8.1l-.32,2.71a13.82,13.82,0,0,0-1.58-.08l-.09.5a9.54,9.54,0,0,0-2.77-.13c-.27.07-.55.12-.81.2l0-.06L24.3,7l-.48-2.26-.1-.31h0l-.12-.57A11.89,11.89,0,0,1,28.31,3.68Zm-5,5.75,1.28,2.41-.32.19.11.23a3.4,3.4,0,0,0-.48.29l-.13-.2A7.36,7.36,0,0,0,23,13l.21.2a3.55,3.55,0,0,0-.35.44l-.3-.22A6,6,0,0,0,22,14l-2.15-1.69c.16-.2.34-.38.51-.57l-.05,0a7.51,7.51,0,0,1,.61-.76L21,11a11.51,11.51,0,0,1,1.21-1l-.12-.18a5.7,5.7,0,0,1,.81-.5l.1.2ZM20.55,5l.33.64c.2-.12.41-.23.62-.34l1.22,2.44a13.09,13.09,0,0,0-1.45.85l-.12-.19a9,9,0,0,0-1.5,1.33l.09.09A11.93,11.93,0,0,0,18.6,11L16.48,9.29c.17-.21.35-.41.54-.62l-.38-.31A12.44,12.44,0,0,1,20.55,5ZM13.33,1.28l1.64,2c-.07.06-.13.13-.2.18L16.5,5.4a14.82,14.82,0,0,0-1.3,1.44l-2-1.72c-.18.21-.36.41-.52.63l-2.1-1.52A15.87,15.87,0,0,1,13.33,1.28ZM9.21,6.42l1.88,1c.05-.09.09-.18.14-.26l2.69,1.63a14.39,14.39,0,0,0-.85,1.77l-2.37-1c-.16.43-.31.86-.44,1.31l-2.5-.7A19.92,19.92,0,0,1,9.21,6.42Zm-.05,6.49c.05-.31.11-.62.18-.92l3,.76a15.55,15.55,0,0,0-.32,1.95l-2.47-.27c-.08.69-.14,1.39-.17,2.12l-2.58-.1a29.3,29.3,0,0,1,.39-3.87Zm-1.3,13.6L5.73,28.23c-.81-1-1.63-2.09-2.42-3.21l2.23-1.58C6.3,24.51,7.08,25.55,7.86,26.51ZM4.47,1.4,7.1,2.8c-.22.45-.42.93-.61,1.41l.65.34A17.82,17.82,0,0,0,5.89,7.77L3.4,7.07c.1-.35.22-.68.33-1l-.91-.26A23.33,23.33,0,0,1,4.47,1.4ZM2.2,8.7l2.91.51c0,.22-.05.46-.08.68L5.4,10a27.56,27.56,0,0,0-.35,3.54l-2.59-.1v-.08l-.71,0A36.42,36.42,0,0,1,2.2,8.7Zm.1,14.85C1.58,22.47.86,21.33.16,20.17L2.5,18.76C3.17,19.89,3.87,21,4.57,22Zm-.49,5.33,2.37-2.11c1,1.18,2,2.29,3,3.31L5,32.39C3.91,31.31,2.85,30.13,1.81,28.88Zm1.9,9.68,1.52-2.27c1.65,1.12,3.31,2.13,4.93,3L8.84,41.71C7.15,40.77,5.43,39.71,3.71,38.56Zm3,2.49a55.25,55.25,0,0,0,6,2.84l-1.13,3a59.53,59.53,0,0,1-6.29-3Zm0,3.82c.53.34,1.08.68,1.62,1L6.51,49.06c-.58-.34-1.17-.7-1.75-1.07ZM5.54,54.23c-.7-.34-1.4-.71-2.1-1.1l2-3.88c.64.36,1.3.7,1.94,1ZM10.15,51c-.62-.29-1.24-.61-1.84-.93l1.74-3.28c.56.3,1.13.59,1.69.86Zm3.32-2.58c.58.25,1.17.48,1.76.69L14,52.6c-.64-.23-1.29-.49-1.93-.75Zm1.95-3.6a52.35,52.35,0,0,1-5.5-2.53l1.27-2.41a48.92,48.92,0,0,0,5.22,2.39ZM36.83,39l-1,.38.25.69c-.61.23-1.24.47-1.87.69-.85.31-1.72.58-2.57.8l-.39-1.67.12.8c-.7.11-1.4.18-2.1.22l.11.78a21.21,21.21,0,0,1-3.45.28h0l-1,0L25,40.7a19.68,19.68,0,0,1-2.11-.42l-.24,1.82A24.12,24.12,0,0,1,18,41l.72-2.17c-.59-.27-1.17-.56-1.75-.89L16,40.15a30.08,30.08,0,0,1-4.17-2.29l1.45-2.39c-.51-.39-1-.8-1.52-1.23l-1.66,2.41a43.17,43.17,0,0,1-3.63-3l2.09-2.4,0,.05C8,30.64,7.45,30,6.88,29.35L9,27.57c.85,1,1.73,1.94,2.6,2.8L9.71,32.23c.47.4.93.78,1.39,1.15l1.68-1.85a32.82,32.82,0,0,0,2.94,2.37l-1.29,1.79c.52.32,1,.61,1.57.88l1.1-1.74a24.18,24.18,0,0,0,3.27,1.75l-.66,1.53c.57.18,1.13.34,1.7.47l.49-1.41a19.49,19.49,0,0,0,3.55.85l-.13,1h.57c.31,0,.62,0,.93,0l.05-1,.87,0h0a19.39,19.39,0,0,0,3.12-.25l.1.66c.47-.12,1-.26,1.42-.42l-.09-.35a19.72,19.72,0,0,0,2-.6l1.59-.57Zm-1-6.81-.35-.62c-.19.13-.39.26-.59.37l-1.54-2.81A13.27,13.27,0,0,0,35,28.07l.72,1,.21-.14,1.65,2.17A16.17,16.17,0,0,1,35.84,32.22Zm3.49-2.72-2-1.89c.06-.06.11-.14.17-.2l-.89-.89A16.33,16.33,0,0,0,37.87,25l2.51,1.91-.41.55.66.48A14.93,14.93,0,0,1,39.33,29.5Zm.47-8.3,2.94,1.08c-.18.52-.39,1-.62,1.55l.58.21a17,17,0,0,1-.81,1.87l-2.42-1.25A11.68,11.68,0,0,0,40,23.51L39.05,23A15.14,15.14,0,0,0,39.8,21.2ZM40,12c-.06-.2-.13-.41-.2-.61l-1,.69a13.42,13.42,0,0,0-1-1.34l2.06-1.79c.2.23.38.46.57.7l1.79-.84A18.45,18.45,0,0,1,43,11.05Zm8.77,41-1.67-4,.37-.17-1-2.23,1.76-.78,1.56,3.37-.18.08L50.92,52C50.21,52.29,49.5,52.62,48.8,52.93Zm10.55,0-1.19-2.46c1.23-.59,2.41-1.17,3.52-1.72l1.21,2.45ZM58.6,40.18l1.14,1.94,1.17-.71,2.14,3.8-2,1.19-1.42-2.55-.92.54L56.9,41.17Zm-3.4,2,1.12,2,.7-.4,2.08,3.83c-.7.41-1.35.79-2,1.15l-1.38-2.63-.46.26-1.77-3.27C54,42.79,54.6,42.48,55.2,42.14Zm-2.35,3.93.26-.14,2,3.91c-.7.37-1.39.74-2.06,1.08l-1.3-2.73h0l-1.63-3.33L51.78,44ZM59,3.17a3.47,3.47,0,0,0,.3.37l-2,1.82a6.65,6.65,0,0,1-.51-.65Zm-7.21.91,2.62-.77A8,8,0,0,0,56,6.24L54,8a10.37,10.37,0,0,1-.83-1.14l-.71.71a16.71,16.71,0,0,1-1.5-1.84l1.18-.9C52,4.59,51.91,4.34,51.83,4.08ZM50.34,5.26A11.61,11.61,0,0,0,51,6.79L48.59,8.05a15.57,15.57,0,0,1-.82-1.87ZM53.7,31.19c-1.28.89-2.55,1.72-3.88,2.52l-.25-.44-.68.41-1.37-2.36c1.11-.65,2.18-1.31,3.26-2h0c.4-.26.79-.52,1.19-.8ZM51.17,11.64a15.12,15.12,0,0,1-1.32-1.56l2.2-1.62a12,12,0,0,0,1.08,1.28Zm3.49,2.7A14.67,14.67,0,0,1,53,13.22l1.64-2.17A14,14,0,0,0,56,12Zm4.13,1.59a16.36,16.36,0,0,1-2-.58l1-2.56a12.75,12.75,0,0,0,1.6.47Zm.1-3.95.23-.63a10.4,10.4,0,0,1-2.44-1.07l-.27.51a17.07,17.07,0,0,1-1.94-1.33l1.87-2.58a14.47,14.47,0,0,0,1.24.86l.05-.07a7.92,7.92,0,0,0,3.08,1.26l0,.26c.37.12.75.23,1.14.32l-.69,3.16A17.92,17.92,0,0,1,58.89,12ZM63,13.54l.19,2.72c-.35,0-.7,0-1,0s-.67,0-1,0l.18-2.73A11.64,11.64,0,0,0,63,13.54Zm2.37-6.87a7.29,7.29,0,0,1-.74.37l-1-2.52L64,4.31Z"/><path class="cls-1" d="M66.71,2.59l-.1,0,.39.15v-1l-.45-.07Z"/><path class="cls-1" d="M36.14,46.29l.49,3.11s.17-1.35.48-3.32l0-.09C36.77,46.1,36.45,46.2,36.14,46.29Z"/><path class="cls-2" d="M45.56,50.7c0,1.21-.07,2.33-.1,3.3h.14l1.06-.41Z"/><path class="cls-2" d="M51.71,48.19,53,50.92c.67-.34,1.36-.71,2.06-1.08l-2-3.91-.26.14.64,1.22Z"/><path class="cls-2" d="M30.68,53.66l-.36.06,0,.28h2l-.11-.65Z"/><path class="cls-2" d="M55.72,46.09l1.38,2.63c.65-.36,1.3-.74,2-1.15L57,43.74l-.7.4.7,1.24Z"/><path class="cls-2" d="M59.67,43.85l1.42,2.55,2-1.19-2.14-3.8-1.17.71.73,1.27Z"/><path class="cls-2" d="M66,40.42l-.77-1.37-1.69,1,.76,1.32-.28.17,1.13,2L67,43.08v-.9l-1-1.76Z"/><path class="cls-2" d="M3.46,48.15c-.62-.38-1.24-.77-1.85-1.18L0,49.56v1.55c.44.28.88.57,1.31.83Z"/><path class="cls-2" d="M3.44,53.13c.7.39,1.4.76,2.1,1.1l1.83-4c-.64-.31-1.3-.65-1.94-1Z"/><path class="cls-2" d="M13.39,52.45,12.94,54h2.29l.23-1Q14.43,52.78,13.39,52.45Z"/><path class="cls-2" d="M17.56,53.53l-.09.47h2.18l0-.12C19,53.78,18.26,53.66,17.56,53.53Z"/><path class="cls-2" d="M9.34,50.93,8.1,54h2.46l.79-2.26Q10.35,51.37,9.34,50.93Z"/><path class="cls-2" d="M48,49.9l-.5-1.19-.37.17,1.67,4c.7-.31,1.41-.64,2.12-1l-1.24-2.8Z"/><path class="cls-2" d="M23.76,46.66c-.41,0-.82-.08-1.24-.13l-.06.34-1-.21L21,49.59a33.21,33.21,0,0,0,5.3.43c.58,0,1.16,0,1.73-.05l-.13-2.54a30.8,30.8,0,0,1-4.23-.35Z"/><path class="cls-2" d="M31.1,47.3,31,46.38c-.4.07-.81.12-1.21.18l0,.84-.58,0,.23,2.44a28.94,28.94,0,0,0,5.39-1.09c.06-.77.11-1.5.16-2.17A26,26,0,0,1,31.1,47.3Z"/><path class="cls-2" d="M66.3,30.62l.7-.39V29.15l-1.16.6Z"/><path class="cls-2" d="M61.92,29.21l-1,.61,1,1.83c-1.17.65-2.38,1.35-3.62,2.07l.59,1c2.05-1.25,4-2.38,5.81-3.45l-.48-.9-1.26.67Z"/><path class="cls-2" d="M55.82,32.88l-1,.64,1,1.66c-1.42.85-2.91,1.75-4.53,2.75L52,39.1c2.07-1.32,3.95-2.51,5.74-3.61l-.61-1.07-.27.15Z"/><path class="cls-2" d="M45.9,41.27c0,.6,0,1.2-.08,1.81,1.9-1.24,3.5-2.29,5-3.23L49.14,37.1l-.35.23,1,1.53Z"/><path class="cls-2" d="M.58,40.27c.48.42,1,.83,1.47,1.23l-.3.37c.55.35,1.11.69,1.66,1l.15-.2.5.37,1.42-2.66c-1.8-1-3.64-2.21-5.48-3.48v3.84l.1.07Z"/><path class="cls-2" d="M12.7,43.89a55.25,55.25,0,0,1-6-2.84L5.28,43.91a59.53,59.53,0,0,0,6.29,3Z"/><path class="cls-2" d="M13.94,44.38l-1,3a43.79,43.79,0,0,0,6.72,1.92l.55-3c-1.14-.3-2.3-.65-3.46-1.06C15.79,45,14.87,44.72,13.94,44.38Z"/><path class="cls-2" d="M37.39,44.39c-.22.1-.45.21-.68.3l.43,1.23C37.22,45.44,37.3,44.93,37.39,44.39Z"/><path class="cls-2" d="M37.11,46.08l0-.1h-.05Z"/><path class="cls-2" d="M2.85,25.22C2,24.07,1.07,22.85.21,21.57L0,21.72v5L.7,27Z"/><path class="cls-2" d="M21.41,38.83c-.57-.13-1.13-.29-1.7-.47l-.42,1L18.68,39,18,41.2a24.12,24.12,0,0,0,4.65,1.15l.24-1.82c-.62-.15-1.23-.32-1.84-.53Z"/><path class="cls-2" d="M27.74,41l-1,0,.09-2c-.31,0-.62,0-.93,0h-.57l-.24,1.73-.12,0L24.9,42l1,0h0a21.21,21.21,0,0,0,3.45-.28l-.11-.78c-.5,0-1,.06-1.48.06Z"/><path class="cls-2" d="M11.1,33.64c-.46-.37-.92-.75-1.39-1.15l-.07.07c-.35-.34-.69-.7-1-1.06a.1.1,0,0,0,0,0l-2.09,2.4a43,43,0,0,0,3.63,3l1.66-2.41L11,33.8Z"/><path class="cls-2" d="M7.15,30.08c-1-1-2-2.13-3-3.31L1.81,28.88c1,1.25,2.1,2.43,3.15,3.51Z"/><path class="cls-2" d="M16,36.82c-.53-.27-1.05-.56-1.57-.87l-.31.42c-.28-.2-.56-.43-.85-.65l-1.45,2.39A30.17,30.17,0,0,0,16,40.41l.94-2.26c-.43-.25-.86-.49-1.29-.76Z"/><path class="cls-2" d="M33,40.54l-.56-2.29c-.47.15-.95.3-1.42.42l.24,1.5.39,1.67c.85-.22,1.72-.48,2.57-.79l1.87-.7-.25-.69-.59.21C34.45,40.13,33.7,40.36,33,40.54Z"/><path class="cls-2" d="M50.78,29.3l1.51,2.26c-.9.6-1.8,1.16-2.72,1.71l.25.44c1.33-.8,2.6-1.63,3.88-2.52L52,28.5C51.57,28.78,51.18,29,50.78,29.3Z"/><path class="cls-2" d="M56.66,25l-1.35,1.07L57,28.17l-1.87,1.41.29.42c1.16-.85,2.35-1.78,3.65-2.83l-.31-.41-.38.31Z"/><path class="cls-2" d="M61.08,21.39c.4-.31.78-.59,1.15-.86l-.07-.09L60.35,22l-.65.54,1.69,2.13c-.36.28-.72.58-1.08.87l.3.39,1.7-1.42L64.1,23l-.21-.28-1.14.86Z"/><path class="cls-2" d="M38.49,38.65l-.93-2.38-.77.32,1.14,3,.4-.17c.06-.26.12-.52.17-.78Z"/><path class="cls-2" d="M47.34,34.55c-.37.21-.77.41-1.15.62,0,.2,0,.41,0,.61.64-.34,1.28-.68,1.9-1l-1.5-2.83-.17.09c0,.23,0,.47-.05.71Z"/><path class="cls-2" d="M64.31,19.34l.44-.3,1.52,2.26c-.1.08-.22.15-.33.23l.14.18c.31-.26.62-.5.92-.73V19.26l-.73-1.2c.24-.15.49-.28.73-.42V17c-.89.64-1.81,1.35-2.83,2.17Z"/><path class="cls-2" d="M67,51.44v-.95l-.36.19Z"/><path class="cls-2" d="M60.41,53.38l.29.62h5l-1.26-2.66C63.16,52,61.81,52.68,60.41,53.38Z"/><path class="cls-2" d="M2.85,9.52,5,9.89c0-.22,0-.46.08-.68L2.2,8.7a36.42,36.42,0,0,0-.45,4.59l.71,0A32.12,32.12,0,0,1,2.85,9.52Z"/><path class="cls-2" d="M4.84,3.36l1.65.85c.19-.48.39-1,.61-1.41L4.47,1.4A23.33,23.33,0,0,0,2.82,5.79l.91.26A20.21,20.21,0,0,1,4.84,3.36Z"/><path class="cls-2" d="M1.57,0H0V2.57l.61.17A20.55,20.55,0,0,1,1.57,0Z"/><path class="cls-2" d="M33,9.71l.19-.38.77.44,1.41-1.2L35,8.35l.4-.62a12.23,12.23,0,0,0-1.59-1.55l-.55,1.25a12.76,12.76,0,0,0-1.57-.56l.5-1.78c-.13-.08-.26-.17-.39-.24L30.42,7.74A9.44,9.44,0,0,1,33,9.71Z"/><path class="cls-2" d="M37,22.41A14.92,14.92,0,0,0,37.72,21l-2.9-1.2a9.17,9.17,0,0,1-.71,1.44l.25.1A5.12,5.12,0,0,1,34,22l-.33-.18a9.67,9.67,0,0,1-.82,1l.37.32c-.06.07-.13.13-.2.2l1,1.12a8.1,8.1,0,0,0,1.69-2.6Z"/><path class="cls-2" d="M35.05,13.42a9.86,9.86,0,0,1,.42,2.81,9.28,9.28,0,0,1-.06,1.06l.77.09a8,8,0,0,0-.54-1.7l2.5-1.11a11.47,11.47,0,0,1,.42,1.11,13.05,13.05,0,0,0-1-4.62l-1.32.6c.14.16.29.3.42.47Z"/><path class="cls-2" d="M25.58,3.9l.47,2.68c-.28,0-.55.14-.82.2A9.52,9.52,0,0,1,28,6.91l.1-.5H28l0-2.73h.24a11.94,11.94,0,0,0-4.69.12l.12.57A14.94,14.94,0,0,1,25.58,3.9Z"/><path class="cls-2" d="M24.3,7l.22,0-.7-2.23Z"/><path class="cls-2" d="M30.65,24.6a9,9,0,0,1-1.22.56l0,.17a5.56,5.56,0,0,1-.82.09h0a8.79,8.79,0,0,1-1.53.29l.27,3.22a10.71,10.71,0,0,0,1.78-.32L29,26.93a8,8,0,0,0,2.62-.7l-.72-1.35-.13.06Z"/><path class="cls-2" d="M20,25.78l-.65,1a12.15,12.15,0,0,0,4.49,1.95,11,11,0,0,1-1.61-.9l1.53-2.25a9.12,9.12,0,0,0,.79.47l.08-.45a8.84,8.84,0,0,1-2.88-1.09l-1.65,1.41A.64.64,0,0,1,20,25.78Z"/><path class="cls-2" d="M17,24.42l1.4-1.24a10.13,10.13,0,0,1-.44-1.2l.83-.24a9.5,9.5,0,0,1-1.18-2.39l-.57,0v-.31l-1.89.58.6,0a13.42,13.42,0,0,0,.2,1.66l-.9.17a12.89,12.89,0,0,0,1,1.87l.42-.15A11.58,11.58,0,0,0,17,24.42Z"/><path class="cls-2" d="M16.05,16c0,.15-.05.31-.08.46l1,0v-.19a9.89,9.89,0,0,1,.71-3.69l-1.82-.79,1.51.88a13.84,13.84,0,0,0-.75,1.49l-2.39-1a14.17,14.17,0,0,0-.35,2.35Z"/><path class="cls-2" d="M14.92,11.29c-.14.33-.25.68-.36,1,.16-.32.33-.64.5-1Z"/><path class="cls-2" d="M17.87,7.8l1.78,1.9a9,9,0,0,1,1.5-1.33L19.74,6.3c.37-.25.75-.47,1.14-.69L20.55,5a12.44,12.44,0,0,0-3.91,3.39l.38.31C17.29,8.37,17.58,8.08,17.87,7.8Z"/><path class="cls-2" d="M8.88,17.2a19,19,0,0,0,.28,2.39L12.22,19A14.48,14.48,0,0,1,12,17Z"/><path class="cls-2" d="M9.58,14.43l2.47.27a15.55,15.55,0,0,1,.32-1.95l-3-.76c-.07.3-.13.61-.18.92l.61.1C9.69,13.47,9.63,14,9.58,14.43Z"/><path class="cls-2" d="M22.46,33.88l.68-3.15c-.42-.1-.84-.23-1.26-.37l-1.06,1.88-.21-.13-.39,1.09A16,16,0,0,0,22.46,33.88Z"/><path class="cls-2" d="M27.4,32.91l-.12-1.85a15.37,15.37,0,0,1-1.92,0v.06l.19.05-.26,1.15-.13,2c.38,0,.76,0,1.14,0s.79,0,1.19,0v-.11h-.16Z"/><path class="cls-2" d="M23.85,1.34,23.62,0H21.44L22,1.81A13.33,13.33,0,0,1,23.85,1.34Z"/><path class="cls-2" d="M10.7,9.51l2.37,1a14.39,14.39,0,0,1,.85-1.77L11.23,7.13c-.05.08-.09.17-.14.26l.42.21A15.65,15.65,0,0,0,10.7,9.51Z"/><path class="cls-2" d="M18.26,3.94a13.94,13.94,0,0,1,1.65-1L19,1a17.19,17.19,0,0,0-2,.94Z"/><path class="cls-2" d="M19.28,29.19c-.33-.19-.64-.4-1-.62l-1,1-.39-.43L15.8,30.68A16.58,16.58,0,0,0,17.74,32Z"/><path class="cls-2" d="M13.17,5.12l2,1.72A14.82,14.82,0,0,1,16.5,5.4L14.77,3.47A13.12,13.12,0,0,0,13.17,5.12Z"/><path class="cls-2" d="M13.57,23.06a14.55,14.55,0,0,1-.76-1.82L9.87,22.33a18.89,18.89,0,0,0,.93,2.22Z"/><path class="cls-2" d="M16,26.55c-.25-.27-.5-.56-.73-.86l-.51.26-.32-.66L12.25,27a18.82,18.82,0,0,0,1.5,1.84Z"/><path class="cls-2" d="M29.5,30.72l.69,3.15a15,15,0,0,0,1.45-.42l-.53-2.29.53-.14-.31-.87A14.89,14.89,0,0,1,29.5,30.72Z"/><path class="cls-2" d="M40.41,9.63q.35.45.66.93l-1.24.81c.07.2.14.41.2.61l3-.93a18.45,18.45,0,0,0-.81-2.26Z"/><path class="cls-2" d="M27.93,1.23,28.07,0H26l0,1.13A13.58,13.58,0,0,1,27.93,1.23Z"/><path class="cls-2" d="M43.3,16h.44a19.49,19.49,0,0,0-.15-2.41l-.85.12c.07.2.14.4.2.6l-2.35.7q0,.49,0,1H43.3Z"/><path class="cls-2" d="M37.53,2.39A18.27,18.27,0,0,0,35.65,1L34,3.69a15.72,15.72,0,0,1,1.54,1.18Z"/><path class="cls-2" d="M35.68,29.06l-.72-1a13.27,13.27,0,0,1-1.6,1.09L34.9,32c.2-.11.4-.24.59-.37l-1-1.76A11.59,11.59,0,0,0,35.68,29.06Z"/><path class="cls-2" d="M37.9,7.53c.13.18.26.37.37.55L40.88,6.3a18.93,18.93,0,0,0-1.41-1.92L37.13,6.49c.35.24.68.5,1,.77Z"/><path class="cls-2" d="M32,2.35,33,0H30.65L30.2,1.68A13.48,13.48,0,0,1,32,2.35Z"/><path class="cls-2" d="M43.26,17.25a.62.62,0,0,0,0-.13L40.6,17a14.48,14.48,0,0,1-.22,2l.45.09a11.8,11.8,0,0,0-.1-1.46Z"/><path class="cls-2" d="M42,19l1.18.22c0-.07,0-.15,0-.22Z"/><path class="cls-2" d="M40,23.51c0-.13.12-.26.17-.39l2,.71c.23-.51.44-1,.62-1.55L39.8,21.2A15.14,15.14,0,0,1,39.05,23Z"/><path class="cls-2" d="M40,27.46l.41-.55L37.87,25a16.33,16.33,0,0,1-1.23,1.52l.89.89a11.44,11.44,0,0,0,.9-1.08Z"/><path class="cls-2" d="M22.53,13.38l.3.22a3.55,3.55,0,0,1,.35-.44L23,13A5.77,5.77,0,0,0,22.53,13.38Z"/><path class="cls-2" d="M21,11l-.11-.11a7.51,7.51,0,0,0-.61.76l.05,0A8.59,8.59,0,0,1,21,11Z"/><path class="cls-2" d="M19.19,14l3,.93a3.35,3.35,0,0,1,.19-.53L19.52,13.1A7.77,7.77,0,0,0,19.19,14Z"/><path class="cls-2" d="M22,16.45v-.22c0-.11,0-.23,0-.35l-1.27-.1a6.71,6.71,0,0,0-.27.75Z"/><path class="cls-2" d="M23.87,12.55a3.4,3.4,0,0,1,.48-.29L24.24,12a5.29,5.29,0,0,0-.5.32Z"/><path class="cls-2" d="M22.12,9.88l.12.18c.25-.17.52-.33.79-.48l-.1-.2A5.7,5.7,0,0,0,22.12,9.88Z"/><path class="cls-2" d="M22.31,17.93c-.06-.18-.12-.36-.17-.54l-2,.55a7.3,7.3,0,0,0-.08.93Z"/><path class="cls-2" d="M20.18,20.59a6.28,6.28,0,0,0,.59.77l2.32-2.15v0l-1,0Z"/><path class="cls-2" d="M25.07,20.52l-.23.79.36-.24c.09.12.18.24.28.35l.09-.55a1.73,1.73,0,0,1-.19-.28Z"/><path class="cls-2" d="M24.19,23.62a6,6,0,0,0,.61.14l.41-.56.27-1.73-.91.81Z"/><path class="cls-2" d="M23.77,19.85l-.27.37.6-.16Z"/><path class="cls-2" d="M22.73,23l1.19-2.26-1.09.45-.9,1.28A8.52,8.52,0,0,0,22.73,23Z"/><path class="cls-2" d="M27.62,23.81l-.05-.31-.06.32Z"/><path class="cls-2" d="M27.27,21.78l-.2-1.15a5.14,5.14,0,0,1-.55.06l.16,3.23.15,0,.41-1.35.17,0-.08-.44-.18,0Z"/><path class="cls-2" d="M25.33,8.6a7.67,7.67,0,0,0-.93.19l.8,3.13a3.23,3.23,0,0,1,.54-.11Z"/><path class="cls-2" d="M29.64,13.43l2.43-2a8.87,8.87,0,0,0-.64-.72l-1.77,1.92-.15.69Z"/><path class="cls-2" d="M28.06,12.16a4.67,4.67,0,0,1,.49.27L29.39,11a7,7,0,0,0-.79-.07Z"/><path class="cls-2" d="M26.65,11.79a3.31,3.31,0,0,1,.55.08l.18-.9a4.93,4.93,0,0,0-.67.11Z"/><path class="cls-2" d="M33.3,13.67a7.27,7.27,0,0,0-.38-.91l-1.22.64L31,14.5Z"/><path class="cls-2" d="M30.14,14.22l.14.33.24-.52Z"/><path class="cls-2" d="M28.86,22.66l.12,0,.11.6,0,.11a6.46,6.46,0,0,0,.83-.42l-.1-.23-1.43-2.59-.15.08,0,1Z"/><path class="cls-2" d="M31.51,21.69c.14-.14.28-.28.41-.43l-2.34-2.09h0a4.75,4.75,0,0,1-.38.4l.53.6,1.13,1a1.85,1.85,0,0,1-.14.14l.27.31a2.09,2.09,0,0,0,.2-.22Z"/><path class="cls-2" d="M32.82,19.92c0-.08.07-.17.11-.25l-.75-.11Z"/><path class="cls-2" d="M31.65,19.25l.38.22c0-.11,0-.23,0-.34s0-.24,0-.36l.42-.05-.83-.33a3.31,3.31,0,0,1,.05.55C31.68,19,31.66,19.15,31.65,19.25Z"/><path class="cls-2" d="M30.31,17.85a4.1,4.1,0,0,1-.21.48l.76-.26Z"/><path class="cls-2" d="M31.44,16.4l-.2.17a1.45,1.45,0,0,0-.17-.18l-.47,0a5.48,5.48,0,0,1-.05.57l1.29.21,1.38-.7Z"/><path class="cls-2" d="M33.63,17.45c0-.14,0-.27,0-.41l-.8.28Z"/><path class="cls-2" d="M33.62,16l.1-.05a7.26,7.26,0,0,0-.06-.93l-1,.13L31.62,16Z"/><path class="cls-2" d="M31.54,15.3l-1,.13a5.44,5.44,0,0,1,0,.57H31l0,0Z"/><path class="cls-2" d="M22.68,17.59a4,4,0,0,0,.49.94l.33,0,.94-.78L23.2,17.4Z"/><path class="cls-2" d="M25.19,16.65l-1.09.41.77.34v0l.87-.72a.94.94,0,0,1-.12-.22l-.23.09-.11.13Z"/><path class="cls-2" d="M25,20l.25.07,1-.36,0-1.17-.71-.14Z"/><path class="cls-2" d="M26.28,17a.59.59,0,0,1-.23,0l-.2.57.41.24Z"/><path class="cls-2" d="M26,15.57l.05,0-.28-.41Z"/><path class="cls-2" d="M24.83,13.46c.18-.11.35-.22.53-.31L26,14.36l-.34-2a3.62,3.62,0,0,0-1.19.43Z"/><path class="cls-2" d="M29,18.94a.52.52,0,0,0,0-.21l.09,0-.28-.25h0a.67.67,0,0,0-.18-.11l0,0-.43-.39.07.4a.53.53,0,0,0-.2.07l-.64-1.17-.52-.48a.55.55,0,0,1-.18.16l.89,1.61.21.12a.67.67,0,0,0-.06.15l.43.77a.45.45,0,0,0,.16,0v.07a3.92,3.92,0,0,0,.71-.58h-.06S29,19,29,18.94Z"/><path class="cls-2" d="M26.77,15.66l.51-.63-.22-.82-.49,1.31v0A.76.76,0,0,1,26.77,15.66Z"/><path class="cls-2" d="M28.77,13.18a3.82,3.82,0,0,0-1.07-.66l-.17.45.19,1.51Z"/><path class="cls-2" d="M25.58,16.09a.92.92,0,0,1,.09-.23l-1.64-1L25.23,16Z"/><path class="cls-2" d="M23.52,14.56,23,14.24a3.9,3.9,0,0,0-.44,1.21l1.43.3-.89-.65C23.21,14.91,23.36,14.74,23.52,14.56Z"/><path class="cls-2" d="M30.08,16.94c0-.05,0-.09,0-.13l-.1.11Z"/><path class="cls-2" d="M29.16,16.51l.37-1a3,3,0,0,1,.61.32c0-.17,0-.33,0-.49l-.25-.13.15-.32a2,2,0,0,0-.06-.23l-.85.3h0l-1.34.47.14.81Z"/><path class="cls-2" d="M66.25,5.13l.22,2.58c.18,0,.35,0,.53-.07V5.78l-.09.09Z"/><path class="cls-2" d="M67,4.85V4.38l-.47.06Z"/><path class="cls-2" d="M62.77,7.56l0-.07-.22,0Z"/><path class="cls-2" d="M58.05,5.55c.18.13.37.24.55.35l1.33-1.82a3.54,3.54,0,0,0,.41.26l-1.08,2a12.38,12.38,0,0,0,1.16.56l.65-2.21a4.4,4.4,0,0,0,.47.1l-.38,2.37a11.71,11.71,0,0,0,1.32.37L62.34,4.8l.48-.06L63.05,6l.28-1.62A8.52,8.52,0,0,1,62.08,4V4.4A3.62,3.62,0,0,1,61,4.2l.19-.53a8.29,8.29,0,0,1-1.35-.78l-.06,0Z"/><path class="cls-2" d="M55.61,3,56,2.72l-.09-.26.56-.15L57.92,1l-2.26.11c0-.11,0-.21,0-.32s0-.34,0-.51l1.94.15L57.32,0H54.13l-.21.33A12.61,12.61,0,0,0,55.61,3Z"/><path class="cls-2" d="M60.67,9.19l-.44,2.43a10,10,0,0,1-1.11-.27l-.23.63a17.92,17.92,0,0,0,2.23.69l.69-3.16C61.42,9.42,61,9.31,60.67,9.19Z"/><path class="cls-2" d="M48.7,1.5l.85-.05a14,14,0,0,0,.17,1.45l2.44-1.31L52,1.19l-1,0V1c0-.33,0-.66,0-1h-.26L48.46.86C48.53,1.08,48.62,1.29,48.7,1.5Z"/><path class="cls-2" d="M57.58,7.74a14.47,14.47,0,0,1-1.24-.86L54.47,9.46a17.07,17.07,0,0,0,1.94,1.33l.27-.51-.59-.36Z"/><path class="cls-2" d="M52.42,7.58l.71-.71a10.47,10.47,0,0,1-1-2l-1.18.9A16.71,16.71,0,0,0,52.42,7.58Z"/><path class="cls-2" d="M66,11.05a10.22,10.22,0,0,1-2.1.58l-.09,1.44c.38,0,.76,0,1.13,0l.63,0,.55-.18Z"/><path class="cls-2" d="M65.46,1.37l-.17,0,.06,1.11.18,0,.13-.28.53.2h.1l-.16-.92-.26,0c0-.15,0-.3,0-.45a2.73,2.73,0,0,0,0-.41H66L65.88,0h-.47a3.47,3.47,0,0,1,.1.78A2.88,2.88,0,0,1,65.46,1.37Z"/><path class="cls-2" d="M62.85,2.4l.09,0-.06-.11Z"/><polygon class="cls-2" points="63.02 1.8 63.8 2.49 63.97 1.36 63.19 1.22 63.02 1.8"/><polygon class="cls-2" points="64.13 0.11 64.14 0 63.47 0 63.36 0.37 64.13 0.11"/><path class="cls-2" d="M61.6.46a.77.77,0,0,0-.08.19l-.6-.12L60.6,1l.34.23L61.55,1a.6.6,0,0,0,.06.11L62.2,0H62l0,.15-.2.07L61.72,0h-.43l-.14.2Z"/><path class="cls-2" d="M61.4,1.77l.12-.23-.22.17Z"/><path class="cls-3" d="M46.12,50.67l-.51-1.32c0,.53,0,1,0,1.53Z"/><path class="cls-3" d="M51.68,48.2h0l1.78-.9-.64-1.22L51.78,44l-1.73.87Z"/><path class="cls-3" d="M33.71,50.19l-1.56.28-.32.06.45,2.82.11.65h1.1l.78-1Z"/><path class="cls-3" d="M55.72,46.09l1.3-.71-.7-1.24-1.12-2c-.6.34-1.16.65-1.71.94l1.77,3.27Z"/><path class="cls-3" d="M59.67,43.85l.8-.46-.73-1.27L58.6,40.18l-1.7,1,1.85,3.22Z"/><path class="cls-3" d="M63.12,40.07,62,38.18l-1.72,1,1.87,3.21,1.43-.83.28-.17Z"/><path class="cls-3" d="M64.18,37.19l1.06,1.86L66,40.42h0l1-.56v-1.7l-1.06-1.95Z"/><path class="cls-3" d="M28.11,50.91,28.24,54H30.3L30,50.77C29.35,50.83,28.72,50.88,28.11,50.91Z"/><path class="cls-3" d="M8.39,45.87c-.54-.32-1.09-.66-1.62-1L4.76,48c.58.37,1.17.73,1.75,1.07Z"/><path class="cls-3" d="M2.05,41.5c-.49-.4-1-.81-1.47-1.23l-.48.55-.1.11V44l1.75-2.16Z"/><path class="cls-3" d="M24.18,50.85,24,54H26l.05-3.07C25.43,50.92,24.8,50.9,24.18,50.85Z"/><path class="cls-3" d="M8.31,50.07c.6.32,1.22.64,1.84.93l1.59-3.35c-.56-.27-1.13-.56-1.69-.86Z"/><path class="cls-3" d="M3.48,42.88,1.4,45.64c.55.42,1.1.82,1.66,1.21L5.18,43.8c-.35-.24-.69-.5-1-.75l-.51-.37Z"/><path class="cls-3" d="M18.83,50.21c-.61-.15-1.21-.32-1.82-.5l-1.08,3.55c.66.2,1.33.39,2,.55Z"/><path class="cls-3" d="M20.66,50.36,20,54h2.1l.45-3.34C21.89,50.58,21.27,50.48,20.66,50.36Z"/><path class="cls-3" d="M14,52.6l1.27-3.49c-.59-.21-1.18-.44-1.76-.69L12,51.85C12.67,52.11,13.32,52.37,14,52.6Z"/><path class="cls-3" d="M49.68,49.15l.18-.08L48.3,45.7l-1.76.78,1,2.23L48,49.9Z"/><path class="cls-3" d="M29.8,46.56l-.1-1.88a28.09,28.09,0,0,1-5.6-.3l-.34,2.28-.07.42a30.8,30.8,0,0,0,4.23.35h.41l.93,0,.58,0Z"/><path class="cls-3" d="M37.08,46h.05v-.06l-.43-1.23-.45-1.3c-.18.07-.37.12-.56.18l.44,2.72C36.45,46.2,36.77,46.1,37.08,46Z"/><path class="cls-3" d="M35,46.6c.09-1.14.17-2.13.24-2.9a23.71,23.71,0,0,1-4.45.89L31,46.38l.09.92A26,26,0,0,0,35,46.6Z"/><path class="cls-3" d="M62.34,29.21l1,1.87,1.25-.67,1.22-.66,1.16-.6V26.09q-2.39,1.2-4.94,2.59Z"/><path class="cls-3" d="M60.88,29.82l-.31-.55c-1.64.91-3.33,1.88-5.14,2.95l.39.66,1,1.69.27-.15c.41-.25.8-.47,1.2-.7,1.24-.72,2.45-1.42,3.62-2.07Z"/><path class="cls-3" d="M54.79,33.52l-.4-.69c-1.59,1-3.24,2-5.06,3.08l1.43,2.32.49-.3c1.62-1,3.11-1.9,4.53-2.75Z"/><path class="cls-3" d="M45.9,41.27l3.84-2.41-1-1.53-.49-.79L46,38C46,39,45.94,40.15,45.9,41.27Z"/><path class="cls-3" d="M10.16,39.32c-1.62-.9-3.28-1.91-4.93-3L3.71,38.56c1.72,1.15,3.44,2.21,5.13,3.15Z"/><path class="cls-3" d="M9.92,42.29a52.35,52.35,0,0,0,5.5,2.53l1-2.55a48.92,48.92,0,0,1-5.22-2.39Z"/><path class="cls-3" d="M22.52,46.53,23,44.19a37.07,37.07,0,0,1-5.47-1.51l-.92,2.57.12,0c1.16.41,2.32.76,3.46,1.06l1.29.31,1,.21Z"/><path class="cls-3" d="M4.18,35.63c-1.38-1-2.78-2-4.18-3.12V36c.88.66,1.75,1.3,2.62,1.91Z"/><path class="cls-3" d="M37.32,43l.22.55c0-.23.08-.47.13-.71C37.55,42.88,37.44,43,37.32,43Z"/><path class="cls-3" d="M3.31,25c.79,1.12,1.61,2.2,2.42,3.21l2.13-1.72c-.78-1-1.56-2-2.32-3.07Z"/><path class="cls-3" d="M2.5,18.76.16,20.17c.7,1.16,1.42,2.3,2.14,3.38L4.57,22C3.87,21,3.17,19.89,2.5,18.76Z"/><path class="cls-3" d="M25.32,39.24l.13-1a18.7,18.7,0,0,1-3.55-.85l-.49,1.41L21,40c.61.21,1.22.38,1.84.53A19.68,19.68,0,0,0,25,41l.12,0Z"/><path class="cls-3" d="M0,14.45v3.71l1.55-.88C1,16.36.51,15.41,0,14.45Z"/><path class="cls-3" d="M30.87,37.75a19.39,19.39,0,0,1-3.12.25h0l-.87,0-.05,1-.09,2,1,0h0c.49,0,1,0,1.48-.06.7,0,1.4-.11,2.1-.22l-.12-.8L31,38.41Z"/><path class="cls-3" d="M14.43,36l1.29-1.8a32.82,32.82,0,0,1-2.94-2.37L11.1,33.64,11,33.8l.8.69c.51.43,1,.84,1.52,1.23.29.22.57.45.85.65Z"/><path class="cls-3" d="M9.71,32.49l1.84-1.87c-.87-.86-1.75-1.8-2.6-2.79L6.88,29.6c.57.66,1.14,1.29,1.72,1.9.35.36.69.72,1,1.06Z"/><path class="cls-3" d="M19.71,38.36l.66-1.53a25.26,25.26,0,0,1-3.27-1.74L16,36.82l-.36.57c.43.27.86.51,1.29.76.58.32,1.16.62,1.75.89l.61.29Z"/><path class="cls-3" d="M34.3,37.3c-.67.23-1.34.43-2,.59l.09.36L33,40.54c.75-.18,1.5-.41,2.25-.67l.59-.21,1-.38-.94-2.55Z"/><path class="cls-3" d="M50.78,29.3h0c-1.08.72-2.15,1.38-3.26,2l1.37,2.36.68-.41c.92-.55,1.82-1.11,2.72-1.71Z"/><path class="cls-3" d="M55.31,26.05l0,0c-1.1.86-2.12,1.62-3.1,2.31l1.58,2.23,1.33-1L57,28.17Z"/><path class="cls-3" d="M59.7,22.49h0l-1.58,1.28-1.48,1.18,0,0,1.68,2.09.38-.31,1.1-.88.49-.39c.36-.29.72-.59,1.08-.87Z"/><path class="cls-3" d="M67,19.26V17.64c-.24.14-.49.27-.73.42Z"/><path class="cls-3" d="M38.5,38.65c.26-1.13.53-2.25.82-3.27-.6.25-1.21.49-1.83.73l.07.16.93,2.38Z"/><path class="cls-3" d="M46.33,32.71c0,.77-.1,1.6-.14,2.46.38-.21.78-.41,1.15-.62Z"/><path class="cls-3" d="M64.33,19c-.15.09-.29.2-.44.3-.54.37-1.09.76-1.66,1.19-.37.27-.75.55-1.15.86l1.67,2.16,1.14-.86c.57-.42,1.1-.8,1.63-1.16l.33-.23Z"/><path class="cls-3" d="M64.88,50.45,67,49.38V46.32c-1,.53-2.16,1.1-3.34,1.68Z"/><path class="cls-3" d="M58.16,50.49,59.35,53l3.54-1.73-1.21-2.45C60.57,49.32,59.39,49.9,58.16,50.49Z"/><path class="cls-3" d="M50.23,54h1.52l-.27-.58Z"/><path class="cls-3" d="M56.59,51l-3.54,1.69L53.68,54h2.94l1.15-.55Z"/><path class="cls-3" d="M16.75,1.79h0A14.05,14.05,0,0,1,19,.75c.3-.12.6-.25.92-.36L19.77,0H15.7Z"/><path class="cls-3" d="M9.41,16.55c0-.73.09-1.43.17-2.12.05-.48.11-1,.19-1.42l-.61-.1-1.94-.33a29.3,29.3,0,0,0-.39,3.87Z"/><path class="cls-3" d="M13.17,5.12a13.12,13.12,0,0,1,1.6-1.65c.07-.05.13-.12.2-.18l-1.64-2a15.87,15.87,0,0,0-2.78,3l2.1,1.52C12.81,5.53,13,5.33,13.17,5.12Z"/><path class="cls-3" d="M10.7,9.51a15.65,15.65,0,0,1,.81-1.91l-.42-.21-1.88-1a19.92,19.92,0,0,0-1.45,3.7l2.5.7C10.39,10.37,10.54,9.94,10.7,9.51Z"/><path class="cls-3" d="M2.46,13.32v.08l2.59.1A27.56,27.56,0,0,1,5.4,10L5,9.89,2.85,9.52A32.12,32.12,0,0,0,2.46,13.32Z"/><path class="cls-3" d="M8.28,2.44A13.31,13.31,0,0,1,10.58,0H7a11.25,11.25,0,0,0-.76.92Z"/><path class="cls-3" d="M3.73,6.05c-.11.34-.23.67-.33,1l2.49.7A17.82,17.82,0,0,1,7.14,4.55l-.65-.34L4.84,3.36A20.21,20.21,0,0,0,3.73,6.05Z"/><path class="cls-4" d="M33,9.71l-1,2.06a8.08,8.08,0,0,1,2.6,2.09l.53-.44,1.58-1.29c-.13-.17-.28-.31-.42-.47a10.93,10.93,0,0,0-2.29-1.89l-.77-.44Z"/><path class="cls-4" d="M35.82,26.63a10.61,10.61,0,0,0,2.48-3.72L37,22.41l-1.27-.51a8.1,8.1,0,0,1-1.69,2.6c-.06.05-.11.12-.16.17Z"/><path class="cls-4" d="M35.64,15.68a8,8,0,0,1,.54,1.7,8.09,8.09,0,0,1,.15,1.56,8.85,8.85,0,0,1,0,.89l2.72.3a11.85,11.85,0,0,0,.06-1.19,10.83,10.83,0,0,0-.5-3.26,11.47,11.47,0,0,0-.42-1.11Z"/><path class="cls-4" d="M26,8.44l.59,2.66.15,0a4.93,4.93,0,0,1,.67-.11,8.25,8.25,0,0,1,1.22,0,7,7,0,0,1,.79.07l.51.07.54-2.67A10.86,10.86,0,0,0,26,8.44Z"/><path class="cls-4" d="M29.16,28.61l.09,1a10.62,10.62,0,0,0,4.28-1.31L32.2,26a5.85,5.85,0,0,1-.56.28,8,8,0,0,1-2.62.7Z"/><path class="cls-4" d="M22.26,27.82a11,11,0,0,0,1.61.9,10.89,10.89,0,0,0,2.52.8l.49-2.69a7.74,7.74,0,0,1-2.3-.79,9.12,9.12,0,0,1-.79-.47Z"/><path class="cls-4" d="M18.44,23.18A10.37,10.37,0,0,0,20,25.78a.64.64,0,0,0,.1.13l1.65-1.41.42-.36a8,8,0,0,1-1.59-2.93l-1.78.53L18,22A10.13,10.13,0,0,0,18.44,23.18Z"/><path class="cls-4" d="M17,19.37l.57,0,2.43,0v-.18c0-.08,0-.17,0-.26,0-.31,0-.62.08-.93a8.42,8.42,0,0,1,.3-1.41c.08-.26.17-.5.27-.75l0-.07-2.77-1.16A11.8,11.8,0,0,0,17,19.06v.31Z"/><path class="cls-4" d="M21,11a8.59,8.59,0,0,0-.67.68c-.17.19-.35.37-.51.57L22,14a6,6,0,0,1,.53-.6A5.77,5.77,0,0,1,23,13a7.36,7.36,0,0,1,.77-.61,5.29,5.29,0,0,1,.5-.32l.32-.19L23.28,9.43,23,9.58c-.27.15-.54.31-.79.48A11.51,11.51,0,0,0,21,11Z"/><path class="cls-4" d="M15.79,19.61l-.6,0-2.12.11a15.05,15.05,0,0,0,.24,2l1.78-.33.9-.17A13.42,13.42,0,0,1,15.79,19.61Z"/><path class="cls-4" d="M14,15.48l-.52-.13a15.34,15.34,0,0,0-.34,2l2.71.28a11.82,11.82,0,0,1,.2-1.19c0-.15.05-.31.08-.46Z"/><path class="cls-4" d="M25.36,31.12a14.47,14.47,0,0,1-1.42-.43l-1,2.56a16.92,16.92,0,0,0,2,.58l.34-1.51.26-1.15Z"/><path class="cls-4" d="M29.35,34.17l-.18-2.73a13.46,13.46,0,0,1-1.68,0l-.09,1.46-.08,1.26h.16c.28,0,.55,0,.83,0S29,34.19,29.35,34.17Z"/><path class="cls-4" d="M25.7,3.9a14.57,14.57,0,0,0-1.95.47h0l.1.31.7,2.23,0,.06c.26-.08.54-.13.81-.2s.54-.15.81-.2Z"/><path class="cls-4" d="M17.48,12.63,16,11.75l-.84-.5-.06.1c-.17.32-.34.64-.5,1s-.24.51-.35.77l.13.05,2.39,1A13.84,13.84,0,0,1,17.48,12.63Z"/><path class="cls-4" d="M21.15,8.37l.12.19a13.09,13.09,0,0,1,1.45-.85L21.5,5.27c-.21.11-.42.22-.62.34-.39.22-.77.44-1.14.69Z"/><path class="cls-4" d="M21.88,30.36l.28-.5a14,14,0,0,1-1.4-.91l-1.64,2.18c.48.35,1,.68,1.49,1l.21.13Z"/><path class="cls-4" d="M17,8.67c-.19.21-.37.41-.54.62L18.6,11a11.93,11.93,0,0,1,1.14-1.22l-.09-.09L17.87,7.8C17.58,8.08,17.29,8.37,17,8.67Z"/><path class="cls-4" d="M15.26,25.69l1.91-1a2.39,2.39,0,0,0-.13-.28q-.3-.62-.54-1.26l-.41.15-2.15.77c.14.41.31.81.49,1.21l.32.66Z"/><path class="cls-4" d="M18.33,28.57l1-.93a13,13,0,0,1-1.08-1.27L16,28a14.18,14.18,0,0,0,.92,1.13l.39.43Z"/><path class="cls-4" d="M31.64,33.45l.08.37a14.61,14.61,0,0,0,2-.59l-1-2.55c-.35.13-.71.24-1.07.34l-.53.14Z"/><path class="cls-4" d="M42.74,14a13.73,13.73,0,0,0-.52-1.31l-2.48,1.12a12.29,12.29,0,0,1,.58,1.57l.27-.08,2.35-.7C42.88,14.36,42.81,14.17,42.74,14Z"/><path class="cls-4" d="M28.05,6.41a11.54,11.54,0,0,1,1.66.08L30,3.78a15.34,15.34,0,0,0-1.79-.1H28L28,6.4Z"/><path class="cls-4" d="M43.26,17l-2.53.34a11.78,11.78,0,0,1,.1,1.45c0,.07,0,.15,0,.22h2.32C43.21,18.2,43.25,17.51,43.26,17Z"/><path class="cls-4" d="M35.33,8.57c.36.25.71.49,1.05.77L37.9,7.53l.24-.27c-.33-.27-.66-.53-1-.77s-.42-.3-.64-.44L35.43,7.73l-.4.62Z"/><path class="cls-4" d="M35.68,29.06a11.59,11.59,0,0,1-1.19.78l1,1.76.35.62a16.17,16.17,0,0,0,1.7-1.13l-1.65-2.17Z"/><path class="cls-4" d="M40.41,9.63c-.19-.24-.37-.47-.57-.7l-2.06,1.79a13.42,13.42,0,0,1,1,1.34l1-.69,1.24-.81Q40.75,10.08,40.41,9.63Z"/><path class="cls-4" d="M33.29,7.43l.55-1.25.54-1.25a14.6,14.6,0,0,0-1.92-.68l-.24.84-.5,1.78A12.76,12.76,0,0,1,33.29,7.43Z"/><path class="cls-4" d="M40.83,19.57a13.39,13.39,0,0,1-.19,1.66l2.34.43c.06-.7.11-1.37.16-2Z"/><path class="cls-4" d="M40,23.51a11.68,11.68,0,0,1-.49,1.15l2.42,1.25A17,17,0,0,0,42.7,24l-.58-.21-2-.71C40.08,23.25,40,23.38,40,23.51Z"/><path class="cls-4" d="M38.43,26.33a11.44,11.44,0,0,1-.9,1.08c-.06.06-.11.14-.17.2l2,1.89a14.93,14.93,0,0,0,1.3-1.56L40,27.46Z"/><path class="cls-4" d="M25.27,16.71l.11-.13.2-.24L25.23,16,24,14.87l-.43-.41-.08.1c-.16.18-.31.35-.45.54l.89.65,1.23.9Z"/><path class="cls-4" d="M24.1,17.06l-1.72-.77a5.2,5.2,0,0,0-.29.78l1.11.33,1.24.38.26.07a3.61,3.61,0,0,1,.16-.42v0Z"/><path class="cls-4" d="M21.83,18.42c0,.17,0,.35,0,.52s0,.21,0,.31h.26l1,0,1.47-.07a1.09,1.09,0,0,1,0-.18c0-.1,0-.2,0-.3l-1.05-.08-.33,0Z"/><path class="cls-4" d="M24.83,13.46l-.18.11,1.07,1.57.28.41.19.27a3.38,3.38,0,0,1,.41-.24l0,0v0L26,14.36l-.62-1.21C25.18,13.24,25,13.35,24.83,13.46Z"/><path class="cls-4" d="M24.82,20.36a3.39,3.39,0,0,1-.15-.45l-.57.15-.6.16L22,20.61a5.66,5.66,0,0,0,.27.79l.53-.22,1.09-.45Z"/><path class="cls-4" d="M24.84,21.31,23,22.61a4.56,4.56,0,0,0,.51.65l1.1-1,.91-.81,0,0,0,0c-.1-.11-.19-.23-.28-.35Z"/><path class="cls-4" d="M26.83,23.9l-.37,1.26a7.33,7.33,0,0,0,.81.19l.24-1.53.06-.32.13-.85c-.1,0-.19,0-.29-.06l-.17,0Z"/><path class="cls-4" d="M24.49,24.19a6.33,6.33,0,0,0,.7.44l1.31-2.39a3.54,3.54,0,0,1-.41-.26l-.88,1.22-.41.56Z"/><path class="cls-4" d="M29.46,25.33l0-.17-.34-1.92-.11-.6-.12,0-.36,0,.14,2.72h0A5.56,5.56,0,0,0,29.46,25.33Z"/><path class="cls-4" d="M27.35,15.29a3.55,3.55,0,0,1,.47-.09l-.1-.72L27.53,13l-.07-.47a5.8,5.8,0,0,0-.81.16l.41,1.55.22.82Z"/><path class="cls-4" d="M32.8,14.24l-1.26,1.32-.63.65,0,0,.12.14a1.45,1.45,0,0,1,.17.18l.2-.17.18-.15,1.05-.84.69-.56A8.09,8.09,0,0,0,32.8,14.24Z"/><path class="cls-4" d="M30.1,15.63l.18.09L31,14.5l.67-1.1h0A5.12,5.12,0,0,0,31,13l-.45,1-.24.52-.28.63-.15.32Z"/><path class="cls-4" d="M29.09,15l.42-2,.15-.69h0a5.59,5.59,0,0,0-.82-.12l-.22,2.72a3.54,3.54,0,0,1,.47.07Z"/><path class="cls-4" d="M33.22,16.45l-1.38.7-.17.09a3.43,3.43,0,0,1,.19.44l1-.36.8-.28.76-.27a6.41,6.41,0,0,0-.32-.76l-.39.19-.1.05Z"/><path class="cls-4" d="M30.65,24.6l.14.34.13-.06a5.76,5.76,0,0,0,.61-.3l-1.35-2.37a3.42,3.42,0,0,1-.43.21l.11.28.1.23Z"/><path class="cls-4" d="M32.86,22.86l-1.35-1.17-.35-.3a2.09,2.09,0,0,1-.2.22,1.59,1.59,0,0,0-.13.13l1.82,2a4.64,4.64,0,0,0,.38-.39c.07-.07.14-.13.2-.2Z"/><path class="cls-4" d="M34.36,21.29l-.25-.1-2.29-.89a3.49,3.49,0,0,1-.2.44l2.06,1.12L34,22A5.12,5.12,0,0,0,34.36,21.29Z"/><path class="cls-4" d="M34.8,19h0v0Z"/><path class="cls-4" d="M32.08,19s0-.08,0-.13c0,.12,0,.23,0,.35v.06l.15,0,.75.12,1.79.29a5.69,5.69,0,0,0,.07-.71Z"/><path class="cls-4" d="M32.07,18.87c0,.05,0,.09,0,.13H34.8v-.12c0-.24,0-.47,0-.71l-2.29.3-.42.05C32.06,18.64,32.06,18.75,32.07,18.87Z"/><path class="cls-4" d="M25.15,20.08a2.94,2.94,0,0,0,.23.51,1.73,1.73,0,0,0,.19.28c0,.06.07.12.11.17l2.13-1.71a.52.52,0,0,1-.1-.18l-1.49.54-1,.36Z"/><path class="cls-4" d="M28.13,19.54h0l-.82,2.24-.12.32.18,0a3.39,3.39,0,0,0,.9.15l0-1.15,0-1v-.62A.45.45,0,0,1,28.13,19.54Z"/><path class="cls-4" d="M28.2,18.31l-.07-.4-.24-1.38-.14-.8,0-.11a3.57,3.57,0,0,0-1,.36l.67,1.23L28,18.38A.53.53,0,0,1,28.2,18.31Z"/><path class="cls-4" d="M29.7,20.16l-.91-.8a.65.65,0,0,1-.16.13L30,21.86a3.45,3.45,0,0,0,.7-.56,1.85,1.85,0,0,0,.14-.14Z"/><path class="cls-4" d="M29.16,16.77l-.6,1.53,0,0a.67.67,0,0,1,.18.11h0L30,16.92l.1-.11.37-.45a2.52,2.52,0,0,0-.33-.24,3.55,3.55,0,0,0-.61-.32Z"/><path class="cls-4" d="M27.55,18.5l-1.29-.75-.41-.24-.45-.26a3.22,3.22,0,0,0-.39,1l.53.1.71.14,1.43.29s0,0,0,0a.67.67,0,0,1,.06-.15Z"/><path class="cls-4" d="M31.62,19.53a2.4,2.4,0,0,0,0-.28c0-.1,0-.21,0-.31a3.31,3.31,0,0,0-.05-.55,3.16,3.16,0,0,0-.13-.53l-.64.21-.76.26L29,18.7l-.09,0a.52.52,0,0,1,0,.21s0,.07,0,.11H29l.55.1h0Z"/><path class="cls-4" d="M63.28,9l.23,2.72c.24,0,.47-.06.7-.1a10.53,10.53,0,0,0,2.22-.59l.57-.24V9l-.54-1A7.92,7.92,0,0,1,63.28,9Z"/><path class="cls-4" d="M51,1.21l1,0,2,0V1c0-.1,0-.2,0-.29s0-.46.05-.69h-3c0,.32,0,.65,0,1Z"/><path class="cls-4" d="M60.67,9.19l0-.26a7.92,7.92,0,0,1-3.08-1.26l-.05.07L56.09,9.92l.59.36a10.4,10.4,0,0,0,2.44,1.07,10,10,0,0,0,1.11.27Z"/><path class="cls-4" d="M54,8,56,6.24a8,8,0,0,1-1.59-2.93l-2.62.77c.08.26.18.51.27.76a10.47,10.47,0,0,0,1,2A10.37,10.37,0,0,0,54,8Z"/><path class="cls-4" d="M48.78,1.75l-1.88.1a15.06,15.06,0,0,0,.25,2l2.68-.5,0-.21a14.32,14.32,0,0,1-.17-1.45Z"/><path class="cls-4" d="M56.83,15.35a16.36,16.36,0,0,0,2,.58l.59-2.67a12.75,12.75,0,0,1-1.6-.47Z"/><path class="cls-4" d="M51,6.79a11.61,11.61,0,0,1-.67-1.53l-2.57.92a15.57,15.57,0,0,0,.82,1.87Z"/><path class="cls-4" d="M53,13.22a14.67,14.67,0,0,0,1.7,1.12L56,12a14,14,0,0,1-1.4-.91Z"/><path class="cls-4" d="M52.05,8.46l-2.2,1.62a15.12,15.12,0,0,0,1.32,1.56l2-1.9A12,12,0,0,1,52.05,8.46Z"/><path class="cls-4" d="M61.15,16.27c.33,0,.67,0,1,0s.69,0,1,0L63,13.54a11.64,11.64,0,0,1-1.67,0Z"/><path class="cls-4" d="M66.57,12.91l-.56.18-.64.17L66,15.92c.34-.08.68-.17,1-.28v-2.8l0-.06Z"/><path class="cls-4" d="M62.34,4.8l.14,2.69v0h.09l.22,0c.17,0,.34,0,.51-.06L63.05,6l-.23-1.26Z"/><path class="cls-4" d="M55.65,1c0,.1,0,.21,0,.31l2.26-.11.47,0a1.09,1.09,0,0,1,0-.18c0-.1,0-.21,0-.3L57.61.68,55.67.52C55.66.69,55.65.86,55.65,1Z"/><path class="cls-4" d="M61.07,4.65l-.65,2.21-.12.4a6.84,6.84,0,0,0,.81.19l0-.33.38-2.37A4.4,4.4,0,0,1,61.07,4.65Z"/><path class="cls-4" d="M59.93,4.08,58.6,5.9l-.27.39a6.2,6.2,0,0,0,.69.44l.24-.43,1.08-2A3.54,3.54,0,0,1,59.93,4.08Z"/><path class="cls-4" d="M59.34,3.54a3.47,3.47,0,0,1-.3-.37L56.79,4.71a6.65,6.65,0,0,0,.51.65Z"/><path class="cls-4" d="M56,3c.06.17.11.35.18.52l2.52-1A3.39,3.39,0,0,1,58.51,2l-2.08.55-.56.15Z"/><path class="cls-4" d="M63.59,4.52l1,2.52a7.29,7.29,0,0,0,.74-.37L64,4.31Z"/><path class="cls-4" d="M65.43,3.49c-.11.12-.22.24-.34.35l1.16,1.29.66.74L67,5.78V4.85l-.47-.41Z"/><path class="cls-4" d="M66.08,2.4c0,.1-.08.19-.13.29a.91.91,0,0,1-.07.14L67,3.45V2.76l-.39-.15Z"/><path class="cls-4" d="M66.31.77c0,.14,0,.27,0,.41v0l.66,0V.68l-.61.08Z"/><path class="cls-4" d="M66.34,1.15v0a3.42,3.42,0,0,1,0,.45l.26,0,.45.07V1.17Z"/><path class="cls-4" d="M60.94,1.47l-2,.71a3.49,3.49,0,0,0,.54,1l.25-.2.06,0L61.3,1.71l.22-.17.13-.11a.16.16,0,0,1,0-.07.39.39,0,0,1-.06-.11Z"/><path class="cls-4" d="M62,.15,62,0h-.29l.12.22Z"/><path class="cls-4" d="M62.07,4.4V4l.05-2.37a.45.45,0,0,1-.2,0l-.75,2L61,4.2A3.62,3.62,0,0,0,62.07,4.4Z"/><path class="cls-4" d="M62.56.29,62.8,0h-.35l-.07.19A.81.81,0,0,1,62.56.29Z"/><path class="cls-4" d="M62.63,1.46a1.09,1.09,0,0,1-.17.13l.42.72.06.11L63.82,4a3.14,3.14,0,0,0,.85-.69l-.87-.77L63,1.81Z"/><path class="cls-4" d="M63.36.37l-.61.21a.64.64,0,0,1,0,.2.49.49,0,0,1,0,.12l.42.07.78.14,1.32.23.17,0a2.88,2.88,0,0,0,.05-.59,3.47,3.47,0,0,0-.1-.78h-1l-.32.11Z"/><path class="cls-4" d="M60.92.53l.6.12A.77.77,0,0,1,61.6.46L61.15.2,60.8,0H58.88a.53.53,0,0,0,0,.12Z"/><path class="cls-5" d="M45.56,50.63c0-.5,0-1,0-1.53.06-2,.13-4.11.21-6.28,0-.6,0-1.2.08-1.8,0-1.12.09-2.24.14-3.32,0-.74.07-1.46.11-2.17,0-.21,0-.41,0-.62,0-.86.09-1.68.14-2.46,0-.24,0-.47.05-.7.06-.78.11-1.5.17-2.14A21.49,21.49,0,0,0,43.3,16h0s0,.34,0,.86a.53.53,0,0,1,0,.13c0,.52,0,1.21-.1,2,0,.07,0,.15,0,.22s0,.14,0,.21c0,.61-.1,1.27-.16,2-.32,3.37-.95,7.49-2.21,9.79a20.62,20.62,0,0,0-1.45,3.93c-.29,1-.56,2.14-.82,3.27,0,.27-.11.53-.17.79-.24,1.15-.47,2.3-.66,3.4-.05.24-.09.47-.13.7l-.15.86c-.09.54-.17,1-.25,1.53v0l0,.11c-.31,2-.48,3.31-.48,3.31L36.14,46l-.44-2.73-.26-1.67-.16,1.81c-.07.77-.15,1.76-.24,2.89,0,.68-.1,1.41-.16,2.18-.12,1.69-.25,3.56-.36,5.48H45.46c0-1,.06-2.09.1-3.3Z"/></g></g></g></svg>