<svg xmlns="http://www.w3.org/2000/svg" viewBox="0 0 66.5 54"><defs><style>.cls-1{fill:#2774c1;}.cls-2{fill:#415668;}.cls-3{fill:#6ab3ef;}.cls-4{fill:#b3e0ff;}.cls-5{fill:#161614;}.cls-6{fill:#547791;}.cls-7{fill:#91b4ce;}.cls-8{fill:#314e68;}</style></defs><title>Recurso 69pintura_trozo_1</title><g id="Capa_2" data-name="Capa 2"><g id="Capa_1-2" data-name="Capa 1"><g id="Silencio"><path class="cls-1" d="M1.73,23c-.25.27-.52.53-.8.78.23-.09.47-.16.7-.24l-.06,0C1.63,23.34,1.68,23.17,1.73,23Z"/><polygon class="cls-1" points="0 17.23 0 17.4 0.16 17.29 0 17.23"/><path class="cls-1" d="M51.26,1.1l1.23,1.33c-.39.36-.8.72-1.21,1.08l2.2,1.14A15.37,15.37,0,0,1,52.1,7L49.48,5c-.55.41-1.1.82-1.67,1.21L50.31,9c-.1.1-.22.18-.33.28l.18.17q-.72.73-1.47,1.41a24.49,24.49,0,0,0,3-1.56l.5.83c.74-.33,1.49-.63,2.24-.92l-.83-1.16a23.57,23.57,0,0,0,2.71-2.27l1.5,1.53c.68-.52,1.33-1.06,2-1.6L58.27,4.51c-.3.54-.55.93-.69,1.16l-.12.18L55,4.08,55.12,4A30.11,30.11,0,0,0,57,.44L59.5,1.67c.07-.13.16-.26.23-.39L62,2.45a18.23,18.23,0,0,1-1.92,3c.41-.36.81-.72,1.19-1.09l2.12,2.37-.19.17c.49-.06,1-.11,1.46-.14l-2-1.6c.19-.23.35-.47.52-.71l-1-1A32.18,32.18,0,0,0,65.1,0H63a.14.14,0,0,1,0,.06L62.83,0H55a19.09,19.09,0,0,1-.53,2.17Z"/><path class="cls-1" d="M47.12,12.23l-1.69-2.14C46,9.67,46.49,9.2,47,8.71L46.2,7.22c-.6.39-1.16.72-1.65,1l1.07,3.58-.54.16c-.36.1-.73.18-1.1.26l1,1.54-.72.43c1.47-.85,3-1.69,4.64-2.49L48.59,11C48.1,11.42,47.61,11.85,47.12,12.23Z"/><path class="cls-1" d="M2,20.84a5.85,5.85,0,0,0,0-.59L.94,19.58a9.54,9.54,0,0,0,.66-1.27,8.58,8.58,0,0,0-.48-1.12l1.4-.83-.28-.05a9.8,9.8,0,0,0,.18-1.62l2.64.08L6.36,14a30.56,30.56,0,0,1-.55-3.06l2.71-.32a25.33,25.33,0,0,0,.71,3.65L8,14.6c.14.33.28.66.4,1L5.51,16.73a10.19,10.19,0,0,0-.43-1,10.42,10.42,0,0,1-.17,1.14l-.55-.11a11.1,11.1,0,0,1,.8,4.11A10.71,10.71,0,0,1,5,22.45l1.12-.31a8.86,8.86,0,0,0,.07-.9l3.12.11v0l1.53-.3-.15-.71-1.49.88c-.05-.08-.08-.16-.13-.24H6.23a12.46,12.46,0,0,0-.16-1.93L8,18.75c-.18-.41-.38-.82-.54-1.25l2.55-1c0,.11.1.22.14.33a.13.13,0,0,0,0-.06l3.1-.38A31,31,0,0,0,14,20.59a47.85,47.85,0,0,1,5.88-.36c-.15-.25-.29-.5-.42-.76-.41-.29-.81-.59-1.2-.92L20,16.48a14.1,14.1,0,0,0,2.07,1.43l.06,0,.06.1c.27.15.52.32.79.45l-.24.49c.31.53.63,1,1,1.51.34,0,.68.06,1,.11l.39-1.27a18.21,18.21,0,0,0,3.57.7l-.12,1.26q1.48.35,3,.84l0-2,.48,0a32.48,32.48,0,0,1-3.5-2.56l1.25-1.59a18.53,18.53,0,0,1-2.06-.79l1.1-2.49a17.25,17.25,0,0,0,3.46,1.13L31.76,16c.72.54,1.45,1.06,2.18,1.5L32.51,20c.88,0,1.79-.11,2.73-.24l0,.23.77-.55.29-.67.41.18c1.94-1.35,4.39-3,7.16-4.58a21.46,21.46,0,0,1-2.68,1.25l-1-2.55A17.39,17.39,0,0,0,43,11.77l-.29-2.53-.23.12L41.27,6.89A38.09,38.09,0,0,0,45.2,4.63l1.26,1.93a8.76,8.76,0,0,0,1-.76L46.18,4A40.12,40.12,0,0,0,50.48.56c.06-.18.11-.37.16-.56H48.3c-.42.75-.76,1.28-.93,1.54a1.43,1.43,0,0,0-.1.16L45.15.2l.07-.1.06-.1h-.46c-.14.17-.27.35-.42.51L43.89,0H42.41l1.37.69c-.1.21-.22.4-.34.61l.05.06-.13.09c-.25.42-.5.82-.78,1.2l-1.4-1,.32.89a8.29,8.29,0,0,1-1,.31l-.31-1.42c.17,0,.33-.1.49-.15l-1-.72a4,4,0,0,1-.48.07L39.19,0H37.86l-.09.52A5.17,5.17,0,0,1,36.28,0H33.65l-.53.53C33,.37,32.83.18,32.68,0H26.82L25.43,1c.19.13.37.27.56.39L24,4.54A19.09,19.09,0,0,1,22.25,3.3l1.22-1.57c-.36-.57-.69-1.15-1-1.73H22.4L20.61,1.9A20.18,20.18,0,0,1,19.11.33L19.5,0H0V5.29L.57,4.6A12.67,12.67,0,0,1,2.05,6.05L.78,7.16c.34.16.68.33,1,.51L.46,10.19a9.11,9.11,0,0,1,.84,2.36c.13.11.28.21.41.33l-.29.33a8.74,8.74,0,0,1,.08,1.14,9.11,9.11,0,0,1-.6,3.23l-.68-.26a6.37,6.37,0,0,1,.45.86l-.67.3v1.68L1.14,20a6.9,6.9,0,0,1,.07,1H0v.32L1.75,23A7.84,7.84,0,0,0,2,20.84Zm16.05-4.31c-.13-.36-.25-.74-.38-1.12L16.3,16.62a19.81,19.81,0,0,1-2.37-3.49l2.41-1.29c.2.37.41.71.63,1.05-.09-.35-.19-.69-.27-1l3-.73A31,31,0,0,0,21,15.34Zm16.28.23L34.5,14a14.12,14.12,0,0,0,3.55-.29l.56,2.67A16.76,16.76,0,0,1,34.37,16.76Zm6.06-4.29a16,16,0,0,1-2.56-.33l.83-4.31a12.91,12.91,0,0,0,1.93.25ZM38.33,1.55a6.17,6.17,0,0,0,.86,0l.06.89L41,4.38a10.84,10.84,0,0,1-1.92,1.4L37.24,2.56a7.33,7.33,0,0,0,1.08-.77Zm-1.82-.4a8.54,8.54,0,0,0,.82.25L37,2.81a6.78,6.78,0,0,1-1-.3Zm.4,5.58-.48.13A3.57,3.57,0,0,1,36,7l.83.32-1.37,4.17a21.26,21.26,0,0,1-2.32-1l1.53-3.32L34.2,3.52a9.17,9.17,0,0,0,1.29-.24l.31-.09Zm-2-6.51A5.63,5.63,0,0,0,35.6.7L34.91,2A10.22,10.22,0,0,1,34,1.38ZM32.53,3.58,32.47,5c.23.17.45.35.68.5l-.77,1.28,0,.51-.27,0-1.18,2c-.69-.45-1.38-.94-2-1.46l1.49-2,.48-2.38A12.24,12.24,0,0,0,32.53,3.58Zm-4-2.22c.45.53.92,1,1.42,1.53L28.75,4.17,28,6.43q-.48-.16-1-.36l0,0L27,6c-.34-.14-.67-.29-1-.45l.18-.39c-.29-.32-.57-.64-.84-1Zm-4.86,8c.41.34.83.65,1.25.95l.66-.51.09.12a30.38,30.38,0,0,0,2.76,3.14l-2.16,2.33c-.88-.88-1.59-1.67-2.12-2.3-.74-.5-1.48-1-2.2-1.61ZM15.38,3.86l3.12.07v.16c0,.23,0,.78.06,1.55l.77-.58a.48.48,0,0,0,.08.11,27.29,27.29,0,0,0,2.42,2.64l-1.89,2c-.53-.51-1-1-1.39-1.42l-2.81.43a36,36,0,0,1-.36-4.7Zm0,5.85-2.53,1a28,28,0,0,1-1.22-4l2.65-.62A25.23,25.23,0,0,0,15.35,9.71ZM10.77,0,13.5.08V.21a25.56,25.56,0,0,0,.29,3.57l-2.71.4a29.09,29.09,0,0,1-.31-4ZM1.11,9.4,3.47,8A11.24,11.24,0,0,1,4.1,9.29h0A14.54,14.54,0,0,1,5.8,11L4.73,12l.26,0A13,13,0,0,1,5.16,14H2.43a9.66,9.66,0,0,0-.13-1.62l.38-.07c-.19-.18-.37-.36-.57-.53l1.16-1.46-1.47.56A9,9,0,0,0,1.11,9.4Z"/><path class="cls-1" d="M0,24.06v.06l0,0Z"/><path class="cls-1" d="M66.44,6.68l.06,0V4.53A19.64,19.64,0,0,1,65,6.72C65.47,6.69,66,6.68,66.44,6.68Z"/><path class="cls-2" d="M33.15,5.49c-.23-.15-.45-.33-.68-.5l-.09,1.78Z"/><path class="cls-2" d="M30.37,5.75l-1.49,2c.65.52,1.34,1,2,1.46l1.18-2a15,15,0,0,1-2-.25Z"/><path class="cls-2" d="M27,6.09l0,0L27,6Z"/><path class="cls-2" d="M27.55,2.25a15.9,15.9,0,0,0,1.63.66l-.43,1.26,1.16-1.28c-.5-.49-1-1-1.42-1.53l-3.2,2.87c.27.33.55.65.84,1Z"/><path class="cls-2" d="M34.63,7.15,33.1,10.47a21.26,21.26,0,0,0,2.32,1l1.37-4.17L36,7q-.65.15-1.32.24Z"/><path class="cls-2" d="M24.52.37c.29.22.6.42.91.63l1.39-1H22.48c.3.58.63,1.16,1,1.73Z"/><path class="cls-2" d="M37.87,12.14a16,16,0,0,0,2.56.33l.2-4.39a12.91,12.91,0,0,1-1.93-.25Z"/><path class="cls-2" d="M46.2,7.22,47,8.71q.59-.54,1.17-1.14L50,9.31c.11-.1.23-.18.33-.28l-2.5-2.87-.09.07-.29-.43a8.76,8.76,0,0,1-1,.76l.23.36Z"/><path class="cls-2" d="M50.63.43l.63.67,3.19,1.07A19.09,19.09,0,0,0,55,0h-.14c-.46.52-.93,1.05-1.45,1.56L51.83,0H50.64c0,.19-.1.38-.16.56A.93.93,0,0,0,50.63.43Z"/><path class="cls-2" d="M52.1,7a15.37,15.37,0,0,0,1.38-2.33l-2.2-1.14q-.87.74-1.8,1.44Z"/><path class="cls-2" d="M44,12.23c.37-.08.74-.16,1.1-.26l.54-.16L44.55,8.23c-.89.51-1.55.85-1.88,1L43,11.77c.18-.11.36-.19.54-.31Z"/><path class="cls-2" d="M63.26,4.44a16.18,16.18,0,0,0,1.47-2.33L66.5,3V.28L65.62,0H65.1a32.18,32.18,0,0,1-2.84,3.4Z"/><path class="cls-2" d="M61.31,4.35c-.38.37-.78.73-1.19,1.09-.09.12-.17.24-.27.36l-.07-.06c-.62.54-1.27,1.08-2,1.6l.31.32c-.17.17-.36.33-.53.49,1-.31,2-.58,3-.8l.51-.46.29.3q.91-.18,1.8-.3l.19-.17Z"/><path class="cls-2" d="M18.55,8.36a19.33,19.33,0,0,1-1.29-1.52l-.12-.15,1.42-1.05c0-.77-.06-1.32-.06-1.55V3.93l-3.12-.07v.23a36,36,0,0,0,.36,4.7Z"/><path class="cls-2" d="M16.7,11.85c.08.35.18.69.27,1a17.17,17.17,0,0,0,1.4,2l-.66.56c.13.38.25.76.38,1.12L21,15.34a31,31,0,0,1-1.25-4.22Z"/><path class="cls-2" d="M22.12,17.88l-.06,0,.12.07Z"/><path class="cls-2" d="M22.06,20.3c.55,0,1.09.07,1.64.13-.34-.48-.66-1-1-1.51Z"/><path class="cls-2" d="M19.83,20.23c.24,0,.49,0,.74,0-.4-.24-.78-.49-1.16-.76C19.54,19.73,19.68,20,19.83,20.23Z"/><path class="cls-2" d="M10.09,16.8a.13.13,0,0,1,0,.06,22.36,22.36,0,0,0,1.46,3l-.85.51.15.71q1.55-.29,3.09-.48a31,31,0,0,1-.76-4.17Z"/><path class="cls-2" d="M25.3,13.89c-.4-.23-.79-.5-1.19-.76.53.63,1.24,1.42,2.12,2.3l2.16-2.33A30.38,30.38,0,0,1,25.63,10l-.09-.12-.66.51c.6.43,1.2.83,1.8,1.19Z"/><path class="cls-2" d="M33.94,17.51c-.73-.44-1.46-1-2.18-1.5l-.09.41a17.42,17.42,0,0,1-1.94-.52l-1.25,1.59A32.48,32.48,0,0,0,32,20.05l.53,0Z"/><path class="cls-2" d="M36,19.47l.7-.49-.41-.18Z"/><path class="cls-2" d="M59.5,1.67,57,.44A30.11,30.11,0,0,1,55.12,4L55,4.08l2.42,1.77.12-.18c.14-.23.39-.62.69-1.16l-.43-.35A16.1,16.1,0,0,0,59.5,1.67Z"/><path class="cls-2" d="M4.36,16.73l-1.84-.37-1.4.83a8.58,8.58,0,0,1,.48,1.12,1.3,1.3,0,0,0,.08-.17l2.52,1a12,12,0,0,1-1,1.85L2,20.25a5.85,5.85,0,0,1,0,.59A7.84,7.84,0,0,1,1.75,23l0,0,0,0c-.05.17-.1.34-.16.51l.06,0c1.11-.39,2.25-.75,3.4-1.09a10.71,10.71,0,0,0,.13-1.61A11.1,11.1,0,0,0,4.36,16.73Z"/><path class="cls-2" d="M1.71,12.88c-.13-.12-.28-.22-.41-.33,0,.22.1.44.12.66Z"/><path class="cls-2" d="M3.27,10.32,2.11,11.78c.2.17.38.35.57.53L4.73,12,5.8,11A14.54,14.54,0,0,0,4.1,9.29h0c.09.21.18.42.26.63Z"/><path class="cls-2" d="M5.08,15.7a10.19,10.19,0,0,1,.43,1l2.92-1.14c-.12-.33-.26-.66-.4-1L6.59,15c-.09-.32-.15-.65-.23-1l-1.3.77h.09C5.14,15.09,5.12,15.4,5.08,15.7Z"/><path class="cls-2" d="M6.07,19.07A12.46,12.46,0,0,1,6.23,21H9.09A25,25,0,0,1,8,18.75Z"/><path class="cls-2" d="M.46,10.19,1.79,7.67c-.33-.18-.67-.35-1-.51L0,7.84v2.27l.33-.19C.38,10,.42,10.1.46,10.19Z"/><path class="cls-2" d="M6.22,21.24a8.86,8.86,0,0,1-.07.9c1-.28,2.11-.54,3.18-.77v0Z"/><path class="cls-2" d="M.22,17.32l-.06,0L0,17.4v1.08l.67-.3A6.37,6.37,0,0,0,.22,17.32Z"/><path class="cls-2" d="M1.14,20,0,20.16V21H1.21A6.9,6.9,0,0,0,1.14,20Z"/><path class="cls-2" d="M39.72.52,39.6.43A4.61,4.61,0,0,0,39.89,0h-.7l.05.59A4,4,0,0,0,39.72.52Z"/><path class="cls-2" d="M37.86,0H36.28a5.17,5.17,0,0,0,1.49.52Z"/><path class="cls-2" d="M37.33,1.4a8.54,8.54,0,0,1-.82-.25L36,2.51a6.78,6.78,0,0,0,1,.3Z"/><path class="cls-2" d="M35.6.7a5.63,5.63,0,0,1-.72-.48L34,1.38a10.22,10.22,0,0,0,.87.59Z"/><path class="cls-2" d="M39.25,2.44l-.06-.89a6.17,6.17,0,0,1-.86,0v.24l.2-.16Z"/><path class="cls-2" d="M33.65,0h-1c.15.18.28.37.44.53Z"/><path class="cls-2" d="M43.49,1.36l-.05-.06-.08.15Z"/><path class="cls-2" d="M40.19,1.39l.31,1.42a8.29,8.29,0,0,0,1-.31l-.32-.89-.5-.37C40.52,1.29,40.36,1.35,40.19,1.39Z"/><path class="cls-2" d="M44.82,0h-.93l.51.51C44.55.35,44.68.17,44.82,0Z"/><path class="cls-3" d="M23.47,1.73,22.25,3.3A19.09,19.09,0,0,0,24,4.54L26,1.39c-.19-.12-.37-.26-.56-.39s-.62-.41-.91-.63Z"/><path class="cls-3" d="M20.61,1.9,22.4,0H19.5l-.39.33A20.18,20.18,0,0,0,20.61,1.9Z"/><path class="cls-3" d="M27.55,2.25l-1.42,3L26,5.59c.33.16.66.31,1,.45l.07,0q.48.2,1,.36l.77-2.26.43-1.26A15.9,15.9,0,0,1,27.55,2.25Z"/><path class="cls-3" d="M30.12,7a15,15,0,0,0,2,.25l.27,0,0-.51L32.47,5l.06-1.41a12.24,12.24,0,0,1-1.68-.21l-.48,2.38Z"/><path class="cls-3" d="M39.09,5.78A10.84,10.84,0,0,0,41,4.38L39.25,2.44l-.73-.81-.2.16a7.33,7.33,0,0,1-1.08.77Z"/><path class="cls-3" d="M39.72.52l1,.72.5.37,1.4,1c.28-.38.53-.78.78-1.2l.08-.15c.12-.21.24-.4.34-.61L42.41,0H39.89a4.61,4.61,0,0,1-.29.43Z"/><path class="cls-3" d="M34.2,3.52l.43,3.63v.06Q35.32,7.12,36,7a3.57,3.57,0,0,0,.47-.11l.48-.13L35.8,3.19l-.31.09A9.17,9.17,0,0,1,34.2,3.52Z"/><path class="cls-3" d="M54.84,0h-3l1.56,1.56C53.91,1.05,54.38.52,54.84,0Z"/><path class="cls-3" d="M47.81,6.16c.57-.39,1.12-.8,1.67-1.21s1.22-1,1.8-1.44c.41-.36.82-.72,1.21-1.08L51.26,1.1,50.63.43a.93.93,0,0,1-.15.13A40.12,40.12,0,0,1,46.18,4L47.43,5.8l.29.43Z"/><path class="cls-3" d="M46.2,7.22l.49-.3-.23-.36L45.2,4.63a38.09,38.09,0,0,1-3.93,2.26l1.17,2.47.23-.12c.33-.16,1-.5,1.88-1C45,7.94,45.6,7.61,46.2,7.22Z"/><path class="cls-3" d="M13.79,3.78A25.56,25.56,0,0,1,13.5.21V.08L10.77,0V.21a29.09,29.09,0,0,0,.31,4Z"/><path class="cls-3" d="M66.5,6.68v0l-.06,0Z"/><path class="cls-3" d="M12.82,10.71l2.53-1a25.23,25.23,0,0,1-1.1-3.57l-2.65.62A28,28,0,0,0,12.82,10.71Z"/><path class="cls-3" d="M17,12.89c-.22-.34-.43-.68-.63-1.05l-2.41,1.29a19.81,19.81,0,0,0,2.37,3.49l1.41-1.21.66-.56A17.17,17.17,0,0,1,17,12.89Z"/><path class="cls-3" d="M8,14.6l1.2-.33a25.33,25.33,0,0,1-.71-3.65l-2.71.32A30.56,30.56,0,0,0,6.36,14c.08.33.14.66.23,1Z"/><path class="cls-3" d="M10.1,16.86c0-.11-.1-.22-.14-.33l-2.55,1c.16.43.36.84.54,1.25A25,25,0,0,0,9.09,21c.05.08.08.16.13.24l1.49-.88.85-.51A22.36,22.36,0,0,1,10.1,16.86Z"/><path class="cls-3" d="M32.51,20l-.53,0-.48,0,0,2c.24.08.49.14.73.23,0,0,1.12-.91,3-2.28l0-.23C34.3,19.92,33.39,20,32.51,20Z"/><path class="cls-3" d="M23,18.43c-.27-.13-.52-.3-.79-.45l-.12-.07A14.1,14.1,0,0,1,20,16.48l-1.78,2.07c.39.33.79.63,1.2.92s.76.52,1.16.76c.5,0,1,0,1.49.07l.67-1.38Z"/><path class="cls-3" d="M25.1,19.27l-.39,1.27a35.93,35.93,0,0,1,3.84.69L28.67,20A18.21,18.21,0,0,1,25.1,19.27Z"/><path class="cls-3" d="M17.26,6.84a19.33,19.33,0,0,0,1.29,1.52c.39.43.86.91,1.39,1.42l1.89-2a27.29,27.29,0,0,1-2.42-2.64.48.48,0,0,1-.08-.11l-.77.58L17.14,6.69Z"/><path class="cls-3" d="M25.3,13.89l1.38-2.35c-.6-.36-1.2-.76-1.8-1.19-.42-.3-.84-.61-1.25-.95l-1.72,2.12c.72.59,1.46,1.11,2.2,1.61C24.51,13.39,24.9,13.66,25.3,13.89Z"/><path class="cls-3" d="M31.76,16l.47-2.26a17.25,17.25,0,0,1-3.46-1.13l-1.1,2.49a18.53,18.53,0,0,0,2.06.79,17.42,17.42,0,0,0,1.94.52Z"/><path class="cls-3" d="M47,8.71c-.54.49-1.07,1-1.6,1.38l1.69,2.14c.49-.38,1-.81,1.47-1.25v0l.11,0h0q.75-.68,1.47-1.41L50,9.31,48.2,7.57Q47.62,8.17,47,8.71Z"/><path class="cls-3" d="M34.5,14l-.13,2.72a16.76,16.76,0,0,0,4.24-.34l-.56-2.67A14.12,14.12,0,0,1,34.5,14Z"/><path class="cls-3" d="M44,12.23l-.48-.77c-.18.12-.36.2-.54.31a17.39,17.39,0,0,1-2.71,1.33l1,2.55A21.46,21.46,0,0,0,43.9,14.4l.34-.2.72-.43Z"/><path class="cls-3" d="M60.64,7.35l.8-.16-.29-.3Z"/><path class="cls-3" d="M63.26,4.44c-.17.24-.33.48-.52.71l2,1.6.27,0A19.64,19.64,0,0,0,66.5,4.53V3l-1.77-.9A16.18,16.18,0,0,1,63.26,4.44Z"/><polygon class="cls-3" points="66.5 0 65.62 0 66.5 0.28 66.5 0"/><path class="cls-3" d="M48.69,10.89h0l-.11,0v0l.29.73c1.09-.55,2.2-1.07,3.33-1.55l-.5-.83A24.49,24.49,0,0,1,48.69,10.89Z"/><path class="cls-3" d="M57.83,7.34l-1.5-1.53a23.57,23.57,0,0,1-2.71,2.27l.83,1.16c1-.4,2.1-.77,3.16-1.09.17-.16.36-.32.53-.49Z"/><path class="cls-3" d="M60.12,5.44a18.23,18.23,0,0,0,1.92-3L59.73,1.28c-.07.13-.16.26-.23.39a16.1,16.1,0,0,1-1.66,2.49l.43.35,1.51,1.23.07.06C60,5.68,60,5.56,60.12,5.44Z"/><path class="cls-3" d="M63,0h-.21L63,.06A.14.14,0,0,0,63,0Z"/><path class="cls-3" d="M45.15.2l2.12,1.5a1.43,1.43,0,0,1,.1-.16c.17-.26.51-.79.93-1.54h-3l-.06.1Z"/><path class="cls-4" d="M.22,17.32l.68.26a9.11,9.11,0,0,0,.6-3.23,8.74,8.74,0,0,0-.08-1.14c0-.22-.08-.44-.12-.66a9.11,9.11,0,0,0-.84-2.36c0-.09-.08-.18-.13-.27L0,10.11v7.12l.16.06Z"/><path class="cls-4" d="M2.05,6.05A12.67,12.67,0,0,0,.57,4.6L0,5.29V7.84l.78-.68Z"/><path class="cls-4" d="M3.27,10.32l1.09-.4c-.08-.21-.17-.42-.26-.63A11.24,11.24,0,0,0,3.47,8L1.11,9.4a9,9,0,0,1,.69,1.48Z"/><path class="cls-4" d="M.93,23.78c.28-.25.55-.51.8-.78l0,0,0,0L0,21.32v2.74l0,0Z"/><path class="cls-4" d="M2.3,12.38A9.66,9.66,0,0,1,2.43,14H5.16A13,13,0,0,0,5,11.93l-.26,0-2.05.34Z"/><path class="cls-4" d="M4.2,19.18l-2.52-1a1.3,1.3,0,0,1-.08.17,9.54,9.54,0,0,1-.66,1.27L2,20.25,3.25,21A12,12,0,0,0,4.2,19.18Z"/><path class="cls-4" d="M4.91,16.84a10.42,10.42,0,0,0,.17-1.14c0-.3.06-.61.07-.92H5.06l-2.64-.08a9.8,9.8,0,0,1-.18,1.62l.28.05,1.84.37Z"/><path class="cls-5" d="M12.12,23.45c14,2.62,18.16,5.68,18.16,5.68S46.92,20.18,47.57,20s7.66,1.31,7.66,1.31,4.65-6.95,11.27-10.34V6.68h-.06c-.48,0-1,0-1.47,0l-.27,0c-.48,0-1,.08-1.46.14s-1.19.18-1.8.3l-.8.16c-1,.22-2,.49-3,.8s-2.11.69-3.16,1.09c-.75.29-1.5.59-2.24.92-1.13.48-2.24,1-3.33,1.55-1.61.8-3.17,1.64-4.64,2.49l-.34.2C41.13,16,38.68,17.63,36.74,19l-.7.49-.77.55c-1.9,1.37-3,2.28-3,2.28-.24-.09-.49-.15-.73-.23q-1.48-.5-3-.84a35.93,35.93,0,0,0-3.84-.69c-.33-.05-.67-.08-1-.11-.55-.06-1.09-.1-1.64-.13s-1-.06-1.49-.07c-.25,0-.5,0-.74,0a47.85,47.85,0,0,0-5.88.36q-1.54.19-3.09.48l-1.53.3c-1.07.23-2.13.49-3.18.77L5,22.45c-1.15.34-2.29.7-3.4,1.09-.23.08-.47.15-.7.24L0,24.1l0,0v.66C4.2,23.43,8.42,22.76,12.12,23.45Z"/><path class="cls-6" d="M30.28,37.21S41.86,30.05,53.76,27.1l.16-.75a1.38,1.38,0,0,1,.16-.77l.22-1.07.45.09c.25-.33.59-.78,1-1.3l2.29,1.86c-.29.35-.53.66-.73.93l.22.22A29.88,29.88,0,0,1,65.61,26h.89V23h-1V19h1V18c-.64.39-1.28.8-1.92,1.28L62.82,16.9a26.36,26.36,0,0,1,3.53-2.22l.15-.07V10.93c-6.62,3.39-11.27,10.34-11.27,10.34s-7-1.53-7.66-1.31-17.29,9.17-17.29,9.17-4.16-3.06-18.16-5.68c-3.7-.69-7.92,0-12.12,1.33v3.53c1-.32,2-.61,3-.84l.68,2.87A37.3,37.3,0,0,0,0,31.4v4C6.88,32.75,16.88,31.74,30.28,37.21Zm30.1-18.74,1.95,2.21a33.57,33.57,0,0,0-2.7,2.65l-2.17-2A39.15,39.15,0,0,1,60.38,18.47ZM12.11,29.88l-.17,0,.5-2.91.21,0c1.27.24,2.52.49,3.7.75l-.63,2.88C14.57,30.36,13.35,30.11,12.11,29.88Zm6,1.29.7-2.86c1.35.33,2.65.68,3.86,1l-.83,2.83C20.69,31.83,19.44,31.49,18.13,31.17Zm13.1,4.22-1.4-2.6,3.48-1.87,1.4,2.59Zm4.3-5.66L39,27.86l1.4,2.6-3.47,1.86ZM48,23.44a23.53,23.53,0,0,1,3.85.57l-.55,2.89a25.06,25.06,0,0,0-3.3-.51.75.75,0,0,0,.25-.06h0L47,23.64l.25-.1A2,2,0,0,1,48,23.44Zm-3.25,1.39,1.38,2.61-3.48,1.84-1.38-2.6ZM28.93,31.6l-1.22,2.68c-1-.46-2.19-.92-3.52-1.37l.95-2.79C26.56,30.6,27.83,31.1,28.93,31.6Zm-19.28-2h-.4A22.13,22.13,0,0,0,6,29.88L5.55,27a25.41,25.41,0,0,1,3.7-.29h.47Z"/><path class="cls-7" d="M3.65,30.34,3,27.47c-1,.23-2,.52-3,.84V31.4A37.3,37.3,0,0,1,3.65,30.34Z"/><path class="cls-7" d="M5.55,27,6,29.88a22.13,22.13,0,0,1,3.26-.25h.4l.07-2.95H9.25A25.41,25.41,0,0,0,5.55,27Z"/><path class="cls-7" d="M40.4,30.46,39,27.86l-3.47,1.87,1.4,2.59Z"/><path class="cls-7" d="M47,23.64l1.23,2.68h0a.75.75,0,0,1-.25.06,25.06,25.06,0,0,1,3.3.51L51.81,24A23.53,23.53,0,0,0,48,23.44a2,2,0,0,0-.68.1Z"/><rect class="cls-7" x="65.5" y="19" width="1" height="4"/><path class="cls-7" d="M62.82,16.9l1.76,2.37c.64-.48,1.28-.89,1.92-1.28V14.61l-.15.07A26.36,26.36,0,0,0,62.82,16.9Z"/><path class="cls-7" d="M66.5,26.11V26h-.89C65.91,26,66.21,26.06,66.5,26.11Z"/><path class="cls-7" d="M42.61,29.28l3.48-1.84-1.38-2.61-3.48,1.85Z"/><path class="cls-7" d="M22.69,29.34c-1.21-.35-2.51-.7-3.86-1l-.7,2.86c1.31.32,2.56.66,3.73,1Z"/><path class="cls-7" d="M16.35,27.73c-1.18-.26-2.43-.51-3.7-.75l-.21,0-.5,2.91.17,0c1.24.23,2.46.48,3.61.73Z"/><path class="cls-7" d="M24.19,32.91c1.33.45,2.51.91,3.52,1.37l1.22-2.68c-1.1-.5-2.37-1-3.79-1.48Z"/><path class="cls-7" d="M33.31,30.92l-3.48,1.87,1.4,2.6,3.48-1.88Z"/><path class="cls-7" d="M62.33,20.68l-1.95-2.21a39.15,39.15,0,0,0-2.92,2.86l2.17,2A33.57,33.57,0,0,1,62.33,20.68Z"/><path class="cls-7" d="M58.05,25.16,55.76,23.3c-.42.52-.76,1-1,1.3l-.45-.09-.22,1.07a1.38,1.38,0,0,0-.16.77l-.16.75c1.26-.32,2.52-.58,3.78-.79l-.22-.22C57.52,25.82,57.76,25.51,58.05,25.16Z"/><path class="cls-8" d="M1.09,54H2.83l-.57-3.27a38,38,0,0,1,4.14-.49L6.63,54H8.54l0-3.82h0a38.9,38.9,0,0,1,4.16.17L12.31,54h1.46l.49-3.43c1.34.19,2.71.45,4.06.77L17.69,54h1.79l.62-2.19c1.3.36,2.61.79,3.91,1.28l-.34.91h1.94l.1-.24.54.24H49.81l-.36-.36a28.9,28.9,0,0,1,3.23-2.78L55,54H66.5V48.77l-.09,0-1.54-4.21L66.5,44V26.11c-.29-.05-.59-.08-.89-.11a29.88,29.88,0,0,0-8.07.31c-1.26.21-2.52.47-3.78.79-11.9,2.95-23.48,10.11-23.48,10.11C16.88,31.74,6.88,32.75,0,35.41v7.05L1,45.9l-1,.31v5l.43-.11Zm45.44-9.06-2.32-3.83c1.17-.71,2.39-1.37,3.62-2l2,4C48.69,43.69,47.59,44.3,46.53,44.94Zm3-6.59c1.27-.56,2.56-1.06,3.85-1.5l1.44,4.23c-1.16.4-2.33.86-3.47,1.36Zm9.63-3,.84,4.4c-1.2.23-2.41.52-3.6.87l-1.27-4.29C56.42,35.9,57.78,35.57,59.12,35.31ZM56.68,53.53l-2.46-3.74c1.1-.72,2.3-1.43,3.58-2.1l2.08,4C58.73,52.25,57.66,52.89,56.68,53.53Zm4.69-2.62-1.94-4c1.18-.56,2.44-1.11,3.75-1.63l1.65,4.16C63.62,49.88,62.45,50.39,61.37,50.91Zm3.9-11.82a35.19,35.19,0,0,0-3.68.34L60.94,35a38.6,38.6,0,0,1,4.14-.38Zm-22.61,3,2.46,3.74a33.94,33.94,0,0,0-3,2.18L39.7,45.06l-1.42,3.1c-1.13-.52-2.3-1-3.47-1.43l1.55-4.2c1.21.45,2.43.95,3.62,1.48C40.61,43.52,41.52,42.84,42.66,42.09ZM24.9,39.67c1.35.19,2.7.43,4,.71L28,44.76c-1.22-.26-2.46-.48-3.71-.65ZM19,39.17c1.37,0,2.74.14,4.08.28l-.47,4.45c-1.24-.13-2.5-.21-3.76-.26ZM17,39h.52v4H17a8.62,8.62,0,0,1-3.57.73l-.29-4.47C14.4,39.18,15.7,39.14,17,39Zm-5.67.4.42,4.46c-1.25.11-2.51.27-3.75.47l-.71-4.42C8.61,39.7,10,39.53,11.31,39.4Zm-5.83.82.84,4.4c-1.25.24-2.49.52-3.69.83L1.5,41.12C2.8,40.78,4.14,40.48,5.48,40.22Zm24.14,4.91,1.08-4.34c1.32.33,2.65.71,3.94,1.14l-1.41,4.25C32.05,45.79,30.83,45.44,29.62,45.13Z"/><path class="cls-6" d="M6.32,44.62l-.84-4.4c-1.34.26-2.68.56-4,.9l1.13,4.33C3.83,45.14,5.07,44.86,6.32,44.62Z"/><path class="cls-6" d="M2.26,50.73,2.83,54h3.8L6.4,50.24A38,38,0,0,0,2.26,50.73Z"/><path class="cls-6" d="M0,42.46v3.75l1-.31Z"/><path class="cls-6" d="M.43,51.1,0,51.21V54H1.09Z"/><path class="cls-6" d="M28.93,40.38c-1.33-.28-2.68-.52-4-.71l-.62,4.44c1.25.17,2.49.39,3.71.65Z"/><path class="cls-6" d="M14.26,50.57,13.77,54h3.92l.63-2.66C17,51,15.6,50.76,14.26,50.57Z"/><path class="cls-6" d="M17,43h.52V39H17c-1.28.14-2.58.18-3.86.26l.29,4.47A8.62,8.62,0,0,0,17,43Z"/><path class="cls-6" d="M8.5,50.18h0l0,3.82h3.77l.35-3.65A38.9,38.9,0,0,0,8.5,50.18Z"/><path class="cls-6" d="M11.73,43.86l-.42-4.46c-1.34.13-2.7.3-4,.51L8,44.33C9.22,44.13,10.48,44,11.73,43.86Z"/><path class="cls-6" d="M25.61,54h.64l-.54-.24Z"/><path class="cls-6" d="M47.83,39.13c-1.23.61-2.45,1.27-3.62,2l2.32,3.83c1.06-.64,2.16-1.25,3.28-1.79Z"/><path class="cls-6" d="M34.81,46.73c1.17.43,2.34.91,3.47,1.43l1.42-3.1L42.15,48a33.94,33.94,0,0,1,3-2.18l-2.46-3.74c-1.14.75-2,1.43-2.68,1.92-1.19-.53-2.41-1-3.62-1.48Z"/><path class="cls-6" d="M54.78,41.08l-1.44-4.23c-1.29.44-2.58.94-3.85,1.5l1.82,4.09C52.45,41.94,53.62,41.48,54.78,41.08Z"/><path class="cls-6" d="M49.45,53.64l.36.36H55l-2.32-3.14A28.9,28.9,0,0,0,49.45,53.64Z"/><path class="cls-6" d="M23.09,39.45c-1.34-.14-2.71-.23-4.08-.28l-.15,4.47c1.26,0,2.52.13,3.76.26Z"/><path class="cls-6" d="M34.64,41.93c-1.29-.43-2.62-.81-3.94-1.14l-1.08,4.34c1.21.31,2.43.66,3.61,1Z"/><path class="cls-6" d="M20.1,51.81,19.48,54h4.19l.34-.91C22.71,52.6,21.4,52.17,20.1,51.81Z"/><path class="cls-6" d="M66.41,48.8l.09,0V44l-1.63.57Z"/><path class="cls-6" d="M60.94,35l.65,4.43a35.19,35.19,0,0,1,3.68-.34l-.19-4.47A38.6,38.6,0,0,0,60.94,35Z"/><path class="cls-6" d="M54.22,49.79l2.46,3.74c1-.64,2-1.28,3.2-1.88l-2.08-4C56.52,48.36,55.32,49.07,54.22,49.79Z"/><path class="cls-6" d="M59.43,46.87l1.94,4c1.08-.52,2.25-1,3.46-1.51l-1.65-4.16C61.87,45.76,60.61,46.31,59.43,46.87Z"/><path class="cls-6" d="M60,39.71l-.84-4.4c-1.34.26-2.7.59-4,1l1.27,4.29C57.55,40.23,58.76,39.94,60,39.71Z"/></g></g></g></svg>