<svg xmlns="http://www.w3.org/2000/svg" viewBox="0 0 54.96 86.54"><defs><style>.cls-1{fill:#050505;}.cls-2{fill:#e4e7ea;}.cls-3{fill:#3a3d3f;}.cls-4{fill:#2c2f30;}.cls-5{fill:#fcfcfc;}.cls-6{fill:#60b2a8;}.cls-7{fill:#ca9c61;}.cls-8{fill:#f4c3b0;}.cls-9{fill:#e3be84;}.cls-10{fill:#d3ad35;}.cls-11{fill:#7bb299;}.cls-12{fill:#6e897c;}.cls-13{fill:#d28182;}.cls-14{fill:#9e5c21;}.cls-15{fill:#685a21;}.cls-16{fill:#3a2a19;}.cls-17{fill:#e3eccc;}.cls-18{fill:#994b2e;}.cls-19{fill:#c56824;}.cls-20{fill:#3c7776;}.cls-21{fill:#b12f1f;}.cls-22{fill:#d1a471;}.cls-23{fill:#cf8f72;}.cls-24{fill:#4b4641;}.cls-25{fill:#2e6262;}.cls-26{fill:#010002;}.cls-27{fill:#af7d46;}.cls-28{fill:#b25c1a;}.cls-29{fill:#7f552a;}.cls-30{fill:#c3653b;}.cls-31{fill:#fff;}</style></defs><title>van_goghRecurso 16</title><g id="Capa_2" data-name="Capa 2"><g id="Capa_1-2" data-name="Capa 1"><g id="Silencio"><path class="cls-1" d="M32.24,56.12c4.32,0,9.29-8.31,9.29-8.31l-3.25-3s-2.52,8.15-6.65,6.92-3.93-6.48-3.93-6.48l-3.33-.72,1.1,4.32C28.21,53.24,27.92,56.17,32.24,56.12Z"/><polygon class="cls-2" points="22.82 46.05 24.33 43.78 21.74 42.57 16.18 42.96 13.72 44.25 16.18 46.89 22.82 46.05"/><path class="cls-3" d="M25.15,85.07l-2.24.15a10.62,10.62,0,0,1-.59,1.32h8.14S26.59,85.36,25.15,85.07Z"/><path class="cls-3" d="M15.49,85.07l-2.25.15a10.62,10.62,0,0,1-.59,1.32H20.8S16.93,85.36,15.49,85.07Z"/><path class="cls-1" d="M26.33,85.41s2.5-15.12,1.18-20.61l-1.33-5.49-6.33,5.22s4,16.13,2.79,20.88Z"/><path class="cls-1" d="M17.23,85.41s5.46-15.12,4.13-20.61L20,59.31,13.7,64.53s1.91,16.81-.89,20.88Z"/><path class="cls-1" d="M15.89,85.41c3.3-5,.82-21.21.82-21.21l3.93-2.4L20,59.31,13.7,64.53s1.91,16.81-.89,20.88Z"/><path class="cls-1" d="M16.12,69.11l.11-1.69S7.39,66.33,5.62,61.16,12.7,50.23,12.7,50.23l4.2,3.28L9.82,44.67s-10,8.24-8.51,16.79S16.12,69.11,16.12,69.11Z"/><path class="cls-1" d="M13.47,65.8c-.22,1.11-.93,6.42-1,6.87H28.52l-.69-28.33-.34-.06c-3.58.63-5.13-.1-5.77-1l-5.45.61-6.45.62S14.45,60.94,13.47,65.8Z"/><path class="cls-4" d="M13.75,51.69,23.32,60,27,51.18,25,49.44l1.55-1-1.25-3.8c-2,0-3-.57-3.56-1.31l-.54,0-5,.63-3.39.37A13.45,13.45,0,0,1,12,47.57l3.44,2.19Z"/><polygon class="cls-5" points="24.33 43.78 21.75 43.28 16.27 43.97 13.72 44.25 23.05 59.09 24.33 43.78"/><polygon class="cls-6" points="20.62 55.23 23.05 59.09 23.42 54.69 21.38 50.13 22.1 47.38 18.47 47.73 17.99 48.37 19.8 50.13 20.62 55.23"/><path class="cls-2" d="M18.51,49.88l1-2.48,2.7,1.85,1.87-2.76.16-1.9h0a2.79,2.79,0,0,1-2.67-1.3L16.27,44l-2.55.28,3,4.71Z"/><path class="cls-7" d="M19.4,47.41l4.87-2.82a2.76,2.76,0,0,1-2.65-1.28L18.13,45A22.12,22.12,0,0,1,19.4,47.41Z"/><path class="cls-8" d="M19.4,47.41,17,43.88l-.71.09-2.55.28.23.37Z"/><path class="cls-4" d="M23.32,62.61a.39.39,0,1,0,0-.77.39.39,0,1,0,0,.77Z"/><path class="cls-4" d="M23.64,66.42a.39.39,0,1,0-.43-.39A.41.41,0,0,0,23.64,66.42Z"/><path class="cls-4" d="M23.53,70.28a.39.39,0,1,0-.43-.38A.41.41,0,0,0,23.53,70.28Z"/><path class="cls-4" d="M23.28,74.21a.39.39,0,1,0-.43-.38A.41.41,0,0,0,23.28,74.21Z"/><path class="cls-9" d="M15,68.9c3.86-2.7.51-3,.51-3L8.16,67.26S11.12,71.59,15,68.9Z"/><path class="cls-10" d="M6.58,67.64c3.73,1.81,6.93.58,6.69,2s-3,3.19,3.25,4,15.33-2.66,15.8-5.8S27,59,13,62.48C13,62.48,2.86,65.83,6.58,67.64Z"/><ellipse class="cls-11" cx="16.13" cy="71.11" rx="2.29" ry="1.01"/><ellipse class="cls-12" cx="22.76" cy="70.15" rx="2.64" ry="0.9"/><path class="cls-13" d="M30.33,67.51c0-.72-1.27-1.31-2.84-1.31s-2.84.59-2.84,1.31,1.27,1.31,2.84,1.31S30.33,68.24,30.33,67.51Z"/><ellipse class="cls-14" cx="24.93" cy="64.57" rx="2.56" ry="1.1"/><ellipse class="cls-15" cx="18.18" cy="63.4" rx="2.49" ry="0.92"/><path class="cls-9" d="M12.18,66.76c.2-.29,1,0,1,0l1.13,0a3,3,0,0,0-4.77-.4C9.9,67,12,67.05,12.18,66.76Z"/><path class="cls-13" d="M41.15,45.38c.31-1.05,2.11-.46,2.11-.46l.09-.48-.58-.65s-1.2-1.58-2.5-1.18a3.05,3.05,0,0,0-1.77,1.8L40.19,46S40.84,46.44,41.15,45.38Z"/><path class="cls-9" d="M41.64,44a2,2,0,0,1,1.7.85l.33,0a2.33,2.33,0,0,0-2.18-1.88,3.26,3.26,0,0,0-3.08,1.66l1.9,2.6c2.69.74,3.17-2.14,3.17-2.14l-.33-.17s-.2,1.06-1,1S40.55,44.09,41.64,44Z"/><path class="cls-16" d="M53,43.65a53.15,53.15,0,0,0-13.78,1.86C42.2,46.12,53,43.65,53,43.65Z"/><path class="cls-10" d="M48.17,43.88l.18.73c2.58-.48,4.66-1,4.66-1A46.75,46.75,0,0,0,48.17,43.88Z"/><path class="cls-17" d="M54.92,42.36s-.12.66-1.15.65-1.16.66-1.16.66l-.09.08s1.87.33,2.22-.08A1.94,1.94,0,0,0,54.92,42.36Z"/><path class="cls-2" d="M38.07,44.58s-.3,1.09-.86,2.59L41,50c.65-1.36,1-2.28,1-2.28Z"/><path class="cls-7" d="M19.54,47.4l1.28-2,2.46-.9c-2.14-.55-3-3.86-3.29-5.74-1.53-3.21-3.6-1.89-5.6-1.59,1,4.73-.67,7-.67,7Z"/><path class="cls-13" d="M19.07,47.14l-4-9.07-.5.27c.55,4-.88,5.91-.88,5.91Z"/><path class="cls-18" d="M.77,20C.92,22,5.92,31.58,8.39,33.56s6.42,1.63,6.42,1.63L27.63,7.52S30.4,2.07,25.34.83l.42,1.81S25,.05,20.93.15l.85,1.43S20.25-.55,16.67.14l.62,1.06S11.41-.35,7.5,3.38c0,0,1.59.13,1.31.2S3.4,6.66,3.4,6.66l2-.1S.39,9.77,0,13.26l1-.74S.62,18.07.77,20Z"/><path class="cls-19" d="M.77,19.54c.15-.23.31-.45.47-.68,2.62-3.7,3.63-6.53,6.61-5.77.53.14,2.74,1.6,3,1.68l-.77.22a21.53,21.53,0,0,0-5.82,2.32A8.62,8.62,0,0,0,1,20.88c.14.44.35,1,.62,1.6,1.09-4.33,6-5.7,8.8-6.46.53-.15,1-.27,1.32-.4s.85-.31.86-.84-2.41-2.1-2.66-2.2a15.21,15.21,0,0,0-1.73-.52,6.74,6.74,0,0,0-1.32-.22l-3,1L.74,18.08c0,.46,0,.89,0,1.26A.46.46,0,0,1,.77,19.54Z"/><path class="cls-20" d="M7.62,3.27l-.12.11s.64.05,1,.11C8.25,3.41,7.94,3.33,7.62,3.27Z"/><path class="cls-19" d="M10.37,19l.82,0-.11.05a30.71,30.71,0,0,0-5.41,3.13,12.44,12.44,0,0,0-2.86,3c.2.39.4.78.61,1.17C5.1,23,9.36,21,11.58,19.91q.76-.36,1.2-.6c.26-.15.8-.45.67-.95s-.76-.53-1.14-.54-1,0-2,.06A9.11,9.11,0,0,0,4.16,21a17.65,17.65,0,0,0-2.05,2.67l.57,1.18C4.07,22.49,6.49,19.16,10.37,19Z"/><path class="cls-19" d="M19.63.22c3.44,2.68,3.8,7.61,3.72,8.18a3.17,3.17,0,0,0-.07,1.21c.08,1,2.13,2.59,2.21,2.68a.67.67,0,0,0,.7.2c.41-.12.6-.54.78-1.18.09-.34-1.64-2.12-1.54-2.65,0,.44,1.75,2.05,1.75,2.06l-.13.78.81-.19a.75.75,0,0,0,.34-.18L27.35,8c.14-.36.28-.79.43-1.3.52-1.73-.37-3.9-1.21-5.44A5.66,5.66,0,0,0,25.34.83l.42,1.81A3.49,3.49,0,0,0,24,.73,11.28,11.28,0,0,1,24.6,2.1,10.92,10.92,0,0,0,23.52.54,6,6,0,0,0,21.64.16c2.29,2.25,3.26,4.6,2.89,7l-.06.38c0-.21,0-.41-.06-.57a13.53,13.53,0,0,0-.84-3.17A10.86,10.86,0,0,0,21.23.14h-.3l.85,1.43A4.2,4.2,0,0,0,19.63.22Zm7.05,6.24a1.54,1.54,0,0,0-.05.17c0-.48-.05-1-.12-1.57A14.73,14.73,0,0,0,26,2.77,5.6,5.6,0,0,1,26.68,6.46Z"/><path class="cls-19" d="M10.55,22.27,5.17,29.32q.31.51.63,1l6.49-8.51-1.15-1.53L4.55,26.22l.78.76Z"/><path class="cls-19" d="M16.37,1.71c3.2,2.93,3.16,8.18,3.16,8.23V10l0,.08a22.56,22.56,0,0,1,2.19,2.24c.16.36.56,1.19,1.29,1.07h.06c.65-.15.82-1,.89-1.38.15-.74-1.59-3.24-1.57-4.76A7.6,7.6,0,0,0,20.6,2.18,11.2,11.2,0,0,0,18.14,0a6.61,6.61,0,0,0-1.47.14l.23.38c2.94,1.77,4.41,4,4.37,6.75a23.85,23.85,0,0,1-.18,2.88c0,.2,1.77,1.7,1.74,1.83-.11-.23-2.06-1.86-2.16-2.14a15,15,0,0,0-.39-3.17A11,11,0,0,0,17.18.93L17.09.84l.2.36a11.49,11.49,0,0,0-2-.29A6.85,6.85,0,0,1,16.37,1.71Z"/><path class="cls-19" d="M3.61,11h0a15.31,15.31,0,0,1,5.2,0c.47.06.87.12,1.19.13s.82,0,1.06-.42-.24-1.07-1-1.71a6,6,0,0,0-4.2-1.38,11.38,11.38,0,0,0-2.23.27A17,17,0,0,0,2,9.43c2.53-.88,5.43-1.3,7.27.32l.24.22L9,9.9a16.07,16.07,0,0,0-5.63,0h0A7.61,7.61,0,0,0,.83,11,5.65,5.65,0,0,0,0,13.26l.22-.16A5.63,5.63,0,0,1,3.61,11Z"/><path class="cls-19" d="M15.37,9.06c0,.21-.11,1-.18,1.76,0,.54,1.76,2.31,1.76,2.63a3.25,3.25,0,0,0,0,.48.62.62,0,0,0,.54.62.67.67,0,0,0,.63-.3,1.41,1.41,0,0,0,.15-.28,8,8,0,0,0,.29-.85c.23-.81-1.29-3.44-.91-5.17a5.76,5.76,0,0,0-1.35-5.57A7.61,7.61,0,0,0,14.27.88,12.57,12.57,0,0,0,12,1.11a8.34,8.34,0,0,1,3.46,2,4.76,4.76,0,0,1,1.09,4.65c0,.2-.08.39-.12.56A12.2,12.2,0,0,0,16,6.42a8.12,8.12,0,0,0-3-4.24,6.17,6.17,0,0,0-1.84-.85,9,9,0,0,0-1.94.81,5.57,5.57,0,0,1,3.09.92C14.88,4.82,15.32,8.61,15.37,9.06Z"/><path class="cls-19" d="M12,8.75c.08.19.14.33.19.42a.67.67,0,0,0,.06.12.57.57,0,0,0,.72.26.55.55,0,0,0,.36-.66l0-.09a1.28,1.28,0,0,0-.07-.21l-.1-.29L13,8.16l-.12-.09h0c-.16-.39-.41-1-.78-1.91A4.75,4.75,0,0,0,9,3.63l-.18-.06h0c-.09,0-.66.33-1.4.75,1.68.35,3.16,1,3.66,2.24,0,.14.1.26.15.39a16,16,0,0,0-2-1,10.72,10.72,0,0,0-3.38-.77L3.51,6.6C7,5.4,11,8.06,12,8.75Z"/><path class="cls-9" d="M7.44,20.29,10.13,26l-.85,1.23c1.43,4.6,3.66,11.77,4.24,12.15.81.52,13.33,8,13.33,8l8.45-1.95s-1.86-7.08-1.77-11.63S37.17,26,37.17,26l-3-5.62.68-5L32.65,9.66s-3.17-3.18-4.53-4.8a21.2,21.2,0,0,1-8,1.81,27.82,27.82,0,0,1-9.17-1.21l-5.55,5.6,4.22,6.46Z"/><path class="cls-13" d="M7.44,20.29,10.13,26v0L13,32.3l-1.6,1L10,29.58c.89,2.83,1.9,6,2.63,8l9-.8L12.09,23l3-3.25L8.83,7.58,5.39,11.06l4.22,6.46Z"/><path class="cls-13" d="M11.25,26.28l-1.19-.37,1.64,3.52C11.45,27.86,11.25,26.28,11.25,26.28Z"/><path class="cls-19" d="M13.52,39.42c.81.52,13.33,8,13.33,8l8.45-1.95a59.9,59.9,0,0,1-1.76-10.35L33.33,35l-1.1,5L30.8,37.39s-3.83-.64-3.46.33-.64,4.12-.64,4.12l-.95-1.13-.68.65-.67-.91-1,.81-.69-1.33L21,40.4l-.48-5.06L9.22,27.08C10.65,31.67,12.93,39,13.52,39.42Z"/><path class="cls-21" d="M10.51,28l-.86-.64c-.06.14-.13.28-.2.43l.44,1.41C10.13,28.81,10.33,28.41,10.51,28Z"/><path class="cls-21" d="M12.13,30.28c.09-.3.18-.59.26-.88l-.92-.67c-.11.43-.24.87-.37,1.32s-.32,1-.48,1.49c.17.54.34,1.08.52,1.62Q11.65,31.87,12.13,30.28Z"/><path class="cls-21" d="M23.2,44.68a12.67,12.67,0,0,0,2.12-3.56l-.25.24-.66-.89A12.11,12.11,0,0,1,22,44.54l.89.54Z"/><path class="cls-21" d="M25.38,45.69a11.27,11.27,0,0,0,1-2.77c.09-.38.18-.76.25-1.12l-.89-1.06c-.1.59-.23,1.29-.41,2a8.3,8.3,0,0,1-1.31,3.06l.9.54A6.45,6.45,0,0,0,25.38,45.69Z"/><path class="cls-21" d="M27.43,47.33c.08-.45.16-.93.23-1.42a22.5,22.5,0,0,0,.26-6.24c.25.76.54,1.71.77,2.71a16.87,16.87,0,0,1,.5,3.56,7.57,7.57,0,0,1-.06,1l1.1-.25a15.39,15.39,0,0,0-.49-4.56,34.64,34.64,0,0,0-1.19-3.92h.14l2.76,8.21,1.05-.25-2-5.87.37.68a39.79,39.79,0,0,0,2.32,3.76,13.66,13.66,0,0,0,.84,1.08l1.18-.27a25.09,25.09,0,0,1-3.38-5C31.56,40,31.28,39.44,31,39a37.1,37.1,0,0,0,2.63,3.17l1.11,1.17c-.14-.59-.28-1.27-.42-2-.68-.75-1.35-1.52-1.92-2.25l-.2.91L30.8,37.39a16.57,16.57,0,0,0-1.92-.2l-1.16.07c-.31.08-.47.22-.38.46A7.23,7.23,0,0,1,27,40.93a27.38,27.38,0,0,1-.36,4.86c-.07.48-.15,1-.22,1.39l.47.29Z"/><path class="cls-21" d="M33.77,37.83c-.3-.43-.57-.82-.82-1.15l-.31,1.4c.48.67,1,1.43,1.52,2.18C34,39.47,33.88,38.65,33.77,37.83Z"/><path class="cls-21" d="M15.52,34.33c.27-.71.52-1.41.75-2.08l-.89-.65c-.26.77-.55,1.59-.87,2.42A40.11,40.11,0,0,1,12.8,38a9,9,0,0,0,.54,1.21A36.26,36.26,0,0,0,15.52,34.33Z"/><path class="cls-21" d="M18.63,41.82a17.84,17.84,0,0,0,2.16-3.31l-.25-2.62c-.3,2.1-1.85,4.3-3.2,5.85l.9.54Z"/><path class="cls-21" d="M22.94,41.08a3.24,3.24,0,0,0,.17-.32l-.43-.83-.37.1-.33.64a15.05,15.05,0,0,1-1.79,2.79l.89.54A16.52,16.52,0,0,0,22.94,41.08Z"/><path class="cls-21" d="M12.48,35.12A39.51,39.51,0,0,0,14.3,30.8l-.9-.65a33.14,33.14,0,0,1-1.81,4.4c.16.49.32,1,.48,1.4Z"/><path class="cls-21" d="M17.23,40.43a31.12,31.12,0,0,0,2.24-4.14c.2-.44.39-.86.57-1.28l-.87-.64c-.21.5-.44,1-.68,1.55a25.61,25.61,0,0,1-2.77,4.84l.89.54C16.81,41,17,40.75,17.23,40.43Z"/><path class="cls-21" d="M14.92,39.79a23.17,23.17,0,0,0,3.18-6.2l-.92-.67A20.45,20.45,0,0,1,14,39.27l-.22.33.89.54C14.76,40,14.84,39.91,14.92,39.79Z"/><polygon class="cls-22" points="22.58 25.95 24.94 30.25 25.84 29.43 27.53 29.75 27.81 29.54 27.69 28.01 26.01 23.72 25.92 20.35 25.5 18.85 22.77 16.93 20.4 18.01 24.05 19.98 22.58 25.95"/><path class="cls-23" d="M31.46,38.44l2-2.46-.66-1.55s-7.79,1.13-8.08,1.19a16.09,16.09,0,0,0-1.86,2.31l3.84,1.52A14.74,14.74,0,0,1,31.46,38.44Z"/><polygon class="cls-24" points="29.47 37.8 31.35 35.83 33.36 36.16 33.34 34.31 23.63 36.44 22.59 38.38 27.66 36.63 29.47 37.8"/><polygon class="cls-7" points="35.02 23.56 32.93 24.39 29.04 23.31 32.84 25.62 35.02 23.56"/><path class="cls-25" d="M17.37,24.37l2.88-.66a1.83,1.83,0,0,0,.18-1.24,1.93,1.93,0,0,0-3.76.87A1.75,1.75,0,0,0,17.37,24.37Z"/><path class="cls-20" d="M17.37,24.37l2.88-.66a1.78,1.78,0,0,0,.21-1,3.92,3.92,0,0,0-1.8,0,3.73,3.73,0,0,0-1.85,1A1.75,1.75,0,0,0,17.37,24.37Z"/><path class="cls-26" d="M18.71,23.59a.73.73,0,0,0,.56-.85.74.74,0,0,0-1.44.33A.72.72,0,0,0,18.71,23.59Z"/><path class="cls-7" d="M18.88,20.37s-4,1.83-4.06,3.32c0,0,5.34-2.45,7.9-2.43Z"/><path class="cls-27" d="M18.73,21l3.44.27.55,0-3.84-.89s-4,1.83-4.06,3.32l.11,0C15.73,22.43,18.73,21,18.73,21Z"/><path class="cls-7" d="M18.94,25.39a12.63,12.63,0,0,0,2.93-1.51l-2.78,1c-.48.07-2.68-.09-2.68-.09A5.33,5.33,0,0,0,18.94,25.39Z"/><path class="cls-25" d="M29.6,21.55,32.18,21a1.8,1.8,0,1,0-3.31-.49A1.88,1.88,0,0,0,29.6,21.55Z"/><path class="cls-20" d="M29.6,21.55,32.18,21a1.82,1.82,0,0,0,.22-1.05,3.4,3.4,0,0,0-1.68,0,3.31,3.31,0,0,0-1.71,1A1.83,1.83,0,0,0,29.6,21.55Z"/><path class="cls-26" d="M30.77,20.74a.68.68,0,0,0,.52-.83.7.7,0,0,0-.83-.53.69.69,0,0,0-.51.84A.68.68,0,0,0,30.77,20.74Z"/><path class="cls-7" d="M34.4,18.89l0-.11-2.64-1.25S28.41,18.6,28.26,20C28.26,20,32.25,18.68,34.4,18.89Z"/><path class="cls-7" d="M31.2,22.56a10,10,0,0,0,2.55-1.42l-2.44.9a23.16,23.16,0,0,1-2.37-.17A4.49,4.49,0,0,0,31.2,22.56Z"/><polygon class="cls-19" points="28.24 36.09 29.44 36.96 30.91 35.53 32.46 35.2 35.06 38.56 34.76 34.31 31.2 31.38 30.51 32.03 29.42 33.21 27.53 31.94 20.92 35.24 20.68 41.81 24.42 36.91 28.24 36.09"/><polygon class="cls-21" points="30.47 35.95 29.79 32.81 29.42 33.21 29.11 33 29.88 36.53 30.47 35.95"/><polygon class="cls-21" points="31.97 35.3 31.07 31.51 30.51 32.03 30.48 32.07 31.28 35.45 31.97 35.3"/><path class="cls-21" d="M27.16,36.33l.69-.15c-.32-1.25-.67-2.64-1-3.91l-.65.32c.22.88.49,2,.77,3.08C27.05,35.9,27.1,36.11,27.16,36.33Z"/><polygon class="cls-21" points="34.8 34.84 34.76 34.3 34 33.68 34.33 37.62 35.06 38.56 34.8 34.84"/><polygon class="cls-21" points="34.15 37.39 33.84 33.55 33.09 32.93 33.27 35.23 32.56 32.49 31.63 31.73 32.58 35.35 34.15 37.39"/><polygon class="cls-21" points="22.36 39.61 21.65 34.87 20.99 35.2 21.76 40.39 22.36 39.61"/><polygon class="cls-21" points="29.3 36.85 28.52 32.6 27.7 32.06 28.47 36.26 29.3 36.85"/><polygon class="cls-21" points="24.42 36.91 24.77 36.84 24.26 33.57 23.6 33.9 24.13 37.29 24.42 36.91"/><polygon class="cls-21" points="26.08 36.56 25.46 32.98 24.8 33.3 25.39 36.7 26.08 36.56"/><polygon class="cls-21" points="23.39 38.25 22.79 34.31 22.13 34.64 22.8 39.03 23.39 38.25"/><path class="cls-27" d="M29.3,27.43l1.84,3c-.15.35-1.63,2.34-1.63,2.34a3.16,3.16,0,0,0,2.73-2.49,11.82,11.82,0,0,1-1.89-2.75c-.27-.95-.7-4.78-.7-4.78l-2-3.14L28.79,23Z"/><path class="cls-27" d="M34.4,18.87l0-.09-2.64-1.25s-3.31,1-3.51,2.41a17.5,17.5,0,0,1,3.26-1.86Z"/><path class="cls-28" d="M23.94,17.78c.31-.87-.79-1.94-.79-1.94l-.37-.61c0,.91-3.47,1.76-4.82,2.55s-4.22,4.69-4.22,4.69,2.23-1.95,3.9-3.08S23.94,17.78,23.94,17.78Z"/><path class="cls-28" d="M30.67,16.07a9.34,9.34,0,0,1,3.94,0l.17,0,.07-.49L30.72,14.3l-4.16,1,.63,2A16.55,16.55,0,0,1,30.67,16.07Z"/><path class="cls-7" d="M25.19,19.17a1.86,1.86,0,0,0,1-1.5C26.3,16.54,24,13.81,24,13.81L25.59,17C25.88,17.7,25.19,19.17,25.19,19.17Z"/><path class="cls-19" d="M32.8,15.88l-.18-1-.48-.14.2,1.12Z"/><path class="cls-19" d="M31.85,15.89l-.29-1.32-.49-.16.34,1.53Z"/><path class="cls-19" d="M33.68,16l-.1-.75-.46-.15.11.85Z"/><path class="cls-19" d="M34.47,15.47,34,15.33l.06.68.46.08Z"/><path class="cls-19" d="M30.67,16.07l.25-.05-.57-1.63-.43.11.56,1.61Z"/><path class="cls-19" d="M28.07,16.9l-.55-1.82-.43.11.57,1.88Z"/><path class="cls-19" d="M29,16.54l-.61-1.68L28,15l.62,1.72Z"/><path class="cls-19" d="M29.88,16.27l-.57-1.62-.44.1.58,1.65Z"/><path class="cls-19" d="M20.75,18.3a6.74,6.74,0,0,0-1-1.33l-.44.18a7,7,0,0,1,1,1.25Z"/><path class="cls-19" d="M21.79,18.09c-.12-.25-.26-.53-.42-.81a8.22,8.22,0,0,0-.46-.75l-.42.17a9.57,9.57,0,0,1,.85,1.48Z"/><path class="cls-19" d="M22.8,17.93a8,8,0,0,0-1-1.79l-.41.19a7.87,7.87,0,0,1,1,1.67Z"/><path class="cls-19" d="M23.79,17.79c-.13-.33-.3-.75-.51-1.17a8.3,8.3,0,0,0-.62-1.09,1.72,1.72,0,0,1-.34.3,10.64,10.64,0,0,1,1,2Z"/><path class="cls-19" d="M17.64,19.39l.31-.18-.59-1c-.11.09-.22.2-.33.31l.54.9Z"/><path class="cls-19" d="M19.75,18.54l-.9-1.19-.41.18.86,1.14Z"/><path class="cls-19" d="M18.82,18.83l-.71-1.14-.15.09a1.5,1.5,0,0,0-.23.15L18.4,19Z"/><path class="cls-19" d="M15.61,20.91l-.35-.39c-.1.11-.19.23-.28.34l.29.33Z"/><path class="cls-19" d="M14.65,21.69l-.17-.2-.28.36.11.12Z"/><path class="cls-19" d="M16.34,20.33l-.45-.57-.29.34.4.5Z"/><path class="cls-19" d="M17.08,19.78,16.54,19l-.31.33.5.67Z"/><path class="cls-29" d="M25.93,31.43l-.46.81a37.94,37.94,0,0,1,4-.31A11.05,11.05,0,0,0,25.93,31.43Z"/><path class="cls-27" d="M25.69,29.89l2.57.11c-.18-.13-1.85-1.27-2.88-.78s-1.17,3.17-1.17,3.17A8.73,8.73,0,0,1,25.69,29.89Z"/><polygon class="cls-7" points="21.46 29.02 23.39 25.18 21.06 27.63 16.62 27.8 17.54 28.16 21.46 29.02"/><path class="cls-13" d="M7.75,34.17a4.1,4.1,0,0,0,4-1.1l-.29.18L8.09,24.7C6.64,23.54,4,21.94,2,24-.81,27,5.5,33.62,7.75,34.17Z"/><polygon class="cls-13" points="10.13 26.04 9.22 27.08 11.33 28.66 10.13 26.04"/><path class="cls-30" d="M5.07,30.46S1.54,24.34,7.77,26c0,0-2-1.67-3.71-1.27S2.45,27.32,2.9,28.27A8.45,8.45,0,0,0,5.07,30.46Z"/><path class="cls-30" d="M7.08,30.57c1.41-.12.4-3.21.4-3.21s.27,1.73-.37,2.26-.92-.92-1.06-1.86,1-2,1-2l-.54-.16-.06-.24C3.91,25.42,5.66,30.68,7.08,30.57Z"/><path class="cls-30" d="M8.53,32.43c1.19-.45,1-1.32,1-1.32l-3.15.34S7.34,32.88,8.53,32.43Z"/><path class="cls-31" d="M31.69,20.6c.23-.05.39-.23.35-.39s-.25-.26-.49-.2-.39.23-.35.39A.38.38,0,0,0,31.69,20.6Z"/><path class="cls-31" d="M19.56,23.4c.23,0,.39-.23.35-.39a.38.38,0,0,0-.49-.2c-.23.05-.39.23-.35.39S19.32,23.45,19.56,23.4Z"/></g></g></g></svg>